<?xml version="1.0" encoding="UTF-8"?>
<svg id="Layer_1" xmlns="http://www.w3.org/2000/svg" width="1024" height="1024" xmlns:xlink="http://www.w3.org/1999/xlink" version="1.1" viewBox="0 0 1024 1024">
  <!-- Generator: Adobe Illustrator 29.6.1, SVG Export Plug-In . SVG Version: 2.1.1 Build 9)  -->
  <defs>
    <linearGradient id="linear-gradient" x1="0" y1="0" x2="1" y2="0" gradientTransform="translate(.014 1023.836) rotate(-45) scale(1448.155)" gradientUnits="userSpaceOnUse">
      <stop offset="0" stop-color="#1b660f"/>
      <stop offset="1" stop-color="#6cae3e"/>
    </linearGradient>
  </defs>
  <rect x=".014" y="-.164" width="1024" height="1024" fill="url(#linear-gradient)"/>
  <path d="M774.796,569.588l1.17-7.069c6.932,3.968,12.607,7.524,17.07,10.5-5.069-.785-11.351-1.984-18.24-3.431ZM508.611,503.116c0,11.368-9.705,20.669-21.662,20.669s-21.662-9.301-21.662-20.669,9.748-20.669,21.662-20.669,21.662,9.26,21.662,20.669ZM697.115,774.957c-3.683,2.026-11.698,4.878-18.413,7.317l-11.308,4.134c-11.568,4.341-25.301,8.268-40.985,11.657-39.252,8.64-93.581,13.766-145.223,13.766-162.077,0-203.148-26.787-204.621-35.51l-54.242-399.535c60.438,29.64,164.893,43.653,264.625,43.653,89.552,0,208.347-12.691,276.106-44.315l-30.197,182.674c-63.297-18.561-138.768-52.004-183.609-72.466-7.755-26.043-32.58-45.224-62.3-45.224-35.829,0-64.987,27.779-64.987,62.007s29.157,62.008,64.987,62.008c25.605,0,47.57-14.344,58.185-34.89,48.22,21.744,119.922,52.582,180.879,69.82l-28.897,174.902ZM486.948,254.507c184.822,0,284.814,43.653,285.984,61.925l-.173.992c-2.08,18.437-101.812,61.677-285.811,61.677-175.29,0-271.297-40.512-272.684-61.801l-.087-.827c.78-21.207,96.917-61.966,272.77-61.966ZM783.244,518.701l32.97-198.672v-.041c.087-1.075.26-2.067.26-3.183,0-76.063-197.039-103.635-329.525-103.635-152.329,0-316.268,32.451-316.268,103.635,0,.909.13,1.778.173,2.646l62.864,462.865c2.989,17.528,12.088,70.854,247.469,70.854,54.719,0,112.643-5.498,154.928-14.799,17.72-3.886,33.576-8.433,47.137-13.518l10.788-3.927c22.485-8.102,45.707-16.453,45.491-38.693l28.508-171.761c19.366,4.01,34.183,5.87,44.884,5.87,20.016,0,27.641-5.581,32.927-11.575,6.325-7.193,8.752-16.246,6.889-25.506-3.769-18.437-23.785-36.047-69.492-60.561Z" fill="#fff" fill-rule="evenodd"/>
</svg>