<?xml version="1.0" encoding="UTF-8"?>
<svg id="Layer_1" xmlns="http://www.w3.org/2000/svg" width="1024" height="1024" version="1.1" viewBox="0 0 1024 1024">
  <!-- Generator: Adobe Illustrator 29.6.1, SVG Export Plug-In . SVG Version: 2.1.1 Build 9)  -->
  <path d="M472.533,381.238l-27.989-32.142c-22.016,19.123-27.904,28.94-37.76,45.161-2.859,4.738-6.187,10.287-10.624,17.074l35.755,23.263c4.693-7.256,8.277-13.147,11.392-18.226,8.704-14.385,12.288-20.318,29.227-35.13" fill="#a166ff" fill-rule="evenodd"/>
  <path d="M454.357,484.962l-13.824,40.337c47.488,16.348,89.003,42.472,130.645,82.168l29.397-30.904c-46.208-44.094-92.672-73.205-146.219-91.602" fill="#a166ff" fill-rule="evenodd"/>
  <path d="M566.827,387.171l35.669-23.434c41.045,62.619,64.128,131.384,68.651,204.418l-42.581,2.646c-4.011-65.521-24.832-127.329-61.739-183.631" fill="#a166ff" fill-rule="evenodd"/>
  <path id="Amazon-CloudFront_Icon_16_Squid" d="M682.667,661.251c0-11.781-9.6-21.342-21.333-21.342s-21.333,9.561-21.333,21.342,9.6,21.342,21.333,21.342,21.333-9.561,21.333-21.342M725.333,661.251c0,35.3-28.715,64.027-64,64.027s-64-28.727-64-64.027,28.715-64.027,64-64.027,64,28.727,64,64.027M384,490.511c0-11.781-9.6-21.342-21.333-21.342s-21.333,9.561-21.333,21.342,9.6,21.342,21.333,21.342,21.333-9.561,21.333-21.342M426.667,490.511c0,35.3-28.715,64.027-64,64.027s-64-28.727-64-64.027,28.715-64.027,64-64.027,64,28.727,64,64.027M512,319.772c0,11.781,9.6,21.342,21.333,21.342s21.333-9.561,21.333-21.342-9.6-21.342-21.333-21.342-21.333,9.561-21.333,21.342M469.333,319.772c0-35.3,28.715-64.027,64-64.027s64,28.727,64,64.027-28.715,64.027-64,64.027-64-28.727-64-64.027M810.667,511.854c0-96.297-46.805-185.893-123.691-241.682-7.851-2.518-29.611,3.884-65.493,19.294-6.443,2.732-11.904,5.037-15.744,6.445l-14.507-40.167c3.328-1.152,7.979-3.201,13.483-5.549,9.429-4.012,18.688-7.854,27.733-11.269-37.717-16.69-78.677-25.867-120.448-25.867-29.312,0-57.941,4.183-85.248,12.421-1.963.555-3.712,1.537-5.632,2.134,14.933,5.592,32.725,12.805,53.845,22.282l-17.408,38.929c-51.456-23.093-80.896-31.672-94.592-34.874-77.44,44.905-131.328,122.676-145.195,212.358,13.739-1.793,27.605-2.86,42.368-3.244l1.067,42.685c-16.939.427-32.384,2.22-47.829,4.738,0,.427-.043.896-.043,1.366,0,98.175,48,188.625,126.976,244.115-8.576-29.922-15.872-65.735-15.872-101.846,0-6.659-.213-13.702-.427-20.83-.683-20.361-1.365-41.404,2.389-60.57l41.856,8.238c-2.859,14.385-2.219,32.953-1.621,50.923.256,7.641.469,15.11.469,22.239,0,38.331,10.624,86.352,28.715,132.793,52.352,22.025,110.165,28.385,165.419,19.208,4.779-8.793,10.581-17.714,16.725-26.763,9.131-13.488,18.56-27.404,22.229-40.038l41.003,11.909c-3.84,13.318-10.837,25.355-18.219,37.008,25.515-10.202,49.792-23.05,71.595-39.996,73.813-57.112,116.096-143.293,116.096-236.389M853.333,511.854c0,106.414-48.341,204.888-132.608,270.11-29.824,23.135-62.976,40.978-98.56,52.972-35.072,12.165-72.192,18.397-110.165,18.397-56.064,0-111.744-14.001-161.067-40.423-111.189-59.545-180.267-174.88-180.267-301.057,0-7.043.171-14.043.768-20.916,8.277-142.184,105.984-265.543,243.072-306.35,85.931-25.91,185.045-15.409,264.32,29.453,107.648,60.314,174.507,174.411,174.507,297.813" fill="#a166ff" fill-rule="evenodd" data-split="true"/>
</svg>