<?xml version="1.0" encoding="UTF-8"?>
<svg id="Layer_1" xmlns="http://www.w3.org/2000/svg" width="1024" height="1024" version="1.1" viewBox="0 0 1024 1024">
  <!-- Generator: Adobe Illustrator 29.6.1, SVG Export Plug-In . SVG Version: 2.1.1 Build 9)  -->
  <g>
    <path d="M926.66,691.103c-112.312,82.532-275.674,126.776-415.213,126.776-196.546,0-373.522-72.322-507.105-193.142-10.21-9.359-.851-22.122,11.912-15.315,144.644,84.234,322.471,134.434,507.105,134.434,124.224,0,261.21-25.525,387.135-79.129,17.868-7.658,34.034,12.763,16.166,26.376Z" fill="#f90" fill-rule="evenodd"/>
    <path d="M972.606,638.351c-14.464-18.719-94.444-8.508-131.03-4.254-11.061,1.702-12.763-8.508-2.553-15.315,63.814-45.095,169.319-32.332,181.23-17.017,11.912,15.315-3.403,120.82-62.963,171.02-9.359,7.658-17.868,3.403-13.614-6.807,13.614-34.034,43.393-109.759,28.929-127.627Z" fill="#f90" fill-rule="evenodd"/>
  </g>
  <path d="M732.667,227.392c0,1.702-.851,5.105-2.553,8.508l-82.532,263.763c-1.702,6.807-4.254,11.061-6.807,13.614-2.553,1.702-6.807,3.403-12.763,3.403h-28.929c-6.807,0-11.061-.851-13.614-3.403-2.553-2.553-5.105-6.807-6.807-13.614l-52.752-219.519-52.753,219.519c-1.702,6.807-3.403,11.061-6.807,13.614-2.553,2.553-7.658,3.403-13.614,3.403h-28.929c-5.956,0-10.21-.851-12.763-3.403-2.553-1.702-5.105-6.807-6.807-13.614l-79.98-263.763c-1.702-6.807-3.403-11.061-3.403-13.614,0-5.105,2.553-8.508,8.508-8.508h33.183c6.807,0,11.061.851,13.614,3.403,2.553,1.702,5.105,6.807,6.807,13.614l57.007,225.474,52.753-225.474c1.702-6.807,3.403-11.061,6.807-13.614,2.553-1.702,7.658-3.403,13.614-3.403h27.227c6.807,0,11.061.851,13.614,3.403,2.553,1.702,5.105,6.807,6.807,13.614l53.603,228.027,58.708-228.027c1.702-6.807,4.254-11.061,6.807-13.614,2.553-1.702,6.807-3.403,13.614-3.403h31.481c5.105,0,8.508,2.553,8.508,8.508" fill="#fff"/>
  <path d="M732.667,227.392c0,1.702-.851,5.105-2.553,8.508l-82.532,263.763c-1.702,6.807-4.254,11.061-6.807,13.614-2.553,1.702-6.807,3.403-12.763,3.403h-28.929c-6.807,0-11.061-.851-13.614-3.403-2.553-2.553-5.105-6.807-6.807-13.614l-52.752-219.519-52.753,219.519c-1.702,6.807-3.403,11.061-6.807,13.614-2.553,2.553-7.658,3.403-13.614,3.403h-28.929c-5.956,0-10.21-.851-12.763-3.403-2.553-1.702-5.105-6.807-6.807-13.614l-79.98-263.763c-1.702-6.807-3.403-11.061-3.403-13.614,0-5.105,2.553-8.508,8.508-8.508h33.183c6.807,0,11.061.851,13.614,3.403,2.553,1.702,5.105,6.807,6.807,13.614l57.007,225.474,52.753-225.474c1.702-6.807,3.403-11.061,6.807-13.614,2.553-1.702,7.658-3.403,13.614-3.403h27.227c6.807,0,11.061.851,13.614,3.403,2.553,1.702,5.105,6.807,6.807,13.614l53.603,228.027,58.708-228.027c1.702-6.807,4.254-11.061,6.807-13.614,2.553-1.702,6.807-3.403,13.614-3.403h31.481c5.105,0,8.508,2.553,8.508,8.508" fill="#fff"/>
  <path d="M861.996,525.188c-17.868,0-35.736-1.702-52.752-5.956-17.017-4.254-30.63-8.508-39.139-13.614-5.105-3.403-9.359-6.807-10.21-9.359s-2.553-6.807-2.553-9.359v-17.017c0-6.807,2.553-10.21,7.658-10.21,1.702,0,4.254,0,5.956.851s5.105,1.702,8.508,3.403c11.912,5.105,23.824,9.359,37.437,11.912,13.614,2.553,27.227,4.254,40.841,4.254,21.271,0,38.288-3.403,49.349-11.061,11.912-7.658,17.868-18.719,17.868-32.332,0-9.359-3.403-17.017-9.359-23.824s-17.868-11.912-34.034-17.868l-49.349-15.315c-24.675-7.658-43.393-19.569-54.454-34.885-11.061-15.315-17.017-31.481-17.017-49.349,0-14.464,3.403-27.227,9.359-37.437,5.956-10.21,14.464-20.42,24.675-28.078,10.21-7.658,22.122-13.614,35.736-17.868,13.614-4.254,28.078-5.956,42.542-5.956,7.658,0,15.315,0,22.973,1.702,7.658.851,15.315,2.553,22.122,3.403,6.807,1.702,13.614,3.403,19.57,5.105,5.956,1.702,11.061,4.254,14.464,5.956,5.105,2.553,8.508,5.105,10.21,8.508,1.702,2.553,3.403,6.807,3.403,11.061v16.166c0,6.807-2.553,11.061-7.658,11.061-2.553,0-6.807-1.702-12.763-4.254-19.57-8.508-40.841-13.614-65.515-13.614-19.57,0-34.885,3.403-45.095,9.359s-16.166,16.166-16.166,30.63c0,9.359,3.403,17.868,10.21,23.824,6.807,6.807,19.57,12.763,37.437,18.719l48.498,15.315c24.675,7.658,42.542,18.719,52.752,32.332,10.21,13.614,15.315,29.78,15.315,47.647,0,14.464-3.403,28.078-8.508,39.139-5.956,11.912-14.464,22.122-24.675,29.78-10.21,8.508-22.973,14.464-37.437,18.719-17.017,6.807-33.183,8.509-50.2,8.509Z" fill="#fff" />
  <path d="M861.996,525.188c-17.868,0-35.736-1.702-52.752-5.956-17.017-4.254-30.63-8.508-39.139-13.614-5.105-3.403-9.359-6.807-10.21-9.359s-2.553-6.807-2.553-9.359v-17.017c0-6.807,2.553-10.21,7.658-10.21,1.702,0,4.254,0,5.956.851s5.105,1.702,8.508,3.403c11.912,5.105,23.824,9.359,37.437,11.912,13.614,2.553,27.227,4.254,40.841,4.254,21.271,0,38.288-3.403,49.349-11.061,11.912-7.658,17.868-18.719,17.868-32.332,0-9.359-3.403-17.017-9.359-23.824s-17.868-11.912-34.034-17.868l-49.349-15.315c-24.675-7.658-43.393-19.569-54.454-34.885-11.061-15.315-17.017-31.481-17.017-49.349,0-14.464,3.403-27.227,9.359-37.437,5.956-10.21,14.464-20.42,24.675-28.078,10.21-7.658,22.122-13.614,35.736-17.868,13.614-4.254,28.078-5.956,42.542-5.956,7.658,0,15.315,0,22.973,1.702,7.658.851,15.315,2.553,22.122,3.403,6.807,1.702,13.614,3.403,19.57,5.105,5.956,1.702,11.061,4.254,14.464,5.956,5.105,2.553,8.508,5.105,10.21,8.508,1.702,2.553,3.403,6.807,3.403,11.061v16.166c0,6.807-2.553,11.061-7.658,11.061-2.553,0-6.807-1.702-12.763-4.254-19.57-8.508-40.841-13.614-65.515-13.614-19.57,0-34.885,3.403-45.095,9.359s-16.166,16.166-16.166,30.63c0,9.359,3.403,17.868,10.21,23.824,6.807,6.807,19.57,12.763,37.437,18.719l48.498,15.315c24.675,7.658,42.542,18.719,52.752,32.332,10.21,13.614,15.315,29.78,15.315,47.647,0,14.464-3.403,28.078-8.508,39.139-5.956,11.912-14.464,22.122-24.675,29.78-10.21,8.508-22.973,14.464-37.437,18.719-17.017,6.807-33.183,8.509-50.2,8.509Z" fill="#fff" />
  <path d="M288.525,427.341c0,12.763,1.702,22.973,3.403,30.63,2.553,7.658,5.956,15.315,11.061,24.675,1.702,2.553,2.553,5.105,2.553,7.658,0,3.403-1.702,6.807-6.807,10.21l-21.271,14.464c-3.403,1.702-5.956,3.403-8.508,3.403-3.403,0-6.807-1.702-10.21-5.105-5.105-5.105-8.508-10.21-11.912-16.166s-6.807-11.912-10.21-20.42c-26.376,31.481-59.559,46.797-100.4,46.797-28.929,0-51.051-8.508-68.068-24.675-17.017-16.166-25.525-38.288-25.525-65.515,0-28.929,10.21-52.753,30.63-69.769,20.42-17.017,48.498-26.376,83.383-26.376,11.912,0,23.824.851,35.736,2.553,12.763,1.702,25.525,4.254,39.139,7.658v-24.675c0-25.525-5.105-44.244-16.166-54.454-11.061-10.21-28.929-15.315-55.305-15.315-11.912,0-23.824,1.702-36.586,4.254-12.763,3.403-24.675,6.807-36.586,11.912-5.105,1.702-9.359,3.403-11.912,4.254-2.553,0-4.254.851-5.105.851-5.105,0-6.807-3.403-6.807-10.21v-17.017c0-5.105.851-9.359,2.553-11.912s5.105-5.105,9.359-6.807c11.912-5.956,26.376-11.061,42.542-15.315,17.017-4.254,34.034-6.807,52.753-6.807,40.841,0,69.769,9.359,89.339,27.227,18.719,18.719,28.078,45.946,28.078,84.234l.851,109.759h0ZM150.688,479.242c11.061,0,22.973-1.702,34.885-5.956s22.973-11.912,32.332-22.122c5.105-6.807,9.359-13.614,11.912-22.122,1.702-8.508,3.403-17.868,3.403-29.78v-14.464c-10.21-2.553-20.42-4.254-31.481-5.956-11.061-1.702-21.271-1.702-32.332-1.702-22.973,0-39.139,4.254-51.051,13.614-11.061,9.359-17.017,22.122-17.017,39.139,0,16.166,4.254,28.078,12.763,35.736,8.508,10.21,20.42,13.614,36.586,13.614Z" fill="#fff"  data-split="true"/>
</svg>