<?xml version="1.0" encoding="UTF-8"?>
<svg id="Layer_1" xmlns="http://www.w3.org/2000/svg" width="1024" height="1024" version="1.1" viewBox="0 0 1024 1024">
  <!-- Generator: Adobe Illustrator 29.6.1, SVG Export Plug-In . SVG Version: 2.1.1 Build 9)  -->
  <g id="Layer_11" data-name="Layer_1">
    <path d="M853.33,512c0,63.26-24.85,138.52-66.45,201.36l-35.73-23.64c37.19-56.11,59.33-122.54,59.33-177.71,0-164.61-133.92-298.5-298.51-298.5s-298.47,133.89-298.47,298.5c0,54.95,22.15,121.43,59.29,177.71l-35.73,23.6c-41.56-63.01-66.4-138.31-66.4-201.31,0-188.21,153.11-341.33,341.31-341.33s341.35,153.13,341.35,341.33h0l.01-.01Z" fill="#09f" fill-rule="evenodd"/>
    <path d="M726.87,364.36v213.26c0,11.82-9.6,21.42-21.42,21.42h-172.05v39.45h126.38c11.82,0,21.42,9.59,21.42,21.42v35.77c26.73,8.78,45.67,33.32,45.67,63.39,0,37.65-29.47,67.12-67.09,67.12s-67.17-29.47-67.17-67.12c0-30.07,18.98-54.61,45.75-63.44v-14.31h-104.96v41.38c27.46,8.87,47.42,33.79,47.42,63.44,0,37.05-30.89,67.2-68.85,67.2s-68.8-30.15-68.8-67.2c0-29.64,19.96-54.57,47.38-63.44v-41.38h-107.74v14.35c26.73,8.78,45.67,33.32,45.67,63.39,0,37.65-29.47,67.12-67.09,67.12s-67.13-29.47-67.13-67.12c0-30.07,18.98-54.61,45.71-63.39v-35.77c0-11.82,9.55-21.42,21.42-21.42h129.16v-39.45h-172.01c-11.87,0-21.42-9.59-21.42-21.42v-213.26c0-11.86,9.55-21.42,21.42-21.42h386.89c11.82,0,21.42,9.55,21.42,21.42h0l.02.01ZM684.03,535.3v-131.92l-96.22,61.21,96.22,70.72v-.01ZM383.84,556.2h256.32l-91.12-66.95-25.53,16.23c-3.51,2.23-7.5,3.34-11.52,3.34s-7.97-1.11-11.48-3.34l-25.53-16.23-91.12,66.95h-.02ZM339.97,403.38v131.92l96.22-70.72-96.22-61.21v.01ZM631.89,385.77h-239.78l119.87,76.28,119.91-76.28ZM684.03,759.06c0-13.83-10.41-24.29-24.25-24.29s-24.33,10.45-24.33,24.29,10.45,24.29,24.33,24.29,24.25-10.45,24.25-24.29h0ZM537.98,786.13c0-13.36-11.7-24.24-26-24.24s-25.96,10.88-25.96,24.24,11.65,24.37,25.96,24.37,26-10.92,26-24.37h0ZM385.64,759.06c0-13.83-10.41-24.29-24.25-24.29s-24.29,10.45-24.29,24.29,10.45,24.29,24.29,24.29,24.25-10.45,24.25-24.29h0Z" fill="#09f" fill-rule="evenodd" data-split="true"/>
  </g>
</svg>