<?xml version="1.0" encoding="UTF-8"?>
<svg id="Layer_1" xmlns="http://www.w3.org/2000/svg" width="1024" height="1024" xmlns:xlink="http://www.w3.org/1999/xlink" version="1.1" viewBox="0 0 1024 1024">
  <!-- Generator: Adobe Illustrator 29.6.1, SVG Export Plug-In . SVG Version: 2.1.1 Build 9)  -->
  <defs>
    <linearGradient id="linear-gradient" x1="0" y1="512" x2="1024" y2="512" gradientUnits="userSpaceOnUse">
      <stop offset="0" stop-color="#1b660f"/>
      <stop offset="1" stop-color="#6cae3e"/>
    </linearGradient>
  </defs>
  <path id="Amazon-S3-Standard-Icon_16_Squid" d="M906.173,566.629l1.755-10.603c10.398,5.953,18.911,11.285,25.605,15.75-7.603-1.178-17.026-2.976-27.359-5.147h0ZM506.895,466.921c0,17.052-14.557,31.004-32.493,31.004s-32.493-13.952-32.493-31.004,14.622-31.004,32.493-31.004,32.493,13.89,32.493,31.004h0ZM789.652,874.682c-5.524,3.038-17.546,7.317-27.619,10.975l-16.961,6.201c-17.351,6.511-37.952,12.401-61.477,17.486-58.878,12.96-140.371,20.649-217.835,20.649-243.115,0-304.722-40.181-306.932-53.265L77.464,277.426c90.656,44.459,247.339,65.48,396.938,65.48,134.327,0,312.52-19.036,414.159-66.472l-45.296,274.011c-94.945-27.841-208.152-78.005-275.413-108.699-11.633-39.065-48.87-67.836-93.451-67.836-53.744,0-97.48,41.669-97.48,93.011s43.736,93.011,97.48,93.011c38.407,0,71.355-21.517,87.277-52.334,72.33,32.616,179.883,78.874,271.319,104.731l-43.346,262.354ZM474.402,94.008c277.233,0,427.222,65.48,428.976,92.887l-.26,1.488c-3.119,27.655-152.718,92.515-428.716,92.515-262.936,0-406.946-60.767-409.025-92.701l-.13-1.24c1.17-31.81,145.375-92.949,409.155-92.949h0ZM918.845,490.297l49.455-298.008v-.062c.13-1.612.39-3.1.39-4.775,0-114.094-295.559-155.453-494.288-155.453C245.909,32,0,80.676,0,187.453c0,1.364.195,2.666.26,3.968l94.296,694.298c4.484,26.291,18.131,106.281,371.203,106.281,82.078,0,168.965-8.247,232.392-22.199,26.58-5.829,50.365-12.65,70.705-20.276l16.182-5.891c33.728-12.153,68.561-24.679,68.236-58.039l42.761-257.641c29.049,6.015,51.274,8.805,67.326,8.805,30.024,0,41.461-8.371,49.39-17.362,9.488-10.789,13.127-24.369,10.333-38.259-5.654-27.655-35.678-54.071-104.239-90.841h0Z" fill="url(#linear-gradient)" fill-rule="evenodd"/>
</svg>