<?xml version="1.0" encoding="UTF-8"?>
<svg id="Layer_1" xmlns="http://www.w3.org/2000/svg" width="1024" height="1024" version="1.1" viewBox="0 0 1024 1024">
  <!-- Generator: Adobe Illustrator 29.6.1, SVG Export Plug-In . SVG Version: 2.1.1 Build 9)  -->
  <rect x="298.555" y="725.841" width="85.392" height="42.699" fill="#ff5252"/>
  <rect x="469.339" y="726.354" width="170.784" height="42.699" fill="#ff5252"/>
  <rect x="298.555" y="640.658" width="85.392" height="42.699" fill="#ff5252"/>
  <rect x="469.339" y="640.658" width="256.176" height="42.699" fill="#ff5252"/>
  <path d="M853.347,831.734c0,5.636-2.263,11.059-6.276,15.115-4.013,3.971-9.436,6.234-15.072,6.234h-106.484v-42.699h85.093l-.598-508.755H213.376v508.84h384.051v42.699H192.028c-11.784,0-21.348-9.565-21.348-21.349V191.852c0-11.828,9.564-21.349,21.348-21.349h639.202c11.784,0,21.348,9.522,21.348,21.307l.769,639.925ZM809.968,258.931l-.043-45.73H213.376v45.73h596.591Z" fill="#ff5252" fill-rule="evenodd" data-split="true"/>
  <path d="M411.23,586.473l15.456-67.763-57.426-56.661c-5.764-5.636-7.813-14.005-5.38-21.648,2.391-7.686,8.923-13.279,16.822-14.603l80.354-13.322,31.638-68.062c3.501-7.558,11.741-12.81,19.427-12.34,8.368,0,15.883,4.91,19.341,12.468l30.997,67.848,81.08,13.194c8.112,1.324,14.687,7.131,17.078,14.987,2.348,7.814-.043,16.311-6.063,21.819l-62.037,56.832,14.858,67.293c1.879,8.412-1.537,17.122-8.582,22.075-7.045,4.91-16.438,5.167-23.739.512l-63.361-40.35-68.783,40.82c-3.33,1.964-7.13,2.989-10.887,2.989-4.398,0-8.838-1.366-12.595-4.099-6.874-5.038-10.119-13.706-8.198-21.99h0ZM429.034,461.067l36.121,35.611c5.294,5.209,7.472,12.724,5.807,19.94l-7.045,30.786,37.231-22.075c6.959-4.099,15.627-3.928,22.373.342l31.04,19.812-6.404-29.078c-1.622-7.43.811-15.201,6.404-20.367l38.683-35.355-48.887-7.942c-7.045-1.153-13.022-5.764-16.011-12.212l-16.481-36.123-16.865,36.294c-2.946,6.405-8.923,10.931-15.84,12.084l-50.125,8.284Z" fill="#ff5252" fill-rule="evenodd" data-split="true"/>
</svg>