<?xml version="1.0" encoding="UTF-8"?>
<svg id="Layer_1" xmlns="http://www.w3.org/2000/svg" width="1024" height="1024" version="1.1" viewBox="0 0 1024 1024">
  <!-- Generator: Adobe Illustrator 29.6.1, SVG Export Plug-In . SVG Version: 2.1.1 Build 9)  -->
  <path d="M682.68,383.836h42.667v42.667h-42.667v42.667h42.667v42.667h-42.667v42.667h42.667v42.667h-42.667v13.141c0,16.256-13.269,29.525-29.525,29.525h-13.141v42.667h-42.667v-42.667h-42.667v42.667h-42.667v-42.667h-42.667v42.667h-42.667v-42.667h-13.141c-16.256,0-29.525-13.269-29.525-29.525v-13.141h-42.667v-42.667h42.667v-42.667h-42.667v-42.667h42.667v-42.667h-42.667v-42.667h42.667v-13.141c0-16.256,13.269-29.525,29.525-29.525h13.141v-42.667h42.667v42.667h42.667v-42.667h42.667v42.667h42.667v-42.667h42.667v42.667h13.141c16.256,0,29.525,13.269,29.525,29.525v13.141Z" fill="#f90" fill-rule="evenodd"/>
  <path d="M512.014,810.502H213.347v-256h85.333v-42.667h-93.867c-18.859,0-34.133,14.592-34.133,32.512v275.499c0,18.389,14.976,33.323,33.323,33.323h316.544c18.859,0,34.133-14.592,34.133-32.512v-95.488h-42.667v85.333Z" fill="#f90" fill-rule="evenodd"/>
  <path d="M853.347,203.825v317.355c0,18.389-14.976,33.323-33.323,33.323h-52.011v-42.667h42.667V213.169h-298.667v42.667h-42.667v-52.011c0-18.389,14.976-33.323,33.323-33.323h317.355c18.347,0,33.323,14.933,33.323,33.323h0Z" fill="#f90" fill-rule="evenodd"/>
</svg>