<?xml version="1.0" encoding="UTF-8"?>
<svg id="Layer_1" xmlns="http://www.w3.org/2000/svg" width="1024" height="1024" version="1.1" viewBox="0 0 1024 1024">
  <!-- Generator: Adobe Illustrator 29.6.1, SVG Export Plug-In . SVG Version: 2.1.1 Build 9)  -->
  <path d="M105.666,533.457c-11.466,0-20.759-9.295-20.759-20.759V20.759c0-11.464,9.293-20.759,20.759-20.759h812.667c11.466,0,20.759,9.295,20.759,20.759v141.002c0,11.464-9.293,20.759-20.759,20.759s-20.759-9.295-20.759-20.759V41.519H126.426v471.179c0,11.464-9.293,20.759-20.759,20.759Z" fill="#424242"/>
  <path d="M105.666,773.828c-11.466,0-20.759-9.295-20.759-20.759v-182.14c0-11.465,9.293-20.759,20.759-20.759s20.759,9.295,20.759,20.759v182.14c0,11.464-9.293,20.759-20.759,20.759Z" fill="#424242"/>
  <path d="M105.666,831.965c-5.441,0-10.801-2.242-14.702-6.102-3.86-3.862-6.058-9.175-6.058-14.657s2.198-10.836,6.058-14.698c3.901-3.86,9.22-6.062,14.702-6.062,5.433,0,10.793,2.202,14.694,6.062,3.86,3.862,6.065,9.218,6.065,14.698s-2.205,10.795-6.065,14.657c-3.901,3.86-9.261,6.102-14.694,6.102Z" fill="#424242"/>
  <path d="M918.334,1024H105.666c-11.466,0-20.759-9.295-20.759-20.759v-137.969c0-11.464,9.293-20.759,20.759-20.759s20.759,9.295,20.759,20.759v117.21h771.148v-496.155c0-11.464,9.293-20.759,20.759-20.759s20.759,9.295,20.759,20.759v516.914c0,11.464-9.293,20.759-20.759,20.759Z" fill="#424242"/>
  <path d="M918.334,446.438c-11.466,0-20.759-9.295-20.759-20.759v-144.42c0-11.464,9.293-20.759,20.759-20.759s20.759,9.295,20.759,20.759v144.42c0,11.464-9.293,20.759-20.759,20.759Z" fill="#424242"/>
  <path d="M917.523,240.114c-5.482,0-10.834-2.199-14.694-6.061-3.868-3.862-6.065-9.218-6.065-14.698,0-5.439,2.198-10.795,6.065-14.655,3.86-3.862,9.212-6.105,14.694-6.105,5.441,0,10.793,2.242,14.653,6.105,3.909,3.86,6.106,9.216,6.106,14.655,0,5.48-2.198,10.836-6.106,14.698-3.86,3.862-9.212,6.061-14.653,6.061Z" fill="#424242"/>
  <rect x="142.239" y="100.067" width="734.082" height="41.519" fill="#424242"/>
  <path d="M845.092,414.495H181.941v-217.394h663.151v217.394ZM223.46,372.977h580.113v-134.356H223.46v134.356Z" fill="#424242"/>
  <rect x="186.49" y="454.847" width="647.986" height="41.519" fill="#424242"/>
  <rect x="186.49" y="536.725" width="644.954" height="41.519" fill="#424242"/>
  <rect x="768.087" y="630.73" width="59.708" height="41.519" fill="#424242"/>
  <rect x="597.041" y="630.73" width="135.528" height="41.519" fill="#424242"/>
  <rect x="364.73" y="630.73" width="202.242" height="41.519" fill="#424242"/>
  <rect x="186.49" y="630.73" width="153.717" height="41.519" fill="#424242"/>
  <g>
    <path d="M365.979,857.219h-181.004v-126.422h181.004v126.422ZM226.493,815.7h97.967v-43.384h-97.967v43.384Z" fill="#424242"/>
    <path d="M597.625,857.219h-181.013v-126.422h181.013v126.422ZM458.131,815.7h97.975v-43.384h-97.975v43.384Z" fill="#424242"/>
    <path d="M832.96,857.219h-181.004v-126.422h181.004v126.422ZM693.475,815.7h97.967v-43.384h-97.967v43.384Z" fill="#424242"/>
  </g>
  <path d="M318.694,93.055v-41.519h41.519v41.519h-41.519ZM210.745,93.055v-41.519h41.519v41.519h-41.519Z" fill="#424242"/>
  <rect x="180.425" y="894.541" width="660.118" height="41.519" fill="#424242"/>
  <polygon points="829.093 409.301 181.284 242.701 191.632 202.49 839.432 369.09 829.093 409.301" fill="#424242"/>
  <polygon points="196.562 404.213 186.466 363.941 827.901 203.171 837.988 243.443 196.562 404.213" fill="#424242"/>
</svg>