<?xml version="1.0" encoding="UTF-8"?>
<svg id="Layer_1" xmlns="http://www.w3.org/2000/svg" width="1024" height="1024" version="1.1" viewBox="0 0 1024 1024">
  <!-- Generator: Adobe Illustrator 29.6.1, SVG Export Plug-In . SVG Version: 2.1.1 Build 9)  -->
  <path d="M703.05,172.343c-53.232,0-96.375,43.152-96.375,96.367s43.143,96.375,96.375,96.375,96.375-43.143,96.375-96.375-43.152-96.367-96.375-96.367Z" fill="#f90"/>
  <path d="M961.309,236.507l-28.395-2.739c-11.274-1.019-20.862-9.237-23.601-20.177v-.351c-3.073-10.94,1.036-22.565,10.272-29.071l23.25-16.761c4.794-3.073,6.163-9.571,3.09-14.364l-21.213-36.947c-2.739-4.794-8.903-6.848-14.03-4.443l-25.99,11.976c-10.606,4.443-22.582,2.388-30.449-5.829h-.334c-8.218-8.201-10.272-20.177-5.829-30.783l11.976-25.989c2.405-5.136.351-11.291-4.443-14.031l-36.947-21.212c-4.794-3.073-10.94-1.704-14.365,3.09l-16.77,23.25c-6.497,9.237-18.122,13.345-29.063,10.606l-.351-.334c-10.94-2.739-19.158-12.327-20.177-23.609l-2.739-28.386c-.351-5.821-5.128-9.922-10.94-9.922h-42.425c-5.813,0-10.606,4.101-10.941,9.922l-2.739,28.386c-1.036,11.283-9.237,20.87-20.177,23.609l-.351.334c-10.94,2.739-22.582-1.37-29.08-10.606l-16.753-23.25c-3.424-4.794-9.587-6.163-14.365-3.09l-36.946,21.212c-4.794,2.739-6.848,8.894-4.443,14.031l11.625,25.989c4.794,10.606,2.739,22.582-5.479,30.783h-.334c-7.867,8.218-20.194,10.272-30.449,5.829l-26.006-11.976c-5.128-2.405-11.274-.351-14.014,4.443l-21.212,36.947c-3.073,4.794-1.704,11.291,3.073,14.364l23.267,16.761c9.237,6.506,13.345,18.131,10.255,29.071v.351c-2.723,10.941-12.31,19.158-23.601,20.177l-28.395,2.739c-5.813.342-9.905,5.128-9.905,10.94v42.425c0,5.813,4.092,10.606,9.905,10.94l28.395,2.739c11.291,1.37,20.878,9.237,23.601,20.177v.351c3.09,10.94-1.019,22.574-10.255,29.079l-23.267,16.753c-4.777,3.424-6.147,9.587-3.073,14.715l21.212,36.596c2.739,5.128,8.886,6.848,14.014,4.443l26.006-11.625c10.606-4.794,22.582-2.739,30.449,5.479.334,0,.334.334.334.334,8.218,7.867,10.272,20.194,5.479,30.449l-11.625,25.998c-2.405,5.136-.351,11.283,4.443,14.022l36.946,21.547c4.777,2.739,10.941,1.37,14.365-3.407l16.753-23.267c6.497-9.237,18.139-13.345,29.08-10.264h.351c10.94,3.082,19.141,12.318,20.177,23.609l2.739,28.386c.334,5.821,5.128,10.264,10.941,10.264h42.425c5.813,0,10.59-4.443,10.94-10.264l2.739-28.386c1.019-11.291,9.237-20.528,20.177-23.609h.351c10.941-3.082,22.566,1.027,29.063,10.264l16.77,23.267c3.424,4.777,9.571,6.147,14.365,3.407l36.947-21.547c4.794-2.739,6.848-8.886,4.443-14.022l-11.976-25.998c-4.443-10.256-2.389-22.582,5.829-30.449,0,0,0-.334.334-.334,7.867-8.218,19.843-10.272,30.449-5.479l25.99,11.625c5.128,2.405,11.291.685,14.03-4.443l21.213-36.596c3.073-5.128,1.704-11.291-3.09-14.715l-23.25-16.753c-9.237-6.506-13.345-18.139-10.272-29.079v-.351c2.739-10.94,12.327-18.807,23.601-20.177l28.395-2.739c5.813-.334,9.921-5.128,9.921-10.94v-42.425c0-5.813-4.109-10.598-9.921-10.94ZM703.05,415.26c-81,0-146.609-65.609-146.609-146.601s65.609-146.601,146.609-146.601,146.601,65.609,146.601,146.601-65.609,146.601-146.601,146.601Z" fill="silver"/>
  <path d="M287.884,534.101c-46.718,0-84.583,37.865-84.583,84.575s37.865,84.583,84.583,84.583,84.579-37.874,84.579-84.583-37.87-84.575-84.579-84.575Z" fill="#f90"/>
  <path d="M514.537,590.406l-24.921-2.397c-9.892-.902-18.31-8.109-20.711-17.713v-.301c-2.698-9.604.906-19.81,9.015-25.522l20.402-14.707c4.209-2.697,5.412-8.402,2.714-12.611l-18.615-32.42c-2.405-4.201-7.817-6.005-12.318-3.9l-22.808,10.506c-9.308,3.9-19.818,2.104-26.725-5.111h-.292c-7.207-7.199-9.011-17.705-5.111-27.017l10.506-22.816c2.113-4.501.309-9.905-3.9-12.302l-32.424-18.624c-4.205-2.698-9.6-1.495-12.606,2.706l-14.715,20.419c-5.704,8.101-15.909,11.708-25.505,9.303l-.309-.301c-9.604-2.397-16.815-10.807-17.709-20.72l-2.405-24.912c-.305-5.103-4.497-8.711-9.6-8.711h-37.235c-5.099,0-9.308,3.608-9.6,8.711l-2.405,24.912c-.91,9.913-8.109,18.323-17.705,20.72l-.309.301c-9.604,2.405-19.818-1.203-25.522-9.303l-14.703-20.419c-3.007-4.201-8.414-5.403-12.606-2.706l-32.429,18.624c-4.205,2.397-6.009,7.8-3.9,12.302l10.205,22.816c4.209,9.312,2.405,19.818-4.81,27.017h-.292c-6.902,7.216-17.722,9.011-26.724,5.111l-22.82-10.506c-4.501-2.105-9.896-.301-12.297,3.9l-18.62,32.42c-2.698,4.209-1.495,9.913,2.698,12.611l20.419,14.707c8.105,5.712,11.713,15.918,8.998,25.522v.301c-2.388,9.604-10.798,16.811-20.711,17.713l-24.921,2.397c-5.099.301-8.694,4.51-8.694,9.604v37.231c0,5.103,3.595,9.312,8.694,9.612l24.921,2.397c9.913,1.203,18.323,8.109,20.711,17.713v.301c2.714,9.612-.894,19.818-8.998,25.522l-20.419,14.707c-4.193,3.006-5.395,8.41-2.698,12.911l18.62,32.12c2.401,4.501,7.796,6.005,12.297,3.9l22.82-10.197c9.312-4.209,19.822-2.405,26.724,4.794.292,0,.292.301.292.301,7.216,6.907,9.02,17.722,4.81,26.724l-10.205,22.816c-2.109,4.501-.305,9.905,3.9,12.31l32.429,18.908c4.193,2.405,9.6,1.203,12.606-2.998l14.703-20.419c5.704-8.101,15.918-11.709,25.522-9.003h.309c9.596,2.698,16.795,10.807,17.705,20.711l2.405,24.921c.292,5.103,4.501,9.003,9.6,9.003h37.235c5.103,0,9.295-3.9,9.6-9.003l2.405-24.921c.894-9.905,8.105-18.014,17.709-20.711h.309c9.596-2.706,19.801.902,25.505,9.003l14.715,20.419c3.006,4.201,8.402,5.403,12.606,2.998l32.424-18.908c4.209-2.405,6.013-7.809,3.9-12.31l-10.506-22.816c-3.9-9.003-2.096-19.818,5.111-26.724,0,0,0-.301.292-.301,6.907-7.199,17.417-9.003,26.725-4.794l22.808,10.197c4.502,2.105,9.913.601,12.318-3.9l18.615-32.12c2.698-4.502,1.495-9.905-2.714-12.911l-20.402-14.707c-8.109-5.704-11.713-15.909-9.015-25.522v-.301c2.401-9.604,10.819-16.511,20.711-17.713l24.921-2.397c5.099-.301,8.706-4.51,8.706-9.612v-37.231c0-5.095-3.608-9.304-8.706-9.604ZM287.884,747.287c-71.087,0-128.67-57.575-128.67-128.654s57.583-128.662,128.67-128.662,128.658,57.574,128.658,128.662-57.579,128.654-128.658,128.654Z" fill="silver"/>
  <circle cx="749.801" cy="802.807" r="79.572" transform="translate(-348.059 765.326) rotate(-45)" fill="#f90"/>
  <path d="M963.037,776.208l-23.442-2.255c-9.312-.852-17.229-7.625-19.488-16.669v-.276c-2.535-9.045.856-18.64,8.481-24.01l19.2-13.838c3.959-2.539,5.086-7.909,2.547-11.867l-17.513-30.499c-2.263-3.959-7.349-5.646-11.583-3.675l-21.459,9.888c-8.757,3.675-18.644,1.979-25.142-4.802h-.276c-6.785-6.781-8.481-16.661-4.81-25.413l9.888-21.471c1.984-4.234.288-9.32-3.67-11.575l-30.504-17.513c-3.959-2.547-9.036-1.42-11.863,2.539l-13.847,19.208c-5.366,7.625-14.962,11.016-23.998,8.752l-.288-.284c-9.032-2.255-15.818-10.164-16.657-19.484l-2.263-23.442c-.292-4.802-4.234-8.193-9.036-8.193h-35.026c-4.802,0-8.761,3.391-9.036,8.193l-2.259,23.442c-.856,9.32-7.629,17.229-16.661,19.484l-.288.284c-9.036,2.263-18.649-1.127-24.01-8.752l-13.83-19.208c-2.831-3.959-7.917-5.086-11.863-2.539l-30.504,17.513c-3.959,2.255-5.654,7.341-3.67,11.575l9.6,21.471c3.959,8.752,2.259,18.632-4.526,25.413h-.276c-6.497,6.781-16.669,8.477-25.138,4.802l-21.476-9.888c-4.234-1.971-9.308-.284-11.571,3.675l-17.513,30.499c-2.539,3.959-1.407,9.328,2.539,11.867l19.208,13.838c7.625,5.37,11.02,14.966,8.468,24.01v.276c-2.247,9.045-10.164,15.818-19.484,16.669l-23.451,2.255c-4.794.284-8.176,4.242-8.176,9.036v35.026c0,4.802,3.382,8.761,8.176,9.045l23.451,2.263c9.32,1.119,17.237,7.617,19.484,16.653v.284c2.551,9.036-.844,18.64-8.468,24.01l-19.208,13.838c-3.946,2.823-5.078,7.909-2.539,12.143l17.513,30.224c2.263,4.234,7.337,5.654,11.571,3.666l21.476-9.596c8.752-3.959,18.64-2.263,25.138,4.518.276,0,.276.284.276.284,6.785,6.497,8.485,16.669,4.526,25.138l-9.6,21.463c-1.984,4.242-.288,9.32,3.67,11.583l30.504,17.788c3.946,2.263,9.032,1.127,11.863-2.823l13.83-19.2c5.362-7.633,14.974-11.024,24.01-8.477h.288c9.032,2.539,15.805,10.164,16.661,19.484l2.259,23.442c.276,4.802,4.234,8.477,9.036,8.477h35.026c4.802,0,8.744-3.675,9.036-8.477l2.263-23.442c.839-9.32,7.625-16.945,16.657-19.484h.288c9.036-2.547,18.632.843,23.998,8.477l13.847,19.2c2.827,3.95,7.904,5.086,11.863,2.823l30.504-17.788c3.958-2.263,5.654-7.341,3.67-11.583l-9.888-21.463c-3.67-8.468-1.975-18.64,4.81-25.138,0,0,0-.284.276-.284,6.497-6.781,16.385-8.477,25.142-4.518l21.459,9.596c4.234,1.988,9.32.568,11.583-3.666l17.513-30.224c2.539-4.234,1.411-9.32-2.547-12.143l-19.2-13.838c-7.625-5.37-11.016-14.974-8.481-24.01v-.284c2.259-9.036,10.176-15.534,19.488-16.653l23.442-2.263c4.802-.284,8.193-4.242,8.193-9.045v-35.026c0-4.794-3.391-8.752-8.193-9.036ZM749.801,923.803c-66.878,0-121.05-54.167-121.05-121.037s54.171-121.045,121.05-121.045,121.045,54.167,121.045,121.045-54.171,121.037-121.045,121.037Z" fill="silver"/>
</svg>