<?xml version="1.0" encoding="UTF-8"?>
<svg id="Layer_1" xmlns="http://www.w3.org/2000/svg" width="226.77" height="226.77" version="1.1" viewBox="0 0 226.77 226.77">
  <!-- Generator: Adobe Illustrator 29.6.1, SVG Export Plug-In . SVG Version: 2.1.1 Build 9)  -->
  <path d="M71.984,206.862c-.186,0-.372-.025-.555-.079-.687-.198-1.215-.747-1.386-1.441L26.83,30.402c-.171-.693.04-1.425.554-1.92.515-.495,1.257-.678,1.94-.481l173.23,49.874c.687.198,1.216.747,1.388,1.441s-.04,1.427-.555,1.922l-130.017,125.065c-.378.363-.877.559-1.387.559ZM31.542,32.802l41.552,168.217,125.021-120.259L31.542,32.802Z" fill="silver" data-split="true"/>
  <path d="M136.945,144.36c-.185,0-.371-.025-.554-.078l-86.567-24.944c-.687-.198-1.216-.747-1.388-1.44-.172-.694.04-1.427.554-1.922l64.976-62.552c.514-.496,1.257-.677,1.942-.48.688.198,1.216.748,1.387,1.442l21.592,87.495c.172.693-.04,1.426-.555,1.921-.378.363-.877.559-1.387.559ZM54.261,116.454l79.914,23.026-19.933-80.77-59.981,57.744Z" fill="silver" data-split="true"/>
  <path d="M93.874,131.282c-.185,0-.372-.025-.555-.078-.687-.198-1.216-.748-1.387-1.442l-10.724-43.465c-.171-.693.041-1.424.555-1.919.513-.495,1.254-.68,1.939-.482l43.008,12.346c.688.197,1.217.746,1.389,1.439.173.694-.038,1.427-.553,1.923l-32.284,31.119c-.378.363-.877.56-1.388.56ZM85.919,88.694l9.065,36.74,27.29-26.304-36.355-10.436Z" fill="silver" data-split="true"/>
  <path d="M83.146,87.871c-.184,0-.37-.025-.552-.078l-43.008-12.346c-.687-.197-1.217-.746-1.389-1.439-.172-.694.038-1.427.553-1.923l32.284-31.119c.515-.497,1.255-.68,1.943-.481.687.198,1.216.748,1.387,1.442l10.724,43.465c.171.693-.041,1.424-.555,1.919-.377.364-.877.56-1.387.56ZM44.022,72.559l36.354,10.436-9.065-36.741-27.29,26.305Z" fill="silver" data-split="true"/>
  <path d="M169.158,112.647c-.185,0-.37-.025-.552-.078l-43.008-12.346c-.688-.197-1.217-.746-1.389-1.439-.173-.694.038-1.427.553-1.923l32.283-31.119c.515-.497,1.257-.679,1.942-.481.687.198,1.216.748,1.387,1.442l10.725,43.465c.171.693-.04,1.424-.554,1.919-.378.364-.877.56-1.388.56ZM130.034,97.336l36.354,10.436-9.065-36.741-27.289,26.305Z" fill="silver" data-split="true"/>
  <path d="M104.603,174.777c-.184,0-.37-.025-.552-.077l-43.008-12.347c-.687-.196-1.217-.745-1.389-1.439-.172-.693.038-1.427.553-1.922l32.284-31.12c.515-.496,1.254-.68,1.943-.481.687.198,1.216.748,1.387,1.442l10.724,43.465c.171.693-.041,1.425-.555,1.92-.377.364-.877.56-1.387.56ZM65.479,159.466l36.354,10.436-9.065-36.74-27.29,26.305Z" fill="silver" data-split="true"/>
</svg>