<?xml version="1.0" encoding="UTF-8"?>
<svg id="Layer_1" xmlns="http://www.w3.org/2000/svg" width="1024" height="1024" version="1.1" viewBox="0 0 1024 1024">
  <!-- Generator: Adobe Illustrator 29.6.1, SVG Export Plug-In . SVG Version: 2.1.1 Build 9)  -->
  <path d="M195.847,59.827v74.444c-34.698,27.454-63.441,60.524-87.044,101.109-49.046,83.999-58.682,182.451-35.391,269.416,50.528,189.345,244.75,301.827,433.662,251.089,87.522-23.523,166.052-80.551,214.954-165.397,88.67-152.639,49.835-347.972-87.019-456.155V59.827c119.78,75.048,198.382,209.54,195.345,361.452-4.615,229.744-194.078,412.255-423.284,407.599C177.936,824.283-4.09,634.332.478,404.588,3.443,258.602,80.945,131.791,195.847,59.827" fill="silver" fill-rule="evenodd"/>
  <path d="M691.946,578.694c-56.219-51.827-145.008-42.151-188.841,20.623,35.391,20.623,62.604,53.096,76.593,91.558,44.741-26.488,85.537-66.218,112.247-112.181" fill="silver" fill-rule="evenodd"/>
  <polygon points="695.677 761.329 757.755 823.556 824.95 756.188 762.873 693.959 695.677 761.329" fill="silver" fill-rule="evenodd"/>
  <path d="M415.393,413.902c49.834,0,90.176,40.456,90.176,90.348s-40.342,90.41-90.176,90.41-90.104-40.458-90.104-90.41,40.341-90.348,90.104-90.348" fill="silver" fill-rule="evenodd"/>
  <path d="M234.873,369.572c21.641,0,42.876,9.132,56.817,23.585,31.35,31.448,31.422,82.368,0,113.936-14.539,14.573-34.626,23.583-56.817,23.583-44.406,0-80.395-36.042-80.395-80.551s36.061-80.553,80.395-80.553" fill="silver" fill-rule="evenodd"/>
  <path d="M595.983,369.572c21.641,0,42.876,9.132,56.817,23.585,31.374,31.448,31.422,82.368,0,113.936-31.541,31.627-83.002,31.264-113.634,0-31.374-31.508-31.422-82.428-.072-113.936,14.539-14.573,34.698-23.585,56.889-23.585" fill="silver" fill-rule="evenodd"/>
  <path d="M251.158,690.815c-46.2-27.034-85.465-66.945-112.295-112.059,56.387-52.071,145.152-42.032,188.889,20.56-35.391,20.623-62.533,53.037-76.593,91.498" fill="silver" fill-rule="evenodd"/>
  <path d="M757.922,868.369l129.082,129.415c30.704,30.781,81.017,30.781,111.698,0,30.704-30.781,30.704-81.218,0-111.999l-129.058-129.477-111.722,112.061Z" fill="silver" fill-rule="evenodd"/>
  <path d="M279.686,705.992c31.493-95.186,149.337-130.08,227.15-65.129,20.278,16.933,35.821,39.43,44.335,65.07-85.775,39.853-185.828,40.155-271.484.06" fill="silver" fill-rule="evenodd"/>
  <path d="M455.04,294.282c2.894-4.051,7.58-6.653,12.96-6.653h103.305c17.504,0,31.732-14.333,31.732-31.869V28.681c0-17.48-14.228-31.812-31.732-31.812h-311.778c-17.48,0-31.709,14.331-31.709,31.812v227.08c0,17.535,14.228,31.869,31.709,31.869h103.328c4.759,0,9.469,2.116,12.602,6.17l33.669,43.481c3.204,4.111,9.398,4.111,12.602,0l33.311-42.998ZM558.823,188.694c8.8,0,15.974,7.191,15.974,16.026s-7.174,15.964-15.974,15.964h-147.949c-8.801,0-15.926-7.136-15.926-15.964s7.126-16.026,15.926-16.026h147.949ZM344.515,188.694c8.823,0,15.95,7.191,15.95,16.026s-7.126,15.964-15.95,15.964h-72.48c-8.824,0-15.998-7.136-15.998-15.964s7.174-16.026,15.998-16.026h72.48ZM272.034,95.742c-8.824,0-15.998-7.131-15.998-15.967s7.174-16.026,15.998-16.026h147.4c8.8,0,15.926,7.203,15.926,16.026s-7.126,15.967-15.926,15.967h-147.4ZM486.319,95.742c-8.8,0-15.926-7.131-15.926-15.967s7.126-16.026,15.926-16.026h72.504c8.8,0,15.974,7.203,15.974,16.026s-7.174,15.967-15.974,15.967h-72.504ZM558.823,126.222c8.8,0,15.974,7.203,15.974,16.027s-7.174,15.967-15.974,15.967h-286.788c-8.824,0-15.998-7.143-15.998-15.967s7.174-16.027,15.998-16.027" fill="silver" fill-rule="evenodd"/>
</svg>