<?xml version="1.0" encoding="UTF-8"?>
<svg id="Layer_1" xmlns="http://www.w3.org/2000/svg" width="1024" height="1024" version="1.1" viewBox="0 0 1024 1024">
  <!-- Generator: Adobe Illustrator 29.6.1, SVG Export Plug-In . SVG Version: 2.1.1 Build 9)  -->
  <path d="M460.756,575.081l-205.336,28.864-43.514-309.552,297.151-41.769,5.663,40.316c2.648-1.542,5.345-3.029,8.081-4.444,5.906-3.053,12.961-7.727,20.168-11.341l-6.139-43.665c-1.162-8.246-8.778-13.991-17.035-12.835l-327.022,45.967c-3.961.557-7.54,2.663-9.949,5.857-2.408,3.197-3.446,7.216-2.888,11.177l47.712,339.422c1.053,7.486,7.431,12.911,14.766,12.982.746.007,1.505-.039,2.269-.147l243.278-34.196c-7.804-9.817-18.49-17.41-27.205-26.636Z" fill="#424242"/>
  <path d="M272.685,541.297c-7.525,0-14.134-5.478-15.327-13.144-1.319-8.476,4.483-16.414,12.958-17.732l232.223-36.116c8.493-1.327,16.416,4.484,17.732,12.958,1.32,8.476-4.483,16.414-12.958,17.732l-232.223,36.117c-.81.126-1.614.186-2.405.186Z" fill="#424242"/>
  <path d="M266.319,502.724c-2.872,0-5.778-.796-8.375-2.463-7.216-4.633-9.312-14.239-4.68-21.458l74.532-116.111c2.463-3.837,6.488-6.397,11.007-7.002,4.523-.608,9.075.805,12.463,3.858l98.185,88.541c6.369,5.745,6.876,15.565,1.131,21.935-5.742,6.368-15.563,6.876-21.933,1.133l-84.599-76.29-64.647,100.716c-2.967,4.621-7.974,7.142-13.085,7.142Z" fill="#424242"/>
  <path d="M502.035,451.54c-3.719,0-7.45-1.329-10.425-4.024l-64.662-58.618-28.373,34.152c-5.478,6.597-15.266,7.499-21.869,2.023-6.597-5.481-7.501-15.272-2.02-21.87l38.734-46.626c2.706-3.258,6.624-5.27,10.85-5.568,4.216-.308,8.39,1.141,11.526,3.984l76.676,69.509c6.355,5.762,6.834,15.582,1.074,21.936-3.063,3.382-7.28,5.1-11.511,5.1Z" fill="#424242"/>
  <path d="M465.115,346.093c-18.023,0-33.511-13.469-36.028-31.328-2.785-19.887,11.117-38.327,30.984-41.121,1.687-.237,3.397-.357,5.09-.357,18.026,0,33.511,13.474,36.019,31.342,2.787,19.874-11.108,38.314-30.975,41.108-1.687.237-3.397.356-5.09.356ZM465.161,304.348c-.255,0-.51.018-.771.055-2.912.409-4.953,3.121-4.544,6.042.403,2.862,3.091,4.95,6.036,4.535,2.909-.408,4.947-3.115,4.538-6.033-.37-2.622-2.63-4.598-5.259-4.598Z" fill="#424242"/>
  <g>
    <g>
      <g>
        <g>
          <path d="M664.409,521.806c-5.872,0-11.49-3.345-14.111-9.027l-38.154-82.72c-3.591-7.789-.185-17.015,7.601-20.606,7.78-3.588,17.013-.191,20.608,7.599l38.149,82.714c3.594,7.788.194,17.015-7.595,20.608-2.108.972-4.319,1.432-6.497,1.432Z" fill="#424242"/>
          <path d="M634.289,622.745c-5.969,0-11.66-3.459-14.22-9.271l-108.686-246.603c-5.578-12.049-5.83-25.91-.594-38.768,5.084-12.489,14.793-22.562,27.341-28.365,16.804-7.776,29.965-3.992,38.046.56,9.227,5.197,16.792,14.075,22.485,26.39.018.033,26.076,56.744,35.88,77.987,3.594,7.788.197,17.015-7.595,20.609-7.777,3.595-17.013.194-20.608-7.594-9.809-21.255-35.883-78-35.883-78-2.803-6.063-6.191-10.452-9.521-12.327-1.15-.649-3.843-2.17-9.767.566-5.381,2.489-9.503,6.71-11.611,11.884-1.953,4.798-1.905,9.867.134,14.274l108.801,246.859c3.464,7.849-.1,17.015-7.947,20.474-2.038.898-4.165,1.324-6.255,1.324Z" fill="#424242"/>
          <path d="M661.906,516.172c-5.648,0-11.095-3.093-13.84-8.467-.337-.657-.397-.778-.722-1.455l-11.696-24.537c-3.373-7.295-13.161-32.061-1.052-51.787,5.038-8.209,15.648-18.167,37.569-18.983,17.031-.631,45.559-1.702,58.629,26.589l2.694,5.75c3.637,7.767.291,17.013-7.477,20.653-7.762,3.631-17.013.293-20.65-7.474l-2.736-5.845c-3.079-6.665-6.764-9.476-29.304-8.634-3.7.138-10.213.864-12.254,4.193-2.481,4.04-1.323,13.645,2.694,22.343l11.963,25.056c3.904,7.638.877,16.994-6.764,20.896-2.257,1.156-4.674,1.703-7.052,1.703Z" fill="#424242"/>
          <path d="M728.118,484.048c-5.821,0-11.399-3.286-14.05-8.9-.798-1.685-6.922-16.085-7.744-23.189-1.065-9.333-1.495-22.938,7.004-33.568,5.754-7.199,14.265-11.458,25.303-12.661,7.901-.863,13.622-.666,19.149-.479,1.447.05,2.924.102,4.477.132,14.195.287,29.359,10.169,35.276,22.989l9.284,20.209c3.579,7.794.164,17.015-7.631,20.594-7.792,3.576-17.013.164-20.596-7.63l-9.27-20.18c-.87-1.884-5.15-4.876-7.68-4.927-1.705-.034-3.331-.09-4.929-.144-5.032-.171-9.015-.309-14.708.314-2.918.317-4.207.984-4.429,1.194,0,0-1.35,1.91-.428,10.313.576,2.61,3.798,11.218,5.002,13.768,3.664,7.754.349,17.012-7.407,20.676-2.141,1.012-4.401,1.491-6.624,1.491Z" fill="#424242"/>
          <path d="M907.811,666.877c-1.538,0-3.094-.229-4.635-.71-8.183-2.554-12.754-11.262-10.2-19.45,3.682-11.854,6.849-28.497,5.545-34.723l-12.985-62.176-42.744-85.623c-.267-.539-.506-1.092-.71-1.656-3.252-8.992-11.32-14.746-17.52-17.988-7.374-3.863-16.261-5.586-20.659-4.009-.397.143-.755.275-1.08.398,1.125,7.325-3.14,14.617-10.404,17.06-8.126,2.729-16.935-1.639-19.67-9.768-2.666-7.933-5.991-27.413,20.705-36.938,19.045-6.819,39.653,2.669,45.516,5.74,15.548,8.136,26.589,19.889,31.982,34.031l43.272,86.677c.594,1.194,1.034,2.457,1.307,3.761l13.395,64.14c3.591,17.171-4.616,44.934-6.297,50.326-2.074,6.647-8.205,10.909-14.817,10.909Z" fill="#424242"/>
          <path d="M667.205,734.805c-1.99,0-4.01-.388-5.963-1.201-22.106-9.2-31.931-19.887-45.489-36.394-4.325-5.281-9.215-13.845-14.878-23.761-5.79-10.137-12.351-21.624-17.674-28.224-20.447-25.341-36.019-36.509-51.079-47.309l-4.72-3.397c-2.778-2.011-5.778-4.051-8.802-6.11-17.031-11.601-34.652-23.595-33.153-41.591,1.465-17.655,15.648-36.177,51.183-35.276,11.632.297,38.901,7.55,44.248,9,2.333.632,4.483,1.799,6.282,3.408,3.879,3.464,38.203,34.442,49.138,54.992,4.028,7.572,1.159,16.977-6.415,21.007-7.568,4.025-16.974,1.16-21.005-6.414-5.884-11.061-26.38-31.774-39.696-43.965-13.076-3.423-28.558-6.855-33.35-6.976-2.915-.08-16.398-.126-19.012,5.248,3.212,3.967,13.113,10.709,19.264,14.896,3.279,2.231,6.521,4.445,9.536,6.627l4.607,3.312c15.961,11.449,34.054,24.425,57.152,53.049,6.885,8.539,14.101,21.173,20.465,32.32,4.556,7.973,9.264,16.219,11.927,19.467,11.38,13.86,17.562,20.821,33.411,27.42,7.917,3.295,11.666,12.388,8.369,20.306-2.484,5.966-8.259,9.564-14.344,9.567Z" fill="#424242"/>
          <path d="M733.017,787.807c.364.664.77,1.292,1.213,1.881,8.542-5.821,17.583-11.01,26.562-15.548-.179-.403-.3-.819-.512-1.213l-15.53-28.458c-4.104-7.528-13.537-10.307-21.069-6.194-7.531,4.107-10.304,13.54-6.194,21.069l15.53,28.463Z" fill="#424242"/>
          <path d="M910.96,697.618c9.242-4.556,18.894-8.356,28.318-12.519-.179-.455-.306-.919-.531-1.364l-15.396-30.146c-3.904-7.638-13.255-10.669-20.896-6.765-7.638,3.901-10.668,13.255-6.767,20.894l15.272,29.9Z" fill="#424242"/>
          <path d="M723.086,758.907c-2.053,0-4.14-.406-6.145-1.274l-55.881-24.105c-7.874-3.397-11.505-12.535-8.108-20.41,3.4-7.876,12.545-11.501,20.41-8.109l55.881,24.106c7.874,3.397,11.505,12.533,8.108,20.41-2.533,5.869-8.256,9.382-14.265,9.382Z" fill="#424242"/>
        </g>
        <path d="M771.363,906.918c-5.569,0-10.953-3.003-13.738-8.268l-35.555-67.189c-1.941-3.67-2.336-7.962-1.089-11.921,1.246-3.961,4.019-7.255,7.713-9.154l238.24-122.545c7.356-3.778,16.37-1.144,20.523,5.995l34.43,59.119c4.316,7.413,1.808,16.919-5.602,21.235-7.416,4.316-16.919,1.805-21.236-5.605l-27.014-46.384-211.166,108.616,28.206,53.302c4.013,7.583,1.119,16.98-6.461,20.99-2.317,1.226-4.802,1.808-7.252,1.808Z" fill="#424242"/>
        <path d="M793.93,396.696c1.043.241,2.599.672,4.389,1.142.194.018.394.034.585.052l1.68-.229-6.855-50.544c-10.158,3.07-20.456,5.78-29.92,10.534l4.729,34.864c8.581-.02,17.092,2.269,25.391,4.181Z" fill="#424242"/>
        <path d="M577.941,679.734l-364.777,50.23c-8.387,1.134-16.707-1.059-23.44-6.182-6.731-5.12-11.065-12.561-12.206-20.944l-57.78-425.658c-1.137-8.384,1.056-16.707,6.179-23.439,5.123-6.732,12.561-11.066,20.99-12.21,2.86-.396,280.666-38.899,433.603-59.701,1.259-6.801,4.037-30.338,4.856-32.329-1.241-.138-2.506-.177-3.801-.003-150.083,20.374-435.99,60.862-438.881,61.262-16.604,2.253-31.339,10.839-41.485,24.173-10.14,13.335-14.493,29.824-12.236,46.426l57.78,425.656c2.254,16.604,10.837,31.339,24.175,41.488,11.032,8.396,24.223,12.818,37.851,12.818,2.845,0,5.709-.191,8.575-.582l375.162-51.656c-4.677-7.358-7.935-15.568-9.646-24.175-1.559-1.817-3.197-3.544-4.92-5.175Z" fill="#424242"/>
        <path d="M173.302,709.93c-7.65,0-14.314-5.652-15.369-13.442-1.155-8.501,4.798-16.325,13.298-17.479l378.432-51.371c8.527-1.145,16.325,4.803,17.477,13.301,1.156,8.499-4.798,16.323-13.298,17.477l-378.432,51.371c-.71.096-1.414.143-2.108.143Z" fill="#424242"/>
        <path d="M113.615,762.062c-3.434,0-6.888-1.132-9.764-3.458-4.228-3.427-7.929-7.462-10.992-11.993-4.777-7.086-7.78-14.966-8.93-23.444l-30.905-227.7c-4.089-30.148,17.107-58.002,47.251-62.094,7.838-1.064,15.639-.461,23.183,1.791,8.22,2.452,12.894,11.103,10.44,19.322-2.454,8.217-11.117,12.882-19.322,10.442-3.285-.98-6.691-1.242-10.125-.777-13.173,1.788-22.44,13.963-20.65,27.141l30.905,227.7c.503,3.711,1.814,7.157,3.892,10.239,1.334,1.968,2.951,3.737,4.798,5.229,6.664,5.399,7.695,15.178,2.296,21.845-3.067,3.791-7.553,5.757-12.078,5.757Z" fill="#424242"/>
        <path d="M147.599,921.475c-7.65,0-14.314-5.654-15.369-13.443l-20.204-148.833c-1.155-8.499,4.799-16.325,13.298-17.477,8.542-1.14,16.328,4.802,17.477,13.298l20.204,148.833c1.156,8.499-4.798,16.325-13.297,17.477-.71.097-1.414.146-2.108.146Z" fill="#424242"/>
        <path d="M328.029,906.582c-7.653,0-14.314-5.654-15.372-13.446l-2.742-20.223c-1.153-8.499,4.804-16.325,13.304-17.477,8.478-1.153,16.321,4.804,17.477,13.304l2.742,20.222c1.153,8.499-4.802,16.325-13.304,17.477-.707.094-1.41.143-2.105.143Z" fill="#424242"/>
        <path d="M419.201,751.075c-11.562,2.803-23.31,4.859-35.161,6.127l-34.321,70.804c-4.65,9.588-13.771,15.955-24.399,17.028-8.532.862-14.75,8.481-13.889,17.013.81,8.001,7.559,13.968,15.433,13.968.522,0,1.05-.024,1.58-.079,21.433-2.166,39.835-15.018,49.223-34.382l43.979-90.723c-.816.085-1.632.164-2.445.243Z" fill="#424242"/>
        <path d="M135.645,996.904c-7.649,0-14.314-5.654-15.369-13.443l-8.111-59.718c-.561-4.116.552-8.284,3.088-11.572,2.536-3.291,6.285-5.426,10.407-5.933l232.777-28.585c8.448-1.028,16.137,4.905,17.277,13.325l7.213,53.133c1.156,8.499-4.798,16.325-13.298,17.477-8.535,1.174-16.328-4.802-17.477-13.297l-5.15-37.94-201.945,24.8,5.994,44.13c1.156,8.499-4.798,16.325-13.297,17.477-.71.097-1.414.145-2.108.145Z" fill="#424242"/>
      </g>
      <path d="M661.549,387.843c-4.544,0-8.984-1.996-12.005-5.67-4.407-5.366-4.72-13.005-.762-18.711l35.637-51.394c-39.638-23.743-67.149-64.738-73.443-111.056-11.372-83.752,47.518-161.139,131.271-172.512,83.798-11.361,161.151,47.523,172.517,131.276,9.718,71.596-36.189,140.438-111.695,167.611l-14.954,6.659-120.364,52.502c-2.005.873-4.116,1.296-6.203,1.296ZM716.192,320.756l-10.713,15.448,70.109-30.581,15.378-6.849c.364-.162.731-.309,1.104-.443,52.213-18.609,100.554-70.744,91.918-134.38-9.066-66.781-70.795-113.742-137.562-104.674-66.779,9.069-113.739,70.775-104.676,137.553,5.742,42.236,32.203,77.602,70.983,95.055.516.196,1.022.42,1.523.673.212.093.422.182.634.273,7.883,3.374,11.541,12.503,8.165,20.388-1.432,3.344-3.897,5.928-6.864,7.537Z" fill="#424242"/>
    </g>
    <g>
      <path d="M17.083,239.802c-7.277,0-13.774-5.141-15.224-12.554-4.156-21.263-1.362-38.305,8.542-52.097,20.817-28.991,67.355-35.182,131.772-43.754,21.017-2.795,44.837-5.965,69.551-10.236,8.469-1.465,16.492,4.207,17.947,12.658,1.462,8.452-4.207,16.487-12.658,17.947-25.309,4.374-49.447,7.586-70.746,10.421-54.555,7.258-97.648,12.991-110.636,31.08-4.638,6.456-5.711,15.623-3.288,28.024,1.644,8.417-3.846,16.575-12.263,18.22-1.004.196-2.008.291-2.997.291Z" fill="#424242"/>
      <path d="M26.28,299.484c-7.644,0-14.302-5.642-15.369-13.425-.018-.152-.039-.294-.058-.429-.073-.317-.139-.641-.2-.972l-.003-.012c-.085-.466-.164-.948-.234-1.444-1.137-8.323,4.547-16.009,12.767-17.412.261-.048.516-.088.771-.12,1.72-.216,8.077-.61,12.776,4.388,2.348,2.322,3.979,5.408,4.462,8.934l.045.3c.027.138.055.276.085.417l.03-.003.037.346c.112.576.212,1.173.297,1.794,1.162,8.497-4.784,16.329-13.279,17.492-.716.099-1.426.146-2.126.146Z" fill="#424242"/>
      <path d="M35.152,358.251c-7.649,0-14.311-5.645-15.372-13.431-.021-.159-.042-.308-.061-.45-.07-.307-.134-.62-.194-.94l-.006-.033c-.088-.462-.164-.942-.23-1.435-1.134-8.311,4.535-15.982,12.733-17.399.273-.052.54-.094.807-.126,1.708-.217,8.065-.605,12.758,4.374,2.36,2.325,3.995,5.419,4.477,8.956l.046.321c.027.127.057.256.082.387l.03-.002.039.36c.112.573.209,1.168.294,1.786,1.159,8.498-4.789,16.328-13.285,17.488-.713.097-1.423.144-2.117.144Z" fill="#424242"/>
    </g>
  </g>
  <path d="M737.533,268.107c-2.205,0-4.423-.468-6.497-1.425-5.369-2.475-8.866-7.783-9.024-13.692l-1.053-39.562-33.186-21.562c-4.956-3.222-7.653-8.977-6.961-14.848.695-5.871,4.662-10.838,10.234-12.812l37.293-13.222,10.252-38.224c1.532-5.709,6.169-10.054,11.972-11.208,5.805-1.16,11.744,1.084,15.345,5.772l24.105,31.389,39.523-2.067c5.878-.32,11.468,2.76,14.359,7.918,2.888,5.156,2.599,11.508-.746,16.381l-22.403,32.628,14.171,36.95c2.114,5.519.916,11.762-3.097,16.102-4.013,4.342-10.14,6.028-15.809,4.35l-37.945-11.223-30.76,24.895c-2.818,2.281-6.279,3.459-9.773,3.459ZM731.085,182.965l13.647,8.865c4.286,2.786,6.925,7.501,7.061,12.611l.434,16.269,12.645-10.236c3.974-3.217,9.279-4.274,14.174-2.821l15.603,4.615-5.827-15.195c-1.829-4.771-1.195-10.137,1.698-14.35l9.212-13.414-16.252.849c-5.026.241-10.016-1.994-13.128-6.05l-9.912-12.909-4.216,15.718c-1.322,4.937-4.993,8.906-9.809,10.613l-15.33,5.436Z" fill="#424242"/>
</svg>