<?xml version="1.0" encoding="UTF-8"?>
<svg id="Layer_1" xmlns="http://www.w3.org/2000/svg" width="1024" height="1024" version="1.1" viewBox="0 0 1024 1024">
  <!-- Generator: Adobe Illustrator 29.6.1, SVG Export Plug-In . SVG Version: 2.1.1 Build 9)  -->
  <path d="M512.026.039C301.195.039,130.322,170.95,130.322,381.742c-.116-4.108,0,4.108,0,0l.271,514.597c2.054,70.845,60.11,127.661,131.459,127.661s129.948-56.816,132.002-127.661v-135.373h117.933c210.831,0,381.743-168.432,381.743-379.262S722.818,0,512.026,0v.039ZM394.131,497.466v-115.724c0-64.877,53.018-117.468,117.895-117.468s117.468,52.591,117.468,117.468-52.591,115.724-117.468,115.724l-117.972.078.078-.078Z" fill="#e72264"/>
</svg>