<?xml version="1.0" encoding="UTF-8"?>
<svg id="Layer_1" xmlns="http://www.w3.org/2000/svg" width="1024" height="1024" version="1.1" viewBox="0 0 1024 1024">
  <!-- Generator: Adobe Illustrator 29.6.1, SVG Export Plug-In . SVG Version: 2.1.1 Build 9)  -->
  <path d="M511.624,1023.962c-14.128,0-27.314-3.764-39.573-10.351l-125.332-74.311c-18.846-10.351-9.423-14.115-3.777-15.997,25.445-8.469,30.163-10.351,56.55-25.406,2.823-1.882,6.587-.941,9.41.941l96.136,57.386c3.764,1.882,8.482,1.882,11.305,0l375.997-217.312c3.777-1.882,5.659-5.633,5.659-10.338v-433.684c0-4.705-1.882-8.469-5.646-10.351l-376.01-216.371c-3.764-1.882-8.495-1.882-11.305,0l-376.01,216.371c-3.79,1.882-5.672,6.587-5.672,10.351v433.684c0,3.751,1.895,8.456,5.659,10.338l102.723,59.268c55.596,28.229,90.464-4.705,90.464-37.626v-428.038c0-5.646,4.705-11.292,11.305-11.292h48.068c5.646,0,11.305,4.705,11.305,11.292v428.038c0,74.324-40.514,117.595-111.205,117.595-21.669,0-38.632,0-86.687-23.524l-98.959-56.445c-24.487-14.197-39.561-40.36-39.56-68.665v-433.684c-.003-28.312,15.077-54.482,39.573-68.678L472.038,9.842c23.577-13.174,55.609-13.174,79.172,0l375.997,217.312c24.501,14.192,39.586,40.363,39.586,68.678v433.684c-.005,28.31-15.089,54.475-39.586,68.665l-375.997,217.312c-11.305,4.705-25.445,8.469-39.586,8.469Z" fill="#5fa04e"/>
  <path d="M628.487,725.752c-164.932,0-198.846-75.265-198.846-139.238,0-5.646,4.705-11.292,11.305-11.292h49.009c5.659,0,10.364,3.764,10.364,9.41,7.541,49.858,29.209,74.324,129.109,74.324,79.159,0,113.074-17.878,113.074-60.209,0-24.452-9.41-42.344-132.873-54.563-102.723-10.351-166.787-32.934-166.787-114.772,0-76.193,64.078-121.346,171.505-121.346,120.627,0,179.987,41.39,187.541,131.697,0,2.823-.954,5.646-2.836,8.469-1.882,1.882-4.705,3.764-7.541,3.764h-49.95c-4.968-.165-9.212-3.633-10.364-8.469-11.305-51.753-40.514-68.678-117.791-68.678-86.7,0-97.064,30.111-97.064,52.681,0,27.288,12.246,35.757,129.109,50.799,115.909,15.056,170.551,36.698,170.551,117.595,0,82.792-68.782,129.828-187.515,129.828Z" fill="#5fa04e"/>
</svg>