<?xml version="1.0" encoding="UTF-8"?>
<svg id="Layer_1" xmlns="http://www.w3.org/2000/svg" width="1024" height="1024" version="1.1" viewBox="0 0 1024 1024">
  <!-- Generator: Adobe Illustrator 29.6.1, SVG Export Plug-In . SVG Version: 2.1.1 Build 9)  -->
  <polygon points="975.505 439.461 927.122 439.461 927.122 487.834 878.757 487.834 878.757 536.203 927.122 536.203 927.122 584.579 975.505 584.579 975.505 536.203 1023.873 536.203 1023.873 487.834 975.505 487.834 975.505 439.461" fill="silver"/>
  <polygon points="799.008 439.461 750.633 439.461 750.633 487.834 702.264 487.834 702.264 536.203 750.633 536.203 750.633 584.579 799.008 584.579 799.008 536.203 847.373 536.203 847.373 487.834 799.008 487.834 799.008 439.461" fill="silver"/>
  <path d="M605.397,615.586c-36.064,63.952-104.589,107.169-183.235,107.169-78.163,0-146.302-42.679-182.546-105.956-17.61-30.749-27.733-66.346-27.733-104.323,0-116.128,94.15-210.275,210.279-210.275,77.66,0,145.441,42.144,181.864,104.773l183.799-105.83c-73.051-126.111-209.446-210.951-365.663-210.951C188.937,90.194-.127,279.256-.127,512.477c0,76.514,20.356,148.265,55.927,210.152,72.872,126.776,209.649,212.135,366.362,212.135s293.994-85.702,366.757-212.852l-183.522-106.325Z" fill="silver"/>
</svg>