<?xml version="1.0" encoding="UTF-8"?>
<svg id="Layer_1" xmlns="http://www.w3.org/2000/svg" width="1024" height="1024" version="1.1" viewBox="0 0 1024 1024">
  <!-- Generator: Adobe Illustrator 29.6.1, SVG Export Plug-In . SVG Version: 2.1.1 Build 9)  -->
  <rect x="718.047" y="160.963" width="150.417" height="92.578" transform="translate(347.985 -481.182) rotate(42.464)" fill="#09f" stroke="#000" stroke-miterlimit="10" stroke-width=".804"/>
  <rect x="767.155" y="91.843" width="169.448" height="102.51" transform="translate(320.05 -537.588) rotate(42.464)" fill="#ff5252" stroke="#000" stroke-miterlimit="10" stroke-width=".948"/>
  <polygon points="122.039 948.483 211.64 924.474 146.047 858.882 122.039 948.483" fill="#36454f"/>
  <polygon points="191.101 767.948 248.605 820.22 302.421 871.691 810.811 294.246 701.435 193.952 191.101 767.948" fill="#f90"/>
  <path d="M164.121,34.382c-7.026-6.727-18.145-6.569-24.969.364L4.974,170.989c-3.361,3.414-5.199,8.043-5.1,12.832.092,4.792,2.114,9.341,5.614,12.618l325.892,305.302c8.662-8.148,17.134-16.459,24.737-25.553L43.101,182.951l109.089-110.773c40.014,38.235,312.464,295.726,312.464,295.726l25.024-25.897S165.632,35.836,164.121,34.382Z" fill="silver"/>
  <g>
    <path d="M315.562,389.077c-4.324,0-8.662-1.57-12.089-4.743-7.199-6.677-7.618-17.926-.941-25.127l75.586-81.493c6.677-7.199,17.928-7.62,25.127-.945,7.199,6.677,7.626,17.926.948,25.127l-75.594,81.493c-3.5,3.776-8.265,5.688-13.038,5.688h0Z" fill="silver"/>
    <path d="M197.517,275.281c-4.533,0-9.074-1.726-12.545-5.18-6.957-6.929-6.986-18.185-.052-25.144l75.833-76.16c6.916-6.956,18.181-6.982,25.138-.053,6.957,6.927,6.979,18.183.052,25.141l-75.829,76.16c-3.471,3.489-8.037,5.236-12.596,5.236h0Z" fill="silver"/>
    <path d="M291.355,298.691c-4.449,0-8.898-1.654-12.347-4.986-7.066-6.818-7.265-18.073-.448-25.138l37.789-39.157c6.816-7.065,18.075-7.263,25.134-.445,7.066,6.818,7.276,18.071.448,25.138l-37.789,39.155c-3.486,3.616-8.133,5.432-12.788,5.432h.001Z" fill="silver"/>
    <path d="M404.15,404.981c-4.449,0-8.898-1.657-12.347-4.986-7.067-6.819-7.265-18.073-.448-25.14l37.789-39.155c6.816-7.068,18.067-7.265,25.141-.445,7.059,6.817,7.269,18.071.441,25.138l-37.782,39.155c-3.493,3.614-8.14,5.432-12.795,5.432h.001Z" fill="silver"/>
    <path d="M168.155,185.007c-4.449,0-8.902-1.66-12.361-5.002-7.048-6.83-7.243-18.086-.412-25.141l46.452-47.991c6.831-7.056,18.082-7.242,25.141-.41,7.052,6.828,7.236,18.084.404,25.14l-46.444,47.993c-3.493,3.601-8.133,5.412-12.78,5.412h0Z" fill="silver"/>
  </g>
  <path d="M1018.069,828.839c-1.496-1.37-151.82-138.529-323.487-299.265-10.67,12.446-22.163,22.281-25.34,25.78,143.731,134.624,270.137,249.698,311.228,287.295l-109.206,110.889c-38.841-35.528-162.325-148.743-302.272-279.69-8.023,8.726-16.016,17.474-23.976,26.252,168.678,157.848,313.438,289.902,314.917,291.251,3.405,3.103,7.692,4.642,11.979,4.642,4.603,0,9.199-1.777,12.67-5.303l134.182-136.24c3.386-3.441,5.225-8.12,5.1-12.951-.133-4.831-2.221-9.402-5.795-12.659h0Z" fill="silver"/>
  <g>
    <path d="M856.514,889.352c-4.64,0-9.266-1.802-12.751-5.388-6.846-7.041-6.684-18.297.353-25.142l72.873-70.832c7.045-6.841,18.303-6.682,25.141.358,6.846,7.039,6.684,18.296-.353,25.14l-72.873,70.834c-3.456,3.357-7.927,5.03-12.391,5.03h0Z" fill="silver"/>
    <path d="M740.858,781.92c-4.449,0-8.897-1.657-12.347-4.986-7.066-6.82-7.265-18.076-.448-25.141l75.527-78.241c6.817-7.065,18.068-7.263,25.142-.445,7.059,6.82,7.258,18.077.441,25.141l-75.528,78.241c-3.486,3.612-8.133,5.431-12.788,5.431h.001Z" fill="silver"/>
    <path d="M626.048,668.059c-4.28,0-8.574-1.539-11.986-4.655-7.251-6.623-7.751-17.869-1.129-25.117l72.509-79.35c6.626-7.243,17.869-7.754,25.12-1.131,7.25,6.624,7.758,17.869,1.132,25.118l-72.512,79.349c-3.504,3.837-8.31,5.786-13.133,5.786h0Z" fill="silver"/>
    <path d="M834.608,796.945c-4.434,0-8.876-1.651-12.324-4.969-7.082-6.811-7.291-18.064-.485-25.14l34.539-35.89c6.82-7.07,18.067-7.287,25.141-.48,7.074,6.809,7.287,18.064.486,25.138l-34.547,35.89c-3.486,3.625-8.148,5.451-12.81,5.451h0Z" fill="silver"/>
    <path d="M716.577,688.283c-4.449,0-8.886-1.657-12.343-4.986-7.07-6.82-7.269-18.073-.452-25.14l37.793-39.157c6.813-7.065,18.071-7.263,25.138-.448,7.059,6.82,7.265,18.075.449,25.141l-37.789,39.157c-3.489,3.614-8.141,5.432-12.795,5.432h0Z" fill="silver"/>
  </g>
  <path d="M701.826,175.807c-2.419,0-4.853-.884-6.772-2.671-4.015-3.739-4.236-10.028-.492-14.041l32.436-34.795c3.747-4.019,10.034-4.237,14.045-.495,4.022,3.739,4.236,10.027.492,14.043l-32.432,34.797c-1.96,2.101-4.614,3.162-7.277,3.162Z" fill="silver"/>
  <path d="M701.826,183.337c-4.426,0-8.655-1.665-11.905-4.69-3.408-3.18-5.382-7.501-5.544-12.166-.162-4.662,1.5-9.111,4.677-12.523l32.44-34.793c3.294-3.532,7.945-5.559,12.776-5.559,4.434,0,8.662,1.668,11.905,4.693,3.412,3.168,5.383,7.484,5.552,12.146.169,4.666-1.493,9.118-4.684,12.536l-32.436,34.799c-3.28,3.528-7.942,5.557-12.781,5.557ZM734.269,128.666c-.39,0-1.14.099-1.757.767l-32.443,34.796c-.588.634-.655,1.353-.647,1.725.015.371.132,1.083.765,1.673.581.537,1.213.651,1.64.651.397,0,1.14-.099,1.757-.757l32.444-34.806c.596-.636.662-1.357.647-1.73-.015-.451-.162-1.107-.754-1.664-.592-.543-1.224-.655-1.651-.655h-.001Z" fill="silver"/>
  <path d="M929.269,123.78c-19.097-18.852-38.687-36.027-61.372-55.916l-5.706-5.009c-12.714-11.153-26.171-16.806-39.995-16.806-24.289,0-40.474,17.716-42.018,19.485L168.375,752.21c-.959,1.044-1.691,2.273-2.132,3.62l-68.865,208.239c-1.206,3.657-.198,7.685,2.603,10.334,1.875,1.777,4.331,2.721,6.832,2.721,1.221,0,2.456-.226,3.632-.686l205.85-80.747c1.423-.562,2.703-1.441,3.725-2.574,0,0,611.063-686.839,615.214-691.537,22.84-25.836,20.891-51.287-5.964-77.8h-.001ZM306.874,878.035l-183.988,72.171,61.549-186.098L700.892,183.234l120.45,110.449L306.874,878.035ZM909.444,197.506c-3.243,3.894-48.607,52.195-72.682,77.112l-116.354-106.692,74.711-86.043c.11-.129,11.339-12.711,27.076-12.711,8.861,0,21.163,3.995,30.142,11.876l5.721,5.013c22.443,19.678,35.319,33.422,53.997,51.859,22.083,21.806,13.656,40.062-2.61,59.585h-.001Z" fill="silver"/>
  <path d="M307.612,900.114c-4.308,0-8.629-1.529-12.082-4.635l-127.377-114.542c-7.428-6.675-8.035-18.105-1.356-25.528,6.673-7.421,18.105-8.033,25.526-1.354l127.376,114.543c7.428,6.675,8.035,18.105,1.356,25.528-3.565,3.97-8.494,5.989-13.444,5.989h.001Z" fill="silver"/>
  <path d="M882.325,261.612c-4.508,0-9.037-1.612-12.641-4.885l-129.068-117.133c-7.699-6.988-8.28-18.893-1.287-26.592,6.978-7.695,18.884-8.28,26.59-1.289l129.072,117.133c7.699,6.988,8.269,18.893,1.283,26.592-3.713,4.092-8.824,6.173-13.949,6.173h0Z" fill="silver"/>
  <path d="M213.653,924.053c-2.46,0-4.916-.907-6.842-2.728l-57.843-54.91c-3.978-3.778-4.14-10.063-.368-14.047,3.78-3.984,10.067-4.142,14.045-.364l57.85,54.901c3.982,3.787,4.144,10.072.361,14.052-1.949,2.057-4.581,3.096-7.203,3.096h0Z" fill="silver"/>
  <path d="M106.812,984.653c-4.486,0-8.751-1.698-12.008-4.782-4.886-4.633-6.692-11.76-4.577-18.161l68.873-208.245c.768-2.358,2.037-4.506,3.747-6.361L774.552,60.523c1.934-2.206,20.053-22.005,47.643-22.005,15.707,0,30.833,6.283,44.959,18.674l5.717,5.013c22.792,19.985,42.448,37.218,61.692,56.216,29.848,29.467,31.969,59.124,6.309,88.146-4.118,4.655-609.118,684.686-615.229,691.556-1.82,2.02-4.088,3.588-6.589,4.574l-205.861,80.75c-2.052.802-4.199,1.206-6.383,1.206h.002,0ZM191.101,767.948l-56.023,169.389,167.343-65.646,508.39-577.445-109.376-100.294L191.101,767.948ZM730.894,167.329l105.537,96.774c25.495-26.54,64.534-68.185,67.233-71.419,15.553-18.669,20.656-32.072,3.1-49.404-4.379-4.32-8.438-8.385-12.372-12.326-13.03-13.045-24.281-24.313-41.297-39.229l-5.721-5.013c-7.839-6.877-18.546-10.008-25.178-10.008-12.119,0-21.347,10.072-21.436,10.173l-69.865,80.453h0Z" fill="silver" data-split="true"/>
</svg>