<?xml version="1.0" encoding="UTF-8"?>
<svg id="Layer_1" xmlns="http://www.w3.org/2000/svg" width="1024" height="1024" version="1.1" viewBox="0 0 1024 1024">
  <!-- Generator: Adobe Illustrator 29.6.1, SVG Export Plug-In . SVG Version: 2.1.1 Build 9)  -->
  <g>
    <polygon points="68.717 665.471 512.118 409.466 955.53 665.483 512.125 921.487 68.717 665.471" fill="#feefcf"/>
    <polygon points="955.535 767.871 955.53 665.483 512.125 921.487 512.129 1023.875 955.535 767.871" fill="#d44001"/>
    <polygon points="512.129 1023.875 68.715 767.86 68.717 665.471 512.125 921.487 512.129 1023.875" fill="#fe7a01"/>
  </g>
  <g>
    <polygon points="68.717 460.676 512.118 204.67 955.53 460.688 512.125 716.691 68.717 460.676" fill="#feefcf"/>
    <polygon points="955.535 563.076 955.53 460.688 512.125 716.691 512.129 819.08 955.535 563.076" fill="#d44001"/>
    <polygon points="512.129 819.08 68.715 563.065 68.717 460.676 512.125 716.691 512.129 819.08" fill="#fe7a01"/>
  </g>
  <g>
    <polygon points="68.717 255.881 512.118 -.125 955.53 255.892 512.125 511.896 68.717 255.881" fill="#feefcf"/>
    <polygon points="955.535 358.281 955.53 255.892 512.125 511.896 512.129 614.284 955.535 358.281" fill="#d44001"/>
    <polygon points="512.129 614.284 68.715 358.269 68.717 255.881 512.125 511.896 512.129 614.284" fill="#fe7a01"/>
  </g>
</svg>