<?xml version="1.0" encoding="UTF-8"?>
<svg id="Layer_1" xmlns="http://www.w3.org/2000/svg" width="1024" height="1024" version="1.1" viewBox="0 0 1024 1024">
  <!-- Generator: Adobe Illustrator 29.6.1, SVG Export Plug-In . SVG Version: 2.1.1 Build 9)  -->
  <polygon points="68.729 255.875 512.125 511.884 955.521 255.888 512.121 -.125 423.438 51.075 778.16 255.884 689.478 307.079 334.764 102.275 246.086 153.475 600.803 358.288 512.121 409.479 157.403 204.675 68.729 255.875" fill="#e9e9e9"/>
  <polygon points="246.086 153.475 600.803 358.288 512.121 409.479 246.064 255.888 246.086 153.475" fill="#ffa403"/>
  <polygon points="423.447 51.075 778.169 255.888 689.482 307.079 423.425 153.488 423.447 51.075" fill="#ffa403"/>
  <polygon points="955.521 255.888 512.125 511.884 512.129 1023.875 955.526 767.879 955.521 665.479 600.808 870.275 600.808 767.879 955.526 563.084 955.521 460.684 600.808 665.479 600.808 563.084 955.526 358.288 955.521 255.888" fill="#c1c1c1"/>
  <polygon points="955.521 460.684 866.839 409.488 600.808 563.084 600.808 665.479 955.521 460.684" fill="#ffa403"/>
  <polygon points="955.521 665.479 866.851 614.279 600.808 767.879 600.808 870.275 955.521 665.479" fill="#ffa403"/>
  <polygon points="512.129 1023.875 512.125 511.884 68.729 255.875 68.724 767.862 157.403 819.062 157.403 409.475 246.086 460.675 246.086 870.271 334.768 921.466 334.768 511.884 423.447 563.079 423.447 972.675 512.129 1023.875" fill="#d6d6d6"/>
  <polygon points="334.768 921.466 423.425 870.284 423.447 563.079 334.768 511.884 334.768 921.466" fill="#d26e00"/>
  <polygon points="157.403 819.062 246.086 767.879 246.086 460.675 157.403 409.475 157.403 819.062" fill="#d26e00"/>
</svg>