<?xml version="1.0" encoding="UTF-8"?>
<svg id="Layer_1" xmlns="http://www.w3.org/2000/svg" width="1024" height="1024" version="1.1" viewBox="0 0 1024 1024">
  <!-- Generator: Adobe Illustrator 29.6.1, SVG Export Plug-In . SVG Version: 2.1.1 Build 9)  -->
  <path d="M308.51,237.88l-95.474,137.116c-8.052-7.363-17.024-13.569-26.685-18.403l95.702-137.346c7.823,7.363,16.796,13.577,26.457,18.634h0ZM476.918,152.757l308.051,97.55c-4.599,9.662-8.054,20.013-9.892,30.824l-307.822-97.313c4.597-9.661,7.823-20.012,9.663-31.061h0ZM814.182,389.491l-120.781,106.285c-5.983-9.202-13.11-17.255-21.393-24.388l120.781-106.284c5.986,9.201,13.341,17.254,21.393,24.387h0ZM685.119,635.88l79.607,89.038c-8.973,5.983-17.264,13.338-24.157,21.621l-79.607-89.26c8.973-5.984,17.025-13.347,24.157-21.4h0ZM717.558,854.901l-239.034,34.968c0-11.04-1.607-21.859-4.597-31.981l238.803-34.968c.223,11.048,1.84,21.859,4.828,31.981h0ZM292.872,795.774l-119.4-224.767c10.351-3.686,19.781-8.972,28.523-15.186l119.403,224.767c-10.123,3.686-19.784,8.972-28.526,15.186h0Z" fill="silver"/>
  <path d="M415.493,786.571l100.07-141.252c7.823,7.355,16.565,13.799,26.234,18.863l-100.079,141.254c-7.823-7.594-16.565-13.799-26.226-18.865h0ZM525.692,466.332l-122.627-223.618c10.359-3.685,19.789-8.972,28.531-15.415l122.621,223.387c-10.351,3.916-19.784,9.202-28.526,15.646h0Z" fill="silver"/>
  <path d="M595.628,426.759c36.808,0,70.167,14.956,94.327,39.113,24.157,24.158,39.105,57.51,39.105,94.325s-14.948,70.167-39.105,94.096c-24.16,24.149-57.519,39.105-94.327,39.105s-70.167-14.956-94.093-39.105c-24.157-23.929-39.113-57.288-39.113-94.096s14.956-70.167,39.113-94.325c23.926-24.157,57.279-39.113,94.093-39.113h0ZM666.944,488.881c-18.174-18.412-43.479-29.682-71.317-29.682s-52.911,11.271-71.322,29.682c-18.174,18.174-29.444,43.473-29.444,71.316s11.27,52.912,29.444,71.317c18.411,18.174,43.487,29.444,71.322,29.444s53.142-11.27,71.317-29.444c18.405-18.404,29.683-43.481,29.683-71.317s-11.278-53.142-29.683-71.316h0Z" fill="silver"  data-split="true"/>
  <path d="M890.563,167.483c36.814,0,70.167,14.956,94.324,39.113,24.157,23.92,39.113,57.279,39.113,94.095s-14.956,70.167-39.113,94.325c-24.157,24.15-57.51,39.106-94.324,39.106s-70.167-14.956-94.096-39.106c-24.149-24.158-39.105-57.517-39.105-94.325s14.956-70.175,39.105-94.095c23.929-24.157,57.288-39.113,94.096-39.113h0ZM961.887,229.367c-18.183-18.174-43.481-29.444-71.325-29.444s-52.914,11.271-71.317,29.444c-18.174,18.403-29.444,43.481-29.444,71.324s11.27,53.142,29.444,71.316c18.403,18.403,43.482,29.674,71.317,29.674s53.142-11.271,71.325-29.674c18.403-18.174,29.673-43.481,29.673-71.316s-11.27-52.921-29.673-71.324h0Z" fill="#ff5252"  data-split="true"/>
  <path d="M361.43.004C398.238.004,431.596,14.951,455.754,39.109c24.152,24.157,39.108,57.517,39.108,94.325s-14.956,69.936-39.108,94.094c-24.157,24.158-57.516,39.114-94.324,39.114s-69.944-14.956-94.093-39.114c-24.16-24.158-39.116-57.288-39.116-94.094s14.956-70.167,39.116-94.325C291.486,14.951,324.616.004,361.43.004h0ZM432.746,62.118c-18.174-18.403-43.25-29.682-71.317-29.682-27.843,0-52.919,11.278-71.322,29.682-18.174,18.174-29.444,43.481-29.444,71.317s11.27,52.912,29.444,71.316c18.403,18.182,43.479,29.452,71.322,29.452,28.066,0,53.142-11.27,71.317-29.452,18.403-18.404,29.675-43.481,29.675-71.316s-11.273-53.143-29.675-71.317h0Z" fill="silver"  data-split="true"/>
  <path d="M361.43,757.358c36.808,0,70.167,14.948,94.324,39.105,24.152,23.929,39.108,57.287,39.108,94.096s-14.956,70.167-39.108,94.324c-24.157,24.157-57.516,39.113-94.324,39.113s-69.944-14.956-94.093-39.113c-24.16-24.157-39.116-57.517-39.116-94.324s14.956-70.167,39.116-94.096c24.149-24.157,57.279-39.105,94.093-39.105h0ZM432.746,819.242c-18.174-18.174-43.25-29.453-71.317-29.453-27.843,0-52.919,11.278-71.322,29.453-18.174,18.403-29.444,43.481-29.444,71.317s11.27,53.142,29.444,71.317c18.403,18.403,43.479,29.681,71.322,29.681,28.066,0,53.142-11.278,71.317-29.681,18.403-18.174,29.675-43.481,29.675-71.317s-11.273-52.914-29.675-71.317h0Z" fill="silver"  data-split="true"/>
  <path d="M829.828,688.801c36.805,0,70.175,14.948,94.324,39.105,24.157,24.157,39.113,57.517,39.113,94.324s-14.956,69.938-39.113,94.096c-24.149,24.157-57.519,39.113-94.324,39.113s-70.167-14.956-94.327-39.113c-23.926-24.157-38.874-57.287-38.874-94.096s14.948-70.167,38.874-94.324c24.16-24.157,57.519-39.105,94.327-39.105h0ZM901.142,750.914c-18.166-18.404-43.479-29.682-71.314-29.682s-52.914,11.278-71.317,29.682c-18.174,18.173-29.453,43.252-29.453,71.315,0,27.835,11.278,52.914,29.453,71.317,18.403,18.183,43.481,29.453,71.317,29.453s53.148-11.27,71.314-29.453c18.183-18.403,29.683-43.481,29.683-71.317,0-28.063-11.501-53.142-29.683-71.315h0Z" fill="silver"  data-split="true"/>
  <path d="M133.437,327.607c36.808,0,70.167,14.948,94.096,39.106,24.157,24.158,39.105,57.517,39.105,94.325s-14.948,69.938-39.105,94.095c-23.929,24.157-57.288,39.113-94.096,39.113s-70.167-14.956-94.324-39.113C14.956,530.975,0,497.852,0,461.037s14.956-70.167,39.113-94.325c24.157-24.157,57.516-39.106,94.324-39.106h0ZM204.754,389.722c-18.403-18.404-43.482-29.674-71.317-29.674s-53.142,11.27-71.317,29.674c-18.403,18.174-29.681,43.481-29.681,71.316s11.278,52.913,29.681,71.316c18.174,18.174,43.482,29.453,71.317,29.453s52.914-11.278,71.317-29.453c18.174-18.403,29.453-43.473,29.453-71.316s-11.278-53.142-29.453-71.316h0Z" fill="#f90"  data-split="true"/>
</svg> 