<?xml version="1.0" encoding="UTF-8"?>
<svg id="Layer_1" xmlns="http://www.w3.org/2000/svg" width="1024" height="1024" version="1.1" viewBox="0 0 1024 1024">
  <!-- Generator: Adobe Illustrator 29.6.1, SVG Export Plug-In . SVG Version: 2.1.1 Build 9)  -->
  <path d="M512.019,0C300.994,0,129.939,170.888,129.939,381.7c0,4.131.071,8.227.214,12.323v404.17l.036-.035v92.21c0,.714-.036,1.389-.036,2.102,0,.71.036,1.424.071,2.137v1.707h.036c2.032,70.842,60.107,127.651,131.519,127.651s130.091-56.809,132.123-127.651v-135.412h109.169c2.956.074,5.954.109,8.91.109,211.025,0,382.08-168.502,382.08-379.311S723.041,0,512.019,0h0ZM512.019,497.451h-118.008v-115.716c0-64.857,53.085-117.461,118.008-117.461s117.578,52.604,117.578,117.461-52.658,115.751-117.578,115.751v-.035Z" fill="#fff"/>
  <g>
    <path d="M258.463,760.975h135.261v135.377h-.605c-2.032,70.838-60.11,127.647-131.518,127.647s-129.522-56.809-131.555-127.647h-.036v-1.711c0-.714-.071-1.424-.071-2.137s.036-1.389.036-2.102v-9.542c4.064-63.364,63.922-119.886,128.453-119.886h.035Z" fill="#1d1d1b" fill-opacity=".5" isolation="isolate" opacity=".15"/>
    <g>
      <g opacity=".05">
        <path d="M130.153,598.14v162.766c0-143.391,120.61-261.423,263.788-263.381v-51.929c-106.422,11.183-200.65,68.418-263.788,152.545Z" fill-opacity=".5" isolation="isolate" opacity=".5"/>
        <path d="M130.368,883.386c31.088-22.792,68.808-36.22,109.52-36.22h154.089v-86.264h-132.018c-69.737,0-126.742,54.032-131.59,122.484h0Z" fill-opacity=".5"/>
      </g>
      <g opacity=".05">
        <path d="M393.941,497.524v-47.158c-107.314,10.508-202.003,68.988-263.788,154.861v155.679c0-143.391,120.61-261.423,263.788-263.381Z" fill-opacity=".5" isolation="isolate" opacity=".5"/>
        <path d="M261.958,760.902c-67.844,0-123.676,51.181-131.091,117,31.053-24.219,69.415-38.536,111.019-38.536h152.056v-78.425h-132.018l.035-.039Z" fill-opacity=".5"/>
      </g>
      <g opacity=".05">
        <path d="M393.941,497.524v-42.418c-108.276,9.794-203.57,69.698-263.788,157.494v148.267c0-143.387,120.61-261.423,263.788-263.381v.039Z" fill-opacity=".5" isolation="isolate" opacity=".5"/>
        <path d="M261.958,760.902c-65.955,0-120.538,48.334-130.378,111.48,30.874-25.608,69.877-40.886,112.303-40.886h150.059v-70.594h-132.018.035Z" fill-opacity=".5"/>
      </g>
      <g opacity=".05">
        <path d="M393.941,497.524v-37.647c-109.382,9.045-205.32,70.59-263.788,160.524v140.505c0-143.391,120.61-261.423,263.788-263.381Z" fill-opacity=".5" isolation="isolate" opacity=".5"/>
        <path d="M261.958,760.906c-64.066,0-117.437,45.622-129.416,106.1,30.625-27.031,70.163-43.345,113.373-43.345h148.061v-62.755h-132.018Z" fill-opacity=".5"/>
      </g>
      <g opacity=".05">
        <path d="M393.941,497.52v-32.838c-110.666,8.192-207.352,71.661-263.788,163.941v132.278c0-143.391,120.61-261.423,263.788-263.381h0Z" fill-opacity=".5" isolation="isolate" opacity=".5"/>
        <path d="M261.958,760.906c-62.142,0-114.192,42.915-128.204,100.651,30.197-28.424,70.235-45.766,114.155-45.766h146.032v-54.92h-132.018l.035.035Z" fill-opacity=".5"/>
      </g>
      <g opacity=".05">
        <path d="M393.941,497.52v-28.028c-112.124,7.339-209.742,72.979-263.788,167.967v123.442c0-143.387,120.61-261.423,263.788-263.381Z" fill-opacity=".5" isolation="isolate" opacity=".5"/>
        <path d="M261.958,760.902c-60.179,0-110.876,40.246-126.741,95.205,29.663-29.812,70.092-48.155,114.729-48.155h144.031v-47.05h-132.018Z" fill-opacity=".5"/>
      </g>
      <g opacity=".05">
        <path d="M393.941,497.524v-23.187c-113.839,6.377-212.558,74.651-263.788,172.703v113.866c0-143.391,120.61-261.423,263.788-263.381Z" fill-opacity=".5" isolation="isolate" opacity=".5"/>
        <path d="M261.958,760.902c-58.147,0-107.49,37.613-125.066,89.79,28.985-31.166,69.805-50.576,115.012-50.576h142.037v-39.215h-132.018.035Z" fill-opacity=".5"/>
      </g>
      <g opacity=".05">
        <path d="M393.941,497.524v-18.308c-115.941,5.341-215.979,76.823-263.788,178.471v103.218c0-143.391,120.61-261.423,263.788-263.381h0Z" fill-opacity=".5" isolation="isolate" opacity=".5"/>
        <path d="M261.958,760.902c-56.149,0-104.067,35.084-123.141,84.484,28.2-32.555,69.272-53.105,115.119-53.105h140.04v-31.379h-132.018Z" fill-opacity=".5"/>
      </g>
      <g opacity=".05">
        <path d="M393.941,497.52v-13.32c-118.613,4.24-220.366,79.744-263.788,185.844v90.857c0-143.391,120.61-261.423,263.788-263.381h0Z" fill-opacity=".5" isolation="isolate" opacity=".5"/>
        <path d="M261.958,760.902c-54.121,0-100.61,32.59-120.931,79.178,27.204-33.943,68.56-55.633,114.942-55.633h138.007v-23.544h-132.018Z" fill-opacity=".5"/>
      </g>
    </g>
  </g>
</svg>