<?xml version="1.0" encoding="UTF-8"?>
<svg id="Layer_1" xmlns="http://www.w3.org/2000/svg" width="1024" height="1024" version="1.1" viewBox="0 0 1024 1024">
  <!-- Generator: Adobe Illustrator 29.6.1, SVG Export Plug-In . SVG Version: 2.1.1 Build 9)  -->
  <path d="M112.962,210.64c-1.932-55.48,41.294-106.64,99.722-106.64h598.706c58.428,0,101.654,51.16,99.722,106.64-1.856,53.294.554,122.33,17.928,178.62,17.43,56.464,46.822,92.154,94.96,96.74v52c-48.138,4.586-77.53,40.276-94.96,96.74-17.374,56.29-19.784,125.326-17.928,178.622,1.932,55.478-41.294,106.638-99.722,106.638H212.684c-58.428,0-101.654-51.16-99.72-106.638,1.854-53.296-.556-122.332-17.932-178.622-17.428-56.464-46.892-92.154-95.032-96.74v-52c48.138-4.586,77.604-40.276,95.032-96.74,17.376-56.29,19.786-125.326,17.93-178.62ZM534.206,728.914c94.594,0,151.596-46.316,151.596-122.71,0-57.746-40.672-99.552-101.064-106.17v-2.406c44.37-7.218,79.188-48.422,79.188-94.438,0-65.566-51.764-108.276-130.644-108.276h-177.48v434h178.404ZM424.822,349.954h91.822c49.916,0,78.262,22.256,78.262,62.558,0,43.01-32.968,67.07-92.744,67.07h-77.34v-129.628ZM424.822,673.876v-142.862h91.204c65.322,0,99.216,24.06,99.216,70.98s-32.968,71.882-95.21,71.882h-95.21Z" fill="#fff"/>
</svg>