<?xml version="1.0" encoding="UTF-8"?>
<svg id="Layer_1" xmlns="http://www.w3.org/2000/svg" width="1024" height="1024" version="1.1" viewBox="0 0 1024 1024">
  <!-- Generator: Adobe Illustrator 29.6.1, SVG Export Plug-In . SVG Version: 2.1.1 Build 9)  -->
  <path d="M359.711,994.566c42.846,17.245,89.329,27.478,138.138,29.182,66.054,2.307,128.867-11.349,185.022-37.292-67.338-26.456-128.324-65.147-180.374-113.25-33.738,54.019-83.64,96.688-142.786,121.359Z" fill="#ff9100"/>
  <path d="M502.491,873.224c-118.812-109.884-190.889-268.927-184.797-443.371.199-5.664.498-11.325.848-16.985-21.279-5.503-43.495-8.861-66.356-9.659-32.723-1.143-64.413,2.916-94.331,11.34-31.717,55.558-50.856,119.304-53.241,187.584-6.153,176.213,100.485,330.184,255.09,392.45,59.148-24.672,109.048-67.289,142.788-121.359Z" fill="#ffc400"/>
  <path d="M502.493,873.218c27.623-44.207,44.371-96.032,46.321-151.87,5.129-146.879-93.61-273.229-230.27-308.486-.35,5.66-.649,11.322-.848,16.985-6.091,174.443,65.985,333.486,184.797,443.371Z" fill="#ff9100"/>
  <path d="M533.531,0c-77.832,62.354-139.293,144.573-176.48,239.287-21.289,54.251-34.667,112.525-38.572,173.612,136.66,35.257,235.401,161.607,230.272,308.484-1.95,55.838-18.747,107.614-46.322,151.872,52.047,48.152,113.034,86.793,180.372,113.248,135.161-62.478,231.059-196.919,236.612-355.936,3.598-103.026-35.987-194.851-91.92-272.357C768.422,276.238,533.531,0,533.531,0Z" fill="#dd2c00"/>
</svg>