<?xml version="1.0" encoding="UTF-8"?>
<svg id="Layer_1" xmlns="http://www.w3.org/2000/svg" width="1024" height="1024" version="1.1" viewBox="0 0 1024 1024">
  <!-- Generator: Adobe Illustrator 29.6.1, SVG Export Plug-In . SVG Version: 2.1.1 Build 9)  -->
  <path d="M526.953,792.814l220.04-295.205-204.72-266.738c30.373-10.972,64.226.937,81.119,28.433l152.536,206.058,153.439-205.255c14.518-27.485,47.329-39.726,76.302-28.467l-79.446,105.404-107.612,140.059c-12.659,11.305-12.659,31.111,0,42.416l204.954,273.562h.435c-30.847,11.664-65.546-1.53-80.851-30.741l-147.184-203.549-21.342-28.433-170.801,232.283c-14.401,27.945-47.305,40.86-76.87,30.173" fill="#fff"/>
  <path d="M503.102,520.69H47.601c-7.359,181.036,123.267,290.354,290.354,234.558,55.06-20.071,96.506-65.831,110.154-122.698,8.831-28.433,23.416-33.317,50.11-25.088-9.02,70.222-49.724,132.437-110.455,168.827-101.587,55.556-227.38,39.48-311.729-39.84-40.676-45.727-65.229-103.531-70.013-164.579,0-10.035-3.345-19.402-5.687-28.433-.223-16.882-.335-33.384-.335-49.507h.067s17.93-88.545,17.93-88.545c49.24-175.082,249.945-247.938,388.031-139.49,80.851,63.49,101.022,153.439,97.075,254.796M48.169,481.686h411.915c-2.576-131.228-85.4-224.322-195.855-225.192-122.966-1.673-210.942,89.381-216.361,224.623l.301.569Z" fill="#fff" fill-rule="evenodd" data-split="true"/>
</svg>