<?xml version="1.0" encoding="UTF-8"?>
<svg id="Layer_1" xmlns="http://www.w3.org/2000/svg" width="1024" height="1024" version="1.1" viewBox="0 0 1024 1024">
  <!-- Generator: Adobe Illustrator 29.6.1, SVG Export Plug-In . SVG Version: 2.1.1 Build 9)  -->
  <path d="M449.959,712.599l-247.109,34.736-52.366-372.526,357.602-50.266,6.815,48.518c3.187-1.856,6.432-3.645,9.725-5.348,7.107-3.674,15.598-9.299,24.271-13.648l-7.388-52.548c-1.398-9.924-10.564-16.837-20.5-15.446l-393.55,55.318c-4.767.67-9.074,3.205-11.973,7.049-2.898,3.847-4.147,8.684-3.476,13.451l57.418,408.473c1.267,9.009,8.943,15.538,17.77,15.623.898.008,1.811-.047,2.731-.177l292.769-41.153c-9.392-11.814-22.252-20.952-32.739-32.055h0Z" fill="silver"/>
  <path d="M232.895,717.443c-3.248,0-6.535-1.426-9.473-4.413-8.162-8.302-10.532-25.515-5.293-38.45l84.3-208.059c2.786-6.875,7.338-11.463,12.449-12.547,5.116-1.09,10.264,1.443,14.096,6.913l111.052,158.657c7.204,10.295,7.777,27.891,1.279,39.306-6.495,11.411-17.603,12.321-24.807,2.03l-95.686-136.704-73.119,180.473c-3.356,8.28-9.019,12.798-14.8,12.798v-.002h.002v-.002Z" fill="silver"/>
  <path d="M522.172,619.631c-4.603,0-9.221-1.95-12.903-5.904l-80.032-86.005-35.117,50.108c-6.78,9.679-18.895,11.003-27.067,2.968-8.165-8.042-9.284-22.407-2.5-32.087l47.941-68.41c3.349-4.78,8.198-7.733,13.429-8.169,5.218-.452,10.384,1.674,14.266,5.845l94.901,101.984c7.866,8.454,8.458,22.862,1.329,32.184-3.791,4.962-9.01,7.483-14.247,7.483v.003h0Z" fill="silver"/>
  <path d="M229.205,489.027c-21.69,0-40.328-16.209-43.357-37.701-3.352-23.933,13.379-46.124,37.287-49.486,2.03-.285,4.088-.43,6.125-.43,21.693,0,40.328,16.215,43.347,37.718,3.354,23.917-13.368,46.108-37.276,49.471-2.03.285-4.088.428-6.125.428h-.001,0ZM229.26,438.789c-.307,0-.614.022-.928.066-3.504.492-5.961,3.756-5.468,7.271.485,3.444,3.72,5.957,7.264,5.458,3.501-.491,5.953-3.749,5.461-7.26-.445-3.155-3.165-5.533-6.329-5.533h0v-.002Z" fill="#ff5252" data-split="true"/>
  <g>
    <path d="M695.042,648.486c-7.067,0-13.827-4.025-16.982-10.863l-45.916-99.548c-4.322-9.374-.223-20.476,9.147-24.798,9.363-4.318,20.474-.23,24.8,9.145l45.91,99.541c4.325,9.372.233,20.476-9.14,24.8-2.537,1.17-5.198,1.723-7.819,1.723h0,0Z" fill="silver"/>
    <path d="M658.795,769.96c-7.183,0-14.032-4.163-17.113-11.157l-130.797-296.771c-6.713-14.5-7.016-31.181-.715-46.655,6.118-15.03,17.802-27.152,32.903-34.135,20.223-9.358,36.061-4.804,45.786.674,11.104,6.254,20.208,16.938,27.059,31.759.022.04,31.381,68.288,43.179,93.852,4.325,9.372.237,20.476-9.14,24.802-9.359,4.326-20.474.233-24.8-9.139-11.805-25.579-43.183-93.868-43.183-93.868-3.373-7.296-7.45-12.578-11.458-14.835-1.384-.781-4.625-2.611-11.754.681-6.476,2.995-11.436,8.075-13.973,14.302-2.35,5.774-2.293,11.874.161,17.178l130.935,297.079c4.169,9.446-.12,20.476-9.564,24.639-2.453,1.081-5.012,1.593-7.527,1.593h0Z" fill="silver"/>
    <path d="M692.03,641.706c-6.797,0-13.352-3.722-16.656-10.19-.406-.791-.478-.936-.869-1.751l-14.075-29.529c-4.059-8.779-15.838-38.583-1.266-62.322,6.063-9.879,18.831-21.863,45.212-22.845,20.496-.759,54.827-2.048,70.556,31.998l3.242,6.92c4.377,9.347.35,20.474-8.998,24.855-9.341,4.37-20.474.353-24.851-8.994l-3.293-7.034c-3.705-8.021-8.14-11.404-35.265-10.39-4.453.166-12.291,1.04-14.747,5.046-2.986,4.862-1.592,16.421,3.242,26.888l14.397,30.153c4.698,9.192,1.055,20.451-8.14,25.147-2.716,1.391-5.625,2.049-8.487,2.049h-.002,0Z" fill="silver"/>
    <path d="M771.712,603.047c-7.005,0-13.718-3.955-16.908-10.711-.96-2.028-8.33-19.357-9.319-27.906-1.282-11.232-1.799-27.604,8.429-40.397,6.925-8.664,17.167-13.789,30.451-15.237,9.508-1.039,16.393-.801,23.045-.576,1.741.06,3.519.123,5.388.159,17.083.345,35.332,12.238,42.452,27.666l11.173,24.32c4.307,9.38.197,20.476-9.183,24.784-9.377,4.303-20.474.197-24.786-9.182l-11.156-24.285c-1.047-2.267-6.198-5.868-9.242-5.929-2.052-.041-4.009-.108-5.932-.173-6.056-.206-10.849-.372-17.7.378-3.512.381-5.063,1.184-5.33,1.437,0,0-1.625,2.299-.515,12.411.693,3.141,4.571,13.5,6.02,16.569,4.409,9.331.42,20.473-8.914,24.882-2.577,1.218-5.296,1.794-7.972,1.794v-.004h0Z" fill="silver"/>
    <path d="M987.961,823.07c-1.851,0-3.723-.276-5.578-.854-9.848-3.074-15.349-13.553-12.275-23.407,4.431-14.266,8.242-34.294,6.673-41.787l-15.627-74.825-51.44-103.042c-.321-.649-.609-1.314-.854-1.993-3.914-10.821-13.623-17.746-21.084-21.647-8.874-4.649-19.569-6.722-24.862-4.825-.478.172-.909.331-1.3.479,1.354,8.815-3.779,17.591-12.521,20.531-9.779,3.284-20.38-1.972-23.672-11.755-3.208-9.547-7.21-32.99,24.917-44.452,22.919-8.206,47.72,3.212,54.776,6.908,18.711,9.791,31.998,23.935,38.488,40.954l52.075,104.31c.715,1.437,1.244,2.957,1.573,4.526l16.12,77.188c4.322,20.664-5.555,54.075-7.578,60.564-2.496,7.999-9.874,13.128-17.831,13.128h0,0Z" fill="silver"/>
    <path d="M698.407,904.817c-2.395,0-4.826-.467-7.176-1.445-26.603-11.072-38.427-23.933-54.743-43.798-5.205-6.355-11.09-16.662-17.905-28.595-6.968-12.199-14.864-26.023-21.27-33.966-24.607-30.496-43.347-43.936-61.47-56.933l-5.68-4.088c-3.343-2.42-6.953-4.875-10.593-7.353-20.496-13.961-41.701-28.395-39.898-50.052,1.763-21.247,18.831-43.537,61.595-42.452,13.998.357,46.815,9.086,53.25,10.831,2.808.761,5.395,2.165,7.56,4.101,4.668,4.169,45.975,41.449,59.134,66.179,4.847,9.112,1.395,20.431-7.72,25.281-9.108,4.844-20.427,1.396-25.278-7.719-7.081-13.311-31.747-38.238-47.772-52.909-15.736-4.119-34.368-8.25-40.135-8.395-3.508-.096-19.734-.152-22.88,6.316,3.865,4.774,15.781,12.888,23.183,17.926,3.946,2.685,7.848,5.349,11.476,7.975l5.544,3.986c19.208,13.778,40.982,29.394,68.779,63.841,8.286,10.276,16.97,25.48,24.628,38.895,5.483,9.595,11.149,19.519,14.353,23.427,13.695,16.68,21.135,25.057,40.208,32.998,9.528,3.965,14.039,14.908,10.072,24.437-2.989,7.18-9.939,11.51-17.262,11.513h-.002.002Z" fill="silver"/>
    <path d="M777.608,968.601c.438.799.927,1.555,1.46,2.264,10.28-7.005,21.16-13.25,31.966-18.711-.215-.485-.361-.986-.616-1.46l-18.689-34.247c-4.939-9.059-16.291-12.404-25.355-7.454-9.063,4.943-12.4,16.294-7.454,25.355l18.689,34.253h-.001Z" fill="silver"/>
    <path d="M991.751,860.064c11.122-5.483,22.738-10.056,34.079-15.066-.215-.548-.368-1.106-.639-1.642l-18.528-36.279c-4.698-9.192-15.952-12.839-25.147-8.141-9.192,4.695-12.838,15.952-8.144,25.145l18.379,35.983h0Z" fill="silver"/>
    <path d="M765.656,933.822c-2.471,0-4.982-.489-7.395-1.533l-67.249-29.009c-9.476-4.088-13.846-15.085-9.757-24.562,4.092-9.478,15.097-13.841,24.562-9.759l67.249,29.01c9.476,4.088,13.846,15.083,9.757,24.562-3.048,7.063-9.936,11.291-17.167,11.291h0Z" fill="silver"/>
  </g>
  <path d="M850.912,497.924c1.255.29,3.128.809,5.282,1.374.233.022.474.041.704.063l2.022-.276-8.25-60.826c-12.225,3.695-24.617,6.956-36.007,12.677l5.691,41.957c10.327-.024,20.569,2.731,30.556,5.032h.002Z" fill="silver"/>
  <path d="M590.984,838.542l-438.986,60.449c-10.093,1.365-20.106-1.274-28.209-7.44-8.1-6.162-13.316-15.116-14.689-25.205L39.566,354.094c-1.368-10.09,1.271-20.106,7.436-28.207s15.116-13.317,25.26-14.694c3.442-.477,337.763-46.812,521.813-71.846,1.515-8.185,4.858-36.51,5.844-38.906-1.493-.166-3.016-.213-4.574-.004-180.615,24.519-524.686,73.243-528.165,73.725-19.982,2.711-37.714,13.044-49.925,29.091-12.203,16.048-17.441,35.891-14.725,55.871l69.535,512.25c2.713,19.982,13.042,37.714,29.093,49.928,13.276,10.104,29.151,15.426,45.551,15.426,3.424,0,6.87-.23,10.319-.7l451.483-62.165c-5.628-8.855-9.549-18.735-11.608-29.093-1.876-2.187-3.847-4.265-5.921-6.228h.002,0Z" fill="silver"/>
  <path d="M691.6,487.27c-5.468,0-10.812-2.402-14.447-6.823-5.304-6.458-5.68-15.651-.917-22.517l42.887-61.849c-47.702-28.573-80.809-77.908-88.384-133.649-13.685-100.79,57.185-193.92,157.976-207.607,100.845-13.672,193.935,57.191,207.613,157.982,11.695,86.161-43.551,169.008-134.418,201.709l-17.996,8.014-144.85,63.183c-2.413,1.051-4.953,1.56-7.465,1.56h0v-.003h0ZM757.36,406.535l-12.892,18.591,84.372-36.802,18.506-8.242c.438-.195.88-.372,1.329-.533,62.835-22.395,121.01-85.136,110.617-161.718-10.91-80.367-85.197-136.881-165.547-125.968-80.364,10.914-136.878,85.173-125.971,165.536,6.91,50.828,38.754,93.389,85.424,114.393.621.236,1.23.505,1.833.81.255.112.508.219.763.329,9.487,4.06,13.889,15.047,9.826,24.536-1.723,4.024-4.69,7.134-8.26,9.07h0v-.002h0Z" fill="silver"  data-split="true"/>
  <path d="M783.042,343.175c-2.654,0-5.323-.563-7.819-1.715-6.461-2.979-10.67-9.366-10.86-16.477l-1.267-47.61-39.937-25.948c-5.964-3.877-9.21-10.803-8.377-17.869.836-7.065,5.61-13.043,12.316-15.418l44.88-15.912,12.338-46c1.844-6.87,7.424-12.099,14.408-13.488,6.986-1.396,14.133,1.305,18.467,6.946l29.009,37.775,47.563-2.488c7.074-.385,13.801,3.321,17.28,9.529,3.476,6.205,3.128,13.849-.898,19.713l-26.961,39.266,17.054,44.467c2.544,6.642,1.102,14.155-3.727,19.378-4.829,5.225-12.203,7.254-19.025,5.235l-45.664-13.506-37.018,29.96c-3.391,2.745-7.556,4.163-11.761,4.163h0ZM775.283,240.713l16.423,10.668c5.158,3.353,8.334,9.027,8.497,15.177l.522,19.579,15.217-12.318c4.782-3.871,11.167-5.143,17.058-3.395l18.777,5.554-7.012-18.286c-2.201-5.742-1.438-12.199,2.043-17.269l11.086-16.143-19.558,1.022c-6.048.29-12.054-2.4-15.799-7.281l-11.928-15.535-5.074,18.916c-1.591,5.941-6.009,10.718-11.805,12.772l-18.449,6.542h0l.002-.003h0Z" fill="#f90" data-split="true"/>
</svg>