<?xml version="1.0" encoding="UTF-8"?>
<svg id="Layer_1" xmlns="http://www.w3.org/2000/svg" width="1024" height="1024" version="1.1" viewBox="0 0 1024 1024">
  <!-- Generator: Adobe Illustrator 29.6.1, SVG Export Plug-In . SVG Version: 2.1.1 Build 9)  -->
  <g>
    <path d="M222.187,600.011h0c-.156-10.745,8.449-19.586,19.194-19.741h0c10.747-.114,19.585,8.452,19.741,19.236h0c.116,10.745-8.489,19.586-19.234,19.7h-.234c-10.669,0-19.352-8.525-19.468-19.194ZM221.017,526.384c-.234-10.745,8.295-19.662,19.04-19.893h0c10.747-.236,19.662,8.293,19.896,19.038h0c.234,10.745-8.293,19.662-19.038,19.898h-.429c-10.551,0-19.234-8.449-19.468-19.042Z" fill="silver"/>
    <path d="M511.487,805.156c-2.907,0-5.808-.65-8.485-1.947l-268.821-130.175c-6.696-3.243-10.958-10.015-10.983-17.452-.002-.521-.182-52.251-.47-70.529-.169-10.753,8.409-19.605,19.16-19.772.103-.004.209-.004.312-.004,10.61,0,19.293,8.513,19.46,19.16.205,13.125.354,42.243.426,58.852l249.869,120.996,261.019-112.628-5.15-300.962-250.103-96.734-260.519,99.616c.143,27.205.504,88.544.956,117.186.169,10.749-8.409,19.604-19.158,19.772-10.905.262-19.602-8.407-19.774-19.156-.591-37.449-1.025-130.152-1.028-131.084-.038-8.103,4.947-15.38,12.515-18.274l280.095-107.103c4.5-1.719,9.483-1.715,13.975.027l269.304,104.163c7.386,2.856,12.306,9.905,12.443,17.821l5.597,327.099c.135,7.893-4.508,15.084-11.753,18.209l-281.175,121.323c-2.464,1.064-5.09,1.593-7.713,1.593Z" fill="silver"/>
    <path d="M511.479,805.156c-10.584,0-19.259-8.479-19.456-19.106l-6.209-333.947c-.15-8.08,4.705-15.411,12.203-18.426,1.302-.521,32.08-12.89,49.156-19.35,10.063-3.806,21.297,1.262,25.099,11.315,3.806,10.053-1.26,21.289-11.315,25.095-9.996,3.787-25.255,9.821-35.964,14.088l5.958,320.502c.2,10.749-8.352,19.627-19.103,19.825-.122.004-.245.004-.369.004Z" fill="silver"/>
    <path d="M604.046,433.084c-6.664,0-11.934-3.293-15.116-7.179-1.65-1.783-2.99-3.905-3.905-6.316-3.812-10.053,1.249-21.293,11.303-25.106,9.827-3.715,17.785-.198,22.346,4.68,2.072,1.958,3.745,4.403,4.823,7.247,3.812,10.053-1.249,21.293-11.303,25.106-2.891,1.095-5.62,1.567-8.148,1.567Z" fill="silver"/>
    <path d="M652.428,410.521c-7.701,0-14.996-4.601-18.057-12.182-4.026-9.969.793-21.316,10.763-25.342l127.559-51.506c9.964-4.008,21.314.795,25.34,10.764,4.027,9.969-.793,21.316-10.762,25.342l-127.559,51.506c-2.388.962-4.855,1.418-7.283,1.418Z" fill="silver"/>
    <path d="M505.266,471.213c-2.629,0-5.303-.536-7.863-1.669l-258.962-114.532c-9.833-4.346-14.278-15.844-9.93-25.677,4.35-9.825,15.844-14.274,25.679-9.928l258.962,114.532c9.833,4.346,14.278,15.844,9.93,25.677-3.217,7.27-10.344,11.597-17.815,11.597Z" fill="silver"/>
  </g>
  <g>
    <path d="M208.304,202.464H1.947V0h206.357v202.464ZM40.882,163.529h128.487V38.935H40.882v124.593Z" fill="silver"  data-split="true"/>
    <path d="M1022.053,202.464h-206.357V0h206.357v202.464ZM854.631,163.529h128.487V38.935h-128.487v124.593Z" fill="silver" data-split="true"/>
  </g>
  <g>
    <path d="M208.304,1024H1.947v-206.357h206.357v206.357ZM40.882,985.065h128.487v-128.487H40.882v128.487Z" fill="silver" data-split="true"/>
    <path d="M1022.053,1024h-206.357v-206.357h206.357v206.357ZM854.631,985.065h128.487v-128.487h-128.487v128.487Z" fill="silver" data-split="true"/>
  </g>
  <path d="M714.445,112.932v-38.935h38.975v38.935h-38.975ZM636.575,112.932v-38.935h38.935v38.935h-38.935ZM558.743,112.932v-38.935h38.896v38.935h-38.896ZM480.833,112.932v-38.935h38.975v38.935h-38.975ZM402.962,112.932v-38.935h38.935v38.935h-38.935ZM325.131,112.932v-38.935h38.935v38.935h-38.935ZM247.221,112.932v-38.935h38.935v38.935h-38.935Z" fill="silver"/>
  <path d="M79.799,767.004v-38.935h38.935v38.935h-38.935ZM79.799,685.239v-38.935h38.935v38.935h-38.935ZM79.799,603.475v-38.935h38.935v38.935h-38.935ZM79.799,521.711v-38.935h38.935v38.935h-38.935ZM79.799,439.947v-38.935h38.935v38.935h-38.935ZM79.799,358.182v-38.935h38.935v38.935h-38.935ZM79.799,276.418v-38.935h38.935v38.935h-38.935Z" fill="silver"/>
  <path d="M726.166,946.148v-38.977h38.896v38.977h-38.896ZM648.255,946.148v-38.977h38.935v38.977h-38.935ZM570.384,946.148v-38.977h38.935v38.977h-38.935ZM492.514,946.148v-38.977h38.975v38.977h-38.975ZM414.683,946.148v-38.977h38.896v38.977h-38.896ZM336.812,946.148v-38.977h38.896v38.977h-38.896ZM258.902,946.148v-38.977h38.975v38.977h-38.975Z" fill="silver"/>
  <path d="M897.441,755.323v-38.935h38.935v38.935h-38.935ZM897.441,677.452v-38.935h38.935v38.935h-38.935ZM897.441,599.582v-38.893h38.935v38.893h-38.935ZM897.441,521.711v-38.935h38.935v38.935h-38.935ZM897.441,443.84v-38.935h38.935v38.935h-38.935ZM897.441,365.969v-38.935h38.935v38.935h-38.935ZM897.441,288.099v-38.893h38.935v38.893h-38.935Z" fill="silver"/>
</svg>