<?xml version="1.0" encoding="UTF-8"?>
<svg id="Layer_1" xmlns="http://www.w3.org/2000/svg" width="1024" height="1024" version="1.1" viewBox="0 0 1024 1024">
  <!-- Generator: Adobe Illustrator 29.6.1, SVG Export Plug-In . SVG Version: 2.1.1 Build 9)  -->
  <path d="M378.555,791.656s-39.36,23.936,27.36,30.784c80.321,10.24,123.105,8.544,212.002-8.544,17.867,10.941,36.762,20.105,56.417,27.36-200.002,85.505-453.125-5.12-295.811-49.6h.032Z" fill="#fff"/>
  <path d="M352.955,680.519s-42.752,32.48,23.936,39.36c87.201,8.544,155.586,10.24,273.603-13.664,11.478,11.64,25.53,20.421,41.024,25.632-241.091,71.809-511.237,6.848-338.564-51.297v-.032Z" fill="#fff"/>
  <path d="M824.864,875.401s29.056,23.936-32.48,42.752c-114.561,34.24-480.453,44.48-583.046,0-35.904-15.36,32.48-37.6,54.401-41.024,22.24-5.12,34.24-5.12,34.24-5.12-39.36-27.36-261.603,56.417-112.833,80.321,408.644,66.689,745.48-29.056,639.463-76.929h.256Z" fill="#fff"/>
  <path d="M397.051,564.23s-186.37,44.48-66.689,59.841c51.297,6.848,152.162,5.12,246.211-1.696,76.929-6.848,153.922-20.48,153.922-20.48,0,0-27.36,11.968-46.177,23.936-189.762,49.6-553.99,27.36-449.669-23.936,88.897-42.752,162.434-37.6,162.434-37.6l-.032-.064Z" fill="#fff"/>
  <path d="M730.495,750.6c191.49-99.201,102.593-194.882,41.024-182.946-15.36,3.424-22.24,6.848-22.24,6.848,0,0,5.12-10.24,17.088-13.664,121.409-42.752,217.154,128.225-39.36,194.882,0,0,1.696-1.696,3.424-5.12h.064Z" fill="#fff"/>
  <path d="M415.931,1020.747c184.642,11.968,466.789-6.848,473.605-94.081,0,0-13.664,34.24-152.162,59.841-157.314,29.056-352.228,25.6-466.789,6.848,0,0,23.936,20.48,145.346,27.36v.032Z" fill="#fff"/>
  <path d="M614.526,0s106.017,107.713-100.865,270.147c-165.858,131.649-37.6,206.882,0,292.387-97.473-87.201-167.554-164.162-119.681-235.938C464.06,220.546,657.278,169.57,614.526,0Z" fill="#f58219"/>
  <path d="M560.125,490.725c49.6,56.417-13.664,107.713-13.664,107.713,0,0,126.529-64.961,68.385-145.346-52.993-76.929-94.081-114.561,128.225-242.787,0,0-350.5,87.201-182.946,280.419Z" fill="#f58219"/>
</svg>