<?xml version="1.0" encoding="UTF-8"?>
<svg id="Layer_1" xmlns="http://www.w3.org/2000/svg" width="1024" height="1024" version="1.1" viewBox="0 0 1024 1024">
  <!-- Generator: Adobe Illustrator 29.6.1, SVG Export Plug-In . SVG Version: 2.1.1 Build 9)  -->
  <path d="M578.165,284.508c48.391-35.669,105.009-58.368,162.379-74.829-45.394,28.933-92.786,55.373-131.95,92.538-14.216,13.719-27.686,29.433-33.922,48.639-4.74,14.218-2.743,29.932,2.996,43.402,10.474,23.945,28.183,43.401,41.653,65.35,11.473,18.707,13.47,42.653,4.74,62.857-13.222,29.682-39.164,51.383-66.099,68.593-3.493,1.995-6.484,5.736-10.728,6.236,17.962-16.213,31.929-39.161,31.427-63.855-.497-18.458-10.723-34.671-22.697-47.891-24.695-29.433-45.396-66.847-41.155-106.506,4.242-39.659,32.673-71.587,63.355-94.534h0Z" fill="#e92d2f" stroke="#e92d2f" stroke-miterlimit="10" stroke-width=".234"/>
  <path d="M749.776,572.849c10.474-12.72,27.184-15.964,42.403-17.959,26.439-3.492,54.621,3.242,74.576,21.451,16.466,14.716,25.693,37.663,22.2,59.863-3.741,25.691-20.953,47.142-40.406,63.355-35.169,28.185-78.571,44.648-121.973,55.625,2.494-2.747,5.237-5.242,8.482-7.234,32.923-17.711,65.597-38.413,89.795-67.348,14.717-17.959,26.19-41.406,21.45-65.102-4.989-27.437-31.676-47.392-58.865-48.888-12.973-1.247-25.192,3.741-37.663,6.236h0Z" fill="#0774ba" stroke="#0774ba" stroke-miterlimit="10" stroke-width=".234"/>
  <path d="M615.083.405c23.443,26.689,31.179,64.852,24.441,99.274-7.234,38.662-28.685,72.833-53.876,102.267-20.203,23.696-43.402,44.648-67.595,64.103-28.186,22.698-55.874,47.143-73.583,79.07-14.966,25.941-18.458,57.868-8.231,86.054,16.711,48.389,55.623,84.307,76.824,129.954-23.446-20.703-46.394-42.154-67.846-64.852-22.449-23.946-43.65-49.388-57.618-79.32-9.479-20.952-13.719-45.396-6.485-67.595,7.233-22.698,23.446-40.907,39.659-57.868,45.147-45.147,100.772-78.321,144.92-124.216,24.446-25.193,44.649-55.374,51.63-90.045,5.739-25.442,2.996-51.633-2.241-76.825h0Z" fill="#e92d2f" stroke="#e92d2f" stroke-miterlimit="10" stroke-width=".234"/>
  <path d="M248.417,595.547c45.895-19.705,95.781-32.426,145.917-31.677-29.183,8.48-59.114,15.714-86.552,28.685-6.485,3.492-13.968,6.734-17.71,13.469-1.996,5.238,3.492,8.73,7.483,10.476,16.961,6.985,35.668,7.982,53.877,9.729,63.853,4.24,127.958,1.745,191.564-2.246,62.855-3.99,125.212-12.472,187.322-22.449-13.719,6.485-27.686,12.971-40.406,21.202-6.489,4.49-14.469,5.737-21.703,7.483-76.325,16.962-154.646,22.2-232.469,23.447-30.181.249-60.113-.25-90.045-2.246-33.423-2.245-67.097-4.739-99.772-13.469-9.478-2.744-19.455-5.736-26.938-12.472-3.741-2.992-3.741-8.98-.499-12.472,8.232-8.48,19.705-12.472,29.932-17.46h0Z" fill="#0774ba" stroke="#0774ba" stroke-miterlimit="10" stroke-width=".234"/>
  <path d="M307.283,702.055c12.971-10.227,28.435-15.963,43.9-21.451-4.989,5.986-11.973,11.724-12.472,19.954-.25,5.238,3.991,9.229,8.231,11.724,8.232,4.24,17.46,5.736,26.69,6.984,47.89,4.989,96.281,7.733,144.67,4.49,44.147-2.245,88.051-9.478,131.702-17.211,11.97,11.224,26.19,18.957,41.156,25.692-52.634,15.464-106.758,24.445-161.136,28.684-51.381,3.493-103.513,3.244-154.646-4.989-20.203-3.741-40.906-7.98-59.364-17.459-7.483-3.991-15.963-9.229-18.208-17.96-1.497-7.483,3.99-14.218,9.478-18.458h0Z" fill="#0774ba" stroke="#0774ba" stroke-miterlimit="10" stroke-width=".234"/>
  <path d="M336.217,810.806c11.474-9.227,25.691-13.967,39.659-17.957-4.489,4.239-12.472,9.476-8.98,16.71,6.735,8.73,19.207,9.729,29.184,11.974,42.154,5.237,84.806,8.73,126.961,5.486,31.924-1.993,63.356-7.732,94.535-13.217,17.957,10.474,36.664,19.453,55.869,27.437-29.43,13.217-61.111,21.698-92.786,27.686-53.379,9.476-108.502,10.723-162.13,2.246-23.696-4.243-47.891-9.729-69.343-21.455-8.231-4.735-16.961-10.226-20.453-19.453-2.744-7.234,1.745-14.966,7.483-19.457h0Z" fill="#0774ba" stroke="#0774ba" stroke-miterlimit="10" stroke-width=".234"/>
  <path d="M197.783,881.397c22.947-7.731,46.643-13.967,70.838-14.717,9.728-.248,19.705.249,28.185,5.237-28.933,1.749-57.867,8.979-83.808,22.2-5.738,3.245-12.223,6.986-14.468,13.719,0,7.732,8.73,10.226,14.468,12.72,36.167,13.47,74.829,17.709,112.742,21.703,112.993,9.476,226.731,6.981,339.725-3.245,42.652-4.74,85.557-9.48,126.961-21.202,13.217-4.492,28.183-8.979,36.913-20.705,5.242-6.981,1.749-15.711-3.488-21.699,8.477,4.74,20.451,10.728,18.707,22.2-3.245,11.97-15.468,18.206-25.445,23.944-31.924,16.213-67.098,24.446-102.018,31.676-101.516,19.954-205.53,24.446-308.794,21.455-77.823-2.747-155.645-10.23-232.47-23.448-13.719-3.244-29.183-5.987-39.16-16.715-6.485-7.483-.749-17.957,5.487-23.443,15.715-14.469,35.919-22.449,55.624-29.683h0Z" fill="#0774ba" stroke="#0774ba" stroke-miterlimit="10" stroke-width=".234"/>
  <path d="M819.363,966.7c25.196-8.73,52.132-17.957,70.839-37.912-3.24,21.699-21.947,36.665-40.406,46.393-35.422,18.459-75.078,26.941-114.49,33.922-83.311,13.222-167.869,16.461-252.425,14.966-57.619-1.744-115.736-3.99-172.357-15.965-13.469-3.741-27.936-6.236-39.659-14.216,50.386,8.482,101.519,11.975,152.652,13.967,84.057,2.494,168.366-.746,251.925-11.224,48.391-6.733,97.03-14.966,143.92-29.932h0Z" fill="#0774ba" stroke="#0774ba" stroke-miterlimit="10" stroke-width=".234"/>
</svg>