<?xml version="1.0" encoding="UTF-8"?>
<svg id="Layer_1" xmlns="http://www.w3.org/2000/svg" width="1024" height="1024" version="1.1" viewBox="0 0 1024 1024">
  <!-- Generator: Adobe Illustrator 29.6.1, SVG Export Plug-In . SVG Version: 2.1.1 Build 9)  -->
  <path d="M378.487,538.956l-101.101-48c-11.4-5.4-18.3-13.8-18.3-25.5v-3c0-11.7,6.9-20.1,18.3-25.5l101.101-48c3.6-1.8,6.9-3,11.1-3,9.6-.3,18.3,8.1,18.3,18.9,0,8.7-4.8,14.7-12.6,18.3l-90.601,40.5,90.601,40.5c7.8,3.6,12.6,10.5,12.6,18.9,0,11.1-8.7,18.899-19.8,18.6-3.3,0-6.6-1.2-9.6-2.7h0Z" fill="#f90"/>
  <path d="M435.486,583.957l117.302-245.102c3.3-6.9,8.7-10.5,15.899-10.5,9.601,0,17.7,8.1,17.7,17.101,0,3.3-1.199,6.6-2.1,8.7l-117.301,245.102c-3.3,6.9-8.7,10.5-15.9,10.5-9.6,0-17.7-8.1-17.7-17.1,0-3.301,1.2-6.601,2.1-8.7h0Z" fill="#f90"/>
  <path d="M645.486,388.955l101.102,48c11.399,5.4,18.3,13.8,18.3,25.5v3c0,11.7-6.9,20.1-18.3,25.5l-101.102,48c-3.6,1.801-6.899,3-11.1,3-9.601.301-18.301-8.1-18.301-18.899,0-8.7,4.801-14.7,12.601-18.301l90.601-40.5-90.601-40.5c-7.8-3.6-12.601-10.5-12.601-18.9,0-11.1,8.7-18.9,19.801-18.6,3.3,0,6.6,1.2,9.6,2.7Z" fill="#f90"/>
  <path d="M1007.861,762.107H16.139c-8.913,0-16.139,6.67-16.139,14.898h0c0,29.497,26.145,53.631,58.101,53.631h907.798c31.955,0,58.101-24.134,58.101-53.632h0c0-8.228-7.226-14.898-16.139-14.898h0ZM619.52,799.3c0,2.938-2.604,5.343-5.788,5.343h-203.464c-3.183,0-5.788-2.404-5.788-5.343v-8.219c0-2.938,2.605-5.343,5.788-5.343h203.464c3.183,0,5.788,2.404,5.788,5.343v8.219Z" fill="silver"/>
  <path d="M116.276,744.748h791.449c27.363,0,49.625-22.262,49.625-49.625V242.988c0-27.363-22.262-49.625-49.625-49.625H116.276c-27.363,0-49.625,22.262-49.625,49.625v452.135c0,27.363,22.262,49.625,49.625,49.625h0ZM512,202.537c6.525,0,11.815,5.29,11.815,11.815s-5.29,11.815-11.815,11.815-11.815-5.29-11.815-11.815,5.29-11.815,11.815-11.815ZM109.065,242.988c0-3.976,3.234-7.21,7.21-7.21h791.449c3.976,0,7.21,3.234,7.21,7.21v452.135c0,3.976-3.234,7.21-7.21,7.21H116.276c-3.976,0-7.21-3.234-7.21-7.21V242.988h0Z" fill="silver"/>
</svg>