<?xml version="1.0" encoding="UTF-8"?>
<svg id="Layer_1" xmlns="http://www.w3.org/2000/svg" width="1024" height="1024" version="1.1" viewBox="0 0 1024 1024">
  <!-- Generator: Adobe Illustrator 29.6.1, SVG Export Plug-In . SVG Version: 2.1.1 Build 9)  -->
  <path d="M207.208,58.895C209.027,26.431,235.988.479,268.85.479h302.369c32.799,0,59.823,25.952,61.61,58.416,134.354,79.77,214.086,228.412,204.26,386.855-5.201,83.452-34.649,160.131-81.263,223.144l61.226,61.319,10.625-10.644c6.03-6.107,15.857-6.107,21.888,0l147.084,147.436c17.867,17.96,26.801,41.605,26.801,65.25,0,51.221-41.03,92.223-91.92,92.223-23.578,0-47.22-8.953-65.087-26.912l-147.117-147.493c-6.03-6.046-6.03-15.844,0-21.894l10.625-10.701-61.227-61.38c-168.557,125.36-404.403,105.585-550.052-46.445C44.522,632.369-.082,526.72,2.183,411.037,5.151,264.51,83.67,132.249,207.208,58.895M838.62,752.468l-86.464,86.659,136.109,136.489c23.77,23.827,62.726,23.827,86.497,0,23.769-23.827,23.705-62.892,0-86.659l-136.141-136.489ZM351.23,217.58c8.583,0,15.442,6.955,15.442,15.481,0,8.589-6.86,15.544-15.442,15.544h-70.32c-8.551,0-15.442-6.955-15.442-15.544,0-8.525,6.892-15.481,15.442-15.481h70.32ZM548.088,455.545c0,13.002,5.264,24.794,13.751,33.319,18.346,18.323,48.082,18.384,66.491,0,18.442-19.23,18.218-48.318,0-66.641-29.513-29.51-80.242-8.586-80.242,33.322M595.085,377.411c21.058,0,41.573,8.892,55.069,22.921,30.47,30.479,30.534,79.825.064,110.483-30.566,30.661-80.53,30.301-110.202-.057-30.47-30.479-30.47-79.946-.064-110.425,14.134-14.15,33.597-22.921,55.133-22.921M736.363,693.203c-13.464,15.605-27.758,29.937-43.328,43.42l58.802,58.901,43.328-43.36-58.803-58.962ZM197.924,455.545c0,42.029,50.89,62.71,80.211,33.319,18.442-19.23,18.282-48.378,0-66.641-29.481-29.51-80.211-8.525-80.211,33.322M166.975,455.545c0-43.117,34.905-78.134,77.914-78.134,21.058,0,41.573,8.892,55.069,22.921,30.47,30.479,30.533,79.825,0,110.425-14.102,14.15-33.533,22.918-55.069,22.918-43.04,0-77.914-34.953-77.914-78.13M522.946,715.279c-13.687-44.508-54.942-75.954-102.96-75.954s-89.303,31.567-102.959,76.015c60.397,21.227,124.432,22.675,183.839,6.713,7.498-1.997,14.868-4.234,22.079-6.774M516.661,647.728c15.697,15.302,27.886,34.41,35.001,55.876,46.072-21.405,87.326-54.182,119.103-97.178-33.086-34.046-87.612-37.374-124.654-5.867-14.23,12.095-24.727,28.485-29.449,47.169M323.377,647.728c-14.039-55.816-76.988-85.45-129.313-59.443-9.284,4.594-17.676,10.762-24.855,18.141,30.534,41.241,71.596,75.045,119.136,97.239,7.115-21.527,19.271-40.635,35.032-55.937M459.932,468.001c-35.479-35.556-96.387-10.219-96.387,40.035s60.908,75.591,96.387,40.032c22.079-22.133,22.079-57.934,0-80.067M419.987,420.41c48.306,0,87.453,39.247,87.453,87.625s-39.148,87.625-87.453,87.625-87.389-39.247-87.389-87.625,39.148-87.625,87.389-87.625M419.987,369.492l38.414-49.591c2.84-3.87,7.434-6.41,12.571-6.41h100.247c16.942,0,30.757-13.908,30.757-30.901V62.404c0-16.993-13.815-30.901-30.757-30.901h-302.369c-16.942,0-30.821,13.907-30.821,30.901v220.187c0,16.993,13.879,30.901,30.821,30.901h100.183c4.626,0,9.156,2.058,12.251,5.985l38.701,50.015ZM207.081,149.245v-53.879C101.888,164.847,35.62,282.288,33.036,411.643c-2.138,107.098,39.244,204.942,107.873,276.602,148.01,154.448,393.077,159.41,547.244,11.007,76.318-73.475,120.444-175.194,118.944-286.946-1.755-128.385-69.076-247.399-174.141-316.94v53.94c65.279,51.649,107.777,123.79,123.602,201.742,16.081,79.4,4.467,164.789-39.148,240.501-46.742,82.004-124.113,137.819-208.503,160.498-84.869,22.736-178.352,13.123-260.509-34.41-81.774-46.866-137.449-124.515-160.071-209.058-35.479-132.737,11.327-274.244,118.753-359.333M478.565,344.513l-34.139,44.087c-12.475,16.087-36.564,15.844-48.784,0l-34.139-44.087h-92.653c-34.011,0-61.77-27.815-61.77-61.922v-92.59c-84.199,78.561-119.008,197.872-88.889,310.534,7.402,27.879,18.696,54.731,33.596,79.707,64.035-59.204,167.441-33.807,197.623,47.472,43.583-25.885,97.599-25.885,141.15,0,24.44-66.341,102.608-100.145,169.004-67.187,10.497,5.201,20.132,11.853,28.651,19.714l2.489-4.113c39.659-68.942,50.284-146.708,35.639-219.035-12.794-63.014-44.763-121.854-93.388-167.093v92.59c0,34.107-27.726,61.922-61.737,61.922h-92.654ZM559.063,217.58c8.583,0,15.506,6.955,15.506,15.481,0,8.589-6.923,15.544-15.506,15.544h-143.479c-8.487,0-15.442-6.955-15.442-15.544,0-8.525,6.955-15.481,15.442-15.481h143.479ZM559.063,156.992c8.583,0,15.506,6.946,15.506,15.481,0,8.583-6.923,15.545-15.506,15.545h-278.153c-8.551,0-15.442-6.962-15.442-15.545,0-8.535,6.892-15.481,15.442-15.481h278.153ZM488.807,127.418c-8.55,0-15.474-6.959-15.474-15.481,0-8.595,6.924-15.541,15.474-15.541h70.256c8.583,0,15.506,6.946,15.506,15.541,0,8.522-6.923,15.481-15.506,15.481h-70.256ZM280.911,127.418c-8.519,0-15.442-6.959-15.442-15.481,0-8.595,6.923-15.541,15.442-15.541h142.937c8.582,0,15.506,6.946,15.506,15.541,0,8.522-6.924,15.481-15.506,15.481" fill="silver" fill-rule="evenodd"/>
</svg>