<?xml version="1.0" encoding="UTF-8"?>
<svg id="Layer_1" xmlns="http://www.w3.org/2000/svg" width="1024" height="1024" version="1.1" viewBox="0 0 1024 1024">
  <!-- Generator: Adobe Illustrator 29.6.1, SVG Export Plug-In . SVG Version: 2.1.1 Build 9)  -->
  <path d="M1020.501,151.04l-481.024,860.155c-9.932,17.759-35.447,17.863-45.528.191L3.387,151.123c-10.982-19.259,5.486-42.586,27.31-38.685l481.539,86.072c3.072.549,6.217.544,9.289-.016l471.469-85.933c21.751-3.964,38.297,19.183,27.508,38.479Z" fill="#bd34fe"/>
  <path d="M741.619-.459l-355.972,69.751c-5.851,1.146-10.183,6.105-10.536,12.055l-21.897,369.827c-.515,8.711,7.485,15.471,15.986,13.511l99.108-22.872c9.273-2.138,17.652,6.029,15.746,15.354l-29.445,144.186c-1.982,9.704,7.129,18.002,16.606,15.124l61.214-18.598c9.49-2.881,18.609,5.44,16.601,15.152l-46.793,226.484c-2.928,14.167,15.916,21.892,23.774,9.746l5.249-8.112,290.066-578.877c4.857-9.692-3.519-20.744-14.164-18.69l-102.015,19.689c-9.587,1.848-17.743-7.079-15.037-16.459L756.693,15.992c2.708-9.395-5.477-18.331-15.074-16.45Z" fill="#ffa800"/>
</svg>