<?xml version="1.0" encoding="UTF-8"?>
<svg id="Layer_1" xmlns="http://www.w3.org/2000/svg" width="1024" height="1024" version="1.1" viewBox="0 0 1024 1024">
  <!-- Generator: Adobe Illustrator 29.6.1, SVG Export Plug-In . SVG Version: 2.1.1 Build 9)  -->
  <path d="M601.238,114.132c-43.119-50.991-80.249-102.778-87.835-113.534-.799-.797-1.997-.797-2.795,0-7.586,10.756-44.716,62.543-87.835,113.534-370.104,470.469,58.291,787.97,58.291,787.97l3.593,2.387c3.194,49.003,11.179,119.512,11.179,119.512h31.94s7.985-70.114,11.179-119.512l3.593-2.786c.399,0,428.796-317.101,58.69-787.57ZM511.805,894.93s-19.164-16.334-24.354-24.701v-.796l23.156-512.298c0-1.593,2.396-1.593,2.396,0l23.156,512.298v.796c-5.19,8.367-24.354,24.701-24.354,24.701Z" fill="#00ed64" fill-rule="evenodd"/>
</svg>