<?xml version="1.0" encoding="UTF-8"?>
<svg id="Layer_1" xmlns="http://www.w3.org/2000/svg" width="1024" height="1024" version="1.1" viewBox="0 0 1024 1024">
  <!-- Generator: Adobe Illustrator 29.6.1, SVG Export Plug-In . SVG Version: 2.1.1 Build 9)  -->
  <polygon points="511.63 982.485 50.951 723.481 511.63 464.478 972.31 723.481 511.63 982.485" fill="#277da1"/>
  <polygon points="972.31 764.832 972.31 723.481 511.63 982.485 511.63 1023.836 972.31 764.832" fill="#216b84"/>
  <polygon points="50.951 764.832 50.951 723.481 511.63 982.485 511.63 1023.836 50.951 764.832" fill="#216b84"/>
  <polygon points="511.63 827.604 50.951 568.601 511.63 309.597 972.31 568.601 511.63 827.604" fill="#90be6d"/>
  <polygon points="972.31 609.951 972.31 568.601 511.63 827.604 511.63 868.955 972.31 609.951" fill="#779b57"/>
  <polygon points="50.951 609.951 50.951 568.601 511.63 827.604 511.63 868.955 50.951 609.951" fill="#779b57"/>
  <polygon points="511.63 672.724 50.951 413.72 511.63 154.716 972.31 413.72 511.63 672.724" fill="#f8961e"/>
  <polygon points="972.31 455.071 972.31 413.72 511.63 672.724 511.63 714.074 972.31 455.071" fill="#d17b1e"/>
  <polygon points="50.951 455.071 50.951 413.72 511.63 672.724 511.63 714.074 50.951 455.071" fill="#d17b1e"/>
  <polygon points="511.63 517.843 50.951 258.839 511.63 -.164 972.31 258.839 511.63 517.843" fill="#f94144"/>
  <polygon points="972.31 300.19 972.31 258.839 511.63 517.843 511.63 559.194 972.31 300.19" fill="#c63947"/>
  <polygon points="50.951 300.19 50.951 258.839 511.63 517.843 511.63 559.194 50.951 300.19" fill="#c63947"/>
</svg>