<?xml version="1.0" encoding="UTF-8"?>
<svg id="Layer_1" xmlns="http://www.w3.org/2000/svg" width="1024" height="1024" version="1.1" viewBox="0 0 1024 1024">
  <!-- Generator: Adobe Illustrator 29.6.1, SVG Export Plug-In . SVG Version: 2.1.1 Build 9)  -->
  <path d="M511.63,1023.962c-14.108,0-27.274-3.763-39.501-10.349l-125.086-74.318c-18.811-10.349-9.405-14.112-3.762-15.993,25.392-8.467,30.095-10.349,56.429-25.4,2.822-1.881,6.584-.94,9.406.941l95.931,57.385c3.762,1.881,8.465,1.881,11.286,0l375.259-217.312c3.763-1.881,5.643-5.644,5.643-10.347v-433.684c0-4.703-1.88-8.466-5.643-10.347l-375.259-216.371c-3.762-1.881-8.465-1.881-11.286,0l-375.26,216.371c-3.762,1.881-5.643,6.584-5.643,10.347v433.684c0,3.763,1.881,8.466,5.643,10.347l102.515,59.268c55.489,28.222,90.288-4.704,90.288-37.63v-428.039c0-5.644,4.703-11.289,11.286-11.289h47.966c5.643,0,11.286,4.703,11.286,11.289v428.039c0,74.319-40.441,117.593-110.98,117.593-21.631,0-38.56,0-86.526-23.519l-98.752-56.444c-24.453-14.112-39.501-40.452-39.501-68.675v-433.683c0-28.222,15.048-54.563,39.501-68.675L472.129,9.84c23.514-13.17,55.49-13.17,79.003,0l375.26,217.311c24.452,14.112,39.5,40.453,39.5,68.675v433.683c0,28.223-15.048,54.563-39.5,68.675l-375.26,217.311c-11.286,4.704-25.394,8.467-39.501,8.467Z" fill="#a8d5ba"/>
  <path d="M628.25,725.746c-164.587,0-198.446-75.259-198.446-139.23,0-5.644,4.702-11.29,11.286-11.29h48.906c5.643,0,10.345,3.764,10.345,9.409,7.525,49.859,29.155,74.318,128.849,74.318,79.003,0,112.86-17.874,112.86-60.208,0-24.459-9.405-42.333-132.61-54.562-102.514-10.349-166.469-32.926-166.469-114.771,0-76.201,63.955-121.356,171.172-121.356,120.384,0,179.635,41.392,187.16,131.703,0,2.823-.94,5.646-2.822,8.467-1.881,1.881-4.703,3.763-7.525,3.763h-49.846c-4.703,0-9.405-3.763-10.346-8.466-11.285-51.742-40.441-68.675-117.561-68.675-86.527,0-96.872,30.103-96.872,52.682,0,27.282,12.226,35.748,128.849,50.801,115.681,15.052,170.23,36.689,170.23,117.593,0,82.785-68.657,129.823-187.16,129.823Z" fill="#a8d5ba"/>
</svg>