<?xml version="1.0" encoding="UTF-8"?>
<svg id="Layer_1" xmlns="http://www.w3.org/2000/svg" width="1024" height="1024" version="1.1" viewBox="0 0 1024 1024">
  <!-- Generator: Adobe Illustrator 29.6.1, SVG Export Plug-In . SVG Version: 2.1.1 Build 9)  -->
  <g>
    <path d="M637.167,602.283c-3.554,0-7.087-1.129-10.038-3.338-5.054-3.783-7.553-10.079-6.47-16.297l21.769-124.766c.471-2.697,1.594-5.236,3.272-7.396,24.418-31.449,238.724-307.426,244.521-314.157,13.756-15.999,26.661-29.253,45.234-29.253,9.265,0,18.545,3.452,28.369,10.557,15.811,11.414,21.772,16.019,37.698,28.32l.636.491c13.145,10.161,20.208,21.111,21.595,33.478,1.54,13.738-4.089,28.153-17.208,44.067-7.254,8.809-164.251,211.546-246.252,317.512-1.556,2.013-3.549,3.642-5.83,4.768l-109.877,54.28c-2.351,1.162-4.89,1.734-7.418,1.734ZM674.724,467.745l-15.377,88.137,76.81-37.944c26.206-33.864,235.53-304.33,244.524-315.257,9.458-11.473,9.983-17.128,9.77-19.026-.317-2.837-3.272-6.437-8.782-10.694l-.631-.488c-16.05-12.396-21.456-16.572-36.838-27.679-5.256-3.799-7.865-4.208-8.744-4.208-4.702,0-15.305,12.334-19.833,17.599-6.187,7.412-173.522,222.79-240.898,309.56Z" fill="#424242"/>
    <path d="M960.543,266.455c-3.557,0-7.139-1.126-10.179-3.456l-82.355-63.106c-7.345-5.629-8.738-16.146-3.109-23.49,5.629-7.353,16.147-8.737,23.49-3.109l82.355,63.106c7.345,5.629,8.737,16.147,3.109,23.49-3.299,4.307-8.278,6.565-13.311,6.565Z" fill="#424242"/>
    <path d="M744.161,545.878c-3.556,0-7.139-1.126-10.177-3.456l-82.162-62.943c-7.347-5.625-8.739-16.143-3.112-23.49,5.629-7.34,16.15-8.734,23.49-3.109l82.162,62.943c7.347,5.625,8.739,16.143,3.112,23.49-3.298,4.303-8.278,6.565-13.312,6.565Z" fill="#424242"/>
  </g>
  <polygon points="87.174 827.546 53.663 827.546 53.663 237.768 187.704 237.768 187.704 271.278 87.174 271.278 87.174 827.546" fill="#424242"/>
  <path d="M764.078,240.838v-3.07H160.896v33.51h577.697c8.737-9.932,17.151-20.152,25.486-30.44Z" fill="#424242"/>
  <path d="M931.629,388.286v432.559h33.51v-469.443c-10.75,12.727-21.808,25.097-33.51,36.884Z" fill="#424242"/>
  <path d="M467.815,916.924c-149.13,0-401.937-.69-419.543-5.311C8.35,901.135-.82,849.309.056,820.337l.491-16.248h433.088l27.096,26.808h94.025l19.946-23.457h442.131l1.721,14.821c3.439,29.622-1.911,81.74-43.778,89.185-24.365,4.333-342.268,5.478-506.96,5.478ZM56.417,879.105c13.988,2.15,146.163,4.31,411.398,4.31,259.43,0,484.233-2.228,501.124-4.968,12.656-2.248,16.14-22.371,16.706-37.496h-395.452l-19.946,23.457h-123.293l-27.096-26.808H34.477c2.036,16.487,7.838,37.473,21.94,41.505Z" fill="#424242"/>
  <path d="M874.367,456.01c-9.294,12.769-20.898,23.621-33.216,33.707v244.002H167.598v-375.313h498.568c8.063-11.915,17.347-22.992,27.188-33.51H150.843c-9.254,0-16.755,7.501-16.755,16.755v408.824c0,9.255,7.501,16.755,16.755,16.755h707.064c9.254,0,16.755-7.5,16.755-16.755v-291.538c0-1.001-.124-1.97-.295-2.925Z" fill="#424242"/>
  <path d="M418.924,556.114h-214.465v-164.2h214.465v164.2ZM237.969,522.604h147.445v-97.179h-147.445v97.179Z" fill="#424242"/>
  <rect x="452.434" y="391.915" width="177.604" height="33.51" fill="#424242"/>
  <rect x="455.785" y="455.584" width="147.445" height="33.51" fill="#424242"/>
  <rect x="455.785" y="522.604" width="123.987" height="33.51" fill="#424242"/>
  <path d="M275.832,712.382c-37.352,0-67.74-30.388-67.74-67.74s30.388-67.734,67.74-67.734,67.734,30.385,67.734,67.734-30.385,67.74-67.734,67.74ZM275.832,610.418c-18.874,0-34.23,15.351-34.23,34.224s15.356,34.23,34.23,34.23,34.224-15.355,34.224-34.23-15.353-34.224-34.224-34.224Z" fill="#424242"/>
  <path d="M508.655,712.382c-37.352,0-67.74-30.388-67.74-67.74s30.388-67.734,67.74-67.734,67.737,30.385,67.737,67.734-30.386,67.74-67.737,67.74ZM508.655,610.418c-18.874,0-34.23,15.351-34.23,34.224s15.356,34.23,34.23,34.23,34.227-15.355,34.227-34.23-15.354-34.224-34.227-34.224Z" fill="#424242"/>
  <path d="M737.719,712.382c-37.35,0-67.737-30.388-67.737-67.74s30.387-67.734,67.737-67.734,67.734,30.385,67.734,67.734-30.385,67.74-67.734,67.74ZM737.719,610.418c-18.872,0-34.227,15.351-34.227,34.224s15.355,34.23,34.227,34.23,34.224-15.355,34.224-34.23-15.353-34.224-34.224-34.224Z" fill="#424242"/>
</svg>