<?xml version="1.0" encoding="UTF-8"?>
<svg id="Layer_1" xmlns="http://www.w3.org/2000/svg" width="1024" height="1024" version="1.1" viewBox="0 0 1024 1024">
  <!-- Generator: Adobe Illustrator 29.6.1, SVG Export Plug-In . SVG Version: 2.1.1 Build 9)  -->
  <polygon points="364.195 853.368 364.195 1024 216.431 938.684 364.195 853.368" fill="#ceff00"/>
  <polygon points="807.61 426.663 807.61 597.337 659.805 512.021 659.805 511.979 807.61 426.663" fill="#e600ff"/>
  <polygon points="807.61 85.316 807.61 255.99 659.805 170.674 807.61 85.316" fill="#cd00ff"/>
  <polygon points="807.61 85.316 659.805 170.674 659.805 0 659.846 0 807.61 85.316" fill="#8f00ff"/>
  <polygon points="807.61 426.663 659.805 511.979 659.805 341.347 807.61 426.663" fill="#cd00ff"/>
  <polygon points="659.805 511.979 659.805 512.021 512 597.337 512 426.663 659.805 511.979" fill="#6900ff"/>
  <polygon points="659.805 341.347 659.805 511.979 512 426.663 659.805 341.347" fill="#8f00ff"/>
  <polygon points="659.805 0 659.805 170.674 512 85.316 659.805 0" fill="#6900ff"/>
  <polygon points="512 85.316 659.805 170.674 512 255.99 512 85.357 512 85.316" fill="#3100ff"/>
  <polygon points="512 426.663 512 597.337 364.195 512.021 512 426.663" fill="#3100ff"/>
  <polygon points="512 85.357 512 255.99 364.195 170.674 512 85.357" fill="#004fff"/>
  <polygon points="512 255.99 364.195 341.347 364.195 170.674 512 255.99" fill="#0080ff"/>
  <polygon points="512 597.337 364.195 682.653 364.195 512.021 512 597.337" fill="#004fff"/>
  <polygon points="364.195 853.326 364.195 853.368 216.431 938.684 216.39 938.684 216.39 768.01 364.195 853.326" fill="#bf0"/>
  <polygon points="364.195 682.694 364.195 853.326 216.39 768.01 364.195 682.694" fill="#90ff00"/>
  <polygon points="364.195 682.653 364.195 682.694 216.39 768.01 216.39 597.337 364.195 682.653" fill="#70ff00"/>
  <polygon points="364.195 512.021 364.195 682.653 216.39 597.337 364.195 512.021" fill="#00ff06"/>
  <polygon points="364.195 341.347 364.195 511.979 216.39 426.663 364.195 341.347" fill="#00ff9d"/>
  <polygon points="364.195 170.674 364.195 341.347 216.39 256.031 216.39 255.99 364.195 170.674" fill="#00a4ff"/>
  <polygon points="216.39 256.031 364.195 341.347 216.39 426.663 216.39 256.031" fill="#00ffda"/>
  <polygon points="216.39 426.663 364.195 512.021 216.39 597.337 216.39 426.704 216.39 426.663" fill="#00ff5b"/>
</svg>