<?xml version="1.0" encoding="UTF-8"?>
<svg id="Layer_1" xmlns="http://www.w3.org/2000/svg" width="1024" height="1024" version="1.1" viewBox="0 0 1024 1024">
  <!-- Generator: Adobe Illustrator 29.6.1, SVG Export Plug-In . SVG Version: 2.1.1 Build 9)  -->
  <path d="M534.217,1024c-8.448,0-15.326-6.815-15.389-15.278-.063-8.5,6.776-15.443,15.278-15.506,107.571-.801,199.694-12.507,266.408-33.853,56.373-18.036,90.03-42.465,90.03-65.343,0-14.66-22.772-37.772-86.69-58.678-60.701-19.853-145.429-33.51-238.576-38.454-8.486-.451-15.001-7.697-14.553-16.187.448-8.488,7.681-14.968,16.189-14.555,95.766,5.083,183.313,19.267,246.513,39.937,71.599,23.418,107.902,53.004,107.902,87.936,0,26.921-19.333,65.196-111.434,94.663-69.633,22.279-164.918,34.492-275.559,35.317h-.119Z" fill="#ff5252"/>
  <path d="M685.872,371.654c-62.493,0-113.337-50.843-113.337-113.336s50.844-113.333,113.337-113.333,113.329,50.841,113.329,113.333-50.838,113.336-113.329,113.336ZM685.872,175.769c-45.52,0-82.553,37.032-82.553,82.549s37.033,82.552,82.553,82.552,82.545-37.032,82.545-82.552-37.031-82.549-82.545-82.549h0Z" fill="silver" data-split="true"/>
  <path d="M713.496,502.061c-7.822,0-14.514-5.936-15.299-13.883-.835-8.46,5.345-15.993,13.805-16.829,97.69-9.638,171.664-54.635,172.401-55.089,7.227-4.457,16.715-2.213,21.176,5.014,4.464,7.228,2.234,16.701-4.99,21.171-3.238,2.002-80.485,49.171-185.562,59.538-.514.051-1.025.077-1.53.077h0Z" fill="silver"/>
  <path d="M674.713,503.968h-.027c-73.421-.123-140.979-20.954-200.791-61.911-7.017-4.803-8.808-14.382-4.004-21.395,4.804-7.017,14.382-8.805,21.392-4.004,54.617,37.396,116.338,56.415,183.457,56.527,8.499.015,15.38,6.917,15.365,15.417-.015,8.491-6.902,15.366-15.392,15.366h0Z" fill="silver"/>
  <path d="M605.789,491.428c-2.162,0-4.356-.457-6.445-1.422-7.717-3.564-11.084-12.71-7.518-20.427l55.326-119.771c3.568-7.719,12.719-11.078,20.427-7.519,7.717,3.565,11.084,12.71,7.518,20.427l-55.326,119.771c-2.598,5.628-8.165,8.94-13.982,8.94h0Z" fill="silver"/>
  <path d="M466.635,792.7c-2.27,0-4.53-.501-6.617-1.495l-43.921-20.917c-7.642-3.641-10.913-12.772-7.314-20.436l192.395-409.892c3.611-7.696,12.771-11.01,20.475-7.394,7.693,3.612,11.003,12.778,7.392,20.474l-185.892,396.036,16.017,7.63c17.141-37.255,65.145-141.543,108.771-235.991,3.565-7.718,12.722-11.076,20.427-7.519,7.717,3.564,11.084,12.71,7.519,20.427-53.983,116.862-114.66,248.798-115.27,250.117-1.72,3.741-4.867,6.636-8.739,8.039-1.698.616-3.472.921-5.243.921h0Z" fill="silver"/>
  <path d="M947.641,772.483c-5.817.002-11.382-3.313-13.982-8.94l-187.961-406.906-16.038,7.636,46.227,98.493c3.611,7.694.301,16.861-7.395,20.472-7.687,3.611-16.859.305-20.472-7.395l-52.729-112.347c-3.598-7.665-.328-16.797,7.317-20.438l43.918-20.91c3.713-1.768,7.981-1.977,11.85-.577,3.866,1.398,7.013,4.287,8.739,8.021l194.49,421.043c3.565,7.717.199,16.863-7.519,20.427-2.089.965-4.284,1.422-6.445,1.422h0Z" fill="silver"/>
  <path d="M901.637,782.245c-5.796,0-11.349-3.29-13.961-8.892-.589-1.264-59.559-127.781-113.581-242.872-3.61-7.694-.3-16.862,7.395-20.474,7.69-3.604,16.859-.302,20.472,7.394,54.04,115.131,113.028,241.683,113.617,242.947,3.589,7.705.256,16.862-7.45,20.453-2.104.982-4.317,1.444-6.493,1.444h0Z" fill="silver"/>
  <path d="M712.02,177.149h-46.777c-15.425,0-27.976-13.471-27.976-30.029V30.029c0-16.558,12.551-30.029,27.976-30.029h46.777c15.425,0,27.973,13.471,27.973,30.029v117.091c0,16.558-12.548,30.029-27.973,30.029h0ZM668.051,146.365h41.158V30.784h-41.158v115.582h0Z" fill="silver" data-split="true"/>
  <path d="M465.444,902.844c-6.623,0-12.614-4.281-14.661-10.746l-43.387-133.157,26.35-15.294,19.629,54.666,1.452-39.054,30.763,1.145-4.753,127.619c-.277,7.479-5.895,13.674-13.312,14.679-.697.095-1.392.141-2.08.141h-.001Z" fill="silver"/>
  <path d="M907.905,900.753c-.688,0-1.383-.046-2.08-.141-7.416-1.005-13.035-7.2-13.311-14.678l-4.185-112.237c-.319-8.496,6.313-15.638,14.806-15.955,8.55-.365,15.641,6.315,15.954,14.807l.884,23.689,12.987-41.005c2.567-8.1,11.201-12.596,19.321-10.026,8.105,2.566,12.593,11.216,10.026,19.321l-39.739,125.479c-2.047,6.463-8.039,10.746-14.661,10.746h-.002Z" fill="silver"/>
  <path d="M903.699,785.383c-6.698,0-12.858-4.407-14.791-11.168-2.336-8.172,2.396-16.692,10.57-19.028l43.924-12.551c8.168-2.34,16.691,2.396,19.03,10.571,2.336,8.172-2.396,16.692-10.57,19.028l-43.924,12.551c-1.413.404-2.838.597-4.239.597h0Z" fill="silver"/>
  <path d="M682.427,531.915c-8.502,0-15.392-6.892-15.392-15.392v-59.544c0-8.5,6.89-15.392,15.392-15.392s15.392,6.892,15.392,15.392v59.544c0,8.5-6.89,15.392-15.392,15.392Z" fill="silver"/>
  <path d="M684.267,314.915c-6.355,0-12.599-1.04-18.56-3.09-8.039-2.764-12.313-11.523-9.551-19.561,2.763-8.035,11.523-12.325,19.561-9.548,2.733.939,5.61,1.416,8.55,1.416,14.499,0,26.292-11.798,26.292-26.3s-11.794-26.294-26.292-26.294c-10.191,0-19.276,5.706-23.71,14.891-3.695,7.656-12.903,10.866-20.554,7.171-7.654-3.695-10.864-12.897-7.17-20.552,9.47-19.619,29.656-32.295,51.434-32.295,31.472,0,57.076,25.606,57.076,57.078s-25.604,57.083-57.076,57.083h0Z" fill="silver"/>
  <path d="M472.644,1023.994h-.117l-3.123-.029c-8.498-.087-15.32-7.048-15.232-15.548.087-8.446,6.962-15.234,15.389-15.234.054,0,.105,0,.159.002l3.033.026c8.502.063,15.344,7.005,15.281,15.504-.063,8.461-6.941,15.279-15.389,15.279h-.001ZM404.944,1021.963c-.273,0-.547-.007-.823-.021l-3.1-.167c-8.486-.461-14.995-7.717-14.535-16.205.466-8.49,7.798-14.974,16.206-14.534l3.048.164c8.49.448,15.007,7.692,14.562,16.181-.436,8.213-7.23,14.582-15.359,14.582h.001ZM337.406,1016.781c-.529,0-1.058-.027-1.596-.083l-3.087-.32c-8.454-.885-14.592-8.457-13.705-16.91.887-8.454,8.45-14.589,16.91-13.706l3.037.314c8.453.87,14.604,8.431,13.732,16.887-.815,7.92-7.498,13.817-15.29,13.817h0ZM270.238,1007.991c-.821,0-1.656-.066-2.492-.203l-3.078-.503c-8.387-1.387-14.06-9.312-12.674-17.698,1.389-8.386,9.307-14.059,17.701-12.674l2.997.492c8.39,1.365,14.084,9.274,12.72,17.665-1.229,7.553-7.762,12.922-15.172,12.922h-.002ZM203.822,994.667c-1.215,0-2.444-.143-3.674-.445l-3.066-.759c-8.246-2.064-13.257-10.422-11.192-18.668,2.065-8.248,10.429-13.251,18.668-11.192l2.907.72c8.261,2.02,13.315,10.352,11.291,18.608-1.72,7.029-8.008,11.736-14.935,11.736h0ZM139.125,974.677c-1.867,0-3.77-.343-5.616-1.067-1.01-.397-2.011-.794-3.003-1.195-7.882-3.184-11.694-12.152-8.508-20.035,3.181-7.884,12.157-11.685,20.033-8.509l2.718,1.081c7.912,3.104,11.814,12.035,8.709,19.949-2.378,6.068-8.186,9.776-14.333,9.776ZM80.711,941.197c-3.794,0-7.6-1.396-10.573-4.212-.899-.849-1.765-1.7-2.6-2.554-5.955-6.068-5.862-15.813.204-21.767,6.067-5.957,15.813-5.861,21.768.206.574.586,1.169,1.173,1.783,1.754,6.175,5.844,6.445,15.585.601,21.759-3.024,3.199-7.101,4.813-11.183,4.813h0ZM76.358,882.085c-3.661,0-7.335-1.298-10.278-3.938-6.325-5.679-6.848-15.412-1.169-21.737.818-.909,1.665-1.816,2.552-2.721,5.94-6.079,15.689-6.184,21.765-.245,6.079,5.943,6.187,15.69.243,21.767-.574.586-1.125,1.174-1.653,1.765-3.039,3.385-7.239,5.109-11.46,5.109h0ZM133.35,846.5c-6.043,0-11.775-3.58-14.229-9.512-3.25-7.855.484-16.857,8.336-20.107l2.967-1.211c7.885-3.188,16.856.619,20.036,8.498,3.186,7.881-.616,16.853-8.496,20.04l-2.736,1.118c-1.924.797-3.92,1.174-5.88,1.174h.002ZM197.749,825.687c-6.872,0-13.131-4.631-14.905-11.592-2.101-8.238,2.874-16.618,11.111-18.718l3.06-.771c8.249-2.058,16.6,2.956,18.66,11.206,2.059,8.248-2.955,16.602-11.204,18.661l-2.91.735c-1.278.325-2.555.479-3.812.479ZM264.048,811.868c-7.38,0-13.895-5.322-15.157-12.843-1.413-8.383,4.242-16.321,12.626-17.731l3.069-.513c8.385-1.39,16.309,4.28,17.704,12.665,1.389,8.386-4.281,16.312-12.668,17.704l-3,.501c-.866.146-1.726.216-2.574.216h0ZM331.165,802.706c-7.759,0-14.433-5.853-15.283-13.746-.908-8.452,5.207-16.041,13.657-16.951l3.112-.331c8.447-.876,16.023,5.255,16.907,13.711.884,8.454-5.258,16.023-13.711,16.907l-3.012.319c-.559.06-1.115.09-1.668.09h-.002ZM398.691,797.211c-8.099,0-14.881-6.325-15.35-14.513-.487-8.486,5.997-15.76,14.484-16.245l3.121-.175c8.514-.422,15.744,6.047,16.204,14.535.46,8.488-6.049,15.744-14.535,16.204l-3.027.168c-.3.018-.598.026-.896.026h-.001ZM466.406,794.902c-8.417,0-15.287-6.773-15.389-15.211-.099-8.5,6.71-15.472,15.211-15.571l3.103-.033c.054-.002.105-.002.159-.002,8.426,0,15.302,6.787,15.389,15.234.084,8.5-6.734,15.463-15.235,15.548l-3.054.033c-.06.002-.123.002-.183.002h-.001Z" fill="silver"/>
</svg>