<?xml version="1.0" encoding="UTF-8"?>
<svg xmlns="http://www.w3.org/2000/svg" version="1.1" viewBox="0 0 1024 1024">
  <defs>
    <style>
      .cls-1 {
        fill: #ffeb0f;
      }
    </style>
  </defs>
  <!-- Generator: Adobe Illustrator 28.7.8, SVG Export Plug-In . SVG Version: 1.2.0 Build 200)  -->
  <g>
    <g id="Layer_1">
      <path class="cls-1" d="M606.17,326.77c-1.34,2.67-2.09,4.3-2.96,5.87-65.53,119.46-131.07,238.91-196.58,358.37-1.64,2.99-3.05,5.25-7.35,5.23-58.49-.18-116.99-.12-175.49-.13-1.28,0-2.55-.16-4.7-.31,1.02-2.13,1.77-3.91,2.69-5.58,65.2-118.79,130.45-237.54,195.47-356.43,3.02-5.53,6.27-7.2,12.36-7.18,56.28.24,112.56.14,168.84.15,2.19,0,4.38,0,7.72,0Z"/>
      <path class="cls-1" d="M387.02,326.78c-1.16,2.42-1.85,4.07-2.7,5.63-65.74,119.8-131.49,239.59-197.19,359.41-1.55,2.83-3.12,4.41-6.7,4.4-58.7-.12-117.39-.08-176.09-.1-1.23,0-2.45-.23-4.35-.42,1.21-2.39,2.14-4.33,3.17-6.22,51.45-93.77,102.75-187.62,154.46-281.25,17.74-32.12,45.71-53.07,78.56-67.98,20.41-9.26,41.77-13.97,64.36-13.58,26.57.45,53.16.11,79.74.11,1.97,0,3.94,0,6.74,0Z"/>
      <path class="cls-1" d="M436.71,697.29c1.24-2.44,2-4.04,2.85-5.59,65.55-119.47,131.12-238.92,196.58-358.43,2.11-3.84,4.36-5.43,8.93-5.41,57.58.17,115.17.11,172.75.11,1.78,0,3.56,0,6.19,0-1.27,2.62-2.04,4.43-2.98,6.15-51.64,94.08-103.05,188.29-155.07,282.16-19.27,34.77-50.18,56.36-86.38,70.92-17.27,6.94-35.24,10.38-53.97,10.19-27.31-.28-54.63-.08-81.95-.09-1.98,0-3.96,0-6.94,0Z"/>
      <path class="cls-1" d="M839.07,419.12c-.02-51.13,41.24-92.25,92.62-92.32,50.97-.07,92.17,40.98,92.32,91.96.15,51.48-41.21,93.09-92.51,93.1-50.94,0-92.4-41.6-92.42-92.74Z"/>
    </g>
  </g>
</svg>