<?xml version="1.0" encoding="UTF-8"?>
<svg id="Layer_1" xmlns="http://www.w3.org/2000/svg" width="1024" height="1024" version="1.1" viewBox="0 0 1024 1024">
  <!-- Generator: Adobe Illustrator 29.6.1, SVG Export Plug-In . SVG Version: 2.1.1 Build 9)  -->
  <polygon points="68.222 665.432 511.623 409.426 955.035 665.444 511.63 921.447 68.222 665.432" fill="#feefcf"/>
  <polygon points="955.04 767.832 955.035 665.444 511.63 921.447 511.635 1023.836 955.04 767.832" fill="#d44001"/>
  <polygon points="511.635 1023.836 68.22 767.82 68.222 665.432 511.63 921.447 511.635 1023.836" fill="#fe7a01"/>
  <polygon points="68.222 460.637 511.623 204.631 955.035 460.648 511.63 716.652 68.222 460.637" fill="#feefcf"/>
  <polygon points="955.04 563.037 955.035 460.648 511.63 716.652 511.635 819.04 955.04 563.037" fill="#d44001"/>
  <polygon points="511.635 819.04 68.22 563.025 68.222 460.637 511.63 716.652 511.635 819.04" fill="#fe7a01"/>
  <polygon points="68.222 255.841 511.623 -.164 955.035 255.853 511.63 511.856 68.222 255.841" fill="#feefcf"/>
  <polygon points="955.04 358.241 955.035 255.853 511.63 511.856 511.635 614.245 955.04 358.241" fill="#d44001"/>
  <polygon points="511.635 614.245 68.22 358.23 68.222 255.841 511.63 511.856 511.635 614.245" fill="#fe7a01"/>
</svg>