<?xml version="1.0" encoding="UTF-8"?>
<svg 
    id="Layer_1" 
    xmlns="http://www.w3.org/2000/svg" 
    width="1024" height="1024" 
    version="1.1" 
    viewBox="0 0 1024 1024"
>
  <!-- Generator: Adobe Illustrator 29.5.1, SVG Export Plug-In . SVG Version: 2.1.0 Build 141)  -->

  <!-- CBS “eye” → split into rings -->
  <path
    d="M142.596,510.322
       c0,40.043-31.371,72.594-71.416,72.594
       -39.829,0-71.523-32.55-71.523-72.594
       0-39.724,31.693-72.273,71.523-72.273
       40.152,0,71.416,32.549,71.416,72.273
       M4.798,510.322
       c10.065,21.199,33.728,41.971,66.49,41.971
       32.55,0,56.426-20.772,66.491-41.971
       -10.065-20.881-33.942-41.652-66.491-41.652
       -32.764.001-56.427,20.772-66.49,41.652
       M109.618,510.322
       c0,21.411-17.024,38.436-38.331,38.436
       s-38.545-17.025-38.545-38.436
       c0-21.095,17.238-38.333,38.545-38.333
       21.201,0,38.331,17.239,38.331,38.333"
    fill="#e4e9ec"
    fill-rule="evenodd"
    data-split="true"
  />

  <!-- “C” in CBS -->
  <path
    d="M262.01,525.717
       c-2.04,12.904-7.14,26.433-13.642,36.192
       -5.741,8.616-15.581,18.886-29.859,18.886
       -11.825,0-19.603-5.097-24.478-16.047
       -4.352-9.773-6.378-24.414-6.378-46.075
       0-38.661,3.921-78.182,32.997-78.182
       25.576,0,35.862,35.155,40.804,52.049
       l1.897,6.478v-58.391l-1.312.91
       c-3.757,2.601-7.212,3.813-10.874,3.813
       -3.385,0-6.991-1.447-11.165-3.121
       -5.736-2.301-12.239-4.909-20.636-4.909
       -12.208,0-27.522,8.08-39.013,20.585
       -10.034,10.921-21.996,30.07-21.996,59.267
       0,37.739,30.84,67.009,57.37,67.009
       10.684,0,16.994-2.873,22.562-5.407
       4.357-1.983,8.12-3.696,13.199-3.696
       3.349,0,6.387,1.36,10.834,4.853
       l1.353,1.062v-55.146l-1.665-.13h.002Z"
    fill="#e4e9ec"
  />

  <!-- “B” in CBS → keep as one path with holes -->
  <path
    d="M359.939,505.589
       c13.229-3.766,28.898-11.299,28.898-31.03
       0-10.71-5.261-19.742-15.215-26.121
       -9.143-5.858-21.871-9.085-35.837-9.085
       h-64.758v2.85h22.485v136.985h-22.485v2.847
       h67.862c31.946,0,53.409-16.772,53.409-41.736
       0-16.869-11.556-28.538-34.359-34.708
       M342.818,504.025
       h-18.543v-61.821h5.695
       c23.12,0,32.784,4.125,32.784,29.681
       0,27.171-6.714,32.14-19.936,32.14
       M324.274,507.198
       h15.331c13.88,0,27.431,2.655,27.431,34.386
       0,15.734-2.242,25.59-7.057,31.018
       -4.081,4.601-10.17,6.478-21.016,6.478
       h-14.689v-71.882Z"
    fill="#e4e9ec"
    fill-rule="evenodd"
    data-split="false"
  />

  <!-- “S” in CBS -->
  <path
    d="M453.713,495.265
       c-17.174-5.727-33.397-11.136-33.397-30.02
       0-7.507,2.235-24.968,22.933-24.968
       26.232,0,36.852,42.433,36.852,49.487
       l.223,1.617,1.664-.122-.223-54.815
       -1.445,1.575c-2.185,2.384-7.617,5.296-10.839,5.296
       -2.137,0-4.996-1.013-8.307-2.185
       -4.929-1.745-11.062-3.918-18.032-3.918
       -11.335,0-21.613,5.463-28.939,15.383
       -6.338,8.58-10.121,20.153-10.121,30.958
       0,27.161,21.457,34.883,40.386,41.695
       16.673,6.002,32.422,11.669,32.422,29.293
       0,17.986-13.67,26.037-27.217,26.037
       -13.475,0-24.86-8.275-33.837-24.594
       -7.142-12.985-10.029-26.336-10.309-28.476
       l-.964-5.031-1.658.158v57.63l1.359-1.09
       c3.686-2.948,6.571-4.206,9.649-4.206
       3.482,0,7.881,1.606,12.975,3.466
       6.876,2.511,15.433,5.636,24.713,5.636
       9.531,0,20.192-5.118,28.518-13.691
       9.145-9.417,14.183-21.468,14.183-33.936
       -.002-27.642-21.565-34.833-40.59-41.178"
    fill="#e4e9ec"
  />

  <!-- “N” in NEWS -->
  <path
    d="M983.069,494.195
       c-17.174-5.727-33.397-11.137-33.397-30.022
       0-7.506,2.234-24.966,22.932-24.966
       24.5,0,36.747,40.035,36.747,49.485
       l.222,1.618,1.664-.117.113-54.766
       -1.445,1.507c-2.306,2.406-7.709,5.311-10.96,5.311
       -2.145,0-5.029-1.019-8.369-2.196
       -4.935-1.74-11.076-3.906-17.972-3.906
       -11.333,0-21.611,5.463-28.938,15.382
       -6.337,8.58-10.121,20.153-10.121,30.957
       0,27.164,21.457,34.886,40.388,41.698
       16.672,6.001,32.419,11.668,32.419,29.29
       0,17.888-14.163,26.037-27.322,26.037
       -13.475,0-24.86-8.275-33.837-24.593
       -7.139-12.977-10.031-26.336-10.314-28.477
       l-.961-5.031-1.658.158v57.628l1.359-1.087
       c3.687-2.947,6.574-4.204,9.651-4.204
       3.48,0,7.88,1.606,12.974,3.466
       6.876,2.51,15.434,5.633,24.713,5.633
       9.532,0,20.192-5.117,28.519-13.691
       9.146-9.415,14.183-21.466,14.183-33.932
       0-27.645-21.564-34.836-40.589-41.182"
    fill="#e4e9ec"
  />
  
  <!-- “E” in NEWS -->
  <path
    d="M654.929,438.498h-35.869
       c-.844,0-1.479.614-1.479,1.426s.635,1.424,1.479,1.424
       h16.19l.102,89.181-59.918-91.653-.247-.378
       h-45.103c-1.064,0-1.64.735-1.64,1.426s.577,1.424,1.64,1.424
       h16.404v136.66h-16.404c-1.064,0-1.64.735-1.64,1.426
       s.577,1.426,1.64,1.426h35.656c1.063,0,1.639-.733,1.639-1.426
       s-.576-1.426-1.639-1.426h-16.189v-126.441
       l88.974,136.298v-146.519h16.405
       c.842,0,1.478-.611,1.478-1.424s-.637-1.425-1.479-1.425"
    fill="#e4e9ec"
  />

  <!-- “W” in NEWS -->
  <path
    d="M762.265,527.444
       c-.364,0-1.211.2-1.211,2.042
       0,7.039-3.583,19.344-11.447,29.728
       -6.53,8.624-18.244,18.901-36.969,18.901
       h-14.69v-66.744h.771
       c10.353,0,16.713,5.019,20.224,9.228
       4.762,5.708,6.458,12.371,6.458,16.702
       0,.646,0,2.363,1.157,2.363s1.157-1.717,1.157-2.363
       v-55.353c0-.564,0-2.282-1.157-2.282s-1.157,1.719-1.157,2.282
       c0,4.375-1.697,11.1-6.46,16.852-3.51,4.24-9.868,9.295-20.222,9.295
       h-.771v-66.641h9.122
       c29.703,0,47.881,31.347,47.881,48.416
       0,1.79,1.01,1.88,1.212,1.88s1.211-.09,1.211-1.88
       v-51.372h-109.619c-1.065,0-1.641.734-1.641,1.425
       s.577,1.425,1.641,1.425h21.647v136.555h-21.647
       c-.829,0-1.467.531-1.551,1.291-.077.702.368,1.53,1.367,1.754
       l115.907.02v-51.482c0-1.844-.847-2.043-1.211-2.043"
    fill="#e4e9ec"
  />

  <!-- “S” in NEWS -->
  <path
    d="M944.554,438.498
       h-35.547c-1.064,0-1.639.735-1.639,1.426s.575,1.424,1.639,1.424
       h16.651l-26.625,89.127-27.754-89.127h14.066
       c.843,0,1.48-.611,1.48-1.424s-.637-1.426-1.48-1.426
       h-60.282c-1.064,0-1.639.735-1.639,1.426s.575,1.424,1.639,1.424
       h14.054l11.198,35.893-16.051,53.237-27.553-89.13h11.93
       c1.064,0,1.638-.734,1.638-1.424s-.574-1.426-1.638-1.426
       h-60.068c-1.064,0-1.638.735-1.638,1.426s.574,1.424,1.638,1.424
       h16.09l45.704,146.89,31.696-105.474,33.09,105.478,43.645-146.894
       h15.758c1.065,0,1.641-.734,1.641-1.424s-.577-1.426-1.642-1.426"
    fill="#e4e9ec"
  />

</svg>
