<?xml version="1.0" encoding="UTF-8"?>
<svg id="Layer_1" xmlns="http://www.w3.org/2000/svg" width="1024" height="1024" version="1.1" viewBox="0 0 1024 1024">
  <!-- Generator: Adobe Illustrator 29.5.1, SVG Export Plug-In . SVG Version: 2.1.0 Build 141)  -->
  <path d="M699.887,567.535c-25.254,74.996-100.541,129.407-187.552,129.407s-162.059-54.41-187.239-129.406h-1.733c23.448,82.3,99.15,142.594,188.972,142.594s165.539-60.294,188.972-142.594h-1.42Z" fill="#fff" />
  <path d="M512.335,324.655c87.907,0,163.675,55.634,188.179,131.817h.641c-23.462-82.278-99.005-142.601-188.819-142.601s-165.525,60.294-188.972,142.601h.932c24.38-76.227,100.097-131.817,188.04-131.817" fill="#fff" />
  <g id="path3865">
    <path d="M415.378,486.656c0-.983-.328-1.77-3.095-1.988v-1.325h22.763v1.325c-2.76.218-3.102,1.005-3.102,1.988v29.594c0,19.428-13.573,25.858-30.482,25.858s-30.475-6.43-30.475-25.858v-29.594c0-.983-.328-1.769-3.095-1.988v-1.325h22.763v1.325c-2.774.218-3.102,1.005-3.102,1.988v29.594c0,8.513,5.075,11.935,13.908,11.935s13.916-3.422,13.916-11.935v-29.594Z" fill="#fff" />
  </g>
  <g id="path3869">
    <path d="M517.499,537.192c0,1.842,1.566,2.236,3.67,2.359v1.58h-24.3v-1.58c1.311,0,3.801-.124,3.801-1.711,0-3.015-16.814-17.986-31.662-35.346l-.262.262v34.436c0,1.842,1.58,2.236,3.415,2.359v1.58h-22.472v-1.58c1.711-.124,3.291-.517,3.291-2.359v-49.939c0-1.828-1.58-2.243-3.546-2.367v-1.566h31.261v1.566c-1.18.124-2.753.539-2.753,2.367,0,.932,12.743,13.945,23.783,25.887v-25.887c0-1.828-1.573-2.243-3.677-2.367v-1.566h23.12v1.566c-2.104.124-3.67.539-3.67,2.367v49.939Z" fill="#fff" />
  </g>
  <g id="path3873">
    <path d="M566.623,483.32v1.566c-2.636.124-4.194.539-4.194,2.367v49.939c0,1.842,1.558,2.236,4.194,2.359v1.573h-26.004v-1.573c2.621-.124,4.187-.517,4.187-2.359v-49.939c0-1.828-1.566-2.243-4.187-2.367v-1.566h26.004Z" fill="#fff" />
  </g>
  <g id="path3877">
    <path d="M581.087,483.32h24.817v1.566c-1.049,0-3.277,0-3.277,1.325,0,1.449,10.923,29.564,11.84,33.511h.24c4.595-11.17,13.668-32.346,13.668-33.511,0-1.325-2.221-1.325-3-1.325v-1.566h21.926v1.566c-1.449.124-2.367.539-2.738,1.842-1.726,5.527-20.382,49.684-20.382,50.718,0,1.435,1.566,2.243,2.76,2.104v1.573h-27.722v-1.573c1.187.138,2.745-.67,2.745-2.104,0-.532-16.821-50.718-18.642-51.883-1.07-.677-1.595-.677-2.236-.677v-1.566Z" fill="#fff" />
  </g>
  <g id="path3881">
    <path d="M715.091,529.281c1.566,0,2.898-.918,3.43-3.299h1.587v17.608h-1.34c-.903-2.374-1.573-2.76-3.677-2.76h-58.612v-1.558c1.85-.138,3.692-.532,3.692-2.374v-49.925c0-1.842-1.842-2.236-3.692-2.374v-1.58h59.668c1.049,0,2.374-.502,2.374-2.891h1.587v17.615h-1.587c0-2.621-1.325-3.153-2.374-3.153h-38.376v10.639h24.715c1.041,0,2.374-.51,2.374-3.022h1.573v17.098h-1.573c0-2.52-1.333-3.029-2.374-3.029h-24.715v13.005h37.32Z" fill="#fff" />
  </g>
  <g id="path3889">
    <path d="M815.615,521.223l1.711.786c0,.4-.131.765-.131,1.42,0,3.415,15.117,6.845,25.778,6.845,3.248,0,11.935-.524,11.935-5.643,0-10.267-42.985-.284-42.985-22.334,0-8.163,7.777-19.603,29.171-19.603,12.496,0,23.258,3.437,26.149,3.437,1.478,0,2.228-1.056,2.898-1.587l1.456.532-7.894,16.559-1.697-.786c0-.393.124-.918.124-1.464,0-1.296-9.314-4.835-18.154-4.835-3.262,0-14.935,0-14.935,5.767,0,9.321,42.934-.277,42.934,22.603,0,10.26-8.775,19.188-28.902,19.188-12.598,0-27.314-4.719-28.37-4.719-1.18,0-2.104.888-3.029,1.842l-1.427-.422,5.367-17.586Z" fill="#fff" />
  </g>
  <g id="path3897">
    <path d="M966.466,486.919c0-1.813-1.573-2.228-3.546-2.352v-1.58h24.591v1.58c-1.871.124-3.444.539-3.444,2.352v40.487h36.002c1.085,0,2.359-.517,2.359-3.299h1.573v19.982h-1.573c0-2.767-1.274-3.299-2.359-3.299h-57.148v-1.558c1.974-.117,3.546-.524,3.546-2.359v-49.954Z" fill="#fff" />
  </g>
  <g id="path3901">
    <path d="M3.073,486.567c0-.969-.328-1.755-3.073-1.973v-1.318h26.462v1.318c-2.527.109-3.073.765-3.073,1.413,0,1.231,18.998,21.409,26.674,29.87v-29.31c0-1.311-.888-1.864-2.316-1.973v-1.318h20.105v1.318c-2.745.218-3.073,1.005-3.073,1.973v51.163c0,.99.328,1.762,3.073,1.973v1.318h-20.863v-1.318c1.981,0,2.534-.43,2.534-1.194,0-1.449-2.753-2.884-31.735-35.252v34.472c0,.99.328,1.762,3.066,1.973v1.318H0v-1.318c2.745-.211,3.073-.983,3.073-1.973v-51.163Z" fill="#fff" />
  </g>
  <g id="path3909">
    <path d="M211.318,504.562l-1.114-.75c.109-.451.24-.874.24-1.66,0-2.221-8.469-5.046-17.79-5.046-8.898,0-20.426,3.852-20.426,15.023s11.527,15.066,20.426,15.066c3.838,0,18.43-2.993,18.43-6.153,0-.67-.437-1.107-.641-1.653l1.187-.779,11.316,17.251-1.325.765c-.328-.765-.75-.874-1.522-.874-2.206,0-12.423,5.942-28.763,5.942-17.586,0-36.235-9.889-36.235-29.564s18.649-29.528,36.235-29.528c8.767,0,15.037,1.107,19.421,2.323,4.289,1.209,6.481,2.09,7.58,2.09.655,0,1.216-.342,1.66-.881l1.194.335-9.874,18.096Z" fill="#fff" />
  </g>
  <path id="path3913" d="M337.631,514.066c6.372,1.194,11.192,6.787,11.192,13.501,0,7.26-5.644,13.202-12.794,13.69l-78.426.051c-7.58,0-13.726-6.139-13.726-13.726,0-6.823,4.974-12.474,11.498-13.53-2.469-2.498-3.99-5.913-3.99-9.685,0-7.58,6.146-13.726,13.748-13.726,2.119,0,4.129.488,5.935,1.354-.058-.488-.08-.99-.08-1.486,0-7.588,6.139-13.734,13.726-13.734,4.988,0,9.343,2.665,11.768,6.641,2.381-3.99,6.75-6.656,11.746-6.656,7.58,0,13.734,6.153,13.734,13.734,0,.539-.029,1.07-.102,1.602,1.813-.881,3.845-1.376,5.993-1.376,7.588,0,13.726,6.146,13.726,13.726,0,3.743-1.515,7.151-3.947,9.619" fill="#fff" />
  <path id="path3917" d="M303.217,491.157c-.583.757-4.194,2.003-4.391,3.91-.189,3.051,4.391,31.596,4.391,31.596,0,0,6.976-15.649,10.216-22.53,3.918-8.403,5.818-11.265,4.777-15.554-1.056-6.117-6.394-8.877-11.178-8.403-5.338.852-9.066,4.959-9.066,10.406h4.107s1.049.102,1.143.575" fill="#5f53ae" fill-rule="evenodd" />
  <path id="path3921" d="M334.054,496.305c-3.626-2.665-12.314-4.1-16.035,4.682l-14.804,32.747,29.98-20.331c8.301-6.219,4.588-14.229.859-17.098" fill="#3e87cf" fill-rule="evenodd" />
  <path id="path3925" d="M294.917,491.633c1.245-7.733-6.306-11.935-11.469-11.454-4.384.845-11.258,5.534-8.593,13.741l14.608,33.038,5.454-35.324Z" fill="#cb1847" fill-rule="evenodd" />
  <path id="path3929" d="M259.112,538.119h31.407l-27.496-19.181c-6.779-4.304-13.93.466-15.27,5.432-1.726,5.658.459,13.362,11.36,13.748" fill="#f9b10c" fill-rule="evenodd" />
  <path id="path3933" d="M258.825,512.64l30.642,21.088s-12.692-28.545-15.175-34.072c-3.248-6.787-11.556-6.495-15.467-3.546-4.58,3.444-6.204,11.469,0,16.53" fill="#f35d1b" fill-rule="evenodd" />
  <path id="path3937" d="M302.071,538.119s29.31.087,33.409-.087c8.112-.386,10.413-8.003,9.932-11.651-1.245-5.92-7.158-12.314-16.042-7.063l-27.3,18.802Z" fill="#34b43f" fill-rule="evenodd" />
  <path d="M85.023,486.567c0-.969-.335-1.755-3.08-1.973v-1.318h41.827c11.848,0,20.528,4.384,20.528,15.263,0,6.576-4.391,10.632-10.544,11.971v.204c7.362,1.995,12.736,5.927,12.736,14.061,0,8.775-6.583,16.246-22.173,16.246h-42.373v-1.318c2.745-.211,3.08-.983,3.08-1.973v-51.163ZM101.487,505.004h14.935c9.416,0,11.855-.641,11.855-5.075,0-4.376-2.439-5.025-11.855-5.025h-14.935v10.1ZM101.487,529.369h18.663c7.682,0,10.755-1.74,10.755-6.576,0-4.806-3.073-6.597-10.755-6.597h-18.663v13.173Z" fill="#fff" data-split="true"/>
  <path d="M737.015,486.759c0-1.835-1.566-2.228-2.891-2.359v-1.587h42.184c12.896,0,21.562,6.313,21.562,18.278,0,9.452-6.444,14.593-14.6,17.746l11.695,17.586c.939,1.456,2.745,2.643,4.602,2.43v1.558h-26.535v-1.558c1.172,0,3.16-.408,3.16-1.704,0-1.726-8.95-16.027-9.998-18.248h-12.62v17.593c0,1.835,1.588,2.221,3.43,2.359v1.558h-22.596v-1.558c1.041-.138,2.607-.524,2.607-2.359v-49.946ZM753.574,508.051h18.693c5.491,0,9.044-2.345,9.044-7.1,0-4.071-2.25-7.078-9.998-7.078h-17.739v14.178Z" fill="#fff" data-split="true"/>
  <path d="M931.969,541.128v-1.573c.51,0,1.689,0,1.689-1.18,0-1.464-2.876-6.568-3.808-8.949h-30.497c-.764,2.381-3.801,7.486-3.801,8.949,0,1.18,1.172,1.18,1.711,1.18v1.573h-19.712v-1.573c1.056,0,2.236-.393,2.636-1.311,10.508-24.569,22.712-50.201,22.712-52.029,0-.932-.386-1.202-1.682-1.325v-1.566h27.438v1.566c-1.296.124-1.697.393-1.697,1.325,0,1.573,18.401,38.478,24.168,52.029.415.918,1.587,1.311,2.622,1.311v1.573h-21.78ZM925.386,519.974l-11.039-22.982-10.763,22.982h21.802Z" fill="#fff" data-split="true"/>
</svg>