<?xml version="1.0" encoding="UTF-8"?>
<svg id="Layer_1" xmlns="http://www.w3.org/2000/svg" width="1024" height="1024" version="1.1" viewBox="0 0 1024 1024">
  <!-- Generator: Adobe Illustrator 29.5.1, SVG Export Plug-In . SVG Version: 2.1.0 Build 141)  -->
  <path d="M79.413,414.619v-.836c15.047-4.18,25.913-15.882,25.913-32.601,0-27.585-23.406-38.452-45.976-38.452H0v151.301h54.335c29.257,0,57.678-10.031,57.678-43.468,0-18.39-14.211-34.273-32.601-35.944ZM26.75,366.135h22.57c20.062,0,29.257,5.851,29.257,19.226,0,11.703-9.195,19.226-26.749,19.226h-24.242l-.836-38.452h0ZM51.827,470.625h-24.242v-43.468h25.078c21.734,0,32.601,5.851,32.601,21.734,0,20.062-19.226,21.734-33.437,21.734h0Z" fill="#fff"/>
  <path d="M228.206,388.705c-30.929,0-56.007,21.734-56.007,54.335,0,31.765,25.078,53.499,56.007,53.499s55.171-21.734,55.171-53.499c0-32.601-24.242-54.335-55.171-54.335h0ZM228.206,473.133c-12.539.836-24.242-6.687-29.257-18.39-5.016-10.867-2.508-24.242,6.687-33.437,8.359-9.195,21.734-11.703,33.437-6.687,11.703,4.18,19.226,15.882,19.226,28.421,0,7.523-3.344,15.882-8.359,21.734-5.851,5.851-14.211,9.195-21.734,8.359Z" fill="#fff"/>
  <path d="M351.086,388.705c-30.929,0-56.007,21.734-56.007,54.335,0,31.765,25.078,53.499,56.007,53.499s55.171-21.734,55.171-53.499c0-32.601-24.242-54.335-55.171-54.335ZM351.086,473.133c-12.539.836-24.242-6.687-29.257-18.39-5.015-10.867-2.508-24.242,6.687-33.437,8.359-9.195,21.734-11.703,33.437-6.687,11.703,4.18,19.226,15.882,19.226,28.421,0,7.523-3.344,15.882-8.359,21.734-5.851,5.851-14.211,9.195-21.734,8.359h0Z" fill="#fff"/>
  <path d="M580.964,433.009v61.022h-25.913v-58.514c0-12.539-3.344-23.406-18.39-23.406-15.882,0-22.57,12.539-22.57,25.913v56.007h-25.078v-61.022c0-12.539-5.015-20.898-17.554-20.898-16.718,0-23.406,12.539-23.406,25.913v56.007h-25.913v-102.818h24.242v16.718h.836c5.851-12.539,18.39-20.062,30.929-19.226,15.882,0,26.749,6.687,32.601,19.226,6.687-12.539,19.226-20.062,33.437-19.226,27.585,0,36.78,20.062,36.78,44.304h0Z" fill="#fff"/>
  <path d="M662.884,388.705c-13.375,0-25.913,5.851-34.273,15.882h-.836v-65.202h-25.914v154.645h24.242v-15.047h.836c7.523,11.703,20.898,18.39,35.109,17.554,30.929,0,50.155-23.406,50.155-53.499,0-30.929-20.062-54.335-49.319-54.335v.002h0ZM656.196,473.133c-12.539.836-23.406-6.687-28.421-18.39-5.015-11.703-2.508-25.078,6.687-33.437,8.359-9.195,21.734-11.703,33.437-6.687,11.703,4.18,19.226,15.882,19.226,28.421,0,7.523-3.344,15.882-9.195,21.734-5.015,5.851-13.375,9.195-20.898,8.359h-.836Z" fill="#fff"/>
  <path d="M779.912,388.705c-30.929,0-56.007,21.734-56.007,54.335,0,31.765,25.078,53.499,56.007,53.499,16.718.836,32.601-6.687,43.468-20.062l-18.39-14.211c-6.687,9.195-16.718,14.211-27.585,14.211-14.211,0-26.749-10.867-27.585-25.078h77.74v-6.687c0-35.944-19.226-56.007-47.647-56.007h0ZM749.819,432.173c1.672-14.211,10.867-24.242,25.913-24.242,16.718,0,25.913,9.195,26.749,24.242h-52.663,0Z" fill="#fff"/>
  <path d="M901.121,388.705c2.508,0,5.851.836,9.195,1.672v25.078c-4.18-1.672-8.359-1.672-12.539-2.508-7.523,0-14.211,2.508-19.226,7.523-5.851,5.016-8.359,11.703-8.359,18.39v55.171h-25.913v-102.818h25.913v16.718c5.851-11.703,17.554-19.226,30.929-19.226Z" fill="#fff"/>
  <path d="M999.759,391.213v15.882h-.836c-7.523-11.703-20.898-19.226-35.109-18.39-31.765,0-50.155,23.406-50.155,54.335,0,28.421,20.062,51.827,50.991,51.827,12.539.836,25.078-5.016,33.437-14.211v6.687c0,20.898-7.523,35.109-31.765,35.109-13.375,0-25.913-5.851-35.945-15.047l-15.047,20.898c14.211,12.539,31.765,16.718,50.991,16.718,40.124,0,57.678-23.406,57.678-60.186v-93.623h-24.242.002,0ZM969.666,472.297c-8.359,0-15.882-3.344-21.734-8.359-5.851-5.851-8.359-13.375-8.359-21.734-.836-7.523,2.508-15.882,8.359-21.734,5.851-5.851,13.375-8.359,21.734-8.359,8.359-.836,15.882,2.508,21.734,8.359,5.851,5.851,9.195,13.375,8.359,21.734.836,8.359-2.508,15.882-8.359,21.734-5.851,5.851-13.375,9.195-21.734,8.359Z" fill="#fff"/>
  <rect x="129.568" y="339.386" width="25.913" height="154.645" fill="#fff"/>
  <polygon points="46.719 553.035 2.164 553.035 2.164 529.385 117.146 529.385 117.146 553.035 72.59 553.035 72.59 681.605 46.719 681.605 46.719 553.035" fill="none" stroke="#f7a12a" stroke-miterlimit="10" stroke-width="2"/>
  <path d="M207.078,631.296v3.439c0,1.149-.071,2.295-.206,3.44h-74.943c.272,3.729,1.197,7.132,2.772,10.212,1.572,3.084,3.661,5.734,6.262,7.955,2.599,2.224,5.544,3.978,8.829,5.268s6.705,1.936,10.266,1.936c6.16,0,11.36-1.183,15.605-3.548,4.241-2.365,7.731-5.624,10.471-9.782l16.426,13.76c-9.721,13.76-23.818,20.64-42.297,20.64-7.668,0-14.716-1.256-21.148-3.763-6.436-2.506-12.012-6.053-16.734-10.642-4.722-4.586-8.418-10.213-11.087-16.878-2.669-6.665-4.004-14.224-4.004-22.683,0-8.311,1.335-15.873,4.004-22.683,2.669-6.806,6.33-12.611,10.985-17.415,4.652-4.801,10.164-8.525,16.529-11.18,6.365-2.65,13.243-3.978,20.635-3.978,6.843,0,13.173,1.183,18.992,3.548,5.817,2.364,10.847,5.879,15.092,10.534,4.241,4.66,7.562,10.465,9.958,17.415,2.394,6.954,3.593,15.087,3.593,24.403ZM182.439,619.685c0-3.296-.446-6.45-1.334-9.46-.892-3.01-2.294-5.661-4.209-7.955-1.918-2.291-4.347-4.118-7.289-5.482-2.945-1.36-6.4-2.043-10.369-2.043-7.392,0-13.654,2.332-18.787,6.988-5.133,4.659-7.976,10.642-8.521,17.952h50.51Z" fill="#f7a12a" data-split="true"/>
  <path d="M230.894,578.405h23.613v17.2h.411c2.736-6.02,6.57-10.891,11.498-14.62,4.928-3.726,10.677-5.59,17.247-5.59.956,0,1.983.037,3.08.107,1.094.074,2.053.252,2.875.537v23.65c-1.643-.43-3.048-.716-4.209-.86-1.165-.141-2.294-.215-3.388-.215-5.614,0-10.131,1.075-13.551,3.226-3.423,2.149-6.092,4.729-8.008,7.739-1.918,3.011-3.218,6.095-3.901,9.245-.687,3.154-1.027,5.664-1.027,7.525v55.255h-24.639v-103.2Z" fill="#f7a12a"/>
  <path d="M423.283,575.395c6.433,0,11.941,1.183,16.528,3.548,4.585,2.364,8.348,5.482,11.293,9.353,2.942,3.869,5.098,8.314,6.468,13.329,1.367,5.02,2.054,10.18,2.054,15.48v64.5h-24.64v-57.19c0-3.01-.205-6.161-.615-9.46-.411-3.295-1.303-6.269-2.67-8.922-1.369-2.65-3.253-4.838-5.646-6.558-2.396-1.72-5.579-2.58-9.547-2.58-3.834,0-7.119.86-9.855,2.58-2.74,1.72-4.999,3.943-6.776,6.665-1.78,2.725-3.08,5.771-3.901,9.138-.821,3.369-1.231,6.701-1.231,9.997v56.33h-24.639v-62.35c0-6.45-1.473-11.788-4.415-16.018-2.945-4.227-7.565-6.343-13.859-6.343-3.696,0-6.914.826-9.65,2.473-2.74,1.649-4.963,3.763-6.673,6.343-1.713,2.579-3.013,5.556-3.901,8.922-.892,3.369-1.334,6.772-1.334,10.213v56.76h-24.639v-103.2h23.407v16.556h.411c1.094-2.58,2.566-5.016,4.415-7.311,1.848-2.291,4.036-4.37,6.57-6.235,2.531-1.86,5.441-3.332,8.727-4.407s6.91-1.612,10.882-1.612c7.665,0,14.03,1.794,19.095,5.375,5.063,3.584,8.964,8.314,11.704,14.19,3.285-6.306,7.664-11.144,13.141-14.513,5.474-3.366,11.909-5.053,19.301-5.053Z" fill="#f7a12a"/>
  <path d="M485.291,543.36c0-4.155,1.47-7.773,4.415-10.857,2.941-3.08,6.673-4.622,11.19-4.622s8.315,1.471,11.396,4.407c3.08,2.939,4.62,6.631,4.62,11.072s-1.54,8.137-4.62,11.072c-3.08,2.939-6.879,4.408-11.396,4.408s-8.249-1.539-11.19-4.623c-2.945-3.08-4.415-6.698-4.415-10.857Z" fill="#f7a12a"/>
  <rect x="488.782" y="578.405" width="24.639" height="103.2" fill="#f7a12a"/>
  <path d="M485.291,543.36c0-4.155,1.47-7.773,4.415-10.857,2.941-3.08,6.673-4.622,11.19-4.622s8.315,1.471,11.396,4.407c3.08,2.939,4.62,6.631,4.62,11.072s-1.54,8.137-4.62,11.072c-3.08,2.939-6.879,4.408-11.396,4.408s-8.249-1.539-11.19-4.623c-2.945-3.08-4.415-6.698-4.415-10.857ZM488.782,578.405h24.639v103.2h-24.639v-103.2Z" fill="none" stroke="#f7a12a" stroke-miterlimit="10" stroke-width="2"/>
  <path d="M543.397,578.405h23.407v16.556h.411c2.188-5.16,5.986-9.709,11.396-13.653,5.405-3.94,11.806-5.912,19.197-5.912,6.433,0,11.941,1.183,16.529,3.548,4.584,2.364,8.348,5.482,11.292,9.353,2.942,3.869,5.099,8.314,6.468,13.329,1.367,5.02,2.054,10.18,2.054,15.48v64.5h-24.639v-57.19c0-3.01-.206-6.161-.616-9.46-.411-3.295-1.303-6.269-2.669-8.922-1.37-2.65-3.254-4.838-5.646-6.558-2.396-1.72-5.579-2.58-9.548-2.58s-7.392.826-10.267,2.473c-2.874,1.649-5.235,3.763-7.084,6.343-1.848,2.579-3.253,5.556-4.209,8.922-.959,3.369-1.437,6.772-1.437,10.213v56.76h-24.64v-103.2Z" fill="#f7a12a"/>
  <path d="M543.397,578.405h23.407v16.556h.411c2.188-5.16,5.986-9.709,11.396-13.653,5.405-3.94,11.806-5.912,19.197-5.912,6.433,0,11.941,1.183,16.529,3.548,4.584,2.364,8.348,5.482,11.292,9.353,2.942,3.869,5.099,8.314,6.468,13.329,1.367,5.02,2.054,10.18,2.054,15.48v64.5h-24.639v-57.19c0-3.01-.206-6.161-.616-9.46-.411-3.295-1.303-6.269-2.669-8.922-1.37-2.65-3.254-4.838-5.646-6.558-2.396-1.72-5.579-2.58-9.548-2.58s-7.392.826-10.267,2.473c-2.874,1.649-5.235,3.763-7.084,6.343-1.848,2.579-3.253,5.556-4.209,8.922-.959,3.369-1.437,6.772-1.437,10.213v56.76h-24.64v-103.2Z" fill="none" stroke="#f7a12a" stroke-miterlimit="10" stroke-width="2"/>
  <path d="M724.08,668.49h-.616c-2.464,4.589-6.436,8.352-11.909,11.288-5.477,2.936-11.703,4.407-18.685,4.407-3.972,0-8.11-.537-12.422-1.612s-8.284-2.866-11.909-5.375c-3.628-2.507-6.641-5.806-9.034-9.891-2.396-4.085-3.593-9.137-3.593-15.157,0-7.74,2.085-13.901,6.262-18.49,4.174-4.585,9.548-8.096,16.118-10.535,6.57-2.436,13.859-4.048,21.867-4.837,8.008-.786,15.842-1.183,23.51-1.183v-2.58c0-6.45-2.227-11.214-6.673-14.298-4.45-3.08-9.753-4.622-15.913-4.622-5.203,0-10.198,1.148-14.988,3.44-4.793,2.294-8.762,5.089-11.909,8.385l-12.73-15.695c5.611-5.445,12.079-9.53,19.403-12.255,7.321-2.721,14.748-4.085,22.278-4.085,8.758,0,15.979,1.29,21.661,3.87,5.679,2.58,10.164,5.949,13.449,10.104,3.285,4.159,5.576,8.815,6.878,13.976,1.3,5.16,1.951,10.319,1.951,15.479v62.78h-22.996v-13.115ZM723.669,634.52h-5.544c-3.972,0-8.146.182-12.524.537-4.383.359-8.419,1.149-12.114,2.365-3.696,1.22-6.775,2.939-9.24,5.16-2.464,2.224-3.695,5.268-3.695,9.138,0,2.438.514,4.481,1.54,6.127,1.026,1.649,2.361,2.977,4.004,3.978,1.643,1.005,3.49,1.721,5.544,2.15,2.053.43,4.106.645,6.159.645,8.486,0,14.918-2.364,19.301-7.095,4.379-4.729,6.57-11.18,6.57-19.35v-3.655Z" fill="#f7a12a" data-split="true"/>
  <path d="M724.08,668.49h-.616c-2.464,4.589-6.436,8.352-11.909,11.288-5.477,2.936-11.703,4.407-18.685,4.407-3.972,0-8.11-.537-12.422-1.612s-8.284-2.866-11.909-5.375c-3.628-2.507-6.641-5.806-9.034-9.891-2.396-4.085-3.593-9.137-3.593-15.157,0-7.74,2.085-13.901,6.262-18.49,4.174-4.585,9.548-8.096,16.118-10.535,6.57-2.436,13.859-4.048,21.867-4.837,8.008-.786,15.842-1.183,23.51-1.183v-2.58c0-6.45-2.227-11.214-6.673-14.298-4.45-3.08-9.753-4.622-15.913-4.622-5.203,0-10.198,1.148-14.988,3.44-4.793,2.294-8.762,5.089-11.909,8.385l-12.73-15.695c5.611-5.445,12.079-9.53,19.403-12.255,7.321-2.721,14.748-4.085,22.278-4.085,8.758,0,15.979,1.29,21.661,3.87,5.679,2.58,10.164,5.949,13.449,10.104,3.285,4.159,5.576,8.815,6.878,13.976,1.3,5.16,1.951,10.319,1.951,15.479v62.78h-22.996v-13.115ZM723.669,634.52h-5.544c-3.972,0-8.146.182-12.524.537-4.383.359-8.419,1.149-12.114,2.365-3.696,1.22-6.775,2.939-9.24,5.16-2.464,2.224-3.695,5.268-3.695,9.138,0,2.438.514,4.481,1.54,6.127,1.026,1.649,2.361,2.977,4.004,3.978,1.643,1.005,3.49,1.721,5.544,2.15,2.053.43,4.106.645,6.159.645,8.486,0,14.918-2.364,19.301-7.095,4.379-4.729,6.57-11.18,6.57-19.35v-3.655Z" fill="none" stroke="#f7a12a" stroke-miterlimit="10" stroke-width="2" data-split="true"/>
  <rect x="776.23" y="519.065" width="24.639" height="162.54" fill="#f7a12a" />
  <rect x="776.23" y="519.065" width="24.639" height="162.54" fill="none" stroke="#f7a12a" stroke-miterlimit="10" stroke-width="2" />
</svg>