<?xml version="1.0" encoding="UTF-8"?>
<svg id="Layer_1" xmlns="http://www.w3.org/2000/svg" width="1024" height="1024" version="1.1" viewBox="0 0 1024 1024">
  <!-- Generator: Adobe Illustrator 29.5.1, SVG Export Plug-In . SVG Version: 2.1.0 Build 141)  -->
  <polygon points="132.966 550.853 199.57 589.304 199.57 512.393 132.966 550.853" fill="#86d3e4"/>
  <polygon points="-.25 550.853 66.357 589.304 66.357 512.393 -.25 550.853" fill="#0080b2"/>
  <polygon points="132.966 550.853 199.57 512.395 199.57 435.474 66.357 512.395 132.966 550.853" fill="#00b0d3"/>
  <polygon points="266.177 550.853 199.57 512.395 266.177 473.937 266.177 550.853" fill="#0080b2"/>
  <polygon points="199.57 589.304 266.178 550.852 199.57 512.394 199.57 589.304" fill="#00b0d3"/>
  <polyline points="66.357 512.387 66.357 435.48 -.25 473.934 -.25 550.853" fill="#00b0d3"/>
  <polygon points="66.357 512.394 132.966 473.935 66.357 435.48 66.357 512.394" fill="#004280"/>
  <polygon points="66.357 589.304 132.966 550.852 66.357 512.394 66.357 589.304" fill="#86d3e4"/>
  <polygon points="199.57 512.394 266.177 473.935 199.57 435.48 199.57 512.394" fill="#004280"/>
  <path d="M723.095,522.667c22.567-2.627,38.72-17.684,38.72-40.184,0-13.647-10.053-36.979-44.848-36.979h-54.664v133.768h21.674v-116.649h27.722c19.295,0,28.201,9.368,28.201,22.252s-9.867,22.204-31.012,22.204h-23.202l57.632,72.193h26.69l-46.911-56.604h-.002,0Z" fill="#00b0d3"/>
  <path d="M564.853,445.513l-53.745,133.757h22.261l14.358-37.294h56.257l14.363,37.294h22.943l-52.787-133.757h-23.652.002ZM576.544,469.822l20.98,54.661h-42.857l21.172-54.661h.705Z" fill="#00b0d3" fill-rule="evenodd"/>
  <polygon points="416.075 549.938 373.869 445.525 343.348 445.525 343.348 579.27 363.993 579.27 363.993 474.778 364.455 474.778 406.362 579.27 424.739 579.27 468.624 473.957 469.064 473.957 469.064 579.27 490.053 579.27 490.053 445.525 459.959 445.525 416.746 549.938 416.075 549.938" fill="#00b0d3"/>
  <path d="M785.871,566.288c5.262,3.945,22.52,15.436,49.287,15.436,28.624,0,48.535-14.053,48.535-37.821.042-23.156-22.298-33.436-41.29-42.317-15.005-6.978-29.055-12.054-29.055-23.303,0-10.843,8.785-17.776,23.884-17.776,20.073,0,31.063,8.556,35.708,11.203l9.527-16.404c-6.355-3.478-20.211-12.294-44.696-12.294-28.571,0-47.109,14.295-47.109,35.922,0,22.286,21.762,31.844,39.876,40.122,17.158,7.892,30.293,13.895,30.293,26.06,0,12.353-10.649,19.148-26.316,19.148-20.357,0-35.574-11.927-38.097-13.652l-10.549,15.676h.002Z" fill="#00b0d3"/>
  <polygon points="1002.07 445.507 1002.07 500.114 931.83 500.114 931.83 445.507 910.158 445.507 910.158 579.271 931.83 579.271 931.83 517.625 1002.07 517.625 1002.07 579.271 1023.749 579.271 1023.749 445.507 1002.07 445.507" fill="#00b0d3"/>
</svg>