<?xml version="1.0" encoding="UTF-8"?>
<svg id="Layer_1" xmlns="http://www.w3.org/2000/svg" width="1024" height="1024" version="1.1" viewBox="0 0 1024 1024">
  <!-- Generator: Adobe Illustrator 29.5.1, SVG Export Plug-In . SVG Version: 2.1.0 Build 141)  -->
  <rect y="381.568" width="1024" height="256" fill="#a2252e"/>
  <g>
    <path d="M899.687,538.52c1.545,6.8,11.201,32.798,37.975,32.961,7.397-.018,14.319-3.676,18.546-9.799,1.619-3.445,7.948-16.377-1.766-26.725-9.817-10.987-36.223-25.36-45.04-31.18-8.14-4.929-14.851-13.853-15.013-29.398-.221-11.299,10.833-31.996,36.208-32.071,6.906.191,13.748,1.392,20.312,3.563,4.195,2.004,11.333,2.42,14.13-1.782,1.81-2.153,4.107-1.93,4.416,0v38.307c-.309,2.049-3.017,2.687-3.518,0,.074-2.39-4.533-20.579-18.56-27.616-13.644-6.488-24.33-3.311-29.129.906-4.416,4.246-12.791,16.08,0,28.507,2.502,1.96,23.432,15.575,35.325,22.271,9.935,5.687,25.449,15.827,25.611,37.416-.162,23.236-20.282,31.492-25.611,32.976-4.828,2.197-24.006,4.024-35.325-1.782-10.333-5.538-14.056-3.088-17.663.891-1.207,2.376-4.357,3.86-4.416-.891v-36.525c.044-3.163,3.827-3.578,3.518-.03h0Z" fill="#fff" double-extrude="true"/>
    <path d="M199.366,459.234c.221-11.908,12.275-12.012,15.013-12.472.442.431,1.089-.223.898-.891.161-.734-.215-1.48-.898-1.782h-50.338c-.633.193-1.281.831-.883,1.782-.412.668.25,1.321.883.891,2.546.475,14.586.579,15.028,12.472v104.229c-.427,11.774-12.482,11.878-15.028,11.581-.633.342-1.281.995-.883,1.782-.412.831.25,1.485.883,1.782h50.338c.442-.312,1.089-.95.898-1.782.206-.787-.442-1.44-.898-1.782-2.738.297-14.792.193-15.013-11.581v-49.888h59.17v49.888c.162,11.774-11.893,11.878-14.13,11.581-.942.342-1.59.995-1.766,1.782.177.831.824,1.485,1.766,1.782h49.455c1.016-.312,1.663-.95,1.766-1.782-.103-.787-.751-1.44-1.766-1.782-2.164.297-14.218.193-14.13-11.581v-104.229c-.088-11.908,11.966-12.012,14.13-12.472,1.016.431,1.663-.223,1.766-.891-.103-.95-.751-1.589-1.766-1.782h-49.455c-.908.148-1.619.866-1.766,1.782.177.668.824,1.321,1.766.891,2.237.475,14.292.579,14.13,12.472v46.324h-59.17v-46.324h0Z" fill="#fff" double-extrude="true"/>
    <path d="M736.294,444.09c.78.193,1.428.831,1.766,1.782-.339.668-.986,1.321-1.766.891-2.399.475-14.454.579-14.13,12.472v104.229c-.324,11.774,11.731,11.878,14.13,11.581.789.35,1.419.986,1.766,1.782-.32.814-.959,1.459-1.766,1.782h-49.44c-1.192-.312-1.84-.95-1.766-1.782-.074-.787.574-1.44,1.766-1.782,1.987.297,14.042.193,14.13-11.581v-104.229c-.088-11.908-12.143-12.012-14.13-12.472-1.192.431-1.84-.223-1.766-.891-.074-.95.574-1.589,1.766-1.782h49.44Z" fill="#fff" double-extrude="true"/>
    <path d="M425.432,575.045c-3.179.416-10.818-5.612-15.896-12.472l-36.208-48.997c16.132-4.825,31.013-16.451,30.924-36.525.088-17.758-18.56-32.768-34.442-32.961h-64.468c-1.104.193-1.752.831-1.766,1.782.015.668.648,1.321,1.766.891,2.075.475,14.115.579,14.13,12.472v104.229c-.015,11.774-12.055,11.878-14.13,11.581-1.104.342-1.752.995-1.766,1.782.015.831.648,1.485,1.766,1.782h49.455c.839-.273,1.496-.936,1.766-1.782-.303-.826-.948-1.476-1.766-1.782-2.311.297-14.38.193-14.13-11.581v-108.684c16.735-8.181,40.418.49,40.624,23.177-.206,22.984-16.338,28.908-27.362,28.507h-13.247v8.908h10.598s38.843,51.966,42.39,56.124c3.135,4.707,6.285,6.83,12.364,7.127h69.767c.589-.312,1.236-.95.883-1.782.353-.787-.309-1.44-.883-1.782-2.591.297-14.645.193-15.013-11.581v-104.229c.368-11.908,12.423-12.012,15.013-12.472.589.431,1.236-.223.883-.891.353-.95-.309-1.589-.883-1.782h-50.338c-.704.277-1.086,1.047-.883,1.782-.265.668.383,1.321.883.891,2.694.475,14.748.579,15.028,12.472v104.229c-.309,11.759-12.364,11.863-15.057,11.566h-.002Z" fill="#fff" double-extrude="true"/>
    <path d="M157.859,484.178c-7.948-20.029-23.712-33.496-43.273-33.852-29.85.356-47.954,27.408-47.689,60.578-.28,33.54,17.839,61.424,49.44,61.469,16.853-.045,35.266-9.502,44.156-24.053,1.369-1.945,4.416-.698,2.664,2.673-15.175,23.162-37.342,28.581-55.637,28.507-37.445.267-62.982-32.843-62.702-68.595-.28-36.243,28.908-66.487,63.571-66.814,12.923.327,23.565,2.019,32.69,5.345,2.767.965,7.992,3.504,12.364-3.563.883-1.811,3.606-2.658,4.416.891.029,2.791,2.649,36.525,2.649,36.525.103,2.435-2.178,2.628-2.649.891h0v-.002Z" fill="#fff" double-extrude="true"/>
    <path d="M635.632,452.998c.191-.267,21.195,0,21.195,0,6.123-.267,21.416,2.212,21.18,19.599.294.787.927,1.44,1.766,1.782.783-.359,1.41-.992,1.766-1.782-.456.059-.78-28.314-.883-28.507h-110.391c.147.193-.486,28.567-.883,28.507.325.811.962,1.454,1.766,1.782.789-.35,1.419-.986,1.766-1.782-.294-17.386,15.013-19.866,21.18-19.599,0,0,20.96-.267,21.195,0v110.465c-.339,11.774-12.408,11.878-15.013,11.581-.574.342-1.222.995-.883,1.782-.324.831.309,1.485.883,1.782h50.338c.5-.312,1.148-.95.883-1.782.28-.787-.368-1.44-.883-1.782-2.679.297-14.719.193-15.028-11.581v-110.465h.046Z" fill="#fff" double-extrude="true"/>
    <path d="M826.388,569.7c6.329.148,24.978-3.875,31.793-24.053-.265-.668.368-1.321.883-.891,1.089-.431,1.752.223,1.766.891-.118.059-10.288,32.664-10.598,32.976h-99.794c-.648-.312-1.295-.95-.883-1.782-.412-.787.235-1.44.883-1.782,2.546.297,14.586.193,15.028-11.581v-104.229c-.427-11.908-12.482-12.012-15.028-12.472-.648.431-1.295-.223-.883-.891-.412-.95.235-1.589.883-1.782h98.925c-.074.193.25,28.567,0,28.507.339.787-.309,1.44-.898,1.782-1.001-.342-1.648-.995-1.766-1.782.059-17.386-15.234-19.866-21.18-19.599,0,0-23.182-.267-39.741,0v47.215h38.858c11.554-.134,11.657-12.279,11.481-14.254.235-1.247.883-1.9,1.766-1.782.707-.119,1.354.534,1.766,1.782v37.416c-.412.534-1.06,1.188-1.766.906-.898.297-1.531-.356-1.766-.906.177-2.673.074-14.833-11.481-15.144h-38.858v61.469h40.609v-.015h.001Z" fill="#fff" double-extrude="true"/>
    <path d="M870.544,461.907c-5.744-.256-10.344-4.895-10.598-10.69.088-6.429,4.931-11.314,10.598-11.581,6.182.208,17.707,4.632,17.663,24.053-.368,18.634-22.799,26.666-27.377,28.507-2.12,1.128-3.797-1.618-.883-2.673,2.532-1.069,20.871-6.785,15.896-28.507-1.104.594-2.988.802-5.299.891Z" fill="#fff" double-extrude="true"/>
    <path d="M493.433,538.52c1.222,6.8,10.862,32.798,37.106,32.961,10.862-.148,16.941-6.503,18.546-9.799,2.164-3.445,8.493-16.377-.883-26.725-10.141-10.987-36.562-25.36-45.923-31.18-7.595-4.929-14.321-13.853-14.13-29.398-.559-11.299,10.495-31.996,36.208-32.071,6.899.255,13.732,1.454,20.312,3.563,3.871,2.004,10.98,2.42,14.13-1.782,1.472-2.153,3.768-1.93,3.533,0v38.307c.235,2.049-2.487,2.687-2.664,0-.25-2.39-4.857-20.579-18.546-27.616-13.983-6.488-24.669-3.311-29.143.906-4.754,4.246-13.129,16.08-.883,28.507,3.062,1.96,23.977,15.575,35.325,22.271,10.48,5.687,25.993,15.827,25.596,37.416.383,23.236-19.738,31.492-24.728,32.976-5.166,2.197-24.345,4.024-35.325-1.782-10.656-5.538-14.395-3.088-18.546.891-.662,2.376-3.797,3.86-3.533-.891v-36.525c-.25-3.163,3.533-3.578,3.547-.03h.001Z" fill="#fff" double-extrude="true"/>
  </g>
</svg>