<?xml version="1.0" encoding="UTF-8"?>
<svg id="Layer_1" xmlns="http://www.w3.org/2000/svg" width="1024" height="1024" version="1.1" viewBox="0 0 1024 1024">
  <!-- Generator: Adobe Illustrator 29.5.1, SVG Export Plug-In . SVG Version: 2.1.0 Build 141)  -->
  <rect y="295.882" width="1024.003" height="432.236" fill="#c7c7c7"/>
  <polygon points="381.46 577.582 355.931 577.582 379.493 455.851 405.017 455.851 381.46 577.582" fill-rule="evenodd" data-split="true" />
  <polygon points="566.024 504.938 561.769 503.953 557.844 503.301 553.587 502.973 545.407 504.284 541.151 507.882 539.515 512.794 545.407 522.606 556.862 533.076 563.079 549.117 558.498 563.184 544.752 574.642 521.518 579.221 515.304 579.221 510.068 578.893 505.156 577.913 509.735 558.28 514.316 559.914 518.574 560.894 523.483 561.22 531.666 559.914 536.901 556.315 539.191 551.077 532.969 540.938 521.518 531.116 515.304 515.408 519.552 500.352 532.969 489.881 554.569 485.959 560.132 486.285 565.37 486.611 569.949 487.265 566.024 504.938" fill-rule="evenodd" data-split="true"/>
  <polygon points="953.806 505.918 932.208 505.918 924.026 549.118 924.026 555.989 926.973 559.588 932.208 560.571 940.719 559.26 942.679 558.929 940.719 576.276 937.443 577.582 931.228 578.893 924.026 579.221 910.611 576.602 900.794 566.46 900.138 545.842 907.666 505.918 892.612 505.918 896.213 487.922 911.265 487.922 916.831 460.432 942.025 455.851 935.81 487.922 957.407 487.922 953.806 505.918" fill-rule="evenodd" data-split="true"/>
  <polygon points="641.29 505.918 619.69 505.918 611.51 549.118 611.51 555.989 614.455 559.588 619.69 560.571 628.198 559.26 630.163 558.929 628.198 576.276 624.928 577.582 618.712 578.893 611.51 579.221 598.093 576.602 588.276 566.46 587.622 545.842 595.148 505.918 580.096 505.918 583.697 487.922 598.749 487.922 604.31 460.432 629.506 455.851 623.294 487.922 644.891 487.922 641.29 505.918" fill-rule="evenodd" data-split="true"/>
  <polygon points="669.104 577.581 645.216 577.581 662.886 487.92 686.774 487.92 669.104 577.581" fill-rule="evenodd" data-split="true"/>
  <polygon points="678.594 476.139 671.399 474.503 666.813 469.598 664.853 463.048 667.144 455.527 673.033 450.617 680.559 448.65 687.431 450.287 692.34 454.868 693.977 461.418 692.012 469.268 686.451 474.503 678.594 476.139" fill-rule="evenodd" data-split="true"/>
  <polygon points="773.823 577.582 748.954 577.582 760.081 521.3 760.735 512.464 759.094 507.554 754.844 505.918 741.428 513.774 728.991 532.755 721.791 554.679 717.21 577.582 693.322 577.582 695.612 565.48 700.848 537.336 706.737 507.228 710.338 487.921 732.592 487.921 731.936 494.467 729.971 503.301 726.37 516.065 726.7 516.065 735.537 500.352 747.644 489.881 763.352 485.959 777.424 489.555 785.278 500.352 785.604 515.734 773.823 577.582" fill-rule="evenodd" data-split="true"/>
  <polygon points="486.179 577.582 461.304 577.582 472.431 521.3 473.087 512.464 471.451 507.554 466.542 505.918 453.454 513.774 441.343 532.755 434.148 554.679 429.562 577.582 405.017 577.582 407.638 565.48 413.197 537.336 419.089 507.228 422.69 487.921 444.944 487.921 443.962 494.467 442.327 503.301 438.398 516.065 439.052 516.065 447.563 500.352 459.996 489.881 475.702 485.959 489.45 489.555 496.976 500.352 497.956 515.734 486.179 577.582" fill-rule="evenodd" data-split="true"/>
  <polygon points="438.397 661.36 458.035 661.36 458.035 664.635 434.473 664.635 434.473 631.91 458.035 631.91 458.035 635.181 438.397 635.181 438.397 646.308 453.454 646.308 453.454 649.583 438.397 649.583 438.397 661.36" fill-rule="evenodd" data-split="true"/>
  <polygon points="491.084 650.888 489.119 659.068 484.212 663.654 476.686 665.286 469.486 663.654 464.575 659.068 462.615 650.888 462.615 631.909 466.542 631.909 466.542 650.888 467.85 656.78 471.451 661.035 476.686 662.015 481.922 661.035 485.849 656.78 487.483 650.888 487.483 631.909 491.084 631.909 491.084 650.888" fill-rule="evenodd" data-split="true"/>
  <polygon points="510.391 664.635 506.79 664.635 506.79 635.181 494.36 635.181 494.36 631.91 522.829 631.91 522.829 635.181 510.391 635.181 510.391 664.635" fill-rule="evenodd" data-split="true"/>
  <polygon points="530.355 661.36 549.988 661.36 549.988 664.635 526.43 664.635 526.43 631.91 549.988 631.91 549.988 635.181 530.355 635.181 530.355 646.308 545.406 646.308 545.406 649.583 530.355 649.583 530.355 661.36" fill-rule="evenodd" data-split="true"/>
  <polygon points="604.309 637.472 602.019 636.159 599.728 635.181 596.783 634.848 592.858 635.835 589.911 637.802 588.932 640.74 589.911 643.363 592.202 645.651 596.783 646.308 602.673 647.942 606.6 650.233 607.91 655.144 606.6 660.705 602.019 664.304 595.473 665.284 591.222 664.961 586.967 663.655 584.35 661.683 586.641 658.415 588.932 660.705 591.876 661.36 595.147 661.683 599.402 661.36 602.673 659.393 603.655 656.124 603.006 652.854 600.384 651.21 596.129 649.909 590.568 648.599 586.641 646.308 585.002 641.073 586.641 635.835 591.222 632.56 596.783 631.577 600.384 631.91 603.655 632.89 606.6 634.524 604.309 637.472" fill-rule="evenodd" data-split="true"/>
  <polygon points="654.051 659.724 651.435 662.669 646.856 664.634 641.291 665.285 631.797 663.325 625.259 657.434 622.961 648.274 625.259 639.43 631.797 633.546 641.291 631.248 645.546 631.579 649.801 633.546 653.397 636.49 650.127 638.45 648.16 636.49 644.889 635.182 641.291 634.523 633.765 636.49 628.853 641.402 626.893 648.274 628.853 655.143 633.765 660.055 641.291 662.015 644.889 661.682 648.491 660.704 651.435 657.764 654.051 659.724" fill-rule="evenodd" data-split="true"/>
  <polygon points="686.45 646.963 686.45 642.382 690.051 642.382 690.051 645.652 692.011 643.362 694.63 642.382 696.921 641.728 699.868 642.382 702.158 643.362 703.793 646.309 705.757 644.018 708.374 642.382 711.318 641.728 715.9 642.708 718.518 645.983 719.175 650.233 719.175 664.636 715.9 664.636 715.9 651.544 715.574 647.61 713.939 645.652 711.318 644.672 707.394 645.983 705.429 648.599 704.773 652.855 704.773 664.636 701.502 664.636 701.502 651.544 700.848 647.943 699.211 645.652 696.593 644.672 693.322 645.652 690.705 648.273 690.051 653.178 690.051 664.636 686.45 664.636 686.45 646.963" fill-rule="evenodd" data-split="true"/>
  <polygon points="781.678 642.382 782.004 643.362 782.004 645.983 783.969 644.019 786.913 642.382 790.515 641.728 795.75 642.708 798.695 645.983 800.001 650.234 800.001 664.634 796.73 664.634 796.73 652.524 795.75 647.943 793.785 645.653 789.858 644.673 785.933 645.653 783.315 648.274 782.004 653.178 782.004 664.634 778.403 664.634 778.403 642.382 781.678 642.382" fill-rule="evenodd" data-split="true"/>
  <polygon points="814.072 661.034 821.605 642.382 825.528 642.382 813.747 669.864 812.113 672.816 809.822 674.776 805.567 675.755 804.91 675.755 803.602 675.106 802.622 674.776 803.276 671.836 803.93 672.485 804.91 672.485 805.567 672.816 807.531 671.836 809.166 670.851 810.476 668.56 812.113 664.959 801.966 642.382 806.547 642.382 814.072 661.034" fill-rule="evenodd" data-split="true"/>
  <path d="M724.08,642.382h3.276v3.601l2.947-2.621,3.268-.98,3.601-.654,6.546,1.634,4.581,4.248,1.637,5.892-1.637,6.222-4.581,3.929-6.546,1.632-3.601-.326-3.268-1.634-2.947-2.291v13.741h-3.276v-32.394h0ZM737.172,644.673l-5.235,1.311-3.27,2.614-1.311,4.905,1.311,4.588,3.27,3.271,5.235,1.308,4.912-1.308,2.944-3.271,1.304-4.588-1.304-4.905-2.944-2.614-4.912-1.311Z" fill-rule="evenodd"  data-split="true"/>
  <polygon points="282.301 395.969 281.977 395.638 279.356 395.638 279.03 395.308 278.707 395.308 278.05 394.658 277.719 394.658 277.065 394.328 275.429 394.328 274.775 393.999 274.121 393.999 273.141 393.678 271.174 393.678 267.903 393.017 267.58 392.693 265.612 392.693 263.978 392.037 262.344 391.057 261.034 390.729 259.4 390.729 259.067 390.403 256.778 390.403 255.142 389.746 252.523 389.092 251.867 389.092 247.942 388.438 246.306 387.787 245.982 387.787 245.651 387.458 244.671 387.128 244.341 387.128 243.035 386.802 242.05 386.148 240.744 385.817 240.09 386.148 239.436 386.148 236.815 385.817 234.199 385.817 233.544 385.496 232.564 385.168 231.91 384.511 230.6 384.511 229.62 384.188 228.635 384.188 226.999 383.857 225.688 383.526 225.365 383.526 224.382 382.877 224.054 382.546 223.397 382.221 222.417 381.897 221.109 381.897 220.453 381.236 219.473 380.587 218.819 380.256 218.493 379.607 216.852 378.622 216.202 377.965 215.548 377.635 214.563 377.316 210.636 377.316 206.055 377.635 202.78 377.965 198.529 379.607 197.875 380.587 197.221 381.236 194.6 382.546 193.294 381.236 193.294 378.945 192.64 378.945 192.64 376.005 192.309 375.675 191.66 371.096 192.309 369.134 192.64 368.475 193.951 368.475 194.274 367.825 194.6 367.495 195.254 367.495 195.911 367.164 196.239 367.164 196.895 366.841 197.545 365.858 198.529 365.858 200.492 365.204 201.8 364.224 203.765 362.914 205.075 362.583 205.401 361.934 206.712 360.954 207.035 360.293 207.035 357.353 206.712 356.042 206.055 355.388 205.727 355.388 205.727 355.062 204.421 355.062 203.765 354.403 202.456 354.403 201.146 353.754 198.855 353.754 198.529 353.421 196.239 353.421 194.6 353.754 192.64 354.403 190.349 355.062 188.713 355.062 187.728 355.388 187.074 355.711 185.768 355.711 185.114 356.042 184.127 356.042 182.824 356.368 181.182 357.353 180.202 357.678 178.892 357.678 177.258 358.002 176.932 358.658 175.298 358.658 174.967 358.982 173.987 358.982 173.657 359.313 172.677 359.313 171.697 359.643 170.712 360.293 170.386 360.623 169.406 360.623 169.406 360.954 167.115 361.272 166.785 361.934 165.474 361.934 165.151 362.26 164.171 362.583 163.84 362.914 161.55 363.57 160.57 363.57 158.279 363.894 156.638 363.894 155.334 364.55 155.004 365.535 155.004 366.184 154.35 366.841 154.35 368.805 155.334 369.455 155.991 369.455 155.991 370.116 156.971 370.116 158.279 370.44 159.259 370.44 160.239 371.096 160.895 372.076 161.55 372.404 162.206 373.054 162.53 373.715 165.151 373.715 165.474 374.041 167.115 374.041 167.441 374.367 170.055 374.367 170.386 374.041 171.042 373.715 171.697 373.715 171.697 373.054 172.022 373.054 172.351 372.73 172.677 372.73 173.333 372.404 173.657 372.404 173.987 372.73 174.311 372.73 174.967 373.054 175.621 374.041 176.601 374.695 176.932 376.331 178.568 378.945 178.892 380.912 179.548 381.236 181.836 381.897 183.478 382.877 186.094 384.188 187.074 385.817 188.385 386.802 189.039 386.802 190.019 385.817 190.675 385.817 191.984 386.148 191.984 387.787 192.309 389.418 191.984 391.057 191.004 392.693 190.019 395.638 190.019 397.929 189.039 400.219 189.039 400.873 188.713 402.179 188.713 404.474 189.039 406.108 188.383 414.621 187.403 416.251 186.749 416.912 185.769 417.235 185.112 416.912 184.128 413.634 183.478 412 183.478 407.419 182.824 400.547 183.804 398.583 183.804 395.969 183.478 394.658 182.824 393.678 181.837 392.693 181.183 392.367 181.183 392.037 180.857 391.383 180.533 390.729 180.203 390.403 179.223 389.746 178.569 389.092 177.258 388.438 176.932 387.127 175.622 386.802 174.968 386.147 173.331 386.802 172.351 387.458 171.041 387.786 170.386 388.438 169.076 388.438 168.419 388.766 166.131 389.418 165.805 389.418 164.497 389.746 162.53 389.746 161.874 390.403 161.55 390.403 160.239 391.057 158.936 392.037 157.625 392.693 156.969 393.678 155.989 393.999 155.658 393.999 154.348 395.307 154.348 395.638 154.024 396.292 154.024 397.598 153.694 397.929 153.368 399.563 153.368 401.199 152.714 402.51 152.714 410.69 152.39 414.291 152.39 417.561 153.368 420.837 152.714 423.127 152.39 426.403 152.06 429.019 152.39 431.31 152.714 432.29 155.335 435.234 158.28 438.179 160.57 439.815 164.171 441.454 168.419 443.086 168.752 444.071 169.406 444.396 169.406 445.381 170.056 445.705 170.71 446.361 171.041 447.015 172.023 447.995 172.023 448.652 173.988 449.306 174.311 450.286 175.298 450.616 175.298 451.266 174.968 451.927 173.657 452.907 172.351 454.541 172.023 455.852 171.697 457.486 172.023 459.448 172.023 460.433 171.697 461.087 171.697 462.398 173.657 462.067 177.258 460.433 179.223 459.448 185.112 458.142 195.585 455.526 202.78 450.945 209.657 447.669 210.637 447.346 210.963 447.015 210.963 446.361 211.291 446.035 211.291 444.725 211.947 443.745 211.947 442.434 212.271 442.106 212.271 441.126 211.947 439.489 211.947 437.855 212.271 437.199 212.602 435.888 212.927 432.944 212.927 425.741 213.581 425.418 213.907 424.431 214.238 423.781 214.561 422.801 214.561 420.837 215.218 420.18 215.546 419.526 215.872 419.526 215.872 419.203 216.203 419.203 217.183 418.872 218.493 418.872 218.493 412.98 216.852 409.71 216.203 406.439 216.203 406.439 220.783 405.78 222.743 405.78 232.564 403.49 242.707 403.49 247.942 403.818 250.887 404.151 252.851 404.151 255.468 404.475 257.758 404.8 264.635 404.8 266.925 405.455 267.903 405.455 268.883 405.78 271.83 404.8 275.429 403.49 275.762 402.838 278.05 400.548 279.356 397.929 281.321 396.949 282.631 395.969 282.301 395.969" fill-rule="evenodd" data-split="true"/>
  <path d="M53.885,484.975l4.581,1.311h.331l1.634.326,1.967.654h1.634l.98.326h1.965l1.967.328,4.248.331v.98l-.654.325-.98.326h-3.271l-2.621-.326h-2.288l-1.313-.325v.325l.333,1.311.98.654.654.65.98.33h.654l2.947.654h1.965l1.303-.323.657-.331h.654l.331-.33.325-.65.98-.33.655.33h.987l.323.65h1.637l.654-.65.98-.33.33-.324h.324l.987-.326.654-.659h3.271l.98.659h.656l2.945.326-.98.654-1.637.65h-.984l-1.635.33-1.31.331-.657.323-.649.657-.985.33h-2.616l-1.308.324h-.326l-.654.326-2.291.654h-5.235l.98.656,1.634,1.311,2.29.649h1.635l2.947-.649h.654l.98-.331,2.295-1.31,1.636-.326h.324l-.654.656-1.96,1.311-1.641.649-.324.659v.326l.324.654h.33l.98.652.654-.652h.331l.98-.328.98.98h1.636l4.586-2.617,1.96-.323h.985l.649.323,2.291.985,1.965.326.656-.326.98-.659.654-.326h2.947l.654.326h.98l.654.659.988-.659.323-.326.326-.323h1.639l1.306.323h1.31v-.323h2.291l.654.323h.331l.649-.323,1.311-.331.656-.651.98.651h.328l.98-.651v-.329l-.654-.33-.326-.326-1.308-.98-1.636-.324h-6.872l-.654.324h-.331l-1.303.326-.331.654-.657.326h-.323l-.331-.326h-.325l-.655-.654v-.326l-1.636.326-3.273-.326-1.962-.324-.329-.987v-.323h-.656l-1.306.323-1.308.987h-.657l-1.31.324-2.614.98-.657-.654,2.291-2.291,1.636-.98.985-.33.649-.324h.985l.326-.326h4.581l.331.326h.654l.98.324h.654l.656-.324h1.635l.979.324h1.311l.326.33h.654l.331.65h.654l.982.33h3.925l1.634-.33,1.967-.65,3.271-.654h1.308l1.31.324h1.311l3.601.33,3.271.65h1.634l.654-.65h.982l2.288-.33v-1.309l-.647-.326-1.313-.325-2.618-.98-.98-.331,1.964-1.308h1.96l1.965.98,2.616.659,2.945.98,1.641.325h1.96v-.325h.654l1.311-.98,1.634-.659,1.313-.326.978.326h3.277l.98-.326.654-.654,1.311-.326,1.636-.326h1.304l.331-.331.654-.98.98-.328,4.581-1.31h5.235l.654-.326.987-.326.326-.328.324-.657,1.31-.654,1.634-.98,1.967-.98h1.634l1.311-.656h1.311l.654-.655,1.306-.33,1.31-.65h2.619l.982-.33,1.635-1.311,3.275-1.634h.649l.985-.326h.656l1.306-.33,1.308-.98.657-.98.326-.654.654-.326.654-.659v-.326h1.311l.325-.654h.985l.98-.652,1.311-.328,1.31-.982.98-.659,1.311-.98.98-.326.98-.985,1.31-.323,1.309-1.306.326-.661.984-.324.652-.985.328-.321.657-.33.98-.98.98-.331.654-.328v-.652h.656l.654-.328,1.965-1.962v-.329l.326-.651.654-.329.98-.982h.657l.654-.98.98-.659.656-.98.985-.654.98-.982.98-.324.654-.33.656-.655.655-.98.979-1.636.985-.98,2.617-1.311,3.601-3.601,1.308-.654.657-.985,1.305-.325.654-.655,1.311-.651.98-.329,1.965-1.31-4.581-23.234h-.329l-.325.649-.657.985-.654,2.291-.98,1.636-.331.98v2.952l-.323,1.308-.331.649-.651.331-1.639,1.636-.326.655-.98.98-1.311,2.621-.98.651-.328.659h-.326l-.331.65-.654.98-.325.661v1.306l-.331.654-.98.654-.324.326-1.31.659v.651l-.657.331-.98.649h-.654l-.33.331h-.65l-.656.654-1.639.654-1.306.983-.654.328-.98.326-.331.326-1.636.654-.654.326-2.291,1.31-.98.659-.984.98-.326.326h-.329l-2.29,1.634-.326.331-.654.325h-2.291l-.98.655h-.984l-1.637.654-2.29,1.305-1.965,1.311-2.617.98-1.634,1.311-.656.33-1.308.98-1.637.654-1.964.985-2.945.652-1.96.98h-2.947l-1.311.328h-.98l-.654.331h-.654l-.987.326h-.649l-.985.654h-.657l-.323.33-.98.321-.657.329h-.984l-.65.656-2.621.654-.98.98-.985.331-1.305.326h-.985l-1.306.323-.985.661h-.654l-1.306.324h-.654l-3.277,1.636-2.945.654-1.96.657-2.621.328-.978.321h-.98l-.333.331-.323.654v.326l.323.328h3.271l5.242-.328h2.94l.654-.326h2.621l1.634-.654,1.967-.331h1.304l3.278-.649.654-.657,3.927-.325,4.255-1.639,2.288-1.634,1.311-.657,1.306-1.634.654-.656.987.656.647.324h2.623l1.965-.324,1.306-.656v.656l-.982.985-.98.649-1.634.331-1.311.326-1.634.323-.987.661-.324.324.324.326.987.33.647.65h2.947l.985-.65,2.616-.656,1.634-.985,2.947-.98,1.639-.98,2.291-.654,2.29-.985.654-.321,4.907-1.969h1.965l.98.328-5.561,3.271-1.311,1.31-4.909.98h-1.306l-.985.661-1.634.65-2.616,1.964-1.639.985-1.306.652-1.31.98-1.637.659-.985.326-.98.654h-.323l-1.311.651-1.636.329-1.311.656h-.98v.324h-2.619l-1.636.33-3.599,1.311-3.601.326-1.967.985h-.98l-1.311.318-2.288.661-3.601.65-3.594.33h-3.932l-1.96-.33-1.634.33-1.311.331-.33.324-1.637.98h-3.268l-.987.325-1.303.331h-.987l-.655-.331h-.98l-.656-.649-.323-.656v-.324l-.657-.661-.331-1.629v-1.311l.988-.331h1.634l.654-1.31-.654-.324-1.311.324h-.98l-.654-.324-1.311.324h-1.636l-1.634.33-1.311.326-1.31.654-.98.331v1.96l-.324.33-.33.65h-2.291l-.98-.65h-3.929l-.326-.33h-4.581l-.655.33h-1.31l-.98.65h-1.637l-1.634.33-1.31-.33h-.985l-.649-.65h-4.586l-.652.65h-1.308l-.985.33h-.326l-.656.331-2.945.324-3.271.98h-6.871l-2.296-.324h-3.924l-3.271.649h-.985l-.98.331h-2.29l-2.614-.331-2.298-.325-1.303-.324h-3.278l-2.945.324-2.614.325h-6.222l-1.304-.325h-3.275l-1.96.656h-2.29l-2.296-.331-1.636-.649h-.654v.324l.328.656.326.98.654.331.656,1.308.98.652.987.98,1.304.33h.985l.98.328h6.215l3.601.326ZM166.131,490.865h-.657l-.977.326-1.967.98h-.98l-1.311.331-1.634.33-1.967.98-1.304.328-2.621,1.306-.323.326-.657.331-1.634.328-2.621.98-1.965.652-2.29.659h-2.617l-.654.325h-2.621l-.649-.325h-2.945l-1.641.325-2.291.655-1.306.651h-3.275l-1.308.329-.652.33-.985.326h-2.29l-.98.323h-1.634l-.331-.323h-1.311l-1.634.323-.656.662-.98.326-.654.323-1.96,1.311h-2.947l-1.639.33h-1.306l-3.929-.33-.98.33h-2.291l-.98.324h-1.641l-.326.656-3.599-.656-5.892.982-2.614-.326h-6.222l-1.303.326h-.988l-1.31.324h-2.614l-2.291.33-1.634.654-1.31-.654h-4.258l-2.945.654-2.614.326h-1.967l-1.634.331-1.965.328h-1.96l-.987-.328h-.654v.98l.654.328.987.652.65.659.984.326,1.311.325h4.251l1.964-.325h3.925l.656.325h6.216l.654-.325h.987l.98-.326h2.614l.656.326h1.642l2.288-.326h5.237l.655-.659h1.634l.982.659,2.288-.659,2.947-.326h5.566l3.594-.326h2.947l.328.326-.328.326-.326.659h-1.636l-2.945.98-1.965,1.31-1.959.326h-4.256l-.656.98h-.98l-.331.326h-.323l-.331-.326h-6.872l-.98.326h-1.634l-1.31.328h-.654l-.98-.328-.331.328h-1.637l-.33.657h-.978l-.326.323h-1.31l-1.967.661h-.324v.65h-.654l-.656.33-.98.326-1.634.324h-1.311l-.98-.324-.654-.326h-1.311l-.656-.33-.98.33h-.654l-.987.326h-2.291l-1.634.324h-2.614l-.987.33.33.654.326.326,2.621,1.311.978.331,1.313.323h1.308l.65.326h1.964l.657-.326h.656l.978.326h.987l1.634.654,1.637-.654h.98l1.31-.326h.654l.324-.323h.987l.98-.331h.98l.656-.654.978-.326,1.967-.331,1.965-.98h4.581l.323.654h.657l.654.657h1.636l.654.326.985-.326h1.306l.654-.331h1.967l.654.331h.98l1.311-.331h.326l.654-.326h.98l.985-.654h3.601l.649-.33h1.311l2.621-.65.654-.98.98-.33h.326l1.31-.331h9.491l2.291-.323.325-.657.655-.328,1.31-.326h3.599l.656-.326.98-.654.98-.326h.654v-.33h.657l.328-.329h.652l.654.329.331.33h.98l1.31-.659.98-.651.985-.329.98-1.31,1.311-.326.649-.326h2.947l1.641-.328h1.958l.987-.652h.323l2.622-.659,5.558-1.31,3.604-1.306.654-.654,1.311-.331h1.303l1.967-.98,1.634-.649,1.311-.985.654-.326h1.636l-.656-10.47-.654.323ZM209.326,473.848l-2.614.98-1.637.983-.985.328-1.31.33-.98.65-3.271.661-.984.324-1.306.656-.985.649-1.634,1.642-.326.98-.985.328-.649.652-2.621,1.31-1.965.328-2.947.98-1.634.331h-2.945l-.656.652h-.324l-1.31.98-1.96.659-1.311.98h-.33l-.324.325h-3.278l-.98.326h-.323l-.331.659h-1.636l.656,10.471.324.326v.325l.656.659v.98l-.656.652v.328l-.324.331-.656.326-.654.654-.657.326-1.303.323-.331.985-.98.326-1.31,1.31-1.311.654h-1.96l-2.621.985-3.925.652-3.275,1.311-1.304.654-.987.654-.98.326-1.31.325-1.634.985h-1.311l-.654.326-.982.328-3.271,1.637-3.273.654-1.962.98-.985.33-1.306.326-1.308.985h-1.967l-.98.326h-.654l-1.311.323h-3.27l-1.634.657-1.311.323h-1.311l-1.31.331-1.634.331h-6.872l-2.945,1.308-1.31.321-1.634.661-.983.324h-.984l-.655.326h-3.27l-2.617-.326-2.295.326-1.303.33-.985.654h-3.927l-.654-.654h-2.291l-.326.654h-2.944l-.654.326.323,1.311,1.311.98.656.654.98.654,1.308.982.657.98,1.634,1.639.98.331.656.649,1.965.98,1.965,1.641.98,1.311.326.323.33.657.98.328,1.311.652h.654l1.311,1.31.323.98.326.329.656.651.985,1.311,1.634,1.308.98.657.331,1.306.326.658,1.308,1.311.656.324.654.656.652.326,1.639.323,1.96,1.311h.985l.651.654,1.311.985,1.965,1.31,2.29,1.632,1.965.985.649.654h.331l1.311.652.98.984.98.655.984.325h.65l.984.654.657.657h1.306l.984.323.655.662.98.321,1.636.328,2.291,2.291,1.308.98.326.33h.33l3.599,3.601,1.306.98.985.329h.656l.98.325.98.985.987.326.324.98,1.31.985,1.634.98.98,1.31,2.622,1.311,1.964,1.303,1.306.326.654.985,1.311,1.306,1.31.331h.657l3.268,1.31,1.636.324h1.635l1.967.325,2.618.985,1.637.654.654.983.98.328.656.652,1.309.661,1.306.323.33.324,1.634.33,2.947.652h.654l.98.328h.98l2.622,1.311.323.326,3.278.654.323.654,1.634.326,2.298.331h1.96l.98.333,1.311.316h2.944l.654-.316h2.622l2.944.316h1.637l2.29-.316h.654l.98-.333h3.602l.325.333h.985l1.304-.333h.984l1.637-.331h4.909l1.637-.326.98-.654h.654l.982-.331h3.929l1.306-.323h2.291l1.308-.326h.982l.985-.654.98-.324.98-.661h.654l.331-.652h.654l.652-.33h.654l.985-.324.325-.323,1.965-.987h.98l.98-.326h.985l.326-.328.98-.65.656-.661.985-.326,1.634-.654h.326l.654-.656h.656l.331-.324.324-.656h.325l.329-.326h.656l.324-.328v-.331l.333-.649.977-.657.326-.323.331-.662.98-.326.654-.323h.98l.33-.331h.326l2.621-1.96,1.634-1.31.324-.98.656-.659,1.311-.98.98-.326.654-.326.331-.33.323-.98.657-.329,1.634-1.636.333-1.311.323-.654.98-1.31.654-.98.988-.65.979-1.31,1.635-1.642,1.31-.98.98-1.308.331-1.31v-.326l-71.015-89.666-2.617,1.639-.984.98ZM312.081,451.265l-.65-.649v-2.621l.65-.98-.65-.98v-.654l-.33-1.311v-.985l-.326-1.631v-.659l.326-1.306-.326-.654v-5.235l-.328-1.311v-.98l-.657-.985-.326-.98-.33-1.31v-3.927l-.324-1.304v-.661l-.654-.98v-.649l-.326-.987v-.655l-.331-1.31-.979-1.311-.326-.649-.329-.98-.98-.661-.656-1.304-1.311-1.31-.323-.657-.657-.98-.654-.654-.654-.985-.982-.651-1.634-1.639-1.642-1.96-.654-1.311v-.33l-.98-.319-.98-.661-.654-.326-.656-.654-.98-1.311-.654-.98-.98-1.634-1.967-1.967h-1.965l-1.636.331-1.635.979-1.31.657-1.634,1.303-.98,1.311-1.311,1.965-1.967,1.967-1.308.98-1.96.654h-.987l-.65.326h-1.31l-.654.654-.657.326-.323.33-2.945.98-2.29.329-1.311.325-2.291.326h-.656l-.654.659-.654.326h-.657l-.654.326h-4.25l-.985.328h-2.617l4.582,23.234,1.31-.328.324-.326h.656l.654.326v.328l-4.581,4.581-1.965,2.291-1.31,1.31-2.614,1.639-.657.98-2.619,1.963-.651.654-.654,1.31-.655.324-1.636,2.29-1.965,2.291-4.912,4.912-1.303,1.639-.985.651-1.31.98-1.306,1.639-.985.652-1.636,1.639-2.291,1.634-2.288,1.306-1.637.984-1.31.985-2.945,1.632,71.015,89.665h.324v-.98l.98-.654.987-1.641,2.29-2.94.98-1.639.331-1.306,1.303-.985.985-1.962.649-1.639,1.311-1.631,1.311-.985.656-1.634.98-1.641.331-1.304.323-.985.331-1.306,1.303-1.964.331-1.311v-.98l.982-.98.654-2.621.654-2.291.326-2.618.654-1.963.657-.654v-2.29l.323-.654.657-1.963.985-1.964.325-2.615v-1.641l.329-2.29.326-1.311.656-1.308.323-1.306.331-.656h-.331l.331-.98v-1.639l1.304-2.94.656-3.932.657-2.291v-3.598l.328-1.637-.328-2.29v-.985l.328-1.306v-1.308l.326-.98.33-1.311v-9.162l.65-.326v-13.42l.33-1.31v-1.63l-.33-1.972Z" fill="#ff1000" fill-rule="evenodd"  data-split="true"/>
  <path d="M880.832,507.883l-2.945-9.821-8.836-8.506-17.019-3.596-20.943,4.907-17.342,13.087-11.451,18.65-4.586,22.254,4.912,19.638,13.092,11.127,19.957,3.599,13.092-1.311,10.804-3.271,6.215-2.288v-18.329l-5.235,2.291-9.493,3.275-11.127,1.632-10.47-2.291-5.892-7.195-.324-10.799,30.76-4.26,19.961-10.796,6.872-17.996h-.002ZM856.944,511.154l-3.602,8.18-11.127,4.581-16.688,1.641,4.907-11.132,8.18-8.18,9.824-3.271,4.248,1.308,3.277,2.947.98,3.925h.001Z" fill-rule="evenodd"/>
  <path d="M769.897,650.888v-.654l-.98-3.271-1.965-1.967-3.271-.323h-2.947l-2.288,1.308-2.621.982-1.967-1.967,2.947-1.967,3.275-.647,4.255-.656,4.251.982,3.275,2.288,1.306,4.586v11.776l.331,1.967v1.308h-3.275v-1.308l-.326-1.311v-.98l-2.291,2.291-2.619,1.634-3.596.326-4.255-.652-2.947-2.619-.98-3.601,2.291-4.912,6.218-2.291,6.543-.323h1.637-.001ZM768.26,653.502h-4.579l-4.912,1.308-1.965,3.278.654,2.616,2.291,1.311,2.621.654,4.256-1.311,2.291-2.291.98-3.925v-1.641h-1.637,0Z" fill-rule="evenodd" data-split="true"/>
  <path d="M669.103,665.285l-6.871-1.632-4.251-3.929-1.639-6.222,1.639-5.892,4.251-4.248,6.871-1.634,6.546,1.634,4.581,4.248,1.965,5.892-1.965,6.222-4.581,3.929-6.546,1.632ZM669.103,644.672l-4.581,1.311-3.27,2.614-1.311,4.905,1.311,4.588,3.27,3.271,4.581,1.308,4.91-1.308,3.27-3.271.987-4.588-.987-4.905-3.27-2.614-4.91-1.311Z" fill-rule="evenodd" data-split="true"/>
  <path d="M558.823,664.635h-3.925v-32.724h13.741l6.22,1.311,3.927,2.938,1.308,4.914-.654,3.925-3.271,3.275-4.586,1.311,9.821,15.052h-4.586l-9.16-14.726h-8.836v14.726-.002ZM558.823,646.631h8.836l4.909-.649,2.616-1.965.985-2.945-.985-2.947-2.616-1.967-4.909-.978h-8.836v11.45h0Z" fill-rule="evenodd" data-split="true"/>
  <path d="M407.307,664.635h-3.925v-32.724h13.418l6.22,1.311,4.251,2.938.985,4.914-.654,3.925-2.947,3.275-4.909,1.311,9.816,15.052h-4.581l-9.16-14.726h-8.513v14.726-.002ZM407.307,646.631h8.513l5.235-.649,2.291-1.965.98-2.945-.98-2.947-2.291-1.967-5.235-.978h-8.513v11.45h0Z" fill-rule="evenodd" data-split="true"/>
  <path d="M358.221,664.635h-4.251l15.052-32.724h3.925l15.059,32.724h-4.586l-3.594-8.511h-17.675l-3.929,8.511h-.001ZM363.787,653.179h14.398l-7.195-17.021-7.202,17.021h-.001Z" fill-rule="evenodd" data-split="true"/>
</svg>