<?xml version="1.0" encoding="UTF-8"?>
<svg id="Layer_1" xmlns="http://www.w3.org/2000/svg" width="1024" height="1024" version="1.1" viewBox="0 0 1024 1024">
  <!-- Generator: Adobe Illustrator 29.5.1, SVG Export Plug-In . SVG Version: 2.1.0 Build 141)  -->
  <rect y="412.813" width="1024" height="198.374" fill="#00a0df"/>
  <path d="M483.652,547.926c0-8.391-5.252-14.67-9.445-20.953-4.198-4.195-7.338-8.391-7.338-13.617,0-6.281,4.198-10.474,9.45-10.474,3.141,0,5.248,1.052,7.334,2.083,2.086,1.031,5.25,2.086,7.336,2.086,4.195,0,7.334-4.195,7.334-7.336,0-4.195-4.193-8.391-11.532-8.391-16.781,0-31.451,18.867-31.451,33.539,0,8.393,5.25,14.672,9.445,19.922,3.143,4.195,6.281,8.393,6.281,12.589,0,6.279-6.281,10.474-11.529,10.474-6.283,0-9.45-3.141-13.62-6.281-2.088-2.086-4.195-4.193-6.281-4.193-3.14,0-4.195,6.279-4.195,9.443,0,4.195,7.336,10.477,16.779,10.477,14.674-2.107,31.433-14.693,31.433-29.367" fill="#fff"/>
  <path d="M126.228,445.199q-.703,0,0,0l-1.055,4.195v1.055h5.25c4.195,1.031,5.227,1.031,5.227,3.141,0,3.143-4.195,13.617-9.445,28.313l-4.195,13.617c-4.195,11.531-10.477,28.315-15.727,41.933-6.281,16.779-11.531,30.396-11.531,32.482s1.055,3.141,6.281,3.141,7.336-1.052,8.391-3.141c9.445-30.399,34.594-64.993,47.18-64.993,4.195,0,5.25,1.055,5.25,5.25,0,6.281-5.25,18.867-11.531,31.453-5.25,10.477-9.445,20.955-9.445,26.203,0,4.195,2.086,6.281,6.281,6.281,12.586,0,23.063-11.529,30.399-20.951l1.055-1.057-3.141-3.141h-1.055c-4.195,4.198-11.531,11.531-13.617,11.531h-1.055v-2.086c0-1.052,1.055-4.195,3.141-8.391,5.25-11.531,13.617-31.453,13.617-42.985,0-9.443-4.195-14.67-12.586-14.67-15.727,0-28.313,17.811-34.594,27.255-1.055,2.086-3.141,4.198-3.141,4.198,0,0,1.055-2.089,2.086-6.283,2.086-4.195,4.195-10.477,7.336-18.865,11.531-31.455,16.781-47.183,16.781-49.266s-2.086-2.089-3.141-2.089h-23.063l.047-2.133h0Z" fill="#fff"/>
  <path d="M90.579,556.317q.703-.702,0,0c0-1.052-3.141-3.139-3.141-3.139-5.25,4.195-14.672,12.583-23.063,12.583-3.141,0-6.281-1.055-8.391-3.141-3.141-2.083-4.195-6.279-4.195-11.531-1.055-12.586,10.477-32.482,20.953-44.014,6.281-6.283,11.531-9.448,14.672-9.448,4.195,0,7.336,3.143,10.477,6.283,2.086,3.139,4.195,5.248,7.336,5.248,1.055,0,3.141-1.052,3.141-2.083,1.055-1.057,2.086-3.143,2.086-4.195,0-5.252-5.25-12.589-16.781-13.617-12.586,0-29.344,7.333-41.93,19.922-11.531,11.529-17.813,26.201-16.781,39.818,0,11.533,6.281,24.117,23.063,24.117,16.828,2.065,30.469-12.609,32.555-16.805" fill="#fff"/>
  <path d="M302.315,526.952c0,1.052-1.057,2.083-1.057,2.083v-1.052c0-1.057,1.057-4.198,2.089-8.393,2.089-8.391,4.195-18.867,4.195-22.008,0-4.195-2.086-6.279-6.283-6.279-8.389,0-22.003,14.67-26.201,22.005l2.086,3.141,1.052-1.055,1.059-1.055c3.139-4.193,9.443-11.531,12.583-11.531,2.086,0,3.141,2.086,3.141,5.252,0,7.333-8.391,30.396-13.617,46.123-3.141,8.391-5.25,14.672-5.25,15.729,0,2.083,1.055,2.083,2.083,2.083h7.339c1.055,0,2.086-1.055,3.141-3.141,0,0,3.141-8.391,5.25-12.586,14.672-29.344,22.008-44.014,28.313-50.318,4.195-4.195,7.333-5.252,9.445-5.252,2.086,0,2.086,1.057,3.141,2.089,1.055,1.029,2.086,3.139,4.198,3.139,1.052,0,3.139,0,4.193-1.052,2.086-2.086,3.14-4.195,3.14-7.339,0-5.248-4.195-7.336-7.333-7.336-14.698,1.125-24.12,10.547-36.705,36.752" fill="#fff"/>
  <path d="M368.362,553.153s0-1.031,0,0c0-1.052-3.141-4.195-3.141-4.195l-1.055,1.055c-7.336,7.336-10.477,12.589-14.674,12.589h-1.052s-1.055-1.057-1.055-2.089c0-4.195,7.336-25.149,22.008-62.883l10.477-27.258c5.252-13.617,8.391-20.951,8.391-22.008v-1.055c0-1.055-1.055-1.055-3.139-1.055h-24.12s-1.055,0-1.055,1.055v5.25h5.252c3.139,1.057,5.248,2.086,5.248,4.195,0,3.141-15.727,41.933-15.727,41.933-8.39,20.951-23.062,57.657-23.062,66.045,0,4.195,1.055,7.339,2.089,8.391,2.083,2.086,4.193,3.143,7.333,3.143,9.445,0,19.922-12.586,26.203-20.955l1.078-2.156h0Z" fill="#fff"/>
  <path d="M523.747,514.383c0,11.531,9.445,17.813,17.813,22.008l4.195,2.086c8.391,4.195,12.586,9.445,12.586,15.727,0,7.339-5.25,13.62-12.586,13.62-11.531,0-17.813-11.531-20.953-18.87l-4.195,1.057c1.055,7.333,3.141,15.724,3.141,18.865h2.086l5.25,2.086c3.141,1.057,7.336,2.086,11.531,2.086,15.727,0,27.258-9.445,27.258-24.117,0-13.615-10.477-19.922-17.813-23.063l-3.141-1.052c-9.445-5.25-13.617-9.448-13.617-15.729s4.195-12.583,11.531-12.583c9.445,0,13.617,7.333,15.727,14.672l4.195-1.055c-1.055-6.283-2.086-11.531-2.086-15.727l-3.141-1.057-2.086-1.055c-3.141-1.052-7.336-2.083-10.477-2.083-14.742,1.123-25.219,10.568-25.219,24.186" fill="#fff"/>
  <path d="M579.294,533.253c0,19.922,13.617,38.787,44.016,38.787,7.336,0,17.813-2.083,22.008-3.139,2.086-5.252,5.25-14.674,6.281-19.922l-4.172-1.057c-6.281,12.589-11.531,18.867-25.149,18.867-16.781,0-28.313-14.672-28.313-36.677,0-15.729,7.336-33.542,28.313-33.542,12.586,0,18.867,5.25,22.008,17.813h4.195l-1.055-5.248-2.086-13.617h-2.086c-4.195-1.057-10.477-2.089-18.867-2.089-26.227-2.109-45.094,14.672-45.094,39.823" fill="#fff"/>
  <path d="M739.678,493.43h-33.563v4.195c8.391,1.057,9.445,1.057,9.445,14.672v15.727h-35.649v-15.727c0-12.586,1.055-13.615,9.445-14.672v-4.195h-34.594v4.195c10.477,1.057,10.477,2.086,10.477,14.672v41.93c0,12.589-1.055,13.617-10.477,14.674v4.195h34.594v-4.195c-8.391-1.057-10.477-1.057-10.477-14.674v-19.922h35.649v19.922c0,12.589-1.055,13.617-10.477,14.674v4.195h34.594v-4.195c-9.445-1.057-10.477-1.057-10.477-14.674v-41.93c0-12.586,1.055-13.615,10.477-14.672-.023-.021,1.031-4.195,1.031-4.195" fill="#fff"/>
  <path d="M858.109,493.43h-27.258v4.195h4.195c2.086,0,3.141,1.057,4.195,1.057,0,1.052,1.055,1.052,1.055,2.083,0,1.055,0,3.141-1.055,5.252,0,1.055-6.281,27.255-11.531,44.016-1.055-2.089-20.951-55.547-20.951-55.547h-5.252s-17.813,55.547-17.813,56.599c-1.055-2.086-13.617-46.125-13.617-46.125,0-2.086-1.055-3.141-1.055-4.195v-2.083c1.055-1.057,2.086-1.057,4.195-1.057h4.195v-3.139h-32.485v4.195c6.281,1.052,8.391,1.052,11.531,11.531l19.922,62.883h5.25s17.813-54.516,18.867-55.549c1.055,2.086,19.922,55.549,19.922,55.549h5.25c10.477-36.683,19.922-61.855,19.922-62.883,4.195-10.479,5.25-11.531,12.586-11.531-.07-.023-.07-5.252-.07-5.252" fill="#fff"/>
  <path d="M257.244,489.215c-1.055,0-2.086,1.055-2.086,2.089-1.055,1.052-1.055,2.083-3.141,2.083-1.055,0-2.086,0-4.195-1.052-2.086,0-4.195-1.057-7.336-1.057-36.68,0-55.547,49.266-55.547,66.049,0,11.529,6.281,16.779,12.586,16.779,7.336,0,17.813-2.083,31.453-23.063l3.141-5.248v1.052l-1.055,2.086c-2.086,3.141-5.25,10.477-5.25,16.783,0,3.139,1.055,5.248,2.086,6.279,1.055,1.057,3.141,2.086,5.25,2.086,12.586,0,23.063-16.781,27.258-23.063l-3.141-3.141h-1.055l-3.141,3.141c-4.195,4.195-8.391,10.477-11.531,10.477h-1.055v-2.086c0-4.195,8.391-24.117,13.617-39.821,4.195-11.529,8.391-22.008,8.391-24.117,0,0,0-2.086-1.055-2.086l-5.25-3.141c2.109-1.031,1.055-1.031,1.055-1.031M199.588,554.208c0-24.117,18.867-56.599,37.735-56.599,6.281,0,9.445,3.139,9.445,9.443,0,9.448-25.149,54.516-41.93,54.516-3.141,1.033-5.25-.023-5.25-7.359" fill="#fff"/>
  <path d="M927.297,493.43v4.195c8.391,1.057,9.445,1.057,9.445,14.672v41.93c0,12.589-1.055,13.617-10.477,14.674v4.195h29.344c9.445,0,17.812-2.089,23.063-5.252,7.336-4.195,10.477-10.477,10.477-17.81,0-10.479-7.336-17.815-20.954-19.922,6.281-1.055,16.782-6.283,16.782-16.781,0-6.281-2.086-10.479-6.281-13.62s-9.443-4.193-18.867-4.193h-32.485l-.047-2.089h0ZM949.305,503.907c0-3.141,0-5.248,1.055-5.248h5.25c3.141,0,14.672,1.052,14.672,14.672,0,9.443-6.281,14.67-16.781,14.67h-4.195v-24.094h0ZM953.5,531.165c13.62,0,20.951,6.283,20.951,17.815s-8.39,16.779-15.724,16.779c-3.138,0-5.25,0-6.281-1.052-2.086-2.089-2.086-5.252-2.086-11.531v-20.955c0-1.055,3.141-1.055,3.141-1.055" fill="#fff"/>
  <path d="M893.757,514.383l-8.391-22.008-5.252,1.055-24.115,61.855c-4.198,10.474-5.25,11.531-12.589,11.531v4.193h27.26v-4.193h-3.141c-2.086,0-4.198-1.057-4.198-2.089v-2.083c0-1.057,0-2.086,1.057-4.195l1.055-2.089c1.055-4.193,3.141-10.477,4.198-12.583h22.003c2.088,6.281,5.252,13.615,6.283,16.781,0,1.052,1.055,2.086,1.055,3.141v1.052c0,1.055-1.055,1.055-3.141,1.055l-3.138,1.055v3.141h31.451v-4.195c-6.281-1.055-8.391-1.055-12.589-11.531l-17.811-39.891h.002ZM879.086,512.298s8.39,25.151,9.443,25.151h-17.811c-1.076,0,8.367-25.151,8.367-25.151" fill="#fff"/>
  <path d="M374.643,552.121c0,13.617,8.391,23.065,20.951,23.065,14.674,0,30.401-14.674,34.596-18.87v-1.052l-2.086-3.143h-1.055l-2.083,1.057c-5.253,4.195-13.62,10.474-20.956,10.474-8.391,0-13.615-5.248-13.615-13.617,0-10.477,5.248-17.811,8.39-24.117v-1.055h8.391c13.613,0,38.787-6.281,38.787-22.008,0-6.279-6.281-13.617-16.784-13.617-20.998,2.086-54.537,33.539-54.537,62.883M428.105,496.551c4.193,0,7.333,3.141,7.333,7.336,0,10.477-11.531,15.727-31.453,15.727,3.143-7.336,14.674-23.063,24.12-23.063" fill="#fff"/>
</svg>