<?xml version="1.0" encoding="UTF-8"?>
<svg id="Layer_1" xmlns="http://www.w3.org/2000/svg" width="1024" height="1024" version="1.1" viewBox="0 0 1024 1024">
  <!-- Generator: Adobe Illustrator 29.5.1, SVG Export Plug-In . SVG Version: 2.1.0 Build 141)  -->
  <polygon points="103.019 363.551 .013 581.681 42.428 581.681 57.575 548.356 157.552 548.356 142.403 518.06 72.723 518.06 118.167 418.083 193.907 581.681 236.32 581.681 133.315 363.551 103.019 363.551" fill="#c00"/>
  <polygon points="196.936 363.551 299.942 581.68 330.238 581.68 433.244 363.551 390.83 363.551 315.09 530.178 239.35 363.551 196.936 363.551" fill="#c00"/>
  <polygon points="390.83 581.681 493.836 363.551 524.131 363.551 627.138 581.681 584.723 581.681 508.984 418.083 463.54 518.059 533.22 518.059 548.369 548.355 448.392 548.355 433.243 581.681 390.83 581.681" fill="#c00"/>
  <polygon points="784.676 363.551 705.908 533.208 639.256 363.551 593.812 363.551 684.699 578.652 645.315 660.449 687.729 660.449 830.12 363.551 784.676 363.551" fill="#c00"/>
  <polygon points="787.705 581.681 890.711 363.551 921.007 363.551 1024.014 581.681 981.599 581.681 905.86 418.083 860.415 518.059 930.095 518.059 945.245 548.355 845.268 548.355 830.119 581.681 787.705 581.681" fill="#c00"/>
</svg>