<?xml version="1.0" encoding="UTF-8"?>
<svg id="Layer_1" xmlns="http://www.w3.org/2000/svg" width="1024" height="1024" version="1.1" viewBox="0 0 1024 1024">
  <!-- Generator: Adobe Illustrator 29.5.1, SVG Export Plug-In . SVG Version: 2.1.0 Build 141)  -->
  <path d="M261.434,576.636c.25,9.514,1.828,12.68,4.27,13.532,2.075.735,4.398.859,6.347.859,1.336,0,2.067.236,2.067.98,0,.976-1.091,1.212-2.799,1.212-7.935,0-12.813-.358-15.124-.358-1.102,0-6.836.358-13.173.358-1.585,0-2.695-.122-2.695-1.212,0-.744.741-.98,1.964-.98,1.577,0,3.774-.124,5.489-.603,3.171-.976,3.658-4.52,3.774-15.129l1.102-72.206c0-2.425.36-4.143,1.588-4.143,1.341,0,2.437,1.577,4.505,3.783,1.464,1.578,20.013,21.462,37.816,39.146,8.29,8.298,24.763,25.864,26.833,27.81h.603l-1.217-54.758c-.119-7.434-1.223-9.754-4.145-10.982-1.828-.732-4.762-.732-6.467-.732-1.461,0-1.951-.371-1.951-1.102,0-.97,1.346-1.085,3.171-1.085,6.349,0,12.199.353,14.753.353,1.346,0,5.977-.353,11.957-.353,1.588,0,2.809.115,2.809,1.085,0,.732-.73,1.102-2.196,1.102-1.217,0-2.196,0-3.655.372-3.425.979-4.398,3.534-4.515,10.352l-1.336,76.968c0,2.683-.488,3.78-1.589,3.78-1.347,0-2.811-1.34-4.155-2.677-7.676-7.33-23.289-23.3-35.967-35.866-13.311-13.173-26.84-28.422-29.031-30.734h-.369l1.337,51.228" fill="#0083a9"/>
  <path d="M448.669,549.442c0-27.331-15.74-44.27-35.741-44.27-14.033,0-30.009,7.788-30.009,38.177,0,25.36,14.027,45.475,37.449,45.475,8.544,0,28.301-4.147,28.301-39.382M366.091,547.109c0-20.843,13.787-47.804,50.371-47.804,30.367,0,49.276,17.692,49.276,45.621s-19.514,50-50.501,50c-34.997,0-49.146-26.217-49.146-47.817" fill="#0083a9" data-split="true"/>
  <path d="M491.491,512.96c-2.799-6.705-4.875-8.037-9.265-9.262-1.832-.486-3.785-.486-4.758-.486-1.095,0-1.457-.371-1.457-1.101,0-.97,1.336-1.085,3.162-1.085,6.464,0,13.417.352,17.69.352,3.051,0,8.893-.352,14.998-.352,1.468,0,2.804.238,2.804,1.085,0,.864-.724,1.101-1.83,1.101-1.938,0-3.77.124-4.756.855-.851.599-1.211,1.457-1.211,2.559,0,1.588,1.092,5.001,2.79,9.389l20.99,55.388h.483c5.246-13.427,21.1-52.705,24.02-60.746.612-1.598,1.105-3.423,1.105-4.518,0-.968-.493-1.956-1.588-2.327-1.466-.477-3.288-.601-4.885-.601-1.076,0-2.068-.122-2.068-.979,0-.969,1.095-1.207,3.426-1.207,6.085,0,11.218.352,12.805.352,2.071,0,7.804-.352,11.461-.352,1.588,0,2.559.238,2.559,1.085,0,.864-.744,1.101-1.956,1.101s-3.776,0-5.98,1.454c-1.589,1.105-3.407,3.185-6.705,10.979-4.754,11.473-8.042,18.054-14.619,33.071-7.824,17.802-13.547,31.095-16.224,37.187-3.176,7.081-3.92,9.022-5.611,9.022-1.587,0-2.327-1.707-4.639-7.434l-30.741-74.532" fill="#0083a9" />
  <path d="M629.229,555.284c.607,0,.729-.358.607-.72l-10.97-30.122c-.134-.503-.246-1.115-.617-1.115s-.612.612-.744,1.115l-11.207,30c-.133.484,0,.843.483.843h22.447M604.333,561.388c-.602,0-.85.256-1.075.981l-6.598,17.442c-1.226,3.032-1.833,5.971-1.833,7.439,0,2.198,1.108,3.776,4.885,3.776h1.824c1.455,0,1.835.237,1.835.981,0,.976-.74,1.212-2.071,1.212-3.91,0-9.155-.358-12.937-.358-1.332,0-8.041.358-14.381.358-1.598,0-2.331-.236-2.331-1.212,0-.744.492-.981,1.463-.981,1.114,0,2.806-.122,3.783-.236,5.619-.745,7.936-4.886,10.363-10.979l30.62-76.598c1.459-3.535,2.202-4.885,3.425-4.885,1.085,0,1.81,1.102,3.037,3.906,2.932,6.717,22.442,56.491,30.247,75.008,4.649,10.961,8.173,12.681,10.741,13.293,1.825.369,3.658.492,5.123.492.971,0,1.587.124,1.587.981,0,.976-1.113,1.212-5.61,1.212-4.397,0-13.297,0-23.067-.236-2.19-.122-3.653-.122-3.653-.976,0-.744.497-.981,1.71-1.104.867-.246,1.707-1.342,1.095-2.806l-9.761-25.844c-.237-.61-.592-.866-1.2-.866h-27.222Z" fill="#0083a9" data-split="true"/>
  <path d="M715.181,546.016c0,1.349.236,1.838,1.085,2.198,2.564.863,6.23,1.227,9.273,1.227,4.871,0,6.469-.507,8.663-2.076,3.643-2.682,7.187-8.288,7.187-18.295,0-17.329-11.447-22.311-18.66-22.311-3.051,0-5.241.104-6.463.476-.849.257-1.085.74-1.085,1.718v37.063M700.79,536.372c0-18.526,0-21.944-.246-25.838-.251-4.137-1.227-6.105-5.259-6.95-.968-.248-3.047-.372-4.754-.372-1.341,0-2.071-.237-2.071-1.102,0-.845.864-1.085,2.683-1.085,6.474,0,14.144.353,16.707.353,4.156,0,13.414-.353,17.206-.353,7.673,0,15.856.722,22.432,5.23,3.426,2.328,8.293,8.538,8.293,16.722,0,9.017-3.785,17.319-16.102,27.299,10.861,13.689,19.275,24.535,26.478,32.089,6.829,7.083,11.818,7.937,13.651,8.293,1.351.246,2.445.369,3.422.369.962,0,1.456.369,1.456.98,0,.977-.864,1.212-2.305,1.212h-11.594c-6.824,0-9.876-.596-13.049-2.316-5.237-2.806-9.876-8.539-16.712-17.926-4.879-6.715-10.484-15.003-12.07-16.837-.62-.734-1.341-.858-2.198-.858l-10.604-.237c-.613,0-.972.237-.972.971v1.71c0,11.339,0,20.969.597,26.11.376,3.539,1.104,6.208,4.761,6.696,1.835.256,4.517.493,5.962.493.99,0,1.483.369,1.483.98,0,.854-.861,1.212-2.446,1.212-7.07,0-16.102-.358-17.934-.358-2.318,0-9.988.358-14.875.358-1.588,0-2.437-.358-2.437-1.212,0-.61.479-.98,1.944-.98,1.833,0,3.298-.237,4.398-.493,2.443-.488,3.041-3.157,3.533-6.696.622-5.141.622-14.771.622-25.985v-21.481Z" fill="#0083a9" data-split="true"/>
  <path d="M823.759,507.852l-18.193.487c-7.068.245-9.973.854-11.817,3.527-1.222,1.834-1.834,3.297-2.081,4.273-.245.971-.614,1.474-1.34,1.474-.844,0-1.085-.617-1.085-1.966,0-1.948,2.321-13.033,2.559-14.012.36-1.587.724-2.329,1.463-2.329.963,0,2.195,1.217,5.232,1.473,3.534.362,8.184.601,12.21.601h48.281c7.815,0,10.742-1.22,11.71-1.22.868,0,.98.727.98,2.569,0,2.558-.361,10.971-.361,14.155-.117,1.217-.355,1.938-1.094,1.938-.981,0-1.228-.606-1.351-2.441l-.114-1.331c-.246-3.184-3.535-6.59-14.4-6.835l-15.372-.363v50.001c0,11.214,0,20.844.626,26.099.374,3.425,1.095,6.095,4.753,6.583,1.705.256,4.392.493,6.217.493,1.33,0,1.951.369,1.951.981,0,.853-.971,1.211-2.322,1.211-8.041,0-15.721-.358-19.143-.358-2.805,0-10.496.358-15.363.358-1.596,0-2.429-.358-2.429-1.211,0-.612.463-.981,1.936-.981,1.834,0,3.298-.237,4.394-.493,2.428-.488,3.173-3.157,3.534-6.696.615-5.141.615-14.771.615-25.985v-50.001" fill="#0083a9" />
  <path d="M911.93,536.372c0-18.526,0-21.944-.241-25.838-.249-4.137-1.466-6.228-4.142-6.836-1.351-.362-2.948-.486-4.394-.486-1.236,0-1.958-.237-1.958-1.216,0-.732.987-.971,2.931-.971,4.634,0,12.309.353,15.854.353,3.051,0,10.244-.353,14.875-.353,1.597,0,2.578.24,2.578.971,0,.979-.745,1.216-1.967,1.216s-2.19.124-3.644.372c-3.308.599-4.278,2.67-4.524,6.95-.249,3.894-.249,7.312-.249,25.838v21.481c0,11.831,0,21.465.494,26.72.374,3.278,1.217,5.473,4.871,5.961,1.71.256,4.387.493,6.226.493,1.337,0,1.958.369,1.958.98,0,.854-.973,1.212-2.323,1.212-8.05,0-15.74-.358-19.038-.358-2.801,0-10.477.358-15.344.358-1.607,0-2.449-.358-2.449-1.212,0-.61.473-.98,1.938-.98,1.834,0,3.317-.237,4.403-.493,2.439-.488,3.165-2.549,3.535-6.085.61-5.132.61-14.766.61-26.597v-21.481" fill="#0083a9"/>
  <path d="M975.321,591.751c-1.938-.848-2.307-1.45-2.307-4.126,0-6.714.492-14.04.605-15.998.133-1.824.484-3.166,1.465-3.166,1.092,0,1.227,1.111,1.227,2.061,0,1.597.473,4.157,1.085,6.236,2.686,9.025,9.884,12.321,17.452,12.321,10.97,0,16.336-7.435,16.336-13.908,0-5.98-1.833-11.714-11.958-19.509l-5.615-4.397c-13.407-10.496-18.045-19.02-18.045-28.91,0-13.404,11.222-23.051,28.176-23.051,7.927,0,13.046,1.218,16.22,2.074,1.108.256,1.72.618,1.72,1.464,0,1.588-.488,5.132-.488,14.637,0,2.682-.371,3.663-1.352,3.663-.851,0-1.221-.734-1.221-2.197,0-1.1-.602-4.876-3.157-8.052-1.838-2.311-5.382-5.971-13.31-5.971-9.022,0-14.504,5.248-14.504,12.558,0,5.602,2.804,9.871,12.926,17.575l3.407,2.551c14.638,11.33,20.016,19.513,20.016,31.103,0,7.06-2.691,15.496-11.481,21.215-6.103,3.917-12.913,5.002-19.386,5.002-7.079,0-12.556-.846-17.812-3.175" fill="#0083a9" />
  <path d="M74.422,601.3c-67.674-5.175-88.246-44.093-65.579-87.895,12.209-23.586,30.865-48.976,8.634-72.434-.604-.765-.103-1.249.829-.827,50.622,20.167,24.28,60.917,15.639,77.786-17.037,33.275-6.165,73.679,40.476,82.374,1.026.219.948,1.085,0,.996" fill="#f15d22" />
  <path d="M83.461,564.192l11.437-141.473-26.825-.026,14.441,141.499c.069.909.871.881.948,0" fill="#0083a9" />
  <path d="M114.086,492.975c16.716,13.151,43.97,86.244-22.552,107.302-1.085.276-.996,1.085.009.996,105.822-13.236,69.457-89.162,23.439-109.189-1.225-.589-1.802.185-.896.891" fill="#fcb034" />
</svg>