<?xml version="1.0" encoding="UTF-8"?>
<svg id="Layer_1" xmlns="http://www.w3.org/2000/svg" width="1024" height="1024" version="1.1" viewBox="0 0 1024 1024">
  <!-- Generator: Adobe Illustrator 29.5.1, SVG Export Plug-In . SVG Version: 2.1.0 Build 141)  -->
  <polyline points="404.141 451.65 300.417 451.65 300.417 474.587 338.712 474.587 338.712 572.363 365.886 572.363 365.886 474.587 404.182 474.587 404.182 451.65" fill="#ec1a2f" data-split="true"/>
  <polyline points="538.583 451.691 570.605 451.691 600.467 503.553 630.329 451.65 662.31 451.65 614.033 527.711 614.033 572.363 586.901 572.363 586.901 527.711 538.583 451.65" fill="#ec1a2f" />
  <polyline points="900.395 451.65 796.671 451.65 796.671 474.587 834.966 474.587 834.966 572.363 862.14 572.363 862.14 474.587 900.354 474.587 900.354 451.65" fill="#ec1a2f" />
  <path d="M474.214,448.024c-35.336,0-63.982,28.646-63.982,63.982s28.646,63.982,63.982,63.982,63.982-28.646,63.982-63.982-28.646-63.982-63.982-63.982h0ZM505.583,531.378c-4.252,10.716-13.746,18.469-25.096,20.492-2.071.371-4.17.561-6.274.57-2.159,0-4.278-.204-6.315-.57-11.341-2.022-20.824-9.778-25.055-20.492-2.426-6.177-3.67-12.756-3.667-19.392.001-6.623,1.245-13.187,3.667-19.352,4.227-10.726,13.708-18.496,25.055-20.533,4.174-.772,8.455-.772,12.629,0,11.338,2.029,20.817,9.782,25.055,20.492,4.864,12.471,4.864,26.314,0,38.784" fill="#ec1a2f" />
  <path d="M662.84,511.986c-.021-35.325,28.599-63.979,63.924-64,35.325-.021,63.979,28.599,64,63.924v.076c-.021,35.325-28.674,63.945-64,63.924-35.296-.021-63.903-28.628-63.924-63.924ZM726.802,552.441c2.118,0,4.237-.204,6.274-.57,11.341-2.022,20.824-9.778,25.055-20.492,4.893-12.451,4.893-26.293,0-38.744-4.231-10.715-13.714-18.47-25.055-20.492-4.177-.749-8.453-.749-12.629,0-11.326,2.035-20.791,9.788-25.014,20.492-2.422,6.164-3.666,12.728-3.667,19.352,0,6.844,1.304,13.403,3.667,19.392,4.225,10.719,13.711,18.478,25.055,20.492,2.084.375,4.197.566,6.315.57" fill="#ec1a2f" data-split="true"/>
  <path d="M189.604,435.68c-18.908-5.732-38.583-8.535-58.34-8.311-19.757-.224-39.431,2.579-58.34,8.311C29.74,449.572,0,478.416,0,511.66c0,46.81,58.666,84.984,131.264,84.984s131.264-38.01,131.264-84.984c0-33.244-29.659-62.088-72.925-75.98h0ZM131.264,560.181c-10.837,0-19.677-21.185-20.166-48.032,6.437.693,13.2.856,20.166.856,6.926,0,13.729-.326,20.207-.815-.53,26.766-9.37,47.992-20.207,47.992h0ZM112.442,491.331c2.852-18.863,10.185-32.062,18.822-32.062,8.474,0,15.766,13.2,18.822,32.022-12.522,1.119-25.119,1.133-37.644.041ZM161.616,489.783c-4.4-29.333-16.296-50.518-30.351-50.518s-25.951,21.022-30.351,50.518c-26.644-4.237-45.303-13.566-45.303-24.607,0-14.911,33.936-26.97,75.654-26.97s75.695,12.059,75.695,26.97c0,11-18.659,20.533-45.303,24.607h-.041ZM19.148,508.604c0-14.422,5.622-27.825,15.278-39.518-.163.815-.163,1.711-.163,2.363,0,18.17,27.133,33.407,64.94,39.192v4.074c0,33.57,9.37,62.088,22.244,71.906-57.321-3.381-102.257-36.992-102.257-78.017h-.041ZM141.123,586.825c12.874-9.859,22.203-38.377,22.203-71.947v-4.074c37.807-5.581,64.94-21.022,64.94-39.151,0-.856,0-1.711-.163-2.404,9.623,10.941,15.039,24.949,15.278,39.518,0,40.862-44.936,74.473-102.257,78.017v.041Z" fill="#ec1a2f" />
  <path d="M983.871,545.719h-51.332l-9.9,26.562h-30.229l48.888-120.713h33.814l48.888,120.713h-30.148l-9.981-26.562ZM976.008,524.615l-17.763-47.707-17.803,47.666h35.566" fill="#ec1a2f" data-split="true"/>
</svg>