<?xml version="1.0" encoding="UTF-8"?>
<svg id="Layer_1" xmlns="http://www.w3.org/2000/svg" width="1024" height="1024" version="1.1" viewBox="0 0 1024 1024">
  <!-- Generator: Adobe Illustrator 29.5.1, SVG Export Plug-In . SVG Version: 2.1.0 Build 141)  -->
  <path d="M79.07,421.143v-.836c15.047-4.18,25.913-15.882,25.913-32.601,0-27.585-23.406-38.452-45.976-38.452H-.342v151.301h54.335c29.257,0,57.678-10.031,57.678-43.468,0-18.39-14.211-34.273-32.601-35.944ZM26.407,372.659h22.57c20.062,0,29.257,5.851,29.257,19.226,0,11.703-9.195,19.226-26.749,19.226h-24.242l-.836-38.452h0ZM51.484,477.149h-24.242v-43.468h25.078c21.734,0,32.601,5.851,32.601,21.734,0,20.062-19.226,21.734-33.437,21.734h0Z" fill="#fff" fill-rule="evenodd"/>
  <path d="M227.863,395.229c-30.929,0-56.007,21.734-56.007,54.335,0,31.765,25.078,53.499,56.007,53.499s55.171-21.734,55.171-53.499c0-32.601-24.242-54.335-55.171-54.335h0ZM227.863,479.657c-12.539.836-24.242-6.687-29.257-18.39-5.016-10.867-2.508-24.242,6.687-33.437,8.359-9.195,21.734-11.703,33.437-6.687,11.703,4.18,19.226,15.882,19.226,28.421,0,7.523-3.344,15.882-8.359,21.734-5.851,5.851-14.211,9.195-21.734,8.359Z" fill="#fff" fill-rule="evenodd"/>
  <path d="M350.743,395.229c-30.929,0-56.007,21.734-56.007,54.335,0,31.765,25.078,53.499,56.007,53.499s55.171-21.734,55.171-53.499c0-32.601-24.242-54.335-55.171-54.335ZM350.743,479.657c-12.539.836-24.242-6.687-29.257-18.39-5.015-10.867-2.508-24.242,6.687-33.437,8.359-9.195,21.734-11.703,33.437-6.687,11.703,4.18,19.226,15.882,19.226,28.421,0,7.523-3.344,15.882-8.359,21.734-5.851,5.851-14.211,9.195-21.734,8.359h0Z" fill="#fff" fill-rule="evenodd"/>
  <path d="M580.621,439.533v61.022h-25.913v-58.514c0-12.539-3.344-23.406-18.39-23.406-15.882,0-22.57,12.539-22.57,25.913v56.007h-25.078v-61.022c0-12.539-5.015-20.898-17.554-20.898-16.718,0-23.406,12.539-23.406,25.913v56.007h-25.913v-102.818h24.242v16.718h.836c5.851-12.539,18.39-20.062,30.929-19.226,15.882,0,26.749,6.687,32.601,19.226,6.687-12.539,19.226-20.062,33.437-19.226,27.585,0,36.78,20.062,36.78,44.304h0Z" fill="#fff"/>
  <path d="M662.541,395.229c-13.375,0-25.913,5.851-34.273,15.882h-.836v-65.202h-25.914v154.645h24.242v-15.047h.836c7.523,11.703,20.898,18.39,35.109,17.554,30.929,0,50.155-23.406,50.155-53.499,0-30.929-20.062-54.335-49.319-54.335v.002h0ZM655.853,479.657c-12.539.836-23.406-6.687-28.421-18.39-5.015-11.703-2.508-25.078,6.687-33.437,8.359-9.195,21.734-11.703,33.437-6.687,11.703,4.18,19.226,15.882,19.226,28.421,0,7.523-3.344,15.882-9.195,21.734-5.015,5.851-13.375,9.195-20.898,8.359h-.836Z" fill="#fff" fill-rule="evenodd"/>
  <path d="M779.569,395.229c-30.929,0-56.007,21.734-56.007,54.335,0,31.765,25.078,53.499,56.007,53.499,16.718.836,32.601-6.687,43.468-20.062l-18.39-14.211c-6.687,9.195-16.718,14.211-27.585,14.211-14.211,0-26.749-10.867-27.585-25.078h77.74v-6.687c0-35.944-19.226-56.007-47.647-56.007h0ZM749.476,438.697c1.672-14.211,10.867-24.242,25.913-24.242,16.718,0,25.913,9.195,26.749,24.242h-52.663,0Z" fill="#fff" fill-rule="evenodd"/>
  <path d="M900.778,395.229c2.508,0,5.851.836,9.195,1.672v25.078c-4.18-1.672-8.359-1.672-12.539-2.508-7.523,0-14.211,2.508-19.226,7.523-5.851,5.016-8.359,11.703-8.359,18.39v55.171h-25.913v-102.818h25.913v16.718c5.851-11.703,17.554-19.226,30.929-19.226Z" fill="#fff"/>
  <path d="M999.416,397.737v15.882h-.836c-7.523-11.703-20.898-19.226-35.109-18.39-31.765,0-50.155,23.406-50.155,54.335,0,28.421,20.062,51.827,50.991,51.827,12.539.836,25.078-5.016,33.437-14.211v6.687c0,20.898-7.523,35.109-31.765,35.109-13.375,0-25.913-5.851-35.945-15.047l-15.047,20.898c14.211,12.539,31.765,16.718,50.991,16.718,40.124,0,57.678-23.406,57.678-60.186v-93.623h-24.242.002,0ZM969.323,478.821c-8.359,0-15.882-3.344-21.734-8.359-5.851-5.851-8.359-13.375-8.359-21.734-.836-7.523,2.508-15.882,8.359-21.734,5.851-5.851,13.375-8.359,21.734-8.359,8.359-.836,15.882,2.508,21.734,8.359,5.851,5.851,9.195,13.375,8.359,21.734.836,8.359-2.508,15.882-8.359,21.734-5.851,5.851-13.375,9.195-21.734,8.359Z" fill="#fff" fill-rule="evenodd"/>
  <rect x="129.225" y="345.91" width="25.913" height="154.645" fill="#fff"/>
<!-- “L” -->
<polygon
  points="-0.342 524.788 26.407 524.788 26.407 651.012 90.773 651.012 90.773 675.254 -0.342 675.254 -0.342 524.789 -0.342 524.788"
  fill="#00d5b2"
/>

<!-- “a” -->
<path
  d="M174.364,661.879c-3.344,5.015-7.523,9.195-12.539,11.703-5.851,2.508-12.539,4.18-19.226,4.18-4.18,0-9.195-.836-13.375-1.672s-8.359-2.508-11.703-5.015c-4.18-2.508-7.523-5.851-9.195-10.031-3.344-5.015-4.18-10.031-4.18-15.047,0-6.687,1.672-13.375,6.687-18.39,4.18-4.18,10.031-8.359,16.718-10.031,7.523-2.508,15.047-4.18,22.57-5.016,8.359-.836,15.882-.836,24.242-.836v-2.508c0-5.851-2.508-11.703-6.687-14.211-5.016-3.344-10.867-5.016-16.718-5.016-5.016,0-10.867,1.672-15.882,3.344-4.18,2.508-8.359,5.016-11.703,8.359l-13.375-15.047c5.851-5.851,12.539-10.031,20.062-12.539s15.047-4.18,22.57-4.18c8.359,0,15.882.836,22.57,4.18,5.851,1.672,10.031,5.016,14.211,10.031,3.344,4.18,5.851,8.359,6.687,13.375,1.672,5.016,2.508,10.031,2.508,15.882v61.858h-24.242v-13.375.002h0ZM174.364,628.442h-5.851c-4.18,0-8.359,0-13.375.836-4.18,0-8.359.836-11.703,2.508-4.18.836-7.523,2.508-10.031,5.015-2.508,1.672-4.18,5.015-3.344,8.359-.836,2.508,0,4.18.836,6.687,1.672,1.672,3.344,2.508,5.016,3.344,1.672,1.672,3.344,1.672,5.851,2.508,1.672,0,4.18.836,5.851.836,7.523,0,15.047-2.508,20.062-7.523,5.016-5.015,7.523-11.703,6.687-19.226v-3.344h.001Z"
  fill="#00d5b2"
  fill-rule="evenodd"
  data-split="true"
/>

<!-- “w” -->
<polygon
  points="205.293 573.271 232.878 573.271 253.776 645.996 254.612 645.996 276.346 573.271 303.095 573.271 325.665 645.996 347.399 573.271 374.148 573.271 339.039 675.253 313.126 675.253 289.72 603.364 288.884 603.364 266.314 675.253 240.401 675.253 205.292 573.271 205.293 573.271"
  fill="#00d5b2"
/>

</svg>