<?xml version="1.0" encoding="UTF-8"?>
<svg id="Layer_1" xmlns="http://www.w3.org/2000/svg" width="1024" height="1024" version="1.1" viewBox="0 0 1024 1024">
  <!-- Generator: Adobe Illustrator 29.5.1, SVG Export Plug-In . SVG Version: 2.1.0 Build 141)  -->
  <path d="M72.828,600.678c.117,4.788,1.077,8.264,3.349,10.54,2.397,2.278,5.63,3.474,10.422,3.474,7.543,0,15.686-1.796,15.686-8.744,0-1.561-.605-2.877-1.557-3.956-4.909-5.505-46.222-9.578-57.843-19.755-4.664-4.075-6.108-10.179-6.108-15.085,0-18.921,17.367-27.427,51.976-27.427,36.762,0,47.903,10.184,48.38,28.026h-35.684c-.241-4.8-1.8-7.793-4.432-9.59-2.516-1.794-6.106-2.383-10.657-2.383-7.665,0-11.742,2.865-11.742,7.302,0,1.314.48,2.994,1.559,3.944,5.63,5.389,45.631,9.226,57.122,19.519,3.357,2.996,6.829,7.667,6.829,16.059,0,17.115-15.089,28.137-54.491,28.137-46.941,0-49.217-14.016-49.937-30.062h37.128Z" fill="#0095d6" fill-rule="evenodd"/>
  <polygon points="171.736 563.08 143.358 563.08 143.358 542.001 236.524 542.001 236.524 563.08 208.144 563.08 208.144 628.461 171.736 628.461 171.736 563.08" fill="#0095d6" fill-rule="evenodd"/>
  <path d="M273.414,595.17l14.008-30.176,13.413,30.176h-27.422ZM222.274,628.461h35.684l6.713-14.368h44.67l6.341,14.368h40.122l-44.07-86.46h-45.388l-44.072,86.46Z" fill="#0095d6" fill-rule="evenodd"/>
  <path d="M395.2,559.477h13.289c8.866,0,14.376,2.64,14.376,10.305,0,8.145-5.99,10.54-13.775,10.54h-13.89v-20.845ZM358.792,628.461h36.409v-31.376h11.016c12.453,0,14.012,1.444,15.682,12.101l2.998,19.274h36.407l-4.668-28.981c-1.44-8.746-8.382-11.738-16.765-11.973v-1.197c10.773-1.915,18.682-9.098,18.682-20.474,0-19.166-14.615-23.835-38.209-23.835h-61.552v86.46Z" fill="#0095d6" fill-rule="evenodd"/>
  <polygon points="462.742 542.001 497.945 542.001 509.444 596.006 509.8 596.006 525.968 542.001 566.565 542.001 582.494 596.006 582.85 596.006 594.228 542.001 626.924 542.001 606.44 628.461 560.572 628.461 545.131 575.886 544.766 575.886 529.202 628.461 482.979 628.461 462.742 542.001" fill="#0095d6" fill-rule="evenodd"/>
  <path d="M707.509,585.228c0,17.725-8.738,25.872-20.715,25.872s-20.719-8.147-20.719-25.872,8.746-25.859,20.719-25.859,20.715,8.136,20.715,25.859M744.636,585.228c0-25.859-15.569-45.504-57.843-45.504-22.274,0-32.927,3.715-41.197,9.586-9.936,7.057-16.641,19.158-16.641,35.919,0,25.872,15.561,45.51,57.837,45.51,22.278,0,37.243-5.987,46.585-14.967,7.179-6.831,11.258-17.243,11.258-30.544" fill="#0095d6" fill-rule="evenodd"/>
  <path d="M828.701,585.228c0,17.725-8.74,25.872-20.715,25.872s-20.723-8.147-20.723-25.872,8.746-25.859,20.723-25.859,20.715,8.136,20.715,25.859M865.823,585.228c0-25.859-15.561-45.504-57.837-45.504-22.278,0-32.933,3.715-41.197,9.586-9.94,7.057-16.646,19.158-16.646,35.919,0,25.872,15.569,45.51,57.843,45.51,22.27,0,37.235-5.987,46.585-14.967,7.183-6.831,11.252-17.243,11.252-30.544" fill="#0095d6" fill-rule="evenodd"/>
  <path d="M912.646,561.637h10.064c16.52,0,26.465,7.428,26.465,23.592s-9.945,23.592-26.465,23.592h-10.064v-47.184ZM876.246,628.461h52.563c26.71,0,36.288-3.348,46.477-11.491,7.537-5.987,11.726-18.324,11.726-31.024,0-12.935-4.306-23.349-10.54-29.698-11.848-11.973-28.376-14.247-53.881-14.247h-46.344v86.46Z" fill="#0095d6" fill-rule="evenodd"/>
  <polygon points="22.38 696.748 5.837 696.748 5.837 708.723 2.128 708.723 2.128 682.981 5.837 682.981 5.837 693.821 22.38 693.821 22.38 682.981 26.087 682.981 26.087 708.723 22.38 708.723 22.38 696.748" fill="#d2d5d7" fill-rule="evenodd"/>
  <path d="M42.599,695.852c0-6.339,4.31-10.626,10.546-10.626s10.558,4.286,10.558,10.626-4.316,10.628-10.558,10.628-10.546-4.279-10.546-10.628M38.672,695.852c0,6.135,3.672,13.555,14.473,13.555s14.477-7.42,14.477-13.555-3.668-13.546-14.477-13.546-14.473,7.42-14.473,13.546" fill="#d2d5d7" fill-rule="evenodd"/>
  <polygon points="87.058 686.123 76.152 686.123 76.152 682.982 101.679 682.982 101.679 686.123 90.767 686.123 90.767 708.724 87.058 708.724 87.058 686.123" fill="#d2d5d7" fill-rule="evenodd"/>
  <polygon points="112.018 682.981 131.271 682.981 131.271 685.909 115.723 685.909 115.723 694.035 130.272 694.035 130.272 696.962 115.723 696.962 115.723 705.805 131.699 705.805 131.699 708.723 112.018 708.723 112.018 682.981" fill="#d2d5d7" fill-rule="evenodd"/>
  <polygon points="144.925 682.981 148.638 682.981 148.638 705.805 163.467 705.805 163.467 708.723 144.925 708.723 144.925 682.981" fill="#d2d5d7" fill-rule="evenodd"/>
  <path d="M192.341,689.835c-.352-3.604-4.02-4.607-8.196-4.607-3.674,0-6.773,1.816-6.773,4.671,0,1.388.855,2.811,4.032,3.355l9.588,1.639c4.166.704,6.094,3.099,6.094,6.273,0,5.132-4.597,8.24-12.231,8.24-7.305,0-11.549-2.714-12.012-8.379h3.921c.107,3.462,3.427,5.453,8.309,5.453,5.35,0,8.303-2.107,8.303-4.92,0-7.142-19.71-.682-19.71-11.448,0-4.961,4.199-7.805,11.228-7.805,5.348,0,11.018,1.604,11.376,7.527h-3.929Z" fill="#d2d5d7" fill-rule="evenodd"/>
  <path d="M246.54,703.381c-1.785,1.633-4.494,3.386-8.274,3.386-4.347,0-7.097-2.247-7.097-5.206,0-2.319,2.07-4.349,6.386-5.774l8.985,7.593ZM258.373,708.725l-7.2-5.818c2.78-3.41,3.676-6.52,4.098-10.507h-3.491c-.249,2.953-1.213,5.879-3.136,8.447l-7.953-6.427c3.281-1.561,4.918-3.73,4.918-6.477,0-2.79-2.315-5.634-6.917-5.634-4.807,0-7.125,2.844-7.125,5.805,0,2.074,1.104,3.892,3.53,5.603-5.777,1.998-7.632,4.64-7.632,7.984,0,4.64,4.384,7.708,10.801,7.708,4.813,0,8.132-1.787,10.589-4.028l3.997,3.346h5.521ZM242.473,688.113c0,1.722-1.466,3.388-4.065,4.469-1.814-1.254-3.347-2.747-3.347-4.469,0-2.171,1.921-3.377,3.705-3.377s3.707,1.205,3.707,3.377" fill="#d2d5d7" fill-rule="evenodd"/>
  <path d="M291.531,685.909h8.524c4.531,0,6.236,1.071,6.236,4.203,0,3.283-2.385,4.211-6.306,4.211h-8.454v-8.414ZM291.531,697.242h7.169c4.848,0,6.057,1.326,6.487,3.176.681,2.885,1.069,6.489,1.752,8.305h3.915c-.709-1.678-1.028-3.956-1.458-6.703-.678-4.349-1.606-5.741-5.062-6.168v-.064c3.6-.502,5.88-2.854,5.88-5.995,0-4.139-1.783-6.812-9.733-6.812h-12.655v25.742h3.705v-11.481Z" fill="#d2d5d7" fill-rule="evenodd"/>
  <polygon points="323.336 682.981 342.589 682.981 342.589 685.909 327.045 685.909 327.045 694.035 341.588 694.035 341.588 696.962 327.045 696.962 327.045 705.805 343.017 705.805 343.017 708.723 323.336 708.723 323.336 682.981" fill="#d2d5d7" fill-rule="evenodd"/>
  <path d="M373.819,689.835c-.358-3.604-4.03-4.607-8.2-4.607-3.67,0-6.771,1.816-6.771,4.671,0,1.388.857,2.811,4.026,3.355l9.594,1.639c4.168.704,6.094,3.099,6.094,6.273,0,5.132-4.599,8.24-12.23,8.24-7.311,0-11.551-2.714-12.016-8.379h3.923c.107,3.462,3.42,5.453,8.303,5.453,5.354,0,8.314-2.107,8.314-4.92,0-7.142-19.718-.682-19.718-11.448,0-4.961,4.205-7.805,11.229-7.805,5.346,0,11.018,1.604,11.376,7.527h-3.925Z" fill="#d2d5d7" fill-rule="evenodd"/>
  <path d="M393.607,695.852c0-6.339,4.314-10.626,10.556-10.626s10.55,4.286,10.55,10.626-4.312,10.628-10.55,10.628-10.556-4.279-10.556-10.628M389.684,695.852c0,6.135,3.676,13.555,14.479,13.555s14.471-7.42,14.471-13.555-3.674-13.546-14.471-13.546-14.479,7.42-14.479,13.546" fill="#d2d5d7" fill-rule="evenodd"/>
  <path d="M434.501,685.909h8.524c4.526,0,6.238,1.071,6.238,4.203,0,3.283-2.389,4.211-6.31,4.211h-8.452v-8.414ZM434.501,697.242h7.167c4.852,0,6.061,1.326,6.489,3.176.674,2.885,1.069,6.489,1.748,8.305h3.915c-.706-1.678-1.026-3.956-1.454-6.703-.677-4.349-1.606-5.741-5.062-6.168v-.064c3.6-.502,5.879-2.854,5.879-5.995,0-4.139-1.779-6.812-9.73-6.812h-12.659v25.742h3.707v-11.481Z" fill="#d2d5d7" fill-rule="evenodd"/>
  <polygon points="473.156 686.123 462.245 686.123 462.245 682.982 487.775 682.982 487.775 686.123 476.866 686.123 476.866 708.724 473.156 708.724 473.156 686.123" fill="#d2d5d7" fill-rule="evenodd"/>
  <path d="M516.153,689.835c-.358-3.604-4.028-4.607-8.2-4.607-3.67,0-6.771,1.816-6.771,4.671,0,1.388.853,2.811,4.026,3.355l9.596,1.639c4.166.704,6.096,3.099,6.096,6.273,0,5.132-4.603,8.24-12.234,8.24-7.309,0-11.553-2.714-12.018-8.379h3.927c.107,3.462,3.418,5.453,8.305,5.453,5.352,0,8.31-2.107,8.31-4.92,0-7.142-19.716-.682-19.716-11.448,0-4.961,4.205-7.805,11.232-7.805,5.34,0,11.013,1.604,11.372,7.527h-3.927Z" fill="#d2d5d7" fill-rule="evenodd"/>
  <polygon points="589.106 682.981 593.023 682.981 584.075 708.723 578.939 708.723 571.06 686.123 570.986 686.123 563.113 708.723 557.975 708.723 549.027 682.981 552.946 682.981 560.541 705.592 560.617 705.592 568.532 682.981 573.517 682.981 581.435 705.592 581.508 705.592 589.106 682.981" fill="#d2d5d7" fill-rule="evenodd"/>
  <path d="M605.681,695.852c0-6.339,4.318-10.626,10.556-10.626s10.552,4.286,10.552,10.626-4.316,10.628-10.552,10.628-10.556-4.279-10.556-10.628M601.759,695.852c0,6.135,3.672,13.555,14.479,13.555s14.475-7.42,14.475-13.555-3.672-13.546-14.475-13.546-14.479,7.42-14.479,13.546" fill="#d2d5d7" fill-rule="evenodd"/>
  <path d="M646.576,685.909h8.52c4.528,0,6.236,1.071,6.236,4.203,0,3.283-2.383,4.211-6.306,4.211h-8.451v-8.414ZM646.576,697.242h7.169c4.846,0,6.056,1.326,6.487,3.176.673,2.885,1.067,6.489,1.744,8.305h3.921c-.71-1.678-1.03-3.956-1.458-6.703-.678-4.349-1.61-5.741-5.066-6.168v-.064c3.602-.502,5.888-2.854,5.888-5.995,0-4.139-1.786-6.812-9.737-6.812h-12.657v25.742h3.709v-11.481Z" fill="#d2d5d7" fill-rule="evenodd"/>
  <polygon points="678.839 682.981 682.549 682.981 682.549 705.805 697.383 705.805 697.383 708.723 678.839 708.723 678.839 682.981" fill="#d2d5d7" fill-rule="evenodd"/>
  <path d="M711.718,685.909h6.092c8.625,0,11.625,3.272,11.625,9.943,0,5.025-2.251,9.953-10.733,9.953h-6.985v-19.897ZM708.009,708.724h10.55c9.984,0,14.795-4.631,14.795-12.55,0-8.414-3.886-13.192-15.326-13.192h-10.019v25.742Z" fill="#d2d5d7" fill-rule="evenodd"/>
  <polygon points="782.172 682.981 786.085 682.981 777.141 708.723 772.005 708.723 764.126 686.123 764.052 686.123 756.177 708.723 751.039 708.723 742.093 682.981 746.01 682.981 753.607 705.592 753.681 705.592 761.593 682.981 766.585 682.981 774.501 705.592 774.577 705.592 782.172 682.981" fill="#d2d5d7" fill-rule="evenodd"/>
  <rect x="795.999" y="682.982" width="3.707" height="25.742" fill="#d2d5d7"/>
  <path d="M816.534,685.909h6.093c8.629,0,11.629,3.272,11.629,9.943,0,5.025-2.251,9.953-10.735,9.953h-6.987v-19.897ZM812.831,708.724h10.552c9.978,0,14.793-4.631,14.793-12.55,0-8.414-3.892-13.192-15.336-13.192h-10.01v25.742Z" fill="#d2d5d7" fill-rule="evenodd"/>
  <polygon points="850.761 682.981 870.018 682.981 870.018 685.909 854.468 685.909 854.468 694.035 869.013 694.035 869.013 696.962 854.468 696.962 854.468 705.805 870.44 705.805 870.44 708.723 850.761 708.723 850.761 682.981" fill="#d2d5d7" fill-rule="evenodd"/>
  <polygon points="884.984 704.8 889.196 704.8 885.633 712.434 882.705 712.434 884.984 704.8" fill="#d2d5d7" fill-rule="evenodd"/>
  <rect x="921.288" y="682.982" width="3.703" height="25.742" fill="#d2d5d7"/>
  <polygon points="958.897 682.981 962.611 682.981 962.611 708.723 957.545 708.723 941.786 686.766 941.712 686.766 941.712 708.723 938.005 708.723 938.005 682.981 943.071 682.981 958.823 704.95 958.897 704.95 958.897 682.981" fill="#d2d5d7" fill-rule="evenodd"/>
  <path d="M1001.466,701.561c-.818,5.665-6.162,7.846-12.476,7.846-9.203,0-13.444-6.454-13.444-13.555,0-6.125,3.676-13.544,14.477-13.544,6.098,0,10.762,3.068,11.09,7.451h-4.133c-.645-3.357-3.676-4.531-7.24-4.531-5.884,0-10.268,3.386-10.268,10.624s4.384,10.628,10.268,10.628c3.53,0,6.952-1.573,7.601-4.918h4.125Z" fill="#d2d5d7" fill-rule="evenodd"/>
  <rect x="1014.548" y="704.799" width="3.927" height="3.925" fill="#d2d5d7"/>
  <path d="M503.108,472.611c-1.462.173-3.054-.264-4.321-.29-.595-.008-1.32.478-2.165.29-.193-.043-.57-.538-.721-.583-1.952-.498-3.233.943-4.897.583-.117-.019-.548-.538-.729-.583-1.612-.389-2.516.663-4.032.294-.991-.243-3.097-1.077-4.318-1.314-1.094-.198-2.23.183-3.036,0-.078-.014-.432-.533-.578-.583-1.812-.558-2.381-.299-3.886-1.013-.334-.157-.949-.96-1.297-1.019-.354-.058-.797.342-1.153.292-1.505-.229-3.451-1.732-4.183-2.914-.978.138-2.006.161-2.737-.29-2.123-1.318-1.829-3.548-3.174-4.804-.885-.822-2.883-.787-3.884-1.454-2.391-1.577-3.229-4.936-5.628-6.404-.933-.571-1.957-.157-2.877-.869l-.292-.439c-.369-.717-.05-1.759-.288-2.618-.352-1.26-1.925-1.893-2.307-3.058-.467-1.419-.894-3.622-1.586-4.804-.35-.587-1.563-.892-1.876-1.456-.494-.889.054-2.646-.286-3.637-.362-1.061-1.781-2.28-2.02-3.491-.224-1.153.795-1.578.723-2.764-.076-1.252-1.345-2.311-1.588-3.346-.321-1.409.375-2.541.15-3.927-.169-1.007-.601-1.736-.725-2.914-.202-2.047,1.036-2.329.725-4.222-.179-1.069-1.46-1.546-1.3-2.762.027-.22.507-.587.575-.869.334-1.308-.227-3.005.286-4.224.253-.568,1.555-.758,1.734-1.454.249-.943-1.262-2.819-1.009-3.06.69-.643.556-1.683,1.009-2.617.466-.929,1.771-1.901,2.16-2.766.379-.817-.113-1.45,0-2.469.089-.742.777-1.355.869-1.891.161-.962-.369-2.222,0-3.35.074-.214.612-.288.717-.432.424-.562.356-1.273.723-1.899.237-.395.941-.702,1.155-1.162.478-1.021.399-1.957,1.005-2.766.581-.748,1.701-1.149,2.166-2.03.362-.696.321-1.287.717-1.897.397-.608,1.217-.995,1.586-1.602.9-1.448,1.203-3.015,2.16-4.36.521-.721,3.025-2.3,3.174-2.914.124-.476-.437-.803-.288-1.458.138-.581,1.032-1.713,1.443-2.181.599-.681,1.485-.813,2.3-1.307.995-.597,1.899-1.837,2.743-2.622.469-.43,1.201-.342,1.73-.725l2.601-2.914c.391-.834.122-1.475.857-1.89,1.52-.845,3.445-.853,4.897-1.744,1.372-.828,2.133-2.768,3.468-3.639,1.368-.886,2.465-1.159,4.028-1.893,1.586-.729,2.827-2.743,4.471-3.348.674-.237,1.246-.016,1.876-.288,1.102-.468,2.129-2.173,3.318-2.477,1.503-.369,3.445.519,4.895,0,.379-.132.791-1.211,1.158-1.454.737-.474,2.838-1.013,3.6-1.164,1.316-.253,2.782.354,3.456.435.741.097,1.584-.496,2.167-.581,1.104-.16,2.617.377,3.462.146.202-.055.375-.659.576-.729,1.213-.4,3.318,0,4.609,0,0,.021-.016.434,0,.436.863.198,1.376-.373,1.73-.436,3.563-.63,8.332,1.246,9.514,3.202.867-.28,3.837-.778,4.757-.144.027.016,0,.402,0,.434.048-.185.119,1.106-.144.873,0,0,.56.941.727,1.168,1.336,1.946,1.722,1.781,3.596,3.052.023.019.721.585.721.585.466.947-.447,2.224-.146,2.762l.146.295c1.209,1.211,2.768.929,4.185,1.888.379.259.422.83.717,1.165.709.799,2.706,1.683,3.606,2.183.445.251,1.884.311,2.449.873.507.523.26,1.586.719,2.475.206.41.91.779,1.151,1.165l.144.29c.13.645-.404.994-.282,1.748.091.622.951,1.538,1.005,2.181.08.902-.562.902-.29,1.747.305.914,1.903,1.569,2.165,2.471.342,1.192-.011,2.479-.288,3.052,0,0-.344.447-.144.587.496.338.258,1.357.571,1.89.191.321,1.025.531,1.153.877.536,1.39-.27,2.619-.434,3.487-.255,1.479.861,1.489.578,2.912-.245,1.244-1.388,3.266-1.437,4.514-.07,1.662,1.338,3.643.859,5.82-.229,1.106-1.479,1.089-2.16,1.748-.383.379-.768,1.423-1.009,1.896l.144.437c.107.781-.578.762-.434,1.74.06.375.642.884.434,1.746-.053.247-.572.906-.715,1.314-.154.397-.103,1.1-.437,1.74-.505.98-1.86,1.929-2.166,3.21-.097.455.128,1.007,0,1.452-.266.931-1.728,1.478-2.455,2.033-.908.727-1.258,2.02-2.014,2.91-.813.986-2.107,1.742-2.881,2.77-.715.956-1.18,2.366-2.154,3.052-.721.509-1.478.389-2.319.873-.286.175-.434.916-.715,1.16-.653.607-1.649.85-2.306,1.46-.844.795-.898,2.216-1.872,2.912-1.88,1.347-3.771,3-5.622,4.364-.513.383-1.046.161-1.732.434-1.211.505-2.175,1.17-3.752,1.749-.813.299-1.265,1.691-1.868,1.893-.117.037-.793-.241-1.151-.15-.455.116-.925,1.1-1.442,1.168-.739.095-.869-.605-1.444-.585-.367.021-1.823.651-2.595.873-1.769.533-6.654,2.813-9.8,1.598-.408-.152-1.116-.803-1.584-1.013-.595-.27-1.168-.309-1.588-.729-.552-.562-.231-.884-.146-1.456,1.017-.019,1.79.752,3.029.727,2.385-.047,7.029-.807,8.796-1.744.607-.323,3.26-2.212,3.744-2.333,1.347-.296,1.135.601,1.878-.721.5.111,1.024.437,1.726.14.599-.241,1.058-1.17,1.585-1.454,1.747-.937,3.421-1.672,4.903-2.912,1.4-1.159,2.206-3.746,4.467-3.925-.19-.099.134-.426.148-.435,0,0-.14-.56-.148-.731-.019-.731.537-4.059,1.011-4.512.455-.43,1.071-.152,1.728-.438.315-.126.544-.708.865-.875.4-.189.327-.084.577-.288.101-.078.333-.204.43-.293-.639-1.365.554-1.475.723-2.908.167-1.328-.945-2.339-.581-3.929.299-1.234,1.674-1.429,2.17-2.327.71-1.281.315-2.646.715-4.368.204-.824,1.071-1.341,1.443-2.325l.297-.148c.371-2.22-2.047-2.5-1.452-5.381.301-1.448,2.488-1.578,2.747-3.06.292-1.726.138-4.521-.729-5.966-.428-.714-1.699-.883-2.018-1.746-.799-2.237.978-5.093.148-7.566-.258-.778-1.79-.986-2.455-1.456-.542-.385-.663-1.285-1.149-1.744,0,0,.115-.34.142-.443.377-1.034.665-1.697,1.446-2.327-.012-.045-.354-.542-.152-.723-1.104-1.065-1.153-1.917-2.014-3.348-.352-.593-1.473-.867-1.73-1.6-.14-.404.224-.363.144-.729-.268-1.333-2.064-2.164-2.737-3.2-.412-.638-.412-1.547-.861-2.185-.338-.48-1.442-.467-1.87-.877-.498-.453-.146-.852-.443-1.598-.391-.986-2.261-1.336-2.883-2.177-.278-.391-.138-.807-.426-1.168-.354-.451-2.07-1.607-2.743-1.6-.274.01-.89.488-1.155.439-.226-.041-2.562-1.804-3.171-2.041-1.032-.395-2.313-.029-3.027.29-.657-1.075-2.187-1.38-3.602-1.598-1.956-.297-5.548-.292-7.208.29-.202.076-.704.692-.865.729-1.221.29-1.948-.218-3.025.29-.921.437-1.833,1.474-2.739,1.893-1.756.818-3.664.529-5.051,1.602-.766.603-1.246,1.561-2.018,2.181-1.365,1.11-2.885,2.01-4.177,3.201-.414.391-.642,1.17-1.151,1.454-1.851,1.046-3.68,1.575-4.897,3.202-.618.828-.457,1.308-.867,2.473-.132.369-1.302,1.308-1.302,1.308,0,.076.05.552,0,.589.047-.185.158.362.148.432-.128,1.017-1.038,1.221-1.876,1.6-.183.089-.437.307-.575.437-.132.128-.189.247-.292.434.249-.888-.453,2.08-.861,2.77-.467.803-1.911,1.816-2.16,2.617-.187.603.039,1.273-.146,1.744-.146.399-.747.741-.865,1.17-.527,1.888.136,3.135-.721,4.8-.329.645-1.773.844-2.02,1.6-.758,2.393.047,6.262.577,7.861.113.321-.08,1.27,0,1.304-.657.982-.698,1.623-1.299,2.912-.657,1.433-3.888,1.86-3.167,4.658.218.867,1.133,1.131,1.872,1.598-.515,1.781-.486,3.122.572,4.658.297.422,1.054.737,1.155,1.308.385,2.061-2.753,2.599-2.883,5.095-.027.62.224.836.434,1.161.603.945,1.734,1.448,2.306,2.331,2.243,3.443-2.232,4.139-1.299,7.717.276,1.03,3.04,2.716,3.318,4.218.257,1.345-1.009,1.153-1.439,1.744-.492.676-1.052,3.462-.725,4.22.644,1.464,2.58,2.214,3.46,3.493.968,1.398,1.946,4.193,1.882,5.968.947.509,1.792,1.137,2.729,1.742.22.144.616.808.869.875.927.272,2.144-.245,2.887.144,1.435.76.951,3.087.573,3.931.548.228.828.597,1.149.731.816.34,2.014-.119,2.741.29.867.484,1.207,3.204,2.883,3.637.894.237.98-.521,1.878-.292.392.105,1.009,1.108,1.438,1.306.869.408,1.596-.116,2.165.148.111.055.161.647.138.873-.105,1.176-.227,2.261,1.153,3.056.626.352,1.168.072,2.022.295.42.109.894.85,1.293,1.015.727.295,2.62.078,3.604.579,1.238.643,3.009,1.748,4.329,2.475.074-.091.218-.192.292-.288.501-.68,1.602-.294,2.735-.294-.117-.029.42-.187.576-.14,1.213.317,2.679.61,3.314,1.596,1.114-.885,2.675-1.252,3.894-.875.523.169,1.092.783,2.302.585,1.001-.165,1.878-1.229,2.597-1.456.731-.22,4.458-.2,5.191,0,.175.051.43.554.719.583.914.101,1.192-.863,1.882-1.017,1.645-.369,2.539.084,3.598-.441.853-.416.655-.964,1.437,0,.822-2.512,2.35-2.867,4.761-1.888.669-1.162,1.761-3.153,3.177-3.495,1.604-.387,2.436.369,3.602-.437.723-.501,1.089-2.374,1.872-2.618,1.361-.426,3.153.377,4.174-.29,1.368-.882,2.401-2.768,3.748-3.639.492-.311.96-.126,1.442-.437.98-.605,1.853-1.752,2.743-2.473.478-.377,1.057-.336,1.582-.725.416-.296,2.937-3.458,3.173-3.933.336-.653.235-1.275.713-1.744.476-.457,1.557-.585,1.878-1.164.463-.786-.023-1.468.292-2.183.229-.505.999-.568,1.586-.729.262-1.989,1.427-1.703,2.014-3.054.187-.414.086-1.598.439-2.331.214-.451,1.06-.385,1.293-.729.208-.292.045-.77.14-1.165.097-.307.476-.642.583-.871-.397-.266-1.326-1.194-1.155-2.035.084-.412.696-.461.873-.727,1.007-1.575,1.483-3.06,2.302-4.804.056-.113.418-.538.428-.581.603-2.531-2.255-3.112-1.299-5.968.363-1.055,2.331-2.449,3.037-3.637-1.054-1.495-2.172-3.902-.729-5.966.713-1.013,1.796-1.386,2.165-2.906.235-.974-.153-2.111,0-2.916.134-.676.852-1.174.717-2.471-.08-.795-.749-1.446-.566-2.475.027-.183.529-.953.566-1.309.229-1.954-.776-2.984,0-4.802.016-.023.562-.336.293-.585-.418-.379-1.123-2.554-1.155-2.764-.169-1.238.282-2.679-.15-4.079-.348-1.168-1.507-2.644-2.014-3.777-.385-.889-.348-2.024-1.011-2.619-.525-.484-1.61-.626-2.166-1.02.319-2.117,1.199-1.773,1.45-2.766.315-1.26-.161-1.767.57-2.477.072-.06-.62-1.322-.719-1.446-.305-.426-.951-.644-1.155-1.17-.146-.412.064-.826-.146-1.165-.406-.684-1.25-.97-1.724-1.895-.696.155-1.108.101-1.588.153-.503-1.761-1.25-2.144-2.16-3.351.245-.466.945-1.217,1.011-1.602.181-1.077-1.155-3.843-1.732-4.508-.278-.329-1.057-.35-1.295-.729-.459-.733-.373-1.652-.875-2.329-.61-.857-1.796-1.217-2.444-2.621-.513-1.106-.171-2.891-1.011-4.073-.333-.474-1.375-.533-1.87-.879-1.252-.857-2.107-2.904-3.169-3.631-.564-.371-1.04-.124-1.734-.585-.801-.523-1.314-1.67-2.164-2.177-1.273-.768-2.298-.711-3.61-1.602-.521-.365-.914-1.434-1.575-1.604-.573-.144-1.128.266-1.302.292-.669.099-3.948-.729-4.325-1.021-.649-.5-.534-2.053-1.151-2.617h-.288c-.486-.169-1.753-.412-2.311-.729-.548-.315-1.025-1.46-1.58-1.746-.801-.404-2.243.029-3.027,0-1.11-.031-1.833-.742-2.743-.871-.756-.105-1.66.331-2.589.144-1.353-.264-2.028-1.857-3.025-2.327-1.123-.529-1.985.402-2.887.29-.272-.033-1.184-.7-1.73-.729-1.796-.085-4.283.714-6.056.292,0,0-.317-.55-.431-.581-.923-.27-6.627-.381-7.494-.29-1.382.154-3.134,1.458-4.615,1.744-.786.161-1.417-.311-1.868-.288-.649.033-1.448.896-2.022,1.013-1.161.27-2.24-.158-3.315.148-1.372.408-2.708,2.142-4.327,2.475-1.407.299-2.076-.255-3.311,0-.28.06-1.089.822-1.442.877-.665.093-1.386-.395-2.026-.292-1.505.245-2.331,2.475-3.598,2.762-1.285.295-2.033-.286-3.46.148-.931.286-1.666,1.81-2.593,2.177-.743.305-1.625-.004-2.451.294-.461.167-.733.966-1.153,1.162-.723.358-1.124.039-2.02.439-.505.235-.705.877-1.155,1.162-1.023.669-2.335.743-3.313,1.454-.325.239-.292.777-.571,1.024-1.777,1.565-4.29,2.243-6.347,3.49-1.182.721-1.985,2.179-3.023,3.058-1.586,1.334-3.456,2.199-5.05,3.49-1.062.875-1.332,2.545-2.306,3.495-1.192,1.166-2.858,1.882-3.892,3.194-.914,1.182-1.228,2.271-2.018,3.641-.517.921-1.738,1.326-2.304,2.181-.628.962-.607,1.938-1.159,3.062-.122.264-.855.605-1.001.875-1.055,1.917-1.707,3.68-2.745,5.383-.451-.202-.708-.313-1.009-.441.191-2.364,1.499-3.206,2.024-4.942.457-1.51.305-2.891,1.005-4.222.531-1.011,1.993-1.812,2.593-2.766.309-.471.192-.958.576-1.31.383-.348,1.023-.443,1.3-.877.719-1.114.744-1.804,1.728-2.613,1.106-.904,1.164-2.545,2.164-3.493.562-.527,1.689-.4,2.16-1.021.756-.997.777-2.57,1.73-3.348,1.304-1.046,3.196-1.275,4.469-2.329.815-.659,1.159-1.86,2.02-2.473.855-.601,2.58-.916,3.173-1.746.585-.824.297-2.082,1.297-2.48.576-.216,1.055.134,1.58-.138.4-.194.577-1.104.869-1.454.086-.097,3.173-2.331,3.173-2.331,1.289-.319,3.857-.239,5.042-1.021.807-.519.622-1.318,1.153-2.183.492-.787,1.991-.568,2.881-1.013.55-.274.857-1.155,1.444-1.458v-.146c1.473-.892,3.099-.845,5.047-1.31.443-.103.968-.758,1.442-.871.63-.152,1.122.107,1.586-.152.35-.185.525-1.057.857-1.302.902-.638,2.148-.646,3.031-1.314.453-.338.626-1.351,1.155-1.598,1.606-.748,2.786-.568,4.751-1.018,1.769-.402,1.553-2.978,4.761-1.454,1.991-3.046,4.236-.538,6.054-3.351,1.172.183,1.989.614,3.169.439.688-.099,1.225-1.03,1.732-1.165,1.746-.443,3.293.299,5.482-.441.552-.177,1.087-.937,1.584-1.16,1.05-.463,4.294-1.201,5.19-1.165.391.019.683.566,1.151.583,1.607.082,3.493-2.228,4.473.727.725-.27,1.462-.222,2.298-.583.663-.278.828-1.277,1.734-1.456,1.849-.35,3.316.257,3.894,1.312.896-.111,2.441.191,3.746-.146.087.111.329.554.436.581.177.05,1.001,0,1.001,0,1.083-.086,1.917-.564,3.033-.292.657.167,1.549,1.147,2.306,1.312,1.458.321,2.906-.309,4.316,0,.371.082,1.081.906,1.456,1.018.715.218,1.331-.072,2.008.14,1.217.395,2.096,1.942,3.318,2.477.995.443,2.012.36,3.033.877.61.315,1.165,1.184,1.87,1.456.768.295,1.674.906,2.16,1.017.534.123.791-.717,1.87-.583,1.05.126,3.775,1.831,4.475,2.473.348.323.608,1.479,1.007,2.185.71,1.248,2.094,2.443,3.029,3.635.266.346.657.169,1.005.441.443.33.667,1.139,1.153,1.454,1.007.661,1.884.945,2.889,1.598,1.781,1.165,2.982,3.558,4.607,4.947l.437.146c.486,1.328-.638,2.117-.29,3.488.354,1.403,2.302,3.415,3.309,4.226l.155.144c1.24.558,2.304-.476,3.455-.432.342,1.299-.302,2.206-.144,3.633.214,1.864,2.115,2.595,2.735,3.933.406.849.476,1.333.871,2.035,1.157,0,1.833.188,2.449.435.224,1.652,1.026,3.554.288,5.383-.023.053-.453.414-.288.583.696.688.367,1.829.865,2.766.503.951,1.576,1.285.865,2.908,0,0-.566.354-.292.583.999.838,1.207,4.492,1.013,5.968,1.197-.05,2.288.311,2.739,1.31.165.373-.066,1.141.286,1.162-.371.925-.27,2.053-.719,3.054-.224.513-1.133,1.1-1.586,1.456.346,1.108-.321,1.699-.14,2.764.255,1.563,2.864,5.237,2.446,7.137-.212.943-.95,2.494-1.442,3.635-.321.764-1.448,1.33-1.582,2.327-.197,1.475.787,3.029,1.007,3.927.148.607-.391,4.147-.577,5.093-.167.861-1.135,1.24-1.442,1.89-.369.82-.014,1.489-.144,2.475-.136,1.061-1.524,1.777-1.722,2.912-.259,1.458,1.133,2.148.571,3.783-.116.358-1.151.576-1.304.873-.268.558-.01,1.275-.282,1.744-.264.478-1.215.719-1.44,1.168-.578,1.135.513,1.893.286,2.91-.023.107-.465.492-.572.581-.877.822-2.076.978-2.449,2.327-.229.813.018,1.749-.437,2.333-.558.739-1.962,1.046-2.593,1.746-.717.799-.284,2.239-.717,3.056-.828,1.553-1.812,1.172-2.747,2.035-.636.599-.358,2.214-.865,3.056-.023.049-.263.109-.286.142-.527.826-1.715.846-2.448,1.458-.984.822-.96,2.881-1.874,3.783-1.096,1.079-3.161,1.015-4.337,2.041-.507.453-.286,1.168-.571,1.888-.319.842-1.53,2.059-2.298,2.473-1.246.68-3.287.371-4.475,1.165-1.087.744-1.411,2.686-2.585,3.348-.657.373-1.481.243-2.169.583-.531.268-.956,1.007-1.439,1.312-1.217.752-2.442.9-3.746,1.598-1.081.577-1.549,2.158-2.593,2.764-1.225.712-2.076.084-3.171.587-1.112.496-2.335,1.763-3.462,2.323-2.724,1.369-5.875,1.409-8.793,2.62-1.304.538-2.994,1.87-4.469,2.185-1.118.241-1.946-.058-3.025.144-1.225.233-2.642,1.51-3.754,1.6-.587.051-.877-.455-1.732-.292-.935.189-2.068,1.184-3.169,1.312-1.592.185-2.352-1.087-3.754-.733-.735.198-1.093,1.345-2.154,1.462-.861.091-1.507-.395-2.446-.15-.494.134-.867.793-1.736.729-.696-.052-1.341-.587-2.449-.437-.445.066-1.157.535-1.588.583" fill="#ed1c2e" fill-rule="evenodd"/>
  <path d="M509.917,418.306c.838.041,1.491-1.452,1.196-8.587-.266-6.452.857-8.279,1.199-9.195.947-2.496,7.311-5.797,8.023-6.526-3.894-.886-10.585,3.402-14.137.607-.809-.642.049-7.002-2.49-7.735-1.27-.365-3.441,3.919-4.889,4.596-1.18.546-6.787-1.491-8.309-.247-1.188.98,1.199,5.68,1.079,7.376-.122,1.693-2.337,5.655-2.037,6.048.669.879,6.114-2.572,9.856-.626,4.533,2.343,7.906,14.17,10.509,14.29M503.13,410.888c-.782-1.606-1.923-4.413-5.548-4.671-5.21-.377-21.914,9.597-23.283,8.217-1.668-1.688,14.663-12.383,14.93-16.759.258-4.111-3.583-8.466-3.509-10.482.078-2.022,1.277-2.496,2.475-2.498,2.271-.01,10.383,4.23,11.913,3.515,1.571-.729,4.425-9.726,7.012-9.082,1.785.449-.26,11.399,1.544,13.217,1.04,1.053,6.227-1.054,10.122-1.579,4.681-.628,8.561.243,8.542,2.389-.051,3.573-12.784,5.15-12.784,10.074,0,2.257.401,8.629.325,10.882-.084,2.261-.389,10.503-1.994,10.641-3.017.262-8.2-9.584-9.743-13.864" fill="#FFF157" fill-rule="evenodd"/>
</svg>