<?xml version="1.0" encoding="UTF-8"?>
<svg id="Layer_1" xmlns="http://www.w3.org/2000/svg" width="1024" height="1024" xmlns:xlink="http://www.w3.org/1999/xlink" version="1.1" viewBox="0 0 1024 1024">
  <!-- Generator: Adobe Illustrator 29.5.1, SVG Export Plug-In . SVG Version: 2.1.0 Build 141)  -->
  <defs>
    <clipPath id="clippath">
      <rect x="0" y="312.371" width="1024" height="399.257" fill="none"/>
    </clipPath>
  </defs>
  <g clip-path="url(#clippath)">
    <polygon points="108.766 627.668 95.383 595.075 85.212 627.668 108.766 627.668" fill="#00529c" fill-rule="evenodd" />
    <polygon points="520.348 627.668 516.35 561.583 496.79 627.668 520.348 627.668" fill="#00529c" fill-rule="evenodd" />
    <path d="M282.774,505.454v-193.081H59.651v195.262l7.469-24.89,1.715-5.71h64.569l-3.114,10.339c-4.92,16.266-12.092,40.031-19.871,65.829l73.191-73.793,2.347-2.375h82.396l-14.858,13.881-101.342,94.674,19.709,42.077h74.044l36.868-122.214Z" fill="#00529c" fill-rule="evenodd" />
    <path d="M306.724,312.372v164.649h45.05c34.616-.421,70.411-.857,88.684,20.836,10.409,12.351,13.365,29.692,9.06,53.008-3.961,21.445-22.844,71.301-112.396,71.198l-29.119.011-1.279,4.284v1.308h133.98l44.415-144.991,1.736-5.666h42.989v-164.638h-223.12Z" fill="#00529c" fill-rule="evenodd" />
    <polygon points="650.437 627.668 668.484 566.957 629.254 627.668 650.437 627.668" fill="#00529c" fill-rule="evenodd" />
    <path d="M713.111,627.668h25.526c-.057-11.304,1.69-24.279,6.226-39.18,8.973-29.521,19.898-51.626,32.062-68.195v-207.92h-223.131v164.638h15.602l.693,7.24c.354,3.624,6.976,73.347,5.326,139.494,15.533-31.634,42.738-80.017,88.408-143.408l2.404-3.327h84.427l-2.478,9.955-35.064,140.703Z" fill="#00529c" fill-rule="evenodd" />
    <path d="M800.874,312.372v183.043c24.757-19.007,52.302-22.901,78.366-22.901,33.299,0,59.52,11.047,73.823,31.104,11.003,15.417,13.754,34.597,7.553,52.624l-1.864,5.417-5.729-.006-43.822-.051-12.825-.023,5.584-11.437c.108-.286.28-1.066.392-1.593.173-.767.362-1.639.632-2.543,2.29-7.693,2.067-13.559-.672-17.429-3.822-5.383-13.375-8.586-27.618-9.258-32.439-1.53-53.526,20.821-68.399,72.468-3.009,10.453-4.816,19.926-5.423,28.301v7.579h78.066l.301-.961h-47.555l3.238-10.4,10.053-32.258,1.759-5.634h106.84l-2.855,10.181-10.965,39.072h84.246v-315.295h-223.128Z" fill="#00529c" fill-rule="evenodd"/>
    <polygon points="650.437 627.668 668.484 566.957 629.254 627.668 650.437 627.668" fill="#00529c" fill-rule="evenodd" />
    <path d="M740.39,477.01h-74.164l-2.404,3.329c-45.671,63.391-72.875,111.774-88.408,143.408,1.65-66.149-4.972-135.872-5.326-139.496l-.693-7.24h-82.54l-1.738,5.666-65.296,213.152-3.169,10.373h56.891l1.692-5.746,41.116-138.87,8.282,137.075.453,7.541h53.423l2.379-3.672,87.598-135.573-38.33,128.933-3.072,10.312h66.467l1.507-6.083,53.117-213.154,2.478-9.955h-10.263Z" fill="#00529c" fill-rule="evenodd" />
    <path d="M687.285,698.177h-49.445l54.27-182.55-117.958,182.55h-41.514l-11.028-182.579-54.058,182.579h-40.058l65.293-213.148h69.325s10.583,109.404,2.459,184.402c0,0,20.619-66.246,105.765-184.402h70.055l-53.105,213.148Z" fill="#fff" fill-rule="evenodd" />
    <path d="M953.063,503.618c-14.303-20.057-40.524-31.104-73.823-31.104-49.011,0-103.306,13.778-134.378,115.973-13.487,44.348-2.699,72.034,8.734,87.455,19.498,26.312,53.353,35.688,78.525,35.688,26.915,0,69.305-4.399,83.629-10.069l3.693-1.464,1.066-3.826,30.212-107.676,2.855-10.181h-106.84l-1.759,5.634-10.053,32.258-3.238,10.4h47.555l-11.186,35.25c-2.206.904-8.931,2.811-26.675,2.868-15.964.051-27.306-4.224-33.718-12.707-8.877-11.751-9.349-32.616-1.365-60.33,14.873-51.647,35.96-73.998,68.399-72.468,14.243.672,23.796,3.875,27.618,9.258,2.739,3.87,2.962,9.736.672,17.429-.27.904-.459,1.776-.632,2.543-.112.527-.283,1.308-.392,1.593l-5.584,11.437,12.825.023,43.822.051,5.729.006,1.864-5.417c6.201-18.027,3.451-37.207-7.553-52.624" fill="#00529c" fill-rule="evenodd" />
    <path d="M953.03,553.636l-43.817-.057c.708-1.462.952-3.584,1.454-5.288,7.575-25.415-8.055-35.68-35.591-36.984-40.659-1.917-62.65,30.221-76.486,78.262-14.915,51.796-2.374,83.426,42.814,83.271,35.909-.122,33.998-7.514,33.998-7.514l14.793-46.63h-47.612l10.053-32.264h90.362l-30.204,107.672c-12.071,4.783-52.163,9.513-80.672,9.513-42.896,0-105.2-28.586-79.59-112.798,30.636-100.756,83.808-110.289,126.707-110.289,62.702,0,85.034,40.444,73.791,73.106" fill="#fff" fill-rule="evenodd" />
    <path d="M268.352,477.035h-82.396l-2.347,2.375-73.191,73.793c7.779-25.798,14.951-49.563,19.871-65.829l3.116-10.339h-64.571l-1.715,5.71L3.104,695.992,0,706.314h65.093l1.348-6.353c.771-3.097,14.492-48.817,29.618-99.086l40.551,100.428,2.021,5.012h70.081l-5.348-11.42-51.21-109.303,101.342-94.674,14.858-13.881Z" fill="#00529c" fill-rule="evenodd" />
    <path d="M58.592,698.298H10.78l64.017-213.247h47.81s-63.09,208.877-64.015,213.247" fill="#fff" fill-rule="evenodd" />
    <polygon points="95.919 579.251 95.881 579.251 189.303 485.051 248.019 485.051 142.416 583.715 196.102 698.298 144.039 698.298 95.891 579.036 95.919 579.251" fill="#fff" fill-rule="evenodd" />
    <path d="M440.459,497.856c-18.276-21.692-54.068-21.257-88.684-20.836h-60.427l-1.719,5.701-64.324,213.255-3.114,10.339h60.623l1.707-5.723,23.482-78.517,29.119-.011c89.551.103,108.435-49.752,112.396-71.198,4.306-23.316,1.349-40.657-9.06-53.008" fill="#00529c" fill-rule="evenodd" />
    <path d="M441.631,549.407c-6.355,34.401-36.415,64.718-104.509,64.64l-35.09.011-25.191,84.235h-43.861l64.325-213.255h54.341c49.167-.596,102.13-1.349,89.984,64.369" fill="#fff" fill-rule="evenodd" />
    <path d="M310.323,582.746c15.842,0,27.416.251,38.078.051,32.049-.581,41.872-11.66,49.097-33.39,12.536-37.703-19.551-33.735-67.635-33.684l-19.54,67.023Z" fill="#00529c" fill-rule="evenodd" />
  </g>
</svg>