<?xml version="1.0" encoding="UTF-8"?>
<svg id="Layer_1" xmlns="http://www.w3.org/2000/svg" width="1024" height="1024" version="1.1" viewBox="0 0 1024 1024">
  <!-- Generator: Adobe Illustrator 29.5.1, SVG Export Plug-In . SVG Version: 2.1.0 Build 141)  -->
  <path d="M834.032,527.275h-.889c-7.714-3.362-15.002-7.624-21.714-12.698-6.137-5.962-6.278-15.77-.315-21.907.104-.107.209-.212.315-.315,3.52-3.018,8.068-4.565,12.698-4.317,4.449-.031,8.828,1.108,12.698,3.302,4.283,2.943,7.808,6.86,10.286,11.429,1.93,3.328,4.325,6.363,7.111,9.016,1.643,1.501,3.748,2.397,5.968,2.54,2.11.022,4.117-.912,5.46-2.54,1.474-2.115,2.19-4.665,2.032-7.238.016-7.8-2.138-15.45-6.222-22.095-4.19-6.984-8.381-10.54-12.698-10.54l-4.19.762c-2.167.714-4.287,1.563-6.349,2.54-3.082-.807-6.225-1.359-9.397-1.651h-9.524c-11.611-.79-23.077,2.941-32,10.413-8.198,7.108-12.844,17.469-12.698,28.317.093,7.415,2.79,14.562,7.619,20.19,8.099,8.144,17.721,14.616,28.317,19.048l7.619,3.81c14.857,7.111,22.476,14.476,22.476,21.968.12,4.554-1.787,8.926-5.206,11.937-3.965,3.112-8.939,4.649-13.968,4.317-4.919.004-9.791-.945-14.349-2.794-4.274-1.853-8.025-4.732-10.921-8.381-1.881-2.569-3.619-5.24-5.206-8-4.063-7.111-8.296-10.667-12.698-10.667-2.194.02-4.255,1.05-5.587,2.794-1.6,2.021-2.453,4.533-2.413,7.111.23,6.974,1.692,13.852,4.317,20.317,1.594,5.427,4.468,10.392,8.381,14.476.863.694,1.8,1.29,2.794,1.778.872.418,1.827.634,2.794.635,1.333-.131,2.651-.386,3.937-.762,1.48-.651,2.884-1.46,4.19-2.413l14.095,2.413c3.429,0,6.984.635,10.54.762,13.061.36,25.785-4.169,35.683-12.698,9.222-7.517,14.506-18.834,14.349-30.73,0-14.476-12.698-27.683-38.095-40" fill="#b96ff9"/>
  <path d="M1017.143,590.894l-3.429-1.397c-1.875-1.101-3.378-2.737-4.317-4.698-.928-3.174-1.356-6.472-1.27-9.778v-43.556c1.285-15.654-2.451-31.311-10.667-44.698-8.299-10.204-21.036-15.744-34.159-14.857-5.651-.125-11.255,1.048-16.381,3.429-5.338,2.36-10.2,5.673-14.349,9.778-1.699,1.657-3.269,3.439-4.698,5.333-1.651,2.032-2.54,3.048-2.921,3.048-.835.019-1.614-.419-2.032-1.143-.253-1.043-.253-2.132,0-3.175v-6.349c0-18.159,0-35.81,1.016-53.206v-5.587c.233-2.979-.478-5.956-2.032-8.508-1.531-1.816-3.857-2.766-6.222-2.54-4.266-.024-8.522.402-12.698,1.27-4.328.873-8.575,2.105-12.698,3.683-5.573,1.863-10.869,4.468-15.746,7.746-2.031,1.37-3.264,3.646-3.302,6.095,0,3.175,2.667,5.46,7.873,6.984,3.411.509,6.641,1.862,9.397,3.937,2.168,5.534,3.162,11.458,2.921,17.397,0,9.651.889,29.841.889,60.698v41.651c.256,6.766-.255,13.539-1.524,20.19-.687,3.083-2.498,5.799-5.079,7.619l-3.683,1.524c-4.317,1.651-6.349,3.937-6.349,6.73-.145,3.894,2.536,7.326,6.349,8.127,9.069,1.799,18.317,2.524,27.556,2.159,8.26.515,16.552-.126,24.635-1.905,4.444-1.397,6.603-3.81,6.603-7.238s-2.286-5.968-6.857-7.492c-1.746-.588-3.444-1.31-5.079-2.159-2.02-1.363-3.431-3.457-3.936-5.841-.781-5.892-1.121-11.835-1.016-17.778,0-17.397,0-29.587,1.143-36.444.449-5.497,1.868-10.871,4.19-15.873,2.159-5.022,5.79-9.273,10.413-12.19,3.744-2.584,8.152-4.039,12.698-4.19,7.986-.609,15.553,3.65,19.175,10.794,4.871,17.331,6.676,35.381,5.333,53.333.21,6.629-.215,13.262-1.27,19.81-.317,2.995-1.885,5.716-4.317,7.492-1.581.871-3.238,1.594-4.952,2.159-4.444,1.651-6.73,4.19-6.73,7.492s2.159,5.841,6.476,7.238c7.877,1.73,15.941,2.455,24,2.159,9.239.429,18.496-.296,27.556-2.159,3.73-.932,6.347-4.282,6.349-8.127,0-3.048-2.159-5.333-6.603-6.857" fill="#b96ff9"/>
  <path d="M702.349,436.99c-.255-7.069-4.081-13.525-10.159-17.143-7.54-4.875-16.432-7.232-25.397-6.73-12.438-.806-24.711,3.194-34.286,11.175-8.655,8.121-13.299,19.639-12.698,31.492v9.27c.507,3.866,1.313,7.687,2.413,11.429h-15.111c-1.606-.127-3.2.373-4.444,1.397-.935,1.428-1.381,3.122-1.27,4.825v3.175c-.135,1.769.263,3.538,1.143,5.079,1.14,1.118,2.739,1.636,4.317,1.397h15.365v77.333c.273,5.24-.155,10.492-1.27,15.619-.563,2.529-2.119,4.725-4.317,6.095-1.114.629-2.311,1.099-3.556,1.397-4.19,1.651-6.349,3.81-6.349,6.603.387,3.646,3.035,6.65,6.603,7.492,8.352,1.705,16.88,2.388,25.397,2.032,8.517.356,17.045-.326,25.397-2.032,4.444-1.27,6.603-3.683,6.603-7.111s-2.667-6.222-7.873-7.873l-5.206-2.032c-2.223-1.476-3.595-3.936-3.683-6.603-.974-7.407-1.314-14.884-1.016-22.349v-69.333h20.063c1.637.207,3.279-.356,4.444-1.524,1.026-1.439,1.52-3.19,1.397-4.952v-3.175c.171-1.749-.279-3.502-1.27-4.952-1.283-1.037-2.938-1.496-4.571-1.27l-19.302.762c-.484-7.336-1.675-14.607-3.556-21.714-1.221-4.838-2.07-9.763-2.54-14.73-.132-3.148,1.012-6.216,3.175-8.508,2.129-2.188,5.076-3.385,8.127-3.302,5.795.352,10.808,4.161,12.698,9.651l2.54,4.825c2.773,4.367,7.528,7.077,12.698,7.238,3.665.408,7.326-.797,10.032-3.302,2.38-2.531,3.619-5.927,3.429-9.397" fill="#b96ff9"/>
  <path d="M351.746,567.783c-2.794,0-5.714,2.667-8.889,8.127l-2.667,4.571c-1.922,3.57-4.774,6.554-8.254,8.635-5.613,1.799-11.514,2.531-17.397,2.159h-24.127c-1.163.325-2.393.325-3.556,0-.8-.281-1.318-1.058-1.27-1.905-.13-.543-.13-1.108,0-1.651.374-.788.799-1.552,1.27-2.286l63.492-96.889c.795-1.27,1.515-2.584,2.159-3.937.127-.884.127-1.782,0-2.667.513-2.222-.599-4.499-2.667-5.46-2.688-1.118-5.611-1.555-8.508-1.27h-61.968c-4.306.021-8.589-.621-12.698-1.905l-6.603-1.905c-3.81,0-7.365,3.556-10.794,10.667-3.405,7.221-5.1,15.129-4.952,23.111-.25,2.306.385,4.621,1.778,6.476.895,1.606,2.606,2.584,4.444,2.54,3.683,0,7.238-3.302,10.794-9.778.482-.889,1.034-1.738,1.651-2.54,1.773-3.445,4.451-6.343,7.746-8.381,4.417-1.661,9.128-2.396,13.841-2.159h19.175c1.172-.254,2.384-.254,3.556,0,.73.277,1.194.998,1.143,1.778.128.757.128,1.529,0,2.286-.421,1.161-.975,2.268-1.651,3.302l-59.556,92.063c-1.292,1.944-2.438,3.982-3.429,6.095-.493,1.121-.752,2.331-.762,3.556-.268,1.86.514,3.717,2.032,4.825,3.19,1.052,6.552,1.483,9.905,1.27h67.683c6.028-.033,12.038.649,17.905,2.032h3.048c3.937,0,7.365-3.302,10.54-9.905,3.261-6.765,4.871-14.207,4.698-21.714.145-2.536-.475-5.058-1.778-7.238-.921-1.754-2.719-2.871-4.698-2.921" fill="#b96ff9"/>
  <path d="M80.381,471.91c-5.525.209-10.83,2.216-15.111,5.714-5.759,5.148-10.648,11.195-14.476,17.905v-4.825c-2.667-11.937-5.587-17.27-9.905-17.27-4.306.192-8.571.918-12.698,2.159-6.115,1.66-12.134,3.652-18.032,5.968-2.831.997-5.456,2.503-7.746,4.444-1.386,1.245-2.248,2.97-2.413,4.825,0,3.048,2.667,5.46,8,7.111,2.072.65,4.107,1.413,6.095,2.286,1.905,1.143,3.175,4.19,3.937,9.016,1.015,10.677,1.396,21.405,1.143,32.127v27.556c.248,4.917-.266,9.843-1.524,14.603-.676,2.686-2.419,4.979-4.825,6.349l-3.556,1.524c-4.317,1.397-6.476,3.683-6.476,6.73.03,3.92,2.772,7.296,6.603,8.127,8.811,1.8,17.808,2.525,26.794,2.159,8.521.263,17.043-.462,25.397-2.159,5.079-1.524,7.492-3.937,7.492-7.238s-2.667-6.222-8.127-7.873l-5.206-1.778c-2.673-1.647-4.485-4.388-4.952-7.492-1.267-5.707-1.779-11.556-1.524-17.397-.786-17.829.536-35.688,3.937-53.206,2.286-8.381,6.603-12.698,12.698-12.698,1.016,0,2.032,1.143,2.921,3.429.734,1.914,1.809,3.678,3.175,5.206,1.522,1.739,3.437,3.089,5.587,3.937,2.175.9,4.503,1.374,6.857,1.397,4.631.235,9.086-1.803,11.937-5.46,3.412-4.146,5.255-9.361,5.206-14.73.82-10.488-7.016-19.655-17.504-20.475-1.106-.087-2.217-.076-3.321.031" fill="#b96ff9"/>
  <path d="M571.429,471.91c-5.788.04-11.388,2.057-15.873,5.714-6.125,5.064-11.361,11.116-15.492,17.905v-2.032c.127-.927.127-1.867,0-2.794-1.397-12.698-4.317-17.905-8.635-17.905-4.046.276-8.05,1-11.936,2.159-6.089,1.606-12.07,3.6-17.905,5.968-3.059.915-5.907,2.426-8.381,4.444-1.526,1.407-2.4,3.385-2.413,5.46,0,3.048,2.667,5.46,8,7.111,2.121.629,4.199,1.392,6.222,2.286,1.905,1.143,3.175,4.19,3.81,9.016.942,10.681,1.281,21.407,1.016,32.127v27.556c.126,4.937-.516,9.864-1.905,14.603-.671,2.651-2.359,4.932-4.698,6.349l-3.683,1.524c-4.317,1.397-6.476,3.683-6.476,6.73-.019,3.937,2.746,7.34,6.603,8.127,8.854,1.799,17.893,2.524,26.921,2.159,8.52.253,17.041-.472,25.397-2.159,4.952-1.524,7.492-3.937,7.492-7.238s-2.667-6.222-8-7.873l-5.46-1.778c-2.77-1.592-4.68-4.341-5.206-7.492-1.246-5.712-1.8-11.553-1.651-17.397-.533-17.841.915-35.685,4.317-53.206,2.54-8.381,6.857-12.698,12.698-12.698,1.016,0,1.905,1.143,2.921,3.429.737,1.884,1.765,3.641,3.048,5.206,1.626,1.677,3.568,3.015,5.714,3.937,2.112.96,4.411,1.437,6.73,1.397,4.635.257,9.1-1.786,11.936-5.46,3.012-4.252,4.489-9.401,4.19-14.603.649-10.64-7.451-19.792-18.091-20.44-.023-.001-.045-.003-.068-.004h-2.159" fill="#b96ff9"/>
  <path d="M716.444,460.228c3.621,2.81,8.119,4.249,12.698,4.063,5.112.21,10.139-1.361,14.222-4.444,5.983-4.781,7.055-13.464,2.413-19.556-.671-.736-1.44-1.377-2.286-1.905-3.591-2.891-8.089-4.42-12.698-4.317-5.099-.215-10.089,1.51-13.968,4.825-3.574,2.717-5.685,6.939-5.714,11.429-.052,4.109,1.888,7.989,5.206,10.413" fill="#b96ff9"/>
  <path d="M756.063,592.164l-5.079-2.159c-2.255-1.616-3.729-4.103-4.063-6.857-.911-5.879-1.251-11.833-1.016-17.778v-34.286l.889-33.905v-13.841c.337-3.006-.191-6.046-1.524-8.762-1.133-1.756-3.119-2.773-5.206-2.667-4.851.403-9.655,1.253-14.349,2.54-6.881,1.658-13.629,3.823-20.19,6.476-2.942,1.066-5.688,2.611-8.127,4.571-1.507,1.381-2.417,3.293-2.54,5.333,0,3.048,2.667,5.46,8.127,7.111,2.114.649,4.191,1.412,6.222,2.286,2.297,1.923,3.641,4.751,3.683,7.746,1.014,9.105,1.396,18.27,1.143,27.429v33.524c.248,4.917-.266,9.843-1.524,14.603-.676,2.686-2.419,4.979-4.825,6.349l-3.556,1.397c-4.19,1.524-6.476,3.81-6.476,6.857-.019,3.937,2.746,7.34,6.603,8.127,8.898,1.791,17.978,2.516,27.048,2.159,8.061.373,16.135-.353,24-2.159,4.444-1.397,6.603-3.81,6.603-7.238s-2.286-5.968-6.857-7.492" fill="#b96ff9"/>
  <path d="M225.778,586.958h-4.063c-1.985-.782-3.458-2.492-3.937-4.571-.986-3.682-1.414-7.492-1.27-11.302v-43.81c.252-9.099-.386-18.2-1.905-27.175-.899-4.594-2.808-8.931-5.587-12.698-4.39-5.093-10.103-8.873-16.508-10.921-8.187-2.72-16.771-4.05-25.397-3.937-13.891-.569-27.699,2.403-40.127,8.635-8.503,3.594-14.386,11.519-15.365,20.698-.4,3.363.56,6.745,2.667,9.397,2.256,2.392,5.489,3.61,8.762,3.302,7.053-.529,13.47-4.276,17.397-10.159.743-1.288,1.638-2.482,2.667-3.556,3.128-3.542,6.817-6.545,10.921-8.889,3.956-1.926,8.299-2.925,12.698-2.921,5.626-.265,11.06,2.077,14.73,6.349,3.69,5.26,5.481,11.619,5.079,18.032v13.841c-4.698-.762-9.27-1.397-13.46-1.778-3.807-.191-7.621-.191-11.429,0-15.428-1.322-30.853,2.568-43.81,11.048-10.589,7.775-16.668,20.267-16.254,33.397-.265,11.275,4.367,22.113,12.698,29.714,8.645,7.691,19.93,11.74,31.492,11.302,12.194-.419,24.009-4.343,34.032-11.302,1.722-1.296,3.655-2.284,5.714-2.921,2.453,2.199,4.785,4.531,6.984,6.984,3.09,3.978,7.684,6.504,12.698,6.984,7.318.118,14.541-1.676,20.952-5.206,5.841-3.429,8.889-7.365,8.889-11.556s-2.794-5.206-8.381-6.73M180.444,583.656c-5.212,4.316-11.932,6.373-18.667,5.714-6.897.299-13.654-2.013-18.921-6.476-4.697-4.321-7.213-10.517-6.857-16.889-.356-6.833,2.627-13.414,8-17.651,6.52-4.688,14.461-6.976,22.476-6.476,3.087-.193,6.183-.193,9.27,0,3.44.232,6.845.828,10.159,1.778v19.683c.746,7.036-1.256,14.088-5.587,19.683" fill="#b96ff9"/>
  <path d="M468.19,487.783c-12.124-11.734-28.797-17.54-45.587-15.873-17.767.879-34.351,9.17-45.714,22.857-11.699,14.226-17.434,32.431-16,50.794.145,18.122,7.342,35.475,20.064,48.381,12.11,12.171,28.988,18.356,46.095,16.889,18.157-.57,35.09-9.293,46.095-23.746,11.796-14.95,17.388-33.865,15.619-52.825-.384-17.525-7.528-34.223-19.937-46.603M460.317,572.609c-2.854,8.341-9.576,14.779-18.032,17.27-11.483,3.071-23.72-.502-31.746-9.27-11.376-10.804-19.325-24.714-22.857-40-3.425-9.957-3.425-20.773,0-30.73,3.048-8.395,10.026-14.756,18.667-17.016,11.48-2.898,23.629.65,31.746,9.27,11.348,10.672,19.298,24.453,22.857,39.619,3.304,10.02,3.304,20.837,0,30.857" fill="#b96ff9"/>
</svg>