<?xml version="1.0" encoding="UTF-8"?>
<svg id="Layer_1" xmlns="http://www.w3.org/2000/svg" width="1024" height="1024" version="1.1" viewBox="0 0 1024 1024">
  <!-- Generator: Adobe Illustrator 29.5.1, SVG Export Plug-In . SVG Version: 2.1.0 Build 141)  -->
  <path d="M118.372,628.918c-29.151,0-64.806-10.231-90.515-41.634h180.723c-20.913,26.96-56.925,41.634-90.183,41.634h-.026,0Z" fill="#3979c1" />
  <polygon points="204.092 541.182 194.145 549.712 174.252 581.801 161.219 581.801 174.252 558.927 184.53 550.398 199.272 509.094 215.033 515.568 204.066 541.182 204.092 541.182" fill="#3979c1" />
  <path d="M213.35,581.801h-26.397l25.045-39.247,7.549-25.589,15.762,5.458c-1.377,19.801-7.881,39.933-21.959,59.379h0Z" fill="#3979c1" />
  <polygon points="181.113 534.683 173.232 536.054 175.298 520.366 173.232 517.294 175.298 499.549 195.523 507.723 181.113 534.683" fill="#3979c1" />
  <path d="M344.953,475.482h-8.238v55.469h8.238c19.026,0,22.469-13.48,22.469-27.315s-3.418-28.154-22.469-28.154ZM344.953,536.587h-8.238v34.805c0,3.58.331,6.474,2.066,8.352,1.556,1.549,4.285,2.386,9.258,2.386h4.285v5.128h-54.35v-5.128h4.795c4.106,0,7.549-.685,9.258-2.031,1.709-1.549,2.576-4.087,2.576-8.708v-84.13c0-5.458-.867-9.215-3.596-10.586-1.709-1.015-4.973-1.193-9.436-1.193h-3.596v-5.128h46.979c23.999,0,44.76,8.53,44.76,33.282s-20.403,32.926-44.76,32.926v.025h0Z" fill="#3979c1" data-split="true"/>
  <path d="M444.904,524.986c-5.993,0-9.617-4.265-9.617-7.692,0-1.193,0-2.564.869-4.443h-.179c-8.239,6.829-10.125,32.774-10.125,42.827v12.287c0,5.281,0,9.546,1.528,11.779,1.556,2.209,5.485,2.386,7.727,2.386h7.704v5.128h-54.171v-5.128h5.152c5.484,0,8.239-.838,9.588-3.072,1.889-3.072,1.556-11.246,1.556-11.246v-31.225c0-10.231-.329-17.923-1.556-20.639-1.377-2.894-3.417-3.58-8.057-3.58h-1.888v-5.128h29.151l.869,20.487h.179c.841-9.901,6.68-22.873,20.047-22.873,7.192,0,11.653,3.402,11.653,10.078,0,5.128-3.774,10.231-10.454,10.079l.024-.025h0Z" fill="#3979c1" />
  <path d="M514.173,587.284l-.329-12.465s-.179.508-.179,0c-2.068,6.474-10.791,14.851-22.444,14.851-19.384,0-23.67-11.272-23.67-26.122v-34.475c0-10.079-.329-13.81-1.02-14.851-.508-.863-1.377-1.878-5.838-1.878h-1.199v-5.128h29.151v58.541c0,12.795,7.013,13.151,10.454,13.151,5.842,0,10.458-5.128,12.169-11.957,1.02-3.935,1.02-8.352,1.02-12.795v-25.082c0-7.007.179-12.795-1.377-14.496-1.377-1.523-3.266-2.209-8.569-2.209h-1.711v-5.128h32.569v60.75c0,5.281.333,9.545,1.889,11.779,1.556,2.209,3.953,2.386,6.35,2.386h3.084v5.128h-30.35,0Z" fill="#3979c1" />
  <path d="M770.67,587.284v-59.557c0-11.779-5.66-12.617-10.279-12.617-3.262,0-7.037,1.878-9.589,5.966-2.242,3.757-3.441,10.586-3.441,17.238v29.524c0,6.829-.333,10.231,1.199,11.957,1.377,1.549,3.262,2.386,7.727,2.386h2.397v5.128h-43.713v-5.128h2.576c3.774,0,6.172-.838,7.549-2.386,1.528-1.701,1.199-5.128,1.199-11.957v-41.126c0-5.28.179-9.723-1.377-11.957-1.711-2.209-4.286-2.386-6.684-2.386h-3.262v-5.128h30.529l.329,12.465h.179c2.909-7.514,10.279-14.851,22.646-14.851,18.519,0,22.98,10.078,22.98,26.782v36.353c0,6.651-.179,9.545,1.377,11.779,1.556,2.209,4.465,2.386,6.684,2.386h3.266v5.128h-32.292Z" fill="#3979c1" />
  <path d="M852.794,579.592c-3.417,7.184-9.946,10.078-19.713,10.078-17.32,0-20.225-12.465-20.225-22.365v-54.784h-14.411v-5.281h1.377c18.693,0,28.643-24.752,28.643-36.861h5.302v36.861h16.118v5.281h-15.784v57.348c0,5.458.687,10.738,6.68,10.738,2.576,0,4.286-1.193,5.485-3.072,3.266-4.621,3.088-13.836,3.088-19.954h6.322c0,9.393-.687,17.237-2.905,22.01h.024,0Z" fill="#3979c1" />
  <path d="M857.259,587.284v-5.128h2.576c2.397,0,5.152-.178,6.68-2.386,1.532-2.209,1.532-6.829,1.532-12.109v-42.827c0-3.402.329-8.2-2.576-10.586-1.711-1.548-4.973-1.701-8.061-1.701h-1.707v-5.281h33.434v60.42c0,5.28-.179,9.9,1.556,12.109,1.532,2.209,4.108,2.386,6.529,2.386h3.239v5.128h-43.201v-.025h-.001Z" fill="#3979c1" />
  <path d="M878.016,494.776c-7.215,0-13.03-5.788-13.03-12.972s5.814-12.795,13.03-12.795,13.034,5.636,13.034,12.795-5.838,12.972-13.034,12.972Z" fill="#3979c1" />
  <path d="M982.077,587.284v-5.128h1.02c2.219,0,4.64-.508,6.172-1.701,1.377-1.193,2.219-2.386,2.219-8.53v-83.953c0-2.386,0-7.692-2.576-10.231-1.532-1.549-4.465-2.234-6.35-2.234h-3.088v-5.128l32.926-2.564v104.11c0,5.635.869,7.336,2.219,8.53,1.556,1.193,4.465,1.701,7.731,1.701h1.377v5.128h-41.677" fill="#3979c1" />
  <path d="M603.338,587.284l-.357-12.465c-1.556,5.281-9.259,14.851-22.472,14.851-25.377,0-32.057-23.051-32.057-42.497s11.657-42.319,34.811-42.319c11.478,0,16.122,4.62,17.828,8.022v-24.904c0-4.443,0-7.692-2.576-10.231-1.528-1.549-3.925-2.234-7.878-2.234h-1.556v-5.128l32.926-2.564v104.11c0,5.635.865,7.336,2.219,8.53,1.556,1.193,4.461,1.701,7.549,1.701h2.219v5.128h-30.683.028-.001ZM601.091,538.288c0-9.901-1.377-26.783-14.228-26.783-14.566,0-14.744,24.219-14.744,35.668,0,9.901.691,33.281,14.232,33.281,5.128,0,9.438-3.249,11.478-8.022,1.377-3.427,3.262-8.53,3.262-17.567v-16.577Z" fill="#3979c1" data-split="true"/>
  <path d="M660.085,544.609s-.512,8.352,1.199,18.1c1.707,9.723,5.838,19.954,17.316,19.954,15.939,0,23.488-13.988,23.488-22.695h6.684c0,11.424-11.145,29.702-33.104,29.702-25.706,0-38.383-18.1-38.383-42.497s16.63-42.319,37.72-42.319c25.02,0,34.787,18.075,34.787,39.755h-49.734.028,0ZM674.825,509.271c-14.054,0-14.232,21.832-14.562,29.855h28.104c.179-8.708-.508-29.855-13.542-29.855h0Z" fill="#3979c1" data-split="true"/>
  <path d="M950.528,587.284c.179,0-.179-12.973-.357-12.973-1.377,6.651-11.657,15.359-23.135,15.359-18.003,0-23.666-12.617-23.666-20.664,0-18.938,19.027-25.26,45.269-30.362v-13.48c0-9.215-3.925-14.673-16.118-14.673-8.239,0-15.276,4.95-16.296,7.844v.33c1.02-1.549,3.262-2.056,4.973-2.056,5.993,0,10.125,3.402,10.125,9.393,0,4.621-4.794,9.723-11.478,9.723-5.481,0-12.01-3.579-12.01-11.957,0-11.272,13.208-18.938,30.171-18.938,15.07,0,31.549,4.265,31.549,27.646v39.248c0,5.788.865,7.667,2.242,8.707,1.532,1.193,3.596,1.701,5.814,1.701h1.711v5.128h-28.794v.025h0ZM948.615,543.746c-15.252,2.894-23.67,6.829-23.67,22.365,0,9.038,4.62,13.658,9.771,13.658,7.215,0,9.767-4.265,11.323-7.336,1.707-3.072,2.576-9.723,2.576-15.866v-12.82h0Z" fill="#3979c1" data-split="true"/>
  <path d="M170.146,461.316l-52.463-30.387-19.205-3.402v13.988l14.742,13.658-20.582-1.701s.689,1.015,17.828,19.116l78.196,12.973,13.721,8.885-35.655,1.701-14.742,53.591-48.356,32.088h-31.549l10.635-20.817-1.709-.685-28.463,21.503h-6.861l29.151-40.618c1.377-11.601.689-6.499,2.397-27.316l-4.463-6.143-11.655,45.061-24.356,29.017h-6.172l14.41-20.132,20.225-61.79-5.152,2.386-8.927,24.574-6.172,3.402s-14.41,34.83-21.934,51.89c-10.967-15.714-23.311-36.886-23.311-73.747,0-55.292,47.667-113.655,119.335-113.655s105.613,54.606,111.785,82.937l-60.7-16.374.002-.003ZM119.061,402.268c-67.204,0-111.097,54.961-111.097,106.141,0,29.347,7.192,44.02,15.099,58.033,9.947-26.63,29.84-79.536,29.84-79.536,0,0,9.258-4.773,9.258-4.087l13.364-33.789,8.569-4.443,10.635-22.518,23.311,3.757,47.311,26.275,53.151,14.673c-13.722-34.805-52.462-64.507-99.441-64.507h0Z" fill="#3979c1" data-split="true"/>
  <polygon points="154.027 581.801 137.577 581.801 168.106 543.924 171.191 549.738 154.053 581.826 154.027 581.801" fill="#3979c1"/>
</svg>