<?xml version="1.0" encoding="UTF-8"?>
<svg id="Layer_1" xmlns="http://www.w3.org/2000/svg" width="1024" height="1024" version="1.1" viewBox="0 0 1024 1024">
  <!-- Generator: Adobe Illustrator 29.5.1, SVG Export Plug-In . SVG Version: 2.1.0 Build 141)  -->
  <path d="M54.239,466.061c4.03,0,7.305-3.276,7.305-7.305s-3.276-7.305-7.305-7.305-7.305,3.276-7.305,7.305,3.276,7.305,7.305,7.305Z" fill="#ff00f7"/>
  <path d="M78.144,430.718c4.03,0,7.305-3.276,7.305-7.305s-3.276-7.305-7.305-7.305-7.305,3.276-7.305,7.305,3.276,7.305,7.305,7.305Z" fill="#00cc35"/>
  <path d="M61.09,436.034c0-3.874-3.172-7.097-7.097-7.175l-15.624.039c-3.9.052-6.967,3.198-6.967,7.175s3.185,7.123,7.11,7.188l15.598-.052c3.848-.078,6.967-3.302,6.967-7.175h.013Z" fill="#009cfc"/>
  <path d="M81.003,475.589l-26.803.117c-3.9.052-6.954,3.211-6.954,7.175s3.198,7.136,7.136,7.188l26.738-.117c3.835-.091,6.954-3.315,6.954-7.175s-3.172-7.097-7.071-7.175h0v-.013Z" fill="#00cc35"/>
  <path d="M102.464,490.069l24.19-.247c3.835-.091,6.954-3.315,6.954-7.188s-3.172-7.097-7.071-7.175l-24.268.234c-3.9.052-6.954,3.211-6.954,7.175s3.198,7.136,7.149,7.188h0v.013Z" fill="#00cc35"/>
  <path d="M78.274,499.597c-4.03,0-7.305,3.276-7.305,7.305s3.276,7.305,7.305,7.305,7.305-3.276,7.305-7.305-3.276-7.305-7.305-7.305Z" fill="#ff00f7"/>
  <path d="M78.274,523.658c-4.03,0-7.305,3.276-7.305,7.305s3.276,7.305,7.305,7.305,7.305-3.276,7.305-7.305-3.276-7.305-7.305-7.305Z" fill="#00cc35"/>
  <path d="M126.525,547.718c-4.03,0-7.305,3.276-7.305,7.305s3.276,7.305,7.305,7.305,7.305-3.276,7.305-7.305-3.276-7.305-7.305-7.305Z" fill="#ff00f7"/>
  <path d="M126.525,499.597c-4.03,0-7.305,3.276-7.305,7.305h0c0,4.03,3.276,7.305,7.305,7.305s7.305-3.276,7.305-7.305h0c0-4.03-3.276-7.305-7.305-7.305Z" fill="#00cc35"/>
  <path d="M149.168,466.048c4.03,0,7.305-3.276,7.305-7.305s-3.276-7.305-7.305-7.305-7.305,3.276-7.305,7.305,3.276,7.305,7.305,7.305Z" fill="#009cfc"/>
  <path d="M102.503,561.081c-4.03,0-7.305,3.276-7.305,7.305s3.276,7.305,7.305,7.305,7.305-3.276,7.305-7.305-3.276-7.305-7.305-7.305Z" fill="#009cfc"/>
  <path d="M54.551,499.597c-4.03,0-7.305,3.276-7.305,7.305s3.276,7.305,7.305,7.305,7.305-3.276,7.305-7.305-3.276-7.305-7.305-7.305Z" fill="#ff00f7"/>
  <path d="M30.751,547.393c-4.03,0-7.305,3.276-7.305,7.305s3.276,7.305,7.305,7.305,7.305-3.276,7.305-7.305-3.276-7.305-7.305-7.305Z" fill="#00cc35"/>
  <path d="M30.946,523.775H10.746c-3.835.091-6.954,3.302-6.954,7.175s3.172,7.097,7.097,7.175h20.213c3.9-.039,6.954-3.198,6.954-7.175s-3.185-7.11-7.11-7.175Z" fill="#009cfc"/>
  <path d="M102.503,551.878c.481,0,.962-.052,1.417-.143,3.211-.663,5.693-3.523,5.758-6.928v-37.527c-.052-3.9-3.198-6.954-7.175-6.954s-7.136,3.198-7.188,7.123v37.475c.091,3.835,3.302,6.954,7.188,6.954Z" fill="#009cfc"/>
  <path d="M102.503,467.049c3.874,0,7.097-3.172,7.175-7.071v-32.757c-.052-3.9-3.198-6.954-7.175-6.954s-7.136,3.198-7.188,7.123v32.692c.091,3.835,3.302,6.954,7.188,6.954h0v.013Z" fill="#ff00f7"/>
  <path d="M23.445,482.92v24.203c.091,3.835,3.315,6.954,7.188,6.954s7.097-3.172,7.175-7.071v-24.268c-.052-3.9-3.211-6.954-7.175-6.954s-7.136,3.198-7.188,7.136Z" fill="#00cc35"/>
  <path d="M126.525,466.178c3.874,0,7.097-3.172,7.175-7.071l-.104-18.627c-.052-3.9-3.198-6.954-7.175-6.954s-7.136,3.198-7.188,7.136l.117,18.562c.091,3.835,3.315,6.954,7.188,6.954h-.013Z" fill="#00cc35"/>
  <path d="M78.534,439.96c-3.913,0-7.136,3.198-7.188,7.136l.117,12.115c.091,3.835,3.315,6.954,7.188,6.954s7.097-3.172,7.175-7.071l-.104-12.18c-.052-3.9-3.211-6.954-7.175-6.954h-.013Z" fill="#009cfc"/>
  <path d="M78.274,547.718c-3.913,0-7.136,3.198-7.188,7.123v17.626c.091,3.835,3.302,6.954,7.188,6.954.481,0,.962-.052,1.417-.143,3.211-.663,5.693-3.523,5.758-6.928v-17.678c-.052-3.9-3.198-6.954-7.175-6.954h0Z" fill="#009cfc"/>
  <path d="M150.793,475.615c-3.913,0-7.136,3.198-7.188,7.123v24.541c.091,3.835,3.315,6.954,7.188,6.954.481,0,.962-.052,1.417-.143,3.211-.663,5.693-3.523,5.758-6.928v-24.593c-.052-3.9-3.198-6.954-7.175-6.954h0Z" fill="#009cfc"/>
  <path d="M54.213,523.658c-3.913,0-7.136,3.198-7.188,7.136l.052,37.943c.091,3.835,3.315,6.954,7.188,6.954s7.097-3.172,7.175-7.097l-.052-37.982c-.052-3.9-3.198-6.954-7.175-6.954Z" fill="#ff00f7"/>
  <path d="M14.918,465.944h.013l15.598-.052c3.848-.078,6.967-3.302,6.967-7.175s-3.172-7.097-7.097-7.175l-15.624.039c-3.913.052-6.967,3.198-6.967,7.175,0,.481.052.962.143,1.43.663,3.224,3.523,5.706,6.954,5.758h.013Z" fill="#ff00f7"/>
  <path d="M145.906,523.762l-18.029.039c-3.9.052-6.967,3.198-6.967,7.175s3.198,7.136,7.136,7.188l17.951-.052c3.848-.091,6.967-3.302,6.967-7.175s-3.159-7.071-7.058-7.175h0Z" fill="#ff00f7"/>
  <path d="M14.203,506.903c0-4.03-3.276-7.305-7.305-7.305s-7.305,3.276-7.305,7.305,3.276,7.305,7.305,7.305,7.305-3.276,7.305-7.305Z" fill="#009cfc"/>
  <path d="M6.898,490.069c4.03,0,7.305-3.276,7.305-7.305s-3.276-7.305-7.305-7.305-7.305,3.276-7.305,7.305,3.276,7.305,7.305,7.305Z" fill="#00cc35"/>
  <path d="M746.561,406.436c-6.187,0-11.218,5.03-11.218,11.218s5.03,11.218,11.218,11.218,11.218-5.03,11.218-11.218-5.03-11.218-11.218-11.218Z" fill="#009cfc"/>
  <path d="M1016.114,516.652h-1.053c-2.769,0-5.316,1.586-6.655,4.147-2.769,5.277-6.681,9.554-11.608,12.713-5.758,3.705-12.882,5.589-21.136,5.589-7.279,0-13.922-1.716-19.706-5.108-5.771-3.38-10.373-8.293-13.662-14.597-3.328-6.369-5.017-13.922-5.017-22.449s1.69-16.105,5.017-22.527c3.302-6.356,7.89-11.296,13.662-14.675,5.797-3.393,12.44-5.108,19.719-5.108,8.241,0,15.351,1.898,21.123,5.654,4.939,3.211,8.839,7.552,11.621,12.908,1.339,2.587,3.9,4.186,6.681,4.186h1.079c2.665,0,5.043-1.365,6.382-3.666,1.365-2.353,1.378-5.173.026-7.552-3.848-6.772-9.034-12.349-15.416-16.586-8.735-5.81-19.329-8.748-31.496-8.748-10.009,0-19.225,2.418-27.375,7.175-8.163,4.771-14.688,11.504-19.394,20.018-4.692,8.488-7.071,18.224-7.071,28.922s2.379,20.395,7.071,28.844c4.706,8.462,11.231,15.169,19.394,19.94,8.163,4.758,17.366,7.162,27.375,7.162,12.05,0,22.618-2.912,31.405-8.657,6.382-4.186,11.582-9.684,15.429-16.339,1.378-2.366,1.378-5.199.026-7.565-1.339-2.314-3.731-3.692-6.408-3.692h-.013v.013Z" fill="#fff"/>
  <path d="M244.579,459.757c5.797-3.393,12.427-5.108,19.706-5.108,8.241,0,15.351,1.898,21.123,5.654,4.939,3.211,8.839,7.552,11.621,12.908,1.339,2.587,3.9,4.186,6.681,4.186h1.079c2.665,0,5.043-1.378,6.382-3.666,1.365-2.353,1.378-5.173,0-7.539-3.848-6.772-9.034-12.349-15.416-16.586-8.735-5.81-19.329-8.748-31.496-8.748-10.009,0-19.225,2.418-27.388,7.175s-14.688,11.491-19.394,20.018c-4.693,8.501-7.071,18.224-7.071,28.922s2.379,20.395,7.071,28.844c4.706,8.475,11.231,15.182,19.381,19.94,8.163,4.758,17.366,7.162,27.388,7.162,12.063,0,22.618-2.912,31.405-8.657,6.382-4.186,11.582-9.684,15.429-16.339,1.378-2.379,1.378-5.199.026-7.565-1.339-2.314-3.731-3.692-6.408-3.692h-1.053c-2.769,0-5.316,1.586-6.655,4.147-2.769,5.277-6.681,9.554-11.608,12.713-5.771,3.705-12.882,5.589-21.136,5.589-7.292,0-13.922-1.716-19.706-5.108-5.771-3.38-10.373-8.293-13.662-14.597-3.328-6.356-5.017-13.909-5.017-22.449s1.69-16.105,5.017-22.527c3.289-6.356,7.89-11.296,13.662-14.675h.039Z" fill="#fff"/>
  <path d="M420.307,447.993c-8.657-4.745-18.484-7.136-29.195-7.136s-20.382,2.405-29.039,7.136c-8.696,4.758-15.637,11.478-20.642,19.992-5.004,8.501-7.539,18.25-7.539,28.974s2.535,20.473,7.539,28.974c5.004,8.514,11.946,15.247,20.642,19.992,8.657,4.745,18.432,7.136,29.039,7.136s20.538-2.405,29.195-7.136c8.696-4.758,15.611-11.491,20.564-20.005,4.952-8.501,7.461-18.25,7.461-28.961s-2.509-20.46-7.461-28.961c-4.952-8.514-11.868-15.247-20.564-20.005ZM432.305,496.959c0,8.501-1.82,16.053-5.42,22.462-3.575,6.369-8.514,11.322-14.662,14.714-6.187,3.406-13.285,5.134-21.11,5.134s-14.922-1.729-21.11-5.134c-6.148-3.393-11.075-8.332-14.662-14.714-3.601-6.395-5.42-13.961-5.42-22.462s1.82-16.027,5.42-22.371c3.588-6.33,8.514-11.257,14.662-14.636,6.187-3.406,13.285-5.134,21.11-5.134s14.922,1.729,21.11,5.134c6.148,3.393,11.088,8.319,14.662,14.636,3.588,6.356,5.42,13.883,5.42,22.371Z" fill="#fff"/>
  <path d="M746.366,443.612c-4.095,0-7.422,3.328-7.422,7.422v91.913c0,4.095,3.328,7.422,7.422,7.422h.39c4.095,0,7.422-3.328,7.422-7.422v-91.913c0-4.095-3.328-7.422-7.812-7.422Z" fill="#fff"/>
  <path d="M577.682,495.945c-.13-10.425-2.626-19.875-7.409-28.103-4.952-8.514-11.868-15.247-20.564-20.005-8.67-4.732-18.484-7.136-29.195-7.136s-20.382,2.405-29.039,7.136c-8.696,4.745-15.637,11.478-20.642,19.992s-7.539,18.263-7.539,28.974,2.535,20.473,7.539,28.974c5.004,8.514,11.946,15.247,20.642,19.992,8.657,4.745,18.432,7.149,29.039,7.149s20.538-2.405,29.195-7.136c2.86-1.56,5.563-3.367,8.033-5.355.858-.689,1.95-.819,2.938-.338,1.001.481,1.599,1.43,1.599,2.535v25.282c0,7.253-1.638,13.623-4.861,18.926-3.224,5.303-7.695,9.437-13.298,12.297-5.693,2.899-12.167,4.368-19.264,4.368-10.321,0-19.017-2.223-25.828-6.603-6.72-4.316-11.348-10.178-13.779-17.444l-.754-2.223c-3.25-13.727-17.691-7.734-15.702,0h0l1.144,4.134c3.016,10.971,9.437,19.797,19.056,26.257,9.502,6.382,21.578,9.619,35.876,9.619,9.736,0,18.705-2.015,26.647-5.979,8.033-4.017,14.493-9.827,19.225-17.262,4.745-7.474,7.162-16.248,7.162-26.088l-.195-71.935-.026-.026h0ZM556.273,519.264c-3.588,6.369-8.514,11.322-14.662,14.701-6.187,3.406-13.285,5.134-21.11,5.134s-14.922-1.729-21.11-5.134c-6.148-3.393-11.075-8.332-14.662-14.701-3.601-6.408-5.42-13.961-5.42-22.462s1.82-16.027,5.42-22.371c3.588-6.33,8.514-11.257,14.662-14.636,6.187-3.406,13.285-5.134,21.11-5.134s14.922,1.729,21.11,5.134c6.148,3.393,11.088,8.319,14.662,14.636,3.588,6.356,5.42,13.883,5.42,22.371s-1.82,16.053-5.42,22.462Z" fill="#fff"/>
  <path d="M692.889,453.348c-9.411-7.812-21.682-11.777-36.487-11.777h-.546c-14.896,0-27.245,3.965-36.721,11.764-9.632,7.929-14.507,19.732-14.507,35.057v54.542c0,4.095,3.328,7.422,7.422,7.422h1.56c4.095,0,7.422-3.328,7.422-7.422v-53.983c0-10.932,3.237-19.342,9.606-25.009,6.2-5.498,14.792-8.397,25.438-8.605,10.672.208,19.199,3.094,25.347,8.592,6.33,5.667,9.554,14.078,9.554,25.009v53.983c0,4.095,3.328,7.422,7.422,7.422h1.482c4.095,0,7.422-3.328,7.422-7.422v-54.516c0-15.325-4.848-27.115-14.416-35.057Z" fill="#fff"/>
  <path d="M894.888,494.684c-.442-9.645-2.886-18.354-7.279-25.893-4.952-8.514-11.881-15.247-20.564-20.005-8.67-4.732-18.497-7.136-29.195-7.136s-20.382,2.405-29.039,7.136c-8.696,4.745-15.637,11.478-20.642,19.992-5.004,8.501-7.539,18.25-7.539,28.974s2.535,20.473,7.539,28.974c5.004,8.514,11.946,15.247,20.642,19.992,8.657,4.745,18.432,7.149,29.039,7.149s20.538-2.405,29.195-7.136c2.886-1.573,5.615-3.393,8.111-5.42.858-.689,1.95-.819,2.938-.351,1.001.481,1.599,1.43,1.599,2.535v2.977c0,4.082,3.315,7.409,7.76,7.422h.026c1.976,0,3.835-.767,5.238-2.171s2.184-3.263,2.184-5.251v-51.774h-.013v-.013ZM879.03,497.739c0,8.501-1.82,16.053-5.42,22.462-3.575,6.369-8.514,11.322-14.663,14.701-6.187,3.406-13.298,5.134-21.11,5.134s-14.922-1.729-21.11-5.134c-6.148-3.38-11.075-8.332-14.663-14.701-3.588-6.395-5.42-13.961-5.42-22.462s1.82-16.027,5.42-22.371c3.575-6.33,8.514-11.257,14.663-14.649,6.187-3.406,13.285-5.134,21.11-5.134s14.922,1.729,21.11,5.134c6.148,3.393,11.088,8.319,14.663,14.636,3.601,6.356,5.42,13.883,5.42,22.371h0v.013Z" fill="#fff"/>
</svg>