<?xml version="1.0" encoding="UTF-8"?>
<svg id="Layer_1" xmlns="http://www.w3.org/2000/svg" width="1024" height="1024" version="1.1" viewBox="0 0 1024 1024">
  <!-- Generator: Adobe Illustrator 29.5.1, SVG Export Plug-In . SVG Version: 2.1.0 Build 141)  -->
  <path d="M597.677,403.54v26.443h-34.279v150.841h-33.95v-150.841h-31.858l-.747-.583v151.423h-33.934v-177.284h66.539v-37.815h33.95v37.815h34.279ZM799.427,580.824v-215.091h33.967v215.091h-33.967ZM140.643,535.921c11.248-11.388,17.894-27.231,17.23-44.846,0-17.566-6.826-32.736-17.886-43.632-11.076-11.093-26.583-17.558-43.976-17.558-37.446,0-62.043,28.568-62.043,61.854v.32c.123,32.695,23.096,62.232,62.133,62.232,17.418,0,33.278-6.966,44.543-18.37ZM155.829,432.437v-66.711h33.95v215.099h-32.531v-30.808c-9.87,18.034-29.938,35.952-66.457,35.952C35.14,585.969,0,542.862,0,491.912,0,436.752,39.882,398.224,90.25,398.224c36.346,0,58.252,20.159,65.579,34.213ZM739.477,519.208c4.127-8.196,6.121-17.189,6.334-26.353.369-9.189-1.403-18.378-5.136-26.591-8.508-20.298-28.363-36.379-56.734-36.379-37.265,0-61.337,29.446-61.337,62.56v.345c.156,26.558,18.969,61.674,61.961,61.674,27.124,0,46.175-15.113,54.913-35.255ZM745.384,434.603v-31.062h33.942v177.284h-33.942v-30.808c-12.43,23.596-37.684,36.125-65.76,36.125-57.079,0-90.972-44.543-90.972-94.041,0-54.076,39.349-93.877,90.972-93.877,35.083,0,57.703,19.445,65.76,36.379ZM392.695,536.651c10.576-11.043,16.91-26.337,17.279-43.599,0-14.087-4.496-29.815-14.35-41.95-9.657-12.315-24.983-21.036-46.643-21.036-33.384,0-61.231,25.319-61.231,61.674v.32c.156,33.22,23.777,62.232,61.501,62.232,17.886,0,32.72-6.613,43.443-17.64ZM409.522,433.347v-29.807h33.942v156.617c0,31.169-7.934,51.057-21.119,65.956-16.081,18.862-44.042,32.186-74.678,32.186-50.204,0-79.264-29.356-87.977-58.892h39.226c4.053,7.934,10.641,15.096,19.617,20.626,10.764,6.949,22.8,9.271,30.718,9.271,29.454,0,60.09-21.627,60.09-61.395v-18.509c-10.428,20.093-31.932,36.568-63.938,36.568-53.051,0-91.596-40.243-91.596-93.146,0-55.52,40.235-94.434,91.596-94.434,29.84,0,54.273,15.507,64.119,34.96h0ZM210.152,580.824v-177.284h33.959v177.284h-33.959ZM853.19,580.823v-177.284h33.959v177.284h-33.959ZM985.334,448.998c-.181-13.866-8.59-24.089-25.729-23.941-16.68,0-25.844,10.978-25.426,22.899.443,13.849,13.373,20.413,32.26,25.828,27.124,7.466,56.669,15.252,57.547,53.362.738,34.672-27.879,58.137-63.298,58.137-27.977,0-62.666-16.04-64.48-56.472h33.762c1.255,21.594,18.551,28.741,31.062,28.741,16.59,0,29.274-11.642,28.995-26.575-.279-17.5-13.496-23.539-45.141-33.671-24.655-7.499-44.214-19.322-44.649-46.118,0-33.548,27.485-53.83,59.721-53.83,24.392.139,56.259,12.069,58.769,51.639h-33.393ZM625.653,388.14v-22.439h120.328v22.439h-120.328Z" fill="#fff" fill-rule="evenodd" data-split="true"/>
</svg>