<?xml version="1.0" encoding="UTF-8"?>
<svg id="Layer_1" xmlns="http://www.w3.org/2000/svg" width="1024" height="1024" xmlns:xlink="http://www.w3.org/1999/xlink" version="1.1" viewBox="0 0 1024 1024">
  <!-- Generator: Adobe Illustrator 29.5.1, SVG Export Plug-In . SVG Version: 2.1.0 Build 141)  -->
  <defs>
    <clipPath id="clippath">
      <rect x=".014" y="-.164" width="1024" height="1024" fill="none" />
    </clipPath>
  </defs>
  <g clip-path="url(#clippath)">
    <rect x=".014" y="-.164" width="1024" height="1024" fill="#a52b32" />
  </g>
  <path d="M318.65,294.011c0,21.069,25.218,10.885,25.218,18.403,0,1.445-.489,2.917-3.16,2.917-9.685,0-15.507-.49-33.681-.49s-24.002.49-33.691.49c-2.428,0-3.156-1.467-3.156-2.917,0-7.517,25.218,2.667,25.218-18.403v-139.121c-21.09,2.423-40.964,18.907-50.898,38.292-4.861,9.445-4.861,11.624-7.034,11.624-.967,0-1.689-.702-1.689-1.928,0-1.445.722-4.84,2.178-9.94l11.868-43.137c.733-2.199,1.216-3.151,2.911-3.151,1.45,0,1.928.951,2.906,1.928.972.973,2.417,1.934,6.056,1.934h90.64c3.645,0,5.095-.968,6.072-1.934.962-.977,1.456-1.928,2.906-1.928,1.705,0,2.183.951,2.896,3.151l11.878,43.137c1.461,5.095,2.188,8.489,2.188,9.94,0,1.221-.722,1.928-1.694,1.928-2.179,0-2.179-2.178-7.039-11.624-9.924-19.38-29.818-35.869-50.898-38.292v139.121h.005Z" fill="#fff" double-extrude="true" />
  <path d="M404.929,230.023v63.988c0,21.069,21.319,10.885,21.319,18.402,0,1.445-.978,2.917-3.145,2.917-5.822,0-11.634-.489-29.813-.489s-23.986.489-29.803.489c-2.168,0-3.144-1.467-3.144-2.917,0-7.517,21.324,2.667,21.324-18.402v-122.653c0-21.085-21.324-10.901-21.324-18.408,0-1.455.977-2.911,3.144-2.911,5.822,0,11.634.479,29.803.479s23.996-.479,29.813-.479c2.167,0,3.145,1.456,3.145,2.911,0,7.507-21.319-2.677-21.319,18.408v54.304h70.278v-54.304c0-21.085-21.324-10.901-21.324-18.408,0-1.455.967-2.911,3.156-2.911,5.812,0,11.629.479,29.813.479s23.985-.479,29.798-.479c2.199,0,3.156,1.456,3.156,2.911,0,7.507-21.324-2.677-21.324,18.408v122.653c0,21.069,21.324,10.885,21.324,18.402,0,1.445-.956,2.917-3.156,2.917-5.812,0-11.624-.489-29.798-.489s-24.001.489-29.813.489c-2.189,0-3.156-1.467-3.156-2.917,0-7.517,21.324,2.667,21.324-18.402v-63.988h-70.278Z" fill="#fff" double-extrude="true"/>
  <path d="M234.724,438.902l-4.138,14.041c-2.412,7.756-3.618,15.518-3.618,21.101,0,9.939,3.618,14.773,9.923,18.891,5.35,3.405,10.662,2.189,10.662,5.334,0,2.178-.972,3.15-4.84,3.15-3.156,0-9.939-.489-26.419-.489-15.267,0-20.357.489-27.879.489-2.656,0-3.623-1.461-3.623-2.656,0-4.855,8.957-.494,19.624-11.879,7.528-8.011,14.785-22.057,21.329-39.742l31.259-85.089c-3.145-3.639-7.018-5.557-7.018-6.774,0-.733,6.295-5.089,10.896-13.324,5.833-10.433,4.372-13.584,6.55-13.584,1.695,0,1.695,2.178,3.634,7.034l60.099,147.111c7.033,16.973,19.645,10.184,19.645,15.996,0,1.934-.977,2.906-3.894,2.906-2.661,0-9.451-.489-30.775-.489-15.034,0-20.357.489-23.258.489s-3.639-1.461-3.639-2.906c0-6.067,16.962.25,16.962-12.85,0-4.834-1.206-8.713-3.639-14.535l-13.079-32.225h-54.766ZM260.16,366.669l-23.508,67.861h51.137l-27.63-67.861Z" fill="#fff" data-split="true" double-extrude="true"/>
  <path d="M468.731,462.404h.488v-82.65c0-23.99-7.272-35.625-22.785-37.793-3.644-.494-5.328-.983-5.328-3.145,0-1.71.972-2.678,2.906-2.678,2.178,0,5.328.479,28.586.479s26.424-.479,28.608-.479c1.934,0,2.906.973,2.906,2.678,0,2.167-1.684,2.656-5.328,3.145-15.518,2.167-22.785,13.802-22.785,37.793v121.914c0,2.667-.244,3.645-2.189,3.645-1.211,0-2.411-2.433-5.811-7.278l-92.579-129.171h-.728v88.929c0,23.991,7.267,35.636,22.779,37.809,3.634.484,5.339.972,5.339,3.161,0,1.684-.972,2.656-2.927,2.656-2.173,0-5.323-.489-28.591-.489s-26.408.489-28.597.489c-1.934,0-2.911-.972-2.911-2.656,0-2.189,1.694-2.678,5.349-3.161,15.491-2.173,22.769-13.823,22.769-37.809v-97.19l-8.473-10.652c-8.011-10.184-18.667-6.067-18.667-10.434,0-2.173.717-3.384,6.056-3.384,5.079,0,14.774.479,23.502.479h9.207l89.206,125.792Z" fill="#fff" double-extrude="true"/>
  <path d="M520.558,357.457c0-21.08-21.334-10.901-21.334-18.407,0-1.456.972-2.912,3.151-2.912,5.811,0,11.639.479,29.813.479s24.001-.479,29.797-.479c2.189,0,3.156,1.455,3.156,2.912,0,7.506-21.335-2.667-21.335,18.407v69.327h.489l44.109-56.476c3.156-3.884,8.239-11.145,8.239-16.229,0-14.562-13.323-8.734-13.323-14.562,0-1.678.727-3.384,3.878-3.384,6.072,0,12.357.478,24.463.478,11.65,0,19.88-.478,23.524-.478,2.656,0,3.634.972,3.634,3.15,0,5.084-14.546-1.445-36.587,24.719l-22.046,26.429,49.432,91.113c9.929,18.179,24.485,10.667,24.485,16.968,0,2.672-1.71,2.906-5.105,2.906-6.545,0-13.313-.489-19.619-.489h-14.795l-49.682-92.085-21.096,26.424v44.826c0,21.096,21.335,10.895,21.335,18.418,0,1.44-.967,2.906-3.156,2.906-5.801,0-11.624-.489-29.797-.489s-24.002.489-29.813.489c-2.179,0-3.151-1.461-3.151-2.906,0-7.528,21.334,2.672,21.334-18.418v-122.637Z" fill="#fff" double-extrude="true"/>
  <path d="M867.311,411.761c23.002,0,39.987-6.789,39.987-32.251,0-3.389.478-4.834,2.417-4.834,2.167,0,2.417,1.44,2.417,4.834v71.277c0,3.373-.249,4.829-2.417,4.829-1.939,0-2.417-1.456-2.417-4.829,0-26.44-16.985-34.675-39.987-34.675v63.988c0,21.096,21.313,10.896,21.313,18.418,0,1.439-.968,2.906-3.145,2.906-5.812,0-11.629-.489-29.798-.489s-24.001.489-29.818.489c-2.189,0-3.145-1.461-3.145-2.906,0-7.528,21.324,2.672,21.324-18.418v-122.642c0-21.08-21.324-10.901-21.324-18.407,0-1.456.956-2.912,3.145-2.912,5.822,0,11.639.479,29.818.479,44.827,0,54.766-.234,78.274-.479l15.012,45.804c1.223,4.117,1.721,5.328,1.721,6.54s-.738,2.167-2.438,2.167c-1.69,0-2.428-1.668-4.128-6.046-15.262-39.503-39.003-42.642-76.812-42.642v69.799Z" fill="#fff" double-extrude="true"/>
  <path d="M468.157,648.514h.489v-82.656c0-24.002-7.257-35.63-22.785-37.809-3.628-.478-5.312-.977-5.312-3.134,0-1.731.956-2.677,2.89-2.677,2.183,0,5.334.478,28.602.478s26.408-.478,28.602-.478c1.939,0,2.916.946,2.916,2.677,0,2.157-1.716,2.656-5.355,3.134-15.496,2.178-22.779,13.813-22.779,37.809v121.904c0,2.657-.223,3.634-2.162,3.634-1.217,0-2.423-2.449-5.823-7.262l-92.595-129.176h-.717v88.929c0,24.002,7.267,35.641,22.79,37.819,3.639.478,5.328.978,5.328,3.156,0,1.689-.977,2.656-2.911,2.656-2.178,0-5.328-.489-28.591-.489s-26.429.489-28.602.489c-1.928,0-2.911-.967-2.911-2.656,0-2.178,1.689-2.678,5.328-3.156,15.518-2.178,22.795-13.823,22.795-37.819v-97.18l-8.479-10.667c-8.011-10.179-18.662-6.072-18.662-10.417,0-2.179.706-3.384,6.051-3.384,5.089,0,14.79.478,23.508.478h9.212l89.174,125.798Z" fill="#fff" double-extrude="true"/>
  <path d="M519.98,543.546c0-21.074-21.324-10.896-21.324-18.397,0-1.45.972-2.906,3.145-2.906,5.817,0,11.645.478,29.824.478,44.842,0,54.755-.249,81.189-.478l15.024,45.788c1.216,4.117,1.689,5.344,1.689,6.556s-.738,2.178-2.417,2.178c-1.689,0-2.428-1.7-4.128-6.072-15.263-39.492-39.025-42.643-79.729-42.643v69.8c23.024,0,39.976-6.784,39.976-32.236,0-3.394.489-4.834,2.438-4.834,2.168,0,2.428,1.44,2.428,4.834v71.261c0,3.384-.26,4.845-2.428,4.845-1.95,0-2.438-1.461-2.438-4.845,0-26.429-16.952-34.653-39.976-34.653v63.977c0,10.906,3.862,15.512,18.657,15.512,31.513,0,54.299-18.917,64.966-43.631,5.084-11.868,4.356-15.024,7.023-15.024,1.206,0,1.928.728,1.928,2.189,0,1.206-.967,6.051-2.178,10.657l-12.596,51.621c-29.569-.239-57.677-.489-89.429-.489-18.179,0-24.007.489-29.824.489-2.173,0-3.145-1.45-3.145-2.917,0-7.501,21.325,2.678,21.325-18.407v-122.653Z" fill="#fff" double-extrude="true"/>
  <path d="M766.189,656.01h.489l25.94-82.874c1.94-6.072,3.634-17.94,3.634-25.202,0-24.235-18.897-17.701-18.897-22.785,0-2.428,1.69-2.906,6.535-2.906,3.878,0,10.189.478,19.38.478,11.639,0,20.368-.478,24.724-.478,5.334,0,7.034.228,7.034,2.906,0,5.334-19.151-2.678-31.274,33.92l-40.226,122.642c-1.69,5.084-2.916,9.201-5.562,9.201-2.688,0-3.899-4.117-5.584-9.201l-33.463-99.858h-.478l-30.047,99.858c-1.461,5.084-2.667,9.201-5.334,9.201s-3.878-4.117-5.573-9.201l-47.259-135.966c-8.24-23.024-22.774-15.772-22.774-20.825,0-1.471.967-2.677,4.107-2.677,3.156,0,8.5.478,25.701.478,11.385,0,23.503-.478,27.381-.478,3.405,0,4.138.945,4.138,2.677,0,4.096-16.745,1.69-16.745,13.063,0,4.117,2.178,9.701,4.128,14.795l35.869,101.048h.478l23.024-80.218-11.385-32.964c-5.334-15.251-19.39-10.906-19.39-15.501,0-2.428,1.711-2.906,5.095-2.906,7.751,0,16.469.478,23.502.478,9.929,0,23.523-.478,27.88-.478,2.895,0,3.623.706,3.623,2.417,0,5.573-15.502-.489-15.502,11.868,0,9.212,2.667,16.251,4.595,21.818l32.236,97.669h0Z" fill="#fff" double-extrude="true"/>
  <path d="M314.055,852.287c0,21.096,21.335,10.906,21.335,18.418,0,1.461-.983,2.916-3.15,2.916-5.834,0-11.64-.488-29.814-.488s-23.996.488-29.818.488c-2.184,0-3.135-1.45-3.135-2.916,0-7.512,21.329,2.678,21.329-18.418v-53.799l-38.281-69.8c-10.433-19.146-22.806-11.629-22.806-17.69,0-1.939,1.944-2.667,7.273-2.667,4.122,0,9.7.478,22.79.478,15.034,0,18.886-.478,25.202-.478,6.056,0,7.272.239,7.272,2.917,0,5.573-15.034-.249-15.034,11.145,0,6.534,2.667,13.074,7.528,21.579l25.681,45.06,21.079-33.203c5.828-8.967,9.95-18.657,9.95-25.691,0-20.357-15.273-12.596-16.25-18.429-.245-2.406,1.461-3.384,6.55-3.384s9.445.478,23.497.478c10.434,0,14.54-.478,20.124-.478,4.112,0,5.578.978,5.578,3.167,0,4.834-13.578-.978-35.641,32.953l-31.253,47.987v59.855h-.005Z" fill="#fff" double-extrude="true"/>
  <path d="M533.563,852.287c0,21.096,21.324,10.906,21.324,18.418,0,1.461-.977,2.916-3.145,2.916-5.822,0-11.629-.488-29.818-.488s-23.986.488-29.803.488c-2.189,0-3.166-1.45-3.166-2.916,0-7.512,21.339,2.678,21.339-18.418v-122.632c0-21.085-21.339-10.906-21.339-18.407,0-1.461.977-2.917,3.166-2.917,5.817,0,11.634.478,29.803.478,11.639,0,20.846-.478,31.035-.478,42.881,0,62.999,19.869,62.999,43.132,0,16.973-13.812,32.486-32.236,36.608-8.729,1.928-18.646,2.656-27.369,3.145v.499c25.452,2.168,35.63,7.501,44.842,25.202l17.68,34.169c11.374,22.296,27.88,13.813,27.88,19.619,0,1.95-.489,2.916-2.917,2.916-6.545,0-16.001-.488-24.963-.488h-14.067l-31.503-61.311c-7.512-14.295-17.441-18.678-33.431-18.678h-6.311v59.143ZM533.563,788.788h17.191c26.201,0,40.974-12.107,40.974-38.276,0-23.545-15.512-36.359-40.725-36.359h-17.441v74.634Z" fill="#fff" data-split="true" double-extrude="true"/>
  <path d="M635.599,729.655c0-21.085-21.324-10.906-21.324-18.407,0-1.461.956-2.917,3.156-2.917,5.812,0,11.629.478,29.808.478s23.98-.478,29.808-.478c2.157,0,3.135,1.45,3.135,2.917,0,7.501-21.325-2.678-21.325,18.407v69.322h.499l44.098-56.476c3.156-3.878,8.239-11.146,8.239-16.23,0-14.556-13.333-8.728-13.333-14.556,0-1.678.738-3.384,3.878-3.384,6.072,0,12.356.478,24.474.478,11.64,0,19.88-.478,23.502-.478,2.677,0,3.644.978,3.644,3.167,0,5.073-14.545-1.461-36.597,24.703l-22.046,26.429,49.431,91.108c9.94,18.2,24.485,10.667,24.485,16.962,0,2.678-1.701,2.916-5.105,2.916-6.53,0-13.323-.489-19.608-.489h-14.795l-49.672-92.085-21.095,26.418v44.827c0,21.095,21.325,10.906,21.325,18.418,0,1.461-.978,2.916-3.135,2.916-5.833,0-11.64-.488-29.808-.488s-24.002.488-29.808.488c-2.2,0-3.156-1.45-3.156-2.916,0-7.512,21.324,2.678,21.324-18.418v-122.632Z" fill="#fff" double-extrude="true"/>
  <path d="M94.657,357.457c0-21.08-21.319-10.901-21.319-18.407,0-1.456.967-2.912,3.14-2.912,5.822,0,11.629.479,29.813.479,13.095,0,22.79-.479,36.353-.479,40.969,0,58.16,19.146,58.16,40.475,0,22.785-20.596,35.152-51.376,37.335v.484c34.897,1.19,59.127,16.468,59.127,41.915,0,34.18-26.652,45.081-60.338,45.081-14.291,0-27.859-.489-41.926-.489-18.179,0-23.991.489-29.813.489-2.173,0-3.14-1.461-3.14-2.906,0-7.528,21.318,2.672,21.318-18.418v-122.648h0ZM117.92,411.761h16.729c27.624,0,42.903-10.667,42.903-36.125,0-23.263-15.518-33.675-37.819-33.675h-21.818v69.8h.005ZM117.92,416.106v59.387c0,16.234,5.339,20.113,25.446,20.113,24.979,0,40.959-9.69,40.959-39.014,0-26.892-17.207-40.486-51.132-40.486h-15.273Z" fill="#fff" data-split="true" double-extrude="true"/>
  <path d="M674.311,418.773c0-53.555,44.119-86.034,83.14-86.034s83.102,32.48,83.102,86.034-44.098,86.056-83.102,86.056-83.14-32.48-83.14-86.056M757.45,499.001c27.369,0,56.454-18.907,56.454-80.228s-29.085-80.207-56.454-80.207-56.466,18.891-56.466,80.207,29.075,80.228,56.466,80.228" fill="#fff" data-split="true" double-extrude="true"/>
  <path d="M339.219,790.977c0-53.56,44.109-86.024,83.134-86.024s83.129,32.464,83.129,86.024-44.093,86.045-83.129,86.045-83.134-32.485-83.134-86.045M422.353,871.21c27.396,0,56.471-18.923,56.471-80.239s-29.08-80.207-56.471-80.207-56.482,18.886-56.482,80.207,29.107,80.239,56.482,80.239" fill="#fff" data-split="true" double-extrude="true"/>
  <path d="M528.517,171.358c0-21.085-21.33-10.901-21.33-18.407,0-1.456.978-2.912,3.145-2.912,5.828,0,11.65.478,29.819.478,44.842,0,54.766-.244,81.179-.478l15.034,45.798c1.217,4.128,1.7,5.334,1.7,6.551s-.749,2.178-2.418,2.178c-1.7,0-2.438-1.69-4.138-6.046-15.263-39.503-39.014-42.664-79.729-42.664v69.805c23.024,0,39.976-6.784,39.976-32.247,0-3.389.489-4.839,2.438-4.839,2.178,0,2.418,1.451,2.418,4.839v71.272c0,3.378-.239,4.839-2.418,4.839-1.949,0-2.438-1.455-2.438-4.839,0-26.43-16.952-34.664-39.976-34.664v63.988c0,10.885,3.878,15.497,18.668,15.497,31.502,0,54.288-18.897,64.955-43.626,5.073-11.884,4.367-15.029,7.034-15.029,1.195,0,1.939.727,1.939,2.193,0,1.206-.978,6.04-2.189,10.657l-12.606,51.627c-29.558-.25-57.677-.489-89.429-.489-18.169,0-23.991.489-29.819.489-2.167,0-3.145-1.467-3.145-2.917,0-7.517,21.33,2.667,21.33-18.403v-122.653h0Z" fill="#fff" data-split="true" double-extrude="true"/>
</svg>