<?xml version="1.0" encoding="UTF-8"?>
<svg id="Layer_1" xmlns="http://www.w3.org/2000/svg" version="1.1" viewBox="0 0 1024 1024">
  <!-- Generator: Adobe Illustrator 29.5.1, SVG Export Plug-In . SVG Version: 2.1.0 Build 141)  -->
  <path d="M570.15,710.349c-7.153-.304-14.305,1.674-20.544-2.891-9.892-7-6.848-23.74,5.326-25.719,14.457-2.283,39.111,0,54.785,0,3.348,0,6.239-1.37,10.196-1.217,6.848.152,13.696,2.739,18.262,7.913,1.674-1.37,2.891-3.196,4.718-4.413,6.087-3.652,38.198-3.196,46.72-2.435,26.327,2.283,45.807,27.393,37.284,53.264-3.348,10.044-9.892,15.827-17.196,22.827l16.436,23.284,36.219-91.613c11.414-13.849,29.675-10.348,37.284,5.631,9.283,19.631,16.283,45.046,24.349,65.742,2.283,5.935,4.413,13.696,8.827,17.957v-87.352c0-4.718,10.196-10.196,14.609-10.653,3.348-.304,12.175,2.891,14.001,5.479,1.217,1.826,2.131,7.761,2.283,10.348.152,2.283,0,4.565,0,6.848,1.217,31.958-.761,64.221,0,96.331-1.065,8.066-8.218,12.022-15.827,12.022-1.065,0-2.739.152-3.348,0-1.826-.457-6.544-5.326-8.827-5.479l-9.435,5.479c-.761,0-1.674.152-2.283,0-1.826-.457-4.261.152-6.848-.609-9.131-2.587-13.088-16.436-15.979-24.501-.304-1.065-.761-2.283-1.217-3.348-.304-.913.761-3.044-.609-3.5l-37.437.304c-7.761,9.283-5.326,29.523-20.849,31.806-6.544.913-8.979-3.348-12.479-3.348-1.826,0-6.544,2.739-9.74,3.348-1.37.304-5.174-.304-5.783,0-2.739-2.131-4.87-3.044-7.305-5.783-4.87-5.631-12.479-21.153-16.588-28.458-.304-.609-.609-1.522-1.217-2.283-1.522-2.587-2.435-7.457-5.783-9.74l-12.935.609c-3.957,3.805-.913,8.979-.761,12.631.152,7.609,1.217,21.914-3.348,28.001-5.479,7.153-15.979,5.935-22.827,1.674-.152,0-1.37-2.435-2.283-3.348l-2.283-5.783c0-16.283.304-32.719,0-49.002l1.217-45.654c-3.044,0-3.957,3.044-6.544,4.261-.761.457-7.305,2.587-7.761,2.587h-16.588c.457,18.566-.913,36.828-1.217,55.394,0,5.022,1.37,10.348,1.217,15.979,0,6.544-1.522,15.523-2.283,22.219-4.565,4.109-5.479,6.848-13.088,7-21.61.457-16.436-29.219-16.588-43.524v-26.175c0-7.913.304-15.979,0-24.045v-6.848c0-1.522-1.217-1.065-2.283-1.217h-3.652ZM668.307,737.742h17.653c1.522,0,6.544-3.196,8.066-4.565,5.631-5.326,5.935-15.37-.152-20.392-.913-.761-5.935-3.652-6.696-3.652h-18.87v28.61h0ZM769.964,753.721h16.588c.457,0,1.826-1.217,2.739-1.37,1.37-2.283-5.935-23.284-7.761-26.632-.761-1.37-.913-3.044-2.891-2.891l-8.522,30.893h-.152Z" fill="#f8f9fa"/>
  <path d="M177.522,799.984c-2.739,16.588-28.154,15.979-30.741-2.435v-104.853c1.826-6.087,6.544-10.348,12.935-10.957,12.175-1.065,42.154-1.217,52.807,3.196,30.588,12.935,35.154,54.177,6.239,71.221v1.522c-.152,0,23.284,33.784,23.284,33.784l39.567-100.744c15.218-16.892,31.045-11.566,39.415,8.066,10.957,25.566,22.523,56.459,31.197,82.939,3.5,10.805,8.979,27.24-7.761,29.98-20.24,3.348-18.87-19.023-26.48-31.197l-38.045.609c-3.196.761-5.631,25.871-17.044,29.98-11.87,4.261-16.436-5.022-20.697-4.565-2.131.152-5.783,4.109-8.674,4.87-22.066,5.935-28.762-31.654-40.48-44.133l-15.523-1.065c-1.217,10.196,1.674,23.893,0,33.632h0v.152ZM177.522,737.742h17.653c4.718,0,12.783-8.066,13.24-13.088.457-5.783-5.174-15.37-10.957-15.37h-19.936v28.61-.152ZM300.789,722.98c-2.587-.457-1.826,0-2.587,1.522-1.217,2.283-9.892,27.24-8.827,28.154,7,1.217,13.544,1.826,20.544,0l-9.131-29.675h0Z" fill="#f8f9fa"/>
  <path d="M386.467,761.787c3.196.457,1.674-.304,2.283-1.674,8.37-20.697,13.24-45.046,22.219-65.59,2.891-6.696,7.457-13.849,15.827-13.696,3.652,0,8.066,3.196,10.348,3.196s7.153-3.5,11.414-3.196c4.87.152,10.044,3.957,12.783,7.761,8.066,10.805,13.544,26.48,21.458,37.893,2.435,0,16.74-36.219,23.436-41.546,11.718-9.283,30.132,0,25.262,15.066-5.935,18.566-25.262,40.785-32.871,59.655-3.957,15.37,9.283,56.916-19.327,52.503-20.849-3.196-10.196-39.567-13.696-53.568-1.217-4.87-21.458-39.263-25.414-44.133-.761-.913,0-2.131-2.587-1.37l-35.154,91.004c-7.913,12.327-26.175,10.805-32.415-2.283-9.892-32.415-25.871-64.829-35.154-97.244-1.826-6.392-4.413-12.175.609-17.805,8.066-9.131,22.066-5.783,27.849,4.261,7,12.022,15.827,47.024,21.001,62.242.913,2.891,1.674,5.935,1.978,8.827h0l.152-.304Z" fill="#f8f9fa"/>
  <path d="M866.904,696.653c1.217-12.783,10.196-16.588,22.371-14.914,1.978.304,1.37,1.674,2.587,2.283.761.457,2.283,0,2.587,0,0,0,.304,1.37,1.217,2.283,9.131,10.044,18.718,26.327,26.175,37.741,1.674,2.435,2.131,2.131,2.283,2.283.609.913.761,2.283,2.283,4.565.304.457.913.761,1.217,1.217,1.674,2.739,2.131,6.087,5.326,9.892.761.761,0,2.131,2.587,1.522v-29.675c0-7-1.522-21.001,2.283-26.175,1.37-1.978,6.696-5.174,9.131-5.783.913-.152,2.283,0,3.348,0h4.565c1.674.152,3.348.152,4.87,1.065l6.544,8.066v2.283c3.044,33.632-2.283,71.525,0,105.614-2.435,13.24-16.588,17.653-26.327,8.066-13.696-13.544-26.632-45.654-39.415-62.242-.761-.913-1.522-2.283-2.739-2.283v59.959c0,1.37-4.261,6.544-5.783,7.457-.609.457-1.522.913-2.283,1.217-2.739.913-7.457,1.674-10.348,1.217-7-1.37-11.566-8.827-12.479-15.523-2.891-24.806-.913-66.808,0-92.831,0-2.283-.152-4.718,0-6.848h0v-.456Z" fill="#f8f9fa"/>
  <path d="M113.605,764.069c-4.87,0-9.74.457-14.457-.913-11.261-3.348-12.631-21.305-2.131-25.414,4.413-1.826,29.675-1.826,35.458-1.065,4.87.609,10.044,4.87,10.805,9.74,1.065,6.848,1.065,35.154,0,42.154-1.37,9.131-14.457,16.892-22.523,19.784-49.002,17.805-93.135-30.436-81.874-78.526,8.979-38.502,52.198-62.394,88.113-41.241,9.74,5.783,17.653,16.74,8.37,27.088-13.24,14.609-22.979-7.913-39.111-5.935-33.48,3.957-40.328,56.764-7.761,71.069,14.914,6.544,28.914,1.826,25.11-16.588h0v-.152Z" fill="#f8f9fa"/>
  <path d="M900.079,647.651c0,3.957-.761,3.196,2.739,3.348,36.828,2.891,77.156-2.283,114.288,0l5.022-2.283c.457.913,1.674,1.826,1.217,3.348-.304.457-.152,1.978-1.065,2.891-4.261,3.957-4.718,3.652-10.348,3.957-16.436,1.065-34.697,0-51.437,0h-18.262c-310.602.761-622.118-.609-933.177,0-1.826,0-6.087-.457-7.305-1.217-1.826-1.217-2.435-4.718-2.283-6.848h120.984c11.718,3.652,25.262-.761,36.524-1.217,2.587,0,5.479,1.217,8.522,1.217h430.369l6.239-1.217-3.348-3.348c27.393,7.609,29.828,7,57.068,0,.457,1.674-1.522,4.413,1.674,4.565,13.544.913,34.545,1.065,47.937,0,2.283-.152,4.718-.609,6.239-2.283,21.305,6.087,28.914,2.739,49.002-2.283-.913,2.435-1.826,3.957,1.674,4.565h77.004l-3.348-6.848c8.37.761,15.675,5.631,23.893,7.457,15.979,3.5,25.11.457,40.024-3.957h0l.152.152Z" fill="#798092"/>
  <path d="M529.061,277.85c-1.978-2.435-8.674-3.805-6.848-9.131,2.891-.913,3.805,4.109,5.326,4.565s3.652-.304,5.174,0c.304,0,2.587,4.718,6.544,1.674-3.652-3.196-7.913-6.239-12.479-6.392,1.37-4.718-2.283-3.5-2.283-6.848h7.913l1.065-2.283c0,2.587.913,5.022-2.283,4.565v2.283c4.109-1.37,3.805,1.978,6.848,2.283.152.304-.152.913,0,1.217,1.37,1.522,6.392,1.826,7.457,5.783,4.87-.609,5.935-5.783,10.805-4.565-.152,2.891-.761,4.261,2.283,5.174-1.37,1.978-2.587,1.522-4.565.609-.304,2.283.457,5.022,0,7.153-.152.913-2.131.761-2.283,1.522-.304,1.674.304,3.805,0,5.326-.152.913-3.957.609-2.283,3.044,0,0,1.978-.304,2.283.761.609,2.435-.761,5.326.304,8.066.152.609,7.609,6.696,8.827,7.761.304,2.739-4.261,3.348-4.565,4.87-.761,2.891.457,6.544,1.217,9.435,2.131,0,.609-3.652,1.674-5.783.761-1.37,6.544-5.935,8.522-4.565,1.065,3.5-3.805,1.826-1.217,3.348-4.261,9.435,9.283,11.414,7.913,1.217-.609-4.109-4.109-2.587-3.348-5.174.761-2.739,3.196-.913,3.957.457l-.609-2.283h4.565c.152-1.37-1.217-1.065-1.217-1.217,0-.609,7.761-5.022,9.587-8.066,5.022-7.761,3.348-20.392-3.957-26.175l2.283-6.848-3.348,1.217-1.217-4.565c4.109.152,7-2.131,9.74-2.131,7.153,0,5.783,11.261,9.587,15.37,2.891,3.044,10.957,2.283,11.414,4.565-1.217,2.739-2.131,5.783-3.348,8.522-3.044,6.087-7.913,13.24-11.414,19.479-1.978,3.348-3.957,9.587-5.783,12.479-.609.913-2.891,2.891-4.565,5.783-.457.913-.761,1.674-1.217,2.283-3.196,5.022-7.153,8.218-9.131,14.914-.761.304-1.522.761-2.283,1.217-2.131.913-2.435.304-3.957,3.348-1.217,0-6.239-12.022-7.609-14.153-.609-1.065-1.826-1.522-2.131-1.826-.761-5.022.913-9.892-6.848-10.348-2.587-4.109-10.805-20.544-14.457-21.61s-8.674,6.544-7.153,10.196l9.131-4.565c1.37,3.805,3.5,9.283,5.783,12.479-4.413,2.739-11.109.152-15.979,0l3.348-4.565-10.957,5.479-4.87-2.283,1.065-11.261c4.87-1.217,4.261,3.5,9.131,2.283l-2.435-7.457c5.022-5.935,5.631-12.631,4.565-20.392-.152-1.522-1.217-5.174-2.131-6.392h2.283v-2.283h-2.283v2.283h0l.457.152ZM565.584,328.069h-3.348v2.283h1.674l1.674-2.283Z" fill="#f7b94a"/>
  <path d="M252.851,262.936h2.283c2.891.304,6.239-.304,9.131,0,.609,0,2.739.913,4.565,1.217,4.261.609,8.37,1.37,12.479,2.283,2.131.457,4.87.457,6.848,1.217,4.109,1.37,8.218,4.718,12.479,5.783-.913,2.891.609,10.044,0,13.696l-7.913,3.348c-.152-4.565.304-.761,1.522-3.652,1.065-2.435.761-5.174.761-7.761-25.566,8.066-54.785,9.74-81.721,8.066-13.544-.913-28.914-4.261-40.48-11.414,2.587-7,9.283-6.087,15.066-8.066.913-.304.913-1.826,1.065-1.826,1.522-.609,13.24-1.674,15.827-1.522h2.283v2.283c-3.044.304-9.435,1.674-10.196,5.174.457,2.283,14.153,6.544,17.044,7.457,2.283.609,4.261,1.978,6.848,2.283,7,.761,28.61.304,34.241-3.348,2.283-1.522,2.891-2.587,2.131-5.631-8.066-2.587-16.436-5.174-24.958-4.718-.761-1.978-1.674-3.805-2.283-5.783,8.066,0,15.066.609,22.827,1.217h0l.152-.304Z" fill="#eef1f4"/>
  <path d="M172.956,275.567c11.566,7.153,26.936,10.501,40.48,11.414,26.784,1.826,56.155,0,81.569-8.066,0,2.587.304,5.326-.761,7.761-1.217,2.891-1.674-.913-1.522,3.652v1.217l-25.11,5.783h-1.217c-1.217-1.826-4.413-1.217-6.239-1.217-26.175-.304-53.872.457-79.287-4.565-.761,0-4.413-1.065-4.565-1.217-.304,0-4.413-3.196-4.565-3.348-.913-2.283.152-8.827,1.217-11.414h0Z" fill="#9ea4b4"/>
  <path d="M590.694,260.653c8.827-.457,8.674,11.566,13.696,15.979,2.131,1.826,8.37,1.522,11.414,1.217,4.565-.457,1.826-5.479,6.848-5.783v3.5h-1.217l-2.283,3.348c-.457.152-.761,1.065-1.217,1.217-.913.304-2.891-.457-3.957,1.065-.152.304,0,4.109-.609,5.783-.761,2.739-2.435,3.652-4.565,5.783,1.37-2.739,2.283-5.783,3.348-8.522-.457-2.283-8.522-1.522-11.414-4.565-3.957-4.109-2.435-15.37-9.587-15.37-2.739,0-5.631,2.435-9.74,2.131-4.413-.304-5.935-4.87-10.196-6.392-2.283-.761-10.957-2.131-13.088-1.674-3.652.761-2.739,4.87-4.565,8.066-3.805,7-9.131,3.805-15.523,3.348-.152-.152.152-.913,0-1.217-1.978-3.348-2.131-7.153-4.565-10.348.609-.152,1.37-1.217,2.283-1.217.609.761,1.826.761,2.739,2.283,1.522,2.739,0,6.392,5.783,6.696,3.348,0,8.522-7.305,9.74-10.196,5.631,0,12.022,0,17.349,1.522,10.653,2.891,6.239,3.805,19.175,3.044h0l.152.304Z" fill="#6a2f22"/>
  <path d="M337.312,308.59c1.826,6.239,3.805,13.696,6.848,19.479-1.826,9.283.457,19.784,2.283,29.219.457,2.131-.152,2.891,2.283,3.957-2.131-.609-4.565-.457-6.696-1.37-3.652-15.979-7.913-31.806-11.566-47.785-.152-1.065.304-2.435,0-3.348s.304-2.435,0-3.348c2.891.152,4.718,1.826,6.848,3.348v-.152Z" fill="#e6623d"/>
  <path d="M348.726,241.326h18.718l1.674,10.044-11.109,3.652v12.479h-5.783c1.065-3.652-.913-7.761-1.217-10.348v-2.283c-.304-3.957,1.674-10.501-2.283-12.479v-1.217h0v.152Z" fill="#e7b058"/>
  <path d="M292.875,291.546c0,1.522-.152,3.044,0,4.565v2.283c-7.609,4.718-16.588,5.479-25.11,6.848v-7.913l25.11-5.783Z" fill="#75788c"/>
  <path d="M965.061,556.342c0,1.217,3.805,9.587,4.718,11.718,2.891,6.848,7,14.609,10.196,22.523.609,1.522,0,5.022,1.217,7.153.761,1.217,2.131.761,2.283.761.152.457.152,3.348,1.217,5.783,2.739,6.848,5.631,12.935,7.913,19.479.913,2.587,2.587,4.87,2.283,7.913h-6.848c-12.022.457-24.501.152-36.524,0-4.109,0-8.37.152-12.479,0,.609-1.674-1.065-3.652-1.217-4.413-.609-5.022-.457-10.653-1.217-15.979-.304-1.826-1.065-3.5-1.217-4.565-.609-4.565-.609-10.044-1.217-14.914-1.37-11.718-5.478-25.262-2.283-36.524,10.957.913,21.914,1.674,33.176,1.217h0v-.152ZM944.516,576.886c-.761-4.565-.609-9.283-2.891-13.696l-5.174-1.065c1.37,21.001,5.478,42.002,9.283,62.699,2.587.304,5.326.304,7.913.152h5.783c1.674-1.674-10.196-39.719-11.718-44.741-.609-1.826-.304-3.652-3.044-3.196h0l-.152-.152ZM955.93,563.19c-1.978,0-7.609-1.217-6.848,1.674l17.196,59.807c3.348.152,6.848.152,10.196,0,1.978,0,8.827,1.217,7.913-1.674l-24.653-58.742-2.435-2.131c-.913-.152-1.37.913-1.522.913h0l.152.152Z" fill="#eef1f4"/>
  <path d="M977.692,644.15h28.61c3.196,0,7.305-.457,10.348,0,4.261.609,4.261,1.217,5.783,4.565l-5.022,2.283c-37.132-2.283-77.46,2.891-114.288,0-3.5-.304-2.891.609-2.739-3.348,1.978-.609,6.696-3.348,7.457-3.348h70.156l-.304-.152Z" fill="#eef1f4"/>
  <path d="M989.105,644.15h-2.283,2.283Z" fill="#111428"/>
  <path d="M559.954,528.949c-.913,2.283-1.217,4.565-2.283,6.848-2.587,5.783-6.544,11.87-9.131,17.044-7.609,2.739-14.914,0-22.219,0-68.329-1.674-138.942,1.217-207.728,1.217-64.068,0-128.593-2.739-192.966-1.217-8.674.152-19.327,2.283-27.849,2.283-.304-1.37,0-2.435-1.674-3.348l-1.674,1.065c2.435-3.652,3.5-8.979,1.065-13.088-.761-1.217-3.044-1.522-3.348-2.587-.609-2.283.304-5.783,0-8.37h467.958l-.152.152ZM100.67,535.949c-6.696,2.131,6.696,18.566,11.87,15.37,5.174-3.805-7.609-16.74-11.87-15.37ZM130.802,549.493c1.065-6.087-1.978-8.979-7.457-5.783l-.457,5.783h8.066-.152Z" fill="#7e8397"/>
  <path d="M592.977,456.967v10.348c-.304-.152-3.5,0-4.565,0H46.341v-2.283c0-2.131.304-4.87,0-6.848l546.788-1.217h-.152Z" fill="#9297a8"/>
  <path d="M943.451,517.535v27.393c-6.696,2.283-20.697,1.217-28.61,1.217-3.044,0-6.087.152-9.131,0-2.739,0-5.326-.761-7.913-1.217h-1.217c-2.891-3.348-9.283-5.022-13.696-4.565l-2.283-1.217h-12.479c-8.218-.609-10.957,2.587-17.044,4.565-23.436,7.457-63.46-.913-89.026,2.283v-28.458h181.4Z" fill="#63677b"/>
  <path d="M578.215,475.229h4.565v2.283c-1.065.913-2.739,4.261-3.348,5.783l-513.612-1.217c0,1.217,0,2.435.304,3.652.761,2.891,9.283,19.327,11.261,22.979,2.131,3.805,11.261,19.479,14.609,20.24.304,2.587-.609,6.087,0,8.37.304,1.065,2.587,1.37,3.348,2.587,2.587,3.957,1.37,9.283-1.065,13.088v1.217c-2.283-1.522-8.37-12.479-7.913-15.979.457.609,1.217,1.37,1.217,2.283h1.065l1.217-5.631h-5.783c-3.805-6.239-6.848-13.544-10.044-20.24-4.565-9.435-9.283-23.436-14.762-31.958-1.826-2.739-7.913-4.413-2.587-7.153h521.526v-.304ZM91.996,539.145h-2.283l-1.217,4.565,3.348-2.283v-2.283h.152Z" fill="#75788c"/>
  <path d="M97.626,555.124c8.522,0,19.175-2.131,27.849-2.283,64.373-1.522,128.898,1.217,192.966,1.217,68.786,0,139.398-2.891,207.728-1.217,7.305.152,14.609,2.739,22.219,0-1.217,2.739-1.978,6.239-2.891,9.131-2.435,3.196-23.588,0-28.458,0-130.115,0-261.296.457-391.563,1.217-4.87,0-22.979.761-25.719-.609-3.196-1.674-1.826-5.022-2.283-7.457q-1.978,0-3.348-1.217v-1.217l1.674-1.065c1.522.913,1.37,1.978,1.674,3.348h0l.152.152Z" fill="#63677b"/>
  <path d="M828.097,580.234l2.283.609c12.175-21.914,38.35-35.002,62.09-22.066,17.501,9.587,24.653,25.262,28.154,44.285-8.066,46.263-74.569,53.264-89.026,10.348h1.217c.761,0,1.674.152,2.283,0,1.217-.304,1.217,0,2.283-1.217h7.913c-.457,2.435,1.37,2.435,2.739,3.348,12.479,7.913,26.936,12.327,40.024,2.283,1.37-1.065,7.457-8.37,8.37-9.74.913-1.674,2.283-5.022,2.435-6.848.152-2.587-1.065-4.261-1.065-5.022,0-5.783,1.522-5.479-1.217-11.414-1.978-4.109-4.87-8.522-9.131-10.348-.609-.304-1.37-1.065-2.283-1.217-.609-.761-1.674-.761-2.283-1.217-8.37-4.718-21.61-1.37-28.914,4.565-.913.761-.761,2.283-.761,2.283-.761.609-5.022,4.261-5.326,4.413-1.065.304-14.762,1.37-16.892,1.37-7.153,0-3.805-1.978-3.957-4.718h1.217l-.152.304Z" fill="#989dac"/>
  <path d="M598.76,646.433l3.348,3.348-6.239,1.217H165.499c-3.044,0-5.935-1.217-8.522-1.217,2.131-1.065,2.739-2.283,2.283-4.565,34.545-5.479,90.244-1.065,127.376-1.217,79.743-.152,160.095-.304,239.534,0,20.392,0,54.329-2.739,72.591,2.283h0v.152Z" fill="#eef1f4"/>
  <path d="M652.328,603.061s.761.609.913,1.674c.304,1.674-1.978,4.565,1.978,6.239,1.065.457,9.587-7.305,1.674-5.783,1.826-7.761-.913-14.609,2.283-22.827-2.283-.609-3.044,2.435-4.87,2.131-.457,0-7.609-4.565-7.609-5.022,3.805-1.978,5.479-3.652,10.196-4.565-2.739-4.413-5.479-1.37-9.587-1.674-4.87-.457-10.653-5.935-16.74-4.565l3.044-5.783,8.37-1.065c-1.37,2.435-1.065,4.718,2.283,4.565v-4.565c13.696,7.305,24.197,20.24,26.175,35.915l-1.065,16.588c-21.305,44.589-88.113,31.349-87.961-17.044,3.957,0,8.674-5.174,12.022-5.783,2.283-.304,2.283,4.87,6.239,3.5-.457,3.652.152,8.979,1.217,12.479.761,3.044,2.131,4.109,3.044,6.696.457,1.217,0,3.348.304,3.652,0,0,1.674-1.065,3.348-.609,1.826.609,4.413,3.5,6.848,4.565,8.066,3.348,14.762,3.652,22.827,0,4.87-2.131,4.413-3.5,6.848-6.239,3.5-4.109,5.783-7.457,7.913-12.479h.304Z" fill="#9ca1b1"/>
  <path d="M114.823,580.234c8.522-5.631,23.436-7.457,33.023-3.957,10.501,3.805,14.001,13.088,20.088,21.001.913,1.065,2.587.913,2.739,1.217,8.674,9.892-7.153,31.654-17.044,36.524-2.131,1.065-9.435,3.196-12.022,3.348-5.935.609-11.566-1.826-16.588-1.217l-13.696-9.587c.304-3.652-3.805-5.935-4.109-6.696-5.631-11.566-4.109-33.023,7.609-40.785h0v.152ZM137.346,587.387c-4.87.304-10.501,3.196-13.392,7.153-13.24,18.566,14.609,39.415,28.61,19.479,8.218-11.87-1.674-27.24-15.218-26.48v-.152Z" fill="#9297a8"/>
  <path d="M497.103,576.886c3.196,1.826,7.457-1.674,10.957-2.131,13.24-1.826,24.501,2.283,32.415,13.088,3.196,4.261,3.196,10.653,9.131,10.805,2.587,15.523-3.805,28.154-17.957,35.002-38.654,18.566-69.09-32.567-34.545-56.764h0ZM513.995,587.387c-21.153,1.674-20.544,38.654,6.239,33.784,5.174-.913,12.175-8.066,13.088-13.088,2.435-11.718-7.761-21.458-19.327-20.697h0Z" fill="#9297a8"/>
  <path d="M332.747,598.496c6.392,39.872-46.415,52.655-63.003,21.305-5.783-10.957-4.261-32.567,7-39.567,12.783-7.913,32.415-8.37,43.372,2.891,4.718,4.718,6.087,13.24,12.479,15.523l.152-.152ZM286.331,593.17c-12.631,14.001,5.479,37.132,23.436,25.262,21.762-14.457-6.544-44.133-23.436-25.262Z" fill="#9297a8"/>
  <path d="M465.145,597.431c3.805,4.261,1.217,13.392-.609,18.262-13.088,34.545-71.83,27.088-64.525-18.262,3.348-4.413,6.239-11.109,10.348-14.914,12.175-11.414,31.502-10.805,43.22.761,3.652,3.652,7.913,10.044,11.566,14.153ZM430.752,587.387c-28.61,2.891-13.24,47.633,11.566,31.045,15.37-10.196,5.479-32.719-11.566-31.045Z" fill="#9297a8"/>
  <path d="M711.679,561.972c-2.739,3.805,8.218,9.74,9.892,9.892,1.217.152,4.261.152,6.087.304-14.001,5.935-24.045,14.153-20.544,30.741,2.131,9.892,5.326,12.783,13.696,17.044.304,0,.761,1.522,1.978,1.978,8.066,3.044,30.588,2.435,32.262-8.827,5.326-.913,12.631.609,18.262,0-19.936,51.59-101.048,24.501-83.395-29.675,1.826-5.479,8.827-16.131,12.479-18.262l.609,1.065.609-1.065c.304-.304.761-.761,1.217-1.217h1.217v3.348h2.283l2.283-2.891-1.217-1.674c.609-.304,1.37-.761,2.283-1.217h0v.457Z" fill="#989dac"/>
  <path d="M265.483,576.886c-3.348,3.957-6.696,15.979-11.109,16.892l-71.83.304-3.348-1.217-7.457-15.979h93.744Z" fill="#8a90a2"/>
  <path d="M750.485,593.931c30.436,1.522,67.264,3.196,97.7,1.217,10.501-.761,7.457-2.435,12.783-5.631,10.653-6.392,10.501,5.326,17.349,5.631.457,5.935-2.131,8.827-6.392,12.479-1.065.913-3.652,1.065-3.805,1.217h-4.565l-2.283-1.217h-1.217c0-.457-1.217-3.196-1.37-3.196-1.37-.609-2.891,0-4.261-.152-4.109-.152-8.37,0-12.479,0h-3.348c-28.762-.304-57.525.304-86.287,0-2.891,2.131-3.652,3.348-7.305,4.565-2.739-1.978-3.805-4.565-5.783-6.848-1.217-6.239,6.848-1.065,5.783-8.066,2.131,2.131,4.87,0,5.631,0h-.152Z" fill="#989dac"/>
  <path d="M644.414,561.972v4.565c-3.348.152-3.652-2.131-2.283-4.565l-8.37,1.065-3.044,5.783c6.087-1.37,11.718,4.109,16.74,4.565,3.957.304,6.848-2.739,9.587,1.674-4.718.913-6.392,2.587-10.196,4.565,0,.457,7.153,4.87,7.609,5.022,1.826.304,2.739-2.739,4.87-2.131-3.196,8.066-.457,15.066-2.283,22.827,7.913-1.522-.609,6.087-1.674,5.783-3.957-1.674-1.674-4.565-1.978-6.239-.152-1.065-.913-1.522-.913-1.674-.304-2.131.304-4.718,0-6.848,7.153-1.674.609-5.022,0-6.392-.761-1.978,3.805-4.87-2.283-2.739-10.501-21.762-47.176-15.675-50.22,7.913-3.957,1.37-3.957-3.805-6.239-3.5-3.348.609-8.218,5.783-12.022,5.783,0-14.914,9.283-27.088,20.544-35.306l19.936-4.565c9.131-.609,14.457.457,22.371,4.565h0l-.152-.152Z" fill="#989dac"/>
  <path d="M772.247,555.124c3.044.152,6.087,0,9.131,0,12.479,0,25.11-.152,37.741,0h11.261c.761.913-2.587,6.848-3.348,7.913-.761.913-1.826-2.435-2.283,4.565v1.217c-1.674,0-2.891.761-3.348,2.283-2.283.913-1.826,4.261-2.283,5.783s-1.37,2.891-1.217,4.565l-33.632-1.065c-1.217-3.196-2.435-7.457-4.109-10.348-1.217-2.131-2.891-2.587-3.348-3.348-2.587-3.652-3.805-7.305-7.913-9.131v-2.283c1.065.152,2.283,0,3.348,0h0v-.152Z" fill="#63677b"/>
  <path d="M398.946,576.886c-4.565,5.022-5.783,11.87-9.892,16.892-13.849-.913-31.045,1.978-44.437.304-1.217-.152-2.587,0-3.348-1.217l-7.457-15.979h65.134Z" fill="#8a90a2"/>
  <path d="M878.317,547.211c1.826.152,4.109-.304,5.783,0,.304,0,1.217.913,2.283,1.217,2.283.609,7,2.435,9.131,3.348,2.435,1.217,4.87,4.261,7.913,4.565,1.826,3.196,4.261,3.5,5.783,5.479,10.348,13.696,14.457,23.74,11.414,41.393-3.652-19.023-10.653-34.697-28.154-44.285-23.74-12.935-49.763,0-62.09,22.066l-2.283-.609c.761-9.587,11.414-22.523,19.479-27.393,2.435-1.522,12.022-5.174,14.914-5.783,5.631-1.217,10.501-.457,15.979,0h-.152Z" fill="#eef1f4"/>
  <path d="M120.454,646.433v4.565H-.531c.152-2.131,1.674-4.109,2.131-6.087l110.332-.761c3.196-.457,5.631,1.978,8.522,2.283Z" fill="#eef1f4"/>
  <path d="M775.595,582.517v2.283l-15.37-1.217c-11.566-11.566-17.957-10.196-32.567-11.414-1.826-.152-4.87,0-6.087-.304-1.522-.152-12.631-6.239-9.892-9.892,22.066-8.827,38.045-5.783,54.177,11.414,2.891,3.044,4.718,9.435,9.74,9.131Z" fill="#9297a8"/>
  <path d="M734.506,584.8c2.891-1.674,2.891-2.739,7.457-2.283,6.848.457,9.74,6.696,10.501,7,4.87,1.217,20.24,0,26.632,0,21.762.152,44.437.761,66.199,0,2.283,0,4.718.304,6.848,0,4.261-.457,2.891-1.217,4.565-2.283.457-.304.761-.913,1.217-1.217,8.37-4.87,19.936,0,20.544,9.131-6.848-.304-6.696-12.022-17.349-5.631-5.326,3.196-2.283,5.022-12.783,5.631-30.284,1.978-67.112.304-97.548-1.217,0-10.348-9.74-6.392-15.979-9.131h-.304Z" fill="#eef1f4"/>
  <path d="M171.891,576.886c-3.348-.457-6.392-2.587-7.913-5.783h107.288c.304,3.196-3.196,4.565-5.783,5.783h-93.592Z" fill="#eef1f4"/>
  <path d="M836.163,644.15l3.348,6.848h-77.004c-3.5-.457-2.587-2.131-1.674-4.565,16.283-3.957,57.525-3.805,75.33-2.283h0Z" fill="#eef1f4"/>
  <path d="M633.001,554.059c5.174,1.065,10.957,2.739,15.979,4.565,2.435.913,3.348,3.652,7.913,3.348-.761,4.413,3.044,4.718,5.022,7,12.022,14.001,15.675,28.61,7.609,45.502l1.065-16.588c-2.131-15.675-12.631-28.61-26.175-35.915-7.761-4.261-13.24-5.174-22.371-4.565l-19.936,4.565c1.674-1.217,2.131-2.131,4.565-3.348.761-.457,1.522-.761,2.283-1.217.761-.304,1.826-.913,2.283-1.217,1.065-.304,2.739-.913,3.348-1.217,6.392-1.674,11.87-2.435,18.262-1.217h0l.152.304Z" fill="#eef1f4"/>
  <path d="M333.964,576.886c-2.131-.304-7.761-3.5-6.848-5.783h77.613v2.283c-1.065.304-5.326,3.044-5.783,3.5h-65.134.152Z" fill="#eef1f4"/>
  <path d="M696.917,555.124c-.152,2.435-2.131,3.957-3.348,5.783-1.826,2.587-2.283,3.805-3.348,5.783,0,.152-1.826.457-2.283,1.217-.609-.152-.913,1.826-1.217,2.283-6.696,10.501-12.479-2.131-15.979-5.935-2.435-2.739-5.326-5.326-7.913-7.761v-1.217c11.261-.609,23.132.761,34.241,0l-.152-.152Z" fill="#63677b"/>
  <path d="M655.828,646.433c12.175-3.044,29.98-3.196,42.763-2.283,5.783.457,7.761,3.044,13.088,4.565-1.522,1.674-4.109,2.131-6.239,2.283-13.544,1.065-34.393.913-47.937,0-3.196-.152-1.217-2.891-1.674-4.565h0Z" fill="#eef1f4"/>
  <path d="M723.092,554.059c19.175-1.522,33.176,1.826,46.872,14.914,0,0,.761,1.674,1.217,2.283.761,1.37,4.413,10.501,4.565,11.414-4.87.304-6.848-6.087-9.74-9.131-16.131-17.197-32.11-20.088-54.177-11.414-.913.304-1.674.913-2.283,1.217-.913.304-2.587,0-3.348,1.217h-1.217c2.891-2.131,8.522-8.827,10.348-9.131,1.065-.152,2.435.152,3.348,0,1.37-.304,4.413-1.065,4.565-1.217l-.152-.152Z" fill="#eef1f4"/>
  <path d="M408.077,581.452c9.587-10.044,20.392-12.631,34.241-9.74,9.435,1.978,24.806,14.914,22.827,25.719-3.652-4.109-7.913-10.501-11.566-14.153-11.718-11.566-31.045-12.175-43.22-.761l-2.283-1.217h0v.152Z" fill="#eef1f4"/>
  <path d="M565.584,539.145c13.24-1.217,29.675-2.283,42.915-1.217,2.283.152,2.739.152,3.805,2.435v3.348c-3.196-1.978-46.263,1.674-47.937,0-.609-1.826.913-3.196,1.217-4.565Z" fill="#9297a8"/>
  <path d="M332.747,598.496c-6.392-2.283-7.761-10.653-12.479-15.37-10.957-11.261-30.588-10.653-43.372-2.891,2.283-3.957,9.283-7.761,13.696-8.674,20.544-4.261,38.958,6.239,42.306,26.936h-.152Z" fill="#eef1f4"/>
  <path d="M549.605,598.496c-5.935-.152-5.935-6.544-9.131-10.805-7.913-10.653-19.175-14.762-32.415-13.088-3.5.457-7.761,3.957-10.957,2.131,20.24-14.153,48.394-3.044,52.503,21.61h0v.152Z" fill="#eef1f4"/>
  <path d="M170.673,598.496c-.152-.152-1.978,0-2.739-1.217-6.087-7.913-9.587-17.197-20.088-21.001-9.587-3.5-24.501-1.674-33.023,3.957,17.044-19.327,53.72-7.457,56.003,18.262h-.152Z" fill="#eef1f4"/>
  <polygon points="573.65 580.234 570.302 593.322 568.476 594.083 557.671 593.931 556.453 580.234 573.65 580.234" fill="#8a90a2"/>
  <path d="M103.409,575.669c-5.326,8.37-5.022,22.218-18.262,17.044v-12.479c2.283,0,4.718.304,7.153-.152,2.739-.609,3.957-3.044,4.261-3.196,1.674-.609,4.565-.304,6.848-1.217h0Z" fill="#7e8397"/>
  <path d="M750.485,593.931c-.913,0-3.5,2.131-5.631,0,1.065,7-7,1.826-5.783,8.066-1.522-1.826-6.239-6.239-6.696-8.827-.304-2.283,3.957-3.348,3.196-6.087-1.217-1.217-7.305,4.413-7.913,5.783,1.674-4.718,2.739-5.783,6.848-7.913,6.239,2.739,15.979-1.217,15.979,9.131h0v-.152Z" fill="#9ea4b4"/>
  <path d="M727.658,592.865c.761-1.217,6.848-6.848,7.913-5.783.761,2.739-3.652,3.805-3.196,6.087.457,2.587,5.174,7,6.696,8.827,1.826,2.283,3.044,4.87,5.783,6.848-10.348,3.348-15.37-4.413-17.805-13.696-1.065-1.674.457-1.826.761-2.283h-.152Z" fill="#75788c"/>
  <path d="M159.26,645.368c.457,2.283-.152,3.5-2.283,4.565-11.261.304-24.806,4.87-36.524,1.217v-4.565c18.566,2.587,21.001,1.674,38.806-1.217Z" fill="#9297a8"/>
  <path d="M482.341,575.669l-8.522,15.979-8.522-15.979c3.044.457,14.001.457,17.044,0h0Z" fill="#8a90a2"/>
  <path d="M755.05,613.41c-1.674,11.414-24.349,11.87-32.262,8.827-1.217-.457-1.674-1.826-1.978-1.978v-2.283h2.283c9.131,2.283,14.153,2.891,23.132-.304,3.196-1.065,5.935-3.805,8.827-4.261Z" fill="#63677b"/>
  <path d="M465.145,575.669c-2.587-.457-4.565-2.283-5.783-4.565h26.784c1.826,2.435-1.978,4.261-3.957,4.565-3.196.457-14.001.457-17.044,0Z" fill="#eef1f4"/>
  <path d="M570.15,535.797h41.698c1.217.304.457,2.435.609,3.5v1.217c-1.065-2.131-1.522-2.131-3.805-2.435-13.24-1.065-29.675,0-42.915,1.217.152-.913,0-2.283,0-3.348h4.565l-.152-.152Z" fill="#9ea4b4"/>
  <path d="M921.689,554.059h1.217v4.87c0,.457-1.065.761-1.065,1.674,0,1.978,1.522,4.109,1.065,6.392l-3.348-1.217v-1.217c-.761-1.522-1.826-1.674-2.283-2.283-.304-.304,0-1.37-.609-2.131-1.522-1.978-5.022-1.674-3.957-5.783h9.131l-.152-.304Z" fill="#63677b"/>
  <path d="M845.294,589.365c-21.762.761-44.437.152-66.199,0h66.199Z" fill="#101326"/>
  <path d="M96.561,576.886l-.457-4.565,11.87-1.217c.457,2.739-2.587,3.805-4.565,4.565-2.283.913-5.174.609-6.848,1.217h0Z" fill="#f0eedf"/>
  <path d="M410.359,582.517c-3.957,3.805-6.848,10.501-10.348,14.762,1.522-8.979,1.674-9.435,7.913-15.979l2.283,1.217h.152Z" fill="#f0eedf"/>
  <path d="M83.93,534.58h5.783l-1.217,5.631h-1.065c0-.913-.609-1.522-1.217-2.283-1.065-1.37-1.522-1.978-2.283-3.348Z" fill="#7e8397"/>
  <path d="M118.78,633.954c.761.304.761.761,0,1.217v-1.217Z" fill="#101326"/>
  <path d="M782.443,363.376c-.913,4.109-2.739,7.761-3.348,11.414v1.217c-2.435,2.587-4.87,2.131-7.913,2.283h-4.565c-7.609.152-15.218,0-22.827,0h-55.851c-11.414,0-24.501,2.283-34.241,2.283s-21.914-2.283-33.176-2.283h-6.848c-7.457,0-16.131,2.891-22.523-1.826-3.348-2.587-4.413-8.979-2.587-12.935h194.031l-.152-.152Z" fill="#9ca1b1"/>
  <path d="M820.184,430.792c2.435,0,4.87-1.217,7.457-1.217,5.022,0,10.196,2.131,15.37,1.217v4.565c11.261-.761,22.523.152,33.784,0,2.283,0,4.565-1.217,6.239-1.217,4.261,0,16.283,5.174,15.979-3.348,13.696,1.37,31.502-2.283,44.437,1.217v5.783c-2.891.761-6.087-.913-8.674-.913-1.065,0-1.826.913-2.283.913h-27.393c-.304,0-5.326,3.957-5.631,4.565-1.826,3.5-.457,8.979-4.565,12.631-5.478,4.87-11.566,2.131-17.044,2.131-13.392,0-29.219,1.37-42.154.761-8.827-.457-14.153-5.935-13.392-15.066.304-3.196,3.805-4.565.457-6.087l-59.807.913v-6.848h57.22Z" fill="#f8f9fa"/>
  <path d="M694.634,288.046h5.631c2.891,0,6.392-.304,9.131,0,4.565.609,13.088,3.044,17.653,4.565,25.566,8.218,47.633,31.349,51.894,58.286-3.196,0-5.935,1.217-9.131,1.217-.304,0-.913-1.217-1.217-1.217.609-7.609-5.326-18.414-9.587-24.653-.913-1.37-14.457-14.914-15.827-16.131-.913-.609-2.891,0-3.805-.761-3.044-2.131-1.674-1.978-6.239-4.261-24.197-12.479-40.48-10.957-66.047-3.348-3.196.913-7.609,1.37-10.348,2.283l1.217-3.348c2.739,0,10.957-5.326,14.457-6.544,5.326-1.978,14.305-5.174,19.784-5.935h2.283l.152-.152Z" fill="#f0eedf"/>
  <path d="M732.223,357.745c8.066,0,15.675-1.217,24.045-1.217,7.609,0,15.979,1.217,24.045,1.217h2.283c.304.609,1.217.761,1.217,2.283,0,1.217-.913,2.435-1.217,3.348h-194.031c.609-1.37,2.435-3.196,3.348-4.565,7-1.978,14.457-1.065,21.61-1.217h118.702v.152Z" fill="#eef1f4"/>
  <path d="M885.165,394.268h6.848v33.023h-5.783c-1.522-9.435-1.217-19.023-1.217-28.61v-4.565l.152.152Z" fill="#eef1f4"/>
  <path d="M210.697,405.682h2.283c2.891-.304,4.413-.761,6.848-2.283.457,1.217,1.826,6.392,2.283,6.848-7.305-.913-13.392,7.761-19.936,8.066-9.283.457-17.197-9.892-26.175-10.501-11.87-.609-18.11,9.587-27.393,10.348-11.414,1.065-17.349-9.131-27.393-10.348-17.653-2.131-27.393,13.24-41.546,9.587-5.022-1.37-10.501-7.761-15.979-5.326-1.674.761-.913,3.196-4.87,2.739-1.37-.152-2.891.457-4.109-1.065l.609-5.783c.304-.304.761-.761,1.217-1.217,1.217-.913,6.544-5.022,6.848-5.783,15.523.304,15.979,11.87,34.241,4.565,9.587-3.805,12.783-7.153,24.653-5.783,8.979,1.065,18.11,10.805,26.023,10.196s15.37-11.261,25.262-11.414c13.24,0,25.262,16.892,37.132,6.848h0v.304Z" fill="#53c96c"/>
  <path d="M67.951,380.572v9.131c9.892-1.217,19.784-1.217,29.675-1.217v2.283c4.565-1.522,8.979-1.065,13.696-1.217h19.327c7,0,14.001-1.065,20.544-1.217v3.348h5.783c-1.217,1.826-4.261,1.217-6.239,1.217-28.61.304-57.068-.304-85.678,0-3.348-.152-7.153-1.978-7.457-5.783.304-2.283.761-4.718,1.217-6.848h9.131v.304Z" fill="#b37023"/>
  <path d="M102.192,331.417v1.217c-3.348,2.435-.913,5.935-6.848,4.565v4.109l-4.565.457c.304,4.261,3.957,4.261,6.848,4.565.457,0,1.065.609,1.217,1.217-4.565-.304-9.131.304-13.696,0-.609-.609,1.674-4.87,2.283-5.783,1.978-2.891,10.653-7.457,11.414-10.348,1.065-.152,2.587.304,3.348,0Z" fill="#6a2f22"/>
  <path d="M562.236,211.651c9.131.761,29.98,6.696,37.741,5.783h1.217c.609,1.826,1.674,1.978,3.348,2.283,5.326.761,9.587,1.674,14.914,3.348,7.609,2.587,15.523,6.392,21.61,11.414v1.217l1.217,2.283v1.217c-.304,2.891-.152,5.022-1.217,7.913-4.413.609-1.065-4.413-2.891-6.848-.609-.913-2.739-.761-3.652-1.522-6.087-5.326-3.196-1.978-8.37-4.109-.457-.152-.761-1.065-1.217-1.217-24.349-10.044-52.959-15.827-79.287-15.979-20.392-.152-42.763,2.739-61.481,6.087-1.826.304-8.37,2.739-8.827,4.261-3.044.304-6.087.761-9.131,1.217-2.587.304-5.326-.152-7.913,0v-1.217l12.479-6.848,2.283-1.217c4.87.609,13.24-1.674,18.262-3.348.609-.152,2.131.304,2.283,0h2.283v-2.283c1.674-.457,20.088-2.283,22.219-2.283h17.044c8.674,0,17.805-.761,26.784,0l.304-.152Z" fill="#f0eedf"/>
  <path d="M437.752,321.221c-4.109,7.457-2.739,19.479-5.631,26.936-1.217,3.348-8.066,9.283-10.653,13.392-3.196,5.022-10.957,22.827-11.261,28.154-1.065,0-2.283.152-3.348,0-4.261-.609-7.761-6.696-11.109-9.131-14.914-10.501-29.675-14.762-47.024-19.479-2.587-1.065-1.978-1.826-2.283-3.957-1.826-9.435-4.109-19.784-2.283-29.219,4.109,7.761,21.153,22.371,29.371,24.806s17.501.913,25.414-1.978c7.913-2.891,8.066-4.261,12.479-10.348,7.609-9.892,13.849-20.392,15.979-33.176l12.479-4.565c-.609,5.783-2.283,12.175-2.283,18.262h0l.152.304Z" fill="#f25f37"/>
  <path d="M277.961,312.09c1.826-.761,11.87-4.261,12.479-3.348-1.522,15.218-3.348,30.741-5.935,45.959-.913,5.174-3.805,23.74-7.305,26.023-2.587,1.674-6.087,1.674-9.435,4.565-.913-1.978-3.805-.457-5.326-.152-9.435,1.522-18.11,2.891-27.697,2.435.304-6.239-3.044-8.218-3.196-10.957,0-1.522,2.739-4.109,3.196-7.305l2.283,2.283c-1.522-1.826,1.826-9.131,2.283-9.131h18.262s0-1.37.457-1.826c6.848-5.631,2.891-6.087,4.109-13.696.609-3.957,1.674-12.631,2.283-15.675.152-.913,1.978-.761,2.283-1.522.304-1.37.304-6.392,0-7.609s-2.131-.609-2.283-.761c-.152-.304-2.891-4.109-2.283-4.565,6.848,1.674,10.501-2.435,15.979-4.565h0l-.152-.152ZM273.396,321.221h-4.565v2.283h4.565v-2.283Z" fill="#f25f37"/>
  <path d="M47.406,454.684h545.571v2.283l-546.636,1.217c0-.609-.761-2.587-1.217-3.348h2.283v-.152Z" fill="#f8f9fa"/>
  <path d="M467.427,414.813c-3.196,1.065-5.326,1.674-9.131,1.217,9.131,8.674,24.653-1.065,35.915-1.217,6.392,0,12.327,3.196,18.262,3.652,9.587.609,17.805-5.174,27.24,0,4.87,2.739,6.392,9.892,13.24,11.261-3.196,0-7.913-1.065-10.348,1.217h-2.283c-1.217-1.826-4.413-1.217-6.239-1.217-22.219-.304-44.589-.304-66.808,0h-9.131c-4.565,0-8.218.913-12.479,1.217h-10.348c-1.217-4.87,6.696-10.501,10.957-11.261,2.739-.609,8.218,1.674,7.305-2.283-10.957-4.565-17.349,2.283-26.632,5.631-3.196-.913-3.5-11.109-5.326-13.544l2.283-2.283c5.631.609,12.175-5.326,17.501-4.413,7,1.217,14.914,16.74,25.871,12.327h0l.152-.304Z" fill="#6a2f22"/>
  <path d="M384.184,385.138c10.957,8.37,12.479,12.327,20.545,22.219,5.935,7.305,12.175,9.283,14.457,19.784,1.522,6.696,2.891,14.609,3.652,20.849h-6.848c0-.609-.609-1.065-1.217-1.217-.152-.913.304-2.739,0-3.348-.152-.457-1.978-.913-2.283-1.978-.457-1.978-1.065-8.066-1.217-10.501-.304-4.718,2.587-4.413-1.217-11.414-2.283-4.261-1.978-2.435-5.935-4.718-3.348-1.978-7.457-4.261-10.044-7.609-5.479-7.305-4.565-11.718-14.914-14.609-7-1.826-11.109-2.131-18.566-5.174-7.457-3.044-7.761-1.217-15.066-2.131-5.631-.761-10.501-5.935-15.979-5.631-3.652.152-9.131,1.826-9.283,5.783-11.566-.457-15.218-3.957-26.784,0,2.435-8.522,10.957-8.218,18.262-7.913.152,0,1.37,1.217,2.739,1.217,7,.457,12.783-7.153,17.044-7,3.348.152,8.827,5.022,12.935,5.479,3.805.457,7.153-1.674,12.022-.609,7.457,1.522,16.892,12.022,27.088,8.827h0l.609-.304Z" fill="#f0eedf"/>
  <path d="M260.917,314.373c5.631-.913,11.414-1.522,17.044-2.283-5.479,2.131-8.979,6.239-15.979,4.565-.609.457,2.131,4.261,2.283,4.565,0,0,1.978-.457,2.283.761s.304,6.239,0,7.609c-.152.913-1.978.761-2.283,1.522-.761,3.044-1.826,11.718-2.283,15.675-1.065,7.609,2.739,8.066-4.109,13.696-.609.457-.457,1.826-.457,1.826h-18.262c-.457,0-3.805,7.153-2.283,9.131l-2.283-2.283c.304-1.674.304-6.544,0-7.913,5.022-2.435,19.479.457,22.523-2.587s5.935-31.197,7.153-37.437h-51.437c2.435,5.783,2.891,20.849,5.783,25.11l-15.675-.304c-2.587-1.978-3.348-6.087-4.87-7.913-2.131-2.587-10.805-9.587-11.414-11.109-1.826-4.413-1.674-12.327-2.283-17.044l39.415,6.848c12.783.913,24.653-.457,37.132-2.283h0v-.152Z" fill="#e6623d"/>
  <path d="M317.985,373.724c-2.131,1.065-3.196,1.522-5.783,1.217v2.283c-7.305-.152-15.827-.457-18.262,7.913-2.891.913-8.218,3.196-10.653,4.718-8.218,5.479-23.892,36.067-24.653,46.111-.152,2.435-.304,5.174.457,7.457.761,1.217,2.283.913,3.5,1.065,17.501,2.131,40.48-.913,58.894,0,.152,0,1.37,1.065,2.739,1.217,4.565.304,10.653-1.217,14.305,1.065-26.936,0-54.024-.457-80.961,0h-13.696v-7.913c.457-1.826.457-3.957,1.217-5.783h1.217c6.696-2.435,5.935-14.457,9.131-18.87,1.37-1.978,6.696-4.718,9.131-7.913,3.5-4.565,4.261-10.196,9.131-13.696,5.326-3.957,6.848-1.37,11.414-7.305,3.957-5.022,13.696-12.479,20.088-12.479,3.957,0,8.674,1.978,12.935,1.065h0l-.152-.152Z" fill="#b37023"/>
  <path d="M267.765,385.138c-4.718,3.957-8.674,12.631-11.414,18.262-2.131.457-6.696,3.652-8.066,5.174-4.413,5.326-3.957,11.718-6.239,16.588-1.065,2.283-5.326,4.109-5.935,6.544-.913,3.196.152,7.305-.152,10.653,0,.609-1.065,3.805-2.283,3.348-.913-5.479-1.065-10.501-5.479-14.305,3.196-3.044,3.196-7.305,5.022-10.805,1.37-2.739,4.261-3.196,5.022-7.609,1.674-10.653-6.848-12.479-6.848-15.827,0-1.674,3.196-5.326,3.348-9.74,9.587.457,18.414-.913,27.697-2.435,1.522-.304,4.413-1.826,5.326.152h0Z" fill="#eef1f4"/>
  <path d="M266.548,297.177h1.217v8.066c-24.501,3.957-39.567,2.739-63.916,1.217l-1.217-9.131c5.783.761,16.131,2.283,21.153,2.283h26.175c3.805,0,12.631-1.37,16.588-2.283h0v-.152Z" fill="#8a90a2"/>
  <path d="M317.985,373.724c2.891-1.522,7.761-7.153,11.718-6.544.913,0,2.283,1.674,3.805,1.826,21.001,4.109,33.176,2.739,50.676,16.131-10.196,3.196-19.631-7.305-27.088-8.827-4.87-1.065-8.066,1.065-12.022.609-4.261-.457-9.587-5.326-12.935-5.479-4.413-.304-10.044,7.305-17.044,7-1.522,0-2.587-1.217-2.739-1.217v-2.283c2.587.304,3.5,0,5.783-1.217h-.152Z" fill="#e6623d"/>
  <path d="M448.1,436.423v3.348c0,.913-1.674,2.283.152,4.413,14.001,2.587,28.458.913,42.763,1.217,2.131,0,3.652,1.217,3.805,1.217l-57.525,1.065c-5.479-.152-5.935-5.783-6.392-10.196v-1.217h17.044l.152.152Z" fill="#b37023"/>
  <path d="M202.632,297.177l1.217,9.131h-1.217c-.609,0-2.131.152-2.283,0,0,0,.457-1.826-.761-2.283-1.065-.304-2.739.304-3.805,0-1.37-.304-1.37.457-2.283-1.217-.304-.457.609-2.131-.609-2.283l-5.022,1.217c-2.131-.457-4.565-.609-6.696-1.217-.304-2.283,0-4.565,0-6.696,7.457-.152,14.457,2.435,21.61,3.348h-.152ZM199.284,298.394h-3.348v1.065h3.348v-1.065Z" fill="#7e8397"/>
  <path d="M410.359,389.703c-.457,8.674,5.022,15.675,13.696,17.044l-2.283,2.283c-1.37-1.978-8.979-5.326-10.805-8.066-2.131-3.196-1.978-7.913-3.957-11.414,1.065.152,2.283,0,3.348,0h0v.152Z" fill="#63677b"/>
  <path d="M405.794,264.153c-.304,2.587-.913,5.631-1.217,7.913-1.674-3.044-1.217,1.978-1.217,2.891v7.457c-5.174,1.065.609-7.913-4.565-6.848.304,2.587-.609,5.935,0,8.37.457,2.131,3.5,3.044,2.283,10.501-1.522,8.522-1.522,12.479-2.283,21.153v1.217l-4.565-2.283v12.022c0,2.131-1.217,4.565,2.283,3.957,0,.761.152,1.674,0,2.283-4.413-1.065-1.37,5.935-2.283,6.848-3.196.457-8.066-2.131-6.848,3.348h-2.283c-.913-1.217,2.131-19.023,2.283-22.371.913-11.261.304-23.588,1.065-35.306.457-6.696,3.044-14.305,3.348-21.153h14.001Z" fill="#f8b843"/>
  <path d="M360.139,282.415c.304,6.392-.761,10.348-2.283,16.436l9.131,37.284c-10.501-7.305-15.523-19.479-17.957-31.654-1.37-7.153-1.065-14.914-2.587-21.914,4.413-.761,11.414,2.131,13.696-2.283v2.283h0v-.152Z" fill="#e7b058"/>
  <path d="M411.577,285.763v5.783h11.414c-.761,6.392-4.261,18.566-6.696,24.806-3.044,7.761-8.066,15.979-15.066,20.849,4.261-16.436,8.522-33.023,9.131-50.22,0,0,1.217-1.217,1.217-1.065v-.152Z" fill="#e7b058"/>
  <path d="M380.684,304.025c0,12.479,1.978,25.11,1.217,37.741l-8.979-1.37-4.87-32.871c1.978-3.652,8.522-2.435,12.479-3.348h0l.152-.152Z" fill="#e7b058"/>
  <path d="M339.595,262.936c-1.065,10.501.761,22.371,0,33.176-2.283-.761-4.718-.761-6.848-1.217-.304,0-.913-1.065-1.217-1.217-.304-2.891,1.217-7.153-1.217-9.131v-2.283c-.304-6.392-1.37-14.153-2.283-20.544,3.805,0,7.457,1.674,11.414,1.217h.152Z" fill="#e7b058"/>
  <path d="M378.401,266.436c.913,4.413,2.435,16.892.913,21.001-.913,2.587-8.066,2.435-10.653,3.044-.761-7.913-.913-15.979-1.674-24.045,3.652-.304,7.913-1.826,11.414,0h0Z" fill="#e7b058"/>
  <path d="M427.556,264.153c3.957.609,9.435-1.826,11.414,2.283-.304,1.826-1.065,3.652-1.217,5.783v4.565c-1.826,3.805-2.283,9.283-2.283,13.696,0,0-2.283,3.196-2.283,3.348l-4.413-.761c.304-9.587-2.283-19.327-1.37-28.914h.152Z" fill="#e7b058"/>
  <path d="M387.532,234.478c.761.761-.913,16.131-1.37,18.718-.304,1.826-.457,6.848-2.131,7.609v-11.414l-7.457-1.065-.609-12.022,11.566-1.826h0Z" fill="#e7b058"/>
  <path d="M413.859,257.305c1.522-4.87,2.891-7.305,6.848-2.283l-2.283,22.827c-.152.304-.761.761-1.217,1.217-1.978,0-4.87.457-5.631-1.826-.457-1.217,1.522-17.501,2.131-19.784l.152-.152Z" fill="#e7b058"/>
  <path d="M337.312,308.59c3.5,2.435,1.37,1.826,2.435,3.196.609.609,1.826,0,2.131.304.913.761,4.109,11.414,5.631,14.305,2.587,4.718,12.327,16.588,16.283,19.631,6.848,5.022,24.958,6.392,32.719,3.805l2.283,1.217c-7.913,2.891-16.892,4.565-25.414,1.978-8.522-2.587-25.262-17.044-29.371-24.806-3.044-5.783-5.022-13.088-6.848-19.479h0l.152-.152Z" fill="#e7b058"/>
  <path d="M396.663,241.326c1.37,1.065,7,1.217,9.131,1.217,0,.304,2.435,1.978,3.348,4.565-3.805,6.087-8.674,2.587-14.762,2.283.457-1.978-1.978-8.674,2.283-7.913v-.152Z" fill="#f0eedf"/>
  <path d="M392.098,258.37l14.914-1.217c.913,2.587-.913,5.022-1.217,6.848h-13.696c0-1.37.152-3.5,0-4.565v-1.217.152Z" fill="#f0eedf"/>
  <path d="M380.684,297.177c-.152,2.131,0,4.565,0,6.848-3.957,1.065-10.653-.304-12.479,3.348,0-1.217,0-2.283-.457-3.5s-1.674-1.826-1.826-2.283c0-4.718,10.653-4.565,14.914-4.565l-.152.152Z" fill="#f0eedf"/>
  <path d="M348.726,275.567c3.044-.304,6.544,0,9.587.152,2.283.761,1.674,2.739,1.826,4.413-2.283,4.413-9.283,1.522-13.696,2.283-.457-2.131-1.674-3.196-2.283-5.174,1.217-1.978,2.739-1.522,4.565-1.674Z" fill="#f0eedf"/>
  <path d="M377.336,258.37h2.283v5.631c-1.065,0-1.37,1.522-1.217,2.283-3.5-1.826-7.761-.304-11.414,0,0-.152-.913-.761-1.217-1.217,1.37-4.87,2.283-5.631,7.913-6.848.913-.152,2.435,0,3.348,0l.304.152Z" fill="#f0eedf"/>
  <path d="M404.729,272.067c-1.522,14.457-1.826,29.219-5.783,43.372.609-8.674.761-12.631,2.283-21.153,1.217-7.305-1.674-8.37-2.283-10.501-.609-2.435.304-5.783,0-8.37,5.174-1.065-.609,7.913,4.565,6.848v-7.457c0-2.587-.457-5.935,1.217-2.891h0v.152Z" fill="#e7b058"/>
  <path d="M328.181,261.871c-.152-1.065-1.522-4.261-1.217-4.565h13.088c1.37.152.304,3.348.609,4.565-.609,0-1.065.609-1.217,1.217-3.957.609-7.609-1.217-11.414-1.217h.152Z" fill="#f0eedf"/>
  <path d="M341.878,312.09c-.152-.152-1.522.457-2.131-.304-1.065-1.217.913-.761-2.435-3.196-2.131-1.522-3.957-3.196-6.848-3.348,0-.304-1.826-3.805-2.283-4.565,7.457,2.131,15.066,1.065,13.696,11.414Z" fill="#f0eedf"/>
  <path d="M419.49,285.763h3.348c-1.522,1.978,0,5.174,0,5.631h-11.414v-5.783c2.587,0,5.326-.152,7.913,0h0l.152.152Z" fill="#f0eedf"/>
  <path d="M432.121,300.677c3.5-.457,5.783-1.674,9.131-2.283.609,1.674-1.065,3.5-1.217,4.565l-12.479,4.565c.152-1.37-.152-3.044,0-4.565.913-.761,2.739-.913,3.348-2.283h1.217Z" fill="#f0eedf"/>
  <path d="M396.663,330.352c-3.5.609-2.283-1.826-2.283-3.957v-12.022l4.565,2.283c-.457,5.326-1.37,8.674-2.283,13.696Z" fill="#e7b058"/>
  <path d="M421.773,253.805s-1.217.457-1.217,1.217c-3.957-5.022-5.326-2.587-6.848,2.283v-9.131c6.392-2.131,10.805-2.283,7.913,5.783l.152-.152Z" fill="#f0eedf"/>
  <path d="M430.904,259.588c1.674-.304,3.805.152,5.783,0h3.348c-.304,1.522-.913,3.044-1.217,4.565v2.283c-1.826-4.261-7.457-1.674-11.414-2.283,0-1.217-.152-2.435.609-3.5s1.826-.913,2.891-1.065Z" fill="#f0eedf"/>
  <path d="M411.577,340.548c-4.565,5.935-4.87,7.457-12.479,10.348l-2.283-1.217c5.022-1.674,9.892-7.153,14.914-9.131h-.152Z" fill="#e49032"/>
  <path d="M396.663,332.635c-.457,2.435,0,5.326-1.37,7.761-.304.457-6.696,2.435-7.761,2.587-1.217-5.631,3.652-2.891,6.848-3.348.913-.913-2.131-7.913,2.283-6.848v-.152Z" fill="#e7b058"/>
  <path d="M533.626,258.37c2.435,3.044,2.587,6.848,4.565,10.348-3.044-.304-2.739-3.652-6.848-2.283v-2.283c3.196.457,2.283-1.978,2.283-4.565l-1.065,2.283h-7.913c0,3.348,3.652,2.131,2.283,6.848,4.565,0,8.979,3.196,12.479,6.392-3.805,3.044-6.087-1.674-6.544-1.674-1.674-.304-3.5.304-5.174,0s-2.587-5.479-5.326-4.565c-1.826,5.326,4.87,6.696,6.848,9.131v-2.283h2.283v2.283h-2.283c.913,1.217,1.978,4.87,2.131,6.392.913,7.761.457,14.457-4.565,20.392l2.435,7.457c-4.87,1.217-4.261-3.5-9.131-2.283l-1.065,11.261,4.87,2.283,10.957-5.479-3.348,4.565c4.87.152,11.566,2.739,15.979,0,.457.761,2.891,1.674,3.348,2.891l-2.283.609c-4.261-.761-15.675,1.217-19.175,3.805-.913.609-.913,2.435-1.37,3.044-.304.457-.761.913-1.217,1.217-3.196-.457-6.087-2.739-9.131-3.348,1.065-6.696-1.826-12.783-2.283-19.479.457,0,7.305-4.413,8.066-5.022,4.718-4.413,8.522-17.044,3.348-22.371v-1.217c-2.435-12.935-25.414-14.609-31.958,1.217-2.131-3.5-5.174-7-4.565-11.414,8.37-2.587,4.565-4.565,6.848-6.848.304-.304,2.283.609,2.283-.609.457-1.978-.761-1.674-2.283-2.891,12.175-2.131,24.806.609,36.524-3.348h0v-.457ZM531.952,324.569v1.217c.761-.304.761-.761,0-1.217Z" fill="#e7b058"/>
  <path d="M538.192,269.784c6.392.457,11.718,3.652,15.523-3.348,1.674-3.196.761-7.457,4.565-8.066,2.131-.457,10.805.913,13.088,1.674,4.413,1.37,5.783,6.087,10.196,6.392l1.217,4.565,3.348-1.217-2.283,6.848c-4.109-3.196-13.24-4.261-18.262-3.348-.609-4.261,7-1.522,9.131-3.5.304-2.283-2.891.152-2.283-2.891.304-1.217,3.348.457,2.283-2.891h-6.848c1.217-1.674,2.435-.609,2.283-2.283-2.587-.457-6.087.609-8.37,0-1.065-.304-.609-2.131-.761-2.131-1.978-1.522-6.087,5.174-4.413,6.696,2.283,2.283,5.022-2.131,5.326-2.283,1.674-.457,4.261,0,6.087,0-1.826,2.739-1.674,5.631-6.848,4.565l1.217,5.783c-.152,0-3.044,2.739-3.5,3.196-12.935,16.283-1.522,37.893,19.479,33.328,0,0,1.37-.152,1.217,1.065h-4.565l.609,2.283c-.761-1.37-3.196-3.196-3.957-.457-.761,2.587,2.891,1.065,3.348,5.174l-7.913-1.217c-2.739-1.674,2.283,0,1.217-3.348-2.131-1.37-7.913,3.044-8.522,4.565-1.065,2.131.457,5.631-1.674,5.783-.761-2.891-1.826-6.544-1.217-9.435.304-1.37,5.022-1.978,4.565-4.87-1.217-1.065-8.522-7.153-8.827-7.761-1.065-2.739.304-5.783-.304-8.066-.304-1.065-2.131-.609-2.283-.761-1.674-2.435,2.131-2.131,2.283-3.044.304-1.522-.457-3.652,0-5.326.152-.913,1.978-.761,2.283-1.522.457-2.131-.304-4.87,0-7.153,1.826.913,3.196,1.522,4.565-.609-3.044-.913-2.435-2.283-2.283-5.174-4.718-1.217-5.783,4.109-10.805,4.565-1.065-3.957-6.239-4.261-7.457-5.783h-.457Z" fill="#e7b058"/>
  <path d="M561.019,335.983c.152.304,1.37.761,2.131,1.826,1.37,2.131,6.392,14.153,7.609,14.153,1.522-3.044,1.826-2.587,3.957-3.348-.609,2.587-3.044,7.153-4.565,9.131-2.283,2.891-5.326,6.544-9.131,6.848-1.065-2.435-1.522-4.261-2.283-6.848,5.935-5.935,3.348-14.305,2.283-21.61h0v-.152Z" fill="#e49032"/>
  <path d="M554.171,325.787c.457.761.761,1.522,1.217,2.283-2.891,1.37-6.087-2.131-6.848-2.283l2.283-.609c-.609-1.217-2.891-2.131-3.348-2.891-2.283-3.196-4.413-8.827-5.783-12.479l-9.131,4.565c-1.522-3.652,3.348-11.109,7.153-10.196s11.87,17.501,14.457,21.61h0Z" fill="#b37023"/>
  <path d="M561.019,335.983c-1.826-2.739-3.957-5.326-5.783-7.913-.457-.761-.761-1.522-1.217-2.283,7.761.304,6.087,5.174,6.848,10.348l.152-.152Z" fill="#e7b058"/>
  <polygon points="565.584 328.069 563.91 330.352 562.236 330.352 562.236 328.069 565.584 328.069" fill="#e7b058"/>
  <path d="M184.37,218.499c5.631-2.891,11.109-6.544,17.653-5.631,6.544.913,6.392,3.957,8.674,9.131,1.065,2.435,1.37,5.935,3.348,7.913.304.304.457.913,1.217,1.217v1.217c.457,5.783,3.652,10.805,5.783,15.979,1.37,3.348,2.131,6.848,3.348,10.196.609,1.522,2.131,2.891,2.283,3.348.761,2.283,3.5,11.261,3.5,13.088,0,2.587-.304,1.522-2.283,1.674l-26.936-58.133c-2.131-.609-3.957,0-6.087.457-12.327,3.805-30.436,18.718-44.285,24.197-2.283.913-4.565,1.826-7.153,1.522-.152-.913.609-2.587,1.217-3.348,2.891-1.065,10.957-7,14.914-9.131.761-.457,1.522-.761,2.283-1.217,6.848-3.652,14.001-7.913,20.544-11.414.761-.457,1.522-.761,2.283-1.065h-.304Z" fill="#f0eedf"/>
  <path d="M667.242,301.742l2.283,1.674c-17.349,9.587-29.675,26.632-33.023,46.263,5.935,0,11.87.152,17.805,0,1.522,0,2.587-1.217,2.739-1.217h7.913c9.131,0,14.762,1.217,25.11,0,2.131-.304,4.565.152,6.848,0v2.283c-8.522,0-17.957-.609-26.175,0-1.217,0-7.609.913-7.913,1.217-.152-1.37-2.283-1.217-3.348-1.217-7.305.913-17.196,0-25.11,0h-11.414c-.913-.913,6.087-19.023,7.457-21.61,4.87-8.827,8.979-11.87,16.131-17.501.913-.761,1.065-2.891,1.522-3.044,1.065-.761,7.609-3.957,9.131-4.565,2.739-.913,7.153-1.37,10.348-2.283h-.304Z" fill="#b37023"/>
  <path d="M232.307,267.501c8.522-.457,16.892,1.978,24.958,4.718.609,3.044.152,3.957-2.131,5.631.609-3.5-1.674-2.283-3.957-2.283-5.326-.152-10.653.609-15.827-1.217-1.826-1.065-2.435-5.022-3.196-6.848h.152Z" fill="#7e8397"/>
  <path d="M207.197,266.436c.457,0,1.674,1.217,2.283,1.217l4.565,11.414c-3.044-.913-16.588-5.174-17.044-7.457.761-3.5,7.305-4.718,10.348-5.174h-.152Z" fill="#7e8397"/>
  <path d="M266.548,297.177c-3.957.913-12.631,2.283-16.588,2.283h-26.175c-5.022,0-15.37-1.522-21.153-2.283-7.153-.913-14.305-3.652-21.61-3.348v-2.283c25.414,5.022,53.111,4.261,79.287,4.565,1.978,0,5.022-.761,6.239,1.217h0v-.152Z" fill="#eef1f4"/>
  <path d="M227.742,276.632h-3.348c-1.217-.152-3.5-1.978-5.631-1.217.761-4.261-2.283-6.392-3.5-9.131-.913-2.131-.913-5.174-3.348-6.848v-1.217c-.152-1.978-1.065-2.131-1.217-2.283-.304-1.217-.761-2.283-1.217-3.348-1.37-4.261-3.196-11.109-6.848-13.696l-1.217-1.217c2.739-2.891-2.283-11.566-4.87-11.261-12.935,7.153-25.719,14.914-38.806,21.762-1.065.609-1.674,1.978-1.826,2.131h-1.217c-1.826.761-4.87,2.131-6.848,1.826-1.217-.609-4.261-6.087-4.565-7.457,2.587.304,4.718-.609,7.153-1.522,13.849-5.479,31.958-20.24,44.285-24.197,2.131-.609,3.805-1.217,6.087-.457,0,0,26.936,58.133,26.936,58.133Z" fill="#e6623d"/>
  <path d="M264.265,321.221c-1.217,6.087-4.109,34.393-7.153,37.437s-17.501.152-22.523,2.587c0-.304-.913-.761-1.217-1.217-3.957-10.653-11.87-9.283-14.914-13.696s-3.196-19.479-5.783-25.11h51.59Z" fill="#f8f9fa"/>
  <path d="M104.475,332.635c7,0,6.544-1.978,7.609-2.283,22.827-5.174,46.72-4.565,64.829,11.414,1.37,1.217,3.652.609,2.891,4.413-4.718-.304-13.696,1.065-17.044,4.565h-1.217c-11.566.609-11.109-2.891-20.24-4.261-13.24-2.131-17.044,5.479-24.806,5.479s-11.109-4.109-17.653-4.565c0-.609-.609-1.065-1.217-1.217,1.37-4.109,8.979-6.544,10.044-9.892,1.217-3.652-1.674-2.283-3.196-3.805h0v.152Z" fill="#f7b94a"/>
  <path d="M161.543,323.504c12.022,3.805,26.784,11.87,31.958,24.045-3.044.304-6.239-.304-9.131,0-1.522-.152-3.044-1.065-4.565-1.217.913-3.805-1.522-3.348-2.891-4.413-18.11-16.131-42.002-16.588-64.829-11.414-1.217.304-.609,2.283-7.609,2.283h-2.283v-1.217c10.653-2.891,17.044-8.827,30.741-10.348,10.501-1.217,18.566-.761,28.61,2.283h0Z" fill="#f0eedf"/>
  <path d="M167.325,355.462h3.348l3.348,3.348c-6.696.761-9.74,4.718-17.653,4.718s-14.914-5.783-20.392-5.479c-3.957.304-9.283,4.109-13.24,4.87-10.957,2.283-15.37-2.891-24.653-3.957-7-.761-14.914.609-21.61,0-2.587-.304-3.957-.457-3.957-3.5,3.652-1.217,4.261-.913,7.913-1.217,3.957-.152,8.674-.304,12.479,0,10.348.609,19.479,5.935,28.61,4.109,4.261-.913,8.827-4.87,13.24-5.174,8.827-.609,22.675,12.479,32.415,2.283h.152Z" fill="#989dac"/>
  <path d="M224.394,370.224c-4.109-2.131-7.913-9.283-13.696-11.414s-15.827-1.217-22.218-1.217c-1.978,0-5.022-.761-6.239,1.217-2.587,0-5.479-.304-7.913,0l-3.348-3.348c.304,0,1.826-1.217,3.805-1.217,10.044-.304,33.328-1.37,42.154.304,7.305,1.522,12.783,8.827,7.761,15.675h-.304Z" fill="#f0eedf"/>
  <path d="M618.087,262.936c1.37.609,3.5,2.739,5.174,3.348,0,1.978-.609,3.805-.609,5.783-5.022.304-2.283,5.326-6.848,5.783-.913-1.522.609-6.392-1.674-6.848-2.587-.609-3.348,8.674-9.74,5.783-5.022-4.413-4.87-16.436-13.696-15.979.609-3.044-1.522-2.131-3.348-2.891-10.653-3.805-21.762-6.087-33.176-5.174-.304,1.065.304,2.739,0,3.348-1.217,2.891-6.392,10.348-9.74,10.196-5.783-.304-4.261-3.957-5.783-6.696-.913-1.522-2.131-1.522-2.739-2.283-.152-.152.609-2.131-.761-2.283-7-1.217-13.392,1.065-19.784,1.826-7,.761-13.088-.457-19.479,3.957-.152,1.217.913,1.065,1.217,1.065,1.522,1.065,2.739.913,2.283,2.891,0,1.217-1.978.304-2.283.609l-8.979,1.674c-4.413-1.826-4.718,1.522-5.479,1.826-7.153,1.978-8.37-3.5-9.435-9.131,3.348-3.196,33.176-8.218,39.567-8.979,31.197-3.5,76.395-.304,105.462,12.479h0l-.152-.304Z" fill="#e6623d"/>
  <path d="M497.103,261.871c-.152,0-1.37.152-1.217-1.065,6.392-4.413,12.479-3.196,19.479-3.957,6.392-.761,12.783-2.891,19.784-1.826,1.37.304.609,2.131.761,2.283-.913,0-1.674.913-2.283,1.217-11.718,3.957-24.349,1.37-36.524,3.348Z" fill="#b37023"/>
  <path d="M554.171,256.088c.304-.609-.304-2.435,0-3.348,11.414-.913,22.371,1.37,33.176,5.174,1.826.609,4.109-.304,3.348,2.891-12.935.761-8.522-.304-19.175-3.044-5.326-1.522-11.87-1.522-17.349-1.522h0v-.152Z" fill="#f25f37"/>
  <path d="M615.804,277.85c-3.044.304-9.283.609-11.414-1.217,6.392,2.891,7-6.239,9.74-5.783,2.283.457.913,5.326,1.674,6.848v.152Z" fill="#b37023"/>
  <path d="M187.87,301.742l5.022-1.217c1.217.152.304,1.978.609,2.283-2.131.609-3.957-.761-5.783-1.217l.152.152Z" fill="#8a90a2"/>
  <path d="M475.493,227.63c.457-1.674,7-3.957,8.827-4.261,18.718-3.348,40.937-6.239,61.481-6.087,26.48.152,54.785,5.935,79.287,15.979-8.522-.761-9.892,8.522,0,6.696l1.217-5.631c5.326,2.131,2.435-1.217,8.37,4.109.761.761,2.891.609,3.652,1.522,1.674,2.435-1.522,7.609,2.891,6.848-.761,2.283-3.044,6.087-4.565,7.913-3.348-1.065-3.805-3.5-8.066-5.022-12.935-5.022-35.915-11.109-49.763-12.935-35.61-5.022-71.221-2.435-105.766,6.848l-6.392-14.914c3.044-.304,6.087-.761,9.131-1.217-.304,1.217-.152,3.196,1.065,3.957l5.783.609v-5.783c-2.587-.913-5.022.913-6.848,1.217h0l-.304.152Z" fill="#f7b94a"/>
  <path d="M466.362,228.695l6.392,14.914c34.545-9.131,70.308-11.87,105.766-6.848,13.849,1.978,36.828,7.913,49.763,12.935,4.109,1.674,4.565,4.109,8.066,5.022-6.544,8.066-13.392,1.674-22.827,0-1.978-2.283-5.479-2.891-8.218-3.805-30.741-9.283-64.068-11.87-96.027-7.609-9.892,1.37-21.001,3.805-30.436,6.696h-2.283c-6.696.457-11.414,4.565-16.588-2.283-3.5-4.413-4.718-10.957-3.652-16.436.304-1.674,1.978-2.587,2.131-3.044,2.587-.152,5.479.304,7.913,0h0v.457Z" fill="#b37023"/>
  <path d="M154.694,250.457h1.217" fill="#111428"/>
  <path d="M955.93,563.19s.609-1.065,1.522-.913l2.435,2.131,24.653,58.742c.761,2.891-5.935,1.674-7.913,1.674l-20.544-61.633h-.152Z" fill="#8a90a2"/>
  <path d="M944.516,576.886c2.739-.609,2.435,1.217,3.044,3.196,1.674,5.174,13.392,43.22,11.718,44.741h-5.783c-3.044-15.979-6.392-31.806-9.131-47.937h.152Z" fill="#7e8397"/>
  <path d="M957.147,446.771c10.348,20.088,10.348,53.264,2.283,74.265-.457-8.827-4.109-19.631-4.565-28.61-.609-10.653.761-19.327-1.217-31.349-.304-2.131,1.522-4.565-2.283-3.957v-17.044c4.261.913,4.109,3.652,5.631,6.848h0l.152-.152Z" fill="#eef1f4"/>
  <path d="M954.865,492.425c.457,8.979,4.109,19.631,4.565,28.61,0,1.674-1.217,5.022-1.217,7.913v1.217c-1.217.457-1.674,1.217-2.283,2.283-1.217,2.283-1.065,2.131-1.217,4.565-1.217,0-2.435.913-3.348,1.217-.152-3.805.304-7.609,0-11.414,0-2.131-1.065-4.87-1.217-5.783v-9.131c0-5.935,1.065-12.935,1.217-19.479h3.5Z" fill="#9297a8"/>
  <path d="M579.281,483.295c-6.848,14.153-12.783,30.893-19.479,45.654H91.996c-3.348-.761-12.479-16.283-14.609-20.24s-10.501-20.088-11.261-22.979c-.304-1.217-.457-2.435-.304-3.652l513.612,1.217h-.152ZM184.37,488.925h-12.631c-1.826,9.435,14.305,8.522,12.631,0ZM289.071,494.404c1.065-.913,2.131-3.957.304-4.87l-11.414-.609c-1.826,6.544,7.305,8.522,11.109,5.479h0ZM411.425,493.491l-.457-3.348-12.022-1.065c-2.587,7.913,10.501,7.761,12.479,4.413h0ZM539.409,490.143c-1.674,7,11.261,6.544,12.479,2.739,1.978-6.087-9.74-3.5-12.479-2.739Z" fill="#9ea4b4"/>
  <path d="M100.67,535.949c4.261-1.37,17.044,11.566,11.87,15.37-5.174,3.196-18.718-13.24-11.87-15.37Z" fill="#63677b"/>
  <path d="M130.802,549.493h-8.066l.457-5.783c5.479-3.196,8.522-.304,7.457,5.783h.152Z" fill="#63677b"/>
  <path d="M942.234,494.708c-.304,8.066.913,15.37,1.217,22.827h-181.4c0-7.609,1.217-15.827,1.217-22.827h179.27-.304Z" fill="#7e8397"/>
  <polygon points="761.898 544.928 761.898 545.993 759.616 545.537 761.898 544.928" fill="#171a31"/>
  <polygon points="91.996 539.145 91.996 541.428 88.495 543.711 89.713 539.145 91.996 539.145" fill="#7e8397"/>
  <path d="M644.414,615.692c-2.435,2.891-1.978,4.109-6.848,6.239-8.066,3.652-14.762,3.348-22.827,0-2.435-1.065-5.174-3.957-6.848-4.565-1.522-.609-3.196.761-3.348.609-.152-.304.152-2.435-.304-3.652-1.065-2.435-2.283-3.5-3.044-6.696,4.87,1.674,8.218,6.848,12.935,9.283,10.653,5.783,20.088,3.5,30.436-1.37h0l-.152.152Z" fill="#798092"/>
  <path d="M709.396,563.19l1.217,1.674-2.283,2.891h-2.283v-3.348c.913-1.217,2.587-.761,3.348-1.217h0Z" fill="#9297a8"/>
  <path d="M702.548,565.473c.304-.152.913.152,1.217,0l-.609,1.065-.609-1.065Z" fill="#eef1f4"/>
  <path d="M663.741,387.42h76.395c-1.217,5.479,5.631,3.957,6.696,7.609.913,3.044-1.826,5.479-2.131,8.37h-5.783c0-1.065-.152-2.435,0-3.348,0-.152,1.826-.609,1.826-1.674.304-3.805-4.718-4.413-1.826-.609h-2.283c-20.088,1.978-45.046-2.587-64.525,0-4.718.609-4.718,2.131-5.174,6.239-2.435,24.806-.152,59.351,0,85.069,0,1.826-1.826,4.87,2.891,5.783,20.088-1.522,43.067,1.978,62.851,0,7.609-.761,6.392-5.326,7.305-5.783,1.065-.609,3.5,1.217,4.565-3.348,0,.761,1.978,6.239,2.283,6.392l6.848.457v53.568h-95.874c-3.5-6.392-2.283-14.001-2.283-21.153.304-42.763,2.283-86.896,0-130.115,0-2.587-.913-4.87-1.217-7.305h9.131l.304-.152Z" fill="#9ca1b1"/>
  <path d="M764.029,550.863" fill="#171a31"/>
  <path d="M768.747,555.124v2.283" fill="#171a31"/>
  <path d="M650.045,587.082c6.087-2.131,1.522.761,2.283,2.739.609,1.522,7.153,4.87,0,6.392-.457-2.587-1.217-6.848-2.283-9.131h0Z" fill="#9ca1b1"/>
  <path d="M654.611,387.42c.152,2.435,1.065,4.87,1.217,7.305,2.283,43.372.152,87.352,0,130.115,0,7.153-1.217,14.762,2.283,21.153h-6.696v-158.725h3.348l-.152.152Z" fill="#7e8397"/>
  <path d="M927.472,725.263h-1.217c1.065-.304,1.065,0,1.217,0Z" fill="#111428"/>
  <path d="M896.579,366.876h2.283c5.022,1.37,3.805,14.153,2.283,18.262h-4.565v2.283h-1.217l-1.217-13.696h-43.828l-1.826-4.565s-.609-2.739,1.674-2.435c15.066,1.065,31.502-1.217,46.263,0l.152.152Z" fill="#eef1f4"/>
  <path d="M743.637,387.42h9.131c.152,1.522,1.065,3.044,1.217,4.565.913,10.501,0,23.436,0,34.241v4.565c0,6.239-.913,13.849,1.217,19.479v6.848c-2.131,5.631-1.065,13.088-1.217,19.479v15.979l-6.848-.457c-.304-.152-2.131-5.631-2.283-6.392-.913-6.392,1.217-13.544,1.217-18.87v-36.524c0-8.37-2.131-17.805-1.217-26.784.304-2.891,3.044-5.174,2.131-8.37-1.065-3.652-7.913-2.283-6.696-7.609h3.348v-.152Z" fill="#9ea4b4"/>
  <path d="M848.642,369.158l1.826,4.718h43.828l1.217,13.544h-2.435c-.152,0-1.217-1.217-2.739-1.217-14.609-.609-29.219,1.217-43.828-.761-3.348-1.522-3.196-12.327-.761-15.218.913-1.065,2.435-.913,2.739-1.217h0l.152.152Z" fill="#9ca1b1"/>
  <path d="M885.165,394.268v4.565l-25.11,1.217v27.393c-1.37,0-3.044.913-4.565,1.217h-1.217l-1.217-2.283c2.739-1.674,0-8.066,0-10.348v-3.348c0-3.196-.609-16.892,1.37-18.11,10.196,0,20.544-.457,30.588,0l.152-.304Z" fill="#75788c"/>
  <path d="M898.862,385.138v2.283h-2.283v-2.283h2.283Z" fill="#9ca1b1"/>
  <path d="M853.207,430.792l1.217-1.217c-.304,0-.761.913-1.217,1.217Z" fill="#101326"/>
  <path d="M943.451,437.64v11.414c0,8.827,1.217,17.805,1.217,26.175,0,5.174-2.131,13.849-2.283,19.479h-179.27c0-19.023-.609-38.045,0-57.068l59.807-.913c3.348,1.522-.304,2.891-.457,6.087-.761,9.131,4.565,14.609,13.392,15.066,12.783.609,28.762-.761,42.154-.761,5.478,0,11.566,2.739,17.044-2.131,3.957-3.652,2.739-9.131,4.565-12.631.304-.609,5.326-4.565,5.631-4.565h27.393c.304,0,1.217-.913,2.283-.913,2.587,0,5.631,1.674,8.674.913h0l-.152-.152ZM793.552,445.858c-7.609,2.283-3.652,13.392,4.109,10.957,6.544-1.978,3.957-13.392-4.109-10.957ZM818.662,447.075c-3.348-3.196-11.87-1.674-11.109,4.718,1.37,11.87,17.805,1.826,11.109-4.718Z" fill="#9ea4b4"/>
  <path d="M667.242,301.742c25.566-7.609,41.85-9.131,66.047,3.348,4.565,2.283,3.196,2.283,6.239,4.261.913.609,2.891,0,3.805.761,1.522,1.065,14.914,14.762,15.827,16.131,4.261,6.239,10.196,17.044,9.587,24.653h-24.045l-9.131-1.217v-5.783c-2.131-.761-4.413,1.065-5.783,1.217-8.522.609-5.783-5.783-13.696-4.565v8.066c-2.891,0-16.74,1.37-18.262,0-.152-.152-.152-2.587-1.217-4.413-1.37-2.435-2.587-3.957-5.631-3.348l-1.217,7.913c-10.348,1.217-15.979,0-25.11,0l-1.065-6.392c-5.326-1.978-10.805.457-6.848,6.392-.152,0-1.217,1.217-2.739,1.217-5.935,0-11.87-.152-17.805,0,3.348-19.479,15.827-36.524,33.023-46.263l-2.283-1.674h0l.304-.304ZM701.33,299.612c-3.805-.609-9.435-.913-10.196,3.957-1.37,9.435,16.892,8.218,10.196-3.957ZM713.809,312.243c-5.326-3.348-11.566.609-9.587,6.696l9.74,1.065v-7.761h-.152ZM684.134,316.96c-2.283-2.435-8.979-.304-9.892,2.739-2.739,8.979,17.957,5.631,9.892-2.739ZM695.243,318.178c-4.261,0-9.435,8.827-3.196,10.805,8.979,1.978,11.109-10.805,3.196-10.805ZM727.658,317.721c-7.457-2.891-14.914,7.913-6.239,9.131,6.087.913,6.848-4.261,6.239-9.131ZM664.807,323.656c-2.435-1.522-7.609.761-9.892,2.283-3.196,9.435,11.261,10.348,11.261,2.739,0-.913-.913-4.718-1.37-5.022ZM732.375,333.7l9.131.761c5.935-11.566-11.414-12.175-9.131-.761ZM704.526,328.222c-2.891,1.065-4.109,7.305-1.978,9.587l2.739,1.37c8.066-1.674,9.435-14.609-.761-11.109h0v.152ZM674.394,341.461c1.522,1.522,7.305,2.131,8.979.913,1.674-1.978,1.674-6.087,0-8.218-2.891-3.652-10.044-.304-10.348,3.5.152,1.217.457,2.891,1.37,3.805h0ZM753.681,335.222c-2.283-2.587-7.913-1.217-8.827,2.587-2.131,8.979,15.37,5.022,8.827-2.587Z" fill="#f7b834"/>
  <path d="M885.165,398.834c0,9.587-.304,19.023,1.217,28.61-8.37-.304-17.805-.304-26.175,0v-27.393l25.11-1.217h-.152Z" fill="#9ea4b4"/>
  <path d="M729.94,345.114l-1.217,5.783h-32.11v-6.848c1.065,1.826,1.065,4.261,1.217,4.413,1.37,1.37,15.37,0,18.262,0v-8.066c7.913-1.217,5.174,5.174,13.696,4.565h0l.152.152Z" fill="#e49032"/>
  <path d="M729.94,345.114c1.217,0,3.652-1.978,5.783-1.217v5.783l9.131,1.217h-15.979l1.217-5.783h-.152Z" fill="#b37023"/>
  <path d="M65.668,419.378c4.109-.457,8.979,4.261,11.566,5.022,17.805,4.87,24.197-11.109,36.98-10.653,12.327.457,22.675,13.088,33.176,12.631,7.913-.304,19.327-11.87,27.393-11.566,7.609.304,17.957,10.957,26.48,11.109,6.087,0,15.066-8.066,21.305-6.544,2.891.761.913,8.218-1.522,9.131-.152-1.674-3.196-1.674-3.348,0h-1.217c-4.565.304-9.131,0-13.696,0h-13.696v2.283h-3.348v-2.283c-1.37-.152-3.196.304-4.565,0-7.609-1.522-8.827,0-14.914,0h-15.979c-26.48.152-59.351,2.131-85.069,0-1.826-.152-3.348-.761-5.174-1.217l2.283-1.826c.457-2.131-1.217-3.348-1.217-3.957v-1.217l4.565-1.217h0v.304Z" fill="#6a2f22"/>
  <path d="M212.98,405.682c7.305-9.283,21.305-1.674,17.044,9.131-1.217-1.674-7.457-3.957-7.913-4.565-.457-.457-1.826-5.631-2.283-6.848-2.435,1.522-3.957,1.978-6.848,2.283Z" fill="#9ea4b4"/>
  <path d="M72.516,355.462c0,3.044,1.37,3.196,3.957,3.5,6.696.761,14.609-.761,21.61,0,9.283,1.065,13.696,6.239,24.653,3.957,3.957-.761,9.283-4.565,13.24-4.87,5.326-.304,12.631,5.326,20.392,5.479,7.761.152,11.109-3.805,17.653-4.718,2.435-.304,5.479,0,7.913,0,9.435-.304,19.023.304,28.61,0,5.783,2.131,9.587,9.283,13.696,11.414-.761,1.065-1.217,2.131-2.587,2.587l-157.812.913-2.435-1.065c-1.065-1.37,0-8.674.913-10.044.304-.457,9.131-6.848,9.892-7.153h.304Z" fill="#6a2f22"/>
  <path d="M67.951,380.572h152.334c5.326-1.978,8.218,8.37,5.174,7.913-.152,0-.609-1.065-1.065-1.217l-1.217,3.5c-.152-1.522,1.37-3.196-1.674-3.5-5.783-.457-13.088,0-18.87,0-2.891-10.653-18.414-.913-24.349-2.283-.913-.152-.304-2.131-2.435-2.435-10.501-1.37-49.763-.761-59.199,2.435-1.217.457-.609,3.348-4.718,2.131-.913-.304-.304-2.131-2.435-2.435-7.913-1.065-11.87,3.805-18.11,2.283-.913-.152-.304-2.131-2.435-2.283-4.565-.609-9.131,1.674-13.696,1.37l-.609-3.348h-6.848v-2.435h0l.152.304Z" fill="#f7b94a"/>
  <path d="M202.632,387.42c5.783-.152,13.24-.457,18.87,0,2.891.304,1.37,1.826,1.674,3.5l1.217-3.5c.457,0,.913,1.217,1.065,1.217,0,3.957.761,3.196-2.739,3.348-21.458,1.674-43.98.913-65.742,0h-5.783v-3.348c17.197-.304,34.393-.609,51.437-1.217h0Z" fill="#e49032"/>
  <path d="M160.477,398.834s1.826,0,1.217,2.283c-4.413-1.217-6.544,4.109-10.957,4.565-2.587.152-8.979-1.522-11.87-2.283-.304-4.718,0-2.891,2.891-3.348s5.326-1.826,7.153-2.131c3.348-.609,7.913,1.978,11.718.913h-.152Z" fill="#6a2f22"/>
  <path d="M209.48,439.923h2.283c3.348,3.348,8.674,1.217,12.479,3.348,0,.304-.913,1.978-1.217,2.283H69.777c-1.217.152-.609-1.522-.761-2.283,1.674-6.544,8.218-2.435,13.088-2.283,42.459,1.217,85.678,1.674,127.376-1.217h0v.152Z" fill="#e49032"/>
  <path d="M67.951,436.423l1.217,1.217c.152,1.826-.304,3.957,0,5.783,0,.761-.609,2.435.761,2.283h153.399c-2.891,3.652-20.088,2.435-25.719,2.283-29.371-.609-58.894-1.217-88.417-1.217h-49.155c-1.978-3.196-3.196-5.935-.609-9.131,1.978-1.978,5.935-1.065,8.522-1.065v-.152Z" fill="#b37023"/>
  <path d="M222.111,438.705c-2.283,2.283-7,.913-10.348,1.217h-2.283c.609-3.5-1.674-2.131-3.957-2.283-45.046-1.826-91.309,1.37-136.507,0l-1.217-1.217c43.067-1.522,96.027-2.435,138.789,0,3.348.152,13.392,1.217,15.37,2.283h.152Z" fill="#e7b058"/>
  <path d="M109.04,446.771c-1.217,1.826-4.261,1.217-6.239,1.217-12.327.152-27.697-1.37-39.415,0l-1.217-1.217h46.872Z" fill="#6a2f22"/>
  <path d="M224.394,443.271c-3.957-2.131-9.131,0-12.479-3.348,3.196-.304,7.913,1.065,10.348-1.217,2.131,1.37,2.435,1.826,2.283,4.565h-.152Z" fill="#f7b94a"/>
  <path d="M67.951,382.855h6.848l.609,3.5c4.565.304,9.131-1.978,13.696-1.37,2.131.304,1.522,2.131,2.435,2.283,6.392,1.522,10.196-3.348,18.11-2.283,2.131.304,1.522,2.131,2.435,2.435,4.109,1.065,3.5-1.826,4.718-2.131,9.283-3.348,48.698-3.805,59.199-2.435,2.131.304,1.522,2.131,2.435,2.435,5.783,1.37,21.458-8.37,24.349,2.283-17.044.457-34.241.761-51.437,1.217-6.392,0-13.544,1.065-20.544,1.217-1.37-1.826-6.544-1.826-7.913,0h-11.414c-3.348-2.131-9.435-1.065-13.696-1.217-9.892,0-19.784,0-29.675,1.217v-6.848h0l-.152-.304Z" fill="#f8b843"/>
  <path d="M111.323,389.703c-4.718,0-9.131-.457-13.696,1.217v-2.283c4.261,0,10.348-.913,13.696,1.217v-.152Z" fill="#e49032"/>
  <path d="M130.802,389.703h-7.913c1.37-1.826,6.544-1.826,7.913,0Z" fill="#e49032"/>
  <path d="M104.475,332.635c1.522,1.674,4.565.152,3.196,3.805-1.217,3.348-8.674,5.783-10.044,9.892-2.891-.304-6.544-.304-6.848-4.565l4.565-.457v-4.109c5.935,1.37,3.5-2.131,6.848-4.565h2.283Z" fill="#b37023"/>
  <path d="M624.935,233.26c.304,0,.609.913,1.217,1.217l-1.217,5.631c-9.74,1.674-8.37-7.457,0-6.696v-.152Z" fill="#b37023"/>
  <rect x="268.831" y="321.221" width="4.565" height="2.283" fill="#e6623d"/>
  <path d="M467.427,414.813c6.848-2.131,14.305-10.805,19.936-11.566,11.718-1.37,15.827,15.827,31.197,10.653,6.848-2.283,12.327-13.849,20.849-9.892,1.674.761,3.348,3.957,5.174,5.174,1.065.761,2.283.761,2.891,1.065,7,4.413,6.392,3.957,14.914,4.565l-.457,13.849c-1.217,1.826-6.239.913-8.674,1.065-6.848-1.37-8.37-8.522-13.24-11.261-9.435-5.174-17.653.457-27.24,0-5.935-.304-11.87-3.652-18.262-3.652-11.261,0-26.784,10.044-35.915,1.217,3.805.609,5.935-.152,9.131-1.217h-.304Z" fill="#e6623d"/>
  <path d="M464.079,429.574c-.761,1.826-5.022,1.826-5.783,0h5.783Z" fill="#221719"/>
  <path d="M293.94,385.138c11.566-3.805,15.218-.457,26.784,0,.152-3.805,5.631-5.479,9.283-5.783,5.479-.304,10.348,4.87,15.979,5.631,7.305.913,7.913-.761,15.066,2.131,7.153,2.891,11.566,3.348,18.566,5.174,10.348,2.739,9.283,7.305,14.762,14.609,2.587,3.348,6.696,5.631,10.044,7.609,3.957,2.283,3.652.457,5.935,4.718-6.087,4.413-6.544,8.37,1.217,11.414.152,2.435.761,8.522,1.217,10.501.152,1.065,1.978,1.522,2.283,1.978-2.435.761-4.87,1.37-7.457,1.217-24.653-1.217-55.698-4.109-79.895-2.435-2.435.152-4.718,0-6.239,2.283-18.414-.913-41.241,2.131-58.894,0-1.217-.152-2.587,0-3.5-1.065-.913-2.435-.609-5.022-.457-7.457.761-10.044,16.436-40.632,24.653-46.111,2.435-1.674,7.761-3.805,10.653-4.718h0v.304ZM364.705,397.616c-1.065-8.674-11.87-11.87-18.414-6.087.457,11.261,8.979,3.652,13.24,3.957,2.131,0,2.739,2.739,5.022,2.283h0l.152-.152ZM296.223,397.616c.457-4.87-6.848-2.283-9.587-1.065-3.805,1.674-6.696,4.565-6.392,8.979,7.305,1.522,10.044-5.935,15.979-8.066v.152ZM311.898,399.138c-4.413.457-6.696,5.935-3.044,9.435,6.848,6.544,12.327-10.348,3.044-9.435ZM327.116,408.117c-3.5,5.326,5.783,15.066,10.348,9.74,3.196-3.805-5.935-11.414-10.348-9.74ZM351.313,419.683c-1.065,1.217-1.826,4.261-1.37,5.783,1.522,4.87,13.544-2.891,13.696-5.479-.304-5.174-10.196-2.587-12.327-.304h0ZM276.44,420.596c-3.957,1.37-4.413,8.218,2.131,8.979,8.979.913,5.479-11.566-2.131-8.979ZM382.662,421.813c-1.37.304-4.413,3.348-4.109,4.87,12.631,17.349,16.588-8.218,4.109-4.87ZM314.485,437.64c1.522-7.913-6.696-15.066-13.696-9.74,3.044,4.718,7.305,10.501,13.696,9.74Z" fill="#f8b843"/>
  <path d="M414.925,443.271c.304.609-.152,2.435,0,3.348-19.936-2.891-54.785,0-76.395,0-3.652-2.283-9.74-.761-14.305-1.065-1.522,0-2.587-1.217-2.739-1.217,1.522-2.283,3.805-2.131,6.239-2.283,24.197-1.674,55.394,1.37,79.895,2.435,2.587,0,5.022-.609,7.457-1.217h-.152Z" fill="#e49032"/>
  <path d="M411.577,430.792c-7.761-3.044-7.153-7-1.217-11.414,3.652,7,.761,6.696,1.217,11.414Z" fill="#e49032"/>
  <path d="M558.736,442.206c0,.761.152,1.674,0,2.283v1.217c-1.826,1.37-4.109,1.065-6.239,1.217-18.566.609-38.958.457-57.677,0-.152,0-1.826-1.217-3.805-1.217-14.305-.304-28.762,1.37-42.763-1.217-1.826-2.131-.304-3.5-.152-4.413,6.392,1.826,14.457,1.522,21.153,1.217,1.978,0,3.957-1.217,4.565-1.217h75.33c3.196,1.978,7.913-2.435,9.74,2.283h0l-.152-.152Z" fill="#e49032"/>
  <path d="M448.1,436.423h111.853c1.065,2.283-1.065,4.565-1.217,5.783-1.674-4.718-6.392-.304-9.74-2.283h-75.33c-.457,0-2.435,1.217-4.565,1.217-6.696.152-14.914.609-21.153-1.217v-3.348h0l.152-.152Z" fill="#e7b058"/>
  <rect x="195.783" y="298.394" width="3.348" height="1.065" fill="#8a90a2"/>
  <path d="M522.213,339.483c2.891,1.217,13.392,7.305,15.979,9.131,7.913,5.631,16.131,16.436,20.544,25.11.609,1.217.152,3.652,2.283,4.565-.457,2.435.304,5.479,0,7.913-.152,0-1.065,1.674-2.131,1.065-.304-.152-1.826-3.652-4.718-4.413,1.37-4.718-2.435-6.087-3.348-7.761-2.739-5.022-2.891-5.022-5.783-8.218-1.37-1.674-1.826-1.826-2.283-2.283-12.631-13.849-16.892-15.675-35.763-20.544-.913-.304-.761-1.978-1.522-2.131-13.088-3.196-43.524,1.37-56.307,6.848,1.37-.761,2.435-2.739,3.348-3.348,4.261-3.196,12.935-6.544,18.262-7.913,16.436-4.413,35.458-4.109,51.437,2.283v-.304Z" fill="#f0eedf"/>
  <path d="M490.255,272.067c-.609,4.413,2.435,7.913,4.565,11.414-3.044,7.153-3.196,8.827,0,15.979.152.304-.152.913,0,1.217,3.196,5.631,14.457,11.566,20.544,10.348.457,6.544,3.348,12.631,2.283,19.479-.609-.152-1.522,0-2.283,0-5.631-1.217-11.261-1.978-17.044-2.435-.152-1.674-.761-2.891-1.217-4.413-5.174-14.762-11.261-29.219-18.262-43.372v-2.283c0-.913-.457-1.826.761-2.435,3.348-1.826,7.153-2.283,10.653-3.348v-.152ZM512.017,317.721c-5.631-.304-7.153,2.739-6.848,7.913h6.696c1.522-2.739.457-5.174.152-7.913Z" fill="#b37023"/>
  <path d="M556.453,350.897c-3.652,2.283-7-3.348-11.414-5.783-.457-.152-.761-1.065-1.217-1.217l-3.348-2.283c-1.674-2.283-4.109-2.435-6.848-2.283v-4.565c8.066-5.935,19.631-3.348,22.219,6.848.913,3.348,0,6.696.609,9.131v.152Z" fill="#e6623d"/>
  <path d="M473.21,259.588c1.217,5.631,2.283,10.957,9.435,9.131.761-.152,1.065-3.652,5.479-1.826l8.979-1.674c-2.283,2.283,1.522,4.261-6.848,6.848-3.5,1.065-7.305,1.522-10.653,3.348-1.217.457-.609,1.522-.761,2.435-1.978-1.065-1.674-3.044-2.283-4.565-1.522-3.652-6.544-10.653-3.348-13.696h0Z" fill="#6a2f22"/>
  <path d="M531.952,324.569c.761.304.761.761,0,1.217v-1.217Z" fill="#f7b94a"/>
  <path d="M581.259,282.719c14.457,14.457-13.696,31.958-20.392,14.153-5.022-13.088,10.501-24.045,20.392-14.153Z" fill="#e6623d"/>
  <path d="M567.867,264.153c-1.826,0-4.413-.304-6.087,0-.304,0-3.044,4.565-5.326,2.283-1.522-1.522,2.435-8.218,4.413-6.696.152,0-.152,1.978.761,2.131,2.283.609,5.935-.457,8.37,0,.152,1.674-1.065.609-2.283,2.283h6.848c1.065,3.348-1.978,1.674-2.283,2.891-.609,3.044,2.587.609,2.283,2.891-2.131,1.978-9.74-.761-9.131,3.5-.304,0-3.044.913-3.348,1.217l-1.217-5.783c5.174,1.065,5.022-1.826,6.848-4.565h0l.152-.152Z" fill="#f8b843"/>
  <path d="M664.959,348.614h-7.913c-3.957-5.935,1.522-8.37,6.848-6.392l1.065,6.392Z" fill="#f25f37"/>
  <path d="M696.917,344.049v4.565c-2.283.152-4.718-.304-6.848,0l1.217-7.913c3.044-.457,4.413,1.065,5.631,3.348Z" fill="#f25f37"/>
  <path d="M210.697,358.81c-9.435.304-19.023-.304-28.61,0,1.217-1.826,4.261-1.217,6.239-1.217,6.544,0,16.588-.913,22.218,1.217h.152Z" fill="#989dac"/>
  <path d="M475.493,227.63c1.826-.152,4.261-2.131,6.848-1.217v5.783l-5.783-.609c-1.217-.761-1.37-2.739-1.065-3.957h0Z" fill="#b37023"/>
  <path d="M951.364,456.967c3.652-.609,1.826,1.826,2.283,3.957,1.826,12.022.609,20.697,1.217,31.349h-3.348v-35.306h-.152Z" fill="#9ea4b4"/>
  <path d="M184.37,488.925c1.826,8.522-14.305,9.435-12.631,0h12.631Z" fill="#63677b"/>
  <path d="M289.071,494.404c-3.805,3.196-12.935,1.065-11.109-5.479l11.414.609c1.674.913.761,3.957-.304,4.87h0Z" fill="#63677b"/>
  <path d="M411.425,493.491c-2.131,3.196-15.066,3.5-12.479-4.413l12.022,1.065.457,3.348h0Z" fill="#63677b"/>
  <path d="M539.409,490.143c2.739-.609,14.457-3.348,12.479,2.739-1.217,3.652-14.305,4.261-12.479-2.739Z" fill="#63677b"/>
  <path d="M485.689,387.42c-2.435,3.652-.304,1.674,1.674,2.283,8.37,2.587,21.001,8.979,29.371,6.696,1.978-.609,3.652-3.348,5.326-4.261,8.827-5.326,11.718-5.174,21.61-3.348l-2.587,1.065c2.131,0,.457,1.978,1.37,2.891,2.435,2.587,12.935,5.326,16.588,5.022,5.022-.457,3.652-2.891,4.109-3.348,1.826-1.978,3.348-3.957,6.239-4.565l5.174,3.5c-1.522,6.239-2.587,3.652-4.261,6.087-4.718,6.696-3.652,11.566-15.523,8.522-3.5-.913-9.587-8.218-12.327-8.827h-1.217l-8.218-4.413c-10.501,2.435-12.175,16.131-23.74,13.544-2.283-.457-10.957-11.87-19.175-12.327-9.131-.457-19.784,13.24-25.871,13.392-7.153,0-15.675-11.87-21.914-13.392-8.066-1.826-10.044,2.891-15.827,3.196-6.544.457-8.674-3.196-8.522-9.131,3.044-1.217,5.479,2.131,7.457,2.283,2.131,0,7.153-3.652,10.501-4.261,3.196-.609,9.131-.761,12.175-.152,4.718.761,9.435,5.631,12.935,6.544,5.479,1.37,16.283-5.935,24.197-6.544h0l.457-.457Z" fill="#53c96c"/>
  <path d="M622.348,588.452c18.566-5.479,20.088,20.392,3.5,18.87-11.87-1.065-12.022-16.436-3.5-18.87Z" fill="#e6623d"/>
  <path d="M744.854,403.399c-.913,8.979,1.217,18.414,1.217,26.784v36.524c0,5.326-2.131,12.327-1.217,18.87-1.065,4.718-3.5,2.739-4.565,3.348h-1.217c1.217-28.154-1.674-57.677,0-85.526h5.783Z" fill="#9297a8"/>
  <path d="M739.071,488.925h1.217c-.913.457.152,5.022-7.305,5.783-19.784,1.978-42.763-1.522-62.851,0-4.718-.913-2.891-3.957-2.891-5.783h71.83,0Z" fill="#eef1f4"/>
  <path d="M736.789,397.616h2.283c-2.891-3.805,2.131-3.196,1.826.609,0,1.065-1.826,1.522-1.826,1.674l-2.283-2.283Z" fill="#9297a8"/>
  <path d="M818.662,447.075c6.696,6.544-9.74,16.588-11.109,4.718-.761-6.392,7.761-8.066,11.109-4.718Z" fill="#f8f9fa"/>
  <path d="M793.552,445.858c8.066-2.435,10.653,8.979,4.109,10.957-7.761,2.435-11.718-8.827-4.109-10.957Z" fill="#eef1f4"/>
  <path d="M701.33,299.612c6.848,12.022-11.414,13.392-10.196,3.957.761-4.87,6.239-4.565,10.196-3.957Z" fill="#e49032"/>
  <path d="M664.807,323.656c.457.304,1.37,4.109,1.37,5.022,0,7.609-14.457,6.848-11.261-2.739,2.283-1.674,7.457-3.805,9.892-2.283Z" fill="#f25f37"/>
  <path d="M674.394,341.461c-.913-.913-1.217-2.587-1.37-3.805.304-3.957,7.457-7.153,10.348-3.5,1.522,1.978,1.674,6.087,0,8.218-1.674,1.217-7.457.609-8.979-.913h0Z" fill="#e49032"/>
  <path d="M695.243,318.178c7.913,0,5.783,12.783-3.196,10.805-6.239-1.978-1.065-10.805,3.196-10.805Z" fill="#f25f37"/>
  <path d="M704.526,328.222c10.196-3.5,8.827,9.283.761,11.109l-2.739-1.37c-2.131-2.435-.913-8.674,1.978-9.587h0v-.152Z" fill="#f25f37"/>
  <path d="M732.375,333.7c-2.283-11.414,14.914-10.805,9.131.761l-9.131-.761Z" fill="#f25f37"/>
  <path d="M684.134,316.96c8.066,8.37-12.479,11.718-9.892,2.739.913-3.044,7.457-5.174,9.892-2.739Z" fill="#f25f37"/>
  <path d="M713.809,312.243v7.761c.152,0-9.587-1.065-9.587-1.065-1.978-6.087,4.413-10.044,9.587-6.696Z" fill="#e49032"/>
  <path d="M727.658,317.721c.609,4.87-.152,10.044-6.239,9.131-8.674-1.217-1.217-12.175,6.239-9.131Z" fill="#f25f37"/>
  <path d="M753.681,335.222c6.544,7.609-10.957,11.566-8.827,2.587.913-3.805,6.544-5.174,8.827-2.587Z" fill="#f25f37"/>
  <path d="M69.168,437.64c45.198,1.37,91.309-1.826,136.507,0,2.131,0,4.565-1.217,3.957,2.283-41.546,2.891-84.765,2.435-127.376,1.217-4.87,0-11.414-4.261-13.088,2.283-.304-1.826.152-3.805,0-5.783Z" fill="#f7b94a"/>
  <path d="M449.166,348.614c12.783-5.479,43.22-10.044,56.307-6.848.761.152.609,1.978,1.522,2.131,18.87,4.87,23.132,6.696,35.763,20.544v2.283h2.283c.152,2.283-.609,5.174.152,7.305.609,1.826,5.783,4.261,6.696,6.392l-15.218-4.565c-.913,3.196-2.739,1.674-4.261,2.435-1.217.609-1.065,1.978-1.674,2.131-2.435.609-6.696-1.674-6.087,2.283-3.348.457-6.087,2.435-9.74,2.283s-9.283-3.5-11.414-3.5h-26.175c-2.587,0-9.587,4.109-12.783,4.261-5.022.304-14.609-4.565-24.349-4.261-2.587-.152-3.957,1.217-3.044-2.435,2.739-9.892,7.457-19.479,9.892-29.523.761-.457,1.522-.761,2.283-1.217h0l-.152.304ZM445.818,363.376c11.718,4.413,8.827-11.566,1.522-5.783l-1.522,5.783ZM488.124,360.18l-1.217,4.718c8.827,9.892,16.436-7,1.217-4.718ZM471.841,369.006c1.978-1.217,3.044-8.218-3.805-7.913-8.522.457-2.891,12.175,3.805,7.913ZM510.951,369.006c3.044.609,7.913.457,8.827-2.891,2.283-8.066-13.088-6.544-8.827,2.891Z" fill="#f7b94a"/>
  <path d="M446.883,349.679c-2.283,10.196-7,19.631-9.892,29.523-1.065,3.652.304,2.283,3.044,2.435-.152,0-1.37,1.065-2.739,1.217-5.022.304-10.653.609-15.523,0-.609-.761,6.848-17.044,7.913-18.566.761-1.065,5.326-5.022,6.848-6.544l1.217-1.217c2.739-2.435,5.935-5.022,9.131-6.848Z" fill="#b37023"/>
  <path d="M522.213,391.986c-1.674,1.065-3.5,3.805-5.326,4.261-8.37,2.435-21.001-4.109-29.371-6.544-1.978-.609-4.109,1.37-1.674-2.283,5.326-.457,12.175.304,17.349,1.37,7.305,1.674,11.261,7.153,19.175,3.044l-.152.152Z" fill="#9ea4b4"/>
  <path d="M542.757,364.593c.457.457.913.609,2.283,2.283,2.739,3.348,3.044,3.348,5.783,8.218.913,1.674,4.87,2.891,3.348,7.761-8.37-2.131-21.153-1.217-29.675,0-.761-4.109,3.652-1.674,6.087-2.283.761-.152.609-1.674,1.674-2.131,1.522-.761,3.348.761,4.261-2.435l15.218,4.565c-.913-2.131-6.087-4.718-6.696-6.392-.761-1.978,0-5.022-.152-7.305h-2.283v-2.283h.152Z" fill="#e7b058"/>
  <path d="M543.975,388.486c8.066,1.37,11.87,4.87,19.479,5.783-.457.457.913,2.891-4.109,3.348-3.652.304-14.153-2.435-16.588-5.022-.913-.913.761-2.891-1.37-2.891l2.587-1.065h0v-.152Z" fill="#9ea4b4"/>
  <path d="M436.687,357.745c.457-.304.761-.761,1.217-1.217l-1.217,1.217Z" fill="#18172a"/>
  <path d="M364.705,397.616c-2.283.457-2.891-2.131-5.022-2.283-4.261-.152-12.783,7.305-13.24-3.957,6.544-5.783,17.349-2.435,18.414,6.087l-.152.152Z" fill="#b37023"/>
  <path d="M314.485,437.64c-6.392.761-10.653-5.022-13.696-9.74,7-5.326,15.218,1.674,13.696,9.74Z" fill="#6a2f22"/>
  <path d="M382.662,421.813c12.327-3.348,8.522,22.219-4.109,4.87-.304-1.37,2.891-4.413,4.109-4.87Z" fill="#6a2f22"/>
  <path d="M351.313,419.683c2.131-2.283,11.87-4.87,12.327.304,0,2.587-12.175,10.501-13.696,5.479-.457-1.522.152-4.565,1.37-5.783h0Z" fill="#221719"/>
  <path d="M327.116,408.117c4.413-1.674,13.544,5.935,10.348,9.74-4.565,5.326-13.696-4.261-10.348-9.74Z" fill="#6a2f22"/>
  <path d="M296.223,397.616c-5.935,2.131-8.674,9.587-15.979,8.066-.304-4.413,2.587-7.305,6.392-8.979,2.739-1.217,10.044-3.957,9.587,1.065v-.152Z" fill="#b37023"/>
  <path d="M311.898,399.138c9.283-.913,3.652,15.979-3.044,9.435-3.652-3.5-1.37-9.131,3.044-9.435Z" fill="#6a2f22"/>
  <path d="M276.44,420.596c7.761-2.587,11.109,9.892,2.131,8.979-6.696-.609-6.239-7.609-2.131-8.979Z" fill="#6a2f22"/>
  <path d="M522.213,296.111c-2.131.152-4.109,10.653-14.762,6.087-1.826-.761-3.957-2.739-5.783-3.805v-1.217l-1.217-1.217c-2.435-5.783-1.674-11.566,3.5-15.37,10.501-7.761,22.219,4.109,18.262,15.37v.152Z" fill="#e6623d"/>
  <path d="M501.668,297.177c-.304-.304-.913-.761-1.217-1.217l1.217,1.217Z" fill="#18172a"/>
  <path d="M488.124,360.18c15.37-2.283,7.761,14.609-1.217,4.718l1.217-4.718Z" fill="#6a2f22"/>
  <path d="M510.951,369.006c-4.413-9.587,11.109-10.957,8.827-2.891-.913,3.5-5.783,3.5-8.827,2.891Z" fill="#6a2f22"/>
  <path d="M471.841,369.006c-6.696,4.261-12.327-7.457-3.805-7.913,6.848-.304,5.783,6.696,3.805,7.913Z" fill="#6a2f22"/>
  <path d="M445.818,363.376l1.522-5.783c7.305-5.935,10.196,10.196-1.522,5.783Z" fill="#b37023"/>
</svg>