<?xml version="1.0" encoding="UTF-8"?>
<svg id="Layer_1" xmlns="http://www.w3.org/2000/svg" version="1.1" viewBox="0 0 128 128">
  <!-- Generator: Adobe Illustrator 29.5.1, SVG Export Plug-In . SVG Version: 2.1.0 Build 141)  -->
  <g>
    <g>
      <g opacity="0">
        <path d="M119.04,72.935c2.006.686,1.442,7.642-1.257,15.534-2.699,7.892-6.513,13.738-8.519,13.052-2.004-.686-1.44-7.642,1.26-15.534,2.699-7.892,6.512-13.738,8.517-13.052Z"/>
      </g>
      <path d="M109.673,106.362c-.646,0-1.296-.111-1.95-.336-3.323-1.135-4.783-4.485-4.34-9.954.269-3.317,1.205-7.446,2.635-11.626,1.43-4.18,3.218-8.017,5.036-10.804,2.997-4.594,6.202-6.35,9.526-5.213h0c3.323,1.136,4.785,4.486,4.341,9.956-.269,3.317-1.204,7.446-2.634,11.627-1.429,4.181-3.218,8.018-5.036,10.804-2.409,3.69-4.95,5.547-7.579,5.547Z" fill="#634c10"/>
    </g>
    <g>
      <g opacity="0">
        <path d="M119.04,72.935c2.006.686,1.442,7.642-1.257,15.534-2.699,7.892-6.513,13.738-8.519,13.052-2.004-.686-1.44-7.642,1.26-15.534,2.699-7.892,6.512-13.738,8.517-13.052Z"/>
      </g>
      <path d="M109.641,104.596c-.436,0-.886-.071-1.351-.23-3.716-1.27-3.296-6.45-3.159-8.152.258-3.176,1.162-7.154,2.547-11.2,1.383-4.047,3.105-7.745,4.846-10.412.933-1.431,3.771-5.79,7.49-4.512,3.717,1.271,3.298,6.451,3.16,8.154-.258,3.176-1.161,7.154-2.545,11.2-1.383,4.047-3.104,7.746-4.846,10.414-.816,1.252-3.094,4.74-6.141,4.74ZM117.089,78.643c-1.128,1.893-2.476,4.679-3.72,8.316-1.243,3.637-1.884,6.666-2.152,8.853,1.128-1.892,2.476-4.68,3.72-8.316,1.243-3.637,1.885-6.666,2.152-8.853ZM118.068,75.78h.014-.014Z" fill="#c2972e"/>
    </g>
  </g>
  <g>
    <g opacity="0">
      <path d="M119.105,74.448c.415,2.731-.422,7.902-2.354,13.554-.26.761-.533,1.505-.812,2.225"/>
    </g>
    <path d="M115.938,91.857c-.194,0-.392-.035-.585-.109-.839-.323-1.258-1.266-.933-2.107.271-.701.536-1.426.79-2.167,1.777-5.196,2.674-10.213,2.285-12.782-.134-.89.478-1.72,1.367-1.855.893-.139,1.72.477,1.854,1.367.468,3.094-.46,8.583-2.424,14.325-.268.782-.548,1.545-.833,2.285-.249.646-.866,1.043-1.521,1.043Z" fill="#f6d537"/>
  </g>
  <g>
    <g opacity="0">
      <path d="M112.556,97.232c-.663,1.071-1.315,1.953-1.924,2.606"/>
    </g>
    <path d="M110.631,101.467c-.398,0-.798-.146-1.112-.44-.658-.614-.692-1.645-.078-2.302.532-.569,1.13-1.381,1.728-2.35.474-.765,1.48-1.001,2.243-.529.765.473,1.001,1.477.528,2.243-.72,1.165-1.433,2.127-2.119,2.861-.321.343-.755.517-1.191.517Z" fill="#f6d537"/>
  </g>
  <g>
    <g>
      <g opacity="0">
        <path d="M51.709,95.832c-1.542,18.167,24.293,26.237,24.265-2.94"/>
      </g>
      <path d="M64.267,117.185c-2.992,0-6.038-.918-8.809-2.732-6.054-3.964-9.404-11.261-8.744-19.046.235-2.758,2.669-4.812,5.419-4.57,2.759.234,4.805,2.659,4.572,5.418-.417,4.91,1.92,8.287,4.246,9.81.873.572,3.145,1.777,5.348.583,2.927-1.584,4.671-6.725,4.663-13.752-.002-2.768,2.239-5.014,5.008-5.018h.005c2.766,0,5.01,2.241,5.013,5.008.014,14.968-6.208,20.571-9.918,22.579-2.124,1.15-4.446,1.72-6.802,1.72Z" fill="#634c10"/>
    </g>
    <g>
      <g opacity="0">
        <path d="M51.709,95.832c-1.542,18.167,24.293,26.237,24.265-2.94"/>
      </g>
      <path d="M64.269,115.176c-2.611,0-5.279-.807-7.713-2.4-5.437-3.56-8.442-10.15-7.844-17.198.141-1.655,1.596-2.88,3.251-2.743,1.655.141,2.882,1.596,2.743,3.252-.492,5.789,2.335,9.817,5.145,11.656,2.486,1.628,5.184,1.87,7.401.668,3.64-1.969,5.722-7.625,5.715-15.517-.002-1.661,1.343-3.009,3.005-3.01h.003c1.66,0,3.007,1.345,3.007,3.005.013,13.927-5.549,19.019-8.867,20.813-1.821.986-3.816,1.474-5.846,1.474Z" fill="#ad8821"/>
    </g>
  </g>
  <g>
    <g opacity="0">
      <path d="M51.974,96.987c-1.432,16.368,20.028,24.54,24.271,4.657"/>
    </g>
    <path d="M65.033,115.08c-.623,0-1.27-.048-1.939-.148-7.007-1.05-13.734-8.107-12.86-18.097.084-.961.94-1.672,1.892-1.587.961.084,1.672.93,1.587,1.891-.694,7.943,4.487,13.527,9.899,14.339,5.303.798,9.392-3.017,10.926-10.199.2-.942,1.132-1.546,2.072-1.343.943.201,1.545,1.129,1.343,2.072-1.333,6.248-5.487,13.071-12.919,13.071Z" fill="#8c6816"/>
  </g>
  <g>
    <g opacity="0">
      <path d="M53.277,95.855c-.46,5.415,1.513,9.933,4.508,12.834"/>
    </g>
    <path d="M57.785,110.194c-.377,0-.753-.141-1.046-.424-3.613-3.5-5.421-8.618-4.961-14.042.07-.828.804-1.439,1.626-1.371.828.07,1.441.798,1.371,1.626-.384,4.521,1.094,8.758,4.056,11.628.597.577.611,1.529.033,2.126-.295.304-.687.457-1.08.457Z" fill="#e6bf40"/>
  </g>
  <g>
    <g opacity="0">
      <path d="M72.254,109.241c2.652-3.001,4.476-8.127,4.469-15.892"/>
    </g>
    <path d="M72.252,110.494c-.295,0-.591-.103-.829-.315-.519-.458-.568-1.25-.109-1.768,2.725-3.083,4.161-8.29,4.155-15.062,0-.692.587-1.302,1.253-1.254.691,0,1.253.56,1.254,1.252.006,7.393-1.647,13.176-4.784,16.724-.248.28-.593.423-.94.423Z" fill="#d8bc16"/>
  </g>
  <g>
    <g opacity="0">
      <path d="M63.249,109.872c2.667.504,5.447-.31,7.526-2.859"/>
    </g>
    <path d="M64.735,110.916c-.544,0-1.098-.052-1.653-.157-.49-.093-.812-.565-.719-1.055.093-.49.569-.808,1.054-.719,2.562.485,4.927-.417,6.66-2.543.315-.385.883-.443,1.27-.129.386.315.443.883.129,1.27-1.766,2.165-4.16,3.331-6.739,3.331Z" fill="#a76a0d"/>
  </g>
  <path d="M38.289,16.156c-8.631-2.952-20.361,24.661-24.091,35.564-3.767,11.008-10.819,40.477-1.942,43.513,0-.035,93.845,1.299,93.867,1.302-1.838-.633-.381-7.987.84-11.573,1.098-3.222,4.891-10.059,6.941-9.362-.017.017-75.644-59.412-75.615-59.445Z" fill="#977c13"/>
  <g>
    <path d="M37.858,16.427c.098.339,75.6,59.012,75.6,59.012l-2.579,1.848L24.648,31.575s4.184-7.645,13.21-15.148Z" fill="#a28615"/>
    <path d="M21.273,37.92l88.389,41.412,1.548-2.334L25.073,30.602l-3.8,7.318Z" fill="#8c6909"/>
    <path d="M21.633,36.869l88.163,42.221-1.455,3.069L17.218,48.485l4.414-11.616Z" fill="#7e6114"/>
    <path d="M15.306,53.766l92.28,30.135.848-1.939L17.458,47.785l-2.152,5.981Z" fill="#988538"/>
    <path d="M11.383,71.652l94.528,16.694,1.947-4.852L15.611,53.19l-4.227,18.463Z" fill="#87732e"/>
    <path d="M10.565,83.669l95.051,8.094.54-3.891L12.236,69.475l-1.671,14.194Z" fill="#b08d2f"/>
    <path d="M11.66,94.105l93.824,2.401.316-5.64-95.353-8.14,1.213,11.379Z" fill="#ab751a"/>
  </g>
  <path d="M38.18,16.192c5.755,1.898-.147,35.673-2.502,42.574-2.846,8.334-18.861,38.241-24.311,36.299.022-.028,96.368,2.559,96.344,2.545,1.43.467,4.307-3.465,6.528-9.94,2.01-5.859,2.45-11.097,1.128-11.933.004.03-77.183-59.501-77.186-59.545Z" fill="#977c13"/>
  <g>
    <g opacity="0">
      <path d="M9.73,68.782c-2.317,11.803-3.142,24.514,2.525,26.452,0-.035,93.845,1.299,93.867,1.302-1.838-.633-.381-7.987.84-11.573,1.098-3.222,4.891-10.059,6.941-9.362-.017.017-75.644-59.412-75.615-59.445h0c-8.631-2.952-20.361,24.661-24.091,35.564-1.363,3.981-3.154,10.375-4.467,17.062"/>
    </g>
    <path d="M106.12,97.754c-.008,0-.016,0-.023,0-.783-.014-91.45-1.302-93.782-1.302-.023,0-.04.001-.06,0-.132,0-.265-.022-.394-.066-6.809-2.328-5.567-16.424-3.326-27.838,1.373-6.993,3.229-13.481,4.509-17.222.138-.404,13.945-40.326,25.639-36.323.155.053.293.135.411.238,1.34,1.093,73.952,58.177,75.524,59.373.234.17.404.421.471.71.095.41-.028.84-.325,1.138-.394.394-.587.587-1.237.242l-.017.05c-1.059.173-4.191,5.069-5.395,8.602-1.39,4.08-1.991,9.119-1.46,10.084.483.236.76.767.665,1.307-.104.583-.611,1.006-1.201,1.006ZM106.519,95.384h.001-.001ZM15.095,94.101c4.821,0,16.307.161,44.117.552,30.378.427,41.12.58,44.938.638-.624-3.814,1.628-10.631,1.659-10.72.031-.09,2.638-6.819,5.674-9.317-.443-.344-.962-.75-1.57-1.228l-34.434-27.05c-23.171-18.212-35.854-28.193-37.767-29.723-6.51-1.748-17.159,19.655-22.362,34.862-1.254,3.665-3.074,10.029-4.423,16.902h0c-2.819,14.361-2.175,23.732,1.724,25.064l-.017.047c.523-.017,1.298-.027,2.462-.027ZM9.73,68.782h.015-.015Z" fill="#56370d"/>
  </g>
  <g>
    <path d="M108.922,96.984l-88.422-4.969,5.714-10.891,84.466,14.105-1.758,1.755Z" fill="#977c13"/>
    <path d="M37.442,51.347l77.227,34.201-1.225,3.785-80.077-26.324,4.075-11.663Z" fill="#967732"/>
    <path d="M110.258,95.818l-84.97-13.752,3.23-5.766,83.032,17.958-1.291,1.56Z" fill="#755b13"/>
    <path d="M115.434,81.61l.116-5.555L41.557,19.35l-1.12,15.305,74.997,46.955Z" fill="#b7973f"/>
    <path d="M115.624,78.441L41.622,26.01l.177-6.472,73.341,56.365.483,2.538Z" fill="#846810"/>
    <path d="M109.777,96.444l-88.546-5.3-3.527,3.093,90.621,3.5,1.452-1.293Z" fill="#6d5422"/>
    <path d="M111.551,94.258l-83.034-17.958,5.578-14.661,79.696,26.494-2.241,6.125Z" fill="#564315"/>
    <path d="M114.741,85.09L37.442,51.347l3.978-20.276,74.179,49.149-.858,4.87Z" fill="#f9bc43"/>
    <path d="M115.404,81.735L40.71,34.272l-3.058,16.981,77.018,34.296.734-3.814Z" fill="#ffff8e"/>
  </g>
  <g>
    <g opacity="0">
      <path d="M27.193,76.177c-5.7,10.068-12.606,20.034-15.826,18.887.022-.028,96.368,2.559,96.344,2.545,1.43.467,4.307-3.465,6.528-9.94,2.01-5.859,2.45-11.097,1.128-11.933.004.03-77.183-59.501-77.186-59.545h0c5.755,1.898-.147,35.673-2.502,42.574-1.165,3.411-4.535,10.436-8.485,17.411"/>
    </g>
    <path d="M107.946,98.867c-.174,0-.349-.023-.522-.07-.552.013-1.338-.009-2.477-.038l-31.532-.838c-24.78-.66-55.06-1.468-61.011-1.615-.52.096-1.002.065-1.446-.094-.371-.131-.655-.434-.763-.812-.108-.378-.027-.785.218-1.093.142-.179.232-.292,1.343-.335l.019-.054c1.328.473,6.249-4.021,14.357-18.34h0c3.735-6.597,7.186-13.673,8.392-17.205,2.247-6.587,6.979-34.099,3.898-40.292-.09-.18-.183-.331-.277-.449-.119-.099-.226-.19-.322-.273-.008-.003-.017-.007-.026-.01l.003-.009c-.814-.706-.823-.842-.838-1.069-.026-.403.15-.794.471-1.041.318-.249.74-.321,1.126-.194.564.185,1.057.54,1.473,1.057,9.23,7.149,74.262,57.315,76.03,58.646,2.498,1.683.759,9.155-.673,13.327-1.764,5.146-4.698,10.802-7.444,10.802ZM107.713,96.392c.082,0,.163.009.244.025.804-.3,3.113-3.263,5.129-9.143,1.988-5.796,2.07-9.899,1.558-10.567l.003-.005c-.879-.644-5.92-4.527-38.649-29.772l-26.513-20.458c-3.585-2.768-6.141-4.741-7.963-6.161,1.52,10.3-2.829,33.392-4.69,38.847-1.25,3.66-4.777,10.904-8.577,17.619h0c-4.808,8.49-8.827,14.24-12.024,17.209,3.149.06,8.076.19,15.834.395l41.416,1.102c18.072.481,33.692.898,34.233.907ZM27.193,76.177h.013-.013Z" fill="#56370d"/>
  </g>
  <g>
    <g>
      <g opacity="0">
        <path d="M38.332,15.994c5.531,1.891,3.976,21.083-3.474,42.868-7.45,21.785-17.974,37.91-23.504,36.019-5.53-1.892-3.976-21.084,3.475-42.869,7.45-21.785,17.973-37.91,23.504-36.018Z"/>
      </g>
      <path d="M12.323,100.061c-.848,0-1.712-.137-2.591-.437-7.838-2.68-6.835-15.055-6.506-19.122.689-8.499,3.125-19.193,6.858-30.111,3.734-10.918,8.356-20.864,13.017-28.005,2.229-3.417,9.007-13.815,16.852-11.134,14.046,4.804,2.17,41.855-.354,49.233-3.734,10.919-8.356,20.864-13.017,28.006-1.979,3.033-7.551,11.571-14.261,11.571ZM36.369,21.736c-3.518,3.116-10.57,13.69-16.798,31.898-6.227,18.21-7.126,30.887-6.253,35.506,3.518-3.117,10.57-13.692,16.797-31.9,6.228-18.209,7.127-30.887,6.254-35.504Z" fill="#634c10"/>
    </g>
    <g>
      <g opacity="0">
        <path d="M38.332,15.994c5.531,1.891,3.976,21.083-3.474,42.868-7.45,21.785-17.974,37.91-23.504,36.019-5.53-1.892-3.976-21.084,3.475-42.869,7.45-21.785,17.973-37.91,23.504-36.018Z"/>
      </g>
      <path d="M12.284,98.044c-.649,0-1.284-.106-1.904-.318-4.221-1.444-5.956-7.184-5.155-17.063.675-8.339,3.075-18.859,6.757-29.625,3.682-10.765,8.227-20.551,12.799-27.558,5.417-8.3,10.306-11.776,14.525-10.333,10.152,3.473,3.769,30.981-1.602,46.688-3.681,10.765-8.227,20.551-12.798,27.559-4.621,7.079-8.856,10.65-12.621,10.65ZM37.355,18.85c-2.335.021-11.433,10.017-19.682,34.136-8.311,24.303-7.159,37.795-5.302,39.069.011,0,.021,0,.032,0,2.213,0,11.337-9.982,19.608-34.167,8.249-24.12,7.177-37.591,5.343-39.039ZM37.408,18.852h.014-.014Z" fill="#d8b339"/>
    </g>
  </g>
  <g opacity=".55">
    <g>
      <g opacity="0">
        <path d="M8.658,91.262c-2.185-6.205.052-21.893,6.007-39.305,5.599-16.371,12.864-29.525,18.305-34.006"/>
      </g>
      <path d="M8.658,93.725c-1.015,0-1.966-.633-2.323-1.646-2.463-6.996-.108-23.058,5.999-40.919,5.613-16.412,13.098-30.193,19.07-35.111,1.049-.866,2.602-.714,3.466.335.865,1.049.715,2.602-.335,3.466-4.357,3.589-11.47,15.153-17.541,32.903-6.238,18.241-7.747,32.768-6.013,37.69.451,1.282-.222,2.689-1.505,3.141-.271.095-.546.141-.818.141Z" fill="#8b6413"/>
    </g>
  </g>
  <g>
    <g opacity="0">
      <path d="M12.202,57.315c.528-1.731,1.094-3.486,1.7-5.259,2.521-7.372,5.395-14.098,8.306-19.699"/>
    </g>
    <path d="M12.203,59.324c-.194,0-.392-.028-.587-.088-1.062-.324-1.66-1.446-1.337-2.508.534-1.752,1.108-3.528,1.72-5.322,2.466-7.208,5.379-14.115,8.425-19.976.512-.985,1.727-1.368,2.709-.856.984.512,1.368,1.724.856,2.709-2.955,5.687-5.786,12.402-8.188,19.424-.599,1.751-1.157,3.485-1.679,5.195-.265.866-1.061,1.423-1.921,1.423Z" fill="#f7c627"/>
  </g>
  <g>
    <g opacity="0">
      <path d="M9.689,91.614c-2.185-6.205.052-21.893,6.007-39.305,5.598-16.371,12.864-29.525,18.305-34.007"/>
    </g>
    <path d="M9.689,94.077c-1.015,0-1.966-.633-2.323-1.645-2.464-6.997-.108-23.059,6-40.92,5.612-16.411,13.098-30.193,19.069-35.111,1.049-.867,2.601-.714,3.466.335.865,1.05.715,2.602-.335,3.467-4.357,3.588-11.47,15.153-17.54,32.902-6.239,18.241-7.748,32.768-6.015,37.691.452,1.282-.222,2.689-1.505,3.141-.271.095-.546.141-.818.141Z" fill="#8b6413"/>
  </g>
  <g>
    <g opacity="0">
      <path d="M13.085,60.652c.768-2.711,1.64-5.505,2.611-8.343.974-2.85,2.002-5.603,3.059-8.229"/>
    </g>
    <path d="M13.086,63.116c-.222,0-.449-.031-.672-.094-1.309-.37-2.069-1.732-1.699-3.04.785-2.774,1.677-5.624,2.651-8.47.964-2.818,2.008-5.628,3.104-8.352.508-1.263,1.945-1.872,3.204-1.365,1.262.508,1.873,1.943,1.365,3.204-1.064,2.643-2.078,5.371-3.013,8.106-.945,2.764-1.81,5.529-2.572,8.219-.307,1.084-1.294,1.793-2.368,1.793Z" fill="#c58605"/>
  </g>
  <g>
    <g opacity="0">
      <path d="M9.457,90.861c-1.629-6.098.157-19.333,4.874-34.389"/>
    </g>
    <path d="M9.456,93.325c-1.088,0-2.083-.727-2.378-1.829-1.788-6.694.09-20.397,4.904-35.76.406-1.298,1.784-2.023,3.086-1.614,1.298.406,2.02,1.789,1.614,3.086-5.095,16.264-6.104,28.301-4.846,33.017.351,1.314-.429,2.663-1.743,3.014-.213.057-.427.085-.637.085Z" fill="#724810"/>
  </g>
  <g>
    <g opacity="0">
      <path d="M43.146,28.397c-.298,6.131-1.74,14.104-4.238,22.85"/>
    </g>
    <path d="M38.909,52.751c-.136,0-.275-.018-.413-.058-.799-.228-1.261-1.061-1.033-1.859,2.399-8.403,3.884-16.397,4.181-22.509.04-.829.771-1.478,1.575-1.429.83.04,1.469.745,1.429,1.575-.308,6.335-1.832,14.571-4.294,23.189-.189.66-.791,1.091-1.446,1.091Z" fill="#ffff8e"/>
  </g>
  <g>
    <g opacity="0">
      <path d="M41.271,20.941c1.338,7.395-.956,21.964-6.413,37.921-.661,1.933-1.347,3.823-2.052,5.658"/>
    </g>
    <path d="M32.806,66.025c-.179,0-.362-.032-.539-.1-.775-.298-1.163-1.167-.865-1.943.703-1.83,1.386-3.716,2.032-5.606,5.198-15.197,7.693-29.786,6.357-37.167-.148-.817.395-1.6,1.212-1.748.825-.149,1.6.394,1.748,1.212,1.442,7.971-1.037,22.79-6.47,38.676-.658,1.925-1.355,3.846-2.071,5.711-.23.597-.8.965-1.404.965Z" fill="#a38931"/>
  </g>
</svg>