<?xml version="1.0" encoding="UTF-8"?>
<svg id="Layer_1" xmlns="http://www.w3.org/2000/svg" xmlns:xlink="http://www.w3.org/1999/xlink" version="1.1" viewBox="0 0 128 128">
  <!-- Generator: Adobe Illustrator 29.5.1, SVG Export Plug-In . SVG Version: 2.1.0 Build 141)  -->
  <defs>
    <linearGradient id="_É_πÌÚ_·ÂÁ_Ì_Á_Ë_4774" data-name="É‡‰¥πÌÚ ·ÂÁ Ì‡Á‚Ë 4774" x1="-267.46" y1="451.575" x2="-267.129" y2="349.671" gradientTransform="translate(336.355 479.645) scale(1.033 -1.033)" gradientUnits="userSpaceOnUse">
      <stop offset="0" stop-color="#fdcf18"/>
      <stop offset=".47" stop-color="#f5ab0c"/>
      <stop offset=".93" stop-color="#ed8700"/>
    </linearGradient>
    <radialGradient id="_É_πÌÚ_·ÂÁ_Ì_Á_Ë_4773" data-name="É‡‰¥πÌÚ ·ÂÁ Ì‡Á‚Ë 4773" cx="-268.687" cy="447.287" fx="-268.687" fy="447.287" r="94.822" gradientTransform="translate(336.355 479.645) scale(1.033 -1.033)" gradientUnits="userSpaceOnUse">
      <stop offset=".07" stop-color="#fefee2"/>
      <stop offset=".28" stop-color="#fdee8c"/>
      <stop offset=".49" stop-color="#fcde36"/>
      <stop offset=".82" stop-color="#f5b820"/>
      <stop offset="1" stop-color="#ee910a"/>
    </radialGradient>
    <linearGradient id="_É_πÌÚ_·ÂÁ_Ì_Á_Ë_47741" data-name="É‡‰¥πÌÚ ·ÂÁ Ì‡Á‚Ë 4774" x1="-234.993" y1="445.771" x2="-234.662" y2="343.866" gradientTransform="translate(337.49 471.076) scale(1.033 -1.033)" xlink:href="#_É_πÌÚ_·ÂÁ_Ì_Á_Ë_4774"/>
    <linearGradient id="_É_πÌÚ_·ÂÁ_Ì_Á_Ë_4787" data-name="É‡‰¥πÌÚ ·ÂÁ Ì‡Á‚Ë 4787" x1="-307.256" y1="363.862" x2="-279.466" y2="407.503" gradientTransform="translate(336.355 479.645) scale(1.033 -1.033)" gradientUnits="userSpaceOnUse">
      <stop offset="0" stop-color="#e8e8e8"/>
      <stop offset=".5" stop-color="#bab8b7"/>
      <stop offset="1" stop-color="#8c8785"/>
    </linearGradient>
    <linearGradient id="_É_πÌÚ_·ÂÁ_Ì_Á_Ë_47871" data-name="É‡‰¥πÌÚ ·ÂÁ Ì‡Á‚Ë 4787" x1="-240.87" y1="385.093" x2="-236.998" y2="385.093" xlink:href="#_É_πÌÚ_·ÂÁ_Ì_Á_Ë_4787"/>
    <linearGradient id="_É_πÌÚ_·ÂÁ_Ì_Á_Ë_47872" data-name="É‡‰¥πÌÚ ·ÂÁ Ì‡Á‚Ë 4787" x1="-281.651" y1="385.397" x2="-281.671" y2="384.12" xlink:href="#_É_πÌÚ_·ÂÁ_Ì_Á_Ë_4787"/>
    <linearGradient id="_É_πÌÚ_·ÂÁ_Ì_Á_Ë_47873" data-name="É‡‰¥πÌÚ ·ÂÁ Ì‡Á‚Ë 4787" x1="-252.141" y1="385.437" x2="-252.014" y2="384.025" gradientTransform="translate(336.43 479.686) scale(1.033 -1.033)" xlink:href="#_É_πÌÚ_·ÂÁ_Ì_Á_Ë_4787"/>
    <linearGradient id="_É_πÌÚ_·ÂÁ_Ì_Á_Ë_47874" data-name="É‡‰¥πÌÚ ·ÂÁ Ì‡Á‚Ë 4787" x1="-266.69" y1="385.109" x2="-266.69" y2="383.717" xlink:href="#_É_πÌÚ_·ÂÁ_Ì_Á_Ë_4787"/>
    <linearGradient id="_É_πÌÚ_·ÂÁ_Ì_Á_Ë_4786" data-name="É‡‰¥πÌÚ ·ÂÁ Ì‡Á‚Ë 4786" x1="-2310.709" y1="-479.758" x2="-2286.783" y2="-480.01" gradientTransform="translate(1439.081 -1936.325) rotate(-45) scale(1.033 -1.033)" gradientUnits="userSpaceOnUse">
      <stop offset="0" stop-color="#777472"/>
      <stop offset=".5" stop-color="#9a9391"/>
      <stop offset="1" stop-color="#bcb3af"/>
    </linearGradient>
    <linearGradient id="_É_πÌÚ_·ÂÁ_Ì_Á_Ë_4785" data-name="É‡‰¥πÌÚ ·ÂÁ Ì‡Á‚Ë 4785" x1="-2302.888" y1="-453.026" x2="-2302.888" y2="-444.714" gradientTransform="translate(1439.081 -1936.325) rotate(-45) scale(1.033 -1.033)" gradientUnits="userSpaceOnUse">
      <stop offset="0" stop-color="#8c8785"/>
      <stop offset=".5" stop-color="#a49d9a"/>
      <stop offset="1" stop-color="#bcb3af"/>
    </linearGradient>
  </defs>
  <g>
    <g>
      <path d="M116.282,64c0,30.954-25.093,56.048-56.047,56.048S4.187,94.954,4.187,64,29.28,7.953,60.235,7.953s56.047,25.093,56.047,56.047Z" fill="url(#_É_πÌÚ_·ÂÁ_Ì_Á_Ë_4774)"/>
      <g>
        <g opacity="0">
          <circle cx="60.235" cy="64" r="56.048" transform="translate(-27.612 61.337) rotate(-45)"/>
        </g>
        <path d="M60.235,121.234c-31.559,0-57.235-25.675-57.235-57.233S28.675,6.766,60.235,6.766s57.234,25.675,57.234,57.234-25.675,57.233-57.234,57.233ZM60.235,9.139c-30.251,0-54.861,24.611-54.861,54.861s24.61,54.861,54.861,54.861,54.86-24.611,54.86-54.861S90.485,9.139,60.235,9.139Z" fill="#e76900"/>
      </g>
    </g>
    <path d="M110.208,64.212c-.432,28.199-23.149,50.716-50.74,50.293-27.59-.423-49.607-23.626-49.174-51.825.432-28.199,23.149-50.716,50.74-50.293,27.59.422,49.607,23.625,49.174,51.825Z" fill="url(#_É_πÌÚ_·ÂÁ_Ì_Á_Ë_4773)"/>
  </g>
  <path d="M38.107,91.737l-.512-4.829c-.002-.066-.727-5.042-2.375-4.964l-5.917,11.177c-.132.98.604,1.865,1.592,1.916,0,0,4.447-.082,5.417-.143.97-.06,1.796-1.373,1.795-3.157Z" fill="#e9a01a"/>
  <path d="M83.853,91.36l.512-4.655c.003-.064.727-4.861,2.375-4.785l5.917,10.774c.132.945-.604,1.798-1.592,1.847,0,0-4.447-.079-5.416-.138-.97-.058-1.796-1.323-1.796-3.043Z" fill="#e9a01a"/>
  <path d="M85.462,86.5c-4.574,3.245,5.07,18.905,5.07,18.905,0,0,2.368-1.636,5.177-3.956,3.815-3.153,8.444-7.571,9.057-10.869.362-1.95.775-3.567.927-4.844.294-2.473-.393-3.67-4.328-3.526-5.966.217-6.97,2.915-6.97,2.915,0,0,7.809,1.98,3.97,7.394-4.681,6.601-11.37-7.105-12.902-6.019Z" fill="url(#_É_πÌÚ_·ÂÁ_Ì_Á_Ë_47741)"/>
  <path d="M44.836,76.057c-.115,1.681-.677,6.532-.677,6.532-.007.065-.376,2.711-.376,2.711-.019.592-.525,1.055-1.131,1.035l-2.851-.093c-.44-.014-4.896-8.772-4.149-12.386.28-1.359,6.2-.765,6.2-.765,1.712.151,3.099,1.286,2.984,2.966Z" fill="#e9a01a"/>
  <path d="M76.763,76.453l.467,6.072c.007.066.459,2.74.459,2.74.015.592.517,1.06,1.122,1.045l2.851-.067c.482-.011,4.688-9.454,4.039-12.697-.167-.831-5.923-.36-5.923-.36-1.713.136-3.184,1.377-3.016,3.268Z" fill="#e9a01a"/>
  <path d="M51.762,93.848l-.423-7.437c-.004-.075.126-3.094.126-3.094-.35-1.451-1.652-1.825-2.411-1.845l-6.425,12.132c-.118,1.099.689,2.069,1.745,2.097l5.541.149c1.057.028,1.91-.897,1.847-2.002Z" fill="#e9a01a"/>
  <path d="M69.978,93.946l.292-7.444c.003-.075-.18-3.091-.18-3.091-.028-.667.96-1.999,2.662-2.147l6.377,12.263c.137,1.097-.654,2.082-1.713,2.13l-5.551.255c-1.059.049-1.93-.86-1.887-1.966Z" fill="#e9a01a"/>
  <path d="M53.435,85.935l3.272.095c.693.02,1.268-.461,1.286-1.074l.048-1.639c.276-.143.384-.369.473-.728.23-.93,1.055-6.041,1.112-7.02.082-1.433-1.387-2.451-3.106-2.495-.386-.01-6.528-.305-6.99.956-1.297,3.535,3.396,11.891,3.906,11.906Z" fill="#e9a01a"/>
  <path d="M66.185,85.937c-.693.013-2.407-.199-2.419-.812l-.031-1.64c-.274-.147-.525-.375-.61-.736-.22-.932-.945-6.535-.977-7.167-.097-1.933,1.328-2.497,3.047-2.543,1.273-.034,6.484-.06,6.925.8,1.678,3.269-5.935,12.099-5.935,12.099Z" fill="#e9a01a"/>
  <path d="M56.166,93.16c-.089.318-.508,2.925,1.668,2.908,1.584-.013,5.858.003,6.327.003.904,0,1.753-1.14,1.419-2.875-.423-2.2-9.414-.036-9.414-.036Z" fill="#e9a01a"/>
  <g>
    <g>
      <path d="M49.059,50.617c0,5.216-3.12,9.443-6.969,9.443s-6.969-4.227-6.969-9.443,3.12-9.444,6.969-9.444,6.969,4.228,6.969,9.444Z" fill="#eaac1f"/>
      <path d="M49.059,54.011c0,5.216-3.12,9.444-6.969,9.444s-6.969-4.228-6.969-9.444,3.12-9.443,6.969-9.443,6.969,4.228,6.969,9.443Z" fill="#ffde9c"/>
      <path d="M48.624,52.194c0,5.216-2.925,9.443-6.534,9.443s-6.534-4.227-6.534-9.443,2.925-9.443,6.534-9.443,6.534,4.227,6.534,9.443Z" fill="#974800"/>
      <path d="M48.567,53.418c-.41-4.641-3.154-8.223-6.476-8.223s-6.066,3.582-6.477,8.223c-.493-6.379,2.869-10.666,6.477-10.666s6.829,4.288,6.476,10.666Z" fill="#632900"/>
    </g>
    <g>
      <path d="M85.381,50.617c0,5.216-3.12,9.443-6.969,9.443s-6.97-4.227-6.97-9.443,3.121-9.444,6.97-9.444,6.969,4.228,6.969,9.444Z" fill="#eaac1f"/>
      <path d="M85.381,54.011c0,5.216-3.12,9.444-6.969,9.444s-6.97-4.228-6.97-9.444,3.121-9.443,6.97-9.443,6.969,4.228,6.969,9.443Z" fill="#ffde9c"/>
      <path d="M84.945,52.194c0,5.216-2.925,9.443-6.534,9.443s-6.534-4.227-6.534-9.443,2.925-9.443,6.534-9.443,6.534,4.227,6.534,9.443Z" fill="#974800"/>
      <path d="M84.888,53.418c-.41-4.641-3.154-8.223-6.477-8.223s-6.066,3.582-6.476,8.223c-.494-6.379,2.869-10.666,6.476-10.666s6.859,4.193,6.477,10.666Z" fill="#632900"/>
    </g>
  </g>
  <g>
    <path d="M93.92,86.234c-.724.045-6.986.278-13.943.509-7.681.256-16.211.511-19.081.512-5.302.001-27.732-.663-33.641-1.021-1.281,0-2.329-1.038-2.329-2.305h0c0-1.268,1.048-2.306,2.329-2.306,3.541.131,7.078.242,10.61.333,18.825.485,37.515.398,56.055-.333,1.281,0,2.329,1.038,2.329,2.306h0c0,1.268-1.048,2.305-2.329,2.305Z" fill="#fedd78"/>
    <g opacity=".7">
      <path d="M93.92,84.966H27.255c-1.281,0-2.329-2.473-2.329-2.473,0-1.36,1.048-2.473,2.329-2.473,3.528.14,36.31.673,41.457.623,4.775-.046,21.581-.479,25.208-.623,1.281,0,2.329,1.112,2.329,2.473,0,0-1.048,2.473-2.329,2.473Z" fill="#eaac1f"/>
    </g>
    <path d="M92.044,85.152c-.492.022-6.295.177-12.854.335-7.303.176-15.543.356-18.435.358-5.228.003-26.311-.455-31.625-.693-2.043,0-3.564-.623-3.564-1.679,0,0,0-1.943,3.564-2.162,8.153.425,16.268.684,24.346.781,5.047.06,10.08.057,15.098-.009,4.776-.063,9.54-.183,14.29-.36,3.066-.114,6.125-.251,9.18-.412,2.983-.161,3.569,2.266,3.569,2.266,0,1.019-1.526,1.574-3.569,1.574Z" fill="#974800"/>
    <path d="M95.561,83.847c-.2-1.427-22.004-.695-26.667-.643-5.031.057-36.714-.532-39.762-.664-1.023,0-3.233-.219-3.516,1.307-.689-2.849,9.577-2.243,12.606-2.13,5.031.188,25.241.432,30.314.364,4.801-.063,20.474-.613,23.509-.772,2.042,0,4.096,0,3.516,2.537Z" fill="#632900"/>
  </g>
  <g>
    <path d="M36.932,90.594l-.162-5.724c0-.066-.011-2.288-.011-2.288-.085-.736-.528-1.334-2.161-1.659l-.509,12.152c2.331.036,2.859-1.501,2.843-2.481Z" fill="#665f5f"/>
    <path d="M35.264,91.377l-.112-6.6c-.001-.065.194-2.738.194-2.738.034-.591-.431-1.098-1.038-1.132l-2.857-.163c-.607-.034-1.126.416-1.159,1.007l-.069,1.225c-.699.026-1.3.626-1.407,1.442l-.861,6.543c-.128.972.489,1.849,1.334,1.897l4.433.252c.845.048,1.557-.753,1.541-1.733Z" fill="#8c8785"/>
    <path d="M30.198,83.304s-.976.019-1.171.836c-.196.818-.796,6.933-.796,6.933,0,0,.025.907,1.113.933,1.088.026,3.535.209,3.856.227.322.019.988-.207,1.04-1.147.052-.941-.108-6.571-.108-6.571,0,0-.063-.89-.881-1.032-.486-.085-3.054-.179-3.054-.179Z" fill="#bcb3af"/>
    <path d="M30.586,82.598s.002-1.36.791-1.362c.789-.003,2.399.089,2.658.151.26.061.681.57.518,1.457-1.163-.019-3.968-.247-3.968-.247Z" fill="url(#_É_πÌÚ_·ÂÁ_Ì_Á_Ë_4787)"/>
    <path d="M29.287,84.163s-.028-.843.759-.826c.788.017,2.398.112,2.658.156.26.044.693.369.551.915-1.162-.039-3.968-.246-3.968-.246Z" fill="#e8e8e8"/>
  </g>
  <g>
    <path d="M85.081,90.539l.202-5.723c.002-.066.027-2.287.027-2.287.091-.736.537-1.331,2.174-1.644l.421,12.155c-2.332.019-2.848-1.522-2.824-2.502Z" fill="#665f5f"/>
    <path d="M86.742,91.334l.159-6.598c.001-.066-.174-2.74-.174-2.74-.03-.591.438-1.095,1.045-1.124l2.858-.142c.607-.03,1.122.424,1.152,1.015l.061,1.225c.699.031,1.295.635,1.397,1.452l.813,6.549c.122.973-.502,1.845-1.347,1.887l-4.436.221c-.845.042-1.551-.764-1.527-1.744Z" fill="#8c8785"/>
    <path d="M91.864,83.298s.976.025,1.165.845c.19.82.748,6.939.748,6.939,0,0-.031.907-1.12.925-1.088.019-3.536.182-3.858.2-.321.016-.986-.215-1.031-1.155-.046-.941.153-6.571.153-6.571,0,0,.068-.89.888-1.026.487-.081,3.055-.157,3.055-.157Z" fill="#bcb3af"/>
    <path d="M91.536,82.267s.022-1.062-.766-1.06c-.788.003-2.399.083-2.659.132-.26.05-.691.449-.544,1.141,1.163-.021,3.969-.213,3.969-.213Z" fill="url(#_É_πÌÚ_·ÂÁ_Ì_Á_Ë_47871)"/>
    <path d="M92.768,84.163s.035-.843-.753-.831c-.787.011-2.398.094-2.659.136-.261.042-.696.364-.557.911,1.163-.03,3.969-.216,3.969-.216Z" fill="#e8e8e8"/>
  </g>
  <g>
    <path d="M43.522,76.243l-.67,5.687c-.007.065-.214,2.278-.214,2.278-.151.725-.642,1.282-2.294,1.459l.578-12.149c2.317.172,2.705,1.751,2.601,2.725Z" fill="#665f5f"/>
    <path d="M41.937,75.315l-.699,6.563c-.007.065-.052,2.745-.052,2.745-.019.592-.525,1.054-1.13,1.035l-2.851-.093c-.605-.02-1.079-.516-1.061-1.106l.04-1.226c-.692-.089-1.235-.739-1.269-1.561l-.27-6.594c-.041-.98.649-1.797,1.493-1.77l4.424.144c.843.027,1.479.888,1.375,1.863Z" fill="#8c8785"/>
    <path d="M36.215,83.365s-.966-.114-1.09-.995-.191-7.378-.191-7.378c0,0,.103-.953,1.185-.874,1.082.078,3.528.124,3.849.135.321.011.962.315.933,1.309-.03.995-.675,6.91-.675,6.91,0,0-.139.931-.964,1.001-.49.042-3.047-.108-3.047-.108Z" fill="#bcb3af"/>
    <path d="M40.576,75.348s.137-1.021-.951-1.093c-1.089-.07-3.321-.143-3.685-.12-.365.024-.999.369-.865,1.049,1.607.088,5.501.163,5.501.163Z" fill="#e8e8e8"/>
  </g>
  <g>
    <path d="M78.139,76.207l.621,5.692c.006.065.194,2.279.194,2.279.145.727.631,1.288,2.281,1.48l-.472-12.154c-2.319.152-2.72,1.726-2.625,2.703Z" fill="#665f5f"/>
    <path d="M79.733,75.292l.642,6.569c.007.065.027,2.746.027,2.746.013.591.516,1.06,1.122,1.045l2.851-.067c.605-.015,1.085-.506,1.071-1.098l-.029-1.226c.693-.082,1.241-.728,1.282-1.55l.328-6.592c.049-.979-.634-1.803-1.477-1.783l-4.426.105c-.843.02-1.486.876-1.391,1.851Z" fill="#8c8785"/>
    <path d="M85.391,83.394s.968-.105,1.099-.984c.13-.88.25-7.377.25-7.377,0,0-.095-.954-1.178-.886-1.083.068-3.528.091-3.849.098-.321.009-.966.305-.945,1.301.022.995.62,6.916.62,6.916,0,0,.132.933.956,1.011.49.047,3.048-.079,3.048-.079Z" fill="#bcb3af"/>
    <path d="M81.094,75.338s-.128-1.022.961-1.085c1.089-.061,3.321-.114,3.686-.088.364.027.996.377.856,1.057-1.608.073-5.502.116-5.502.116Z" fill="#e8e8e8"/>
  </g>
  <g>
    <path d="M50.018,91.573l-.37-6.214c-.004-.072-.09-2.485-.09-2.485-.135-.961-.856-1.601-2.106-1.722l-.224,13.281c2.542-.04,2.842-1.794,2.791-2.859Z" fill="#665f5f"/>
    <path d="M48.847,92.497l-.346-7.167c-.003-.071.119-2.982.119-2.982.017-.643-.507-1.178-1.169-1.196l-3.428-.089c-.662-.017-1.213.49-1.229,1.134l-.034,1.333c-.527.173-1.086.732-1.175,1.621l-.714,7.14c-.106,1.06.595,1.992,1.518,2.016l4.839.125c.923.024,1.671-.87,1.619-1.935Z" fill="#8c8785"/>
    <path d="M43.183,83.935s-1.132.052-1.329.948c-.197.896-.668,7.56-.668,7.56,0,0,.062.985,1.327.978,1.264-.007,4.112.111,4.485.121s1.139-.258,1.165-1.281c.025-1.024-.367-7.138-.367-7.138,0,0-.105-.966-1.061-1.093-.568-.076-3.551-.095-3.551-.095Z" fill="#bcb3af"/>
    <path d="M43.213,82.739s-.052-1.154.807-1.171c.86-.018,2.617.028,2.902.075.286.047.765.47.623,1.225-1.268.007-4.332-.129-4.332-.129Z" fill="url(#_É_πÌÚ_·ÂÁ_Ì_Á_Ë_47872)"/>
    <path d="M42.434,84.815s-.061-.842.81-.848,2.653.042,2.943.079c.289.036.779.349.641.899-1.286-.005-4.393-.13-4.393-.13Z" fill="#e8e8e8"/>
  </g>
  <g>
    <path d="M71.912,91.663l.227-6.222c.001-.071.031-2.487.031-2.487.114-.964.818-1.62,2.067-1.771l.531,13.272c-2.542.019-2.883-1.728-2.856-2.793Z" fill="#665f5f"/>
    <path d="M73.103,92.56l.18-7.174c.002-.071-.188-2.979-.188-2.979-.032-.642.479-1.19,1.141-1.222l3.425-.168c.662-.032,1.224.462,1.255,1.104l.065,1.332c.531.16,1.102.706,1.212,1.594l.88,7.121c.131,1.058-.549,2.006-1.471,2.051l-4.836.237c-.922.044-1.691-.831-1.664-1.897Z" fill="#8c8785"/>
    <path d="M78.574,83.867s1.133.024,1.35.916c.217.891.839,7.542.839,7.542,0,0-.04.986-1.304,1.009-1.264.022-4.108.209-4.481.227-.373.019-1.145-.231-1.194-1.253-.049-1.022.206-7.145.206-7.145,0,0,.084-.968,1.036-1.118.566-.089,3.548-.178,3.548-.178Z" fill="#bcb3af"/>
    <path d="M78.252,82.723s.025-1.154-.834-1.152c-.859.003-2.616.089-2.9.142-.284.054-.753.488-.594,1.24,1.267-.022,4.327-.23,4.327-.23Z" fill="url(#_É_πÌÚ_·ÂÁ_Ì_Á_Ë_47873)"/>
    <path d="M79.342,84.729s.043-.843-.828-.828c-.87.015-2.652.104-2.94.148-.289.044-.771.367-.621.914,1.286-.035,4.389-.234,4.389-.234Z" fill="#e8e8e8"/>
  </g>
  <g>
    <path d="M55.009,85.972c.972,0,1.979-.783,1.979-1.396v-1.27c.272-.152.517-.386.596-.749.202-.935.811-5.983.837-6.526.048-.999-.184-2.411-1.904-2.405-1.469.005-1.508,12.347-1.508,12.347Z" fill="#665f5f"/>
    <path d="M49.712,82.388s.079.51.529.839v1.634c0,.613.562,1.111,1.254,1.111h3.273c.693,0,1.254-.498,1.254-1.111v-1.64c.271-.152.517-.386.596-.749.202-.936.771-6.747.771-6.747,0,0,.262-2.104-1.458-2.099-1.469.005-5.43-.001-5.865-.001s-1.297.475-1.297,1.716c0,1.063.942,7.046.942,7.046Z" fill="#8c8785"/>
    <path d="M54.777,83.586s1.103-.078,1.273-.938c.17-.859.467-7.226.467-7.226,0,0-.085-.937-1.317-.898s-4.013-.001-4.378-.001-1.105.275-1.105,1.251.533,6.796.533,6.796c0,0,.126.918,1.062,1.016.555.058,3.466,0,3.466,0Z" fill="#bcb3af"/>
    <path d="M49.874,75.695s-.122-1.138,1.158-1.176c1.28-.039,3.901-.039,4.327,0,.427.039,1.158.445.976,1.194-1.89.039-6.461-.017-6.461-.017Z" fill="#e8e8e8"/>
  </g>
  <g>
    <path d="M66.787,85.972c-.972,0-1.98-.782-1.98-1.396v-1.27c-.271-.151-.517-.386-.595-.749-.203-.935-.812-5.983-.838-6.526-.048-.999-.04-2.41,1.904-2.405,1.469.004,1.509,12.347,1.509,12.347Z" fill="#665f5f"/>
    <path d="M72.084,82.388s-.079.51-.529.839v1.634c0,.613-.562,1.111-1.254,1.111h-3.273c-.693,0-1.254-.498-1.254-1.111v-1.64c-.272-.152-.517-.386-.596-.749-.202-.936-.834-6.747-.834-6.747,0,0-.425-2.082,1.521-2.099,1.468-.013,5.429-.001,5.864-.001s1.298.475,1.298,1.716c0,1.063-.943,7.046-.943,7.046Z" fill="#8c8785"/>
    <path d="M67.018,83.586s-1.102-.078-1.272-.938c-.171-.859-.468-7.226-.468-7.226,0,0,.085-.937,1.318-.898,1.233.039,4.013-.001,4.378-.001s1.105.275,1.105,1.251-.533,6.797-.533,6.797c0,0-.126.917-1.061,1.015-.555.058-3.466,0-3.466,0Z" fill="#bcb3af"/>
    <path d="M71.921,75.695s.122-1.138-1.157-1.176c-1.28-.039-3.901-.039-4.328,0-.426.039-1.158.445-.975,1.194,1.889.039,6.46-.017,6.46-.017Z" fill="#e8e8e8"/>
  </g>
  <g>
    <path d="M64.545,85.204s-.085-.533-.572-.876v-1.704c0-.64-.605-1.159-1.353-1.159h-3.531c-.748,0-1.354.519-1.354,1.159v1.711c-.292.158-.557.401-.642.78-.218.976-.927,7.967-.927,7.967,0,0-.188,1.267,1.668,1.261,1.584-.005,5.858.001,6.327.001s1.419-.312,1.419-1.421-1.035-7.719-1.035-7.719Z" fill="#8c8785"/>
    <path d="M59.141,84.503s-1.149.077-1.327.925c-.177.847-.487,7.13-.487,7.13,0,0,.089.925,1.373.886,1.285-.039,4.183,0,4.563,0s1.152-.271,1.152-1.235-.555-6.705-.555-6.705c0,0-.132-.905-1.106-1.001-.579-.058-3.612,0-3.612,0Z" fill="#bcb3af"/>
    <path d="M58.398,83.265s-.093-1.186.881-1.227c.974-.041,2.967-.041,3.292,0s.88.463.741,1.245c-1.437.041-4.914-.018-4.914-.018Z" fill="url(#_É_πÌÚ_·ÂÁ_Ì_Á_Ë_47874)"/>
    <path d="M57.843,85.41s-.114-.972,1.084-1.005c1.198-.034,3.652-.034,4.052,0,.4.033,1.085.379.913,1.02-1.769.034-6.049-.015-6.049-.015Z" fill="#e8e8e8"/>
  </g>
  <g>
    <g>
      <path d="M120.204,99.156l-17.291-16.478c-2.966-2.823-4.725-2.814-9.076-.284,0,0-2.247.746-4.112,3.28-2.853,3.877-2.292,7.547.254,11.039,2.364,3.243,15.885,17.104,15.885,17.104,2.611,2.652,6.172,3.443,9.286.693,0,0,9.373-11.691,5.053-15.355ZM99.443,91.319c-2.346,2.394-5.482,3.079-7.005,1.531-1.523-1.548-.855-4.744,1.491-7.137,2.346-2.394,5.483-3.079,7.005-1.531,1.523,1.548.855,4.744-1.491,7.138ZM117.155,101.757c-2.485,2.844-5.035,5.491-7.678,7.851-.865.884-1.744,1.278-2.609.394h0c-2.986-3.053-2.986-8.001,0-11.054h0c2.985-3.052,7.624-3.249,10.61-.196l.201.196c.865.884.341,1.924-.523,2.808Z" fill="#665f5f"/>
      <path d="M123.149,97.714l-16.527-15.316c-3.574-3.501-8.291-2.752-12.193-.184-4.528,2.98-6.286,9.717-3.525,12.75l17.905,17.412c2.233,2.45,14.575-6.175,14.575-6.175,2.221-2.271,2.16-6.203-.236-8.487ZM102.145,89.359c-2.346,2.394-4.955,3.253-6.762,2.048-2.116-1.409-1.742-4.791.605-7.185,2.346-2.393,6.368-3.031,7.89-1.483,1.523,1.549.613,4.226-1.734,6.62ZM120.698,100.21c-2.485,2.843-5.272,5.851-7.915,8.211-.865.884-1.809,1.319-2.674.435h0c-2.849-1.551-4.174-7.83-1.188-10.883,0,0,9.734-6.938,11.777,2.237Z" fill="#e8e8e8"/>
      <path d="M122.374,98.468c-1.98-1.98-15.846-14.529-17.623-16.031-1.777-1.502-6.105-2.065-10.568,1.144-4.463,3.209-6.039,8.35-3.278,11.383l16.797,18.612c2.233,2.45,5.934,2.599,8.155.328l7.528-7.703c2.221-2.271.819-5.904-1.011-7.734ZM101.281,91.076c-2.346,2.394-5.482,3.079-7.005,1.531-1.522-1.548-.855-4.744,1.492-7.138,2.346-2.393,5.482-3.079,7.005-1.531,1.522,1.548.855,4.744-1.492,7.137ZM119.812,102.205c-2.485,2.843-5.035,5.491-7.678,7.851-.865.884-2.267.884-3.132,0h0c-2.985-3.052-2.985-8.001,0-11.053h0c2.986-3.052,7.825-3.052,10.811,0h0c.865.884.865,2.319,0,3.202Z" fill="url(#_É_πÌÚ_·ÂÁ_Ì_Á_Ë_4786)"/>
      <path d="M92.842,84.682l.618,5.317s.003-2.42,1.908-4.094c-.925-2.843-2.526-1.223-2.526-1.223Z" fill="#665f5f"/>
    </g>
    <g>
      <path d="M97.79,87.69c-.718.566-2.216.982-2.988.191l-4.011-4.114c-.771-.791-.683-2.158.196-3.054l7.475,3.143c1.445,1.952.061,3.256-.672,3.835Z" fill="#665f5f"/>
      <path d="M98.105,86.599l-.236.241c-.81.826-2.07.877-2.816.114l-3.877-3.972c-.746-.763-.693-2.052.116-2.879,0,0,2.307-1.118,3.052-.355l3.877,3.972c.746.763.693,2.052-.116,2.879Z" fill="url(#_É_πÌÚ_·ÂÁ_Ì_Á_Ë_4785)"/>
      <path d="M94.234,80.709l3.702,3.602c.435.445.634,1.038.601,1.619.402-.797.276-1.799-.377-2.467l-3.702-3.602c-.999-1.005-2.165-.729-2.837-.087-.734.703-.802.993-.93,1.531.975-1.533,2.466-1.731,3.543-.597Z" fill="#e8e8e8"/>
    </g>
  </g>
</svg>