<?xml version="1.0" encoding="UTF-8"?>
<svg id="Layer_1" xmlns="http://www.w3.org/2000/svg" xmlns:xlink="http://www.w3.org/1999/xlink" version="1.1" viewBox="0 0 128 128">
  <!-- Generator: Adobe Illustrator 29.5.1, SVG Export Plug-In . SVG Version: 2.1.0 Build 141)  -->
  <defs>
    <linearGradient id="_É_πÌÚ_·ÂÁ_Ì_Á_Ë_4774" data-name="É‡‰¥πÌÚ ·ÂÁ Ì‡Á‚Ë 4774" x1="-196.654" y1="380.019" x2="-196.043" y2="268.31" gradientTransform="translate(260.752 390.608) scale(1.002 -1.002)" gradientUnits="userSpaceOnUse">
      <stop offset="0" stop-color="#fdcf18"/>
      <stop offset=".47" stop-color="#f5ab0c"/>
      <stop offset=".93" stop-color="#ed8700"/>
    </linearGradient>
    <radialGradient id="_É_πÌÚ_·ÂÁ_Ì_Á_Ë_4773" data-name="É‡‰¥πÌÚ ·ÂÁ Ì‡Á‚Ë 4773" cx="-198.246" cy="373.674" fx="-198.246" fy="373.674" r="104.764" gradientTransform="translate(260.81 388.676) scale(1.002 -1.002)" gradientUnits="userSpaceOnUse">
      <stop offset=".07" stop-color="#fefee2"/>
      <stop offset=".28" stop-color="#fdee8c"/>
      <stop offset=".49" stop-color="#fcde36"/>
      <stop offset=".82" stop-color="#f5b820"/>
      <stop offset="1" stop-color="#ee910a"/>
    </radialGradient>
    <linearGradient id="_É_πÌÚ_·ÂÁ_Ì_Á_Ë_4824" data-name="É‡‰¥πÌÚ ·ÂÁ Ì‡Á‚Ë 4824" x1="-241.57" y1="342.061" x2="-237.93" y2="379.648" gradientTransform="translate(336.355 472.645) scale(1.033 -1.033)" gradientUnits="userSpaceOnUse">
      <stop offset="0" stop-color="#ed8700"/>
      <stop offset=".47" stop-color="#f19b06"/>
      <stop offset="1" stop-color="#f6ae0d"/>
    </linearGradient>
    <linearGradient id="_É_πÌÚ_·ÂÁ_Ì_Á_Ë_48241" data-name="É‡‰¥πÌÚ ·ÂÁ Ì‡Á‚Ë 4824" x1="-285.106" y1="341.551" x2="-288.717" y2="382.097" xlink:href="#_É_πÌÚ_·ÂÁ_Ì_Á_Ë_4824"/>
  </defs>
  <g>
    <path d="M123.735,63.897c0,32.991-26.744,59.735-59.735,59.735S4.265,96.888,4.265,63.897,31.009,4.163,64,4.163s59.735,26.744,59.735,59.735Z" fill="url(#_É_πÌÚ_·ÂÁ_Ì_Á_Ë_4774)"/>
    <path d="M117.262,64.123c-.46,30.054-24.671,54.053-54.078,53.602-29.405-.451-52.87-25.179-52.41-55.234S35.446,8.438,64.853,8.888c29.405.452,52.87,25.18,52.409,55.235Z" fill="url(#_É_πÌÚ_·ÂÁ_Ì_Á_Ë_4773)"/>
    <path d="M64,124.897c-33.636,0-61-27.364-61-61S30.364,2.897,64,2.897s61,27.364,61,61-27.365,61-61,61ZM64,5.428C31.76,5.428,5.53,31.657,5.53,63.897s26.229,58.47,58.47,58.47,58.47-26.229,58.47-58.47S96.241,5.428,64,5.428Z" fill="#e76900"/>
  </g>
  <g opacity=".8">
    <path d="M79.425,71.37l8.904,21.608c.786-.461,5.298-.954,6.929,2.144,5.474-1.392,9.738,3.074,9.553,8.041.891.499,1.677,1.146,2.328,1.905-7.672,8.283-21.414,14.358-31.623,15.85-1.544-.31-1.784-.505-3.072-1.487-2.224-1.696-3.474-4.457-3.708-7.242-.378-4.503,1.965-8.372,5.41-10.551.044-.032.49-.303,1.168-.619-.743-2.604.471-4.807,1.497-5.89l.274-22.903c.03-1.737,1.51-2.116,2.34-.856Z" fill="url(#_É_πÌÚ_·ÂÁ_Ì_Á_Ë_4824)"/>
  </g>
  <g opacity=".8">
    <path d="M58.46,113.846c-.174,2.297-1.699,4.807-3.761,6.351-1.365,1.023-.109.651-1.755.857-16.211-2.546-29.944-18.669-29.953-18.969-.092-4.024,4.913-8.646,9.569-7.055.941-1.806,3.55-3.919,7.081-2.088l9.038-21.804c.31-.613.965-.65,1.282-.613.343.041,1.036.284,1.048,1.488l.146,23.089c.619.663,1.083,1.46,1.355,2.334,2.565.635,4.501,2.919,4.564,5.685.032,1.288-.355,2.492-1.023,3.486.457.369.886.958,1.254,1.678.791,1.548,1.296,3.699,1.156,5.561Z" fill="url(#_É_πÌÚ_·ÂÁ_Ì_Á_Ë_48241)"/>
  </g>
  <g>
    <path d="M106.733,101.618c0,3.507-2.843,6.35-6.35,6.35s-6.35-2.843-6.35-6.35,2.843-6.35,6.35-6.35,6.35,2.843,6.35,6.35Z" fill="#d0f0ff"/>
    <path d="M106.707,99.23c0,2.945-2.483,5.331-5.546,5.331s-5.547-2.387-5.547-5.331,2.107-3.602,5.17-3.602,5.922.656,5.922,3.602Z" fill="#fff"/>
    <path d="M106.733,101.618c0,3.507-2.843,6.35-6.35,6.35s-6.35-2.843-6.35-6.35,2.843-6.35,6.35-6.35,6.35,2.843,6.35,6.35Z" fill-opacity="0"/>
  </g>
  <g>
    <path d="M77.844,111.511c-1.147-2.157-.329-4.836,1.829-5.983,2.157-1.147,4.836-.328,5.983,1.83,1.147,2.157.328,4.836-1.83,5.983-2.157,1.147-4.836.329-5.983-1.829Z" fill="#d0f0ff"/>
    <path d="M78.641,112.972c-.963-1.812-.217-4.093,1.668-5.094,1.884-1.002,4.193-.345,5.156,1.465.964,1.812-.119,2.904-2.003,3.907-1.884,1.002-3.858,1.533-4.821-.278Z" fill="#fff"/>
    <path d="M77.844,111.511c-1.147-2.157-.329-4.836,1.829-5.983,2.157-1.147,4.836-.328,5.983,1.83,1.147,2.157.328,4.836-1.83,5.983-2.157,1.147-4.836.329-5.983-1.829Z" fill-opacity="0"/>
  </g>
  <g>
    <path d="M35.01,99.234c-.876,1.735-2.994,2.431-4.73,1.555s-2.431-2.994-1.555-4.73c.876-1.735,2.994-2.431,4.73-1.554,1.735.876,2.431,2.994,1.555,4.729Z" fill="#d0f0ff"/>
    <path d="M35.501,97.473c-.404,1.857-2.177,2.094-3.692,1.328-1.516-.766-2.148-2.568-1.412-4.024.736-1.458,3.139-.728,5.104,2.696Z" fill="#fff"/>
    <path d="M35.01,99.234c-.876,1.735-2.994,2.431-4.73,1.555s-2.431-2.994-1.555-4.73c.876-1.735,2.994-2.431,4.73-1.554,1.735.876,2.431,2.994,1.555,4.729Z" fill-opacity="0"/>
  </g>
  <g>
    <g>
      <g opacity=".6">
        <path d="M42.294,47.156c-10.926,0-13.295-2.667-14.616-.341-1.393,2.452,5.406,8.257,14.932,8.257,9.028,0,16.345-5.555,14.363-9.105-1.082-1.937-3.775,1.189-14.679,1.189Z" fill="#eaac1f"/>
      </g>
      <path d="M42.294,49.683c-10.926,0-13.006-3.794-14.496-2.29-2.379,2.4,5.286,9.258,14.813,9.258,9.028,0,16.276-7.077,14.363-9.421-1.403-1.718-3.775,2.453-14.679,2.453Z" fill="#ffe0a0"/>
      <path d="M42.294,48.42c-10.926,0-12.981-2.506-14.496-1.026-1.693,1.653,5.286,7.679,14.813,7.679,9.028,0,15.126-6.149,14.363-7.842-.912-2.022-3.775,1.189-14.679,1.189Z" fill="#974800"/>
      <path d="M56.762,48.472c-1.121-1.266-4.294,1.526-14.467,1.526-10.838,0-12.948-2.463-14.461-1.059-.366-.647-.397-1.194-.037-1.544,1.516-1.481,3.571,1.023,14.498,1.023s13.767-3.209,14.679-1.187c.132.297.057.729-.212,1.241Z" fill="#632900"/>
    </g>
    <g>
      <g opacity=".6">
        <path d="M85.744,47.156c10.927,0,13.296-2.667,14.616-.341,1.393,2.452-5.406,8.257-14.932,8.257-9.028,0-16.345-5.555-14.363-9.105,1.082-1.937,3.775,1.189,14.678,1.189Z" fill="#eaac1f"/>
      </g>
      <path d="M85.744,49.683c10.927,0,13.006-3.794,14.497-2.29,2.379,2.4-5.287,9.258-14.813,9.258-9.028,0-16.276-7.077-14.363-9.421,1.403-1.718,3.775,2.453,14.678,2.453Z" fill="#ffe0a0"/>
      <path d="M85.744,48.42c10.927,0,12.982-2.506,14.497-1.026,1.692,1.653-5.287,7.679-14.813,7.679-9.028,0-15.127-6.149-14.363-7.842.912-2.022,3.775,1.189,14.678,1.189Z" fill="#974800"/>
      <path d="M71.275,48.472c1.121-1.266,4.295,1.526,14.467,1.526,10.839,0,12.948-2.463,14.461-1.059.366-.647.398-1.194.038-1.544-1.516-1.481-3.572,1.023-14.499,1.023s-13.766-3.209-14.679-1.187c-.132.297-.056.729.212,1.241Z" fill="#632900"/>
    </g>
  </g>
  <g>
    <g>
      <path d="M56.98,36.293c.082-.568.032-1.849-.212-2.824-1.062-4.221-6.781-10.55-13.833-13.274-10.042-3.88-11.339.646-9.244,1.562,2.095.915,9.483,3.032,15.679,10.804,1.66,2.083,2.604,3.738,3.625,4.81,1.348,1.416,3.604,1.534,3.986-1.078Z" fill="#ffedb8"/>
      <path d="M57.082,36.034c.186-.543.172-1.794-.072-2.769-1.062-4.222-5.198-10.506-12.25-13.232-10.043-3.88-12.888-.493-10.793.421,2.094.915,10.372,3.389,16.569,11.162,1.66,2.082,2.604,3.738,3.625,4.81,1.348,1.416,2.407,1.097,2.921-.393Z" fill="#974800"/>
    </g>
    <path d="M55.579,37.324c.005-.008.011-.021.014-.032.186-.543.174-1.794-.074-2.767-1.059-4.221-5.198-10.507-12.247-13.232-5.025-1.941-8.249-2.06-9.952-1.583-.062-1.213,3.36-2.797,11.44.325,7.049,2.724,11.187,9.01,12.249,13.229.245.975.257,2.226.072,2.769-.314.915-.836,1.389-1.502,1.291Z" fill="#632900"/>
  </g>
  <g>
    <g>
      <path d="M71.057,36.293c-.121-.561-.033-1.849.212-2.824,1.062-4.221,6.781-10.55,13.834-13.274,10.042-3.88,11.335.649,9.24,1.563-2.094.915-9.478,3.03-15.674,10.803-1.661,2.083-2.605,3.738-3.625,4.81-1.348,1.416-3.516,1.114-3.986-1.078Z" fill="#ffedb8"/>
      <path d="M70.956,36.034c-.187-.543-.172-1.794.072-2.769,1.061-4.222,5.198-10.506,12.25-13.232,10.042-3.88,12.888-.493,10.793.421-2.095.915-10.373,3.389-16.569,11.162-1.66,2.082-2.605,3.738-3.625,4.81-1.348,1.416-2.408,1.097-2.921-.393Z" fill="#974800"/>
    </g>
    <path d="M72.458,37.324c-.005-.008-.011-.021-.013-.032-.186-.543-.174-1.794.074-2.767,1.059-4.221,5.198-10.507,12.246-13.232,5.026-1.941,8.25-2.06,9.952-1.583.063-1.213-3.36-2.797-11.44.325-7.048,2.724-11.187,9.01-12.249,13.229-.245.975-.257,2.226-.071,2.769.314.915.835,1.389,1.501,1.291Z" fill="#632900"/>
  </g>
  <g>
    <g opacity=".6">
      <path d="M64.019,70.489c-21.729,0-36.561,13.544-34.313,16.792,1.258,1.816,10.865-11.363,34.28-11.363s32.913,13.045,34.344,11.363c2.535-2.98-12.583-16.792-34.312-16.792Z" fill="#eaac1f"/>
    </g>
    <path d="M64.019,73.963c-21.729,0-35.472,11.438-34.313,13.319,2.292,3.716,10.865-8.206,34.28-8.206s32.315,12.114,34.344,8.206c1.018-1.96-12.583-13.319-34.312-13.319Z" fill="#fedd78"/>
    <path d="M64.019,72.383c-21.729,0-35.449,13.004-34.313,14.898,1.137,1.893,10.865-9.469,34.28-9.469s33.208,11.362,34.344,9.469c1.137-1.894-12.583-14.898-34.312-14.898Z" fill="#974800"/>
    <path d="M98.332,87.282c-.082.136-.212.202-.382.208-2.492-3.834-15.254-13.21-33.931-13.21s-31.439,9.373-33.931,13.21c-.174-.006-.3-.072-.382-.208-1.137-1.895,12.584-14.897,34.313-14.897s35.447,13.002,34.313,14.897Z" fill="#632900"/>
  </g>
  <g>
    <path d="M83.296,101.36l-6.551-32.622,16.938,30.429" fill="#fff"/>
    <path d="M83.294,102.582c-.57,0-1.081-.401-1.198-.982l-6.551-32.622c-.118-.591.211-1.18.777-1.388.566-.209,1.199.027,1.491.552l16.938,30.429c.329.59.117,1.335-.473,1.664-.592.328-1.335.116-1.664-.473l-13.128-23.585,5.008,24.941c.133.663-.296,1.307-.958,1.441-.082.016-.162.024-.242.024Z" fill="#a9d6f9"/>
    <g>
      <g opacity="0">
        <line x1="76.745" y1="68.738" x2="93.683" y2="99.167"/>
      </g>
      <path d="M93.683,100.39c-.429,0-.846-.227-1.069-.628l-16.938-30.43c-.328-.59-.116-1.334.473-1.664.591-.327,1.335-.115,1.664.474l16.938,30.429c.329.59.117,1.335-.473,1.664-.189.105-.393.155-.594.155Z" fill="#98c6f0"/>
    </g>
  </g>
  <g>
    <g>
      <path d="M84.843,119.522c0,2.385,1.934,4.318,4.318,4.318s4.319-1.933,4.319-4.318-1.934-4.318-4.319-4.318-4.318,1.933-4.318,4.318Z" fill="#d0f0ff"/>
      <path d="M89.161,125.103c-3.078,0-5.582-2.504-5.582-5.581s2.504-5.582,5.582-5.582,5.582,2.504,5.582,5.582-2.504,5.581-5.582,5.581ZM89.161,116.466c-1.684,0-3.055,1.371-3.055,3.056s1.371,3.056,3.055,3.056,3.056-1.372,3.056-3.056-1.37-3.056-3.056-3.056Z" fill="#98c6f0"/>
    </g>
    <path d="M76.456,112.473c0-2.61.289-7.031,6.574-9.659-2.988-6.203.292-8.061,3.735-8.497,1.128-.143,2.273-.134,3.222-.076.73.046,1.343.12,1.742.177.314.044.495.079.495.079.054-.083.089-.129.089-.129.663-.917,1.741-1.513,2.958-1.513,1.869,0,3.157.958,3.913,3.219.776-.605,1.803-1.001,3.032-1.001,3.332,0,6.033,2.701,6.033,6.034,0,.571-.084,1.122-.233,1.645,2.834,1.035,4.857,3.755,4.857,6.947,0,4.083-3.31,7.394-7.394,7.394-.81,0-1.59-.132-2.321-.374.023.218.035.438.035.663,0,3.492-2.831,6.323-6.322,6.323-3.267,0-5.955-2.478-6.287-5.658,0,0-.023-.214-.03-.524l.032-.435c-7.115,6.25-14.129.171-14.129-4.615Z" fill="#fff"/>
    <g>
      <path d="M77.519,107.26c-.195.907-.228,1.864-.065,2.835.689,4.124,4.591,6.908,8.714,6.22,3.957-.661,6.679-4.28,6.285-8.214.269.618.469,1.278.585,1.973.448,2.682-.433,5.279-2.161,7.119.718,1.934,2.636,3.319,4.893,3.319,2.871,0,5.198-2.238,5.198-4.997,0-.805-.203-1.562-.554-2.236.184.162.358.336.522.519.41.096.838.151,1.278.151,3.096,0,5.607-2.511,5.607-5.607,0-1.614-.684-3.067-1.775-4.089-1.028,1.244-2.584,2.037-4.324,2.037-.95,0-1.842-.238-2.626-.654.321.071.654.111.997.111,2.544,0,4.606-2.062,4.606-4.606s-2.062-4.606-4.606-4.606c-.411,0-.807.058-1.185.16-.101,1.925-1.689,3.456-3.639,3.456-1.066,0-2.021-.459-2.688-1.188.487.377,1.095.604,1.759.604,1.227,0,2.271-.77,2.685-1.851-.041.036-.084.069-.122.107.061-.101.123-.2.189-.297.08-.264.125-.545.125-.836,0-1.589-1.288-2.877-2.876-2.877-1.073,0-2.007.589-2.501,1.46.505-1.408,1.848-2.418,3.43-2.418,1.797,0,3.286,1.299,3.588,3.009.838-.502,1.816-.791,2.864-.791,3.098,0,5.608,2.511,5.608,5.608,0,.627-.107,1.227-.297,1.79,3.336.714,5.838,3.678,5.838,7.228,0,4.083-3.31,7.394-7.394,7.394-1.144,0-2.226-.261-3.193-.725.106.445.165.908.165,1.386,0,3.287-2.665,5.952-5.952,5.952s-5.952-2.665-5.952-5.952c0-.081.009-.158.013-.238-1.173,1.123-2.684,1.917-4.407,2.205-4.565.763-8.883-2.321-9.645-6.885-.333-1.998.07-3.949,1.012-5.575Z" fill="#d0f0ff"/>
      <path d="M85.736,103.628c-2.658,0-4.811-2.154-4.811-4.811,0-1.493.681-2.828,1.749-3.711-.39.673-.617,1.453-.617,2.288,0,2.527,2.05,4.577,4.578,4.577,1.558,0,2.933-.78,3.76-1.97-.528,2.084-2.411,3.627-4.659,3.627Z" fill="#d0f0ff"/>
    </g>
    <path d="M105.478,118.355c-.924,0-1.838-.146-2.717-.436-.663-.219-1.022-.933-.803-1.596.218-.662.934-1.021,1.595-.803.623.205,1.27.31,1.925.31,3.38,0,6.13-2.75,6.13-6.13,0-2.565-1.619-4.88-4.026-5.76-.623-.227-.963-.895-.782-1.531.122-.433.185-.871.185-1.301,0-2.631-2.141-4.771-4.771-4.771-.86,0-1.64.254-2.254.734-.324.253-.749.333-1.142.213-.393-.118-.703-.42-.833-.809-.693-2.07-1.714-2.356-2.715-2.356-.763,0-1.486.371-1.934.99-.403.556-1.221.752-1.786.364-.566-.39-.76-1.097-.381-1.67l.132-.191c.908-1.258,2.397-2.018,3.969-2.018,2.016,0,3.527.903,4.51,2.687.751-.309,1.572-.469,2.435-.469,4.024,0,7.297,3.273,7.297,7.297,0,.3-.019.601-.058.9,2.839,1.472,4.682,4.439,4.682,7.692,0,4.773-3.884,8.656-8.657,8.656Z" fill="#b6dcf9"/>
    <path d="M96.871,124.967c-3.358,0-6.231-2.168-7.219-5.246-1.005.609-2.163,1.056-3.291,1.244-2.541.426-5.094-.167-7.19-1.663-2.097-1.496-3.485-3.719-3.909-6.26-.631-3.782,1.583-7.832,4.089-9.562.495-.341,1.066-.646,1.605-.901-.187-.245-.298-.429-.326-.478-.62-.933-.969-2.091-.969-3.286,0-2.27,1.251-4.334,3.264-5.387.619-.324,1.382-.084,1.705.535.323.618.084,1.381-.534,1.705-1.178.616-1.908,1.822-1.908,3.147,0,.696.203,1.372.588,1.955.153.253.576.82,1.102,1.073.464.223.746.706.713,1.22-.034.514-.377.957-.867,1.118-.018.006-1.815.601-2.938,1.377-1.816,1.254-3.492,4.312-3.032,7.066.313,1.875,1.337,3.516,2.885,4.621,1.547,1.104,3.431,1.541,5.306,1.227,1.346-.224,2.85-1.018,3.656-1.93.343-.385.885-.525,1.37-.352.485.173.817.624.838,1.14,0,.006.006.152.006.158.006.24.023.409.024.427.27,2.579,2.432,4.524,5.031,4.524,1.673,0,3.202-.632,4.092-1.689.823-.979,1.101-2.278.824-3.859-.12-.688.34-1.342,1.028-1.462.687-.12,1.341.34,1.462,1.027.511,2.929-.469,4.835-1.381,5.919-1.384,1.646-3.58,2.589-6.025,2.589Z" fill="#98c6f0"/>
  </g>
  <g>
    <path d="M44.742,101.36l6.55-32.622-16.937,30.429" fill="#fff"/>
    <path d="M44.744,102.582c-.08,0-.161-.008-.242-.024-.662-.134-1.091-.778-.959-1.441l5.009-24.941-13.129,23.585c-.329.589-1.073.801-1.663.473-.59-.329-.802-1.073-.474-1.664l16.938-30.429c.293-.525.926-.761,1.491-.552.566.208.895.797.777,1.388l-6.551,32.622c-.116.581-.627.982-1.197.982Z" fill="#a9d6f9"/>
    <g>
      <g opacity="0">
        <line x1="51.293" y1="68.738" x2="34.355" y2="99.167"/>
      </g>
      <path d="M34.354,100.39c-.201,0-.405-.05-.594-.155-.59-.329-.802-1.073-.474-1.664l16.938-30.429c.329-.589,1.073-.801,1.664-.474.589.329.801,1.073.473,1.664l-16.938,30.43c-.224.402-.639.628-1.069.628Z" fill="#98c6f0"/>
    </g>
  </g>
  <g>
    <g>
      <path d="M51.877,103.494c0,2.95-2.392,5.342-5.342,5.342s-5.343-2.392-5.343-5.342,2.392-5.342,5.343-5.342,5.342,2.392,5.342,5.342Z" fill="#d0f0ff"/>
      <path d="M46.535,110.099c-3.642,0-6.605-2.962-6.605-6.604s2.963-6.604,6.605-6.604,6.605,2.962,6.605,6.604-2.963,6.604-6.605,6.604ZM46.535,99.415c-2.25,0-4.079,1.83-4.079,4.079s1.83,4.079,4.079,4.079,4.079-1.83,4.079-4.079-1.83-4.079-4.079-4.079Z" fill="#b6dcf9"/>
    </g>
    <g>
      <path d="M27.06,118.18c0,1.759-1.426,3.184-3.185,3.184s-3.185-1.426-3.185-3.184,1.427-3.184,3.185-3.184,3.185,1.425,3.185,3.184Z" fill="#d0f0ff"/>
      <path d="M23.875,122.627c-2.452,0-4.448-1.996-4.448-4.448s1.996-4.448,4.448-4.448,4.448,1.995,4.448,4.448-1.995,4.448-4.448,4.448ZM23.875,116.257c-1.059,0-1.922.862-1.922,1.922s.862,1.922,1.922,1.922,1.922-.862,1.922-1.922-.862-1.922-1.922-1.922Z" fill="#b6dcf9"/>
    </g>
    <g>
      <path d="M43.195,119.522c0,2.385-1.933,4.318-4.318,4.318s-4.318-1.933-4.318-4.318,1.934-4.318,4.318-4.318,4.318,1.933,4.318,4.318Z" fill="#d0f0ff"/>
      <path d="M38.876,125.103c-3.078,0-5.582-2.504-5.582-5.581s2.504-5.582,5.582-5.582,5.582,2.504,5.582,5.582-2.504,5.581-5.582,5.581ZM38.876,116.466c-1.685,0-3.055,1.371-3.055,3.056s1.37,3.056,3.055,3.056,3.055-1.372,3.055-3.056-1.37-3.056-3.055-3.056Z" fill="#b7dcf9"/>
    </g>
    <path d="M51.582,112.473c0-2.61-.289-7.031-6.573-9.659,2.987-6.203-.293-8.061-3.735-8.497-1.128-.143-2.274-.134-3.222-.076-.729.046-1.343.12-1.741.177-.314.044-.495.079-.495.079-.054-.083-.089-.129-.089-.129-.662-.917-1.74-1.513-2.958-1.513-1.869,0-3.156.958-3.912,3.219-.776-.605-1.803-1.001-3.032-1.001-3.332,0-6.034,2.701-6.034,6.034,0,.571.084,1.122.233,1.645-2.834,1.035-4.857,3.755-4.857,6.947,0,4.083,3.31,7.394,7.394,7.394.811,0,1.591-.132,2.321-.374-.023.218-.036.438-.036.663,0,3.492,2.831,6.323,6.322,6.323,3.267,0,5.955-2.478,6.288-5.658,0,0,.022-.214.03-.524l-.032-.435c7.116,6.25,14.129.171,14.129-4.615Z" fill="#fff"/>
    <g>
      <path d="M50.518,107.26c.196.907.228,1.864.066,2.835-.689,4.124-4.591,6.908-8.715,6.22-3.957-.661-6.678-4.28-6.284-8.214-.27.618-.47,1.278-.586,1.973-.447,2.682.433,5.279,2.161,7.119-.718,1.934-2.635,3.319-4.892,3.319-2.871,0-5.199-2.238-5.199-4.997,0-.805.203-1.562.555-2.236-.185.162-.359.336-.522.519-.411.096-.838.151-1.278.151-3.097,0-5.607-2.511-5.607-5.607,0-1.614.683-3.067,1.775-4.089,1.028,1.244,2.584,2.037,4.325,2.037.949,0,1.842-.238,2.625-.654-.321.071-.654.111-.997.111-2.544,0-4.607-2.062-4.607-4.606s2.062-4.606,4.607-4.606c.411,0,.807.058,1.185.16.1,1.925,1.688,3.456,3.638,3.456,1.066,0,2.022-.459,2.688-1.188-.486.377-1.095.604-1.759.604-1.227,0-2.271-.77-2.684-1.851.04.036.083.069.122.107-.06-.101-.124-.2-.19-.297-.08-.264-.124-.545-.124-.836,0-1.589,1.287-2.877,2.876-2.877,1.073,0,2.008.589,2.502,1.46-.505-1.408-1.849-2.418-3.431-2.418-1.796,0-3.286,1.299-3.588,3.009-.838-.502-1.816-.791-2.864-.791-3.098,0-5.608,2.511-5.608,5.608,0,.627.107,1.227.296,1.79-3.336.714-5.838,3.678-5.838,7.228,0,4.083,3.31,7.394,7.394,7.394,1.144,0,2.226-.261,3.194-.725-.107.445-.165.908-.165,1.386,0,3.287,2.665,5.952,5.952,5.952s5.952-2.665,5.952-5.952c0-.081-.01-.158-.013-.238,1.173,1.123,2.684,1.917,4.406,2.205,4.565.763,8.883-2.321,9.645-6.885.334-1.998-.07-3.949-1.012-5.575Z" fill="#d0f0ff"/>
      <path d="M42.302,103.628c2.657,0,4.811-2.154,4.811-4.811,0-1.493-.68-2.828-1.749-3.711.39.673.617,1.453.617,2.288,0,2.527-2.05,4.577-4.578,4.577-1.559,0-2.933-.78-3.76-1.97.528,2.084,2.411,3.627,4.659,3.627Z" fill="#d0f0ff"/>
    </g>
    <path d="M22.559,118.355c-4.773,0-8.656-3.883-8.656-8.656,0-3.253,1.842-6.22,4.681-7.692-.038-.3-.058-.601-.058-.9,0-4.024,3.273-7.297,7.297-7.297.862,0,1.685.16,2.435.469.983-1.785,2.494-2.687,4.51-2.687,1.572,0,3.061.76,3.982,2.036l.12.174c.384.582.223,1.366-.359,1.749-.582.385-1.366.223-1.75-.36-.506-.703-1.228-1.073-1.992-1.073-1,0-2.022.286-2.715,2.356-.129.389-.44.691-.833.809-.393.12-.818.039-1.142-.213-.616-.48-1.396-.734-2.255-.734-2.631,0-4.771,2.14-4.771,4.771,0,.43.063.868.185,1.301.181.637-.16,1.305-.782,1.531-2.409.88-4.027,3.195-4.027,5.76,0,3.38,2.75,6.13,6.13,6.13.655,0,1.303-.104,1.925-.31.661-.219,1.377.141,1.595.803.219.663-.141,1.377-.804,1.596-.878.29-1.792.436-2.717.436Z" fill="#98c6f0"/>
    <path d="M31.167,124.967c-2.446,0-4.642-.943-6.026-2.589-.912-1.084-1.891-2.99-1.38-5.919.12-.687.772-1.146,1.461-1.027.688.12,1.147.774,1.028,1.462-.276,1.581.001,2.88.824,3.859.889,1.057,2.419,1.689,4.092,1.689,2.598,0,4.761-1.946,5.03-4.525.002-.018.018-.186.024-.426,0-.006.006-.152.006-.158.02-.516.352-.967.838-1.14.486-.172,1.028-.034,1.37.352.807.912,2.31,1.705,3.656,1.93,1.876.31,3.759-.122,5.307-1.227,1.547-1.104,2.572-2.745,2.884-4.621.461-2.754-1.215-5.812-3.032-7.066-1.123-.776-2.919-1.371-2.938-1.377-.49-.161-.832-.604-.866-1.118-.034-.514.248-.997.713-1.22.526-.253.948-.821,1.067-1.019.42-.637.623-1.313.623-2.01,0-1.325-.732-2.532-1.908-3.147-.618-.324-.857-1.088-.534-1.705.324-.619,1.087-.858,1.705-.535,2.013,1.053,3.263,3.117,3.263,5.387,0,1.194-.348,2.352-1.007,3.349-.015.025-.112.189-.286.416.539.254,1.11.559,1.604.9,2.506,1.73,4.72,5.779,4.089,9.562-.425,2.541-1.813,4.764-3.909,6.26-2.097,1.497-4.65,2.091-7.191,1.663-1.127-.189-2.284-.635-3.289-1.244-.988,3.078-3.861,5.246-7.219,5.246Z" fill="#b6dbf9"/>
  </g>
</svg>