<?xml version="1.0" encoding="UTF-8"?>
<svg id="Layer_1" xmlns="http://www.w3.org/2000/svg" xmlns:xlink="http://www.w3.org/1999/xlink" version="1.1" viewBox="0 0 128 128">
  <!-- Generator: Adobe Illustrator 29.5.1, SVG Export Plug-In . SVG Version: 2.1.0 Build 141)  -->
  <defs>
    <linearGradient id="_É_πÌÚ_·ÂÁ_Ì_Á_Ë_2914" data-name="É‡‰¥πÌÚ ·ÂÁ Ì‡Á‚Ë 2914" x1="-94.419" y1="430.322" x2="-80.816" y2="419.939" gradientTransform="translate(103.192 538.617) scale(1 -1)" gradientUnits="userSpaceOnUse">
      <stop offset=".23" stop-color="#5b5a5a"/>
      <stop offset=".39" stop-color="#3a3a3a"/>
      <stop offset=".94" stop-color="#1a1a1a"/>
    </linearGradient>
    <linearGradient id="_É_πÌÚ_·ÂÁ_Ì_Á_Ë_2913" data-name="É‡‰¥πÌÚ ·ÂÁ Ì‡Á‚Ë 2913" x1="-105.03" y1="408.598" x2="-128.725" y2="384.905" gradientTransform="translate(359.045 282.795) scale(1 -1)" gradientUnits="userSpaceOnUse">
      <stop offset="0" stop-color="#2f312e"/>
      <stop offset=".46" stop-color="#1e1f1d"/>
      <stop offset="1" stop-color="#0d0d0c"/>
    </linearGradient>
    <linearGradient id="_É_πÌÚ_·ÂÁ_Ì_Á_Ë_2912" data-name="É‡‰¥πÌÚ ·ÂÁ Ì‡Á‚Ë 2912" x1="-79.227" y1="4.708" x2="-54.971" y2="-19.548" gradientTransform="translate(406.978 234.481) scale(1 -1)" gradientUnits="userSpaceOnUse">
      <stop offset="0" stop-color="#fff"/>
      <stop offset=".54" stop-color="#b7b7b7"/>
      <stop offset="1" stop-color="#6e6f6f"/>
    </linearGradient>
    <linearGradient id="_É_πÌÚ_·ÂÁ_Ì_Á_Ë_29121" data-name="É‡‰¥πÌÚ ·ÂÁ Ì‡Á‚Ë 2912" x1="-73.563" y1="11.62" x2="-43.937" y2="-18.007" gradientTransform="translate(397.745 243.713) scale(1 -1)" xlink:href="#_É_πÌÚ_·ÂÁ_Ì_Á_Ë_2912"/>
    <linearGradient id="_É_πÌÚ_·ÂÁ_Ì_Á_Ë_29122" data-name="É‡‰¥πÌÚ ·ÂÁ Ì‡Á‚Ë 2912" x1="-16.572" y1="43.69" x2="17.489" y2="9.629" gradientTransform="translate(332.195 309.263) scale(1 -1)" xlink:href="#_É_πÌÚ_·ÂÁ_Ì_Á_Ë_2912"/>
    <linearGradient id="_É_πÌÚ_·ÂÁ_Ì_Á_Ë_29123" data-name="É‡‰¥πÌÚ ·ÂÁ Ì‡Á‚Ë 2912" x1="-24.198" y1="40.519" x2="10.677" y2="5.643" gradientTransform="translate(340.123 301.335) scale(1 -1)" xlink:href="#_É_πÌÚ_·ÂÁ_Ì_Á_Ë_2912"/>
    <linearGradient id="_É_πÌÚ_·ÂÁ_Ì_Á_Ë_29124" data-name="É‡‰¥πÌÚ ·ÂÁ Ì‡Á‚Ë 2912" x1="-58.402" y1="23.332" x2="-23.526" y2="-11.544" gradientTransform="translate(378.07 263.388) scale(1 -1)" xlink:href="#_É_πÌÚ_·ÂÁ_Ì_Á_Ë_2912"/>
    <linearGradient id="_É_πÌÚ_·ÂÁ_Ì_Á_Ë_29125" data-name="É‡‰¥πÌÚ ·ÂÁ Ì‡Á‚Ë 2912" x1="-66.338" y1="17.969" x2="-33.194" y2="-15.176" gradientTransform="translate(387.805 253.653) scale(1 -1)" xlink:href="#_É_πÌÚ_·ÂÁ_Ì_Á_Ë_2912"/>
    <linearGradient id="_É_πÌÚ_·ÂÁ_Ì_Á_Ë_29126" data-name="É‡‰¥πÌÚ ·ÂÁ Ì‡Á‚Ë 2912" x1="-31.971" y1="-.411" x2="-27.5" y2="-4.882" gradientTransform="translate(359.17 251.423) scale(1 -1)" xlink:href="#_É_πÌÚ_·ÂÁ_Ì_Á_Ë_2912"/>
    <linearGradient id="_É_πÌÚ_·ÂÁ_Ì_Á_Ë_29127" data-name="É‡‰¥πÌÚ ·ÂÁ Ì‡Á‚Ë 2912" x1="-20.659" y1="-7.287" x2="-15.017" y2="-12.929" gradientTransform="translate(340.267 239.012) scale(1 -1)" xlink:href="#_É_πÌÚ_·ÂÁ_Ì_Á_Ë_2912"/>
    <linearGradient id="_É_πÌÚ_·ÂÁ_Ì_Á_Ë_29128" data-name="É‡‰¥πÌÚ ·ÂÁ Ì‡Á‚Ë 2912" x1="-50.126" y1="17.763" x2="-45.655" y2="13.292" gradientTransform="translate(390.325 282.578) scale(1 -1)" xlink:href="#_É_πÌÚ_·ÂÁ_Ì_Á_Ë_2912"/>
    <linearGradient id="_É_πÌÚ_·ÂÁ_Ì_Á_Ë_29129" data-name="É‡‰¥πÌÚ ·ÂÁ Ì‡Á‚Ë 2912" x1="-56.686" y1="28.743" x2="-51.043" y2="23.1" gradientTransform="translate(402.736 301.483) scale(1 -1)" xlink:href="#_É_πÌÚ_·ÂÁ_Ì_Á_Ë_2912"/>
    <linearGradient id="_É_πÌÚ_·ÂÁ_Ì_Á_Ë_291210" data-name="É‡‰¥πÌÚ ·ÂÁ Ì‡Á‚Ë 2912" x1="-36.348" y1="2.966" x2="-33.445" y2=".062" gradientTransform="translate(367.448 258.249) scale(1 -1)" xlink:href="#_É_πÌÚ_·ÂÁ_Ì_Á_Ë_2912"/>
    <linearGradient id="_É_πÌÚ_·ÂÁ_Ì_Á_Ë_291211" data-name="É‡‰¥πÌÚ ·ÂÁ Ì‡Á‚Ë 2912" x1="-45.495" y1="12.111" x2="-42.589" y2="9.206" gradientTransform="translate(383.458 274.258) scale(1 -1)" xlink:href="#_É_πÌÚ_·ÂÁ_Ì_Á_Ë_2912"/>
    <linearGradient id="_É_πÌÚ_·ÂÁ_Ì_Á_Ë_291212" data-name="É‡‰¥πÌÚ ·ÂÁ Ì‡Á‚Ë 2912" x1="-27.408" y1="-3.528" x2="-21.739" y2="-9.197" gradientTransform="translate(350.699 245.045) scale(1 -1)" xlink:href="#_É_πÌÚ_·ÂÁ_Ì_Á_Ë_2912"/>
    <linearGradient id="_É_πÌÚ_·ÂÁ_Ì_Á_Ë_291213" data-name="É‡‰¥πÌÚ ·ÂÁ Ì‡Á‚Ë 2912" x1="-12.829" y1="-10.034" x2="-7.465" y2="-15.398" gradientTransform="translate(328.425 234.613) scale(1 -1)" xlink:href="#_É_πÌÚ_·ÂÁ_Ì_Á_Ë_2912"/>
    <linearGradient id="_É_πÌÚ_·ÂÁ_Ì_Á_Ë_291214" data-name="É‡‰¥πÌÚ ·ÂÁ Ì‡Á‚Ë 2912" x1="-54.136" y1="23.186" x2="-48.467" y2="17.517" gradientTransform="translate(396.703 291.048) scale(1 -1)" xlink:href="#_É_πÌÚ_·ÂÁ_Ì_Á_Ë_2912"/>
    <linearGradient id="_É_πÌÚ_·ÂÁ_Ì_Á_Ë_291215" data-name="É‡‰¥πÌÚ ·ÂÁ Ì‡Á‚Ë 2912" x1="-57.524" y1="34.675" x2="-52.16" y2="29.311" gradientTransform="translate(407.134 313.323) scale(1 -1)" xlink:href="#_É_πÌÚ_·ÂÁ_Ì_Á_Ë_2912"/>
    <linearGradient id="_É_πÌÚ_·ÂÁ_Ì_Á_Ë_291216" data-name="É‡‰¥πÌÚ ·ÂÁ Ì‡Á‚Ë 2912" x1="-47.451" y1="5.855" x2="-44.886" y2="3.198" gradientTransform="translate(375.633 266.204) scale(1 -1)" xlink:href="#_É_πÌÚ_·ÂÁ_Ì_Á_Ë_2912"/>
    <filter id="luminosity-noclip" x="71.509" y="4.27" width="52.222" height="51.872" color-interpolation-filters="sRGB" filterUnits="userSpaceOnUse">
      <feFlood flood-color="#fff" result="bg"/>
      <feBlend in="SourceGraphic" in2="bg"/>
    </filter>
    <filter id="luminosity-noclip1" x="71.509" y="-8256" width="52.222" height="32766" color-interpolation-filters="sRGB" filterUnits="userSpaceOnUse">
      <feFlood flood-color="#fff" result="bg"/>
      <feBlend in="SourceGraphic" in2="bg"/>
    </filter>
    <mask id="mask-1" x="71.509" y="-8256" width="52.222" height="32766" maskUnits="userSpaceOnUse"/>
    <radialGradient id="_É_πÌÚ_·ÂÁ_Ì_Á_Ë_5817" data-name="É‡‰¥πÌÚ ·ÂÁ Ì‡Á‚Ë 5817" cx="-270.965" cy="261.922" fx="-270.965" fy="261.922" r="26.903" gradientTransform="translate(361.879 279.256) scale(1 -1)" gradientUnits="userSpaceOnUse">
      <stop offset="0" stop-color="#000"/>
      <stop offset=".65" stop-color="gray"/>
      <stop offset="1" stop-color="#fff"/>
    </radialGradient>
    <mask id="mask" x="71.509" y="4.27" width="52.222" height="51.872" maskUnits="userSpaceOnUse">
      <g filter="url(#luminosity-noclip)">
        <g mask="url(#mask-1)">
          <path d="M114.936,49.455c-11.69,11.69-22.664,6.481-32.744-3.598-9.542-9.542-16.561-19.783-3.599-32.744,12.386-12.387,28.692-10.688,37.861-1.518,9.169,9.169,10.742,25.6-1.518,37.861Z" fill="url(#_É_πÌÚ_·ÂÁ_Ì_Á_Ë_5817)" mix-blend-mode="multiply"/>
        </g>
      </g>
    </mask>
    <radialGradient id="_É_πÌÚ_·ÂÁ_Ì_Á_Ë_2911" data-name="É‡‰¥πÌÚ ·ÂÁ Ì‡Á‚Ë 2911" cx="-270.965" cy="261.922" fx="-270.965" fy="261.922" r="26.903" gradientTransform="translate(361.879 279.256) scale(1 -1)" gradientUnits="userSpaceOnUse">
      <stop offset="0" stop-color="#1d1e1c"/>
      <stop offset=".65" stop-color="#0f0f0e"/>
      <stop offset="1" stop-color="#000"/>
    </radialGradient>
    <linearGradient id="_É_πÌÚ_·ÂÁ_Ì_Á_Ë_2910" data-name="É‡‰¥πÌÚ ·ÂÁ Ì‡Á‚Ë 2910" x1="-187.215" y1="366.489" x2="-148.37" y2="324.155" gradientTransform="translate(215.628 426.202) scale(1 -1)" gradientUnits="userSpaceOnUse">
      <stop offset="0" stop-color="#272523"/>
      <stop offset=".12" stop-color="#5a5a57"/>
      <stop offset=".23" stop-color="#8c8e8b"/>
      <stop offset=".43" stop-color="#5b5a56"/>
      <stop offset=".53" stop-color="#292522"/>
      <stop offset=".73" stop-color="#272523"/>
      <stop offset=".88" stop-color="#242525"/>
    </linearGradient>
    <filter id="luminosity-noclip2" x="47.128" y="48.055" width="34.376" height="33.724" color-interpolation-filters="sRGB" filterUnits="userSpaceOnUse">
      <feFlood flood-color="#fff" result="bg"/>
      <feBlend in="SourceGraphic" in2="bg"/>
    </filter>
    <filter id="luminosity-noclip3" x="47.128" y="-8256" width="34.376" height="32766" color-interpolation-filters="sRGB" filterUnits="userSpaceOnUse">
      <feFlood flood-color="#fff" result="bg"/>
      <feBlend in="SourceGraphic" in2="bg"/>
    </filter>
    <mask id="mask-3" x="47.128" y="-8256" width="34.376" height="32766" maskUnits="userSpaceOnUse"/>
    <linearGradient id="_É_πÌÚ_·ÂÁ_Ì_Á_Ë_4913" data-name="É‡‰¥πÌÚ ·ÂÁ Ì‡Á‚Ë 4913" x1="-52.992" y1="463.645" x2="-70.855" y2="445.782" gradientTransform="translate(256.862 388.709) scale(1 -1)" gradientUnits="userSpaceOnUse">
      <stop offset="0" stop-color="#000"/>
      <stop offset=".48" stop-color="gray"/>
      <stop offset="1" stop-color="#fff"/>
    </linearGradient>
    <mask id="mask-2" x="47.128" y="48.055" width="34.376" height="33.724" maskUnits="userSpaceOnUse">
      <g filter="url(#luminosity-noclip2)">
        <g mask="url(#mask-3)">
          <path d="M52.329,76.333c-1.767-1.768-3.143-3.389-4.131-4.654-1.498-1.917-1.414-4.592.198-6.362,6.744-7.397,12.896-13.198,15.963-15.997,1.858-1.696,4.707-1.685,6.628.025,2.498,2.223,4.814,4.518,6.676,6.362.819.812,1.527,1.513,2.147,2.109,3.216,3.078,1.069,5.427-.083,6.688l-.109.119c-5.594,6.137-12.395,12.578-15.951,15.871-1.768,1.637-4.467,1.721-6.416.196h0c-1.886-1.475-3.526-2.962-4.921-4.356ZM58.031,79.689l.002.003-.002-.003ZM78.193,59.784c-.044-.045-.09-.09-.139-.136-.636-.61-1.351-1.318-2.178-2.137-1.839-1.823-4.129-4.093-6.577-6.269-.947-.844-2.336-.863-3.231-.047-3.034,2.77-9.123,8.51-15.798,15.833-.777.852-.808,2.151-.074,3.09,1.682,2.153,4.543,5.388,8.616,8.574h0c.963.754,2.279.728,3.129-.058,3.527-3.265,10.27-9.65,15.801-15.718l.112-.123c1.206-1.319,1.598-1.749.339-3.008Z" fill="url(#_É_πÌÚ_·ÂÁ_Ì_Á_Ë_4913)" mix-blend-mode="multiply"/>
        </g>
      </g>
    </mask>
    <linearGradient id="_É_πÌÚ_·ÂÁ_Ì_Á_Ë_2909" data-name="É‡‰¥πÌÚ ·ÂÁ Ì‡Á‚Ë 2909" x1="-52.992" y1="463.645" x2="-70.855" y2="445.782" gradientTransform="translate(256.862 388.709) scale(1 -1)" gradientUnits="userSpaceOnUse">
      <stop offset="0" stop-color="#f2f2f2"/>
      <stop offset=".48" stop-color="#f2f2f2"/>
      <stop offset="1" stop-color="#f2f2f2"/>
    </linearGradient>
    <linearGradient id="_É_πÌÚ_·ÂÁ_Ì_Á_Ë_2908" data-name="É‡‰¥πÌÚ ·ÂÁ Ì‡Á‚Ë 2908" x1="-197.124" y1="324.124" x2="-191.045" y2="316.063" gradientTransform="translate(258.877 382.997) scale(1 -1)" gradientUnits="userSpaceOnUse">
      <stop offset=".23" stop-color="#5b5a5a"/>
      <stop offset=".58" stop-color="#454343"/>
      <stop offset="1" stop-color="#2f2c2c"/>
    </linearGradient>
    <linearGradient id="_É_πÌÚ_·ÂÁ_Ì_Á_Ë_2907" data-name="É‡‰¥πÌÚ ·ÂÁ Ì‡Á‚Ë 2907" x1="-198.841" y1="320.169" x2="-201.876" y2="304.924" gradientTransform="translate(267.964 373.936) scale(1 -1)" gradientUnits="userSpaceOnUse">
      <stop offset=".36" stop-color="#fff"/>
      <stop offset=".59" stop-color="silver"/>
      <stop offset=".99" stop-color="gray"/>
    </linearGradient>
    <linearGradient id="_É_πÌÚ_·ÂÁ_Ì_Á_Ë_2906" data-name="É‡‰¥πÌÚ ·ÂÁ Ì‡Á‚Ë 2906" x1="-193.34" y1="306.867" x2="-204.799" y2="318.409" gradientTransform="translate(267.964 373.936) scale(1 -1)" gradientUnits="userSpaceOnUse">
      <stop offset=".12" stop-color="gray"/>
      <stop offset=".26" stop-color="#8d8888"/>
      <stop offset=".45" stop-color="#999190"/>
      <stop offset=".65" stop-color="#c0bbbb"/>
      <stop offset=".87" stop-color="#e6e6e6"/>
    </linearGradient>
    <linearGradient id="_É_πÌÚ_·ÂÁ_Ì_Á_Ë_2905" data-name="É‡‰¥πÌÚ ·ÂÁ Ì‡Á‚Ë 2905" x1="-253.76" y1="294.481" x2="-220.496" y2="266.172" gradientTransform="translate(319.221 322.617) scale(1 -1)" gradientUnits="userSpaceOnUse">
      <stop offset="0" stop-color="#8b8d8d"/>
      <stop offset=".08" stop-color="#c4c6c5"/>
      <stop offset=".17" stop-color="#fcfefd"/>
      <stop offset=".41" stop-color="#bebbb9"/>
      <stop offset=".54" stop-color="#807876"/>
      <stop offset=".63" stop-color="#6d6a69"/>
      <stop offset=".73" stop-color="#5a5b5b"/>
      <stop offset=".86" stop-color="#797a7a"/>
      <stop offset="1" stop-color="#999"/>
    </linearGradient>
    <linearGradient id="_É_πÌÚ_·ÂÁ_Ì_Á_Ë_2904" data-name="É‡‰¥πÌÚ ·ÂÁ Ì‡Á‚Ë 2904" x1="-281.278" y1="270.447" x2="-245.723" y2="238.808" gradientTransform="translate(357.955 283.795) scale(1 -1)" gradientUnits="userSpaceOnUse">
      <stop offset="0" stop-color="#8b8d8d"/>
      <stop offset=".01" stop-color="#b3b8b9"/>
      <stop offset=".03" stop-color="#dbe2e6"/>
      <stop offset=".05" stop-color="#d1d7dd"/>
      <stop offset=".11" stop-color="#c6cdd3"/>
      <stop offset=".18" stop-color="#e1e5e8"/>
      <stop offset=".28" stop-color="#fcfefd"/>
      <stop offset=".38" stop-color="#dddfe1"/>
      <stop offset=".45" stop-color="#bdc1c5"/>
      <stop offset=".52" stop-color="#95999d"/>
      <stop offset=".57" stop-color="#6e7174"/>
      <stop offset=".71" stop-color="#787a7b"/>
      <stop offset=".81" stop-color="#818382"/>
      <stop offset=".9" stop-color="#757777"/>
      <stop offset="1" stop-color="#696a6b"/>
    </linearGradient>
  </defs>
  <path d="M14.909,123.117c-5.014-3.378-8.257-7.402-9.993-9.961-.97-1.432-.846-3.276.297-4.418l7.587-7.589,14.099,14.098-7.572,7.572c-1.141,1.141-2.986,1.262-4.418.297Z" fill="url(#_É_πÌÚ_·ÂÁ_Ì_Á_Ë_2914)"/>
  <g opacity=".3">
    <g>
      <g opacity="0">
        <path d="M7.003,109.65s-1.661,1.715-2.088,3.507"/>
      </g>
      <path d="M4.916,114.425c-.097,0-.196-.012-.294-.035-.682-.163-1.103-.846-.941-1.528.493-2.072,2.216-3.894,2.41-4.096.486-.501,1.287-.515,1.791-.029.503.486.517,1.289.033,1.793-.396.412-1.485,1.738-1.767,2.919-.138.583-.659.976-1.233.976Z" fill="#fff"/>
    </g>
  </g>
  <g>
    <g opacity="0">
      <path d="M14.909,123.117c-5.014-3.378-8.257-7.402-9.993-9.961-.97-1.432-.846-3.276.297-4.418l7.587-7.589,14.099,14.098-7.572,7.572c-1.141,1.141-2.986,1.262-4.418.297Z"/>
    </g>
    <path d="M16.989,125.029c-.956,0-1.933-.283-2.789-.86h0c-5.095-3.432-8.432-7.496-10.335-10.3-1.305-1.926-1.116-4.461.449-6.027l7.587-7.587c.476-.477,1.318-.476,1.794,0l14.099,14.098c.239.238.372.56.372.897s-.134.659-.372.898l-7.572,7.571c-.868.868-2.037,1.311-3.235,1.311ZM12.8,102.945l-6.691,6.691c-.708.708-.768,1.888-.144,2.809,1.776,2.62,4.893,6.415,9.651,9.621h0c.924.622,2.109.564,2.813-.142l6.676-6.674-12.305-12.304Z" fill="#111"/>
  </g>
  <path d="M115.095,49.455c-11.69,11.69-27.782,11.599-37.861,1.519-9.541-9.542-11.443-24.9,1.518-37.861,12.387-12.387,28.692-10.688,37.861-1.518s10.742,25.6-1.518,37.861Z" fill="url(#_É_πÌÚ_·ÂÁ_Ì_Á_Ë_2913)"/>
  <g>
    <path d="M122.929,28.134c-.063-.063-.117-.139-.157-.224-7.912-16.858-22.556-22.674-22.702-22.732-.41-.158-.612-.617-.454-1.024.158-.409.615-.612,1.024-.455.623.239,15.374,6.079,23.568,23.538.186.395.016.869-.381,1.054-.311.146-.668.072-.898-.157Z" fill="url(#_É_πÌÚ_·ÂÁ_Ì_Á_Ë_2912)"/>
    <path d="M122.687,33.748c-.052-.052-.098-.113-.135-.18-10.852-19.852-27.976-28.088-28.148-28.169-.395-.185-.566-.659-.379-1.055.186-.395.658-.566,1.055-.38.176.082,17.753,8.518,28.863,28.843.211.385.069.865-.315,1.076-.316.173-.698.108-.941-.134Z" fill="url(#_É_πÌÚ_·ÂÁ_Ì_Á_Ë_29121)"/>
    <path d="M104.116,56.753c-.036-.036-.068-.075-.098-.119-14.378-21.363-32.513-32.594-32.695-32.705-.374-.228-.492-.717-.263-1.09.228-.374.717-.491,1.09-.263.184.112,18.603,11.509,33.183,33.173.244.363.149.856-.215,1.1-.32.215-.739.166-1.003-.096Z" fill="url(#_É_πÌÚ_·ÂÁ_Ì_Á_Ë_29122)"/>
    <path d="M107.038,54.646c-.036-.036-.069-.074-.098-.117-14.715-21.834-33.326-33.407-33.512-33.522-.373-.228-.49-.717-.26-1.09.229-.374.717-.49,1.09-.262.189.117,19.081,11.854,33.997,33.987.244.363.149.856-.215,1.1-.32.216-.74.167-1.003-.096Z" fill="url(#_É_πÌÚ_·ÂÁ_Ì_Á_Ë_29123)"/>
    <path d="M119.071,42.612c-.045-.045-.084-.096-.118-.152-13.726-22.757-33.253-33.359-33.448-33.464-.387-.207-.532-.687-.326-1.073.206-.386.686-.533,1.073-.327.199.107,20.097,10.896,34.06,34.045.227.375.106.862-.269,1.088-.319.193-.719.134-.97-.117Z" fill="url(#_É_πÌÚ_·ÂÁ_Ì_Á_Ë_29124)"/>
    <path d="M121.294,38.658c-.047-.047-.089-.101-.124-.16-12.778-21.8-31.514-31.622-31.702-31.719-.39-.201-.542-.679-.342-1.068.2-.39.678-.543,1.067-.343.193.099,19.323,10.113,32.345,32.327.221.378.095.864-.283,1.086-.318.186-.712.126-.961-.123Z" fill="url(#_É_πÌÚ_·ÂÁ_Ì_Á_Ë_29125)"/>
  </g>
  <g>
    <path d="M80.296,34.824c-.29-.289-.312-.757-.043-1.074,17.928-21.059,31.588-25.815,32.16-26.007.415-.139.865.085,1.003.499.139.415-.084.865-.498,1.004h0c-.136.047-13.853,4.852-31.458,25.532-.284.333-.784.374-1.118.09-.016-.014-.031-.028-.047-.044Z" fill="url(#_É_πÌÚ_·ÂÁ_Ì_Á_Ë_29126)"/>
    <path d="M74.498,29.94c-.273-.274-.312-.713-.075-1.033,16.942-22.83,31.385-24.148,31.991-24.192.436-.032.817.295.849.732.032.436-.295.816-.73.849h0c-.142.012-14.379,1.378-30.837,23.555-.261.352-.757.425-1.109.165-.031-.024-.061-.05-.089-.077Z" fill="url(#_É_πÌÚ_·ÂÁ_Ì_Á_Ë_29127)"/>
    <path d="M93.197,47.725c-.016-.015-.03-.031-.044-.047-.284-.333-.245-.833.09-1.118,20.68-17.605,25.487-31.321,25.533-31.458.14-.415.59-.638,1.005-.498.414.14.638.589.498,1.003-.193.573-4.948,14.232-26.008,32.16-.317.27-.784.247-1.073-.042Z" fill="url(#_É_πÌÚ_·ÂÁ_Ì_Á_Ë_29128)"/>
    <path d="M98.081,53.522c-.028-.028-.053-.057-.077-.089-.26-.352-.187-.848.165-1.109,22.178-16.457,23.544-30.695,23.555-30.837.034-.436.415-.763.851-.729.436.034.763.412.73.848-.045.606-1.361,15.05-24.191,31.991-.32.238-.76.198-1.033-.075Z" fill="url(#_É_πÌÚ_·ÂÁ_Ì_Á_Ë_29129)"/>
    <path d="M83.632,37.784c-.296-.296-.312-.775-.029-1.089,18.465-20.629,30.103-27.249,30.589-27.522.382-.214.864-.076,1.078.305.214.382.077.865-.305,1.079-.117.066-11.922,6.796-30.181,27.195-.293.327-.793.355-1.119.062-.012-.009-.023-.02-.033-.03Z" fill="url(#_É_πÌÚ_·ÂÁ_Ì_Á_Ë_291210)"/>
    <path d="M90.224,44.375c-.011-.01-.021-.021-.031-.033-.293-.325-.265-.827.062-1.119,20.432-18.29,27.129-30.065,27.195-30.182.214-.382.696-.519,1.078-.305.382.212.52.696.306,1.078-.271.487-6.893,12.124-27.522,30.59-.315.282-.793.266-1.089-.03Z" fill="url(#_É_πÌÚ_·ÂÁ_Ì_Á_Ë_291211)"/>
    <path d="M77.298,32.175c-.278-.279-.312-.728-.063-1.048C95.074,8.227,109.593,6.377,110.202,6.31c.436-.048.827.265.876.7.048.435-.265.826-.699.875h0c-.143.017-14.517,1.91-31.893,24.217-.269.346-.768.406-1.113.138-.026-.02-.051-.042-.074-.065Z" fill="url(#_É_πÌÚ_·ÂÁ_Ì_Á_Ë_291212)"/>
    <path d="M72.2,28.252c-.244-.243-.308-.627-.134-.943,6.277-11.38,13.826-17.21,19.051-20.095,5.707-3.152,9.892-3.581,10.067-3.598.436-.042.823.279.865.714.042.436-.278.822-.713.865-.055.005-4.108.439-9.534,3.453-5.02,2.789-12.277,8.423-18.348,19.428-.211.383-.693.522-1.077.311-.067-.036-.126-.082-.177-.134Z" fill="url(#_É_πÌÚ_·ÂÁ_Ì_Á_Ë_291213)"/>
    <path d="M95.845,50.722c-.023-.023-.045-.047-.065-.074-.269-.346-.207-.844.139-1.113,22.377-17.432,24.2-31.749,24.216-31.892.048-.435.44-.749.875-.7.436.048.749.44.701.875-.068.609-1.917,15.128-24.818,32.967-.319.25-.769.215-1.048-.063Z" fill="url(#_É_πÌÚ_·ÂÁ_Ì_Á_Ë_291214)"/>
    <path d="M99.768,55.82c-.051-.051-.096-.11-.134-.178-.212-.383-.072-.865.312-1.077,11.005-6.07,16.639-13.328,19.428-18.347,3.02-5.435,3.448-9.494,3.452-9.534.043-.436.431-.754.865-.712.436.042.754.428.713.864-.016.175-.446,4.361-3.597,10.067-2.886,5.227-8.715,12.774-20.095,19.051-.317.175-.7.11-.944-.133Z" fill="url(#_É_πÌÚ_·ÂÁ_Ì_Á_Ë_291215)"/>
    <path d="M86.949,41.099c-.309-.309-.309-.811,0-1.121l28.945-28.944c.31-.309.812-.309,1.122,0s.309.811,0,1.121l-28.945,28.944c-.309.309-.811.309-1.122,0Z" fill="url(#_É_πÌÚ_·ÂÁ_Ì_Á_Ë_291216)"/>
  </g>
  <g opacity=".5">
    <g mask="url(#mask)">
      <path d="M114.936,49.455c-11.69,11.69-22.664,6.481-32.744-3.598-9.542-9.542-16.561-19.783-3.599-32.744,12.386-12.387,28.692-10.688,37.861-1.518,9.169,9.169,10.742,25.6-1.518,37.861Z" fill="url(#_É_πÌÚ_·ÂÁ_Ì_Á_Ë_2911)"/>
    </g>
  </g>
  <path d="M94.66,59.608c-6.734,0-13.308-2.563-18.483-7.737-5.143-5.144-8.002-11.727-8.051-18.537-.054-7.502,3.255-14.805,9.57-21.119,13.371-13.371,30.41-10.762,39.655-1.518,4.853,4.854,7.641,11.657,7.649,18.667.007,7.616-3.248,15.07-9.167,20.989h0c-6.15,6.149-13.758,9.255-21.173,9.255ZM98.588,5.53c-6.339,0-13.112,2.494-19.098,8.48-5.824,5.822-8.876,12.499-8.827,19.306.045,6.14,2.64,12.092,7.309,16.76,10.006,10.008,25.178,9.37,36.066-1.518,6.972-6.971,8.429-14.284,8.424-19.191-.006-6.342-2.523-12.493-6.904-16.875-4.268-4.268-10.383-6.962-16.97-6.962ZM114.936,49.456h.015-.015Z" fill="#5e5e5e"/>
  <g>
    <g opacity="0">
      <path d="M122.874,36.01c-1.221,4.663-3.787,9.293-7.938,13.444-11.69,11.69-27.781,11.599-37.861,1.519"/>
    </g>
    <path d="M94.661,59.609c-6.735,0-13.309-2.563-18.484-7.738-.495-.496-.495-1.3,0-1.795.495-.494,1.3-.494,1.795,0,10.008,10.011,25.177,9.371,36.066-1.518,3.809-3.808,6.369-8.139,7.608-12.869.178-.677.868-1.081,1.548-.906.679.178,1.084.871.906,1.549-1.355,5.172-4.137,9.889-8.269,14.021-6.15,6.149-13.758,9.256-21.172,9.256Z" fill="#333"/>
  </g>
  <path d="M82.921,45.127c-10.05-10.049-16.263-14.019-16.263-14.019C54.174,47.461,12.416,95.797,6.206,103.664c-.586.741-.808,1.707-.585,2.626.444,1.831,1.873,5.208,6.402,9.736,4.509,4.509,7.876,5.945,9.712,6.396.925.227,1.899-.003,2.642-.598,7.843-6.275,56.209-47.947,72.564-60.434,0,0-3.971-6.213-14.02-16.263Z" fill="url(#_É_πÌÚ_·ÂÁ_Ì_Á_Ë_2910)"/>
  <g opacity=".45">
    <path d="M96.94,61.39c-16.354,12.489-64.048,53.485-71.889,59.763-.745.592-1.72.823-2.641.596-1.792-.442-4.817-2.041-9.164-6.296,3.376,3.262,6.277,3.935,7.791,4.157.787.115,1.657-.172,2.359-.757,7.398-6.174,54.425-47.963,69.804-60.319,0,0-3.352-5.061-11.211-12.921-7.861-7.859-12.249-10.54-12.249-10.54-12.351,15.379-54.438,62.162-60.558,69.578-.576.697-.857,1.561-.744,2.341.215,1.508.883,4.423,4.157,7.808-4.272-4.361-5.866-7.395-6.299-9.183-.222-.917,0-1.883.586-2.625,6.207-7.867,47.294-55.528,59.778-71.883,0,0,6.213,3.971,16.263,14.019,10.051,10.051,14.019,16.263,14.019,16.263Z" fill="#fff"/>
  </g>
  <g opacity=".15">
    <path d="M28.193,118.751c-1.893,1.588-3.351,2.795-4.264,3.523-.744.593-1.72.823-2.641.597-1.837-.451-4.981-2.11-9.49-6.62-4.528-4.527-6.183-7.68-6.624-9.512-.222-.917,0-1.884.585-2.626.729-.926,1.953-2.411,3.561-4.342-.327.641-.399,1.413-.177,2.173.547,1.843,2.162,5.284,6.921,10.042,4.738,4.739,8.167,6.359,10.017,6.914.735.22,1.484.157,2.112-.148Z"/>
  </g>
  <g>
    <g opacity="0">
      <path d="M82.921,45.127c-10.05-10.049-16.263-14.019-16.263-14.019C54.174,47.461,12.416,95.797,6.206,103.664c-.586.741-.808,1.707-.585,2.626.444,1.831,2.097,4.983,6.626,9.512s7.651,6.17,9.487,6.62c.925.227,1.899-.003,2.642-.598,7.843-6.275,56.209-47.947,72.564-60.434,0,0-3.971-6.213-14.02-16.263Z"/>
    </g>
    <path d="M22.437,123.774c-.336,0-.674-.039-1.004-.12-1.89-.463-5.174-2.045-10.083-6.955-4.922-4.922-6.502-8.214-6.961-10.11-.314-1.298-.015-2.651.822-3.71,2.287-2.897,9.2-11.054,17.952-21.383,14.598-17.224,34.592-40.815,42.487-51.158.399-.525,1.135-.655,1.691-.299.258.166,6.444,4.16,16.477,14.192,10.032,10.032,14.027,16.219,14.192,16.478.355.556.225,1.291-.299,1.691-10.74,8.199-35.261,28.967-53.165,44.131-9.32,7.894-16.681,14.128-19.377,16.284-.782.627-1.756.96-2.733.96ZM66.931,32.835c-8.38,10.829-27.649,33.566-41.833,50.302-8.737,10.309-15.636,18.452-17.896,21.313-.35.444-.477,1.007-.348,1.543.252,1.041,1.37,3.993,6.291,8.913,4.731,4.732,7.602,5.968,8.892,6.285.53.131,1.109-.004,1.549-.356,2.667-2.134,10.016-8.359,19.322-16.239,17.413-14.748,41.078-34.79,52.307-43.476-1.493-2.093-5.604-7.508-13.191-15.093-7.585-7.587-12.999-11.698-15.093-13.191Z" fill="#494949"/>
  </g>
  <g>
    <g opacity="0">
      <path d="M5.621,106.29c.444,1.831,2.097,4.983,6.626,9.512s7.651,6.17,9.487,6.62c.925.227,1.899-.003,2.643-.598,7.842-6.275,56.208-47.947,72.564-60.434,0,0-3.97-6.213-14.02-16.263-10.049-10.049-16.263-14.019-16.263-14.019"/>
    </g>
    <path d="M22.437,123.774c-.336,0-.674-.039-1.004-.12-1.89-.463-5.174-2.045-10.083-6.955-4.922-4.922-6.502-8.214-6.961-10.11-.166-.68.253-1.367.933-1.531.688-.171,1.367.253,1.532.933.252,1.041,1.37,3.994,6.291,8.914,4.731,4.732,7.602,5.968,8.892,6.285.53.131,1.108-.004,1.549-.356,2.666-2.134,10.016-8.359,19.322-16.239,17.413-14.748,41.078-34.79,52.307-43.476-1.493-2.093-5.604-7.508-13.191-15.093-9.809-9.81-15.987-13.81-16.048-13.849-.591-.378-.762-1.162-.385-1.752.377-.59,1.161-.761,1.751-.386.258.166,6.444,4.16,16.477,14.192,10.032,10.032,14.027,16.219,14.192,16.478.355.556.225,1.291-.299,1.691-10.74,8.199-35.261,28.967-53.165,44.131-9.32,7.894-16.681,14.128-19.377,16.284-.782.627-1.756.96-2.733.96Z" fill="#111"/>
  </g>
  <g>
    <g mask="url(#mask-2)">
      <path d="M52.329,76.333c-1.767-1.768-3.143-3.389-4.131-4.654-1.498-1.917-1.414-4.592.198-6.362,6.744-7.397,12.896-13.198,15.963-15.997,1.858-1.696,4.707-1.685,6.628.025,2.498,2.223,4.814,4.518,6.676,6.362.819.812,1.527,1.513,2.147,2.109,3.216,3.078,1.069,5.427-.083,6.688l-.109.119c-5.594,6.137-12.395,12.578-15.951,15.871-1.768,1.637-4.467,1.721-6.416.196h0c-1.886-1.475-3.526-2.962-4.921-4.356ZM58.031,79.689l.002.003-.002-.003ZM78.193,59.784c-.044-.045-.09-.09-.139-.136-.636-.61-1.351-1.318-2.178-2.137-1.839-1.823-4.129-4.093-6.577-6.269-.947-.844-2.336-.863-3.231-.047-3.034,2.77-9.123,8.51-15.798,15.833-.777.852-.808,2.151-.074,3.09,1.682,2.153,4.543,5.388,8.616,8.574h0c.963.754,2.279.728,3.129-.058,3.527-3.265,10.27-9.65,15.801-15.718l.112-.123c1.206-1.319,1.598-1.749.339-3.008Z" fill="url(#_É_πÌÚ_·ÂÁ_Ì_Á_Ë_2909)"/>
    </g>
    <path d="M59.316,78.73c-5.199-3.822-8.512-7.898-10.023-9.985-.58-.8-.522-1.898.142-2.632,7.452-8.236,14.227-14.527,17.023-17.048.776-.7,1.953-.721,2.747-.041,4.35,3.724,8.021,7.762,9.818,9.833.69.795.686,1.977-.016,2.76-6.05,6.748-13.998,14.187-17.027,16.975-.739.68-1.853.731-2.663.136Z" fill="#1c1c1c"/>
    <path d="M62.556,74.868c-4.099-3.353-8.477-8.072-9.38-9.365-.163-.234-.157-.532.012-.723,6.218-7.031,11.96-12.157,13.43-13.441.209-.182.537-.169.774.032,4.416,3.732,8.158,7.974,9.294,9.298.205.239.222.571.037.783-4.836,5.586-11.834,11.972-13.428,13.411-.194.176-.512.191-.739.005Z" fill="url(#_É_πÌÚ_·ÂÁ_Ì_Á_Ë_2908)"/>
    <g>
      <g opacity="0">
        <path d="M62.556,74.868c-4.099-3.353-8.477-8.072-9.38-9.365-.163-.234-.157-.532.012-.723,6.218-7.031,11.96-12.157,13.43-13.441.209-.182.537-.169.774.032,4.416,3.732,8.158,7.974,9.294,9.298.205.239.222.571.037.783-4.836,5.586-11.834,11.972-13.428,13.411-.194.176-.512.191-.739.005Z"/>
      </g>
      <path d="M62.928,75.95c-.344,0-.69-.115-.972-.344,0,0-.001,0-.002-.001-4.105-3.359-8.584-8.164-9.557-9.556-.417-.595-.383-1.376.08-1.899,6.21-7.023,11.915-12.129,13.515-13.526.567-.495,1.415-.485,2.014.022,4.501,3.804,8.335,8.161,9.402,9.405.517.601.531,1.453.034,2.026-4.786,5.526-11.55,11.725-13.51,13.493-.28.254-.641.382-1.005.382ZM54.114,65.171c1.091,1.416,5.027,5.629,8.796,8.756,1.815-1.646,8.294-7.603,12.875-12.846-1.227-1.416-4.716-5.322-8.795-8.802-1.842,1.623-7.117,6.407-12.877,12.893Z" fill="#494948"/>
    </g>
    <g>
      <g opacity="0">
        <line x1="61.126" y1="79.065" x2="62.557" y2="74.868"/>
      </g>
      <path d="M61.127,80.016c-.102,0-.206-.016-.307-.051-.497-.17-.763-.71-.593-1.207l1.429-4.197c.169-.497.706-.766,1.208-.594.497.169.763.71.594,1.207l-1.43,4.197c-.135.395-.504.645-.9.645Z" fill="#595959"/>
    </g>
    <g>
      <g opacity="0">
        <line x1="48.902" y1="67.364" x2="53.176" y2="65.503"/>
      </g>
      <path d="M48.903,68.315c-.368,0-.717-.214-.873-.572-.21-.482.01-1.042.493-1.252l4.275-1.861c.482-.208,1.043.012,1.252.493.21.482-.011,1.043-.493,1.252l-4.275,1.861c-.123.053-.252.079-.378.079Z" fill="#494948"/>
    </g>
    <g>
      <g opacity="0">
        <path d="M76.687,60.669c.206.239.222.57.037.782-4.836,5.586-11.834,11.973-13.428,13.412-.194.176-.512.191-.738.005-2.288-1.872-4.664-4.169-6.473-6.059"/>
      </g>
      <path d="M62.928,75.95c-.344,0-.69-.115-.973-.345-2.736-2.239-5.283-4.806-6.558-6.137-.364-.379-.351-.981.028-1.345s.981-.352,1.345.028c1.207,1.26,3.577,3.651,6.141,5.775,1.818-1.65,8.317-7.626,12.902-12.878-.163-.374-.071-.823.253-1.102.401-.343,1-.295,1.342.103.515.601.53,1.453.034,2.024-4.913,5.673-12.116,12.237-13.511,13.495-.28.254-.641.382-1.005.382ZM75.964,61.288h.016-.016Z" fill="#5b5b5b"/>
    </g>
    <g>
      <g opacity="0">
        <path d="M59.316,78.73c-5.199-3.822-8.512-7.898-10.023-9.985-.58-.8-.522-1.898.142-2.632,7.452-8.236,14.227-14.527,17.023-17.048.776-.7,1.953-.721,2.747-.041,4.35,3.724,8.021,7.762,9.818,9.833.69.795.686,1.977-.016,2.76-6.05,6.748-13.998,14.187-17.027,16.975-.739.68-1.853.731-2.663.136Z"/>
      </g>
      <path d="M60.568,80.408c-.701,0-1.405-.217-2.004-.657h0c-5.338-3.923-8.744-8.114-10.3-10.263-.926-1.278-.83-3.056.228-4.226,7.569-8.366,14.489-14.773,17.114-17.139,1.248-1.126,3.149-1.153,4.421-.063,4.412,3.777,8.128,7.866,9.951,9.966,1.107,1.275,1.095,3.184-.028,4.438-6.056,6.754-13.984,14.182-17.113,17.062-.636.584-1.451.881-2.27.881ZM60.067,77.708c.322.237.765.216,1.052-.047,3.101-2.855,10.959-10.216,16.942-16.889.272-.304.273-.769.002-1.082-1.777-2.048-5.397-6.032-9.684-9.702-.306-.264-.768-.253-1.072.019-2.596,2.341-9.442,8.678-16.933,16.957-.259.287-.282.723-.055,1.037,1.469,2.029,4.689,5.988,9.747,9.707h0Z" fill="#111"/>
    </g>
  </g>
  <g opacity=".3">
    <g>
      <g opacity="0">
        <path d="M65.133,71.891l-8.899-8.9c-.781-.781-.781-2.046,0-2.828l8.899-8.899c.749-.75,1.965-.75,2.714,0l8.956,8.956c.749.749.749,1.964,0,2.714l-8.956,8.957c-.749.749-1.965.749-2.714,0Z"/>
      </g>
      <path d="M66.491,73.405c-.766,0-1.489-.299-2.031-.842l-8.899-8.899c-1.149-1.151-1.149-3.023,0-4.172l8.899-8.9c1.12-1.12,2.941-1.12,4.061,0l8.956,8.955c.541.542.842,1.263.842,2.03s-.3,1.489-.843,2.031l-8.955,8.955c-.542.542-1.263.842-2.03.842ZM66.491,51.654c-.248,0-.495.094-.684.283l-8.899,8.9c-.408.408-.408,1.073,0,1.482l8.899,8.899h0c.366.366,1.003.366,1.369,0l8.955-8.956c.184-.183.285-.426.285-.685s-.101-.501-.284-.684l-8.956-8.956c-.189-.189-.437-.283-.684-.283Z"/>
    </g>
  </g>
  <g>
    <path d="M66.613,70.679l-9.224-9.224c-.676-.675-.676-1.771,0-2.446l9.224-9.224c.676-.676,1.771-.676,2.447,0l9.224,9.224c.676.675.676,1.771,0,2.446l-9.224,9.224c-.676.676-1.771.676-2.447,0Z" fill="url(#_É_πÌÚ_·ÂÁ_Ì_Á_Ë_2907)"/>
    <g>
      <g opacity="0">
        <path d="M66.479,70.546l-8.899-8.9c-.781-.781-.781-2.046,0-2.827l8.899-8.9c.75-.749,1.965-.749,2.714,0l8.956,8.956c.75.749.75,1.965,0,2.714l-8.956,8.956c-.749.749-1.964.749-2.714,0Z"/>
      </g>
      <path d="M67.836,72.06c-.766,0-1.488-.3-2.03-.841h0l-8.899-8.9c-1.149-1.15-1.149-3.022,0-4.172l8.899-8.899c1.084-1.084,2.976-1.085,4.06,0l8.956,8.955c.542.542.842,1.263.842,2.03s-.3,1.489-.842,2.03l-8.956,8.956c-.542.541-1.263.841-2.03.841ZM67.152,69.873c.366.365,1.003.365,1.369,0l8.956-8.956c.183-.182.284-.425.284-.684s-.101-.502-.283-.684l-8.957-8.956c-.366-.366-1.003-.366-1.369,0l-8.899,8.9c-.408.408-.408,1.073,0,1.481l8.899,8.9Z" fill="#828282"/>
    </g>
    <g>
      <g opacity="0">
        <path d="M78.104,61.636l-8.926,8.926c-.741.741-1.942.741-2.682,0l-8.926-8.926c-.775-.775-.775-2.031,0-2.806"/>
      </g>
      <path d="M67.836,72.069c-.76,0-1.475-.296-2.014-.835l-8.926-8.926c-.555-.555-.86-1.292-.86-2.076s.306-1.522.861-2.075c.371-.372.975-.371,1.345,0,.371.371.371.973,0,1.345-.194.195-.302.453-.302.73s.108.535.303.73l8.926,8.926c.358.358.979.357,1.337,0l8.926-8.926c.373-.371.976-.371,1.346,0,.371.371.371.974,0,1.346l-8.926,8.926c-.537.539-1.253.835-2.014.835Z" fill="#6b6b6b"/>
    </g>
    <path d="M67.424,67.817l-7.173-7.173c-.228-.228-.228-.597,0-.825l7.173-7.173c.227-.228.597-.228.825,0l7.172,7.173c.227.228.227.597,0,.825l-7.172,7.173c-.228.228-.598.228-.825,0Z" fill="url(#_É_πÌÚ_·ÂÁ_Ì_Á_Ë_2906)"/>
  </g>
  <g opacity=".5">
    <path d="M97.165,61.166c-1.001.763-2.122,1.637-3.344,2.604-1.087-1.586-5.238-7.333-13.724-15.819-8.488-8.488-14.242-12.641-15.82-13.726.968-1.22,1.843-2.341,2.606-3.341,0,0,6.214,3.972,16.263,14.02,10.051,10.051,14.02,16.263,14.02,16.263Z"/>
  </g>
  <path d="M97.599,62.497l5.032-3.876s-4.575-7.535-15.121-18.082c-10.742-10.742-18.082-15.121-18.082-15.121l-3.876,5.032s8.173,5.931,17.145,14.903c9.779,9.779,14.902,17.144,14.902,17.144Z" fill="url(#_É_πÌÚ_·ÂÁ_Ì_Á_Ë_2905)"/>
  <g opacity=".4">
    <g>
      <g opacity="0">
        <path d="M102.632,58.62c-16.353-20.571-32.793-30.883-32.793-30.883,0,0-1.668,1.388-3.406,3.146"/>
      </g>
      <path d="M102.633,59.889c-.373,0-.743-.164-.994-.479-14.023-17.641-28.265-27.773-31.698-30.086-.634.558-1.612,1.446-2.605,2.451-.492.499-1.295.503-1.794.01-.498-.493-.503-1.295-.01-1.794,1.761-1.781,3.425-3.171,3.496-3.229.422-.351,1.022-.391,1.486-.1.166.104,16.813,10.664,33.112,31.168.436.549.345,1.346-.204,1.783-.233.185-.512.276-.789.276Z" fill="#fff"/>
    </g>
  </g>
  <g>
    <g opacity="0">
      <path d="M97.599,62.497l5.032-3.876s-4.575-7.535-15.121-18.082c-10.742-10.742-18.082-15.121-18.082-15.121l-3.876,5.032s8.173,5.931,17.145,14.903c9.779,9.779,14.902,17.144,14.902,17.144Z"/>
    </g>
    <path d="M97.599,63.765c-.064,0-.129-.004-.193-.015-.343-.053-.65-.244-.848-.529-.05-.073-5.185-7.4-14.759-16.973-8.79-8.79-16.911-14.713-16.992-14.773-.278-.201-.461-.506-.511-.846-.049-.339.042-.684.251-.956l3.876-5.033c.392-.509,1.104-.644,1.655-.314.305.182,7.598,4.584,18.328,15.314,10.533,10.534,15.119,18.006,15.308,18.32.336.552.202,1.268-.309,1.664l-5.033,3.876c-.223.172-.496.263-.774.263ZM67.341,30.206c2.504,1.909,9.169,7.167,16.252,14.249,7.693,7.694,12.484,13.842,14.265,16.241l3.07-2.366c-1.564-2.326-6.145-8.722-14.317-16.893-8.319-8.321-14.598-12.797-16.889-14.324l-2.382,3.092Z" fill="#7f7f7f"/>
  </g>
  <g opacity=".3">
    <path d="M72.704,20.545s19.715,12.119,34.579,34.579c0,0,4.081-3.109,6.61-6.607,0,0-11.612-19.525-34.669-34.632,0,0-3.827,2.917-6.52,6.66Z"/>
  </g>
  <g>
    <path d="M74.676,16.582s21.419,14.4,36.792,36.792c0,0,4.112-3.079,6.61-6.607,0,0-12.608-20.52-36.887-36.849,0,0-3.856,2.887-6.515,6.664Z" fill="url(#_É_πÌÚ_·ÂÁ_Ì_Á_Ë_2904)"/>
    <g opacity=".5">
      <g>
        <g opacity="0">
          <path d="M75.688,17.289s2.385-3.261,5.529-4.765c0,0,16.624,9.706,36.86,34.243"/>
        </g>
        <path d="M118.077,48.035c-.366,0-.729-.157-.98-.461-17.726-21.494-32.813-31.617-35.931-33.59-2.519,1.445-4.434,4.027-4.455,4.056-.414.563-1.207.687-1.772.272-.564-.414-.687-1.206-.274-1.771.105-.144,2.612-3.538,6.005-5.162.38-.18.825-.163,1.187.049.687.401,17.051,10.102,37.199,34.532.446.541.369,1.34-.172,1.786-.236.195-.522.29-.806.29Z" fill="#fff"/>
      </g>
    </g>
    <g>
      <g opacity="0">
        <path d="M74.676,16.582s21.419,14.4,36.792,36.792c0,0,4.112-3.079,6.61-6.607,0,0-12.608-20.52-36.887-36.849,0,0-3.856,2.887-6.515,6.664Z"/>
      </g>
      <path d="M111.467,54.641c-.069,0-.138-.005-.206-.016-.341-.057-.644-.25-.841-.534-15.048-21.92-36.241-36.314-36.452-36.457-.284-.191-.478-.487-.54-.822-.062-.336.014-.682.21-.961,2.742-3.897,6.629-6.827,6.793-6.95.433-.323,1.021-.337,1.467-.037,24.228,16.295,37.132,37.03,37.259,37.237.266.433.248.983-.046,1.398-2.582,3.649-6.71,6.758-6.885,6.889-.22.165-.487.252-.76.252ZM76.475,16.295c4.501,3.223,21.99,16.388,35.259,35.24,1.204-1.003,3.233-2.813,4.799-4.82-2.444-3.705-14.527-21.041-35.281-35.223-1.041.859-3.056,2.635-4.777,4.804Z" fill="#7f7f7f"/>
    </g>
    <g opacity=".6">
      <g>
        <g opacity="0">
          <path d="M74.676,16.582s21.419,14.4,36.792,36.792"/>
        </g>
        <path d="M111.467,54.642c-.404,0-.8-.193-1.047-.551-15.048-21.92-36.241-36.314-36.452-36.457-.582-.392-.736-1.18-.345-1.761.39-.583,1.179-.735,1.761-.346.216.146,21.797,14.795,37.13,37.128.396.577.249,1.367-.329,1.764-.219.15-.468.223-.717.223Z" fill="#262626"/>
      </g>
    </g>
  </g>
</svg>