<?xml version="1.0" encoding="UTF-8"?>
<svg id="Layer_1" xmlns="http://www.w3.org/2000/svg" version="1.1" viewBox="0 0 128 128">
  <!-- Generator: Adobe Illustrator 29.5.1, SVG Export Plug-In . SVG Version: 2.1.0 Build 141)  -->
  <path d="M31.613,29.877c3.458-.962,8.778-4.093,21.917-1.958,6.009.977,10.352-2.896,14.917.003,4.029,2.56,8.061,8.029,11.675,10.094,4.08,2.332,4.488,7.298-2.792,8.997-7.032,1.64-8.23-3.394-13.27-5.427-3.234-1.305-7.816.33-4.213,3.823,0,0,7.053,12.227-14.808,9.401-21.862-2.826-23.795-22.049-13.426-24.932Z" fill="#fcce2c"/>
  <path d="M77.522,47.133c-1.326.154-2.561.336-3.761.246l-.511-.319s6.588-1.063,5.196-4.448c-.875-2.128-4.138-5.074-9.493-10.623-3.752-3.888-11.433.446-21.45-4.328-.065-.032-.14-.042-.21-.061,1.855.024,3.925.12,6.236.319,4.193.36,11.433-2.187,14.737.145,3.939,2.781,8.025,7.41,11.968,10.011,3.562,2.35,4.898,8.173-2.713,9.057Z" fill="#ffd75d"/>
  <g>
    <g opacity=".5">
      <path d="M35.208,29.792s3.641,1.354,5.894,3.844c1.452,1.607,4.892,4.365,11.682,7.727,2.664,1.319,6.265,4.346,6.265,4.346-1.186-2.582,2.203-4.209,2.203-4.209l5.909-2.528-18.599-11.345s-8.393.214-13.354,2.165Z" fill="#f09201"/>
    </g>
    <g opacity=".3">
      <path d="M35.208,29.792s3.641,1.354,5.894,3.844c1.452,1.607,4.892,4.365,11.682,7.727,2.664,1.319,6.265,4.346,6.265,4.346-1.186-2.582,2.203-4.209,2.203-4.209l5.909-2.528-18.599-11.345s-8.393.214-13.354,2.165Z" fill="#f09201"/>
    </g>
    <g opacity=".2">
      <path d="M35.208,29.792s3.641,1.354,5.894,3.844c1.452,1.607,4.892,4.365,11.682,7.727,2.664,1.319,6.265,4.346,6.265,4.346-1.186-2.582,2.203-4.209,2.203-4.209l5.909-2.528-18.599-11.345s-8.393.214-13.354,2.165Z" fill="#f09201"/>
    </g>
    <g opacity=".1">
      <path d="M35.208,29.792s3.641,1.354,5.894,3.844c1.452,1.607,4.892,4.365,11.682,7.727,2.664,1.319,6.265,4.346,6.265,4.346-1.186-2.582,2.203-4.209,2.203-4.209l5.909-2.528-18.599-11.345s-8.393.214-13.354,2.165Z" fill="#f09201"/>
    </g>
  </g>
  <g>
    <g opacity="0">
      <path d="M31.613,29.877c3.586-.161,8.654-3.094,21.916-1.958,4.971.426,8.493-2.036,14.218-.021,3.65,1.285,8.589,8.349,11.953,9.939,4.248,2.009,4.776,7.471-2.518,9.11-7.951,1.787-7.973-4.578-13.864-5.579-3.439-.585-7.075.547-3.471,4.04"/>
    </g>
    <path d="M74.615,48.315c-3.335,0-5.137-1.66-6.767-3.159-1.334-1.228-2.595-2.388-4.707-2.747-2.14-.364-3.533.088-3.713.442-.06.119.023.705,1.153,1.8.419.406.428,1.074.023,1.493-.405.419-1.075.428-1.493.024-1.66-1.609-2.187-3.046-1.566-4.271.888-1.753,3.759-1.941,5.95-1.569,2.728.464,4.351,1.957,5.783,3.275,1.971,1.814,3.528,3.247,7.673,2.315,2.857-.642,4.599-1.952,4.78-3.592.151-1.363-.823-2.75-2.482-3.534-1.729-.818-3.666-2.772-5.717-4.842-2.167-2.187-4.408-4.448-6.135-5.056-3.226-1.135-5.689-.739-8.296-.32-1.76.283-3.581.576-5.661.397-9.291-.796-14.518.449-17.976,1.272-1.495.357-2.676.638-3.804.689-.574.031-1.075-.425-1.101-1.007-.026-.583.424-1.076,1.007-1.102.927-.041,2.022-.302,3.409-.632,3.59-.855,9.014-2.147,18.645-1.322,1.821.156,3.436-.103,5.146-.378,2.754-.442,5.601-.899,9.332.413,2.184.769,4.599,3.206,6.934,5.562,1.832,1.848,3.726,3.759,5.121,4.419,2.486,1.175,3.93,3.403,3.678,5.675-.136,1.226-1.033,4.21-6.416,5.42-1.042.234-1.968.337-2.799.337Z" fill="#e17c00"/>
  </g>
  <path d="M112.396,62.336c4.413-3.456,9.946-4.116,11.391-6.672,1.525-2.698-7.719-23.707-14.85-25.877-3.381-1.029-7.258,4.648-15.553,5.613-11.325,2.636,5.761,28.891,19.012,26.935Z" fill="#fcce2c"/>
  <path d="M115.677,35.969c-2.963-2.346-6.555-3.488-9.02-1.762-1.657,1.161-6.484,3.817-11.213,4.591-.506-1.42-1.759-2.937-2.058-3.396,8.294-.965,12.17-6.644,15.552-5.612,2.172.663,4.541,3.072,6.739,6.18Z" fill="#ffd75d"/>
  <g>
    <g opacity="0">
      <path d="M92.394,35.662c8.531-1.011,13.162-6.903,16.543-5.875,7.131,2.17,16.375,23.178,14.85,25.877-1.445,2.555-6.978,3.215-11.391,6.672"/>
    </g>
    <path d="M112.397,63.391c-.313,0-.623-.138-.831-.405-.36-.458-.279-1.121.179-1.481,2.192-1.718,4.582-2.749,6.689-3.66,2.064-.892,3.846-1.662,4.434-2.701.257-.654-.482-4.472-3.46-10.649-3.574-7.416-7.806-12.793-10.779-13.698-1.153-.351-2.863.602-5.027,1.81-2.826,1.577-6.343,3.54-11.084,4.102-.579.07-1.104-.345-1.173-.924-.069-.579.345-1.104.924-1.172,4.326-.513,7.641-2.363,10.304-3.851,2.601-1.452,4.655-2.599,6.67-1.986,5.683,1.73,11.51,13.003,13.798,18.723,1.807,4.517,2.366,7.438,1.664,8.682-.938,1.657-3.021,2.558-5.435,3.6-1.991.86-4.247,1.834-6.224,3.383-.193.152-.422.225-.65.225Z" fill="#e17c00"/>
  </g>
  <path d="M88.058,84.258c15.606-8.081,23.55-20.459,24.338-21.922-5.717-.55-16.535-24.694-18.484-25.682-3.191-1.617-5.235-3.83-16.512-6.108-6.181-1.249-12.784-6.261-21.827-6.817,0,0-7.421,10.481,5.068,12.24,2.199.88,1.618,4.31,3.025,5.63-3.963,4.568-5.619,7.586-10.06,10.044,1.836,13.967,34.45,32.615,34.45,32.615Z" fill="#fcce2c"/>
  <g>
    <g opacity=".4">
      <path d="M112.397,62.338c-.612.479-1.343,6.122-8.98,8.207-3.917,4.048-8.388,10.105-15.359,13.715,0,0-16.651-10.159-28.281-22.431l2.3-21.896.297-2.829c4.18,2.073,7.599,4.194,10.807,6.254,6.021,3.867,11.297,7.521,19.451,10.237,3.55,1.182,8.559,8.611,13.169,8.819,3.783.17,3.469-2,6.235-3.218,3.11-1.37,12.134-4.063,11.556-6.8.682,2.143,1.011,3.252-.25,4.05-3.615,2.29-8.419,4.7-10.946,5.892Z" fill="#f09201"/>
    </g>
    <g opacity=".4">
      <path d="M112.397,62.338c-.612.479-1.343,6.122-8.98,8.207-3.917,4.048-8.388,10.105-15.359,13.715,0,0-16.651-10.159-28.281-22.431l2.3-21.896.297-2.829c12.024,5.963,16.657,12.685,30.783,15.652,3.661.769,7.579,7.982,12.189,8.189,3.784.17,3.82-2.315,6.585-3.532,3.11-1.37,11.75-4.272,11.172-6.766.682,2.144,1.5,5.001.24,5.799-3.615,2.29-8.419,4.7-10.946,5.892Z" fill="#f09201"/>
    </g>
    <g opacity=".3">
      <path d="M112.397,62.338c-.612.479-1.343,6.122-8.98,8.207-3.917,4.048-8.388,10.105-15.359,13.715,0,0-16.651-10.159-28.281-22.431l2.3-21.896.297-2.829c12.024,5.963,16.291,12.678,31.308,14.707,2.735.37,5.972,7.828,11.211,8.015,2.804.099,3.759-1.639,6.199-3.358,2.368-1.668,12.344-4.587,11.451-8.059.753,2.143,2.06,7.239.8,8.038-3.615,2.29-8.419,4.7-10.946,5.892Z" fill="#f09201"/>
    </g>
    <g opacity=".2">
      <path d="M112.397,62.338c-.612.479-1.343,6.122-8.98,8.207-3.917,4.048-8.388,10.105-15.359,13.715,0,0-16.651-10.159-28.281-22.431l2.3-21.896.297-2.829c12.024,5.963,16.881,12.636,31.692,13.763,2.752.21,4.151,7.17,10.686,7.874,3.428.37,3.573-2.523,6.129-4.022,2.499-1.465,11.925-4.727,11.068-7.499,1.312,1.863,2.654,8.429,1.394,9.227-3.615,2.29-8.419,4.7-10.946,5.892Z" fill="#f09201"/>
    </g>
    <g opacity=".15">
      <path d="M112.397,62.338c-.612.479-1.343,6.122-8.98,8.207-3.917,4.048-8.388,10.105-15.359,13.715,0,0-16.651-10.159-28.281-22.431l2.3-21.896.297-2.829c12.024,5.963,16.92,11.944,32.007,12.959,2.754.185,3.662,6.925,10.092,7.559,3.43.339,3.573-3.083,6.128-4.582,2.499-1.466,11.4-4.413,10.823-6.905,1.312,1.863,3.179,9.513,1.919,10.311-3.615,2.29-8.419,4.7-10.946,5.892Z" fill="#f09201"/>
    </g>
    <g opacity=".1">
      <path d="M112.397,62.338c-.612.479-1.343,6.122-8.98,8.207-3.917,4.048-8.388,10.105-15.359,13.715,0,0-16.651-10.159-28.281-22.431l2.3-21.896.297-2.829c12.024,5.963,17.201,12.189,32.916,11.35,2.756-.147,2.892,7.484,8.413,8.014,4.977.477,3.784-3.748,6.27-4.897,2.629-1.216,11.532-3.627,10.332-7.709,2.851,5.291,4.298,11.786,3.038,12.584-3.615,2.29-8.419,4.7-10.946,5.892Z" fill="#f09201"/>
    </g>
  </g>
  <g>
    <g opacity="0">
      <path d="M112.396,62.336c-1.098,1.429-2.22,8.619-13.455,7.937"/>
    </g>
    <path d="M100.418,71.375c-.493,0-1.006-.015-1.54-.047-.582-.035-1.025-.536-.99-1.118.035-.582.538-1.024,1.118-.99,8.697.526,10.751-3.875,11.855-6.24.251-.538.45-.964.698-1.287.355-.462,1.018-.549,1.48-.193.462.355.549,1.018.193,1.48-.107.14-.286.523-.459.894-1.158,2.48-3.501,7.501-12.356,7.501Z" fill="#e17c00"/>
  </g>
  <g>
    <g opacity="0">
      <path d="M57.468,35.664c3.694.791,7.806,4.817,4.75,8.18-1.319,1.452-4.09,4.222-6.993,6.992"/>
    </g>
    <path d="M55.226,51.891c-.279,0-.556-.11-.764-.327-.403-.421-.387-1.09.035-1.492,2.859-2.73,5.648-5.518,6.94-6.939.748-.822.964-1.68.661-2.621-.537-1.673-2.669-3.349-4.851-3.817-.57-.122-.933-.683-.812-1.253.122-.57.685-.933,1.253-.81,2.528.542,5.544,2.514,6.419,5.235.531,1.652.137,3.316-1.109,4.687-1.342,1.476-4.108,4.242-7.045,7.046-.204.195-.466.292-.728.292Z" fill="#e17c00"/>
  </g>
  <g display="none">
    <g>
      <path d="M68.239,85.206c-2.331-.59-9.09,4.189-12.985,8.786-1.713,2.02-1.581,5.88,2.598,7.42,4.095,1.51,10.168-4.012,11.983-5.394,14.388-10.952,1.908-9.925-1.596-10.812Z" fill="#fcce2c"/>
      <g opacity=".7">
        <path d="M68.239,85.206c-2.331-.59-9.09,4.189-12.985,8.786-1.713,2.02-1.581,5.88,2.598,7.42,4.095,1.51,10.168-4.012,11.983-5.394,14.388-10.952,1.908-9.925-1.596-10.812Z" fill="#f09201"/>
      </g>
    </g>
    <g opacity=".647">
      <g opacity=".5">
        <path d="M61.254,91.42c-2.809.057-5.104,1.6-5.931,2.971-2.111,3.492.125,5.835,2.71,6.565,2.612.746,5.262-.402,6.409-2.849,1.349-2.86.453-6.734-3.188-6.687Z" fill="#fcce2c"/>
      </g>
    </g>
    <g opacity=".647">
      <path d="M59.998,92.737c-1.831-.379-3.858.294-4.68,1.663-2.103,3.483.128,5.824,2.704,6.555,2.605.747,4.155.381,5.006-2.18.536-1.641.897-5.226-3.03-6.039Z" fill="#fcce2c"/>
    </g>
    <g>
      <g opacity="0">
        <path d="M68.239,85.206c-2.331-.59-9.09,4.189-12.985,8.786-1.713,2.02-1.581,5.88,2.598,7.42,4.095,1.51,10.168-4.012,11.983-5.394,14.388-10.952,1.908-9.925-1.596-10.812Z"/>
      </g>
      <path d="M59.37,102.726c-.646,0-1.278-.099-1.883-.323-2.175-.801-3.647-2.282-4.143-4.168-.449-1.704-.026-3.592,1.105-4.925,3.609-4.258,10.875-9.929,14.049-9.126h0c.506.128,1.303.22,2.146.317,2.792.323,6.266.724,6.919,3.103.606,2.207-1.58,5.061-7.089,9.254-.203.154-.461.363-.764.608-2.232,1.798-6.526,5.26-10.34,5.26ZM67.749,86.204c-1.807,0-7.624,3.673-11.69,8.471-.691.816-.949,1.974-.673,3.023.321,1.218,1.3,2.16,2.832,2.725,3.062,1.129,8.042-2.886,10.168-4.6.322-.26.595-.481.811-.644,6.338-4.824,6.449-6.59,6.332-7.015-.276-1.005-3.431-1.37-5.127-1.566-.954-.11-1.78-.205-2.422-.367h0c-.067-.017-.145-.026-.231-.026Z" fill="#e17c00"/>
    </g>
  </g>
  <g display="none">
    <g>
      <path d="M59.079,81.62c-5.487-2.89-13.921,5.424-17.647,9.823-2.71,3.199-2.724,6.857-1.006,8.402,2.467,2.217,6.813,1.548,9.532-.61,4.362-3.461,16.479-13.74,9.121-17.615Z" fill="#fcce2c"/>
      <g opacity=".7">
        <path d="M59.079,81.62c-5.487-2.89-13.921,5.424-17.647,9.823-2.71,3.199-2.724,6.857-1.006,8.402,2.467,2.217,6.813,1.548,9.532-.61,4.362-3.461,16.479-13.74,9.121-17.615Z" fill="#f09201"/>
      </g>
    </g>
    <g opacity=".567">
      <g opacity=".5">
        <path d="M49.972,88.404c-3.192-1.836-6.875,2.129-9.194,4.17-2.573,2.246-2.322,6.692.584,7.757,2.49.913,5.4.869,7.568-1.933,3.398-4.333,2.774-9.009,1.042-9.995Z" fill="#fcce2c"/>
      </g>
    </g>
    <g opacity=".567">
      <path d="M48.122,90.308c-2.734-1.374-5.025.225-7.344,2.267-2.573,2.246-2.322,6.692.584,7.757,2.49.913,4.659.981,6.575-2.002,1.36-2.115,2.226-6.993.185-8.022Z" fill="#fcce2c"/>
    </g>
    <g>
      <g opacity="0">
        <path d="M61.335,78.857c-5.487-2.89-10.854,4.927-19.904,12.586-3.201,2.709-3.321,6.45-1.105,8.392,2.495,2.187,6.153,2.647,10.442-1.45,10.338-9.876,17.923-15.655,10.566-19.529Z"/>
      </g>
      <path d="M44.487,102.537c-2.293,0-3.98-1.141-4.856-1.908-1.217-1.066-1.879-2.572-1.865-4.241.018-2.096,1.077-4.138,2.983-5.751,2.259-1.912,4.331-3.876,6.16-5.61,5.668-5.373,10.144-9.617,14.917-7.104,2.106,1.109,3.238,2.442,3.459,4.075.503,3.713-3.865,7.814-10.476,14.023-1.067,1.002-2.17,2.037-3.312,3.129-2.687,2.567-5.066,3.387-7.011,3.387ZM58.937,79.305c-2.762,0-5.9,2.82-10.576,7.254-1.849,1.752-3.944,3.739-6.249,5.69-1.408,1.192-2.224,2.708-2.235,4.158-.009,1.045.398,1.98,1.146,2.635,2.569,2.253,5.687,1.762,9.016-1.418,1.149-1.098,2.256-2.137,3.325-3.142,5.691-5.343,10.185-9.564,9.829-12.2-.123-.908-.892-1.722-2.35-2.491h0c-.625-.328-1.255-.485-1.906-.485Z" fill="#e17c00"/>
    </g>
    <g opacity="0">
      <g>
        <g opacity="0">
          <path d="M44.566,96.128s.371.569,1.922,1.343"/>
        </g>
        <path d="M46.488,98.527c-.158,0-.319-.035-.47-.111-1.678-.837-2.212-1.522-2.336-1.712l1.769-1.152s-.009-.016-.031-.045c.003.004.35.425,1.54,1.019.522.261.734.894.474,1.416-.185.37-.558.584-.945.584Z" fill="#e17c00"/>
      </g>
    </g>
  </g>
  <g display="none">
    <g>
      <path d="M47.399,79.768c-1.799-1.155-1.837-3.914-2.578-4.381-1.32-.832-3.413,1.486-9.125,6.428-3.736,3.232-14.855,12.289-7.972,16.6,4.972,3.114,11.675-5.187,14.375-7.055,2.655-1.836,10.143-8.62,9.74-8.842-1.376-.76-2.769-1.676-4.44-2.75Z" fill="#fcce2c"/>
      <g opacity=".7">
        <path d="M47.399,79.768c-1.799-1.155-1.837-3.914-2.578-4.381-1.32-.832-3.413,1.486-9.125,6.428-3.736,3.232-14.855,12.289-7.972,16.6,4.972,3.114,11.675-5.187,14.375-7.055,2.655-1.836,10.143-8.62,9.74-8.842-1.376-.76-2.769-1.676-4.44-2.75Z" fill="#f09201"/>
      </g>
    </g>
    <g opacity=".567">
      <g opacity=".5">
        <path d="M38.604,83.412c-5.189-3.755-18.06,12.222-10.232,15.132,3.686,1.37,9.224-3.12,10.799-6.289,2.528-5.14,1.165-7.597-.567-8.843Z" fill="#fcce2c"/>
      </g>
    </g>
    <g opacity=".567">
      <path d="M37.197,84.909c-5.189-3.755-16.653,10.725-8.825,13.635,3.686,1.37,8.26-1.865,9.503-5.178,1.808-4.664,1.054-7.213-.678-8.458Z" fill="#fcce2c"/>
    </g>
    <g>
      <g opacity="0">
        <path d="M47.399,79.768c-1.799-1.155-1.765-3.974-2.505-4.44-1.321-.832-3.125,1.248-9.644,6.312-5.361,4.164-13.29,12.146-8.064,16.495,4.63,3.853,9.057-1.483,14.842-6.715,3.266-2.952,10.215-8.679,9.812-8.902-1.376-.76-2.769-1.676-4.44-2.75Z"/>
      </g>
      <path d="M30.452,100.517c-1.304,0-2.614-.466-3.942-1.571-1.415-1.178-2.119-2.66-2.089-4.407.09-5.328,7.15-11.38,10.181-13.733,1.6-1.244,2.938-2.324,4.013-3.192,3.685-2.976,5.21-4.208,6.842-3.179.617.39.847,1.119,1.114,1.964.294.931.626,1.985,1.399,2.482h0l.635.409c1.383.891,2.578,1.66,3.745,2.306.311.172.519.486.556.84.078.749.09.865-6.206,6.302-1.43,1.235-2.909,2.512-3.963,3.467-.733.662-1.449,1.331-2.142,1.978-3.458,3.232-6.778,6.336-10.142,6.336ZM44.246,76.2c-.523,0-2.444,1.552-4.305,3.056-1.082.874-2.427,1.961-4.044,3.216-4.488,3.486-9.304,8.495-9.366,12.102-.018,1.091.417,1.99,1.329,2.749,3.17,2.637,6.203.073,11.293-4.684.698-.653,1.421-1.328,2.167-2.002,1.072-.97,2.56-2.255,3.999-3.498,1.669-1.442,3.806-3.286,4.91-4.333-.874-.523-1.774-1.103-2.768-1.744l-.633-.408c-1.415-.909-1.91-2.478-2.271-3.622-.09-.282-.207-.655-.294-.833-.006,0-.011,0-.017,0Z" fill="#e17c00"/>
    </g>
    <g opacity="0">
      <g>
        <g opacity="0">
          <path d="M42.306,88.071s.938.68,2.315.846"/>
        </g>
        <path d="M44.623,89.972c-.042,0-.086-.003-.129-.008-1.602-.194-2.689-.953-2.807-1.039-.472-.342-.577-1.002-.236-1.474.341-.47.997-.577,1.469-.239.024.016.772.529,1.828.657.579.07.991.596.921,1.175-.065.536-.52.929-1.046.929Z" fill="#e17c00"/>
      </g>
    </g>
  </g>
  <g display="none">
    <g>
      <path d="M34.379,66.909c-2.1,1.24-4.373,3.364-5.848,4.345-9.828,6.535-8.049,9.971-6.364,12.365,1.695,2.41,5.461,2.204,7.266,1.479,1.516-.609,4.159-3.081,5.668-4.442,1.745-1.574,4.919-4.424,6.418-5.436" fill="#fcce2c"/>
      <g opacity=".7">
        <path d="M34.379,66.909c-2.1,1.24-4.373,3.364-5.848,4.345-9.828,6.535-8.049,9.971-6.364,12.365,1.695,2.41,5.461,2.204,7.266,1.479,1.516-.609,4.159-3.081,5.668-4.442,1.745-1.574,4.919-4.424,6.418-5.436" fill="#f09201"/>
      </g>
    </g>
    <g opacity=".567">
      <g opacity=".5">
        <path d="M25.67,75.128c-1.913.568-3.569,2.639-4.187,4.083-.671,1.689.291,5.397,3.401,5.885,3.146.507,6.345-1.109,6.862-4.936.563-3.335-1.952-6.252-6.076-5.032Z" fill="#fcce2c"/>
      </g>
    </g>
    <g opacity=".567">
      <path d="M23.784,76.285c-1.34.486-1.683,1.482-2.301,2.925-.671,1.689.291,5.397,3.401,5.885,3.146.507,4.496-.708,5.623-4.411.862-2.819-2.665-5.835-6.724-4.399Z" fill="#fcce2c"/>
    </g>
    <g>
      <path d="M35.165,67.868c.518.721,4.49,5.038,5.847,6.282" fill="#ffd140"/>
      <g>
        <g opacity="0">
          <path d="M35.165,67.868c.518.721,4.49,5.038,5.847,6.282"/>
        </g>
        <path d="M41.011,75.206c-.255,0-.511-.092-.713-.278-1.369-1.255-5.407-5.632-5.991-6.444-.341-.474-.233-1.133.241-1.473.473-.34,1.132-.233,1.473.241.457.635,4.364,4.892,5.703,6.121.43.394.458,1.062.065,1.491-.208.227-.493.342-.778.342Z" fill="#e17c00"/>
      </g>
    </g>
    <g>
      <g opacity="0">
        <path d="M37.976,64.673c-2.979,1.768-7.358,5.003-9.284,6.292-10.372,6.943-7.64,11.348-6.77,12.527,1.845,2.501,5.689,2.235,7.707,1.201,1.454-.746,4.056-2.489,5.564-3.851,2.227-2.011,5.322-4.322,7.186-5.607"/>
      </g>
      <path d="M26.297,86.494c-1.924,0-3.94-.633-5.224-2.375-1.014-1.374-1.381-2.911-1.093-4.568.528-3.024,3.261-6.208,8.125-9.464.59-.394,1.418-.978,2.377-1.654,2.169-1.528,4.869-3.43,6.955-4.668.502-.298,1.149-.132,1.447.369.298.501.132,1.149-.369,1.447-2.016,1.196-4.678,3.072-6.817,4.579-.971.683-1.809,1.274-2.419,1.682-5.438,3.64-6.927,6.399-7.219,8.072-.188,1.081.045,2.047.712,2.951,1.432,1.942,4.68,1.758,6.377.888,1.363-.698,3.89-2.388,5.338-3.695,2.147-1.94,5.21-4.257,7.292-5.693.481-.33,1.138-.209,1.468.271.331.479.211,1.137-.27,1.468-2.025,1.397-5,3.646-7.076,5.521-1.593,1.438-4.28,3.233-5.79,4.007-.991.508-2.377.861-3.814.861Z" fill="#e17c00"/>
    </g>
    <g opacity=".02">
      <g>
        <g opacity="0">
          <path d="M26.708,83.631c.632.22,1.15.405,2.511.237"/>
        </g>
        <path d="M28.28,84.987c-.886,0-1.402-.179-1.906-.355-.55-.192-.849-.796-.657-1.346.192-.551.786-.845,1.336-.652l.015.005c.57.198.915.318,2.021.182.58-.071,1.105.339,1.177.918.072.578-.339,1.105-.918,1.177-.41.051-.761.072-1.068.072Z" fill="#e17c00"/>
      </g>
    </g>
  </g>
  <path d="M57.344,92.933c-7.117-1.973-15.029-5.357-23.117-13.232-8.087-7.874-12.612-14.402-17.973-19.627-5.36-5.226-11.791-5.092-12.059-7.966-1.534-16.444,9.915-26.071,13.534-27.543,1.461-.595,5.544,2.746,8.607,3.953,3.062,1.206,3.822,1.213,4.995,1.064,0,0,28.067,5.321,34.626,9.772,6.334,4.177,6.195,3.707,11.066,7.253,4.722,3.438,6.946,5.352,10.697,11.805,10.781,18.547-20.654,37.218-30.375,34.522Z" fill="#fcce2c"/>
  <path d="M57.344,92.933c9.721,2.696,20.882,6.025,22.995-.805,0,0,.621-5.495-4.304-6.287-3.483-.56-9.587-2.903-12.666-4.222" fill="#fcce2c"/>
  <path d="M7.45,35.358s6.62-7.737,10.858-6.849c4.237.889,5.548,3.686,14.222.066,0,0-4.449.959-8.344-1.569-3.896-2.529-5.497-3.428-9.276-.689-3.778,2.738-7.46,9.041-7.46,9.041Z" fill="#ffd75d"/>
  <g>
    <path d="M55.609,36.032c-4.869,9.263-9.354,10.846-12.372,11.191-4.52.517-8.639-.2-9.706-3.527-1.073-3.343,1.958-5.843,1.712-9.276-.23-3.195-4.751-4.887-8.643-4.848,0,0,14.816-2.206,18.462-2.021,3.646.185,10.548,8.48,10.548,8.48Z" fill="#fcce2c"/>
    <g opacity=".5">
      <path d="M55.609,36.032c-4.869,9.263-8.971,11.337-11.989,11.682-4.52.517-7.621-1.036-8.689-4.363-1.073-3.342,6.146-10.345,5.992-12.967-.131-2.247-.949-1.999-14.323-.812,0,0,14.816-2.206,18.462-2.021,3.646.185,10.548,8.48,10.548,8.48Z" fill="#f09201"/>
    </g>
    <g opacity=".3">
      <path d="M55.609,36.032c-4.869,9.263-9.183,11.616-12.201,11.961-4.519.517-8.052-.702-9.178-4.434-1.014-3.361,5.795-10.206,5.468-13.075-.207-1.815-5.326-.895-13.099-.912,0,0,14.816-2.206,18.462-2.021,3.646.185,10.548,8.48,10.548,8.48Z" fill="#f09201"/>
    </g>
    <g opacity=".2">
      <path d="M55.609,36.032c-4.869,9.263-9.359,11.895-12.376,12.24-4.52.517-8.368-.283-9.704-4.296-1.109-3.33,5.167-10.629,4.838-12.867-.341-2.313-6.34-.969-11.768-1.536,0,0,14.816-2.206,18.462-2.021,3.646.185,10.548,8.48,10.548,8.48Z" fill="#f09201"/>
    </g>
    <g opacity=".1">
      <path d="M55.609,36.032c-4.869,9.263-9.464,12.14-12.482,12.485-4.519.517-9.138-.007-10.473-4.3-1.043-3.352,4.46-9.112,4.451-12.553-.005-1.996-2.701-1.201-10.506-2.091,0,0,14.816-2.206,18.462-2.021,3.646.185,10.548,8.48,10.548,8.48Z" fill="#f09201"/>
    </g>
  </g>
  <g>
    <g opacity=".4">
      <path d="M9.621,32.062s-8.325,16.18-.663,19.557c3.661,1.614,7.053,3.314,9.189,4.721,1.464.965,5.184,6.379,9.557,10.635.744.724,4.181,3.572,6.927,4.236,8.288,2.005,5.379,10.151,10.95,9.485,12.238-1.464,8.262,7.392,11.549,6.809,8.384-1.487,10.553,8.865,22.517,4.346.067.322.924,8.582-19.97,1.483-3.969-1.349-15.326-3.83-27.433-15.637-12.108-11.807-13.734-17.459-19.18-20.122-5.445-2.663-8.244-2.515-9.009-6.425-.764-3.911.793-13.498,5.566-19.088Z" fill="#f09201"/>
    </g>
    <g opacity=".4">
      <path d="M9.621,32.062s-7.835,14.502-.173,17.878c3.661,1.614,7.122,2.824,9.259,4.232,1.464.965,5.254,7.289,9.627,11.545.744.723,4.075,4.001,6.787,4.795,9.477,2.775,5.558,9.465,11.16,9.135,11.818-.694,8.052,7.741,11.339,7.158,8.385-1.487,8.384,6.768,22.028,5.046.067.322.924,8.582-19.97,1.483-3.969-1.349-15.326-3.83-27.433-15.637-12.108-11.807-13.734-17.459-19.18-20.122-5.445-2.663-8.244-2.515-9.009-6.425-.764-3.911.793-13.498,5.566-19.088Z" fill="#f09201"/>
    </g>
    <g opacity=".3">
      <path d="M9.621,32.062s-6.735,12.714.317,15.989c6.887,3.199,7.682,2.404,9.818,3.812,1.466.965,4.117,7.554,9.208,11.615,2.297,1.833,4.532,4.115,6.983,5.74,5.713,3.789,8.029,8.477,10.962,9.014,9.301,1.701,9.092,7.471,11.411,7.595,7.419.394,10.377,6.103,21.328,6.025.207.252.924,8.582-19.97,1.483-3.969-1.349-15.326-3.83-27.433-15.637-12.108-11.807-13.734-17.459-19.18-20.122-5.445-2.663-8.244-2.515-9.009-6.425-.764-3.911.793-13.498,5.566-19.088Z" fill="#f09201"/>
    </g>
    <g opacity=".2">
      <path d="M9.621,32.062s-6.054,10.604,1.086,13.681c7.098,3.06,8.172,2.474,10.307,3.883,1.466.965,3.156,6.802,8.929,11.684,12.442,10.524,18.222,16.244,29.635,23.397,8.256,5.175,14.821,5.788,20.069,7.145-.072.672.924,8.582-19.97,1.483-3.969-1.349-15.326-3.83-27.433-15.637-12.108-11.807-13.734-17.459-19.18-20.122-5.445-2.663-8.244-2.515-9.009-6.425-.764-3.911.793-13.498,5.566-19.088Z" fill="#f09201"/>
    </g>
    <g opacity=".15">
      <path d="M9.621,32.062s-5.214,8.785,1.926,11.862c7.098,3.059,8.941,1.494,11.077,2.902,1.465.965,3.017,6.732,8.788,11.614,12.442,10.524,17.615,18.449,28.726,25.216,6.286,3.83,12.442,6.277,19.509,8.194-.072.672.924,8.582-19.97,1.483-3.969-1.349-15.326-3.83-27.433-15.637-12.108-11.807-13.734-17.459-19.18-20.122-5.445-2.663-8.244-2.515-9.009-6.425-.764-3.911.793-13.498,5.566-19.088Z" fill="#f09201"/>
    </g>
    <g opacity=".1">
      <path d="M9.621,32.062s-3.542,5.352,3.535,8.575c5.489,2.499,10.131.935,12.267,2.343,1.465.965.829,6.401,8.858,13.363,15.424,13.375,20.322,23.847,26.277,26.475,5.955,2.629,19.09,9.034,19.09,9.034,0,0,.924,8.582-19.97,1.483-3.969-1.349-15.326-3.83-27.433-15.637-12.108-11.807-13.734-17.459-19.18-20.122-5.445-2.663-8.244-2.515-9.009-6.425-.764-3.911.793-13.498,5.566-19.088Z" fill="#f09201"/>
    </g>
  </g>
  <g>
    <g opacity="0">
      <path d="M51.484,27.695c-10.806-.897-22.087,2.028-25.149.822-3.062-1.207-7.145-4.547-8.606-3.953-3.619,1.472-15.067,11.099-13.534,27.543.268,2.874,6.699,2.74,12.059,7.966,5.361,5.226,9.886,11.753,17.973,19.627,8.088,7.875,16,11.259,23.117,13.232,9.721,2.696,20.882,6.025,22.995-.805,0,0,.621-5.495-4.304-6.287-3.483-.56-9.587-2.903-12.666-4.222"/>
    </g>
    <path d="M73.271,97.214c-4.468,0-10.09-1.563-15.339-3.022l-.869-.241c-6.323-1.753-14.716-4.872-23.571-13.493-4.499-4.381-7.922-8.369-10.943-11.887-2.398-2.794-4.664-5.434-7.03-7.741-2.583-2.519-5.438-3.728-7.732-4.699-2.487-1.053-4.451-1.885-4.641-3.926-.854-9.158,2.253-15.97,5.01-20.072,3.058-4.551,6.901-7.62,9.177-8.547,1.375-.558,3.284.567,5.7,1.991,1.265.745,2.571,1.516,3.691,1.957,1.183.466,4.608.111,8.233-.265,4.783-.497,10.736-1.114,16.616-.627.581.048,1.013.558.964,1.139-.048.581-.56,1.011-1.139.965-5.684-.472-11.528.135-16.224.623-4.389.456-7.561.785-9.225.129-1.274-.503-2.655-1.316-3.989-2.103-1.305-.769-3.27-1.928-3.852-1.847-3.806,1.566-14.296,11.07-12.861,26.459.073.785,1.525,1.399,3.363,2.178,2.327.986,5.514,2.335,8.383,5.131,2.434,2.374,4.73,5.048,7.158,7.878,2.992,3.485,6.382,7.435,10.814,11.75,8.511,8.287,16.582,11.285,22.663,12.971l.87.242c8.895,2.473,18.968,5.274,20.802-.243.061-.76.17-4.454-3.432-5.032-3.656-.588-9.838-2.976-12.914-4.294-.536-.23-.784-.85-.554-1.386s.849-.785,1.386-.554c2.782,1.192,8.958,3.593,12.418,4.15,4.682.753,5.439,5.201,5.185,7.449-.007.065-.022.13-.04.193-1.102,3.561-4.142,4.773-8.076,4.773Z" fill="#e17c00"/>
  </g>
  <path d="M98.907,78.694s.21.019.556.015c1.139-.015,3.757-.287,5.29-2.331,2.318-3.092,1.161-8.18-3.451-13.464-4.611-5.284-15.588-10.291-23.882-15.872s-13.971-10.116-20.076-11.445" fill="#fcce2c"/>
  <g>
    <g opacity=".4">
      <path d="M97.495,60.726c8.733,5.74,1.038,12.455-3.77,10.772,0,0,1.666,1.214,3.186,3.574,1.52,2.359,1.681,4.145,4.611,3.362,2.93-.782,5.637-4.369,3.349-10.126-2.287-5.757-7.376-7.581-7.376-7.581Z" fill="#f09201"/>
    </g>
    <g opacity=".3">
      <path d="M97.495,60.726c7.124,4.97.163,11.546-4.33,10.283,0,0,2.226,1.703,3.746,4.063,1.52,2.359,1.681,4.145,4.611,3.362,2.93-.782,5.637-4.369,3.349-10.126-2.287-5.757-7.376-7.581-7.376-7.581Z" fill="#f09201"/>
    </g>
    <g opacity=".2">
      <path d="M97.495,60.726c5.655,3.606-.362,10.496-5.1,9.653,0,0,2.996,2.334,4.515,4.693,1.52,2.359,1.681,4.145,4.611,3.362,2.93-.782,5.637-4.369,3.349-10.126-2.287-5.757-7.376-7.581-7.376-7.581Z" fill="#f09201"/>
    </g>
    <g opacity=".1">
      <path d="M97.495,60.726c3.766,2.452-.117,9.797-6.289,8.813,0,0,4.185,3.173,5.704,5.532,1.52,2.359,1.681,4.145,4.611,3.362,2.93-.782,5.637-4.369,3.349-10.126-2.287-5.757-7.376-7.581-7.376-7.581Z" fill="#f09201"/>
    </g>
  </g>
  <path d="M56.141,36.048s6.6,2.886,17.426,11.716c9.059,7.391,29.718,14.081,31.442,24.826,0,0,.224-.547.148-1.58-.213-2.886-2.772-9.562-19.119-18.686-11.885-6.634-18.255-14.263-29.897-16.277Z" fill="#ffd75d"/>
  <g>
    <g opacity="0">
      <path d="M98.907,78.694s.21.019.556.015c1.139-.015,3.757-.287,5.29-2.331,2.318-3.092,1.161-8.18-3.451-13.464-4.611-5.284-15.588-10.291-23.882-15.872s-13.971-10.116-20.076-11.445"/>
    </g>
    <path d="M99.357,79.765c-.321,0-.522-.017-.546-.02-.58-.053-1.008-.566-.956-1.146.053-.58.567-1.009,1.144-.956.006.001.176.015.45.011.92-.013,3.195-.223,4.458-1.909,2.05-2.735.747-7.386-3.401-12.138-2.888-3.309-8.449-6.551-14.337-9.984-3.154-1.838-6.416-3.74-9.339-5.707-1.479-.995-2.863-1.949-4.201-2.871-5.975-4.117-10.694-7.369-15.511-8.418-.57-.124-.931-.686-.807-1.256.124-.57.688-.931,1.256-.807,5.223,1.137,10.094,4.494,16.259,8.743,1.333.919,2.713,1.87,4.182,2.858,2.867,1.929,6.098,3.813,9.224,5.635,6.042,3.522,11.749,6.849,14.865,10.419,4.84,5.546,6.182,11.215,3.5,14.792-1.826,2.435-4.888,2.737-6.12,2.753-.042,0-.082.001-.12.001Z" fill="#e17c00"/>
  </g>
  <g>
    <path d="M56.926,81.451c5.283,1.792,11.753,5.007,16.208,7.216,4.454,2.208,5.34,2.725,8.907,3.531,8.015,1.813,8.774-6.137,7.042-7.253-1.038-.67-15.949-10.302-23.63-12.355" fill="#fcce2c"/>
    <g opacity=".3">
      <path d="M73.823,87.924s5.492,4.05,9.735,1.231c1.876-1.246,2.836-2.508,2.46-4.173-.319-1.41-3.467-2.868-3.467-2.868,0,0,3.799.913,5.506,2.144,1.707,1.232,3.222,5.105-1.603,7.573-4.359,2.23-12.631-3.907-12.631-3.907Z" fill="#f09201"/>
    </g>
    <g opacity=".3">
      <path d="M73.823,87.924s4.723,3.385,8.966.567c1.876-1.246,2.868-2.779,2.565-3.789-.499-1.658-2.803-2.588-2.803-2.588,0,0,3.799.913,5.506,2.144,1.707,1.232,3.222,5.105-1.603,7.573-4.359,2.23-12.631-3.907-12.631-3.907Z" fill="#f09201"/>
    </g>
    <g opacity=".2">
      <path d="M73.823,87.924s4.352,2.675,8.197.042c1.858-1.273,2.661-2.473,2.6-3.509-.086-1.443-2.069-2.343-2.069-2.343,0,0,3.799.913,5.506,2.144,1.707,1.232,3.222,5.105-1.603,7.573-4.359,2.23-12.631-3.907-12.631-3.907Z" fill="#f09201"/>
    </g>
    <g opacity=".1">
      <path d="M73.823,87.924s3.968,1.591,7.392-.517c1.918-1.181,2.455-2.151,2.46-3.158.008-1.445-1.124-2.134-1.124-2.134,0,0,3.799.913,5.506,2.144,1.707,1.232,3.222,5.105-1.603,7.573-4.359,2.23-12.631-3.907-12.631-3.907Z" fill="#f09201"/>
    </g>
    <g>
      <g opacity="0">
        <path d="M56.926,81.451c5.283,1.792,11.753,5.007,16.208,7.216,4.454,2.208,5.34,2.725,8.907,3.531,8.015,1.813,8.774-6.137,7.042-7.253-1.038-.67-15.949-10.302-23.63-12.355"/>
      </g>
      <path d="M84.259,93.522c-.734,0-1.548-.09-2.451-.294-3.43-.776-4.541-1.328-8.223-3.158l-1.033-.513c-4.298-2.131-10.794-5.353-15.965-7.107-.552-.187-.848-.786-.661-1.338.187-.552.787-.849,1.339-.661,5.304,1.8,11.876,5.059,16.224,7.215l1.035.514c3.69,1.834,4.566,2.27,7.749,2.989,3.702.837,5.311-.621,6.009-1.991.806-1.58.475-3.128.218-3.353-1.623-1.047-16.042-10.27-23.321-12.216-.563-.15-.897-.729-.746-1.292.15-.563.726-.898,1.292-.747,7.433,1.988,21.226,10.744,23.916,12.479,1.35.871,1.671,3.399.728,5.644-.418.995-1.977,3.829-6.11,3.829Z" fill="#e17c00"/>
    </g>
  </g>
  <g>
    <path d="M74.458,61.845c12.882,5.264,20.007,10.336,22.451,13.226,2.445,2.89,3.129,6.277-.205,9.017-3.335,2.74-7.622.857-9.813-.547,0,0-15.124-9.685-21.589-11.004" fill="#fcce2c"/>
    <path d="M74.086,60.988c-1.305-.454-3.959,2.12-.643,3.38,3.54,1.347,16.263,6.592,20.726,9.543,0,0-7.076-8.392-20.083-12.923Z" fill="#ffd75d"/>
    <g opacity=".4">
      <path d="M77.32,77.33s11.419,7.813,15.974,2.203c4.095-5.044-1.429-7.666-1.429-7.666,0,0,5.289,2.738,6.165,4.783.877,2.044,2.157,6.415-3.121,8.468s-17.59-7.787-17.59-7.787Z" fill="#f09201"/>
    </g>
    <g opacity=".3">
      <path d="M77.32,77.33s10.859,6.344,15.134,1.504c3.998-4.527-.589-6.967-.589-6.967,0,0,5.289,2.738,6.165,4.783.877,2.044,2.157,6.415-3.121,8.468s-17.59-7.787-17.59-7.787Z" fill="#f09201"/>
    </g>
    <g opacity=".2">
      <path d="M77.32,77.33s10.754,4.84,14.4.909c3.776-4.072.145-6.373.145-6.373,0,0,5.289,2.738,6.165,4.783.877,2.044,2.157,6.415-3.121,8.468s-17.59-7.787-17.59-7.787Z" fill="#f09201"/>
    </g>
    <g opacity=".1">
      <path d="M77.32,77.33s10.894,3.266,13.63.314c3.434-3.705.915-5.777.915-5.777,0,0,5.289,2.738,6.165,4.783.877,2.044,2.157,6.415-3.121,8.468s-17.59-7.787-17.59-7.787Z" fill="#f09201"/>
    </g>
    <g>
      <g opacity="0">
        <path d="M74.458,61.845c12.882,5.264,20.007,10.336,22.451,13.226,2.445,2.89,3.129,6.277-.205,9.017-3.335,2.74-7.622.857-9.813-.547,0,0-15.124-9.685-21.589-11.004"/>
      </g>
      <path d="M92.743,86.56c-2.69,0-5.17-1.329-6.419-2.13-.15-.095-15.033-9.593-21.231-10.858-.572-.117-.94-.674-.824-1.246.117-.571.675-.939,1.245-.823,6.582,1.344,21.323,10.75,21.947,11.15,1.576,1.009,5.566,3.091,8.573.62,1.141-.938,1.772-1.983,1.874-3.108.154-1.703-.895-3.339-1.804-4.412-2.453-2.899-9.532-7.819-22.045-12.931-.54-.221-.798-.837-.578-1.376.221-.54.838-.798,1.376-.578,12.866,5.257,20.244,10.432,22.858,13.522,1.675,1.98,2.468,4.042,2.294,5.966-.154,1.708-1.041,3.238-2.635,4.548-1.484,1.22-3.092,1.656-4.632,1.656Z" fill="#e17c00"/>
    </g>
  </g>
  <g>
    <g>
      <path d="M68.537,89.469c-3.303-.28-5.623,2.088-6.239,7.245-.617,5.157,2.053,7.624,5.16,7.622,2.697-.002,4.931-3.158,5.547-7.01.616-3.851-.993-7.563-4.468-7.857Z" fill="#fcce2c"/>
      <g opacity=".7">
        <path d="M68.537,89.469c-3.303-.28-5.623,2.088-6.239,7.245-.617,5.157,2.053,7.624,5.16,7.622,2.697-.002,4.931-3.158,5.547-7.01.616-3.851-.993-7.563-4.468-7.857Z" fill="#f09201"/>
      </g>
    </g>
    <g opacity=".5">
      <path d="M68.551,89.591c-1.693-.231-3.592,1.062-4.321,2.902-2.306,5.823.326,8.812,2.767,9.34,2.441.528,5.89-2.197,5.281-6.964-.272-2.131-.099-4.783-3.727-5.278Z" fill="#fcce2c"/>
    </g>
    <path d="M68.551,89.591c-1.693-.231-3.691,1.027-4.321,2.902-1.616,4.816.693,7.19,3.133,7.718,2.441.528,5.013-1.517,4.915-5.342-.055-2.148-.099-4.783-3.727-5.278Z" fill="#fcce2c"/>
    <g>
      <g opacity="0">
        <path d="M68.537,89.469c-3.303-.28-5.623,2.088-6.239,7.245-.617,5.157,2.053,7.624,5.16,7.622,2.697-.002,4.931-3.158,5.547-7.01.616-3.851-.993-7.563-4.468-7.857Z"/>
      </g>
      <path d="M67.455,105.391c-1.804,0-3.421-.702-4.554-1.98-.992-1.117-2.084-3.207-1.651-6.823.94-7.86,5.472-8.333,7.376-8.171,1.6.135,2.973.879,3.967,2.151,1.351,1.728,1.881,4.252,1.454,6.925-.743,4.648-3.452,7.896-6.587,7.899h-.004ZM68.034,90.502c-3.236,0-4.338,3.409-4.688,6.337-.268,2.245.123,4.033,1.133,5.171.933,1.05,2.133,1.27,2.976,1.27h.003c2.01-.001,3.947-2.633,4.505-6.121.33-2.065-.056-4.042-1.033-5.291-.632-.809-1.468-1.262-2.482-1.348h0c-.142-.012-.28-.018-.414-.018Z" fill="#e17c00"/>
    </g>
  </g>
  <g>
    <g>
      <path d="M59.665,86.768c-3.512-1.102-6.482.821-8.061,5.799-1.346,4.242-1.576,9.601,3.59,10.204,5.166.602,6.624-4.294,7.313-6.791.689-2.496,1.55-7.835-2.841-9.212Z" fill="#fcce2c"/>
      <g opacity=".7">
        <path d="M59.665,86.768c-3.512-1.102-6.482.821-8.061,5.799-1.346,4.242-1.576,9.601,3.59,10.204,5.166.602,6.624-4.294,7.313-6.791.689-2.496,1.55-7.835-2.841-9.212Z" fill="#f09201"/>
      </g>
    </g>
    <g opacity=".5">
      <path d="M59.712,87.052c-1.518-.429-3.119-.362-4.42.923-4.957,4.899-1.704,8.907.698,9.715,3.43,1.155,6.517.081,6.229-6.383-.107-2.405-.508-3.69-2.507-4.255Z" fill="#fcce2c"/>
    </g>
    <path d="M59.712,87.052c-1.518-.429-3.021-.256-4.42.923-3.364,2.836-1.214,7.437,1.187,8.246,3.43,1.155,5.74-.553,5.74-4.915,0-2.408-.508-3.69-2.507-4.255Z" fill="#fcce2c"/>
    <g>
      <g opacity="0">
        <path d="M59.665,86.768c-3.512-1.102-6.482.821-8.061,5.799-1.346,4.242-1.576,9.601,3.59,10.204,5.166.602,6.624-4.294,7.313-6.791.689-2.496,1.55-7.835-2.841-9.212Z"/>
      </g>
      <path d="M56.063,103.879c-.317,0-.648-.019-.993-.059-1.943-.227-3.391-1.057-4.304-2.468-1.784-2.761-.872-6.889-.17-9.104,1.703-5.371,5.212-7.796,9.384-6.487h0c3.71,1.164,5.035,5.09,3.542,10.501-.59,2.137-2.103,7.618-7.46,7.618ZM57.797,87.522c-2.837,0-4.374,2.8-5.187,5.365-1.005,3.167-1.03,5.835-.07,7.321.561.868,1.469,1.364,2.776,1.517,3.838.447,5.237-2.631,6.173-6.023.688-2.494,1.324-6.838-2.139-7.925-.556-.175-1.073-.254-1.552-.254Z" fill="#e17c00"/>
    </g>
    <g>
      <g opacity="0">
        <path d="M55.208,96.305s.502.458,2.199.817"/>
      </g>
      <path d="M57.409,98.177c-.073,0-.147-.008-.22-.023-1.836-.388-2.524-.917-2.692-1.069l1.422-1.56s-.012-.013-.041-.035c.004.003.445.323,1.747.598.57.121.935.681.814,1.251-.105.497-.543.837-1.031.837Z" fill="#e17c00"/>
    </g>
  </g>
  <g>
    <g>
      <path d="M52.755,82.439c-.631-.629-1.395-1.104-2.229-1.41-2.457-.901-5.518-.344-7.541,1.985-2.708,3.119-5.372,7.323-3.53,10.836,1.662,3.167,6.814,3.612,9.112,1.806,1.555-1.221,4.461-5.296,5.138-8.847.325-1.7.138-3.28-.951-4.37Z" fill="#fcce2c"/>
      <g opacity=".7">
        <path d="M52.755,82.439c-.631-.629-1.395-1.104-2.229-1.41-2.457-.901-5.518-.344-7.541,1.985-2.708,3.119-5.372,7.323-3.53,10.836,1.662,3.167,6.814,3.612,9.112,1.806,1.555-1.221,4.461-5.296,5.138-8.847.325-1.7.138-3.28-.951-4.37Z" fill="#f09201"/>
      </g>
    </g>
    <g opacity=".5">
      <path d="M49.882,80.916c-3.001-.231-8.948,3.437-7.17,6.473,2.27,3.876,8.601,7.408,10.346-.211,1.084-4.73-1.993-6.171-3.177-6.262Z" fill="#fcce2c"/>
    </g>
    <path d="M49.882,80.916c-3.001-.231-7.151,3.397-5.211,6.333,2.441,3.694,6.835,4.062,8.212-.561,1.386-4.651-1.817-5.681-3.001-5.772Z" fill="#fcce2c"/>
    <g>
      <g opacity="0">
        <path d="M52.755,82.439c-.631-.629-1.395-1.104-2.229-1.41-2.457-.901-5.518-.344-7.541,1.985-2.708,3.119-5.372,7.323-3.53,10.836,1.662,3.167,6.814,3.612,9.112,1.806,1.555-1.221,4.461-5.296,5.138-8.847.325-1.7.138-3.28-.951-4.37Z"/>
      </g>
      <path d="M44.983,97.768c-.611,0-1.232-.064-1.844-.195-2.123-.455-3.763-1.603-4.618-3.233-1.692-3.225-.458-7.268,3.668-12.018,2.156-2.484,5.653-3.401,8.701-2.284,1.002.368,1.881.924,2.611,1.655.865.864,1.782,2.487,1.242,5.313-.715,3.746-3.698,8.046-5.523,9.479-1.057.83-2.607,1.283-4.237,1.283ZM48.215,81.685c-1.518,0-3.177.575-4.433,2.021-3.498,4.028-4.639,7.276-3.392,9.653.754,1.438,2.323,1.964,3.19,2.149,1.628.349,3.371.074,4.335-.683,1.271-.999,4.102-4.805,4.753-8.214.294-1.541.072-2.693-.661-3.426-.512-.513-1.133-.905-1.845-1.166-.584-.214-1.251-.335-1.948-.335Z" fill="#e17c00"/>
    </g>
    <g>
      <g opacity="0">
        <path d="M45.171,88.788s.726.901,2.011,1.425"/>
      </g>
      <path d="M47.181,91.269c-.133,0-.268-.025-.399-.078-1.494-.609-2.343-1.627-2.434-1.741-.365-.454-.294-1.119.16-1.484.453-.364,1.114-.294,1.48.155.019.024.607.714,1.591,1.115.54.22.798.836.579,1.376-.167.409-.561.657-.977.657Z" fill="#e17c00"/>
    </g>
  </g>
  <g>
    <g>
      <path d="M39.784,82.242c0-3.435-.471-7.255-2.645-8.771-2.947-2.055-7.356-1.178-8.904,3.202-.654,1.851-.442,5.279.134,7.254.579,1.984,3.226,4.722,6.543,4.161,2.917-.493,4.811-2.307,4.872-5.68" fill="#fcce2c"/>
      <g opacity=".7">
        <path d="M39.784,82.242c0-3.435-.471-7.255-2.645-8.771-2.947-2.055-7.356-1.178-8.904,3.202-.654,1.851-.442,5.279.134,7.254.579,1.984,3.226,4.722,6.543,4.161,2.917-.493,4.811-2.307,4.872-5.68" fill="#f09201"/>
      </g>
    </g>
    <g opacity=".5">
      <path d="M34.364,72.703c-2.623-.28-3.21,1.271-3.975,2.34-.875,1.22-1.968,5.413,2.44,6.69,3.241.94,6.382-1.698,5.402-5.333-.383-1.424-.287-3.315-3.867-3.698Z" fill="#fcce2c"/>
    </g>
    <path d="M34.364,72.703c-2.623-.28-2.913,1.01-3.678,2.078-.874,1.22-1.189,4.408,2.441,5.623,3.199,1.073,5.673-1.831,4.947-4.073-.454-1.404-.129-3.245-3.71-3.629Z" fill="#fcce2c"/>
    <g opacity="0">
      <path d="M38.107,82.862c.198.165.643.594.858.759" fill="#ffd140"/>
      <g>
        <g opacity="0">
          <path d="M38.107,82.862c.198.165.643.594.858.759"/>
        </g>
        <path d="M38.964,84.676c-.225,0-.451-.071-.643-.218-.161-.124-.376-.321-.585-.511-.12-.109-.231-.212-.305-.273-.448-.374-.508-1.038-.135-1.487.374-.448,1.04-.508,1.487-.135.09.076.23.202.377.337.152.138.358.328.448.396.462.355.548,1.018.193,1.479-.208.271-.521.412-.837.412Z" fill="#e17c00"/>
      </g>
    </g>
    <g>
      <g opacity="0">
        <path d="M39.784,82.242c0-3.435-.471-7.255-2.645-8.771-2.947-2.055-7.356-1.178-8.904,3.202-.654,1.851-.442,5.279.134,7.254.579,1.984,3.226,4.722,6.543,4.161,2.917-.493,4.811-2.307,4.872-5.68"/>
      </g>
      <path d="M34.012,89.22c-3.401,0-6.001-2.747-6.656-4.998-.632-2.169-.856-5.806-.116-7.9.82-2.32,2.427-3.969,4.526-4.645,1.991-.64,4.225-.293,5.977.928,2.084,1.452,3.097,4.604,3.097,9.637,0,.031-.001.063-.004.094.003.03.003.061.003.092-.066,3.706-2.108,6.086-5.75,6.702-.366.062-.725.091-1.076.091ZM33.797,73.472c-.469,0-.936.071-1.385.215-1.457.469-2.587,1.655-3.182,3.338-.556,1.574-.379,4.786.152,6.607.431,1.478,2.589,3.885,5.354,3.416,2.601-.44,3.944-2.007,3.991-4.658,0-.025.002-.051.004-.075-.001-.024-.003-.049-.003-.073,0-5.27-1.192-7.208-2.192-7.905-.816-.569-1.779-.865-2.739-.865Z" fill="#e17c00"/>
    </g>
    <g>
      <g opacity="0">
        <path d="M32.121,80.582c.645.318,1.174.584,2.649.584"/>
      </g>
      <path d="M34.769,82.222c-1.71,0-2.416-.348-3.101-.686-.522-.258-.745-.894-.487-1.417.257-.522.883-.741,1.406-.483l.015.007c.572.282.95.468,2.167.468h.001c.583,0,1.055.472,1.055,1.055s-.472,1.056-1.055,1.056h-.001Z" fill="#e17c00"/>
    </g>
  </g>
  <path d="M55.574,23.73c-5.165-.399-9.506,1.405-11.886,5.854-2.352,4.397-3.782,6.073-6.959,10.897-3.076,4.671,4.41,8.588,10.389,5.404,6.338-3.376,6.538-9.306,10.226-10.29,1.961-.522,3.489,0,4.182.264" fill="#fcce2c"/>
  <g>
    <g opacity=".5">
      <path d="M36.218,41.68s.786,4.433,8.168,2.662c7.814-1.874,7.546-9.727,13.578-9.799.906-.01,1.934-.254,3.045.081,0,0-5.11-.036-8.448,6.222-3.339,6.258-11.915,7.556-15.783,3.885-1.105-1.049-.561-3.051-.561-3.051Z" fill="#f09201"/>
    </g>
    <g opacity=".3">
      <path d="M36.218,41.68s1.641,3.32,8.091,1.718c6.383-1.584,7.551-9.237,13.582-9.309.907-.01,2.008.2,3.119.535,0,0-5.11-.036-8.448,6.222-3.339,6.258-11.915,7.556-15.783,3.885-1.105-1.049-.561-3.051-.561-3.051Z" fill="#f09201"/>
    </g>
    <g opacity=".2">
      <path d="M36.218,41.68s2.117,2.679,8.052.983c6.032-1.722,7.588-8.888,13.619-8.959.907-.011,2.011.585,3.122.92,0,0-5.11-.036-8.448,6.222-3.339,6.258-11.915,7.556-15.783,3.885-1.105-1.049-.561-3.051-.561-3.051Z" fill="#f09201"/>
    </g>
    <g opacity=".1">
      <path d="M36.218,41.68s1.872,1.601,7.835.006c5.509-1.474,7.766-8.33,13.798-8.401.906-.01,2.301.627,3.159,1.339,0,0-5.11-.036-8.448,6.222-3.339,6.258-11.915,7.556-15.783,3.885-1.105-1.049-.561-3.051-.561-3.051Z" fill="#f09201"/>
    </g>
  </g>
  <path d="M56.141,27.523c-.491-.01-.987-.006-1.493.018-6.568.301-8.484,6.908-11.529,10.492-2.958,3.48-6.214,2.349-5.195.657.034-.05.065-.098.1-.147v-.003c.767-1.026,1.408-1.984,1.96-2.875,3.103-5.003,3.449-8.008,7.726-10.359.003-.003.006-.006.008-.006.49-.269,1.031-.531,1.636-.784.015-.008.031-.013.047-.021,1.839-.697,3.929-.94,6.172-.766l.568,3.795Z" fill="#ffd75d"/>
  <path d="M95.609,38.77c-2.359.408-4.703.358-6.628-.569-6.51-3.133-9.755-3.743-14.585-5.154-6.745-1.97-11.198-5.094-18.256-5.524l-2.663-2.953c1.177-.744,2.095-.842,2.095-.842,9.043.557,15.644,5.568,21.827,6.818,11.275,2.277,12.431,5.267,15.986,4.856.431.921,1.618,2.24,2.224,3.368Z" fill="#ffd75d"/>
  <g>
    <g opacity="0">
      <path d="M55.539,23.665c4.056.257,8.449,1.413,18.099,5.709,4.002,1.781,12.995,2.155,21.747,8.333"/>
    </g>
    <path d="M95.384,38.763c-.211,0-.423-.063-.608-.193-5.885-4.155-11.966-5.632-16.406-6.711-2.06-.5-3.839-.933-5.162-1.521-9.852-4.385-13.964-5.381-17.736-5.62-.581-.037-1.024-.538-.987-1.12.038-.581.538-1.022,1.12-.987,4.013.254,8.32,1.284,18.462,5.798,1.149.511,2.841.922,4.801,1.399,4.605,1.118,10.912,2.65,17.125,7.037.476.337.59.995.253,1.471-.205.291-.531.447-.862.447Z" fill="#e17c00"/>
  </g>
  <g>
    <g opacity="0">
      <path d="M55.574,23.73c-5.165-.399-9.506,1.405-11.886,5.854-2.352,4.397-3.782,6.073-6.959,10.897-3.076,4.671,4.41,8.588,10.389,5.404,6.338-3.376,6.538-9.306,10.226-10.29,1.961-.522,3.489,0,4.182.264"/>
    </g>
    <path d="M42.489,48.11c-2.62,0-4.961-.973-6.295-2.438-1.507-1.655-1.637-3.812-.346-5.772.964-1.464,1.772-2.644,2.484-3.686,1.632-2.386,2.812-4.11,4.426-7.129,2.453-4.585,7.03-6.863,12.898-6.409.581.045,1.016.552.972,1.134-.045.581-.553,1.018-1.134.971-3.522-.271-8.268.427-10.874,5.299-1.669,3.12-2.875,4.884-4.545,7.325-.707,1.034-1.509,2.207-2.464,3.656-.769,1.167-.721,2.241.144,3.189,1.606,1.764,5.552,2.468,8.868.702,3.172-1.689,4.681-4.058,6.013-6.147,1.203-1.888,2.34-3.671,4.437-4.23,2.391-.637,4.227.067,4.831.298.545.208.817.819.609,1.363-.208.545-.819.817-1.363.609-.774-.296-1.982-.643-3.533-.23-1.303.348-2.099,1.597-3.201,3.326-1.399,2.194-3.139,4.925-6.801,6.875-1.696.903-3.467,1.294-5.125,1.294Z" fill="#e17c00"/>
  </g>
</svg>