<?xml version="1.0" encoding="UTF-8"?>
<svg id="Layer_1" xmlns="http://www.w3.org/2000/svg" xmlns:xlink="http://www.w3.org/1999/xlink" version="1.1" viewBox="0 0 128 128">
  <!-- Generator: Adobe Illustrator 29.5.1, SVG Export Plug-In . SVG Version: 2.1.0 Build 141)  -->
  <defs>
    <linearGradient id="_É_πÌÚ_·ÂÁ_Ì_Á_Ë_4774" data-name="É‡‰¥πÌÚ ·ÂÁ Ì‡Á‚Ë 4774" x1="78.545" y1="114.835" x2="78.344" y2="-10.137" gradientTransform="translate(-6.007 109.596) scale(.892 -.892)" gradientUnits="userSpaceOnUse">
      <stop offset="0" stop-color="#fdcf18"/>
      <stop offset=".47" stop-color="#f5ab0c"/>
      <stop offset=".93" stop-color="#ed8700"/>
    </linearGradient>
    <radialGradient id="_É_πÌÚ_·ÂÁ_Ì_Á_Ë_4773" data-name="É‡‰¥πÌÚ ·ÂÁ Ì‡Á‚Ë 4773" cx="76.817" cy="107.435" fx="76.817" fy="107.435" r="116.037" gradientTransform="translate(-5.95 107.659) scale(.892 -.892)" gradientUnits="userSpaceOnUse">
      <stop offset=".07" stop-color="#fefee2"/>
      <stop offset=".28" stop-color="#fdee8c"/>
      <stop offset=".49" stop-color="#fcde36"/>
      <stop offset=".82" stop-color="#f5b820"/>
      <stop offset="1" stop-color="#ee910a"/>
    </radialGradient>
    <linearGradient id="_É_πÌÚ_·ÂÁ_Ì_Á_Ë_47741" data-name="É‡‰¥πÌÚ ·ÂÁ Ì‡Á‚Ë 4774" x1="109.836" y1="249.083" x2="109.933" y2="124.839" gradientTransform="translate(-47.239 229.931) scale(.892 -.892)" xlink:href="#_É_πÌÚ_·ÂÁ_Ì_Á_Ë_4774"/>
  </defs>
  <g>
    <g>
      <path d="M123.735,61.059c0,32.991-26.744,59.735-59.735,59.735S4.264,94.051,4.264,61.059,31.009,1.324,64,1.324s59.735,26.745,59.735,59.735Z" fill="url(#_É_πÌÚ_·ÂÁ_Ì_Á_Ë_4774)"/>
      <path d="M117.261,61.285c-.46,30.054-24.672,54.052-54.078,53.602-29.405-.45-52.871-25.18-52.41-55.234.461-30.054,24.673-54.053,54.079-53.602,29.405.45,52.871,25.18,52.41,55.234Z" fill="url(#_É_πÌÚ_·ÂÁ_Ì_Á_Ë_4773)"/>
    </g>
    <path d="M57.271,94.765c-6.83,1.811-13.534,4.202-18.759,1.236-4.157-2.359-4.133-5.434-4.58-11.588-.361-4.957-3.421-9.53-5.945-8.156-2.621,1.428-1.437,7.782-1.937,14.385-.323,4.261-1.848,7.393-1.977,14.844,9.558,8.595,21.902,14.151,35.514,15.144-.434-.695-.98-1.098-.98-1.098,0,0,3.108-1.126,3.249-4.08.138-2.882-3.078-4.08-3.078-4.08,0,0,4.816-2.487,1.655-7.387,10.601-5.945,18.345-7.422,17.055-11.404-1.258-3.884-8.002-1.057-20.217,2.183Z" fill="url(#_É_πÌÚ_·ÂÁ_Ì_Á_Ë_47741)"/>
  </g>
  <g>
    <g opacity=".75">
      <path d="M78.205,82.12c-.247,0-.488-.048-.719-.142-4.971-2.04-11.777-4.834-20.715-4.834-3.01,0-6.099.324-9.182.964-.128.026-.257.039-.385.039-.893,0-1.672-.634-1.853-1.509-.212-1.022.447-2.026,1.469-2.238,3.358-.697,6.72-1.05,9.992-1.05,9.626,0,16.842,2.961,22.11,5.124.47.193.835.556,1.03,1.022.195.467.196.982.005,1.449-.293.714-.98,1.175-1.752,1.175Z" fill="#eaac1f"/>
    </g>
    <path d="M77.798,83.372c-.241,0-.476-.047-.7-.139-4.842-1.987-11.472-4.708-20.179-4.708-2.932,0-5.941.316-8.944.939-.124.025-.25.039-.375.039-.87,0-1.629-.618-1.805-1.47-.206-.995.436-1.973,1.431-2.18,3.271-.679,6.545-1.022,9.733-1.022,9.377,0,16.405,2.885,21.536,4.991.458.188.814.541,1.003.996.19.453.192.955.005,1.411-.286.695-.955,1.144-1.706,1.144Z" fill="#fedd78"/>
    <path d="M78.167,81.894c-.138,0-.278-.027-.413-.082-6.624-2.718-16.634-6.827-30.563-3.939-.589.121-1.166-.257-1.287-.845-.123-.589.256-1.165.845-1.287,14.582-3.024,24.962,1.237,31.832,4.056.556.228.822.864.594,1.42-.173.421-.579.676-1.007.676Z" fill="#874101"/>
  </g>
  <g>
    <path d="M51.516,42.016c-.733,4.736-4.157,8.137-7.647,7.597-3.49-.54-5.724-4.818-4.991-9.553.733-4.736,4.157-8.137,7.646-7.598,3.49.54,5.725,4.818,4.992,9.554Z" fill="#eaac1f"/>
    <path d="M50.974,45.56c-.733,4.736-4.157,8.137-7.647,7.597-3.489-.54-5.724-4.817-4.991-9.553.733-4.736,4.156-8.137,7.646-7.597,3.49.54,5.725,4.818,4.992,9.553Z" fill="#fedc97"/>
    <path d="M50.894,43.716c-.733,4.736-3.98,8.165-7.252,7.659-3.271-.507-5.329-4.756-4.596-9.492.733-4.736,3.98-8.165,7.251-7.659,3.272.507,5.33,4.757,4.597,9.492Z" fill="#974800"/>
    <path d="M50.894,43.717c-.058.376-.132.745-.223,1.102.281-4.272-1.704-7.91-4.716-8.377-3.012-.466-6.004,2.402-7.028,6.56.022-.369.062-.743.121-1.119.733-4.738,3.979-8.165,7.25-7.659,3.272.507,5.33,4.755,4.596,9.492Z" fill="#632900"/>
  </g>
  <g>
    <path d="M87.1,45.621c-.733,4.736-4.157,8.137-7.647,7.598-3.489-.54-5.725-4.818-4.992-9.554.733-4.736,4.157-8.137,7.647-7.597,3.49.54,5.724,4.818,4.992,9.553Z" fill="#eaac1f"/>
    <path d="M86.557,49.166c-.733,4.736-4.157,8.137-7.646,7.597-3.49-.54-5.725-4.817-4.992-9.553.733-4.736,4.157-8.137,7.646-7.597,3.489.54,5.725,4.818,4.992,9.553Z" fill="#fedc97"/>
    <path d="M86.478,47.322c-.733,4.736-3.98,8.165-7.251,7.659-3.272-.507-5.33-4.756-4.597-9.492.733-4.736,3.98-8.165,7.252-7.659,3.272.507,5.33,4.757,4.597,9.492Z" fill="#974800"/>
    <path d="M86.478,47.323c-.059.378-.133.746-.224,1.104.281-4.273-1.704-7.911-4.716-8.377-3.012-.467-6.004,2.4-7.028,6.559.022-.368.062-.742.121-1.119.733-4.737,3.979-8.165,7.25-7.658,3.272.507,5.33,4.755,4.597,9.492Z" fill="#632900"/>
  </g>
  <g>
    <path d="M74.754,34.501c-.629-2.116,3.203-4.984,11.076-5.263,11.884-.42,14.724,3.178,14.392,4.644-.279,1.231-5.078-.166-12.754.359-7.504.512-12.119,2.262-12.714.26Z" fill="#ffde9c"/>
    <path d="M75.243,33.017c-.608-1.58,3.955-3.773,10.682-3.931,9.725-.229,14.203,2.373,13.883,3.468-.269.92-5.019-.321-12.423.071-7.238.383-11.568,1.887-12.142.392Z" fill="#974800"/>
    <path d="M75.495,33.356c1.097-1.37,5.077-2.784,10.43-2.91,7.288-.171,11.628,1.247,13.211,2.43.388-.043.618-.14.671-.321.321-1.095-4.157-3.697-13.882-3.468-6.727.158-11.29,2.351-10.682,3.931.052.137.137.248.252.338Z" fill="#632900"/>
  </g>
  <g>
    <path d="M52.9,30.332c1.504-1.341-3.311-7.578-11.82-8.151-10.292-.695-15.821,7.959-13.976,9.497,1.61,1.341,5.531-4.543,13.682-4.582,7.615-.036,10.691,4.505,12.114,3.236Z" fill="#ffde9c"/>
    <path d="M52.692,29.056c1.467-1.308-4.762-7.086-11.548-7.536-9.366-.621-15.41,7.349-13.61,8.849,1.57,1.307,5.322-4.966,13.27-5.004,7.426-.034,10.501,4.928,11.889,3.691Z" fill="#974800"/>
    <path d="M41.179,23.212c5.151.342,9.978,3.753,11.364,5.948.051-.028.101-.061.149-.104,1.466-1.308-4.762-7.086-11.548-7.536-9.237-.613-15.237,7.126-13.676,8.778,1.112-2.821,6.399-7.57,13.71-7.086Z" fill="#632900"/>
  </g>
  <path d="M107.134,17.926C96.099,6.889,80.841.059,64,.06c-16.84,0-32.098,6.829-43.134,17.866C9.83,28.961,2.999,44.219,3,61.06c0,16.84,6.83,32.098,17.866,43.133,11.035,11.037,26.293,17.868,43.134,17.867,16.841,0,32.099-6.829,43.134-17.867,11.037-11.035,17.867-26.293,17.866-43.133,0-16.841-6.829-32.099-17.866-43.134ZM105.345,102.404c-10.585,10.583-25.194,17.124-41.345,17.126-16.149-.001-30.759-6.543-41.344-17.126-10.583-10.585-17.125-25.194-17.126-41.344,0-16.151,6.542-30.759,17.126-41.344C33.24,9.132,47.851,2.591,64,2.589c16.151.001,30.76,6.543,41.345,17.127,10.583,10.585,17.125,25.194,17.125,41.344s-6.542,30.759-17.125,41.344Z" fill="#e76900"/>
  <g>
    <path d="M41.143,126.676c-12.093,0-20.104-1.083-21.233-15.57-.66-8.47.885-12.937,2.126-16.527.639-1.847,1.19-3.442,1.327-5.24.184-2.431.027-4.753-.113-6.802-.239-3.515-.427-6.292,1.391-7.282.525-.286,1.14-.437,1.777-.437,2.802,0,5.715,2.699,5.864,7.858.036,1.234,0,2.376-.032,3.383-.116,3.671-.185,5.886,2.931,7.579,1.005.545,2.498.822,4.437.822h.001c5.103,0,12.165-1.852,17.321-3.203l.713-.188c7.097-1.856,11.601-2.983,14.308-2.983,2.038,0,3.141.646,3.576,2.097.995,3.322-3.237,4.818-11.668,7.798-2.859,1.01-6.07,2.146-9.759,3.581,1.378.39,3.685,1.443,3.892,4.145.205,2.65-1.594,3.917-2.595,4.411.932.537,2.598,1.808,2.653,4.046.061,2.455-1.913,3.771-2.788,4.232.488.554,1.33,1.798,1.041,3.553-.553,3.357-4.948,4.726-15.17,4.726Z" fill="#f8c729"/>
    <path d="M25.741,76.74c1.507-.977,4.225,2.509,2.419,3.423-1.728.876-3.79-2.533-2.419-3.423Z" fill="#fddc66"/>
    <path d="M55.961,121.535c.171-2.092-1.451-3.283-1.451-3.283,0,0,3.322-1.123,3.249-4.08-.071-2.883-3.078-4.08-3.078-4.08,0,0,3.372-.939,3.021-4.361-.339-3.306-4.641-4.08-4.641-4.08,12.97-5.556,23.066-6.54,22.127-10.649-.091-.396-.251-.723-.475-.99-1.417,3.191-12.455,5.446-25.361,10.463,0,0,3.492,2.25,3.55,5.334.059,3.082-2.122,4.422-2.122,4.422,0,0,1.612,2.061,1.124,4.326-.646,2.998-4.593,5.51-17.851,2.884-15.789-3.129-9.367-22.372-8.815-27.74.694-6.74-1.582-11.862-.598-14.088-2.396,1.566-.485,7.274-.976,13.749-.407,5.382-4.447,8.956-3.452,21.721,1.104,14.179,8.902,15.291,20.931,15.291,11.849,0,14.626-2.496,14.819-4.839Z" fill="#f3ac19"/>
    <path d="M27.191,90.435c2.896-.634,3.692,4.935,9.268,5.954,3.99.73,10.544-.179,20.613-2.885,6.629-1.782,14.254-3.766,14.567-2.882.6,1.69-14.793,4.886-25.794,8.503-8.513,2.798-12.607,2.701-16.71.199-4.248-2.59-4.22-8.39-1.944-8.888Z" fill="#fddc66"/>
    <path d="M41.143,127.94c-12.408,0-21.284-1.2-22.495-16.736-.68-8.731.912-13.336,2.191-17.036.61-1.765,1.137-3.287,1.262-4.924.178-2.349.023-4.618-.114-6.621-.259-3.81-.481-7.1,2.047-8.478.711-.387,1.535-.592,2.383-.592,3.412,0,6.957,3.122,7.128,9.087.036,1.275,0,2.436-.032,3.459-.122,3.88-.05,5.168,2.27,6.427.562.305,1.684.669,3.834.669,4.938,0,11.903-1.826,16.988-3.159,1.295-.334,12.568-3.216,15.354-3.216.963,0,3.891,0,4.788,3,1.342,4.477-3.56,6.209-12.458,9.354-2.165.766-4.502,1.591-7.07,2.555,1.206.98,1.923,2.312,2.043,3.88.169,2.19-.745,3.642-1.716,4.552,1.111,1.096,1.742,2.479,1.777,3.97.057,2.26-1.185,3.748-2.29,4.62.435.848.758,1.996.526,3.403-.791,4.802-7.135,5.785-16.419,5.785ZM26.418,76.084c-.427,0-.832.099-1.173.283-1.106.603-.933,3.144-.733,6.086.142,2.087.303,4.454.112,6.983-.149,1.965-.753,3.71-1.393,5.559-1.203,3.479-2.7,7.807-2.061,16.013,1.012,12.982,7.159,14.403,19.973,14.403,9.21,0,13.504-1.131,13.922-3.666.201-1.224-.378-2.099-.742-2.512-.256-.291-.366-.683-.295-1.064.069-.381.311-.709.654-.891.807-.425,2.156-1.392,2.113-3.081-.039-1.603-1.283-2.556-2.021-2.981-.404-.234-.648-.671-.633-1.137.015-.467.286-.887.705-1.094.94-.464,2.031-1.392,1.894-3.179-.142-1.845-1.697-2.663-2.975-3.024-.523-.148-.894-.614-.92-1.157-.026-.543.298-1.043.805-1.239,3.677-1.431,6.891-2.568,9.727-3.571,8.064-2.849,11.571-4.186,10.948-6.267-.143-.476-.359-1.196-2.365-1.196-1.867,0-9.817,1.872-14.705,3.131-5.226,1.37-12.373,3.242-17.636,3.244-2.153,0-3.849-.328-5.043-.976-3.801-2.064-3.708-5.006-3.592-8.73.032-.988.067-2.107.032-3.306-.125-4.352-2.408-6.629-4.599-6.629Z" fill="#e76900"/>
  </g>
</svg>