<?xml version="1.0" encoding="UTF-8"?>
<svg id="Layer_1" xmlns="http://www.w3.org/2000/svg" xmlns:xlink="http://www.w3.org/1999/xlink" version="1.1" viewBox="0 0 128 128">
  <!-- Generator: Adobe Illustrator 29.5.1, SVG Export Plug-In . SVG Version: 2.1.0 Build 141)  -->
  <defs>
    <linearGradient id="_É_πÌÚ_·ÂÁ_Ì_Á_Ë_4214" data-name="É‡‰¥πÌÚ ·ÂÁ Ì‡Á‚Ë 4214" x1="1408.496" y1="626.603" x2="1451.067" y2="498.208" gradientTransform="translate(-976.819 512.224) rotate(-.19) scale(.733 -.762)" gradientUnits="userSpaceOnUse">
      <stop offset="0" stop-color="#e2e2eb"/>
      <stop offset=".62" stop-color="#cacad9"/>
      <stop offset="1" stop-color="#b3b3c7"/>
    </linearGradient>
    <linearGradient id="_É_πÌÚ_·ÂÁ_Ì_Á_Ë_4213" data-name="É‡‰¥πÌÚ ·ÂÁ Ì‡Á‚Ë 4213" x1="1406.818" y1="628.78" x2="1444.33" y2="522.425" gradientTransform="translate(-976.819 512.224) rotate(-.19) scale(.733 -.762)" gradientUnits="userSpaceOnUse">
      <stop offset=".21" stop-color="#f0f0fa"/>
      <stop offset=".52" stop-color="#d1d1e1"/>
      <stop offset=".84" stop-color="#b2b2c8"/>
    </linearGradient>
    <filter id="luminosity-noclip" x="5.502" y="26.252" width="116.769" height="74.344" color-interpolation-filters="sRGB" filterUnits="userSpaceOnUse">
      <feFlood flood-color="#fff" result="bg"/>
      <feBlend in="SourceGraphic" in2="bg"/>
    </filter>
    <filter id="luminosity-noclip1" x="5.502" y="-8256" width="116.769" height="32766" color-interpolation-filters="sRGB" filterUnits="userSpaceOnUse">
      <feFlood flood-color="#fff" result="bg"/>
      <feBlend in="SourceGraphic" in2="bg"/>
    </filter>
    <mask id="mask-1" x="5.502" y="-8256" width="116.769" height="32766" maskUnits="userSpaceOnUse"/>
    <linearGradient id="_É_πÌÚ_·ÂÁ_Ì_Á_Ë_5116" data-name="É‡‰¥πÌÚ ·ÂÁ Ì‡Á‚Ë 5116" x1="1423.227" y1="605.689" x2="1422.479" y2="577.534" gradientTransform="translate(-976.819 512.224) rotate(-.19) scale(.733 -.762)" gradientUnits="userSpaceOnUse">
      <stop offset=".32" stop-color="#fff"/>
      <stop offset=".59" stop-color="#a6a6a6"/>
      <stop offset=".85" stop-color="#4d4d4d"/>
    </linearGradient>
    <mask id="mask" x="5.502" y="26.252" width="116.769" height="74.344" maskUnits="userSpaceOnUse">
      <g filter="url(#luminosity-noclip)">
        <g mask="url(#mask-1)">
          <path d="M5.502,26.643l28.476,35.444c.414.539.413,1.304-.002,1.841L5.912,100.596l116.359-.39-27.757-36.238c-.409-.529-.417-1.28-.019-1.819l27.729-35.896-116.723.391Z" fill="url(#_É_πÌÚ_·ÂÁ_Ì_Á_Ë_5116)" mix-blend-mode="multiply"/>
        </g>
      </g>
    </mask>
    <linearGradient id="_É_πÌÚ_·ÂÁ_Ì_Á_Ë_4212" data-name="É‡‰¥πÌÚ ·ÂÁ Ì‡Á‚Ë 4212" x1="1423.227" y1="605.689" x2="1422.479" y2="577.534" gradientTransform="translate(-976.819 512.224) rotate(-.19) scale(.733 -.762)" gradientUnits="userSpaceOnUse">
      <stop offset=".32" stop-color="#050072"/>
      <stop offset=".59" stop-color="#05006f"/>
      <stop offset=".85" stop-color="#04006d"/>
    </linearGradient>
    <linearGradient id="_É_πÌÚ_·ÂÁ_Ì_Á_Ë_4211" data-name="É‡‰¥πÌÚ ·ÂÁ Ì‡Á‚Ë 4211" x1="1428.071" y1="519.314" x2="1413.509" y2="559.367" gradientTransform="translate(-976.819 512.224) rotate(-.19) scale(.733 -.762)" gradientUnits="userSpaceOnUse">
      <stop offset="0" stop-color="#bab7cb"/>
      <stop offset=".46" stop-color="#ceccdf"/>
      <stop offset="1" stop-color="#e1e1f4"/>
    </linearGradient>
    <linearGradient id="_É_πÌÚ_·ÂÁ_Ì_Á_Ë_4217" data-name="É‡‰¥πÌÚ ·ÂÁ Ì‡Á‚Ë 4217" x1="1424.689" y1="524.815" x2="1396.75" y2="600.889" gradientTransform="translate(-976.819 512.224) rotate(-.19) scale(.733 -.762)" gradientUnits="userSpaceOnUse">
      <stop offset="0" stop-color="#b3b3ca"/>
      <stop offset=".2" stop-color="#c6c7de"/>
      <stop offset=".53" stop-color="#d9dcf1"/>
    </linearGradient>
    <linearGradient id="_É_πÌÚ_·ÂÁ_Ì_Á_Ë_4209" data-name="É‡‰¥πÌÚ ·ÂÁ Ì‡Á‚Ë 4209" x1="1420.877" y1="551.975" x2="1422.899" y2="640.633" gradientTransform="translate(-976.819 512.224) rotate(-.19) scale(.733 -.762)" gradientUnits="userSpaceOnUse">
      <stop offset="0" stop-color="#cccde6"/>
      <stop offset=".65" stop-color="#d1d1e3"/>
      <stop offset="1" stop-color="#d5d5e1"/>
    </linearGradient>
    <linearGradient id="_É_πÌÚ_·ÂÁ_Ì_Á_Ë_4208" data-name="É‡‰¥πÌÚ ·ÂÁ Ì‡Á‚Ë 4208" x1="1422.784" y1="637.152" x2="1423.724" y2="544.001" gradientTransform="translate(-976.819 512.224) rotate(-.19) scale(.733 -.762)" gradientUnits="userSpaceOnUse">
      <stop offset=".1" stop-color="#f4f4ff"/>
      <stop offset=".51" stop-color="#e0e0f3"/>
      <stop offset=".73" stop-color="#cccde6"/>
    </linearGradient>
  </defs>
  <g>
    <path d="M4.384,26.252l.253,75.719c.006,1.733,1.361,3.133,3.026,3.127l112.886-.378c1.665-.005,3.01-1.414,3.004-3.147l-.253-75.719c-.006-1.733-1.361-3.133-3.025-3.127l-112.886.378c-1.665.006-3.011,1.415-3.005,3.148Z" fill="url(#_É_πÌÚ_·ÂÁ_Ì_Á_Ë_4214)"/>
    <path d="M8.252,26.239l.254,75.72c.006,1.732,1.272,3.133,2.83,3.128l105.543-.354c1.557-.005,2.814-1.414,2.808-3.147l-.253-75.719c-.005-1.732-1.272-3.133-2.829-3.128l-105.544.353c-1.556.005-2.814,1.414-2.808,3.146Z" fill="url(#_É_πÌÚ_·ÂÁ_Ì_Á_Ë_4213)"/>
    <g opacity=".15">
      <g mask="url(#mask)">
        <path d="M5.502,26.643l28.476,35.444c.414.539.413,1.304-.002,1.841L5.912,100.596l116.359-.39-27.757-36.238c-.409-.529-.417-1.28-.019-1.819l27.729-35.896-116.723.391Z" fill="url(#_É_πÌÚ_·ÂÁ_Ì_Á_Ë_4212)"/>
      </g>
    </g>
    <g>
      <path d="M123.554,101.573l-51.533-54.931c-4.453-4.748-11.797-4.723-16.218.054L4.637,101.972l1.972,3.131,114.703-.384,2.241-3.145Z" fill="url(#_É_πÌÚ_·ÂÁ_Ì_Á_Ë_4211)"/>
      <g>
        <g opacity="0">
          <path d="M123.554,101.573l-51.533-54.931c-4.453-4.748-11.797-4.723-16.218.054L4.637,101.972l1.972,3.131,114.703-.384,2.241-3.145Z"/>
        </g>
        <path d="M121.793,106.179c-.152.05-.311.076-.475.076l-114.703.384c-.531.002-1.023-.269-1.306-.717l-1.973-3.13c-.371-.589-.301-1.354.174-1.865l51.163-55.275c2.43-2.627,5.709-4.081,9.223-4.092,3.514-.012,6.798,1.42,9.245,4.031l51.534,54.93c.5.535.555,1.348.129,1.944l-2.241,3.146c-.192.27-.464.467-.771.568ZM7.457,103.563l113.061-.379,1.053-1.478-50.673-54.012c-1.858-1.981-4.34-3.068-6.993-3.059-2.648.009-5.127,1.111-6.976,3.107L6.566,102.15l.89,1.413Z" fill="#989ab3"/>
      </g>
    </g>
    <path d="M121.601,104.517l-50.194-53.373c-4.109-4.38-10.883-4.357-14.962.05L6.608,104.902l4.458-.015,105.867-.354,4.667-.016Z" fill="url(#_É_πÌÚ_·ÂÁ_Ì_Á_Ë_4217)"/>
    <g>
      <path d="M122.658,23.931l-49.833,56.194c-4.42,4.985-11.968,5.051-16.471.143L5.047,24.348l3.246-1.246,111.713-.374,2.652,1.203Z" fill="url(#_É_πÌÚ_·ÂÁ_Ì_Á_Ë_4209)"/>
      <g>
        <g opacity="0">
          <path d="M122.658,23.931l-49.833,56.194c-4.42,4.985-11.968,5.051-16.471.143L5.047,24.348l3.246-1.246,111.713-.374,2.652,1.203Z"/>
        </g>
        <path d="M68.397,84.822c-1.208.397-2.477.61-3.766.621-3.54.03-6.97-1.477-9.408-4.136L3.915,25.387c-.344-.375-.48-.896-.364-1.391s.47-.901.946-1.084l3.247-1.246c.173-.067.359-.101.545-.102l111.713-.374c.221-.001.44.045.641.136l2.652,1.203c.444.201.765.603.867,1.081.101.477-.03.974-.353,1.34l-49.833,56.194c-1.526,1.72-3.46,2.981-5.579,3.677ZM7.708,24.973l49.779,54.256c1.88,2.048,4.408,3.163,7.12,3.14,2.71-.022,5.221-1.182,7.067-3.263l48.451-54.636-.448-.204-111.096.372-.873.335Z" fill="#8187a1"/>
      </g>
    </g>
    <path d="M115.279,23.544c.615-.002.936.759.519,1.229l-44.771,50.485c-4.114,4.747-8.513,4.666-13.007.113L11.94,25.147c-.427-.466-.111-1.236.506-1.239l102.833-.364Z" fill="url(#_É_πÌÚ_·ÂÁ_Ì_Á_Ë_4208)"/>
    <path d="M121.924,106.037c-.433.142-.892.22-1.369.221l-112.885.378c-2.511.008-4.561-2.081-4.57-4.658l-.252-75.721c-.005-1.237.456-2.404,1.3-3.287.86-.901,2.011-1.4,3.235-1.402l112.887-.378c2.51-.009,4.558,2.081,4.567,4.658l.254,75.72c.007,2.087-1.327,3.864-3.167,4.469ZM6.969,24.71c-.223.073-.427.203-.597.382-.293.306-.453.716-.451,1.154h0l.253,75.72c.003.881.669,1.597,1.484,1.595l112.884-.379c.82-.004,1.478-.724,1.473-1.606l-.254-75.719c-.003-.881-.669-1.597-1.482-1.595l-112.886.379c-.147,0-.289.023-.424.068ZM4.385,26.252l.018-.006-.018.006Z" fill="#989ab3"/>
    <g>
      <g opacity="0">
        <path d="M121.984,104.338c.938-.535,1.573-1.573,1.569-2.764l-.253-75.719c-.003-.745-.254-1.427-.673-1.964"/>
      </g>
      <path d="M122.462,105.799c-.681.224-1.446-.055-1.814-.7-.42-.738-.162-1.677.575-2.097.493-.279.796-.825.795-1.423l-.255-75.72c-.001-.479-.189-.82-.348-1.021-.522-.67-.403-1.636.265-2.159.669-.524,1.633-.404,2.159.265.641.821.996,1.853.999,2.907l.253,75.718c.007,1.705-.891,3.278-2.346,4.105-.092.052-.186.094-.283.125Z" fill="#757d98"/>
    </g>
    <g>
      <g opacity="0">
        <line x1="7.663" y1="105.099" x2="120.549" y2="104.72"/>
      </g>
      <path d="M121.029,106.182c-.15.049-.308.075-.474.076l-112.885.378c-.85.003-1.541-.682-1.543-1.532-.004-.848.683-1.54,1.532-1.541l112.884-.379c.849-.003,1.541.683,1.543,1.532.003.682-.443,1.264-1.058,1.466Z" fill="#757d98"/>
    </g>
  </g>
  <g>
    <path d="M50.199,41.396l26.011-2.336h1.449c.295,0,.581.133.765.367l1.479,1.887c.051.068.079.15.082.235v7.977c0,.215-.173.388-.387.388h-20.401c-.214,0-.388.174-.388.388h0v10.19c0,.235.204.408.439.378l15.546-2.295h.683c.326,0,.633.153.826.398l1.459,1.856c.051.068.079.15.082.235v7.977c0,.215-.173.388-.388.388h-18.249c-.214,0-.388.174-.388.387v10.18c0,.235.215.418.449.378l13.393-2.285c.02,0,.04-.01.061-.01h4.896c.326,0,.632.153.836.408l1.448,1.857c.051.068.079.15.082.235v7.977c0,.214-.173.388-.387.388h-29.541c-.118,0-.23-.052-.306-.143l-1.652-2.111c-.053-.075-.081-.164-.082-.255l1.836-44.658c.01-.204.163-.367.347-.377Z" fill="#0046a4"/>
    <path d="M48.689,39.06h28.775c.378,0,.673.306.673.673v7.14c0,.378-.306.673-.673.673h-19.819c-.378,0-.673.306-.673.673v9.66c0,.378.306.673.673.673h17.688c.378,0,.673.306.673.673v7.14c0,.378-.306.673-.673.673h-17.688c-.378,0-.673.306-.673.673v9.66c0,.378.306.673.673.673h19.819c.378,0,.673.306.673.673v7.14c0,.377-.306.673-.673.673h-28.775c-.372,0-.673-.301-.673-.673h0v-46.127c0-.378.306-.673.673-.673Z" fill="#0096f7"/>
  </g>
</svg>