<?xml version="1.0" encoding="UTF-8"?>
<svg id="Layer_1" xmlns="http://www.w3.org/2000/svg" xmlns:xlink="http://www.w3.org/1999/xlink" version="1.1" viewBox="0 0 128 128">
  <!-- Generator: Adobe Illustrator 29.5.1, SVG Export Plug-In . SVG Version: 2.1.0 Build 141)  -->
  <defs>
    <linearGradient id="_É_πÌÚ_·ÂÁ_Ì_Á_Ë_4774" data-name="É‡‰¥πÌÚ ·ÂÁ Ì‡Á‚Ë 4774" x1="-191.859" y1="376.099" x2="-191.246" y2="263.669" gradientTransform="translate(255.563 385.724) scale(1 -1)" gradientUnits="userSpaceOnUse">
      <stop offset="0" stop-color="#fdcf18"/>
      <stop offset=".47" stop-color="#f5ab0c"/>
      <stop offset=".93" stop-color="#ed8700"/>
    </linearGradient>
    <radialGradient id="_É_πÌÚ_·ÂÁ_Ì_Á_Ë_4773" data-name="É‡‰¥πÌÚ ·ÂÁ Ì‡Á‚Ë 4773" cx="-193.453" cy="369.438" fx="-193.453" fy="369.438" r="104.973" gradientTransform="translate(255.621 383.796) scale(1 -1)" gradientUnits="userSpaceOnUse">
      <stop offset=".07" stop-color="#fefee2"/>
      <stop offset=".28" stop-color="#fdee8c"/>
      <stop offset=".49" stop-color="#fcde36"/>
      <stop offset=".82" stop-color="#f5b820"/>
      <stop offset="1" stop-color="#ee910a"/>
    </radialGradient>
  </defs>
  <g>
    <path d="M123.736,64c0,32.991-26.745,59.734-59.735,59.734S4.266,96.991,4.266,64,31.01,4.266,64,4.266s59.735,26.744,59.735,59.734Z" fill="url(#_É_πÌÚ_·ÂÁ_Ì_Á_Ë_4774)"/>
    <path d="M117.262,64.225c-.46,30.055-24.672,54.053-54.077,53.602-29.406-.451-52.871-25.18-52.41-55.234S35.447,8.54,64.852,8.991c29.406.451,52.87,25.18,52.409,55.233Z" fill="url(#_É_πÌÚ_·ÂÁ_Ì_Á_Ë_4773)"/>
    <path d="M64,125c-33.635,0-61-27.364-61-61S30.365,3,64,3s61,27.364,61,61-27.365,61-61,61ZM64,5.531C31.76,5.531,5.53,31.76,5.53,64s26.23,58.469,58.47,58.469,58.47-26.229,58.47-58.469S96.24,5.531,64,5.531Z" fill="#e76900"/>
  </g>
  <g>
    <path d="M64,109.452c-23.126,0-43.041-29.455-42.496-37.629.405-6.087,8.45,3.359,42.496,4.095,34.046-.737,41.991-10.174,42.497-4.095.51,6.136-19.37,37.629-42.497,37.629Z" fill="#eaac1f"/>
    <path d="M64,78.41c-36.074-.812-42.513-11.203-42.513-3.492,0,21.536,18.683,39.379,42.513,39.379s42.512-17.843,42.512-39.379c0-7.71-6.438,2.681-42.512,3.492Z" fill="#fedd78"/>
    <path d="M105.987,74.594c0,20.123-19.147,37.072-41.987,37.072s-41.987-16.949-41.987-37.072c0-.199.006-.383.016-.557.38-6.088,8.346,3.359,41.972,4.096,33.625-.737,41.592-10.184,41.971-4.096.01.173.016.357.016.557Z" fill="#974800"/>
    <g>
      <path d="M99.784,86.311c-1.469,2.855-15.553,8.738-35.418,8.738-20.051,0-34.77-5.802-36.036-8.605-1.372-3.337-2.501-8.227-2.495-8.389.339-5.639,8.59,4.398,38.531,5.083,29.944-.684,37.525-10.39,37.863-4.751.006.162-1.138,4.77-2.445,7.924Z" fill="#632900"/>
      <path d="M102.241,78.439c-.294,2.638-1.151,5.292-2.457,7.872-3.043,1.205-15.915,5.782-35.779,5.782-20.052,0-32.32-4.302-35.675-5.649-1.372-2.73-2.242-5.525-2.508-8.277-.016-.152.007-.291.013-.424.338-4.614,8.225,3.533,38.166,4.092,29.944-.56,37.889-8.435,38.228-3.82.006.133.028.272.013.424Z" fill="#f4f4f4"/>
      <path d="M101.792,76.531c-1.366-2.208-7.949,4.5-37.777,4.503-29.828-.003-36.619-6.9-37.986-4.691-1.405,2.27,1.344,8.518,2.181,10.102,1.321.526,3.079,1.164,5.525,1.85-1.608-1.251-3.841-6.194-1.023-7.419,4.327-1.561,11.887,1.336,31.286,1.336s27.321-2.926,31.649-1.365c3.291,1.289.732,6.011-.348,6.999,2.424-.723,3.164-1.008,4.485-1.533.837-1.584,3.413-7.511,2.008-9.78Z" fill="#c8d5d6"/>
    </g>
    <path d="M97.137,97.089c3.201-5.399,5.045-11.61,5.045-18.157,0-.199-.004-.383-.013-.556-.345-6.088-7.59,2.781-38.17,3.517-30.577-.737-37.822-9.606-38.167-3.517-.01.173-.016.357-.016.556,0,6.55,1.847,12.765,5.054,18.167-5.532-6.284-8.858-14.12-8.858-22.505,0-.199.006-.383.016-.557.379-6.088,8.347,3.359,41.972,4.095,33.625-.737,41.592-10.184,41.971-4.095.01.173.016.357.016.557,0,8.381-3.324,16.211-8.849,22.496Z" fill="#632900"/>
  </g>
  <g>
    <g>
      <path d="M53.047,47.288c0,9.846-2.826,17.828-6.311,17.828s-6.31-7.982-6.31-17.828,2.826-17.827,6.31-17.827,6.311,7.982,6.311,17.827Z" fill="#ffe1a6"/>
      <path d="M53.047,45.453c0,8.832-2.826,15.992-6.311,15.992s-6.31-7.16-6.31-15.992,2.826-15.992,6.31-15.992,6.311,7.16,6.311,15.992Z" fill="#eaac1f"/>
      <path d="M52.539,47.209c0,8.994-2.598,16.285-5.803,16.285s-5.802-7.292-5.802-16.285,2.598-16.285,5.802-16.285,5.803,7.291,5.803,16.285Z" fill="#974800"/>
      <path d="M52.54,47.211c0,.715-.016,1.418-.051,2.11-.367-8.001-2.804-14.186-5.753-14.186s-5.386,6.184-5.753,14.186c-.035-.691-.05-1.394-.05-2.11,0-8.996,2.599-16.288,5.803-16.288s5.804,7.292,5.804,16.288Z" fill="#632900"/>
    </g>
    <g>
      <path d="M75.233,47.288c0,9.846,2.826,17.828,6.311,17.828s6.31-7.982,6.31-17.828-2.826-17.827-6.31-17.827-6.311,7.982-6.311,17.827Z" fill="#ffe1a6"/>
      <path d="M75.233,45.453c0,8.832,2.826,15.992,6.311,15.992s6.31-7.16,6.31-15.992-2.826-15.992-6.31-15.992-6.311,7.16-6.311,15.992Z" fill="#eaac1f"/>
      <path d="M75.742,47.209c0,8.994,2.598,16.285,5.802,16.285s5.802-7.292,5.802-16.285-2.597-16.285-5.802-16.285-5.802,7.291-5.802,16.285Z" fill="#974800"/>
      <path d="M75.74,47.211c0,.715.016,1.418.051,2.11.367-8.001,2.804-14.186,5.753-14.186s5.386,6.184,5.753,14.186c.035-.691.05-1.394.05-2.11,0-8.996-2.599-16.288-5.803-16.288s-5.804,7.292-5.804,16.288Z" fill="#632900"/>
    </g>
  </g>
</svg>