<?xml version="1.0" encoding="UTF-8"?><svg xmlns="http://www.w3.org/2000/svg" xmlns:xlink="http://www.w3.org/1999/xlink" viewBox="0 0 1024 935.85"><defs><style>.cls-1{fill:#091b36;}.cls-2{fill:#fff;mix-blend-mode:overlay;opacity:.67;}.cls-3{isolation:isolate;}.cls-4{opacity:0;}.cls-4,.cls-5,.cls-6,.cls-7,.cls-8,.cls-9,.cls-10,.cls-11,.cls-12,.cls-13,.cls-14,.cls-15,.cls-16,.cls-17,.cls-18,.cls-19,.cls-20,.cls-21,.cls-22,.cls-23,.cls-24,.cls-25,.cls-26,.cls-27,.cls-28,.cls-29,.cls-30,.cls-31,.cls-32,.cls-33,.cls-34,.cls-35,.cls-36,.cls-37,.cls-38,.cls-39,.cls-40,.cls-41,.cls-42,.cls-43,.cls-44,.cls-45,.cls-46,.cls-47,.cls-48,.cls-49,.cls-50,.cls-51,.cls-52,.cls-53,.cls-54,.cls-55,.cls-56,.cls-57,.cls-58,.cls-59,.cls-60,.cls-61,.cls-62,.cls-63,.cls-64,.cls-65,.cls-66{fill:#002d52;}.cls-4,.cls-6,.cls-7,.cls-8,.cls-9,.cls-10,.cls-11,.cls-12,.cls-13,.cls-14,.cls-15,.cls-16,.cls-17,.cls-18,.cls-19,.cls-20,.cls-21,.cls-22,.cls-23,.cls-24,.cls-25,.cls-26,.cls-27,.cls-28,.cls-29,.cls-30,.cls-31,.cls-32,.cls-33,.cls-34,.cls-35,.cls-36,.cls-37,.cls-38,.cls-39,.cls-40,.cls-41,.cls-42,.cls-43,.cls-44,.cls-45,.cls-46,.cls-47,.cls-48,.cls-49,.cls-50,.cls-51,.cls-52,.cls-53,.cls-54,.cls-55,.cls-56,.cls-57,.cls-58,.cls-59,.cls-60,.cls-61,.cls-62,.cls-63,.cls-64,.cls-65,.cls-66{mix-blend-mode:multiply;}.cls-67{fill:#db8619;}.cls-68{fill:#fddc4a;}.cls-6{opacity:.26;}.cls-7{opacity:.3;}.cls-8{opacity:.28;}.cls-9{opacity:.33;}.cls-10{opacity:.31;}.cls-11{opacity:.18;}.cls-12{opacity:.1;}.cls-13{opacity:.11;}.cls-14{opacity:.25;}.cls-15{opacity:.13;}.cls-16{opacity:.15;}.cls-17{opacity:.16;}.cls-18{opacity:.05;}.cls-19{opacity:.69;}.cls-20{opacity:.75;}.cls-21{opacity:.7;}.cls-22{opacity:.72;}.cls-23{opacity:.67;}.cls-24{opacity:.41;}.cls-25{opacity:.39;}.cls-26{opacity:.44;}.cls-27{opacity:.43;}.cls-28{opacity:.95;}.cls-29{opacity:.46;}.cls-30{opacity:.97;}.cls-31{opacity:.98;}.cls-32{opacity:.93;}.cls-33{opacity:.57;}.cls-34{opacity:.52;}.cls-35{opacity:.54;}.cls-36{opacity:.64;}.cls-37{opacity:.59;}.cls-38{opacity:.61;}.cls-39{opacity:.56;}.cls-40{opacity:.34;}.cls-41{opacity:.66;}.cls-42{opacity:.62;}.cls-43{opacity:.38;}.cls-44{opacity:.36;}.cls-45{opacity:.2;}.cls-46{opacity:.21;}.cls-47{opacity:.48;}.cls-48{opacity:.23;}.cls-49{opacity:.51;}.cls-50{opacity:.49;}.cls-51{opacity:.82;}.cls-52{opacity:.77;}.cls-53{opacity:.79;}.cls-54{opacity:.74;}.cls-55{opacity:.89;}.cls-56{opacity:.84;}.cls-57{opacity:.85;}.cls-58{opacity:.8;}.cls-59{opacity:.9;}.cls-60{opacity:.92;}.cls-61{opacity:.87;}.cls-62{opacity:.02;}.cls-63{opacity:.07;}.cls-64{opacity:.08;}.cls-65{opacity:.03;}.cls-69{fill:#fded58;mix-blend-mode:screen;opacity:.52;}.cls-70{opacity:.73;}.cls-71{opacity:.35;}.cls-72{fill:#00192d;}.cls-73{fill:#062d47;}.cls-74{fill:#3b6f86;}.cls-75{fill:#c0e6fd;}.cls-76{fill:#fdb62c;}.cls-77{fill:#1a4466;}.cls-78{fill:#def6fc;}.cls-79{fill:#245475;}.cls-80{fill:url(#_ÂÁ_Ï_ÌÌ_È_ËÂÌÚ_58);}</style><linearGradient id="_ÂÁ_Ï_ÌÌ_È_ËÂÌÚ_58" x1="512.05" y1="0" x2="512.05" y2="503.83" gradientUnits="userSpaceOnUse"><stop offset="0" stop-color="#11314e"/><stop offset=".34" stop-color="#143758"/><stop offset=".91" stop-color="#1e4973"/><stop offset="1" stop-color="#204d78"/></linearGradient></defs><g class="cls-3"><g id="Layer_1"><path class="cls-76" d="M210.74,491.4v48.46s44.43,166.63,299.35,169.37c282.58,3.04,282.58-160,282.58-160v-273.04L210.74,491.4Z"/><path class="cls-67" d="M571.65,344.6v362.31c220.84-19.45,221.03-157.67,221.03-157.67v-204.64h-221.03Z"/><path class="cls-69" d="M210.74,237.1v258.5s44.43,166.63,299.35,169.37c282.58,3.04,282.58-160,282.58-160V231.94l-581.93,5.16Z"/><path class="cls-1" d="M210.74,232.9v258.5s44.43,166.63,299.35,169.37c282.58,3.04,282.58-160,282.58-160V227.74l-581.93,5.16Z"/><path class="cls-71" d="M571.65,296.49v362.31c220.84-19.45,221.03-157.67,221.03-157.67v-204.64h-221.03Z"/><path class="cls-2" d="M244.88,601.44c12.38,15.55,28.94,32.19,50.77,47.67v-299.28l-50.77,18.77v232.84Z"/><path d="M792.67,491.26v-163.5l-140.32-69.23-441.61,1.5,1.48,110.48s19.59,32.4,58.19,52.19c32.33,16.57,130.37,64.19,130.37,64.19,0,0,149.05,199.35,391.9,4.37Z"/><polygon class="cls-72" points="1024 255.27 1023.9 270.07 513.62 525.35 513.72 510.54 1024 255.27"/><polygon class="cls-73" points="513.72 510.54 513.62 525.35 0 270.08 .1 255.27 513.72 510.54"/><polygon class="cls-74" points="1024 255.27 513.72 510.54 .1 255.27 510.38 0 1024 255.27"/><polygon class="cls-80" points="1024 255.27 513.72 503.83 .1 255.28 510.38 0 1024 255.27"/><path class="cls-68" d="M768.18,709.13v-304.6c0-13.08-8.07-25.42-21.06-32.2l-225.65-117.56c1.65-12.22-33.69,1.14-11.7,5.45l231.4,120.56c9.58,5.01,15.53,14.1,15.53,23.75v304.91c-12.96,31.03-25.78,171.91-28.86,207.23-.9,10.35,8.7,19.17,20.75,19.17h28.68c12.05,0,21.65-8.82,20.75-19.17-3.15-36.1-15.02-202.11-29.82-207.55Z"/><path class="cls-76" d="M777.25,935.85c12.05,0,21.65-8.82,20.75-19.17-3.15-36.1-13.13-192.55-29.82-208.56v-303.59c0-3.59-.66-7.11-1.81-10.48l-10.35,5.18c.4,1.74.67,3.51.67,5.31l-.46,301.86c-.99,2.02-.37,9.36-1.7,11.84-1.88,3.5-3.56,7.58-3.56,12.53,3.6-5.02,10.98.29,12.3,2.56,11.81,7.54,13.98,202.52,13.98,202.52Z"/><path class="cls-67" d="M536.75,274.29s-3.09-7.26,4.7-7.4c0,0,3.68.22,7.24,2.08,3.56,1.86-21.38-11.6-21.38-11.6l-16.01,4.76,25.44,12.16Z"/><g class="cls-70"><path class="cls-4" d="M531.71,274.44c7.72-2.07,10.89-4.19,13.82-6.32,8.77-7,7.07-16.33-5.18-22.42-14.24-7.08-37.24-7.08-51.39,0-14.15,7.08-14.07,18.55.17,25.62,11.58,5.76,28.89,6.73,42.58,3.12Z"/><path class="cls-62" d="M531.59,274.17c7.68-2.06,10.84-4.17,13.76-6.29,8.73-6.97,7.04-16.25-5.16-22.32-14.18-7.04-37.07-7.04-51.15,0-14.08,7.04-14.01,18.46.17,25.5,11.53,5.73,28.75,6.7,42.39,3.1Z"/><path class="cls-65" d="M531.47,273.9c7.65-2.05,10.79-4.15,13.69-6.26,8.69-6.93,7.01-16.18-5.14-22.21-14.11-7.01-36.9-7.01-50.91,0-14.02,7.01-13.94,18.37.17,25.39,11.48,5.7,28.62,6.67,42.19,3.09Z"/><path class="cls-18" d="M531.35,273.62c7.61-2.04,10.74-4.13,13.63-6.23,8.65-6.9,6.98-16.1-5.11-22.11-14.04-6.98-36.73-6.98-50.68,0-13.95,6.98-13.88,18.29.17,25.27,11.42,5.68,28.49,6.63,41.99,3.07Z"/><path class="cls-63" d="M531.22,273.35c7.57-2.03,10.69-4.11,13.57-6.2,8.61-6.87,6.94-16.03-5.09-22.01-13.98-6.95-36.55-6.95-50.44,0-13.89,6.95-13.81,18.2.17,25.15,11.37,5.65,28.36,6.6,41.8,3.06Z"/><path class="cls-64" d="M531.1,273.08c7.54-2.02,10.64-4.09,13.5-6.17,8.57-6.84,6.91-15.95-5.06-21.9-13.91-6.91-36.38-6.91-50.2,0-13.82,6.91-13.75,18.12.16,25.03,11.32,5.62,28.22,6.57,41.6,3.04Z"/><path class="cls-12" d="M530.98,272.81c7.5-2.01,10.59-4.07,13.44-6.14,8.53-6.8,6.88-15.88-5.04-21.8-13.85-6.88-36.21-6.88-49.97,0-13.76,6.88-13.68,18.03.16,24.91,11.26,5.6,28.09,6.54,41.4,3.03Z"/><path class="cls-13" d="M530.86,272.53c7.47-2,10.54-4.05,13.37-6.11,8.49-6.77,6.85-15.8-5.02-21.7-13.78-6.85-36.04-6.85-49.73,0-13.69,6.85-13.62,17.95.16,24.79,11.21,5.57,27.96,6.51,41.21,3.01Z"/><path class="cls-15" d="M530.73,272.26c7.43-2,10.49-4.03,13.31-6.08,8.45-6.74,6.81-15.73-4.99-21.59-13.72-6.82-35.87-6.82-49.49,0-13.63,6.82-13.55,17.86.16,24.68,11.16,5.55,27.82,6.48,41.01,3Z"/><path class="cls-16" d="M530.61,271.99c7.4-1.99,10.44-4.01,13.25-6.05,8.41-6.71,6.78-15.65-4.97-21.49-13.65-6.78-35.69-6.78-49.25,0-13.56,6.78-13.49,17.78.16,24.56,11.1,5.52,27.69,6.45,40.81,2.99Z"/><path class="cls-17" d="M530.49,271.71c7.36-1.98,10.39-3.99,13.18-6.03,8.37-6.68,6.75-15.58-4.94-21.39-13.58-6.75-35.52-6.75-49.02,0-13.49,6.75-13.42,17.69.16,24.44,11.05,5.49,27.56,6.42,40.62,2.97Z"/><path class="cls-11" d="M530.37,271.44c7.33-1.97,10.34-3.97,13.12-6,8.32-6.64,6.72-15.5-4.92-21.28-13.52-6.72-35.35-6.72-48.78,0-13.43,6.72-13.36,17.6.16,24.32,11,5.47,27.42,6.39,40.42,2.96Z"/><path class="cls-45" d="M530.24,271.17c7.29-1.96,10.29-3.95,13.06-5.97,8.28-6.61,6.68-15.43-4.9-21.18-13.45-6.69-35.18-6.69-48.54,0-13.36,6.68-13.29,17.52.16,24.2,10.94,5.44,27.29,6.36,40.23,2.94Z"/><path class="cls-46" d="M530.12,270.89c7.25-1.95,10.24-3.94,12.99-5.94,8.24-6.58,6.65-15.35-4.87-21.08-13.39-6.65-35.01-6.65-48.31,0-13.3,6.65-13.23,17.43.16,24.09,10.89,5.41,27.16,6.32,40.03,2.93Z"/><path class="cls-48" d="M530,270.62c7.22-1.94,10.19-3.92,12.93-5.91,8.2-6.55,6.62-15.27-4.85-20.97-13.32-6.62-34.84-6.62-48.07,0-13.23,6.62-13.16,17.35.16,23.97,10.84,5.39,27.02,6.29,39.83,2.91Z"/><path class="cls-14" d="M529.88,270.35c7.18-1.93,10.14-3.9,12.86-5.88,8.16-6.51,6.58-15.2-4.82-20.87-13.26-6.59-34.66-6.59-47.83,0-13.17,6.59-13.1,17.26.16,23.85,10.78,5.36,26.89,6.26,39.64,2.9Z"/><path class="cls-6" d="M529.75,270.07c7.15-1.92,10.09-3.88,12.8-5.85,8.12-6.48,6.55-15.12-4.8-20.77-13.19-6.56-34.49-6.56-47.6,0-13.1,6.55-13.03,17.18.16,23.73,10.73,5.33,26.76,6.23,39.44,2.89Z"/><path class="cls-8" d="M529.63,269.8c7.11-1.91,10.04-3.86,12.74-5.82,8.08-6.45,6.52-15.05-4.78-20.66-13.12-6.52-34.32-6.52-47.36,0-13.04,6.52-12.97,17.09.16,23.61,10.68,5.31,26.62,6.2,39.24,2.87Z"/><path class="cls-7" d="M529.51,269.53c7.08-1.9,9.98-3.84,12.67-5.79,8.04-6.42,6.49-14.97-4.75-20.56-13.06-6.49-34.15-6.49-47.12,0-12.97,6.49-12.9,17.01.15,23.5,10.62,5.28,26.49,6.17,39.05,2.86Z"/><path class="cls-10" d="M529.39,269.25c7.04-1.89,9.93-3.82,12.61-5.76,8-6.39,6.45-14.9-4.73-20.46-12.99-6.46-33.98-6.46-46.89,0-12.91,6.46-12.84,16.92.15,23.38,10.57,5.25,26.36,6.14,38.85,2.84Z"/><path class="cls-9" d="M529.26,268.98c7-1.88,9.88-3.8,12.55-5.73,7.96-6.35,6.42-14.82-4.71-20.35-12.93-6.42-33.81-6.42-46.65,0-12.84,6.42-12.77,16.84.15,23.26,10.52,5.23,26.22,6.11,38.66,2.83Z"/><path class="cls-40" d="M529.14,268.71c6.97-1.87,9.83-3.78,12.48-5.71,7.92-6.32,6.39-14.75-4.68-20.25-12.86-6.39-33.63-6.39-46.41,0-12.78,6.39-12.71,16.75.15,23.14,10.46,5.2,26.09,6.08,38.46,2.81Z"/><path class="cls-44" d="M529.02,268.43c6.93-1.86,9.78-3.76,12.42-5.68,7.88-6.29,6.36-14.67-4.66-20.15-12.8-6.36-33.46-6.36-46.17,0-12.71,6.36-12.65,16.66.15,23.02,10.41,5.17,25.96,6.05,38.26,2.8Z"/><path class="cls-43" d="M528.9,268.16c6.9-1.85,9.73-3.74,12.35-5.65,7.84-6.26,6.32-14.6-4.63-20.04-12.73-6.33-33.29-6.33-45.94,0-12.65,6.33-12.58,16.58.15,22.9,10.36,5.15,25.82,6.01,38.07,2.78Z"/><path class="cls-25" d="M528.77,267.89c6.86-1.84,9.68-3.72,12.29-5.62,7.8-6.22,6.29-14.52-4.61-19.94-12.67-6.29-33.12-6.29-45.7,0-12.58,6.29-12.52,16.49.15,22.79,10.3,5.12,25.69,5.98,37.87,2.77Z"/><path class="cls-24" d="M528.65,267.61c6.83-1.83,9.63-3.7,12.23-5.59,7.76-6.19,6.26-14.45-4.59-19.84-12.6-6.26-32.95-6.26-45.46,0-12.52,6.26-12.45,16.41.15,22.67,10.25,5.09,25.56,5.95,37.67,2.76Z"/><path class="cls-27" d="M528.53,267.34c6.79-1.82,9.58-3.68,12.16-5.56,7.72-6.16,6.23-14.37-4.56-19.73-12.53-6.23-32.78-6.23-45.23,0-12.45,6.23-12.39,16.32.15,22.55,10.2,5.07,25.43,5.92,37.48,2.74Z"/><path class="cls-26" d="M528.41,267.07c6.76-1.81,9.53-3.67,12.1-5.53,7.68-6.13,6.19-14.3-4.54-19.63-12.47-6.2-32.6-6.2-44.99,0-12.39,6.2-12.32,16.24.15,22.43,10.14,5.04,25.29,5.89,37.28,2.73Z"/><path class="cls-29" d="M528.28,266.79c6.72-1.8,9.48-3.65,12.04-5.5,7.64-6.1,6.16-14.22-4.51-19.53-12.4-6.16-32.43-6.16-44.75,0-12.32,6.16-12.26,16.15.15,22.31,10.09,5.01,25.16,5.86,37.08,2.71Z"/><path class="cls-47" d="M528.16,266.52c6.68-1.79,9.43-3.63,11.97-5.47,7.6-6.06,6.13-14.15-4.49-19.42-12.34-6.13-32.26-6.13-44.52,0-12.26,6.13-12.19,16.07.15,22.2,10.04,4.99,25.03,5.83,36.89,2.7Z"/><path class="cls-50" d="M528.04,266.25c6.65-1.79,9.38-3.61,11.91-5.44,7.56-6.03,6.1-14.07-4.47-19.32-12.27-6.1-32.09-6.1-44.28,0-12.19,6.1-12.13,15.98.14,22.08,9.98,4.96,24.89,5.8,36.69,2.68Z"/><path class="cls-49" d="M527.92,265.97c6.61-1.78,9.33-3.59,11.84-5.41,7.52-6,6.06-13.99-4.44-19.22-12.21-6.07-31.92-6.07-44.04,0-12.12,6.06-12.06,15.89.14,21.96,9.93,4.93,24.76,5.77,36.5,2.67Z"/><path class="cls-34" d="M527.79,265.7c6.58-1.77,9.28-3.57,11.78-5.39,7.48-5.97,6.03-13.92-4.42-19.11-12.14-6.03-31.75-6.03-43.81,0-12.06,6.03-12,15.81.14,21.84,9.88,4.91,24.63,5.74,36.3,2.66Z"/><path class="cls-35" d="M527.67,265.43c6.54-1.76,9.23-3.55,11.72-5.36,7.44-5.93,6-13.84-4.39-19.01-12.07-6-31.57-6-43.57,0-11.99,6-11.93,15.72.14,21.72,9.82,4.88,24.49,5.7,36.1,2.64Z"/><path class="cls-39" d="M527.55,265.15c6.51-1.75,9.18-3.53,11.65-5.33,7.39-5.9,5.97-13.77-4.37-18.91-12.01-5.97-31.4-5.97-43.33,0-11.93,5.97-11.87,15.64.14,21.61,9.77,4.85,24.36,5.67,35.91,2.63Z"/><path class="cls-33" d="M527.43,264.88c6.47-1.74,9.13-3.51,11.59-5.3,7.35-5.87,5.93-13.69-4.35-18.8-11.94-5.94-31.23-5.94-43.1,0-11.86,5.93-11.8,15.55.14,21.49,9.72,4.83,24.23,5.64,35.71,2.61Z"/><path class="cls-37" d="M527.3,264.61c6.44-1.73,9.08-3.49,11.53-5.27,7.31-5.84,5.9-13.62-4.32-18.7-11.88-5.9-31.06-5.9-42.86,0-11.8,5.9-11.74,15.47.14,21.37,9.66,4.8,24.09,5.61,35.51,2.6Z"/><path class="cls-38" d="M527.18,264.33c6.4-1.72,9.03-3.47,11.46-5.24,7.27-5.8,5.87-13.54-4.3-18.6-11.81-5.87-30.89-5.87-42.62,0-11.73,5.87-11.67,15.38.14,21.25,9.61,4.78,23.96,5.58,35.32,2.58Z"/><path class="cls-42" d="M527.06,264.06c6.36-1.71,8.98-3.45,11.4-5.21,7.23-5.77,5.83-13.47-4.27-18.49-11.75-5.84-30.72-5.84-42.38,0-11.67,5.84-11.61,15.3.14,21.13,9.56,4.75,23.83,5.55,35.12,2.57Z"/><path class="cls-36" d="M526.94,263.79c6.33-1.7,8.93-3.43,11.34-5.18,7.19-5.74,5.8-13.39-4.25-18.39-11.68-5.8-30.54-5.8-42.15,0-11.6,5.8-11.54,15.21.14,21.01,9.5,4.72,23.69,5.52,34.93,2.55Z"/><path class="cls-41" d="M526.81,263.51c6.29-1.69,8.88-3.41,11.27-5.15,7.15-5.71,5.77-13.32-4.23-18.29-11.61-5.77-30.37-5.77-41.91,0-11.54,5.77-11.48,15.13.14,20.9,9.45,4.7,23.56,5.49,34.73,2.54Z"/><path class="cls-23" d="M526.69,263.24c6.26-1.68,8.83-3.4,11.21-5.12,7.11-5.68,5.74-13.24-4.2-18.18-11.55-5.74-30.2-5.74-41.67,0-11.47,5.74-11.41,15.04.14,20.78,9.39,4.67,23.43,5.46,34.53,2.53Z"/><path class="cls-19" d="M526.57,262.97c6.22-1.67,8.78-3.38,11.14-5.09,7.07-5.64,5.7-13.17-4.18-18.08-11.48-5.71-30.03-5.71-41.44,0-11.41,5.71-11.35,14.95.14,20.66,9.34,4.64,23.29,5.43,34.34,2.51Z"/><path class="cls-21" d="M526.45,262.69c6.19-1.66,8.73-3.36,11.08-5.06,7.03-5.61,5.67-13.09-4.16-17.98-11.42-5.67-29.86-5.67-41.2,0-11.34,5.67-11.28,14.87.13,20.54,9.29,4.62,23.16,5.39,34.14,2.5Z"/><path class="cls-22" d="M526.32,262.42c6.15-1.65,8.68-3.34,11.02-5.04,6.99-5.58,5.64-13.02-4.13-17.87-11.35-5.64-29.69-5.64-40.96,0-11.28,5.64-11.22,14.78.13,20.42,9.23,4.59,23.03,5.36,33.94,2.48Z"/><path class="cls-54" d="M526.2,262.15c6.12-1.64,8.63-3.32,10.95-5.01,6.95-5.55,5.61-12.94-4.11-17.77-11.29-5.61-29.51-5.61-40.73,0-11.21,5.61-11.15,14.7.13,20.31,9.18,4.56,22.89,5.33,33.75,2.47Z"/><path class="cls-20" d="M526.08,261.88c6.08-1.63,8.58-3.3,10.89-4.98,6.91-5.51,5.57-12.87-4.08-17.66-11.22-5.58-29.34-5.58-40.49,0-11.15,5.58-11.09,14.61.13,20.19,9.13,4.54,22.76,5.3,33.55,2.45Z"/><path class="cls-52" d="M525.96,261.6c6.04-1.62,8.53-3.28,10.83-4.95,6.87-5.48,5.54-12.79-4.06-17.56-11.16-5.54-29.17-5.54-40.25,0-11.08,5.54-11.02,14.53.13,20.07,9.07,4.51,22.63,5.27,33.35,2.44Z"/><path class="cls-53" d="M525.83,261.33c6.01-1.61,8.48-3.26,10.76-4.92,6.83-5.45,5.51-12.72-4.04-17.46-11.09-5.51-29-5.51-40.02,0-11.02,5.51-10.96,14.44.13,19.95,9.02,4.48,22.5,5.24,33.16,2.43Z"/><path class="cls-58" d="M525.71,261.06c5.97-1.6,8.43-3.24,10.7-4.89,6.79-5.42,5.48-12.64-4.01-17.35-11.02-5.48-28.83-5.48-39.78,0-10.95,5.48-10.89,14.36.13,19.83,8.97,4.46,22.36,5.21,32.96,2.41Z"/><path class="cls-51" d="M525.59,260.78c5.94-1.59,8.38-3.22,10.63-4.86,6.75-5.39,5.44-12.56-3.99-17.25-10.96-5.45-28.66-5.45-39.54,0-10.89,5.45-10.83,14.27.13,19.72,8.91,4.43,22.23,5.18,32.77,2.4Z"/><path class="cls-56" d="M525.47,260.51c5.9-1.58,8.33-3.2,10.57-4.83,6.71-5.35,5.41-12.49-3.96-17.15-10.89-5.41-28.48-5.41-39.3,0-10.82,5.41-10.76,14.18.13,19.6,8.86,4.4,22.1,5.15,32.57,2.38Z"/><path class="cls-57" d="M525.34,260.24c5.87-1.58,8.28-3.18,10.51-4.8,6.67-5.32,5.38-12.41-3.94-17.04-10.83-5.38-28.31-5.38-39.07,0-10.76,5.38-10.7,14.1.13,19.48,8.81,4.38,21.96,5.11,32.37,2.37Z"/><path class="cls-61" d="M525.22,259.96c5.83-1.57,8.23-3.16,10.44-4.77,6.63-5.29,5.35-12.34-3.92-16.94-10.76-5.35-28.14-5.35-38.83,0-10.69,5.35-10.63,14.01.13,19.36,8.75,4.35,21.83,5.08,32.18,2.35Z"/><path class="cls-55" d="M525.1,259.69c5.8-1.56,8.18-3.14,10.38-4.74,6.59-5.26,5.31-12.26-3.89-16.84-10.7-5.32-27.97-5.32-38.59,0-10.62,5.31-10.57,13.93.13,19.24,8.7,4.32,21.7,5.05,31.98,2.34Z"/><path class="cls-59" d="M524.98,259.42c5.76-1.55,8.13-3.12,10.32-4.72,6.55-5.22,5.28-12.19-3.87-16.73-10.63-5.28-27.8-5.28-38.36,0-10.56,5.28-10.5,13.84.13,19.12,8.65,4.3,21.56,5.02,31.78,2.33Z"/><path class="cls-60" d="M524.86,259.14c5.72-1.54,8.08-3.11,10.25-4.69,6.51-5.19,5.25-12.11-3.84-16.63-10.56-5.25-27.63-5.25-38.12,0-10.49,5.25-10.44,13.76.12,19.01,8.59,4.27,21.43,4.99,31.59,2.31Z"/><path class="cls-32" d="M524.73,258.87c5.69-1.53,8.03-3.09,10.19-4.66,6.46-5.16,5.22-12.04-3.82-16.53-10.5-5.22-27.45-5.22-37.88,0-10.43,5.22-10.37,13.67.12,18.89,8.54,4.24,21.3,4.96,31.39,2.3Z"/><path class="cls-28" d="M524.61,258.6c5.65-1.52,7.98-3.07,10.12-4.63,6.42-5.13,5.18-11.96-3.8-16.42-10.43-5.18-27.28-5.18-37.65,0-10.36,5.18-10.31,13.59.12,18.77,8.49,4.22,21.16,4.93,31.2,2.28Z"/><path class="cls-30" d="M524.49,258.32c5.62-1.51,7.93-3.05,10.06-4.6,6.38-5.09,5.15-11.89-3.77-16.32-10.37-5.15-27.11-5.15-37.41,0-10.3,5.15-10.24,13.5.12,18.65,8.43,4.19,21.03,4.9,31,2.27Z"/><path class="cls-31" d="M524.37,258.05c5.58-1.5,7.88-3.03,10-4.57,6.34-5.06,5.12-11.81-3.75-16.22-10.3-5.12-26.94-5.12-37.17,0-10.23,5.12-10.18,13.42.12,18.53,8.38,4.16,20.9,4.87,30.8,2.25Z"/><path class="cls-66" d="M524.24,257.78c5.55-1.49,7.83-3.01,9.93-4.54,6.3-5.03,5.08-11.74-3.73-16.11-10.24-5.09-26.77-5.09-36.94,0-10.17,5.09-10.11,13.33.12,18.42,8.33,4.14,20.76,4.84,30.61,2.24Z"/></g><path class="cls-5" d="M527.48,264.27c7.02-1.88,9.9-3.81,12.57-5.74,7.98-6.36,6.43-14.85-4.71-20.39-12.95-6.44-33.87-6.44-46.73,0-12.87,6.44-12.8,16.87.15,23.3,10.54,5.24,26.27,6.12,38.72,2.83Z"/><path class="cls-79" d="M527.48,258.19c7.02-1.88,9.9-3.81,12.57-5.74,7.98-6.36,6.43-14.85-4.71-20.39-12.95-6.44-33.87-6.44-46.73,0-12.87,6.44-12.8,16.87.15,23.3,10.54,5.24,26.27,6.12,38.72,2.83Z"/><path class="cls-77" d="M527.48,256.52c7.02-1.78,9.9-3.6,12.57-5.43,7.98-6.02,6.43-14.05-4.71-19.29-12.95-6.09-33.87-6.09-46.73,0-12.87,6.09-12.8,15.95.15,22.04,10.54,4.95,26.27,5.79,38.72,2.68Z"/><path class="cls-75" d="M773.76,718.44c-2.15,7.5-19.46,8.08-20.99,0v-48.56h20.99v48.56Z"/><path class="cls-78" d="M755.65,722.33c1.58,1.04,3.58,1.63,5.77,1.81v-41.75l-5.77-2.31v42.25Z"/><circle class="cls-76" cx="763.27" cy="660.98" r="17.22" transform="translate(-11.44 1308.51) rotate(-80.78)"/><path class="cls-68" d="M765.57,655.29c0,4.03-3.27,7.3-7.3,7.3s-7.3-3.27-7.3-7.3,3.27-7.3,7.3-7.3,7.3,3.27,7.3,7.3Z"/><polygon class="cls-76" points="750.97 826.59 754.31 935.85 742.08 934.86 750.97 826.59"/></g></g></svg>