<?xml version="1.0" encoding="UTF-8"?>
<svg id="Layer_1" xmlns="http://www.w3.org/2000/svg" version="1.1" viewBox="0 0 481 1024">
  <!-- Generator: Adobe Illustrator 29.5.1, SVG Export Plug-In . SVG Version: 2.1.0 Build 141)  -->
  <g id="Layer_11" data-name="Layer_1">
    <path d="M329.507,114.654C286.337,63.664,249.167,11.874,241.577,1.124c-.8-.8-2-.8-2.8,0-7.59,10.76-44.77,62.54-87.93,113.53-370.52,470.47,58.36,787.97,58.36,787.97l3.6,2.39c3.2,49,11.19,119.51,11.19,119.51h31.98s7.99-70.11,11.19-119.51l3.6-2.79c.4,0,429.27-317.1,58.76-787.57h-.02ZM239.977,895.454s-19.19-16.33-24.38-24.7v-.79l23.18-512.3c0-1.59,2.4-1.59,2.4,0l23.18,512.3v.79c-5.2,8.37-24.38,24.7-24.38,24.7Z" fill="#00684a"/>
  </g>
</svg>