<?xml version="1.0" encoding="UTF-8"?>
<svg id="Layer_1" xmlns="http://www.w3.org/2000/svg" version="1.1" viewBox="0 0 1024 1024">
  <!-- Generator: Adobe Illustrator 29.5.1, SVG Export Plug-In . SVG Version: 2.1.0 Build 141)  -->
  <circle cx="512.182" cy="512.424" r="512" fill="#000083"/>
  <circle cx="512.182" cy="512.424" r="74.175" fill="#00daff"/>
  <path d="M512.182,343.873c-228.306,0-413.378,75.461-413.378,168.551s185.071,168.551,413.378,168.551,413.378-75.461,413.378-168.551-185.083-168.551-413.378-168.551h0ZM791.488,599.768c-74.057,30.184-173.248,46.822-279.306,46.822s-205.261-16.626-279.306-46.822c-62.41-25.453-99.663-58.103-99.663-87.344s37.253-61.891,99.663-87.332c74.057-30.196,173.248-46.822,279.306-46.822s205.261,16.626,279.306,46.822c62.398,25.453,99.651,58.091,99.651,87.332s-37.253,61.891-99.651,87.344Z" fill="#00daff"/>
  <path d="M366.204,428.149c-114.141,197.709-141.329,395.725-60.711,442.264,80.606,46.551,238.513-75.992,352.667-273.713,114.141-197.721,141.317-395.713,60.711-442.264-80.618-46.551-238.513,75.992-352.667,273.701v.012ZM727.461,314.196c-10.88,79.225-46.067,173.448-99.096,265.299-53.041,91.851-117.044,169.448-180.21,218.477-53.23,41.312-100.147,57.254-125.458,42.645-25.335-14.62-34.975-63.213-25.818-129.977,10.88-79.225,46.079-173.448,99.108-265.299,53.041-91.851,117.032-169.436,180.198-218.465,53.242-41.324,100.147-57.265,125.469-42.645,25.323,14.62,34.975,63.213,25.807,129.977v-.012Z" fill="#00daff"/>
  <path d="M305.493,154.436c-80.618,46.551-53.454,244.543,60.711,442.264,114.153,197.709,272.049,320.264,352.667,273.713,80.606-46.551,53.442-244.555-60.723-442.264-114.141-197.721-272.049-320.252-352.655-273.701v-.012ZM322.686,184.231c25.323-14.62,72.228,1.322,125.469,42.645,63.165,49.029,127.169,126.614,180.198,218.465,53.041,91.863,88.229,186.086,99.108,265.299,9.169,66.764-.484,115.357-25.807,129.977-25.323,14.62-72.228-1.322-125.469-42.645-63.165-49.029-127.169-126.626-180.198-218.477-53.041-91.851-88.229-186.074-99.108-265.299-9.157-66.764.484-115.357,25.807-129.977v.012Z" fill="#00daff"/>
</svg>