<?xml version="1.0" encoding="UTF-8"?>
<svg id="Layer_1" xmlns="http://www.w3.org/2000/svg" xmlns:xlink="http://www.w3.org/1999/xlink" version="1.1" viewBox="0 0 898 1024">
  <!-- Generator: Adobe Illustrator 29.5.1, SVG Export Plug-In . SVG Version: 2.1.0 Build 141)  -->
  <defs>
    <linearGradient id="linear-gradient" x1="779.204" y1="1110.629" x2="-43.028" y2="-376.915" gradientTransform="translate(0 1026) scale(1 -1)" gradientUnits="userSpaceOnUse">
      <stop offset="0" stop-color="#41873f"/>
      <stop offset=".33" stop-color="#408a3d"/>
      <stop offset=".64" stop-color="#409536"/>
      <stop offset=".93" stop-color="#3fa82c"/>
      <stop offset="1" stop-color="#3fae2a"/>
    </linearGradient>
    <linearGradient id="linear-gradient1" x1="-295.125" y1="484.453" x2="1327.009" y2="547.923" xlink:href="#linear-gradient"/>
    <linearGradient id="linear-gradient2" x1="24.076" y1="547.846" x2="880.878" y2="478.776" gradientTransform="translate(0 1026) scale(1 -1)" gradientUnits="userSpaceOnUse">
      <stop offset="0" stop-color="#6cc04a"/>
      <stop offset=".09" stop-color="#6cc04a"/>
      <stop offset=".29" stop-color="#65b748"/>
      <stop offset=".6" stop-color="#54a043"/>
      <stop offset=".86" stop-color="#41873f"/>
      <stop offset="1" stop-color="#41873f"/>
    </linearGradient>
  </defs>
  <g isolation="isolate">
    <g id="Layer_11" data-name="Layer_1">
      <g>
        <g>
          <path d="M419.937,11.283L29.806,236.534C13.716,245.804.546,268.624.546,287.184v450.481c0,18.59,13.17,41.39,29.26,50.67l390.121,225.261c16.08,9.28,42.41,9.26,58.51,0l390.131-225.261c16.08-9.28,29.25-32.09,29.25-50.67v-450.481c0-18.59-13.17-41.38-29.25-50.65L478.437,11.283c-16.08-9.29-42.41-9.29-58.5,0h0Z" fill="url(#linear-gradient)"/>
          <path d="M6.446,736.045c-9.23,16.02-3.7,36.66,12.3,45.91l412.241,237.991c16,9.24,36.65,3.72,45.9-12.3l415.031-718.842c9.23-16.01,3.7-36.66-12.3-45.9L467.387,4.903c-16-9.24-36.66-3.72-45.89,12.3L6.446,736.045Z" fill="url(#linear-gradient1)"/>
          <path d="M891.908,736.045c9.24,16.02,3.7,36.66-12.29,45.91l-412.231,237.991c-16,9.24-36.66,3.72-45.89-12.3L6.446,288.804c-9.23-16.01-3.7-36.66,12.3-45.9L430.987,4.903c16-9.24,36.66-3.72,45.9,12.3l415.021,718.842h0Z" fill="url(#linear-gradient2)"/>
        </g>
        <g id="nodejs" mix-blend-mode="overlay">
          <path d="M415.897,114.603c20.16-11.54,46.41-11.59,66.56,0,101.33,57.26,202.691,114.42,304.001,171.71,19.06,10.73,31.8,31.94,31.61,53.9v344.471c.14,22.87-13.86,44.58-33.97,55.07-101,56.94-201.941,113.95-302.921,170.89-20.58,11.76-47.36,10.86-67.29-1.87-30.28-17.55-60.61-35.02-90.89-52.55-6.19-3.69-13.16-6.62-17.53-12.62,3.86-5.21,10.77-5.85,16.38-8.13,12.64-4.02,24.25-10.47,35.86-16.73,2.94-2.01,6.52-1.24,9.34.56,25.89,14.85,51.55,30.12,77.53,44.83,5.54,3.2,11.15-1.05,15.89-3.69,99.11-56.01,198.34-111.82,297.431-167.85,3.67-1.77,5.7-5.66,5.4-9.69.07-113.63.02-227.291.03-340.921.42-4.56-2.22-8.76-6.35-10.63-100.64-56.68-201.241-113.45-301.871-170.14-3.57-2.45-8.28-2.46-11.85-.02-100.63,56.71-201.201,113.53-301.831,170.21-4.11,1.87-6.87,6-6.38,10.58.02,113.63,0,227.291,0,340.941-.36,4.02,1.83,7.84,5.47,9.56,26.85,15.23,53.74,30.35,80.61,45.52,15.14,8.15,33.72,12.99,50.4,6.75,14.72-5.28,25.03-20.3,24.75-35.92.14-112.97-.07-225.961.1-338.911-.37-5.02,4.39-9.16,9.27-8.69,12.9-.09,25.82-.17,38.72.03,5.39-.12,9.09,5.28,8.43,10.33-.05,113.69.14,227.381-.09,341.061.03,30.3-12.41,63.27-40.44,78.09-34.53,17.89-77.2,14.09-111.31-3.06-29.53-14.74-57.71-32.13-86.71-47.92-20.16-10.43-34.09-32.23-33.95-55.08v-344.481c-.21-22.41,13.04-44,32.69-54.58,100.98-56.99,201.941-114.02,302.901-171.03l.01.01Z" fill="#fff"/>
          <path d="M503.987,353.224c44.04-2.83,91.19-1.68,130.82,20.02,30.68,16.63,47.69,51.52,48.24,85.61-.86,4.6-5.66,7.13-10.05,6.82-12.78-.02-25.56.17-38.34-.09-5.42.21-8.57-4.79-9.25-9.58-3.67-16.31-12.57-32.46-27.92-40.33-23.57-11.8-50.89-11.21-76.59-10.96-18.76,1-38.93,2.62-54.83,13.65-12.2,8.36-15.91,25.23-11.55,38.81,4.11,9.75,15.37,12.9,24.58,15.8,53.07,13.88,109.32,12.5,161.38,30.77,21.55,7.45,42.64,21.92,50.02,44.49,9.65,30.25,5.42,66.4-16.1,90.68-17.45,19.98-42.87,30.86-68.22,36.76-33.72,7.52-68.72,7.71-102.97,4.37-32.2-3.67-65.72-12.13-90.58-34.07-21.26-18.46-31.64-47.22-30.61-74.98.25-4.69,4.91-7.96,9.4-7.57,12.87-.1,25.74-.14,38.6.02,5.14-.37,8.95,4.07,9.21,8.92,2.37,15.54,8.21,31.85,21.77,41.06,26.15,16.87,58.97,15.72,88.91,16.19,24.81-1.1,52.66-1.43,72.9-17.83,10.68-9.35,13.85-25,10.96-38.46-3.13-11.36-15.02-16.66-25.23-20.12-52.39-16.57-109.26-10.56-161.15-29.3-21.06-7.44-41.43-21.52-49.53-43.16-11.29-30.63-6.12-68.51,17.66-91.98,23.18-23.34,56.64-32.33,88.46-35.54h.01Z" fill="#fff"/>
        </g>
      </g>
    </g>
  </g>
</svg>