<?xml version="1.0" encoding="UTF-8"?>
<svg id="Layer_1" xmlns="http://www.w3.org/2000/svg" version="1.1" viewBox="0 0 800 800">
  <!-- Generator: Adobe Illustrator 29.5.1, SVG Export Plug-In . SVG Version: 2.1.0 Build 141)  -->
  <path d="M400,0C179.067,0,0,179.1,0,400s179.067,400,400,400,400-179.067,400-400c.016-37.701-5.292-75.216-15.767-111.433-4.205-10.214-15.894-15.085-26.108-10.88-9.607,3.955-14.586,14.607-11.459,24.514h-.067c8.833,31.433,13.4,64.267,13.4,97.8.263,95.531-37.702,187.197-105.433,254.567-67.368,67.734-159.035,105.7-254.567,105.433-95.531.263-187.197-37.702-254.567-105.433-67.737-67.366-105.703-159.034-105.433-254.567-.263-95.531,37.702-187.197,105.433-254.567,67.366-67.737,159.034-105.703,254.567-105.433,85.867,0,167.1,29.867,231.933,84.667-9.893,25.11,2.442,53.485,27.552,63.378,25.11,9.893,53.485-2.442,63.378-27.552,9.893-25.11-2.442-53.485-27.552-63.378-11.106-4.376-23.429-4.535-34.645-.448C588.203,34.192,495.677-.12,400,0ZM352,196l-140,363.4h87.667l22.9-61.6h132.3l-23.967-68.067h-87.1l56.667-156.367,100.8,286h87.7l-139.967-363.367h-97Z" fill="#fff"/>
</svg>