<?xml version="1.0" encoding="UTF-8"?>
<svg id="Layer_1" xmlns="http://www.w3.org/2000/svg" version="1.1" viewBox="0 0 1024 1024">
  <!-- Generator: Adobe Illustrator 29.5.1, SVG Export Plug-In . SVG Version: 2.1.0 Build 141)  -->
  <circle cx="512" cy="512" r="512" fill="#363636"/>
  <path d="M912.182,732.445c-24.095,9.113-51.202-1.186-63.167-24l-115-159.033-16.667-22.233-133.433,181.467c-11.241,21.85-36.959,31.954-60.067,23.6l171.933-230.667-159.933-208.367c23.704-8.542,50.15.727,63.333,22.2l119.2,161,119.867-160.333c11.335-21.474,36.961-31.048,59.6-22.267l-62.067,82.367-84.067,109.433c-9.15,8.162-9.95,22.195-1.789,31.345.562.63,1.159,1.227,1.789,1.789l160.133,213.733.333-.033ZM112.249,498.712l14-69.167c38.467-136.767,195.267-193.667,303.133-109,63.167,49.633,78.933,119.9,75.833,199.1H149.382c-5.767,141.433,96.3,226.833,226.8,183.2,42.972-15.468,75.304-51.482,86.067-95.867,6.9-22.2,18.267-26,39.133-19.6-7.045,54.864-38.849,103.473-86.3,131.9-79.358,43.408-177.631,30.858-243.533-31.1-31.766-35.754-50.964-80.917-54.667-128.6,0-7.833-2.667-15.167-4.467-22.2-.162-12.877-.24-25.755-.233-38.633l.067-.033ZM149.816,489.179h321.8c-2-102.533-66.7-175.267-153-175.933-96.067-1.333-164.8,69.8-169.033,175.467l.233.467Z" fill="#fff"/>
</svg>